M48
; DRILL file {KiCad 7.0.9} date Sat Nov 25 16:41:27 2023
; FORMAT={-:-/ absolute / inch / decimal}
; #@! TF.CreationDate,2023-11-25T16:41:27+01:00
; #@! TF.GenerationSoftware,Kicad,Pcbnew,7.0.9
; #@! TF.FileFunction,Plated,1,2,PTH
FMAT,2
INCH
; #@! TA.AperFunction,Plated,PTH,ViaDrill
T1C0.0118
; #@! TA.AperFunction,Plated,PTH,ComponentDrill
T2C0.0236
; #@! TA.AperFunction,Plated,PTH,ComponentDrill
T3C0.0300
; #@! TA.AperFunction,Plated,PTH,ComponentDrill
T4C0.0394
; #@! TA.AperFunction,Plated,PTH,ComponentDrill
T5C0.0472
%
G90
G05
T1
X0.075Y-2.125
X0.1Y-2.25
X0.1Y-2.975
X0.1Y-3.7
X0.2Y-0.575
X0.25Y-1.275
X0.375Y-0.45
X0.4Y-1.075
X0.4Y-3.175
X0.5Y-0.3234
X0.5Y-2.25
X0.5Y-2.975
X0.5Y-3.7
X0.6Y-0.675
X0.6016Y-0.875
X0.6016Y-1.05
X0.65Y-0.675
X0.675Y-3.15
X0.74Y-1.27
X0.7403Y-3.05
X0.765Y-1.27
X0.79Y-1.27
X0.815Y-1.27
X0.84Y-1.27
X0.875Y-1.15
X0.9Y-0.5234
X0.9Y-2.25
X0.9Y-2.975
X0.9Y-3.7
X0.9276Y-0.825
X0.9419Y-1.25
X1.0Y-0.3234
X1.075Y-1.1234
X1.1276Y-0.95
X1.25Y-0.875
X1.25Y-3.85
X1.275Y-2.475
X1.275Y-2.9219
X1.3Y-2.25
X1.3Y-2.975
X1.3Y-3.7
X1.3319Y-1.0
X1.375Y-0.725
X1.4236Y-2.1
X1.45Y-0.975
X1.4768Y-2.1
X1.525Y-2.425
X1.525Y-3.675
X1.5516Y-2.475
X1.775Y-1.1576
X1.785Y-1.2526
X1.795Y-1.1765
X1.81Y-0.5976
X1.81Y-0.6426
X1.81Y-1.3076
X1.82Y-0.7176
X1.86Y-2.5826
X1.88Y-1.7126
X1.885Y-0.8726
X1.8894Y-1.4869
X1.89Y-0.8226
X1.89Y-0.9426
X1.89Y-2.7776
X1.895Y-1.9076
X1.9Y-1.2976
X1.9Y-1.8076
X1.9Y-1.9626
X1.9Y-2.0526
X1.91Y-1.43
X1.92Y-0.6176
X1.92Y-0.9426
X1.92Y-1.1976
X1.925Y-1.9626
X1.925Y-2.0526
X1.95Y-1.9626
X1.95Y-2.0526
X1.9625Y-1.8076
X1.965Y-1.6476
X1.97Y-0.8226
X1.97Y-0.9426
X1.97Y-3.5076
X1.975Y-3.7376
X1.975Y-3.9031
X1.9849Y-2.9076
X1.99Y-1.6476
X1.99Y-1.8076
X1.995Y-1.4201
X1.9987Y-3.106
X2.0Y-0.8226
X2.01Y-3.4076
X2.015Y-1.6476
X2.0194Y-1.8076
X2.025Y-0.6426
X2.025Y-0.9176
X2.025Y-1.1226
X2.03Y-0.9976
X2.04Y-2.1076
X2.04Y-3.1226
X2.0456Y-0.8762
X2.05Y-1.2576
X2.05Y-1.3676
X2.05Y-3.7676
X2.0694Y-1.4201
X2.07Y-1.1076
X2.075Y-0.6676
X2.075Y-0.8876
X2.0903Y-0.9105
X2.0934Y-0.766
X2.12Y-2.0076
X2.1475Y-1.8651
X2.1575Y-3.2876
X2.16Y-1.9926
X2.16Y-2.9926
X2.185Y-3.2876
X2.1918Y-0.8776
X2.195Y-2.6876
X2.2056Y-0.7876
X2.21Y-1.3076
X2.2194Y-0.6522
X2.24Y-0.6276
X2.24Y-1.3076
X2.245Y-3.5776
X2.255Y-1.5176
X2.2606Y-0.9476
X2.2606Y-1.1276
X2.275Y-0.6076
X2.275Y-0.7676
X2.2906Y-1.5854
X2.3Y-1.3702
X2.3Y-2.0426
X2.302Y-2.0026
X2.3227Y-1.7076
X2.3244Y-2.2883
X2.335Y-2.1576
X2.36Y-2.2626
X2.38Y-2.3276
X2.3844Y-1.9776
X2.43Y-3.2573
X2.43Y-3.3073
X2.43Y-3.3573
X2.43Y-3.4073
X2.43Y-3.4573
X2.44Y-1.9576
X2.44Y-1.9976
X2.4551Y-0.8176
X2.4573Y-2.1452
X2.46Y-0.6426
X2.46Y-0.8451
X2.46Y-1.1826
X2.465Y-3.6076
X2.475Y-1.6454
X2.48Y-1.9576
X2.48Y-1.9976
X2.48Y-3.2573
X2.48Y-3.3073
X2.48Y-3.3573
X2.48Y-3.4073
X2.48Y-3.4573
X2.4894Y-1.7527
X2.49Y-0.6076
X2.49Y-0.9076
X2.49Y-0.9676
X2.49Y-1.2876
X2.4944Y-0.7576
X2.495Y-3.6076
X2.5125Y-2.0451
X2.52Y-1.9576
X2.52Y-1.9976
X2.525Y-1.7026
X2.53Y-3.2573
X2.53Y-3.3073
X2.53Y-3.3573
X2.53Y-3.4073
X2.53Y-3.4573
X2.5483Y-1.5441
X2.5618Y-2.1412
X2.575Y-2.3326
X2.576Y-1.9555
X2.58Y-2.0169
X2.58Y-3.2573
X2.58Y-3.3073
X2.58Y-3.3573
X2.58Y-3.4073
X2.58Y-3.4573
X2.59Y-1.7701
X2.59Y-0.6976
X2.59Y-0.8176
X2.59Y-1.0776
X2.595Y-1.2126
X2.5994Y-2.2226
X2.6161Y-1.3894
X2.62Y-2.2576
X2.6225Y-1.485
X2.63Y-3.2573
X2.63Y-3.3073
X2.63Y-3.3573
X2.63Y-3.4073
X2.63Y-3.4573
X2.6312Y-2.1587
X2.635Y-2.0976
X2.645Y-2.1826
X2.645Y-2.3076
X2.6501Y-1.8222
X2.6501Y-2.001
X2.6515Y-1.6776
X2.6526Y-0.6076
X2.6526Y-0.9076
X2.6526Y-1.2876
X2.6571Y-1.4904
X2.67Y-2.2143
X2.675Y-0.9876
X2.675Y-1.9726
X2.675Y-2.3576
X2.675Y-2.7576
X2.6757Y-2.4832
X2.6844Y-2.0287
X2.6859Y-1.5034
X2.69Y-1.8876
X2.695Y-1.7116
X2.7073Y-1.0895
X2.7073Y-3.9021
X2.7118Y-3.8576
X2.7125Y-0.7701
X2.715Y-1.7812
X2.715Y-0.6726
X2.715Y-1.8226
X2.7193Y-1.1308
X2.7282Y-2.0415
X2.73Y-1.9433
X2.733Y-3.9121
X2.7383Y-2.4076
X2.7387Y-0.7544
X2.7424Y-2.4982
X2.7506Y-0.7955
X2.76Y-3.9176
X2.7606Y-1.1381
X2.7625Y-0.9896
X2.7643Y-0.8744
X2.77Y-0.5776
X2.77Y-1.2376
X2.78Y-0.7301
X2.78Y-0.6476
X2.78Y-0.7599
X2.7845Y-0.9359
X2.79Y-1.1276
X2.79Y-2.8426
X2.79Y-2.8726
X2.7924Y-2.1826
X2.82Y-1.5776
X2.825Y-1.8326
X2.83Y-2.7363
X2.84Y-1.3791
X2.8474Y-0.6076
X2.8474Y-0.9076
X2.8474Y-0.9876
X2.8474Y-1.2876
X2.8475Y-1.9876
X2.85Y-1.6576
X2.855Y-2.0976
X2.8838Y-1.8827
X2.89Y-1.4926
X2.89Y-1.6676
X2.895Y-1.8576
X2.895Y-1.9476
X2.9047Y-2.2131
X2.905Y-0.8351
X2.9055Y-1.0777
X2.91Y-0.6976
X2.91Y-1.1126
X2.91Y-1.1976
X2.9133Y-0.7943
X2.925Y-2.4026
X2.9274Y-1.7526
X2.9274Y-1.9176
X2.93Y-1.9776
X2.9344Y-2.2234
X2.95Y-2.3576
X2.955Y-1.8126
X2.955Y-1.9476
X2.965Y-2.2226
X2.965Y-2.3076
X2.98Y-1.4876
X2.9838Y-1.4317
X3.01Y-0.6076
X3.01Y-0.9076
X3.015Y-0.9876
X3.015Y-1.2876
X3.04Y-1.3782
X3.045Y-0.7576
X3.0494Y-1.4576
X3.055Y-1.1476
X3.07Y-1.6826
X3.105Y-0.8726
X3.105Y-1.6976
X3.13Y-1.2726
X3.13Y-2.0326
X3.13Y-2.2226
X3.1393Y-1.8476
X3.16Y-1.3576
X3.16Y-1.6476
X3.16Y-2.2226
X3.165Y-2.5426
T3
X0.3Y-1.7288
X0.3Y-1.9288
X0.5Y-1.7288
X0.5Y-1.9288
X1.1Y-1.7288
X1.1Y-1.9288
X1.3Y-1.7288
X1.3Y-1.9288
X3.03Y-2.8576
X3.03Y-2.9576
X3.03Y-3.0576
X3.03Y-3.1576
X3.03Y-3.2576
X3.03Y-3.3576
X3.03Y-3.4576
X3.03Y-3.5576
X3.13Y-2.8576
X3.13Y-2.9576
X3.13Y-3.0576
X3.13Y-3.1576
X3.13Y-3.2576
X3.13Y-3.3576
X3.13Y-3.4576
X3.13Y-3.5576
T4
X0.05Y-0.05
X0.05Y-0.15
X0.05Y-0.25
X0.05Y-0.35
X0.05Y-0.45
X0.05Y-0.55
X0.05Y-0.65
X0.05Y-0.75
X0.05Y-0.85
X0.05Y-0.95
X0.05Y-1.05
X0.05Y-1.15
X0.05Y-1.25
X0.05Y-1.35
X0.05Y-1.45
X0.05Y-1.55
X0.1542Y-0.75
X0.1542Y-0.85
X0.2Y-2.7862
X0.2Y-3.5112
X0.2Y-4.2362
X0.3016Y-1.4953
X0.4Y-1.4953
X0.4542Y-0.15
X0.4984Y-1.4953
X0.5542Y-0.15
X0.6Y-2.7862
X0.6Y-3.5112
X0.6Y-4.2362
X0.6542Y-0.15
X0.7542Y-0.15
X0.8542Y-0.15
X0.9542Y-0.15
X1.0Y-2.7862
X1.0Y-3.5112
X1.0Y-4.2362
X1.0542Y-0.15
X1.1016Y-1.4953
X1.1542Y-0.15
X1.2Y-1.4953
X1.2984Y-1.4953
X1.4Y-2.7862
X1.4Y-3.5112
X1.4Y-4.2362
X1.4542Y-0.75
X1.4542Y-0.85
X1.55Y-0.05
X1.55Y-0.15
X1.55Y-0.25
X1.55Y-0.35
X1.55Y-0.45
X1.55Y-0.55
X1.55Y-0.65
X1.55Y-0.75
X1.55Y-0.85
X1.55Y-0.95
X1.55Y-1.05
X1.55Y-1.15
X1.55Y-1.25
X1.55Y-1.35
X1.55Y-1.45
X1.55Y-1.55
X1.73Y-0.6076
X1.73Y-0.7076
X1.73Y-0.8076
X1.73Y-0.9076
X1.73Y-1.0076
X1.73Y-1.1076
X1.73Y-1.2076
X1.73Y-1.3076
X1.73Y-1.4076
X1.73Y-1.5076
X1.73Y-1.6076
X1.73Y-1.7076
X1.73Y-1.8076
X1.73Y-1.9076
X1.73Y-2.0076
X1.73Y-2.1076
X1.73Y-2.5076
X1.73Y-2.6076
X1.73Y-2.7076
X1.73Y-2.9076
X1.73Y-3.0076
X1.73Y-3.1076
X1.73Y-3.2076
X1.73Y-3.3076
X1.73Y-3.4076
X1.73Y-3.5076
X1.73Y-3.6076
X1.73Y-3.7076
X1.73Y-3.8076
X1.73Y-3.9076
X3.23Y-0.6076
X3.23Y-0.7076
X3.23Y-0.8076
X3.23Y-0.9076
X3.23Y-1.0076
X3.23Y-1.1076
X3.23Y-1.2076
X3.23Y-1.3076
X3.23Y-1.4076
X3.23Y-1.5076
X3.23Y-1.6076
X3.23Y-1.7076
X3.23Y-1.8076
X3.23Y-1.9076
X3.23Y-2.0076
X3.23Y-2.1076
T5
X0.2Y-2.3374
X0.2Y-2.6642
X0.2Y-3.0624
X0.2Y-3.3892
X0.2Y-3.7874
X0.2Y-4.1142
X0.6Y-2.3374
X0.6Y-2.6642
X0.6Y-3.0624
X0.6Y-3.3892
X0.6Y-3.7874
X0.6Y-4.1142
X1.0Y-2.3374
X1.0Y-2.6642
X1.0Y-3.0624
X1.0Y-3.3892
X1.0Y-3.7874
X1.0Y-4.1142
X1.4Y-2.3374
X1.4Y-2.6642
X1.4Y-3.0624
X1.4Y-3.3892
X1.4Y-3.7874
X1.4Y-4.1142
T2
G00X2.3099Y-3.6629
M15
G01X2.3099Y-3.7062
M16
G05
G00X2.3099Y-3.8341
M15
G01X2.3099Y-3.8656
M16
G05
G00X2.6501Y-3.6629
M15
G01X2.6501Y-3.7062
M16
G05
G00X2.6501Y-3.8341
M15
G01X2.6501Y-3.8656
M16
G05
T0
M30
