M48
; DRILL file {KiCad 7.0.9} date Sat Nov 25 16:41:27 2023
; FORMAT={-:-/ absolute / inch / decimal}
; #@! TF.CreationDate,2023-11-25T16:41:27+01:00
; #@! TF.GenerationSoftware,Kicad,Pcbnew,7.0.9
; #@! TF.FileFunction,NonPlated,1,2,NPTH
FMAT,2
INCH
; #@! TA.AperFunction,NonPlated,NPTH,ComponentDrill
T1C0.0197
; #@! TA.AperFunction,NonPlated,NPTH,ComponentDrill
T2C0.0256
%
G90
G05
T1
X1.6105Y-3.8085
X1.6105Y-3.838
X1.6105Y-3.8675
X1.6109Y-0.764
X1.6109Y-0.7935
X1.6109Y-0.8231
X1.6109Y-2.342
X1.6109Y-2.3715
X1.6109Y-2.4011
X1.6695Y-3.8085
X1.6695Y-3.838
X1.6695Y-3.8675
X1.67Y-0.764
X1.67Y-0.7935
X1.67Y-0.8231
X1.67Y-2.342
X1.67Y-2.3715
X1.67Y-2.4011
T2
X2.3662Y-3.705
X2.5938Y-3.705
T0
M30
