%TF.GenerationSoftware,KiCad,Pcbnew,7.0.9*%
%TF.CreationDate,2023-11-25T16:41:53+01:00*%
%TF.ProjectId,EuroPi-X,4575726f-5069-42d5-982e-6b696361645f,rev?*%
%TF.SameCoordinates,Original*%
%TF.FileFunction,Legend,Top*%
%TF.FilePolarity,Positive*%
%FSLAX46Y46*%
G04 Gerber Fmt 4.6, Leading zero omitted, Abs format (unit mm)*
G04 Created by KiCad (PCBNEW 7.0.9) date 2023-11-25 16:41:53*
%MOMM*%
%LPD*%
G01*
G04 APERTURE LIST*
%ADD10C,0.100000*%
%ADD11C,0.150000*%
%ADD12C,0.250000*%
%ADD13C,0.120000*%
G04 APERTURE END LIST*
D10*
X65992000Y-66232000D02*
X65992000Y-66232000D01*
X65965372Y-66630815D02*
X65965372Y-66630815D01*
X65885963Y-67022552D02*
X65885963Y-67022552D01*
X65755182Y-67400255D02*
X65755182Y-67400255D01*
X65575351Y-67757219D02*
X65575351Y-67757219D01*
X65349661Y-68087109D02*
X65349661Y-68087109D01*
X65082120Y-68384068D02*
X65082120Y-68384068D01*
X64777475Y-68642824D02*
X64777475Y-68642824D01*
X64441136Y-68858785D02*
X64441136Y-68858785D01*
X64079073Y-69028117D02*
X64079073Y-69028117D01*
X63697712Y-69147813D02*
X63697712Y-69147813D01*
X63303824Y-69215750D02*
X63303824Y-69215750D01*
X62904401Y-69230720D02*
X62904401Y-69230720D01*
X62506533Y-69192459D02*
X62506533Y-69192459D01*
X62117282Y-69101646D02*
X62117282Y-69101646D01*
X61743559Y-68959892D02*
X61743559Y-68959892D01*
X61391998Y-68769714D02*
X61391998Y-68769714D01*
X61068839Y-68534488D02*
X61068839Y-68534488D01*
X60779818Y-68258389D02*
X60779818Y-68258389D01*
X60530068Y-67946319D02*
X60530068Y-67946319D01*
X60324020Y-67603817D02*
X60324020Y-67603817D01*
X60165332Y-67236964D02*
X60165332Y-67236964D01*
X60056823Y-66852271D02*
X60056823Y-66852271D01*
X60000416Y-66456567D02*
X60000416Y-66456567D01*
X59997115Y-66056877D02*
X59997115Y-66056877D01*
X60046977Y-65660296D02*
X60046977Y-65660296D01*
X60149118Y-65273863D02*
X60149118Y-65273863D01*
X60301724Y-64904438D02*
X60301724Y-64904438D01*
X60502087Y-64558580D02*
X60502087Y-64558580D01*
X60746648Y-64242427D02*
X60746648Y-64242427D01*
X61031069Y-63961592D02*
X61031069Y-63961592D01*
X61350298Y-63721060D02*
X61350298Y-63721060D01*
X61698670Y-63525101D02*
X61698670Y-63525101D01*
X62070001Y-63377193D02*
X62070001Y-63377193D01*
X62457698Y-63279963D02*
X62457698Y-63279963D01*
X62854880Y-63235135D02*
X62854880Y-63235135D01*
X63254496Y-63243506D02*
X63254496Y-63243506D01*
X63649453Y-63304927D02*
X63649453Y-63304927D01*
X64032738Y-63418308D02*
X64032738Y-63418308D01*
X64397550Y-63581636D02*
X64397550Y-63581636D01*
X64737410Y-63792011D02*
X64737410Y-63792011D01*
X65046287Y-64045700D02*
X65046287Y-64045700D01*
X65318697Y-64338200D02*
X65318697Y-64338200D01*
X65549805Y-64664316D02*
X65549805Y-64664316D01*
X65735508Y-65018262D02*
X65735508Y-65018262D01*
X65872510Y-65393753D02*
X65872510Y-65393753D01*
X65958379Y-65784124D02*
X65958379Y-65784124D01*
X65991590Y-66182446D02*
X65991590Y-66182446D01*
X23320000Y-52070000D02*
X23320000Y-52070000D01*
X23293372Y-52468815D02*
X23293372Y-52468815D01*
X23213963Y-52860552D02*
X23213963Y-52860552D01*
X23083182Y-53238255D02*
X23083182Y-53238255D01*
X22903351Y-53595219D02*
X22903351Y-53595219D01*
X22677661Y-53925109D02*
X22677661Y-53925109D01*
X22410120Y-54222068D02*
X22410120Y-54222068D01*
X22105475Y-54480824D02*
X22105475Y-54480824D01*
X21769136Y-54696785D02*
X21769136Y-54696785D01*
X21407073Y-54866117D02*
X21407073Y-54866117D01*
X21025712Y-54985813D02*
X21025712Y-54985813D01*
X20631824Y-55053750D02*
X20631824Y-55053750D01*
X20232401Y-55068720D02*
X20232401Y-55068720D01*
X19834533Y-55030459D02*
X19834533Y-55030459D01*
X19445282Y-54939646D02*
X19445282Y-54939646D01*
X19071559Y-54797892D02*
X19071559Y-54797892D01*
X18719998Y-54607714D02*
X18719998Y-54607714D01*
X18396839Y-54372488D02*
X18396839Y-54372488D01*
X18107818Y-54096389D02*
X18107818Y-54096389D01*
X17858068Y-53784319D02*
X17858068Y-53784319D01*
X17652020Y-53441817D02*
X17652020Y-53441817D01*
X17493332Y-53074964D02*
X17493332Y-53074964D01*
X17384823Y-52690271D02*
X17384823Y-52690271D01*
X17328416Y-52294567D02*
X17328416Y-52294567D01*
X17325115Y-51894877D02*
X17325115Y-51894877D01*
X17374977Y-51498296D02*
X17374977Y-51498296D01*
X17477118Y-51111863D02*
X17477118Y-51111863D01*
X17629724Y-50742438D02*
X17629724Y-50742438D01*
X17830087Y-50396580D02*
X17830087Y-50396580D01*
X18074648Y-50080427D02*
X18074648Y-50080427D01*
X18359069Y-49799592D02*
X18359069Y-49799592D01*
X18678298Y-49559060D02*
X18678298Y-49559060D01*
X19026670Y-49363101D02*
X19026670Y-49363101D01*
X19398001Y-49215193D02*
X19398001Y-49215193D01*
X19785698Y-49117963D02*
X19785698Y-49117963D01*
X20182880Y-49073135D02*
X20182880Y-49073135D01*
X20582496Y-49081506D02*
X20582496Y-49081506D01*
X20977453Y-49142927D02*
X20977453Y-49142927D01*
X21360738Y-49256308D02*
X21360738Y-49256308D01*
X21725550Y-49419636D02*
X21725550Y-49419636D01*
X22065410Y-49630011D02*
X22065410Y-49630011D01*
X22374287Y-49883700D02*
X22374287Y-49883700D01*
X22646697Y-50176200D02*
X22646697Y-50176200D01*
X22877805Y-50502316D02*
X22877805Y-50502316D01*
X23063508Y-50856262D02*
X23063508Y-50856262D01*
X23200510Y-51231753D02*
X23200510Y-51231753D01*
X23286379Y-51622124D02*
X23286379Y-51622124D01*
X23319590Y-52020446D02*
X23319590Y-52020446D01*
D11*
X81546819Y-65609506D02*
X82261104Y-65609506D01*
X82261104Y-65609506D02*
X82403961Y-65657125D01*
X82403961Y-65657125D02*
X82499200Y-65752363D01*
X82499200Y-65752363D02*
X82546819Y-65895220D01*
X82546819Y-65895220D02*
X82546819Y-65990458D01*
X82546819Y-64657125D02*
X82546819Y-65133315D01*
X82546819Y-65133315D02*
X81546819Y-65133315D01*
X82451580Y-63752363D02*
X82499200Y-63799982D01*
X82499200Y-63799982D02*
X82546819Y-63942839D01*
X82546819Y-63942839D02*
X82546819Y-64038077D01*
X82546819Y-64038077D02*
X82499200Y-64180934D01*
X82499200Y-64180934D02*
X82403961Y-64276172D01*
X82403961Y-64276172D02*
X82308723Y-64323791D01*
X82308723Y-64323791D02*
X82118247Y-64371410D01*
X82118247Y-64371410D02*
X81975390Y-64371410D01*
X81975390Y-64371410D02*
X81784914Y-64323791D01*
X81784914Y-64323791D02*
X81689676Y-64276172D01*
X81689676Y-64276172D02*
X81594438Y-64180934D01*
X81594438Y-64180934D02*
X81546819Y-64038077D01*
X81546819Y-64038077D02*
X81546819Y-63942839D01*
X81546819Y-63942839D02*
X81594438Y-63799982D01*
X81594438Y-63799982D02*
X81642057Y-63752363D01*
X81546819Y-63038077D02*
X82261104Y-63038077D01*
X82261104Y-63038077D02*
X82403961Y-63085696D01*
X82403961Y-63085696D02*
X82499200Y-63180934D01*
X82499200Y-63180934D02*
X82546819Y-63323791D01*
X82546819Y-63323791D02*
X82546819Y-63419029D01*
X82546819Y-62085696D02*
X82546819Y-62561886D01*
X82546819Y-62561886D02*
X81546819Y-62561886D01*
X82451580Y-61180934D02*
X82499200Y-61228553D01*
X82499200Y-61228553D02*
X82546819Y-61371410D01*
X82546819Y-61371410D02*
X82546819Y-61466648D01*
X82546819Y-61466648D02*
X82499200Y-61609505D01*
X82499200Y-61609505D02*
X82403961Y-61704743D01*
X82403961Y-61704743D02*
X82308723Y-61752362D01*
X82308723Y-61752362D02*
X82118247Y-61799981D01*
X82118247Y-61799981D02*
X81975390Y-61799981D01*
X81975390Y-61799981D02*
X81784914Y-61752362D01*
X81784914Y-61752362D02*
X81689676Y-61704743D01*
X81689676Y-61704743D02*
X81594438Y-61609505D01*
X81594438Y-61609505D02*
X81546819Y-61466648D01*
X81546819Y-61466648D02*
X81546819Y-61371410D01*
X81546819Y-61371410D02*
X81594438Y-61228553D01*
X81594438Y-61228553D02*
X81642057Y-61180934D01*
X81546819Y-60466648D02*
X82261104Y-60466648D01*
X82261104Y-60466648D02*
X82403961Y-60514267D01*
X82403961Y-60514267D02*
X82499200Y-60609505D01*
X82499200Y-60609505D02*
X82546819Y-60752362D01*
X82546819Y-60752362D02*
X82546819Y-60847600D01*
X82546819Y-59514267D02*
X82546819Y-59990457D01*
X82546819Y-59990457D02*
X81546819Y-59990457D01*
X82451580Y-58609505D02*
X82499200Y-58657124D01*
X82499200Y-58657124D02*
X82546819Y-58799981D01*
X82546819Y-58799981D02*
X82546819Y-58895219D01*
X82546819Y-58895219D02*
X82499200Y-59038076D01*
X82499200Y-59038076D02*
X82403961Y-59133314D01*
X82403961Y-59133314D02*
X82308723Y-59180933D01*
X82308723Y-59180933D02*
X82118247Y-59228552D01*
X82118247Y-59228552D02*
X81975390Y-59228552D01*
X81975390Y-59228552D02*
X81784914Y-59180933D01*
X81784914Y-59180933D02*
X81689676Y-59133314D01*
X81689676Y-59133314D02*
X81594438Y-59038076D01*
X81594438Y-59038076D02*
X81546819Y-58895219D01*
X81546819Y-58895219D02*
X81546819Y-58799981D01*
X81546819Y-58799981D02*
X81594438Y-58657124D01*
X81594438Y-58657124D02*
X81642057Y-58609505D01*
X81546819Y-57895219D02*
X82261104Y-57895219D01*
X82261104Y-57895219D02*
X82403961Y-57942838D01*
X82403961Y-57942838D02*
X82499200Y-58038076D01*
X82499200Y-58038076D02*
X82546819Y-58180933D01*
X82546819Y-58180933D02*
X82546819Y-58276171D01*
X82546819Y-56942838D02*
X82546819Y-57419028D01*
X82546819Y-57419028D02*
X81546819Y-57419028D01*
X82451580Y-56038076D02*
X82499200Y-56085695D01*
X82499200Y-56085695D02*
X82546819Y-56228552D01*
X82546819Y-56228552D02*
X82546819Y-56323790D01*
X82546819Y-56323790D02*
X82499200Y-56466647D01*
X82499200Y-56466647D02*
X82403961Y-56561885D01*
X82403961Y-56561885D02*
X82308723Y-56609504D01*
X82308723Y-56609504D02*
X82118247Y-56657123D01*
X82118247Y-56657123D02*
X81975390Y-56657123D01*
X81975390Y-56657123D02*
X81784914Y-56609504D01*
X81784914Y-56609504D02*
X81689676Y-56561885D01*
X81689676Y-56561885D02*
X81594438Y-56466647D01*
X81594438Y-56466647D02*
X81546819Y-56323790D01*
X81546819Y-56323790D02*
X81546819Y-56228552D01*
X81546819Y-56228552D02*
X81594438Y-56085695D01*
X81594438Y-56085695D02*
X81642057Y-56038076D01*
D12*
G36*
X14792401Y-64125487D02*
G01*
X14588604Y-64125487D01*
X14588604Y-63928529D01*
X14792401Y-63928529D01*
X14792401Y-64125487D01*
G37*
G36*
X14780775Y-65367755D02*
G01*
X14780399Y-65390734D01*
X14779273Y-65412997D01*
X14777397Y-65434545D01*
X14774769Y-65455377D01*
X14771391Y-65475492D01*
X14767263Y-65494892D01*
X14762383Y-65513576D01*
X14756753Y-65531544D01*
X14750373Y-65548796D01*
X14743241Y-65565332D01*
X14735359Y-65581152D01*
X14726727Y-65596256D01*
X14717343Y-65610644D01*
X14707209Y-65624316D01*
X14696325Y-65637273D01*
X14684689Y-65649513D01*
X14672422Y-65661066D01*
X14659642Y-65671873D01*
X14646349Y-65681935D01*
X14632544Y-65691251D01*
X14618225Y-65699822D01*
X14603393Y-65707648D01*
X14588049Y-65714729D01*
X14572191Y-65721064D01*
X14555821Y-65726654D01*
X14538938Y-65731499D01*
X14521541Y-65735598D01*
X14503632Y-65738952D01*
X14485210Y-65741560D01*
X14466275Y-65743424D01*
X14446827Y-65744542D01*
X14426867Y-65744914D01*
X14411640Y-65744638D01*
X14397628Y-65743985D01*
X14382414Y-65742948D01*
X14365999Y-65741527D01*
X14352001Y-65740114D01*
X14337233Y-65738455D01*
X14325652Y-65737050D01*
X14310244Y-65735110D01*
X14295476Y-65733053D01*
X14281350Y-65730879D01*
X14267865Y-65728587D01*
X14251910Y-65725556D01*
X14236956Y-65722342D01*
X14223005Y-65718945D01*
X14220335Y-65718243D01*
X14220335Y-65547957D01*
X14229909Y-65547957D01*
X14242611Y-65553506D01*
X14257080Y-65559383D01*
X14270889Y-65564680D01*
X14285995Y-65570218D01*
X14299576Y-65575016D01*
X14302401Y-65575996D01*
X14316661Y-65580527D01*
X14330804Y-65584291D01*
X14344831Y-65587286D01*
X14358740Y-65589513D01*
X14372533Y-65590973D01*
X14386209Y-65591664D01*
X14391647Y-65591725D01*
X14408498Y-65591426D01*
X14424516Y-65590528D01*
X14439700Y-65589032D01*
X14454051Y-65586938D01*
X14467568Y-65584245D01*
X14483293Y-65580038D01*
X14497715Y-65574895D01*
X14503119Y-65572577D01*
X14515852Y-65566125D01*
X14527549Y-65558739D01*
X14540220Y-65548641D01*
X14551400Y-65537197D01*
X14561089Y-65524406D01*
X14566720Y-65515131D01*
X14572879Y-65502877D01*
X14578321Y-65489839D01*
X14583044Y-65476016D01*
X14587050Y-65461409D01*
X14590337Y-65446016D01*
X14592907Y-65429839D01*
X14593733Y-65423149D01*
X14595256Y-65409279D01*
X14596576Y-65394682D01*
X14597692Y-65379359D01*
X14598606Y-65363309D01*
X14599317Y-65346533D01*
X14599824Y-65329030D01*
X14600129Y-65310800D01*
X14600224Y-65296651D01*
X14600230Y-65291844D01*
X14600230Y-64431865D01*
X14375918Y-64431865D01*
X14375918Y-64278676D01*
X14780775Y-64278676D01*
X14780775Y-65367755D01*
G37*
G36*
X16078437Y-65351000D02*
G01*
X15109037Y-65351000D01*
X15109037Y-65139339D01*
X15121649Y-65128868D01*
X15134266Y-65118400D01*
X15146888Y-65107935D01*
X15159516Y-65097472D01*
X15172149Y-65087012D01*
X15184787Y-65076555D01*
X15197431Y-65066101D01*
X15210080Y-65055649D01*
X15222735Y-65045200D01*
X15235394Y-65034753D01*
X15248060Y-65024309D01*
X15260730Y-65013868D01*
X15273406Y-65003430D01*
X15286087Y-64992994D01*
X15298774Y-64982561D01*
X15311465Y-64972130D01*
X15324105Y-64961662D01*
X15336635Y-64951202D01*
X15349056Y-64940750D01*
X15361367Y-64930306D01*
X15373569Y-64919871D01*
X15385661Y-64909443D01*
X15397644Y-64899023D01*
X15409517Y-64888611D01*
X15421280Y-64878207D01*
X15432934Y-64867812D01*
X15444479Y-64857424D01*
X15455914Y-64847044D01*
X15467239Y-64836672D01*
X15478455Y-64826309D01*
X15489561Y-64815953D01*
X15500558Y-64805605D01*
X15511985Y-64794882D01*
X15523184Y-64784298D01*
X15534155Y-64773853D01*
X15544898Y-64763547D01*
X15555414Y-64753379D01*
X15565702Y-64743351D01*
X15575762Y-64733461D01*
X15585594Y-64723711D01*
X15604576Y-64704626D01*
X15622647Y-64686097D01*
X15639807Y-64668124D01*
X15656055Y-64650706D01*
X15671393Y-64633844D01*
X15685820Y-64617538D01*
X15699336Y-64601788D01*
X15711941Y-64586593D01*
X15723635Y-64571953D01*
X15734418Y-64557870D01*
X15744291Y-64544342D01*
X15753252Y-64531369D01*
X15761533Y-64518568D01*
X15769280Y-64505638D01*
X15776493Y-64492581D01*
X15783172Y-64479394D01*
X15789316Y-64466080D01*
X15794926Y-64452638D01*
X15800002Y-64439067D01*
X15804543Y-64425368D01*
X15808550Y-64411541D01*
X15812023Y-64397585D01*
X15814961Y-64383502D01*
X15817366Y-64369290D01*
X15819236Y-64354950D01*
X15820571Y-64340481D01*
X15821373Y-64325885D01*
X15821640Y-64311160D01*
X15820994Y-64291376D01*
X15819055Y-64272415D01*
X15815825Y-64254278D01*
X15811302Y-64236964D01*
X15805486Y-64220474D01*
X15798379Y-64204807D01*
X15789979Y-64189964D01*
X15780287Y-64175944D01*
X15769302Y-64162748D01*
X15757025Y-64150375D01*
X15748123Y-64142584D01*
X15733824Y-64131706D01*
X15718498Y-64121899D01*
X15702144Y-64113161D01*
X15684762Y-64105494D01*
X15666353Y-64098896D01*
X15646915Y-64093368D01*
X15633386Y-64090277D01*
X15619400Y-64087662D01*
X15604957Y-64085522D01*
X15590057Y-64083858D01*
X15574700Y-64082669D01*
X15558887Y-64081956D01*
X15542617Y-64081718D01*
X15526078Y-64081956D01*
X15509286Y-64082668D01*
X15492241Y-64083855D01*
X15474945Y-64085517D01*
X15457396Y-64087654D01*
X15439594Y-64090265D01*
X15421540Y-64093352D01*
X15403234Y-64096913D01*
X15384675Y-64100949D01*
X15365863Y-64105460D01*
X15353182Y-64108732D01*
X15334118Y-64114046D01*
X15315139Y-64119859D01*
X15296243Y-64126171D01*
X15277432Y-64132983D01*
X15258704Y-64140293D01*
X15240061Y-64148101D01*
X15221502Y-64156409D01*
X15203028Y-64165216D01*
X15190758Y-64171364D01*
X15178526Y-64177734D01*
X15166331Y-64184326D01*
X15154173Y-64191139D01*
X15144599Y-64191139D01*
X15144599Y-63993840D01*
X15157821Y-63987736D01*
X15171843Y-63981734D01*
X15186664Y-63975835D01*
X15202285Y-63970037D01*
X15218705Y-63964342D01*
X15235925Y-63958749D01*
X15253944Y-63953259D01*
X15272762Y-63947870D01*
X15292380Y-63942584D01*
X15305903Y-63939116D01*
X15319781Y-63935694D01*
X15326853Y-63934000D01*
X15341059Y-63930688D01*
X15355212Y-63927589D01*
X15369312Y-63924704D01*
X15383358Y-63922032D01*
X15397351Y-63919575D01*
X15411291Y-63917331D01*
X15425177Y-63915300D01*
X15439009Y-63913484D01*
X15452788Y-63911881D01*
X15466514Y-63910492D01*
X15480186Y-63909316D01*
X15500594Y-63907954D01*
X15520882Y-63907072D01*
X15541050Y-63906672D01*
X15547746Y-63906645D01*
X15574899Y-63907051D01*
X15601308Y-63908269D01*
X15626971Y-63910299D01*
X15651888Y-63913142D01*
X15676060Y-63916796D01*
X15699487Y-63921263D01*
X15722169Y-63926542D01*
X15744105Y-63932632D01*
X15765296Y-63939535D01*
X15785742Y-63947250D01*
X15805442Y-63955778D01*
X15824397Y-63965117D01*
X15842606Y-63975268D01*
X15860071Y-63986232D01*
X15876790Y-63998007D01*
X15892763Y-64010595D01*
X15907918Y-64023877D01*
X15922095Y-64037736D01*
X15935295Y-64052173D01*
X15947517Y-64067186D01*
X15958761Y-64082776D01*
X15969027Y-64098943D01*
X15978315Y-64115688D01*
X15986626Y-64133009D01*
X15993959Y-64150908D01*
X16000314Y-64169383D01*
X16005692Y-64188436D01*
X16010092Y-64208065D01*
X16013514Y-64228272D01*
X16015958Y-64249055D01*
X16017425Y-64270416D01*
X16017913Y-64292353D01*
X16017730Y-64307263D01*
X16017180Y-64321986D01*
X16016264Y-64336523D01*
X16014980Y-64350873D01*
X16013330Y-64365037D01*
X16011314Y-64379015D01*
X16008931Y-64392807D01*
X16006181Y-64406412D01*
X16003064Y-64419830D01*
X15999581Y-64433063D01*
X15997055Y-64441781D01*
X15991616Y-64458937D01*
X15985557Y-64475868D01*
X15978879Y-64492575D01*
X15971581Y-64509058D01*
X15963663Y-64525316D01*
X15955125Y-64541350D01*
X15948315Y-64553228D01*
X15941156Y-64564980D01*
X15936190Y-64572744D01*
X15926583Y-64587330D01*
X15916571Y-64601852D01*
X15906153Y-64616309D01*
X15895328Y-64630703D01*
X15884097Y-64645032D01*
X15875408Y-64655737D01*
X15866490Y-64666406D01*
X15857344Y-64677039D01*
X15847969Y-64687636D01*
X15838352Y-64698323D01*
X15828350Y-64709226D01*
X15817964Y-64720346D01*
X15807193Y-64731682D01*
X15796037Y-64743235D01*
X15784497Y-64755003D01*
X15772572Y-64766989D01*
X15760262Y-64779190D01*
X15747567Y-64791608D01*
X15734488Y-64804243D01*
X15725555Y-64812786D01*
X15712663Y-64825115D01*
X15699717Y-64837395D01*
X15686718Y-64849627D01*
X15673665Y-64861812D01*
X15660559Y-64873948D01*
X15647400Y-64886036D01*
X15634187Y-64898076D01*
X15620921Y-64910068D01*
X15607601Y-64922012D01*
X15594228Y-64933908D01*
X15580802Y-64945755D01*
X15567322Y-64957555D01*
X15553789Y-64969306D01*
X15540202Y-64981010D01*
X15526562Y-64992665D01*
X15512868Y-65004272D01*
X15499205Y-65015802D01*
X15485657Y-65027225D01*
X15472224Y-65038541D01*
X15458906Y-65049750D01*
X15445702Y-65060853D01*
X15432614Y-65071848D01*
X15419640Y-65082737D01*
X15406781Y-65093519D01*
X15394037Y-65104194D01*
X15381408Y-65114762D01*
X15368894Y-65125223D01*
X15356495Y-65135577D01*
X15344210Y-65145825D01*
X15332041Y-65155965D01*
X15319986Y-65165999D01*
X15308046Y-65175926D01*
X16078437Y-65175926D01*
X16078437Y-65351000D01*
G37*
G36*
X24952401Y-64125487D02*
G01*
X24748604Y-64125487D01*
X24748604Y-63928529D01*
X24952401Y-63928529D01*
X24952401Y-64125487D01*
G37*
G36*
X24940775Y-65367755D02*
G01*
X24940399Y-65390734D01*
X24939273Y-65412997D01*
X24937397Y-65434545D01*
X24934769Y-65455377D01*
X24931391Y-65475492D01*
X24927263Y-65494892D01*
X24922383Y-65513576D01*
X24916753Y-65531544D01*
X24910373Y-65548796D01*
X24903241Y-65565332D01*
X24895359Y-65581152D01*
X24886727Y-65596256D01*
X24877343Y-65610644D01*
X24867209Y-65624316D01*
X24856325Y-65637273D01*
X24844689Y-65649513D01*
X24832422Y-65661066D01*
X24819642Y-65671873D01*
X24806349Y-65681935D01*
X24792544Y-65691251D01*
X24778225Y-65699822D01*
X24763393Y-65707648D01*
X24748049Y-65714729D01*
X24732191Y-65721064D01*
X24715821Y-65726654D01*
X24698938Y-65731499D01*
X24681541Y-65735598D01*
X24663632Y-65738952D01*
X24645210Y-65741560D01*
X24626275Y-65743424D01*
X24606827Y-65744542D01*
X24586867Y-65744914D01*
X24571640Y-65744638D01*
X24557628Y-65743985D01*
X24542414Y-65742948D01*
X24525999Y-65741527D01*
X24512001Y-65740114D01*
X24497233Y-65738455D01*
X24485652Y-65737050D01*
X24470244Y-65735110D01*
X24455476Y-65733053D01*
X24441350Y-65730879D01*
X24427865Y-65728587D01*
X24411910Y-65725556D01*
X24396956Y-65722342D01*
X24383005Y-65718945D01*
X24380335Y-65718243D01*
X24380335Y-65547957D01*
X24389909Y-65547957D01*
X24402611Y-65553506D01*
X24417080Y-65559383D01*
X24430889Y-65564680D01*
X24445995Y-65570218D01*
X24459576Y-65575016D01*
X24462401Y-65575996D01*
X24476661Y-65580527D01*
X24490804Y-65584291D01*
X24504831Y-65587286D01*
X24518740Y-65589513D01*
X24532533Y-65590973D01*
X24546209Y-65591664D01*
X24551647Y-65591725D01*
X24568498Y-65591426D01*
X24584516Y-65590528D01*
X24599700Y-65589032D01*
X24614051Y-65586938D01*
X24627568Y-65584245D01*
X24643293Y-65580038D01*
X24657715Y-65574895D01*
X24663119Y-65572577D01*
X24675852Y-65566125D01*
X24687549Y-65558739D01*
X24700220Y-65548641D01*
X24711400Y-65537197D01*
X24721089Y-65524406D01*
X24726720Y-65515131D01*
X24732879Y-65502877D01*
X24738321Y-65489839D01*
X24743044Y-65476016D01*
X24747050Y-65461409D01*
X24750337Y-65446016D01*
X24752907Y-65429839D01*
X24753733Y-65423149D01*
X24755256Y-65409279D01*
X24756576Y-65394682D01*
X24757692Y-65379359D01*
X24758606Y-65363309D01*
X24759317Y-65346533D01*
X24759824Y-65329030D01*
X24760129Y-65310800D01*
X24760224Y-65296651D01*
X24760230Y-65291844D01*
X24760230Y-64431865D01*
X24535918Y-64431865D01*
X24535918Y-64278676D01*
X24940775Y-64278676D01*
X24940775Y-65367755D01*
G37*
G36*
X26112603Y-64660965D02*
G01*
X26123887Y-64671549D01*
X26134658Y-64682785D01*
X26144916Y-64694672D01*
X26154662Y-64707212D01*
X26163894Y-64720403D01*
X26172613Y-64734247D01*
X26180820Y-64748742D01*
X26188514Y-64763889D01*
X26195486Y-64779922D01*
X26201529Y-64797078D01*
X26205451Y-64810681D01*
X26208850Y-64824915D01*
X26211726Y-64839781D01*
X26214079Y-64855277D01*
X26215909Y-64871405D01*
X26217217Y-64888164D01*
X26218001Y-64905554D01*
X26218262Y-64923575D01*
X26217950Y-64941642D01*
X26217012Y-64959426D01*
X26215449Y-64976928D01*
X26213261Y-64994148D01*
X26210449Y-65011085D01*
X26207010Y-65027739D01*
X26202947Y-65044111D01*
X26198259Y-65060201D01*
X26192945Y-65076008D01*
X26187007Y-65091533D01*
X26182701Y-65101725D01*
X26175777Y-65116676D01*
X26168343Y-65131266D01*
X26160398Y-65145495D01*
X26151942Y-65159364D01*
X26142975Y-65172871D01*
X26133497Y-65186019D01*
X26123509Y-65198805D01*
X26113009Y-65211232D01*
X26101998Y-65223297D01*
X26090477Y-65235002D01*
X26082512Y-65242605D01*
X26068820Y-65254800D01*
X26054671Y-65266383D01*
X26040065Y-65277352D01*
X26025002Y-65287709D01*
X26009483Y-65297452D01*
X25993506Y-65306582D01*
X25977073Y-65315099D01*
X25960183Y-65323003D01*
X25942836Y-65330294D01*
X25925033Y-65336972D01*
X25912910Y-65341083D01*
X25894469Y-65346766D01*
X25875692Y-65351890D01*
X25856578Y-65356456D01*
X25837128Y-65360462D01*
X25817340Y-65363909D01*
X25797217Y-65366797D01*
X25783614Y-65368412D01*
X25769862Y-65369778D01*
X25755960Y-65370896D01*
X25741908Y-65371766D01*
X25727707Y-65372387D01*
X25713356Y-65372759D01*
X25698856Y-65372884D01*
X25683994Y-65372775D01*
X25669160Y-65372451D01*
X25654353Y-65371910D01*
X25639572Y-65371153D01*
X25624818Y-65370179D01*
X25610090Y-65368989D01*
X25595389Y-65367582D01*
X25580715Y-65365959D01*
X25566068Y-65364120D01*
X25551447Y-65362064D01*
X25536853Y-65359792D01*
X25522286Y-65357304D01*
X25507746Y-65354599D01*
X25493232Y-65351678D01*
X25478745Y-65348540D01*
X25464285Y-65345187D01*
X25450041Y-65341704D01*
X25436117Y-65338182D01*
X25422515Y-65334620D01*
X25409232Y-65331017D01*
X25389910Y-65325539D01*
X25371309Y-65319970D01*
X25353429Y-65314311D01*
X25336271Y-65308562D01*
X25319834Y-65302722D01*
X25304118Y-65296793D01*
X25289123Y-65290773D01*
X25274850Y-65284663D01*
X25274850Y-65088390D01*
X25289211Y-65088390D01*
X25304787Y-65097096D01*
X25320868Y-65105520D01*
X25337453Y-65113661D01*
X25354543Y-65121520D01*
X25372139Y-65129097D01*
X25390239Y-65136391D01*
X25408844Y-65143402D01*
X25427954Y-65150131D01*
X25440974Y-65154460D01*
X25454219Y-65158664D01*
X25467688Y-65162742D01*
X25481382Y-65166694D01*
X25495200Y-65170462D01*
X25508956Y-65173987D01*
X25522651Y-65177269D01*
X25536284Y-65180307D01*
X25549857Y-65183103D01*
X25563367Y-65185655D01*
X25583518Y-65189028D01*
X25603530Y-65191854D01*
X25623405Y-65194134D01*
X25643141Y-65195866D01*
X25662738Y-65197051D01*
X25682198Y-65197689D01*
X25695094Y-65197810D01*
X25710343Y-65197506D01*
X25725826Y-65196592D01*
X25741545Y-65195070D01*
X25757498Y-65192938D01*
X25773687Y-65190197D01*
X25790111Y-65186847D01*
X25806770Y-65182888D01*
X25823664Y-65178320D01*
X25840355Y-65173068D01*
X25856233Y-65167228D01*
X25871300Y-65160801D01*
X25885555Y-65153786D01*
X25898997Y-65146183D01*
X25911628Y-65137992D01*
X25923446Y-65129214D01*
X25934452Y-65119848D01*
X25945127Y-65109376D01*
X25955097Y-65098648D01*
X25964361Y-65087663D01*
X25972920Y-65076422D01*
X25980774Y-65064924D01*
X25987923Y-65053170D01*
X25995867Y-65038116D01*
X26000105Y-65028892D01*
X26005234Y-65016080D01*
X26009679Y-65002434D01*
X26013440Y-64987955D01*
X26016518Y-64972643D01*
X26018911Y-64956497D01*
X26020621Y-64939517D01*
X26021647Y-64921705D01*
X26021967Y-64907798D01*
X26021989Y-64903058D01*
X26021772Y-64889243D01*
X26020811Y-64871523D01*
X26019080Y-64854605D01*
X26016579Y-64838489D01*
X26013309Y-64823173D01*
X26009270Y-64808660D01*
X26004462Y-64794947D01*
X25998884Y-64782036D01*
X25997369Y-64778934D01*
X25989315Y-64764056D01*
X25980326Y-64750196D01*
X25970401Y-64737355D01*
X25959542Y-64725532D01*
X25947748Y-64714728D01*
X25935019Y-64704943D01*
X25929665Y-64701314D01*
X25915652Y-64692682D01*
X25900754Y-64684951D01*
X25888198Y-64679416D01*
X25875076Y-64674458D01*
X25861388Y-64670077D01*
X25847133Y-64666273D01*
X25832312Y-64663046D01*
X25824689Y-64661648D01*
X25809153Y-64659084D01*
X25793316Y-64656861D01*
X25777181Y-64654981D01*
X25760747Y-64653442D01*
X25744013Y-64652245D01*
X25726980Y-64651390D01*
X25709648Y-64650877D01*
X25692017Y-64650706D01*
X25605506Y-64650706D01*
X25605506Y-64497517D01*
X25672868Y-64497517D01*
X25690929Y-64497292D01*
X25708526Y-64496614D01*
X25725658Y-64495486D01*
X25742325Y-64493906D01*
X25758527Y-64491874D01*
X25774264Y-64489391D01*
X25789536Y-64486456D01*
X25804344Y-64483070D01*
X25818687Y-64479233D01*
X25832565Y-64474944D01*
X25845978Y-64470204D01*
X25858926Y-64465012D01*
X25871410Y-64459368D01*
X25889263Y-64450057D01*
X25906071Y-64439729D01*
X25921654Y-64428364D01*
X25935704Y-64416067D01*
X25948221Y-64402839D01*
X25959205Y-64388679D01*
X25968657Y-64373587D01*
X25976576Y-64357564D01*
X25982963Y-64340609D01*
X25987816Y-64322722D01*
X25991137Y-64303903D01*
X25992925Y-64284153D01*
X25993266Y-64270469D01*
X25992723Y-64255382D01*
X25991095Y-64240897D01*
X25988382Y-64227012D01*
X25984584Y-64213728D01*
X25978593Y-64198582D01*
X25971040Y-64184300D01*
X25962208Y-64170921D01*
X25952126Y-64158478D01*
X25940794Y-64146974D01*
X25928212Y-64136407D01*
X25916771Y-64128318D01*
X25909491Y-64123777D01*
X25896419Y-64116664D01*
X25883064Y-64110286D01*
X25869424Y-64104643D01*
X25855501Y-64099734D01*
X25841295Y-64095560D01*
X25826804Y-64092121D01*
X25820928Y-64090951D01*
X25805972Y-64088291D01*
X25790381Y-64086082D01*
X25774155Y-64084324D01*
X25757295Y-64083017D01*
X25743350Y-64082295D01*
X25729000Y-64081863D01*
X25714243Y-64081718D01*
X25697022Y-64081971D01*
X25679597Y-64082728D01*
X25661968Y-64083990D01*
X25644134Y-64085757D01*
X25626096Y-64088029D01*
X25607854Y-64090806D01*
X25589407Y-64094088D01*
X25570756Y-64097875D01*
X25551901Y-64102167D01*
X25532841Y-64106963D01*
X25520021Y-64110441D01*
X25500825Y-64115973D01*
X25481833Y-64121926D01*
X25463046Y-64128299D01*
X25444463Y-64135093D01*
X25426084Y-64142308D01*
X25407910Y-64149943D01*
X25389940Y-64158000D01*
X25372175Y-64166477D01*
X25354613Y-64175374D01*
X25337257Y-64184693D01*
X25325799Y-64191139D01*
X25316225Y-64191139D01*
X25316225Y-63994866D01*
X25329447Y-63988756D01*
X25343469Y-63982736D01*
X25358290Y-63976806D01*
X25373911Y-63970967D01*
X25390331Y-63965218D01*
X25407551Y-63959559D01*
X25425570Y-63953990D01*
X25444388Y-63948511D01*
X25464006Y-63943123D01*
X25477529Y-63939580D01*
X25491406Y-63936078D01*
X25498479Y-63934342D01*
X25512684Y-63930988D01*
X25526833Y-63927851D01*
X25540926Y-63924929D01*
X25554963Y-63922225D01*
X25568944Y-63919736D01*
X25582868Y-63917464D01*
X25596737Y-63915409D01*
X25610550Y-63913569D01*
X25624306Y-63911946D01*
X25638006Y-63910540D01*
X25651650Y-63909350D01*
X25672012Y-63907970D01*
X25692246Y-63907078D01*
X25712355Y-63906672D01*
X25719030Y-63906645D01*
X25738491Y-63906810D01*
X25757506Y-63907306D01*
X25776077Y-63908133D01*
X25794203Y-63909290D01*
X25811885Y-63910777D01*
X25829121Y-63912596D01*
X25845913Y-63914744D01*
X25862260Y-63917224D01*
X25878162Y-63920034D01*
X25893620Y-63923174D01*
X25903678Y-63925452D01*
X25918542Y-63929173D01*
X25933130Y-63933286D01*
X25947441Y-63937789D01*
X25961476Y-63942682D01*
X25975235Y-63947967D01*
X25988716Y-63953642D01*
X26001922Y-63959707D01*
X26014851Y-63966164D01*
X26027503Y-63973011D01*
X26039879Y-63980249D01*
X26047976Y-63985291D01*
X26060694Y-63993920D01*
X26072816Y-64002878D01*
X26084344Y-64012168D01*
X26095276Y-64021788D01*
X26105614Y-64031739D01*
X26115356Y-64042020D01*
X26124503Y-64052632D01*
X26133055Y-64063574D01*
X26141012Y-64074847D01*
X26148374Y-64086451D01*
X26152952Y-64094370D01*
X26159307Y-64106488D01*
X26165037Y-64118990D01*
X26170142Y-64131877D01*
X26174622Y-64145148D01*
X26178477Y-64158804D01*
X26181707Y-64172845D01*
X26184311Y-64187271D01*
X26186291Y-64202081D01*
X26187645Y-64217276D01*
X26188375Y-64232856D01*
X26188514Y-64243456D01*
X26188185Y-64257873D01*
X26187199Y-64272061D01*
X26185556Y-64286019D01*
X26183256Y-64299748D01*
X26180299Y-64313246D01*
X26176685Y-64326515D01*
X26172413Y-64339554D01*
X26167484Y-64352364D01*
X26161898Y-64364943D01*
X26155655Y-64377293D01*
X26148755Y-64389414D01*
X26141198Y-64401304D01*
X26132983Y-64412965D01*
X26124111Y-64424396D01*
X26114582Y-64435597D01*
X26104396Y-64446568D01*
X26093763Y-64457132D01*
X26082892Y-64467197D01*
X26071782Y-64476762D01*
X26060436Y-64485827D01*
X26048851Y-64494393D01*
X26037029Y-64502459D01*
X26024969Y-64510026D01*
X26012671Y-64517093D01*
X26000135Y-64523661D01*
X25987362Y-64529729D01*
X25974351Y-64535298D01*
X25961102Y-64540367D01*
X25947616Y-64544936D01*
X25933891Y-64549006D01*
X25919929Y-64552576D01*
X25905729Y-64555647D01*
X25905729Y-64568641D01*
X25920480Y-64571401D01*
X25935883Y-64574979D01*
X25951936Y-64579375D01*
X25965248Y-64583481D01*
X25978976Y-64588110D01*
X25993121Y-64593263D01*
X26007683Y-64598940D01*
X26011389Y-64600441D01*
X26026060Y-64606698D01*
X26040154Y-64613328D01*
X26053672Y-64620333D01*
X26066612Y-64627711D01*
X26078975Y-64635463D01*
X26090761Y-64643590D01*
X26101971Y-64652090D01*
X26112603Y-64660965D01*
G37*
G36*
X29605660Y-46077739D02*
G01*
X29619977Y-46066394D01*
X29634463Y-46055439D01*
X29649117Y-46044876D01*
X29663939Y-46034703D01*
X29678930Y-46024920D01*
X29694088Y-46015529D01*
X29709416Y-46006528D01*
X29724911Y-45997917D01*
X29740575Y-45989698D01*
X29756407Y-45981869D01*
X29767055Y-45976867D01*
X29783331Y-45969839D01*
X29799974Y-45963503D01*
X29816983Y-45957858D01*
X29834359Y-45952904D01*
X29852101Y-45948642D01*
X29870210Y-45945070D01*
X29888686Y-45942190D01*
X29907528Y-45940001D01*
X29926738Y-45938504D01*
X29946313Y-45937697D01*
X29959567Y-45937544D01*
X29983061Y-45938106D01*
X30005927Y-45939793D01*
X30028165Y-45942605D01*
X30049775Y-45946541D01*
X30070758Y-45951602D01*
X30091113Y-45957787D01*
X30110840Y-45965098D01*
X30129939Y-45973533D01*
X30148410Y-45983092D01*
X30166254Y-45993777D01*
X30183470Y-46005586D01*
X30200058Y-46018519D01*
X30216018Y-46032577D01*
X30231351Y-46047760D01*
X30246056Y-46064068D01*
X30260133Y-46081500D01*
X30273466Y-46099956D01*
X30285938Y-46119333D01*
X30297551Y-46139631D01*
X30308303Y-46160852D01*
X30318196Y-46182994D01*
X30327228Y-46206057D01*
X30335400Y-46230042D01*
X30342711Y-46254949D01*
X30349163Y-46280778D01*
X30354754Y-46307528D01*
X30357227Y-46321249D01*
X30359485Y-46335200D01*
X30361528Y-46349381D01*
X30363356Y-46363793D01*
X30364969Y-46378435D01*
X30366366Y-46393308D01*
X30367549Y-46408411D01*
X30368517Y-46423745D01*
X30369270Y-46439309D01*
X30369807Y-46455103D01*
X30370130Y-46471128D01*
X30370237Y-46487383D01*
X30370089Y-46503863D01*
X30369644Y-46520134D01*
X30368903Y-46536198D01*
X30367865Y-46552052D01*
X30366531Y-46567699D01*
X30364900Y-46583137D01*
X30362972Y-46598367D01*
X30360749Y-46613388D01*
X30358228Y-46628201D01*
X30355411Y-46642805D01*
X30352298Y-46657202D01*
X30348887Y-46671389D01*
X30345181Y-46685369D01*
X30341178Y-46699140D01*
X30336878Y-46712703D01*
X30332282Y-46726057D01*
X30327433Y-46739175D01*
X30322376Y-46752029D01*
X30314400Y-46770813D01*
X30305955Y-46789002D01*
X30297041Y-46806596D01*
X30287659Y-46823596D01*
X30277807Y-46840000D01*
X30267487Y-46855809D01*
X30256698Y-46871023D01*
X30245440Y-46885642D01*
X30233713Y-46899665D01*
X30229700Y-46904208D01*
X30216821Y-46917860D01*
X30203702Y-46930863D01*
X30190342Y-46943217D01*
X30176742Y-46954922D01*
X30162902Y-46965977D01*
X30148821Y-46976384D01*
X30134499Y-46986141D01*
X30119937Y-46995249D01*
X30105135Y-47003708D01*
X30090092Y-47011518D01*
X30079930Y-47016364D01*
X30064463Y-47023025D01*
X30048707Y-47029031D01*
X30032662Y-47034381D01*
X30016329Y-47039076D01*
X29999708Y-47043117D01*
X29982798Y-47046502D01*
X29965599Y-47049232D01*
X29948112Y-47051306D01*
X29930337Y-47052726D01*
X29912273Y-47053490D01*
X29900070Y-47053636D01*
X29883092Y-47053446D01*
X29866522Y-47052878D01*
X29850362Y-47051932D01*
X29834610Y-47050606D01*
X29819267Y-47048902D01*
X29804332Y-47046820D01*
X29789806Y-47044358D01*
X29775689Y-47041518D01*
X29761981Y-47038299D01*
X29748681Y-47034702D01*
X29740042Y-47032093D01*
X29723057Y-47026564D01*
X29706126Y-47020574D01*
X29689248Y-47014126D01*
X29672423Y-47007217D01*
X29659840Y-47001735D01*
X29647287Y-46995993D01*
X29634764Y-46989994D01*
X29622270Y-46983736D01*
X29609807Y-46977219D01*
X29605660Y-46974989D01*
X29594034Y-47031752D01*
X29424773Y-47031752D01*
X29424773Y-46839923D01*
X29605660Y-46839923D01*
X29619893Y-46846090D01*
X29633741Y-46851896D01*
X29647205Y-46857342D01*
X29660284Y-46862427D01*
X29677125Y-46868646D01*
X29693282Y-46874224D01*
X29708754Y-46879161D01*
X29723543Y-46883456D01*
X29737648Y-46887111D01*
X29751732Y-46890236D01*
X29766286Y-46892945D01*
X29781310Y-46895237D01*
X29796804Y-46897113D01*
X29812768Y-46898571D01*
X29829203Y-46899613D01*
X29846107Y-46900238D01*
X29863482Y-46900447D01*
X29881951Y-46900067D01*
X29899915Y-46898929D01*
X29917374Y-46897032D01*
X29934328Y-46894377D01*
X29950777Y-46890963D01*
X29966721Y-46886790D01*
X29982161Y-46881859D01*
X29997095Y-46876169D01*
X30011525Y-46869720D01*
X30025450Y-46862513D01*
X30038869Y-46854546D01*
X30051784Y-46845822D01*
X30064194Y-46836338D01*
X30076100Y-46826096D01*
X30087500Y-46815095D01*
X30098395Y-46803336D01*
X30108705Y-46790764D01*
X30118350Y-46777327D01*
X30127330Y-46763024D01*
X30135645Y-46747856D01*
X30143295Y-46731822D01*
X30150279Y-46714923D01*
X30156598Y-46697158D01*
X30162252Y-46678527D01*
X30167241Y-46659032D01*
X30171565Y-46638670D01*
X30175223Y-46617443D01*
X30178217Y-46595351D01*
X30180545Y-46572393D01*
X30182208Y-46548569D01*
X30183206Y-46523880D01*
X30183538Y-46498325D01*
X30183290Y-46475002D01*
X30182544Y-46452393D01*
X30181302Y-46430497D01*
X30179563Y-46409314D01*
X30177327Y-46388844D01*
X30174594Y-46369088D01*
X30171365Y-46350045D01*
X30167638Y-46331715D01*
X30163414Y-46314098D01*
X30158694Y-46297195D01*
X30153477Y-46281005D01*
X30147763Y-46265528D01*
X30141552Y-46250765D01*
X30134844Y-46236714D01*
X30127639Y-46223377D01*
X30119937Y-46210754D01*
X30111724Y-46198870D01*
X30102899Y-46187753D01*
X30093462Y-46177402D01*
X30083414Y-46167819D01*
X30072754Y-46159002D01*
X30061482Y-46150951D01*
X30049598Y-46143668D01*
X30037102Y-46137151D01*
X30023995Y-46131401D01*
X30010276Y-46126417D01*
X29995945Y-46122200D01*
X29981003Y-46118750D01*
X29965449Y-46116067D01*
X29949283Y-46114150D01*
X29932505Y-46113000D01*
X29915115Y-46112617D01*
X29900348Y-46112914D01*
X29885539Y-46113807D01*
X29870687Y-46115295D01*
X29855794Y-46117377D01*
X29840858Y-46120055D01*
X29825881Y-46123328D01*
X29810861Y-46127196D01*
X29795800Y-46131659D01*
X29780696Y-46136717D01*
X29765550Y-46142370D01*
X29755429Y-46146469D01*
X29740401Y-46152923D01*
X29725576Y-46159720D01*
X29710956Y-46166860D01*
X29696541Y-46174342D01*
X29682330Y-46182167D01*
X29668323Y-46190335D01*
X29654520Y-46198845D01*
X29640922Y-46207698D01*
X29627528Y-46216893D01*
X29614339Y-46226431D01*
X29605660Y-46232980D01*
X29605660Y-46839923D01*
X29424773Y-46839923D01*
X29424773Y-45543629D01*
X29605660Y-45543629D01*
X29605660Y-46077739D01*
G37*
G36*
X31591305Y-47031752D02*
G01*
X30621905Y-47031752D01*
X30621905Y-46820091D01*
X30634517Y-46809620D01*
X30647134Y-46799152D01*
X30659756Y-46788687D01*
X30672384Y-46778224D01*
X30685017Y-46767764D01*
X30697656Y-46757307D01*
X30710299Y-46746853D01*
X30722948Y-46736401D01*
X30735603Y-46725952D01*
X30748263Y-46715505D01*
X30760928Y-46705061D01*
X30773598Y-46694620D01*
X30786274Y-46684182D01*
X30798955Y-46673746D01*
X30811642Y-46663313D01*
X30824334Y-46652882D01*
X30836973Y-46642414D01*
X30849504Y-46631954D01*
X30861924Y-46621502D01*
X30874236Y-46611058D01*
X30886437Y-46600623D01*
X30898529Y-46590195D01*
X30910512Y-46579775D01*
X30922385Y-46569363D01*
X30934148Y-46558959D01*
X30945802Y-46548564D01*
X30957347Y-46538176D01*
X30968782Y-46527796D01*
X30980107Y-46517424D01*
X30991323Y-46507061D01*
X31002430Y-46496705D01*
X31013426Y-46486357D01*
X31024853Y-46475634D01*
X31036052Y-46465050D01*
X31047023Y-46454605D01*
X31057766Y-46444299D01*
X31068282Y-46434131D01*
X31078570Y-46424103D01*
X31088630Y-46414213D01*
X31098463Y-46404463D01*
X31117444Y-46385378D01*
X31135515Y-46366849D01*
X31152675Y-46348876D01*
X31168924Y-46331458D01*
X31184262Y-46314596D01*
X31198688Y-46298290D01*
X31212204Y-46282540D01*
X31224809Y-46267345D01*
X31236504Y-46252705D01*
X31247287Y-46238622D01*
X31257159Y-46225094D01*
X31266120Y-46212121D01*
X31274401Y-46199320D01*
X31282149Y-46186390D01*
X31289361Y-46173333D01*
X31296040Y-46160146D01*
X31302184Y-46146832D01*
X31307794Y-46133390D01*
X31312870Y-46119819D01*
X31317411Y-46106120D01*
X31321418Y-46092293D01*
X31324891Y-46078337D01*
X31327830Y-46064254D01*
X31330234Y-46050042D01*
X31332104Y-46035702D01*
X31333440Y-46021233D01*
X31334241Y-46006637D01*
X31334508Y-45991912D01*
X31333862Y-45972128D01*
X31331924Y-45953167D01*
X31328693Y-45935030D01*
X31324170Y-45917716D01*
X31318354Y-45901226D01*
X31311247Y-45885559D01*
X31302847Y-45870716D01*
X31293155Y-45856696D01*
X31282170Y-45843500D01*
X31269893Y-45831127D01*
X31260991Y-45823336D01*
X31246693Y-45812458D01*
X31231366Y-45802651D01*
X31215012Y-45793913D01*
X31197631Y-45786246D01*
X31179221Y-45779648D01*
X31159783Y-45774120D01*
X31146254Y-45771029D01*
X31132268Y-45768414D01*
X31117825Y-45766274D01*
X31102925Y-45764610D01*
X31087569Y-45763421D01*
X31071755Y-45762708D01*
X31055485Y-45762470D01*
X31038946Y-45762708D01*
X31022154Y-45763420D01*
X31005110Y-45764607D01*
X30987813Y-45766269D01*
X30970264Y-45768406D01*
X30952462Y-45771017D01*
X30934408Y-45774104D01*
X30916102Y-45777665D01*
X30897543Y-45781701D01*
X30878731Y-45786212D01*
X30866050Y-45789484D01*
X30846987Y-45794798D01*
X30828007Y-45800611D01*
X30809111Y-45806923D01*
X30790300Y-45813735D01*
X30771573Y-45821045D01*
X30752930Y-45828853D01*
X30734371Y-45837161D01*
X30715896Y-45845968D01*
X30703626Y-45852116D01*
X30691394Y-45858486D01*
X30679199Y-45865078D01*
X30667041Y-45871891D01*
X30657467Y-45871891D01*
X30657467Y-45674592D01*
X30670689Y-45668488D01*
X30684711Y-45662486D01*
X30699533Y-45656587D01*
X30715153Y-45650789D01*
X30731573Y-45645094D01*
X30748793Y-45639501D01*
X30766812Y-45634011D01*
X30785630Y-45628622D01*
X30805248Y-45623336D01*
X30818771Y-45619868D01*
X30832649Y-45616446D01*
X30839721Y-45614752D01*
X30853927Y-45611440D01*
X30868081Y-45608341D01*
X30882180Y-45605456D01*
X30896227Y-45602784D01*
X30910219Y-45600327D01*
X30924159Y-45598083D01*
X30938045Y-45596052D01*
X30951877Y-45594236D01*
X30965656Y-45592633D01*
X30979382Y-45591244D01*
X30993054Y-45590068D01*
X31013463Y-45588706D01*
X31033751Y-45587824D01*
X31053918Y-45587424D01*
X31060614Y-45587397D01*
X31087768Y-45587803D01*
X31114176Y-45589021D01*
X31139839Y-45591051D01*
X31164756Y-45593894D01*
X31188929Y-45597548D01*
X31212355Y-45602015D01*
X31235037Y-45607294D01*
X31256973Y-45613384D01*
X31278164Y-45620287D01*
X31298610Y-45628002D01*
X31318310Y-45636530D01*
X31337265Y-45645869D01*
X31355475Y-45656020D01*
X31372939Y-45666984D01*
X31389658Y-45678759D01*
X31405632Y-45691347D01*
X31420787Y-45704629D01*
X31434964Y-45718488D01*
X31448163Y-45732925D01*
X31460385Y-45747938D01*
X31471629Y-45763528D01*
X31481895Y-45779695D01*
X31491183Y-45796440D01*
X31499494Y-45813761D01*
X31506827Y-45831660D01*
X31513182Y-45850135D01*
X31518560Y-45869188D01*
X31522960Y-45888817D01*
X31526382Y-45909024D01*
X31528826Y-45929807D01*
X31530293Y-45951168D01*
X31530782Y-45973105D01*
X31530598Y-45988015D01*
X31530048Y-46002738D01*
X31529132Y-46017275D01*
X31527848Y-46031625D01*
X31526199Y-46045789D01*
X31524182Y-46059767D01*
X31521799Y-46073559D01*
X31519049Y-46087164D01*
X31515932Y-46100582D01*
X31512449Y-46113815D01*
X31509923Y-46122533D01*
X31504484Y-46139689D01*
X31498426Y-46156620D01*
X31491747Y-46173327D01*
X31484449Y-46189810D01*
X31476531Y-46206068D01*
X31467993Y-46222102D01*
X31461183Y-46233980D01*
X31454024Y-46245732D01*
X31449058Y-46253496D01*
X31439452Y-46268082D01*
X31429439Y-46282604D01*
X31419021Y-46297061D01*
X31408196Y-46311455D01*
X31396966Y-46325784D01*
X31388276Y-46336489D01*
X31379358Y-46347158D01*
X31370212Y-46357791D01*
X31360837Y-46368388D01*
X31351220Y-46379075D01*
X31341219Y-46389978D01*
X31330832Y-46401098D01*
X31320061Y-46412434D01*
X31308905Y-46423987D01*
X31297365Y-46435755D01*
X31285440Y-46447741D01*
X31273130Y-46459942D01*
X31260435Y-46472360D01*
X31247356Y-46484995D01*
X31238423Y-46493538D01*
X31225531Y-46505867D01*
X31212585Y-46518147D01*
X31199586Y-46530379D01*
X31186534Y-46542564D01*
X31173428Y-46554700D01*
X31160268Y-46566788D01*
X31147056Y-46578828D01*
X31133789Y-46590820D01*
X31120470Y-46602764D01*
X31107097Y-46614660D01*
X31093670Y-46626507D01*
X31080190Y-46638307D01*
X31066657Y-46650058D01*
X31053070Y-46661762D01*
X31039430Y-46673417D01*
X31025736Y-46685024D01*
X31012073Y-46696554D01*
X30998525Y-46707977D01*
X30985092Y-46719293D01*
X30971774Y-46730502D01*
X30958570Y-46741605D01*
X30945482Y-46752600D01*
X30932508Y-46763489D01*
X30919649Y-46774271D01*
X30906905Y-46784946D01*
X30894276Y-46795514D01*
X30881762Y-46805975D01*
X30869363Y-46816329D01*
X30857078Y-46826577D01*
X30844909Y-46836717D01*
X30832854Y-46846751D01*
X30820914Y-46856678D01*
X31591305Y-46856678D01*
X31591305Y-47031752D01*
G37*
G36*
X4632401Y-100955487D02*
G01*
X4428604Y-100955487D01*
X4428604Y-100758529D01*
X4632401Y-100758529D01*
X4632401Y-100955487D01*
G37*
G36*
X4620775Y-102197755D02*
G01*
X4620399Y-102220734D01*
X4619273Y-102242997D01*
X4617397Y-102264545D01*
X4614769Y-102285377D01*
X4611391Y-102305492D01*
X4607263Y-102324892D01*
X4602383Y-102343576D01*
X4596753Y-102361544D01*
X4590373Y-102378796D01*
X4583241Y-102395332D01*
X4575359Y-102411152D01*
X4566727Y-102426256D01*
X4557343Y-102440644D01*
X4547209Y-102454316D01*
X4536325Y-102467273D01*
X4524689Y-102479513D01*
X4512422Y-102491066D01*
X4499642Y-102501873D01*
X4486349Y-102511935D01*
X4472544Y-102521251D01*
X4458225Y-102529822D01*
X4443393Y-102537648D01*
X4428049Y-102544729D01*
X4412191Y-102551064D01*
X4395821Y-102556654D01*
X4378938Y-102561499D01*
X4361541Y-102565598D01*
X4343632Y-102568952D01*
X4325210Y-102571560D01*
X4306275Y-102573424D01*
X4286827Y-102574542D01*
X4266867Y-102574914D01*
X4251640Y-102574638D01*
X4237628Y-102573985D01*
X4222414Y-102572948D01*
X4205999Y-102571527D01*
X4192001Y-102570114D01*
X4177233Y-102568455D01*
X4165652Y-102567050D01*
X4150244Y-102565110D01*
X4135476Y-102563053D01*
X4121350Y-102560879D01*
X4107865Y-102558587D01*
X4091910Y-102555556D01*
X4076956Y-102552342D01*
X4063005Y-102548945D01*
X4060335Y-102548243D01*
X4060335Y-102377957D01*
X4069909Y-102377957D01*
X4082611Y-102383506D01*
X4097080Y-102389383D01*
X4110889Y-102394680D01*
X4125995Y-102400218D01*
X4139576Y-102405016D01*
X4142401Y-102405996D01*
X4156661Y-102410527D01*
X4170804Y-102414291D01*
X4184831Y-102417286D01*
X4198740Y-102419513D01*
X4212533Y-102420973D01*
X4226209Y-102421664D01*
X4231647Y-102421725D01*
X4248498Y-102421426D01*
X4264516Y-102420528D01*
X4279700Y-102419032D01*
X4294051Y-102416938D01*
X4307568Y-102414245D01*
X4323293Y-102410038D01*
X4337715Y-102404895D01*
X4343119Y-102402577D01*
X4355852Y-102396125D01*
X4367549Y-102388739D01*
X4380220Y-102378641D01*
X4391400Y-102367197D01*
X4401089Y-102354406D01*
X4406720Y-102345131D01*
X4412879Y-102332877D01*
X4418321Y-102319839D01*
X4423044Y-102306016D01*
X4427050Y-102291409D01*
X4430337Y-102276016D01*
X4432907Y-102259839D01*
X4433733Y-102253149D01*
X4435256Y-102239279D01*
X4436576Y-102224682D01*
X4437692Y-102209359D01*
X4438606Y-102193309D01*
X4439317Y-102176533D01*
X4439824Y-102159030D01*
X4440129Y-102140800D01*
X4440224Y-102126651D01*
X4440230Y-102121844D01*
X4440230Y-101261865D01*
X4215918Y-101261865D01*
X4215918Y-101108676D01*
X4620775Y-101108676D01*
X4620775Y-102197755D01*
G37*
G36*
X5418382Y-100736924D02*
G01*
X5437458Y-100737763D01*
X5456258Y-100739160D01*
X5474780Y-100741117D01*
X5493027Y-100743632D01*
X5510997Y-100746707D01*
X5528690Y-100750340D01*
X5546107Y-100754533D01*
X5563247Y-100759284D01*
X5580111Y-100764595D01*
X5591200Y-100768445D01*
X5607610Y-100774684D01*
X5623630Y-100781477D01*
X5639259Y-100788822D01*
X5654497Y-100796720D01*
X5669344Y-100805171D01*
X5683801Y-100814175D01*
X5697867Y-100823732D01*
X5711542Y-100833841D01*
X5724826Y-100844504D01*
X5737720Y-100855720D01*
X5746099Y-100863505D01*
X5756168Y-100873512D01*
X5765942Y-100883872D01*
X5775423Y-100894584D01*
X5784610Y-100905649D01*
X5793503Y-100917066D01*
X5802102Y-100928837D01*
X5810408Y-100940959D01*
X5818419Y-100953435D01*
X5826137Y-100966263D01*
X5833561Y-100979444D01*
X5840691Y-100992977D01*
X5847527Y-101006863D01*
X5854069Y-101021102D01*
X5860318Y-101035693D01*
X5866272Y-101050637D01*
X5871933Y-101065933D01*
X5877316Y-101081646D01*
X5882351Y-101097926D01*
X5887040Y-101114772D01*
X5891381Y-101132184D01*
X5895375Y-101150163D01*
X5899021Y-101168708D01*
X5902320Y-101187819D01*
X5905272Y-101207496D01*
X5907877Y-101227740D01*
X5910134Y-101248551D01*
X5912044Y-101269927D01*
X5913607Y-101291870D01*
X5914822Y-101314379D01*
X5915691Y-101337455D01*
X5916212Y-101361097D01*
X5916385Y-101385305D01*
X5916218Y-101408294D01*
X5915717Y-101431013D01*
X5914883Y-101453462D01*
X5913714Y-101475641D01*
X5912211Y-101497551D01*
X5910375Y-101519191D01*
X5908204Y-101540561D01*
X5905700Y-101561661D01*
X5902861Y-101582491D01*
X5899689Y-101603051D01*
X5896183Y-101623342D01*
X5892343Y-101643363D01*
X5888168Y-101663114D01*
X5883660Y-101682595D01*
X5878819Y-101701807D01*
X5873643Y-101720748D01*
X5868129Y-101739383D01*
X5862273Y-101757672D01*
X5856076Y-101775618D01*
X5849536Y-101793218D01*
X5842654Y-101810474D01*
X5835431Y-101827385D01*
X5827865Y-101843952D01*
X5819958Y-101860174D01*
X5811709Y-101876052D01*
X5803118Y-101891585D01*
X5794184Y-101906773D01*
X5784909Y-101921617D01*
X5775292Y-101936116D01*
X5765333Y-101950270D01*
X5755032Y-101964080D01*
X5744389Y-101977545D01*
X5733274Y-101990859D01*
X5721811Y-102003789D01*
X5710000Y-102016334D01*
X5697843Y-102028494D01*
X5685338Y-102040270D01*
X5672486Y-102051661D01*
X5659286Y-102062667D01*
X5645740Y-102073288D01*
X5631846Y-102083525D01*
X5617604Y-102093377D01*
X5603016Y-102102845D01*
X5588080Y-102111928D01*
X5572797Y-102120626D01*
X5557167Y-102128939D01*
X5541189Y-102136868D01*
X5524864Y-102144412D01*
X5508228Y-102151492D01*
X5491231Y-102158116D01*
X5473873Y-102164283D01*
X5456155Y-102169993D01*
X5438077Y-102175247D01*
X5419637Y-102180043D01*
X5400837Y-102184383D01*
X5381677Y-102188266D01*
X5362155Y-102191692D01*
X5342273Y-102194661D01*
X5322031Y-102197174D01*
X5301427Y-102199229D01*
X5280464Y-102200828D01*
X5259139Y-102201970D01*
X5237454Y-102202655D01*
X5215408Y-102202884D01*
X5199941Y-102202742D01*
X5184740Y-102202316D01*
X5169807Y-102201606D01*
X5155141Y-102200613D01*
X5140742Y-102199336D01*
X5126611Y-102197775D01*
X5121033Y-102197071D01*
X5107482Y-102195194D01*
X5091838Y-102192501D01*
X5076868Y-102189328D01*
X5062570Y-102185673D01*
X5048946Y-102181538D01*
X5042387Y-102179290D01*
X5042387Y-101984042D01*
X5051961Y-101984042D01*
X5065324Y-101990842D01*
X5078524Y-101996540D01*
X5093334Y-102002118D01*
X5106906Y-102006674D01*
X5121597Y-102011147D01*
X5130949Y-102013791D01*
X5147154Y-102017830D01*
X5163928Y-102021184D01*
X5177755Y-102023375D01*
X5191945Y-102025127D01*
X5206499Y-102026441D01*
X5221416Y-102027318D01*
X5236697Y-102027756D01*
X5244473Y-102027810D01*
X5270658Y-102027323D01*
X5296127Y-102025860D01*
X5320881Y-102023423D01*
X5344918Y-102020010D01*
X5368239Y-102015622D01*
X5390845Y-102010259D01*
X5412734Y-102003921D01*
X5433908Y-101996608D01*
X5454365Y-101988320D01*
X5474107Y-101979057D01*
X5493133Y-101968819D01*
X5511443Y-101957606D01*
X5529037Y-101945418D01*
X5545915Y-101932254D01*
X5562077Y-101918116D01*
X5577523Y-101903002D01*
X5592214Y-101886990D01*
X5606112Y-101870240D01*
X5619217Y-101852753D01*
X5631528Y-101834529D01*
X5643046Y-101815567D01*
X5653770Y-101795868D01*
X5663701Y-101775432D01*
X5672838Y-101754258D01*
X5681183Y-101732348D01*
X5688733Y-101709699D01*
X5695491Y-101686314D01*
X5701455Y-101662191D01*
X5706625Y-101637331D01*
X5711002Y-101611734D01*
X5714586Y-101585399D01*
X5717376Y-101558327D01*
X5700671Y-101567875D01*
X5684153Y-101576900D01*
X5667821Y-101585402D01*
X5651676Y-101593381D01*
X5635716Y-101600837D01*
X5619943Y-101607771D01*
X5604357Y-101614181D01*
X5588956Y-101620068D01*
X5573742Y-101625433D01*
X5558715Y-101630274D01*
X5548800Y-101633212D01*
X5533924Y-101637245D01*
X5518790Y-101640881D01*
X5503398Y-101644121D01*
X5487747Y-101646964D01*
X5471838Y-101649410D01*
X5455670Y-101651460D01*
X5439244Y-101653113D01*
X5422560Y-101654369D01*
X5405617Y-101655229D01*
X5388415Y-101655692D01*
X5376804Y-101655780D01*
X5360407Y-101655632D01*
X5344298Y-101655191D01*
X5328478Y-101654454D01*
X5312947Y-101653424D01*
X5297704Y-101652098D01*
X5282749Y-101650478D01*
X5268083Y-101648564D01*
X5253705Y-101646355D01*
X5239616Y-101643852D01*
X5225816Y-101641054D01*
X5216776Y-101639025D01*
X5203370Y-101635542D01*
X5189952Y-101631507D01*
X5176523Y-101626919D01*
X5163081Y-101621778D01*
X5149627Y-101616084D01*
X5136161Y-101609837D01*
X5122683Y-101603037D01*
X5109193Y-101595684D01*
X5095691Y-101587778D01*
X5082177Y-101579319D01*
X5073161Y-101573372D01*
X5057631Y-101562395D01*
X5042839Y-101550876D01*
X5028787Y-101538817D01*
X5015475Y-101526216D01*
X5002902Y-101513075D01*
X4991068Y-101499393D01*
X4979973Y-101485170D01*
X4969617Y-101470405D01*
X4960001Y-101455100D01*
X4951125Y-101439254D01*
X4945618Y-101428390D01*
X4937979Y-101411606D01*
X4931092Y-101394209D01*
X4924956Y-101376199D01*
X4919571Y-101357576D01*
X4914938Y-101338340D01*
X4911056Y-101318491D01*
X4908886Y-101304917D01*
X4907049Y-101291071D01*
X4905546Y-101276953D01*
X4904378Y-101262562D01*
X4903543Y-101247899D01*
X4903042Y-101232963D01*
X4902875Y-101217755D01*
X4903029Y-101210574D01*
X5098123Y-101210574D01*
X5098351Y-101226958D01*
X5099036Y-101242771D01*
X5100178Y-101258013D01*
X5101777Y-101272684D01*
X5103833Y-101286784D01*
X5106345Y-101300313D01*
X5110406Y-101317463D01*
X5115279Y-101333599D01*
X5120963Y-101348719D01*
X5124110Y-101355898D01*
X5131163Y-101369699D01*
X5139327Y-101383061D01*
X5148602Y-101395985D01*
X5158988Y-101408472D01*
X5170486Y-101420520D01*
X5183095Y-101432130D01*
X5196815Y-101443301D01*
X5211647Y-101454035D01*
X5225328Y-101462650D01*
X5239443Y-101470331D01*
X5253992Y-101477076D01*
X5268975Y-101482886D01*
X5284393Y-101487762D01*
X5300244Y-101491702D01*
X5306706Y-101493016D01*
X5323232Y-101495774D01*
X5336862Y-101497644D01*
X5350855Y-101499215D01*
X5365211Y-101500487D01*
X5379930Y-101501459D01*
X5395013Y-101502132D01*
X5410459Y-101502506D01*
X5422282Y-101502591D01*
X5436341Y-101502419D01*
X5450436Y-101501905D01*
X5464567Y-101501049D01*
X5478734Y-101499850D01*
X5492937Y-101498308D01*
X5507177Y-101496424D01*
X5521452Y-101494197D01*
X5535763Y-101491627D01*
X5550111Y-101488715D01*
X5564494Y-101485460D01*
X5574103Y-101483100D01*
X5588445Y-101479228D01*
X5602618Y-101475050D01*
X5616623Y-101470565D01*
X5630459Y-101465773D01*
X5644127Y-101460675D01*
X5657627Y-101455271D01*
X5670959Y-101449559D01*
X5684122Y-101443542D01*
X5697118Y-101437218D01*
X5709944Y-101430587D01*
X5718402Y-101425996D01*
X5719219Y-101411218D01*
X5720133Y-101396632D01*
X5720796Y-101387015D01*
X5721574Y-101372557D01*
X5721971Y-101358805D01*
X5722142Y-101345127D01*
X5722163Y-101337775D01*
X5722043Y-101319876D01*
X5721682Y-101302422D01*
X5721081Y-101285415D01*
X5720240Y-101268853D01*
X5719158Y-101252738D01*
X5717836Y-101237069D01*
X5716273Y-101221846D01*
X5714470Y-101207069D01*
X5712426Y-101192738D01*
X5710142Y-101178854D01*
X5706265Y-101158863D01*
X5701847Y-101139876D01*
X5696888Y-101121893D01*
X5691389Y-101104914D01*
X5685417Y-101088783D01*
X5679043Y-101073342D01*
X5672266Y-101058593D01*
X5665086Y-101044535D01*
X5657504Y-101031169D01*
X5649518Y-101018493D01*
X5641131Y-101006509D01*
X5632340Y-100995216D01*
X5623147Y-100984614D01*
X5613551Y-100974703D01*
X5606929Y-100968480D01*
X5595458Y-100958340D01*
X5583784Y-100948947D01*
X5571907Y-100940302D01*
X5559827Y-100932406D01*
X5547544Y-100925257D01*
X5535058Y-100918856D01*
X5522369Y-100913204D01*
X5509477Y-100908299D01*
X5496429Y-100903971D01*
X5483104Y-100900221D01*
X5469502Y-100897047D01*
X5455621Y-100894450D01*
X5441463Y-100892431D01*
X5427026Y-100890988D01*
X5412312Y-100890123D01*
X5397320Y-100889834D01*
X5380237Y-100890163D01*
X5363607Y-100891148D01*
X5347432Y-100892791D01*
X5331711Y-100895091D01*
X5316443Y-100898049D01*
X5301631Y-100901663D01*
X5287272Y-100905935D01*
X5273367Y-100910863D01*
X5259917Y-100916449D01*
X5246920Y-100922692D01*
X5234378Y-100929593D01*
X5222290Y-100937150D01*
X5210656Y-100945365D01*
X5199476Y-100954236D01*
X5188750Y-100963765D01*
X5178479Y-100973951D01*
X5168748Y-100984733D01*
X5159645Y-100996049D01*
X5151170Y-101007900D01*
X5143323Y-101020284D01*
X5136104Y-101033203D01*
X5129512Y-101046656D01*
X5123548Y-101060644D01*
X5118212Y-101075166D01*
X5113503Y-101090222D01*
X5109423Y-101105812D01*
X5105970Y-101121937D01*
X5103145Y-101138595D01*
X5100948Y-101155789D01*
X5099378Y-101173516D01*
X5098437Y-101191778D01*
X5098123Y-101210574D01*
X4903029Y-101210574D01*
X4903439Y-101191394D01*
X4905130Y-101165657D01*
X4907948Y-101140542D01*
X4911894Y-101116049D01*
X4916967Y-101092178D01*
X4923167Y-101068931D01*
X4930495Y-101046305D01*
X4938950Y-101024302D01*
X4948532Y-101002921D01*
X4959242Y-100982163D01*
X4971079Y-100962028D01*
X4984043Y-100942514D01*
X4998135Y-100923623D01*
X5013354Y-100905355D01*
X5029700Y-100887709D01*
X5047174Y-100870685D01*
X5065458Y-100854454D01*
X5084237Y-100839270D01*
X5103510Y-100825133D01*
X5123277Y-100812043D01*
X5143538Y-100800000D01*
X5164294Y-100789005D01*
X5185543Y-100779056D01*
X5207287Y-100770155D01*
X5229525Y-100762301D01*
X5252258Y-100755494D01*
X5275484Y-100749735D01*
X5299205Y-100745023D01*
X5323420Y-100741357D01*
X5348129Y-100738739D01*
X5373332Y-100737169D01*
X5399030Y-100736645D01*
X5418382Y-100736924D01*
G37*
G36*
X4632401Y-82540487D02*
G01*
X4428604Y-82540487D01*
X4428604Y-82343529D01*
X4632401Y-82343529D01*
X4632401Y-82540487D01*
G37*
G36*
X4620775Y-83782755D02*
G01*
X4620399Y-83805734D01*
X4619273Y-83827997D01*
X4617397Y-83849545D01*
X4614769Y-83870377D01*
X4611391Y-83890492D01*
X4607263Y-83909892D01*
X4602383Y-83928576D01*
X4596753Y-83946544D01*
X4590373Y-83963796D01*
X4583241Y-83980332D01*
X4575359Y-83996152D01*
X4566727Y-84011256D01*
X4557343Y-84025644D01*
X4547209Y-84039316D01*
X4536325Y-84052273D01*
X4524689Y-84064513D01*
X4512422Y-84076066D01*
X4499642Y-84086873D01*
X4486349Y-84096935D01*
X4472544Y-84106251D01*
X4458225Y-84114822D01*
X4443393Y-84122648D01*
X4428049Y-84129729D01*
X4412191Y-84136064D01*
X4395821Y-84141654D01*
X4378938Y-84146499D01*
X4361541Y-84150598D01*
X4343632Y-84153952D01*
X4325210Y-84156560D01*
X4306275Y-84158424D01*
X4286827Y-84159542D01*
X4266867Y-84159914D01*
X4251640Y-84159638D01*
X4237628Y-84158985D01*
X4222414Y-84157948D01*
X4205999Y-84156527D01*
X4192001Y-84155114D01*
X4177233Y-84153455D01*
X4165652Y-84152050D01*
X4150244Y-84150110D01*
X4135476Y-84148053D01*
X4121350Y-84145879D01*
X4107865Y-84143587D01*
X4091910Y-84140556D01*
X4076956Y-84137342D01*
X4063005Y-84133945D01*
X4060335Y-84133243D01*
X4060335Y-83962957D01*
X4069909Y-83962957D01*
X4082611Y-83968506D01*
X4097080Y-83974383D01*
X4110889Y-83979680D01*
X4125995Y-83985218D01*
X4139576Y-83990016D01*
X4142401Y-83990996D01*
X4156661Y-83995527D01*
X4170804Y-83999291D01*
X4184831Y-84002286D01*
X4198740Y-84004513D01*
X4212533Y-84005973D01*
X4226209Y-84006664D01*
X4231647Y-84006725D01*
X4248498Y-84006426D01*
X4264516Y-84005528D01*
X4279700Y-84004032D01*
X4294051Y-84001938D01*
X4307568Y-83999245D01*
X4323293Y-83995038D01*
X4337715Y-83989895D01*
X4343119Y-83987577D01*
X4355852Y-83981125D01*
X4367549Y-83973739D01*
X4380220Y-83963641D01*
X4391400Y-83952197D01*
X4401089Y-83939406D01*
X4406720Y-83930131D01*
X4412879Y-83917877D01*
X4418321Y-83904839D01*
X4423044Y-83891016D01*
X4427050Y-83876409D01*
X4430337Y-83861016D01*
X4432907Y-83844839D01*
X4433733Y-83838149D01*
X4435256Y-83824279D01*
X4436576Y-83809682D01*
X4437692Y-83794359D01*
X4438606Y-83778309D01*
X4439317Y-83761533D01*
X4439824Y-83744030D01*
X4440129Y-83725800D01*
X4440224Y-83711651D01*
X4440230Y-83706844D01*
X4440230Y-82846865D01*
X4215918Y-82846865D01*
X4215918Y-82693676D01*
X4620775Y-82693676D01*
X4620775Y-83782755D01*
G37*
G36*
X5906811Y-83303697D02*
G01*
X5906489Y-83322343D01*
X5905525Y-83340839D01*
X5903917Y-83359184D01*
X5901666Y-83377379D01*
X5898772Y-83395424D01*
X5895234Y-83413319D01*
X5891054Y-83431064D01*
X5886230Y-83448658D01*
X5880764Y-83466102D01*
X5874654Y-83483395D01*
X5870223Y-83494841D01*
X5863129Y-83511707D01*
X5855565Y-83528068D01*
X5847533Y-83543924D01*
X5839032Y-83559275D01*
X5830062Y-83574122D01*
X5820623Y-83588463D01*
X5810716Y-83602300D01*
X5800339Y-83615631D01*
X5789494Y-83628458D01*
X5778180Y-83640780D01*
X5770377Y-83648714D01*
X5757130Y-83661010D01*
X5743421Y-83672765D01*
X5729249Y-83683979D01*
X5714614Y-83694652D01*
X5699516Y-83704784D01*
X5683955Y-83714375D01*
X5667932Y-83723425D01*
X5651446Y-83731934D01*
X5634497Y-83739902D01*
X5617085Y-83747329D01*
X5605220Y-83751980D01*
X5587003Y-83758396D01*
X5568258Y-83764182D01*
X5548984Y-83769336D01*
X5529181Y-83773859D01*
X5515685Y-83776524D01*
X5501954Y-83778908D01*
X5487988Y-83781011D01*
X5473787Y-83782835D01*
X5459350Y-83784377D01*
X5444679Y-83785640D01*
X5429773Y-83786621D01*
X5414631Y-83787323D01*
X5399254Y-83787743D01*
X5383643Y-83787884D01*
X5369015Y-83787789D01*
X5354455Y-83787504D01*
X5339961Y-83787030D01*
X5325534Y-83786366D01*
X5311174Y-83785513D01*
X5296881Y-83784470D01*
X5282654Y-83783237D01*
X5268494Y-83781814D01*
X5254401Y-83780202D01*
X5240375Y-83778400D01*
X5226416Y-83776409D01*
X5212523Y-83774227D01*
X5198697Y-83771857D01*
X5184938Y-83769296D01*
X5171246Y-83766546D01*
X5157620Y-83763606D01*
X5144160Y-83760531D01*
X5124467Y-83755769D01*
X5105368Y-83750826D01*
X5086864Y-83745703D01*
X5068955Y-83740399D01*
X5051641Y-83734916D01*
X5034923Y-83729252D01*
X5018799Y-83723407D01*
X5003271Y-83717383D01*
X4988337Y-83711178D01*
X4973999Y-83704792D01*
X4973999Y-83503390D01*
X4987334Y-83503390D01*
X5002379Y-83511800D01*
X5017892Y-83519975D01*
X5033875Y-83527916D01*
X5050326Y-83535623D01*
X5067246Y-83543095D01*
X5084635Y-83550333D01*
X5102493Y-83557336D01*
X5120819Y-83564105D01*
X5139614Y-83570640D01*
X5158879Y-83576940D01*
X5171982Y-83581010D01*
X5185216Y-83584861D01*
X5198418Y-83588463D01*
X5218161Y-83593401D01*
X5237832Y-83597780D01*
X5257431Y-83601599D01*
X5276957Y-83604860D01*
X5296412Y-83607562D01*
X5315794Y-83609705D01*
X5335105Y-83611289D01*
X5354343Y-83612314D01*
X5373509Y-83612779D01*
X5379881Y-83612810D01*
X5396829Y-83612511D01*
X5413648Y-83611614D01*
X5430339Y-83610118D01*
X5446902Y-83608023D01*
X5463336Y-83605330D01*
X5479642Y-83602039D01*
X5495820Y-83598150D01*
X5511870Y-83593662D01*
X5527642Y-83588426D01*
X5542987Y-83582292D01*
X5557904Y-83575261D01*
X5572394Y-83567332D01*
X5586456Y-83558506D01*
X5600091Y-83548782D01*
X5613298Y-83538161D01*
X5626078Y-83526642D01*
X5636272Y-83516047D01*
X5645825Y-83504950D01*
X5654737Y-83493350D01*
X5663008Y-83481249D01*
X5670637Y-83468645D01*
X5677626Y-83455539D01*
X5683973Y-83441931D01*
X5689679Y-83427821D01*
X5694808Y-83413096D01*
X5699253Y-83397816D01*
X5703015Y-83381980D01*
X5706092Y-83365588D01*
X5708486Y-83348640D01*
X5710195Y-83331137D01*
X5711221Y-83313079D01*
X5711542Y-83299170D01*
X5711563Y-83294464D01*
X5711162Y-83276357D01*
X5709960Y-83258967D01*
X5707957Y-83242292D01*
X5705152Y-83226333D01*
X5701545Y-83211090D01*
X5697138Y-83196563D01*
X5691928Y-83182751D01*
X5685918Y-83169656D01*
X5679282Y-83157239D01*
X5672026Y-83145464D01*
X5662085Y-83131646D01*
X5651176Y-83118830D01*
X5639298Y-83107016D01*
X5626452Y-83096203D01*
X5615478Y-83088274D01*
X5602655Y-83079469D01*
X5589149Y-83071348D01*
X5574958Y-83063911D01*
X5560084Y-83057158D01*
X5544525Y-83051088D01*
X5528283Y-83045703D01*
X5511357Y-83041001D01*
X5493747Y-83036983D01*
X5480197Y-83034295D01*
X5466347Y-83031870D01*
X5452196Y-83029711D01*
X5437744Y-83027815D01*
X5422992Y-83026184D01*
X5407939Y-83024818D01*
X5392586Y-83023716D01*
X5376932Y-83022878D01*
X5360978Y-83022305D01*
X5344723Y-83021997D01*
X5333719Y-83021938D01*
X5317876Y-83022067D01*
X5302147Y-83022455D01*
X5286533Y-83023101D01*
X5271032Y-83024006D01*
X5255646Y-83025169D01*
X5240374Y-83026590D01*
X5225216Y-83028270D01*
X5210172Y-83030209D01*
X5195243Y-83032406D01*
X5180427Y-83034861D01*
X5170614Y-83036642D01*
X5156121Y-83039337D01*
X5142007Y-83042039D01*
X5128272Y-83044747D01*
X5110547Y-83048367D01*
X5093496Y-83051997D01*
X5077117Y-83055638D01*
X5061412Y-83059290D01*
X5046380Y-83062953D01*
X5035548Y-83065706D01*
X5035548Y-82321645D01*
X5897237Y-82321645D01*
X5897237Y-82496718D01*
X5221221Y-82496718D01*
X5221221Y-82876272D01*
X5236797Y-82874933D01*
X5252493Y-82873739D01*
X5268309Y-82872689D01*
X5284245Y-82871784D01*
X5300301Y-82871022D01*
X5305680Y-82870801D01*
X5321557Y-82870103D01*
X5336615Y-82869550D01*
X5350857Y-82869142D01*
X5366438Y-82868847D01*
X5380907Y-82868749D01*
X5395327Y-82868826D01*
X5409523Y-82869059D01*
X5423495Y-82869446D01*
X5437242Y-82869989D01*
X5457442Y-82871092D01*
X5477137Y-82872545D01*
X5496327Y-82874346D01*
X5515012Y-82876496D01*
X5533192Y-82878994D01*
X5550867Y-82881842D01*
X5568038Y-82885037D01*
X5584703Y-82888581D01*
X5600990Y-82892503D01*
X5617025Y-82896960D01*
X5632807Y-82901952D01*
X5648336Y-82907479D01*
X5663613Y-82913541D01*
X5678638Y-82920137D01*
X5693410Y-82927269D01*
X5707930Y-82934936D01*
X5722197Y-82943137D01*
X5736212Y-82951874D01*
X5745415Y-82957995D01*
X5759534Y-82968200D01*
X5773040Y-82978940D01*
X5785933Y-82990215D01*
X5798213Y-83002025D01*
X5809880Y-83014370D01*
X5820933Y-83027250D01*
X5831374Y-83040665D01*
X5841201Y-83054615D01*
X5850415Y-83069099D01*
X5859017Y-83084119D01*
X5864410Y-83094429D01*
X5871988Y-83110446D01*
X5878820Y-83127208D01*
X5884907Y-83144715D01*
X5890248Y-83162967D01*
X5894844Y-83181965D01*
X5898695Y-83201708D01*
X5900848Y-83215284D01*
X5902670Y-83229191D01*
X5904161Y-83243430D01*
X5905320Y-83258000D01*
X5906148Y-83272901D01*
X5906645Y-83288133D01*
X5906811Y-83303697D01*
G37*
G36*
X8339517Y-35047361D02*
G01*
X8362785Y-35049068D01*
X8385379Y-35051913D01*
X8407301Y-35055896D01*
X8428549Y-35061017D01*
X8449124Y-35067276D01*
X8469026Y-35074673D01*
X8488255Y-35083208D01*
X8506811Y-35092881D01*
X8524693Y-35103692D01*
X8541902Y-35115642D01*
X8558438Y-35128729D01*
X8574301Y-35142954D01*
X8589491Y-35158317D01*
X8604007Y-35174819D01*
X8617850Y-35192458D01*
X8630976Y-35211066D01*
X8643255Y-35230558D01*
X8654688Y-35250934D01*
X8665273Y-35272194D01*
X8675012Y-35294339D01*
X8683904Y-35317368D01*
X8691949Y-35341281D01*
X8699147Y-35366078D01*
X8705498Y-35391760D01*
X8711002Y-35418325D01*
X8713437Y-35431940D01*
X8715660Y-35445775D01*
X8717671Y-35459832D01*
X8719471Y-35474110D01*
X8721058Y-35488608D01*
X8722435Y-35503328D01*
X8723599Y-35518269D01*
X8724552Y-35533431D01*
X8725293Y-35548814D01*
X8725822Y-35564418D01*
X8726139Y-35580243D01*
X8726245Y-35596289D01*
X8726098Y-35612402D01*
X8725658Y-35628341D01*
X8724923Y-35644106D01*
X8723895Y-35659698D01*
X8722572Y-35675116D01*
X8720956Y-35690360D01*
X8719046Y-35705431D01*
X8716842Y-35720328D01*
X8714344Y-35735051D01*
X8711553Y-35749601D01*
X8708467Y-35763977D01*
X8705088Y-35778180D01*
X8701415Y-35792209D01*
X8697448Y-35806064D01*
X8693187Y-35819746D01*
X8688632Y-35833254D01*
X8683851Y-35846546D01*
X8678828Y-35859583D01*
X8673561Y-35872363D01*
X8668051Y-35884886D01*
X8659331Y-35903191D01*
X8650064Y-35920918D01*
X8640249Y-35938069D01*
X8629888Y-35954642D01*
X8618979Y-35970639D01*
X8607524Y-35986058D01*
X8595522Y-36000900D01*
X8582973Y-36015166D01*
X8570849Y-36028094D01*
X8558329Y-36040462D01*
X8545412Y-36052272D01*
X8532098Y-36063523D01*
X8518388Y-36074215D01*
X8504281Y-36084348D01*
X8489777Y-36093922D01*
X8474877Y-36102937D01*
X8459580Y-36111393D01*
X8443886Y-36119290D01*
X8433203Y-36124244D01*
X8417020Y-36131150D01*
X8400657Y-36137376D01*
X8384114Y-36142923D01*
X8367390Y-36147790D01*
X8350486Y-36151979D01*
X8333402Y-36155488D01*
X8316137Y-36158318D01*
X8298692Y-36160469D01*
X8281067Y-36161940D01*
X8263261Y-36162733D01*
X8251291Y-36162884D01*
X8235721Y-36162724D01*
X8220428Y-36162247D01*
X8205411Y-36161450D01*
X8190671Y-36160335D01*
X8176208Y-36158902D01*
X8162020Y-36157149D01*
X8148110Y-36155079D01*
X8134475Y-36152690D01*
X8116727Y-36149008D01*
X8099469Y-36144761D01*
X8082506Y-36139915D01*
X8065468Y-36134439D01*
X8048355Y-36128332D01*
X8035471Y-36123338D01*
X8022545Y-36117989D01*
X8009577Y-36112286D01*
X7996567Y-36106228D01*
X7983515Y-36099816D01*
X7970420Y-36093049D01*
X7961668Y-36088341D01*
X7961668Y-36534914D01*
X7780781Y-36534914D01*
X7780781Y-35950197D01*
X7961668Y-35950197D01*
X7975901Y-35956480D01*
X7989749Y-35962379D01*
X8003213Y-35967892D01*
X8016292Y-35973021D01*
X8033133Y-35979262D01*
X8049290Y-35984818D01*
X8064762Y-35989691D01*
X8079551Y-35993880D01*
X8093656Y-35997385D01*
X8107740Y-36000270D01*
X8122294Y-36002770D01*
X8137318Y-36004886D01*
X8152812Y-36006617D01*
X8168776Y-36007963D01*
X8185211Y-36008925D01*
X8202115Y-36009502D01*
X8219490Y-36009695D01*
X8238081Y-36009298D01*
X8256153Y-36008108D01*
X8273706Y-36006124D01*
X8290742Y-36003347D01*
X8307259Y-35999777D01*
X8323258Y-35995413D01*
X8338739Y-35990256D01*
X8353702Y-35984306D01*
X8368146Y-35977562D01*
X8382072Y-35970024D01*
X8395480Y-35961693D01*
X8408369Y-35952569D01*
X8420741Y-35942652D01*
X8432594Y-35931941D01*
X8443928Y-35920436D01*
X8454745Y-35908138D01*
X8465014Y-35895062D01*
X8474620Y-35881221D01*
X8483564Y-35866617D01*
X8491845Y-35851248D01*
X8499464Y-35835115D01*
X8506421Y-35818219D01*
X8512715Y-35800558D01*
X8518346Y-35782133D01*
X8523315Y-35762945D01*
X8527621Y-35742992D01*
X8531265Y-35722275D01*
X8534246Y-35700795D01*
X8536565Y-35678550D01*
X8538221Y-35655541D01*
X8539215Y-35631768D01*
X8539546Y-35607231D01*
X8539287Y-35583421D01*
X8538510Y-35560375D01*
X8537214Y-35538093D01*
X8535400Y-35516574D01*
X8533068Y-35495820D01*
X8530218Y-35475830D01*
X8526849Y-35456604D01*
X8522962Y-35438142D01*
X8518557Y-35420444D01*
X8513633Y-35403510D01*
X8508192Y-35387340D01*
X8502232Y-35371934D01*
X8495754Y-35357292D01*
X8488757Y-35343414D01*
X8481243Y-35330300D01*
X8473210Y-35317950D01*
X8464640Y-35306315D01*
X8455514Y-35295430D01*
X8445833Y-35285296D01*
X8435596Y-35275913D01*
X8424804Y-35267280D01*
X8413456Y-35259398D01*
X8401552Y-35252267D01*
X8389093Y-35245886D01*
X8376077Y-35240256D01*
X8362507Y-35235377D01*
X8348380Y-35231248D01*
X8333698Y-35227870D01*
X8318461Y-35225243D01*
X8302667Y-35223366D01*
X8286318Y-35222240D01*
X8269414Y-35221865D01*
X8254787Y-35222159D01*
X8240142Y-35223043D01*
X8225479Y-35224516D01*
X8210798Y-35226577D01*
X8196098Y-35229228D01*
X8181381Y-35232468D01*
X8166646Y-35236296D01*
X8151893Y-35240714D01*
X8137122Y-35245721D01*
X8122333Y-35251317D01*
X8112463Y-35255375D01*
X8097774Y-35261844D01*
X8083199Y-35268687D01*
X8068739Y-35275901D01*
X8054392Y-35283489D01*
X8040160Y-35291449D01*
X8026042Y-35299782D01*
X8012038Y-35308487D01*
X7998148Y-35317565D01*
X7984373Y-35327016D01*
X7970712Y-35336839D01*
X7961668Y-35343595D01*
X7961668Y-35950197D01*
X7780781Y-35950197D01*
X7780781Y-35068676D01*
X7961668Y-35068676D01*
X7961668Y-35188013D01*
X7975352Y-35176903D01*
X7989349Y-35166142D01*
X8003658Y-35155729D01*
X8018280Y-35145666D01*
X8033214Y-35135950D01*
X8048462Y-35126584D01*
X8064021Y-35117566D01*
X8079893Y-35108896D01*
X8096078Y-35100576D01*
X8112575Y-35092603D01*
X8123747Y-35087482D01*
X8140714Y-35080211D01*
X8157892Y-35073654D01*
X8175280Y-35067813D01*
X8192878Y-35062686D01*
X8210686Y-35058276D01*
X8228705Y-35054580D01*
X8246935Y-35051600D01*
X8265374Y-35049335D01*
X8284024Y-35047785D01*
X8302885Y-35046950D01*
X8315575Y-35046792D01*
X8339517Y-35047361D01*
G37*
G36*
X9435105Y-35046938D02*
G01*
X9448964Y-35047378D01*
X9462644Y-35048111D01*
X9489470Y-35050456D01*
X9515583Y-35053975D01*
X9540983Y-35058666D01*
X9565670Y-35064529D01*
X9589643Y-35071566D01*
X9612903Y-35079775D01*
X9635449Y-35089157D01*
X9657283Y-35099712D01*
X9678403Y-35111439D01*
X9698810Y-35124339D01*
X9718503Y-35138412D01*
X9737484Y-35153658D01*
X9755751Y-35170077D01*
X9773305Y-35187668D01*
X9781814Y-35196903D01*
X9798128Y-35216089D01*
X9813390Y-35236119D01*
X9827599Y-35256994D01*
X9840756Y-35278712D01*
X9852860Y-35301275D01*
X9863912Y-35324682D01*
X9873911Y-35348933D01*
X9882857Y-35374028D01*
X9890751Y-35399967D01*
X9894304Y-35413254D01*
X9897593Y-35426751D01*
X9900619Y-35440459D01*
X9903382Y-35454379D01*
X9905882Y-35468509D01*
X9908118Y-35482851D01*
X9910092Y-35497403D01*
X9911802Y-35512167D01*
X9913249Y-35527141D01*
X9914433Y-35542327D01*
X9915354Y-35557723D01*
X9916012Y-35573331D01*
X9916407Y-35589150D01*
X9916538Y-35605180D01*
X9916407Y-35621230D01*
X9916012Y-35637068D01*
X9915354Y-35652694D01*
X9914433Y-35668107D01*
X9913249Y-35683308D01*
X9911802Y-35698297D01*
X9910092Y-35713073D01*
X9908118Y-35727637D01*
X9905882Y-35741988D01*
X9903382Y-35756127D01*
X9900619Y-35770054D01*
X9897593Y-35783768D01*
X9894304Y-35797270D01*
X9890751Y-35810560D01*
X9882857Y-35836502D01*
X9873911Y-35861594D01*
X9863912Y-35885837D01*
X9852860Y-35909231D01*
X9840756Y-35931775D01*
X9827599Y-35953469D01*
X9813390Y-35974314D01*
X9798128Y-35994310D01*
X9781814Y-36013456D01*
X9764617Y-36031551D01*
X9746706Y-36048478D01*
X9728083Y-36064238D01*
X9708746Y-36078831D01*
X9688696Y-36092256D01*
X9667932Y-36104513D01*
X9646455Y-36115604D01*
X9624265Y-36125527D01*
X9601362Y-36134282D01*
X9577745Y-36141870D01*
X9553416Y-36148291D01*
X9528372Y-36153544D01*
X9502616Y-36157630D01*
X9476146Y-36160549D01*
X9448964Y-36162300D01*
X9435105Y-36162738D01*
X9421067Y-36162884D01*
X9406925Y-36162738D01*
X9392966Y-36162300D01*
X9379188Y-36161570D01*
X9352180Y-36159236D01*
X9325902Y-36155733D01*
X9300352Y-36151064D01*
X9275532Y-36145227D01*
X9251441Y-36138222D01*
X9228080Y-36130050D01*
X9205448Y-36120711D01*
X9183545Y-36110205D01*
X9162371Y-36098530D01*
X9141927Y-36085689D01*
X9122212Y-36071680D01*
X9103227Y-36056504D01*
X9084970Y-36040160D01*
X9067443Y-36022649D01*
X9058953Y-36013456D01*
X9042721Y-35994310D01*
X9027537Y-35974314D01*
X9013400Y-35953469D01*
X9000310Y-35931775D01*
X8988268Y-35909231D01*
X8977272Y-35885837D01*
X8967324Y-35861594D01*
X8958423Y-35836502D01*
X8950569Y-35810560D01*
X8947034Y-35797270D01*
X8943762Y-35783768D01*
X8940751Y-35770054D01*
X8938002Y-35756127D01*
X8935515Y-35741988D01*
X8933290Y-35727637D01*
X8931327Y-35713073D01*
X8929625Y-35698297D01*
X8928185Y-35683308D01*
X8927007Y-35668107D01*
X8926091Y-35652694D01*
X8925436Y-35637068D01*
X8925043Y-35621230D01*
X8924912Y-35605180D01*
X9111612Y-35605180D01*
X9111931Y-35629680D01*
X9112889Y-35653430D01*
X9114485Y-35676430D01*
X9116719Y-35698679D01*
X9119593Y-35720177D01*
X9123104Y-35740924D01*
X9127254Y-35760921D01*
X9132043Y-35780167D01*
X9137470Y-35798663D01*
X9143535Y-35816408D01*
X9150239Y-35833402D01*
X9157581Y-35849645D01*
X9165562Y-35865138D01*
X9174181Y-35879880D01*
X9183439Y-35893872D01*
X9193335Y-35907113D01*
X9203802Y-35919535D01*
X9214771Y-35931155D01*
X9226242Y-35941974D01*
X9238215Y-35951992D01*
X9250690Y-35961209D01*
X9263668Y-35969623D01*
X9277148Y-35977237D01*
X9291130Y-35984049D01*
X9305615Y-35990060D01*
X9320601Y-35995269D01*
X9336090Y-35999677D01*
X9352081Y-36003283D01*
X9368574Y-36006088D01*
X9385570Y-36008092D01*
X9403067Y-36009294D01*
X9421067Y-36009695D01*
X9438862Y-36009298D01*
X9456170Y-36008108D01*
X9472992Y-36006124D01*
X9489327Y-36003347D01*
X9505177Y-35999777D01*
X9520540Y-35995413D01*
X9535417Y-35990256D01*
X9549808Y-35984306D01*
X9563712Y-35977562D01*
X9577131Y-35970024D01*
X9590063Y-35961693D01*
X9602509Y-35952569D01*
X9614469Y-35942652D01*
X9625943Y-35931941D01*
X9636930Y-35920436D01*
X9647432Y-35908138D01*
X9657411Y-35895014D01*
X9666746Y-35881114D01*
X9675437Y-35866440D01*
X9683485Y-35850992D01*
X9690889Y-35834768D01*
X9697649Y-35817770D01*
X9703765Y-35799997D01*
X9709237Y-35781450D01*
X9714066Y-35762127D01*
X9718251Y-35742030D01*
X9721792Y-35721159D01*
X9724689Y-35699512D01*
X9726942Y-35677091D01*
X9728552Y-35653895D01*
X9729517Y-35629925D01*
X9729839Y-35605180D01*
X9729520Y-35579904D01*
X9728562Y-35555454D01*
X9726966Y-35531829D01*
X9724731Y-35509030D01*
X9721858Y-35487057D01*
X9718347Y-35465908D01*
X9714197Y-35445586D01*
X9709408Y-35426088D01*
X9703981Y-35407417D01*
X9697916Y-35389570D01*
X9691212Y-35372549D01*
X9683870Y-35356354D01*
X9675889Y-35340984D01*
X9667270Y-35326440D01*
X9658012Y-35312721D01*
X9648116Y-35299827D01*
X9637652Y-35287736D01*
X9626691Y-35276426D01*
X9615233Y-35265895D01*
X9603279Y-35256144D01*
X9590827Y-35247174D01*
X9577879Y-35238983D01*
X9564434Y-35231573D01*
X9550492Y-35224942D01*
X9536053Y-35219092D01*
X9521117Y-35214022D01*
X9505684Y-35209731D01*
X9489755Y-35206221D01*
X9473328Y-35203491D01*
X9456405Y-35201541D01*
X9438985Y-35200371D01*
X9421067Y-35199981D01*
X9402945Y-35200371D01*
X9385335Y-35201541D01*
X9368238Y-35203491D01*
X9351654Y-35206221D01*
X9335582Y-35209731D01*
X9320024Y-35214022D01*
X9304979Y-35219092D01*
X9290446Y-35224942D01*
X9276427Y-35231573D01*
X9262920Y-35238983D01*
X9249926Y-35247174D01*
X9237446Y-35256144D01*
X9225478Y-35265895D01*
X9214023Y-35276426D01*
X9203081Y-35287736D01*
X9192651Y-35299827D01*
X9182838Y-35312721D01*
X9173658Y-35326440D01*
X9165111Y-35340984D01*
X9157197Y-35356354D01*
X9149916Y-35372549D01*
X9143268Y-35389570D01*
X9137253Y-35407417D01*
X9131872Y-35426088D01*
X9127123Y-35445586D01*
X9123008Y-35465908D01*
X9119526Y-35487057D01*
X9116677Y-35509030D01*
X9114461Y-35531829D01*
X9112878Y-35555454D01*
X9111928Y-35579904D01*
X9111612Y-35605180D01*
X8924912Y-35605180D01*
X8925043Y-35589150D01*
X8925436Y-35573331D01*
X8926091Y-35557723D01*
X8927007Y-35542327D01*
X8928185Y-35527141D01*
X8929625Y-35512167D01*
X8931327Y-35497403D01*
X8933290Y-35482851D01*
X8935515Y-35468509D01*
X8938002Y-35454379D01*
X8940751Y-35440459D01*
X8943762Y-35426751D01*
X8947034Y-35413254D01*
X8950569Y-35399967D01*
X8958423Y-35374028D01*
X8967324Y-35348933D01*
X8977272Y-35324682D01*
X8988268Y-35301275D01*
X9000310Y-35278712D01*
X9013400Y-35256994D01*
X9027537Y-35236119D01*
X9042721Y-35216089D01*
X9058953Y-35196903D01*
X9076115Y-35178726D01*
X9094007Y-35161721D01*
X9112628Y-35145889D01*
X9131979Y-35131229D01*
X9152058Y-35117743D01*
X9172867Y-35105429D01*
X9194405Y-35094288D01*
X9216673Y-35084319D01*
X9239670Y-35075524D01*
X9263396Y-35067901D01*
X9287851Y-35061451D01*
X9313036Y-35056174D01*
X9338950Y-35052069D01*
X9365593Y-35049137D01*
X9392966Y-35047378D01*
X9406925Y-35046938D01*
X9421067Y-35046792D01*
X9435105Y-35046938D01*
G37*
G36*
X10747453Y-36131425D02*
G01*
X10731306Y-36135583D01*
X10714708Y-36139506D01*
X10701105Y-36142477D01*
X10687214Y-36145298D01*
X10673034Y-36147969D01*
X10658566Y-36150491D01*
X10643809Y-36152863D01*
X10636322Y-36153993D01*
X10621485Y-36156077D01*
X10607065Y-36157883D01*
X10593061Y-36159411D01*
X10576143Y-36160930D01*
X10559876Y-36162015D01*
X10544260Y-36162667D01*
X10529295Y-36162884D01*
X10509043Y-36162539D01*
X10489405Y-36161505D01*
X10470382Y-36159782D01*
X10451974Y-36157370D01*
X10434179Y-36154268D01*
X10417000Y-36150478D01*
X10400434Y-36145998D01*
X10384483Y-36140829D01*
X10369147Y-36134970D01*
X10354425Y-36128423D01*
X10340317Y-36121186D01*
X10326824Y-36113260D01*
X10313945Y-36104644D01*
X10301680Y-36095340D01*
X10290030Y-36085346D01*
X10278995Y-36074663D01*
X10268643Y-36063219D01*
X10258959Y-36050941D01*
X10249943Y-36037830D01*
X10241595Y-36023885D01*
X10233915Y-36009107D01*
X10226902Y-35993495D01*
X10220558Y-35977050D01*
X10214881Y-35959771D01*
X10209872Y-35941659D01*
X10205531Y-35922714D01*
X10201858Y-35902934D01*
X10198853Y-35882322D01*
X10196515Y-35860876D01*
X10194846Y-35838596D01*
X10193844Y-35815483D01*
X10193510Y-35791537D01*
X10193510Y-35221865D01*
X10071095Y-35221865D01*
X10071095Y-35068676D01*
X10193510Y-35068676D01*
X10193510Y-34762297D01*
X10374054Y-34762297D01*
X10374054Y-35068676D01*
X10747453Y-35068676D01*
X10747453Y-35221865D01*
X10374054Y-35221865D01*
X10374054Y-35713233D01*
X10374087Y-35728869D01*
X10374186Y-35743851D01*
X10374352Y-35758177D01*
X10374675Y-35776260D01*
X10375116Y-35793178D01*
X10375674Y-35808931D01*
X10376350Y-35823520D01*
X10377360Y-35840118D01*
X10377815Y-35846247D01*
X10379557Y-35860958D01*
X10382217Y-35875386D01*
X10385795Y-35889529D01*
X10390291Y-35903389D01*
X10395706Y-35916964D01*
X10402038Y-35930256D01*
X10404829Y-35935494D01*
X10413332Y-35949250D01*
X10422941Y-35961540D01*
X10433656Y-35972363D01*
X10445477Y-35981720D01*
X10458404Y-35989610D01*
X10462959Y-35991914D01*
X10478294Y-35997956D01*
X10493148Y-36002037D01*
X10509890Y-36005249D01*
X10524641Y-36007194D01*
X10540600Y-36008583D01*
X10557767Y-36009417D01*
X10576141Y-36009695D01*
X10590025Y-36009294D01*
X10604110Y-36008092D01*
X10618396Y-36006088D01*
X10632881Y-36003283D01*
X10647567Y-35999677D01*
X10662454Y-35995269D01*
X10668464Y-35993281D01*
X10682872Y-35988286D01*
X10695960Y-35983558D01*
X10709925Y-35978236D01*
X10723816Y-35972514D01*
X10736527Y-35966615D01*
X10737878Y-35965926D01*
X10747453Y-35965926D01*
X10747453Y-36131425D01*
G37*
G36*
X12513573Y-36141000D02*
G01*
X11738395Y-36141000D01*
X11738395Y-35987810D01*
X12036566Y-35987810D01*
X12036566Y-35046792D01*
X11738395Y-35046792D01*
X11738395Y-34915487D01*
X11753659Y-34915332D01*
X11769191Y-34914867D01*
X11784989Y-34914092D01*
X11801055Y-34913008D01*
X11817388Y-34911613D01*
X11833988Y-34909909D01*
X11850856Y-34907894D01*
X11867990Y-34905570D01*
X11884814Y-34902947D01*
X11900581Y-34900035D01*
X11915290Y-34896835D01*
X11928941Y-34893346D01*
X11944517Y-34888579D01*
X11958440Y-34883362D01*
X11972966Y-34876505D01*
X11986389Y-34868823D01*
X11998878Y-34860524D01*
X12010432Y-34851606D01*
X12021051Y-34842071D01*
X12030735Y-34831918D01*
X12039484Y-34821147D01*
X12042721Y-34816666D01*
X12050201Y-34804623D01*
X12056613Y-34791361D01*
X12061955Y-34776880D01*
X12066230Y-34761181D01*
X12068880Y-34747744D01*
X12070846Y-34733526D01*
X12072128Y-34718529D01*
X12221214Y-34718529D01*
X12221214Y-35987810D01*
X12513573Y-35987810D01*
X12513573Y-36141000D01*
G37*
G36*
X9285660Y-46077739D02*
G01*
X9299977Y-46066394D01*
X9314463Y-46055439D01*
X9329117Y-46044876D01*
X9343939Y-46034703D01*
X9358930Y-46024920D01*
X9374088Y-46015529D01*
X9389416Y-46006528D01*
X9404911Y-45997917D01*
X9420575Y-45989698D01*
X9436407Y-45981869D01*
X9447055Y-45976867D01*
X9463331Y-45969839D01*
X9479974Y-45963503D01*
X9496983Y-45957858D01*
X9514359Y-45952904D01*
X9532101Y-45948642D01*
X9550210Y-45945070D01*
X9568686Y-45942190D01*
X9587528Y-45940001D01*
X9606738Y-45938504D01*
X9626313Y-45937697D01*
X9639567Y-45937544D01*
X9663061Y-45938106D01*
X9685927Y-45939793D01*
X9708165Y-45942605D01*
X9729775Y-45946541D01*
X9750758Y-45951602D01*
X9771113Y-45957787D01*
X9790840Y-45965098D01*
X9809939Y-45973533D01*
X9828410Y-45983092D01*
X9846254Y-45993777D01*
X9863470Y-46005586D01*
X9880058Y-46018519D01*
X9896018Y-46032577D01*
X9911351Y-46047760D01*
X9926056Y-46064068D01*
X9940133Y-46081500D01*
X9953466Y-46099956D01*
X9965938Y-46119333D01*
X9977551Y-46139631D01*
X9988303Y-46160852D01*
X9998196Y-46182994D01*
X10007228Y-46206057D01*
X10015400Y-46230042D01*
X10022711Y-46254949D01*
X10029163Y-46280778D01*
X10034754Y-46307528D01*
X10037227Y-46321249D01*
X10039485Y-46335200D01*
X10041528Y-46349381D01*
X10043356Y-46363793D01*
X10044969Y-46378435D01*
X10046366Y-46393308D01*
X10047549Y-46408411D01*
X10048517Y-46423745D01*
X10049270Y-46439309D01*
X10049807Y-46455103D01*
X10050130Y-46471128D01*
X10050237Y-46487383D01*
X10050089Y-46503863D01*
X10049644Y-46520134D01*
X10048903Y-46536198D01*
X10047865Y-46552052D01*
X10046531Y-46567699D01*
X10044900Y-46583137D01*
X10042972Y-46598367D01*
X10040749Y-46613388D01*
X10038228Y-46628201D01*
X10035411Y-46642805D01*
X10032298Y-46657202D01*
X10028887Y-46671389D01*
X10025181Y-46685369D01*
X10021178Y-46699140D01*
X10016878Y-46712703D01*
X10012282Y-46726057D01*
X10007433Y-46739175D01*
X10002376Y-46752029D01*
X9994400Y-46770813D01*
X9985955Y-46789002D01*
X9977041Y-46806596D01*
X9967659Y-46823596D01*
X9957807Y-46840000D01*
X9947487Y-46855809D01*
X9936698Y-46871023D01*
X9925440Y-46885642D01*
X9913713Y-46899665D01*
X9909700Y-46904208D01*
X9896821Y-46917860D01*
X9883702Y-46930863D01*
X9870342Y-46943217D01*
X9856742Y-46954922D01*
X9842902Y-46965977D01*
X9828821Y-46976384D01*
X9814499Y-46986141D01*
X9799937Y-46995249D01*
X9785135Y-47003708D01*
X9770092Y-47011518D01*
X9759930Y-47016364D01*
X9744463Y-47023025D01*
X9728707Y-47029031D01*
X9712662Y-47034381D01*
X9696329Y-47039076D01*
X9679708Y-47043117D01*
X9662798Y-47046502D01*
X9645599Y-47049232D01*
X9628112Y-47051306D01*
X9610337Y-47052726D01*
X9592273Y-47053490D01*
X9580070Y-47053636D01*
X9563092Y-47053446D01*
X9546522Y-47052878D01*
X9530362Y-47051932D01*
X9514610Y-47050606D01*
X9499267Y-47048902D01*
X9484332Y-47046820D01*
X9469806Y-47044358D01*
X9455689Y-47041518D01*
X9441981Y-47038299D01*
X9428681Y-47034702D01*
X9420042Y-47032093D01*
X9403057Y-47026564D01*
X9386126Y-47020574D01*
X9369248Y-47014126D01*
X9352423Y-47007217D01*
X9339840Y-47001735D01*
X9327287Y-46995993D01*
X9314764Y-46989994D01*
X9302270Y-46983736D01*
X9289807Y-46977219D01*
X9285660Y-46974989D01*
X9274034Y-47031752D01*
X9104773Y-47031752D01*
X9104773Y-46839923D01*
X9285660Y-46839923D01*
X9299893Y-46846090D01*
X9313741Y-46851896D01*
X9327205Y-46857342D01*
X9340284Y-46862427D01*
X9357125Y-46868646D01*
X9373282Y-46874224D01*
X9388754Y-46879161D01*
X9403543Y-46883456D01*
X9417648Y-46887111D01*
X9431732Y-46890236D01*
X9446286Y-46892945D01*
X9461310Y-46895237D01*
X9476804Y-46897113D01*
X9492768Y-46898571D01*
X9509203Y-46899613D01*
X9526107Y-46900238D01*
X9543482Y-46900447D01*
X9561951Y-46900067D01*
X9579915Y-46898929D01*
X9597374Y-46897032D01*
X9614328Y-46894377D01*
X9630777Y-46890963D01*
X9646721Y-46886790D01*
X9662161Y-46881859D01*
X9677095Y-46876169D01*
X9691525Y-46869720D01*
X9705450Y-46862513D01*
X9718869Y-46854546D01*
X9731784Y-46845822D01*
X9744194Y-46836338D01*
X9756100Y-46826096D01*
X9767500Y-46815095D01*
X9778395Y-46803336D01*
X9788705Y-46790764D01*
X9798350Y-46777327D01*
X9807330Y-46763024D01*
X9815645Y-46747856D01*
X9823295Y-46731822D01*
X9830279Y-46714923D01*
X9836598Y-46697158D01*
X9842252Y-46678527D01*
X9847241Y-46659032D01*
X9851565Y-46638670D01*
X9855223Y-46617443D01*
X9858217Y-46595351D01*
X9860545Y-46572393D01*
X9862208Y-46548569D01*
X9863206Y-46523880D01*
X9863538Y-46498325D01*
X9863290Y-46475002D01*
X9862544Y-46452393D01*
X9861302Y-46430497D01*
X9859563Y-46409314D01*
X9857327Y-46388844D01*
X9854594Y-46369088D01*
X9851365Y-46350045D01*
X9847638Y-46331715D01*
X9843414Y-46314098D01*
X9838694Y-46297195D01*
X9833477Y-46281005D01*
X9827763Y-46265528D01*
X9821552Y-46250765D01*
X9814844Y-46236714D01*
X9807639Y-46223377D01*
X9799937Y-46210754D01*
X9791724Y-46198870D01*
X9782899Y-46187753D01*
X9773462Y-46177402D01*
X9763414Y-46167819D01*
X9752754Y-46159002D01*
X9741482Y-46150951D01*
X9729598Y-46143668D01*
X9717102Y-46137151D01*
X9703995Y-46131401D01*
X9690276Y-46126417D01*
X9675945Y-46122200D01*
X9661003Y-46118750D01*
X9645449Y-46116067D01*
X9629283Y-46114150D01*
X9612505Y-46113000D01*
X9595115Y-46112617D01*
X9580348Y-46112914D01*
X9565539Y-46113807D01*
X9550687Y-46115295D01*
X9535794Y-46117377D01*
X9520858Y-46120055D01*
X9505881Y-46123328D01*
X9490861Y-46127196D01*
X9475800Y-46131659D01*
X9460696Y-46136717D01*
X9445550Y-46142370D01*
X9435429Y-46146469D01*
X9420401Y-46152923D01*
X9405576Y-46159720D01*
X9390956Y-46166860D01*
X9376541Y-46174342D01*
X9362330Y-46182167D01*
X9348323Y-46190335D01*
X9334520Y-46198845D01*
X9320922Y-46207698D01*
X9307528Y-46216893D01*
X9294339Y-46226431D01*
X9285660Y-46232980D01*
X9285660Y-46839923D01*
X9104773Y-46839923D01*
X9104773Y-45543629D01*
X9285660Y-45543629D01*
X9285660Y-46077739D01*
G37*
G36*
X11189581Y-47031752D02*
G01*
X10414403Y-47031752D01*
X10414403Y-46878562D01*
X10712575Y-46878562D01*
X10712575Y-45937544D01*
X10414403Y-45937544D01*
X10414403Y-45806239D01*
X10429668Y-45806084D01*
X10445199Y-45805619D01*
X10460998Y-45804844D01*
X10477064Y-45803760D01*
X10493397Y-45802365D01*
X10509997Y-45800661D01*
X10526864Y-45798646D01*
X10543999Y-45796322D01*
X10560823Y-45793699D01*
X10576590Y-45790787D01*
X10591299Y-45787587D01*
X10604949Y-45784098D01*
X10620525Y-45779331D01*
X10634448Y-45774114D01*
X10648974Y-45767257D01*
X10662398Y-45759575D01*
X10674887Y-45751276D01*
X10686441Y-45742358D01*
X10697060Y-45732823D01*
X10706743Y-45722670D01*
X10715492Y-45711899D01*
X10718730Y-45707418D01*
X10726210Y-45695375D01*
X10732621Y-45682113D01*
X10737964Y-45667632D01*
X10742238Y-45651933D01*
X10744888Y-45638496D01*
X10746855Y-45624278D01*
X10748137Y-45609281D01*
X10897223Y-45609281D01*
X10897223Y-46878562D01*
X11189581Y-46878562D01*
X11189581Y-47031752D01*
G37*
G36*
X4632401Y-64125487D02*
G01*
X4428604Y-64125487D01*
X4428604Y-63928529D01*
X4632401Y-63928529D01*
X4632401Y-64125487D01*
G37*
G36*
X4620775Y-65367755D02*
G01*
X4620399Y-65390734D01*
X4619273Y-65412997D01*
X4617397Y-65434545D01*
X4614769Y-65455377D01*
X4611391Y-65475492D01*
X4607263Y-65494892D01*
X4602383Y-65513576D01*
X4596753Y-65531544D01*
X4590373Y-65548796D01*
X4583241Y-65565332D01*
X4575359Y-65581152D01*
X4566727Y-65596256D01*
X4557343Y-65610644D01*
X4547209Y-65624316D01*
X4536325Y-65637273D01*
X4524689Y-65649513D01*
X4512422Y-65661066D01*
X4499642Y-65671873D01*
X4486349Y-65681935D01*
X4472544Y-65691251D01*
X4458225Y-65699822D01*
X4443393Y-65707648D01*
X4428049Y-65714729D01*
X4412191Y-65721064D01*
X4395821Y-65726654D01*
X4378938Y-65731499D01*
X4361541Y-65735598D01*
X4343632Y-65738952D01*
X4325210Y-65741560D01*
X4306275Y-65743424D01*
X4286827Y-65744542D01*
X4266867Y-65744914D01*
X4251640Y-65744638D01*
X4237628Y-65743985D01*
X4222414Y-65742948D01*
X4205999Y-65741527D01*
X4192001Y-65740114D01*
X4177233Y-65738455D01*
X4165652Y-65737050D01*
X4150244Y-65735110D01*
X4135476Y-65733053D01*
X4121350Y-65730879D01*
X4107865Y-65728587D01*
X4091910Y-65725556D01*
X4076956Y-65722342D01*
X4063005Y-65718945D01*
X4060335Y-65718243D01*
X4060335Y-65547957D01*
X4069909Y-65547957D01*
X4082611Y-65553506D01*
X4097080Y-65559383D01*
X4110889Y-65564680D01*
X4125995Y-65570218D01*
X4139576Y-65575016D01*
X4142401Y-65575996D01*
X4156661Y-65580527D01*
X4170804Y-65584291D01*
X4184831Y-65587286D01*
X4198740Y-65589513D01*
X4212533Y-65590973D01*
X4226209Y-65591664D01*
X4231647Y-65591725D01*
X4248498Y-65591426D01*
X4264516Y-65590528D01*
X4279700Y-65589032D01*
X4294051Y-65586938D01*
X4307568Y-65584245D01*
X4323293Y-65580038D01*
X4337715Y-65574895D01*
X4343119Y-65572577D01*
X4355852Y-65566125D01*
X4367549Y-65558739D01*
X4380220Y-65548641D01*
X4391400Y-65537197D01*
X4401089Y-65524406D01*
X4406720Y-65515131D01*
X4412879Y-65502877D01*
X4418321Y-65489839D01*
X4423044Y-65476016D01*
X4427050Y-65461409D01*
X4430337Y-65446016D01*
X4432907Y-65429839D01*
X4433733Y-65423149D01*
X4435256Y-65409279D01*
X4436576Y-65394682D01*
X4437692Y-65379359D01*
X4438606Y-65363309D01*
X4439317Y-65346533D01*
X4439824Y-65329030D01*
X4440129Y-65310800D01*
X4440224Y-65296651D01*
X4440230Y-65291844D01*
X4440230Y-64431865D01*
X4215918Y-64431865D01*
X4215918Y-64278676D01*
X4620775Y-64278676D01*
X4620775Y-65367755D01*
G37*
G36*
X5836713Y-65351000D02*
G01*
X5061535Y-65351000D01*
X5061535Y-65197810D01*
X5359707Y-65197810D01*
X5359707Y-64256792D01*
X5061535Y-64256792D01*
X5061535Y-64125487D01*
X5076800Y-64125332D01*
X5092331Y-64124867D01*
X5108130Y-64124092D01*
X5124196Y-64123008D01*
X5140529Y-64121613D01*
X5157129Y-64119909D01*
X5173996Y-64117894D01*
X5191130Y-64115570D01*
X5207955Y-64112947D01*
X5223722Y-64110035D01*
X5238430Y-64106835D01*
X5252081Y-64103346D01*
X5267657Y-64098579D01*
X5281580Y-64093362D01*
X5296106Y-64086505D01*
X5309530Y-64078823D01*
X5322019Y-64070524D01*
X5333573Y-64061606D01*
X5344191Y-64052071D01*
X5353875Y-64041918D01*
X5362624Y-64031147D01*
X5365862Y-64026666D01*
X5373342Y-64014623D01*
X5379753Y-64001361D01*
X5385096Y-63986880D01*
X5389370Y-63971181D01*
X5392020Y-63957744D01*
X5393986Y-63943526D01*
X5395269Y-63928529D01*
X5544354Y-63928529D01*
X5544354Y-65197810D01*
X5836713Y-65197810D01*
X5836713Y-65351000D01*
G37*
G36*
X24329386Y-100955487D02*
G01*
X24125589Y-100955487D01*
X24125589Y-100758529D01*
X24329386Y-100758529D01*
X24329386Y-100955487D01*
G37*
G36*
X24317760Y-102197755D02*
G01*
X24317384Y-102220734D01*
X24316258Y-102242997D01*
X24314382Y-102264545D01*
X24311754Y-102285377D01*
X24308376Y-102305492D01*
X24304248Y-102324892D01*
X24299368Y-102343576D01*
X24293738Y-102361544D01*
X24287358Y-102378796D01*
X24280226Y-102395332D01*
X24272344Y-102411152D01*
X24263712Y-102426256D01*
X24254328Y-102440644D01*
X24244194Y-102454316D01*
X24233310Y-102467273D01*
X24221674Y-102479513D01*
X24209407Y-102491066D01*
X24196627Y-102501873D01*
X24183334Y-102511935D01*
X24169529Y-102521251D01*
X24155210Y-102529822D01*
X24140378Y-102537648D01*
X24125034Y-102544729D01*
X24109176Y-102551064D01*
X24092806Y-102556654D01*
X24075923Y-102561499D01*
X24058526Y-102565598D01*
X24040617Y-102568952D01*
X24022195Y-102571560D01*
X24003260Y-102573424D01*
X23983812Y-102574542D01*
X23963852Y-102574914D01*
X23948625Y-102574638D01*
X23934613Y-102573985D01*
X23919399Y-102572948D01*
X23902984Y-102571527D01*
X23888986Y-102570114D01*
X23874218Y-102568455D01*
X23862637Y-102567050D01*
X23847229Y-102565110D01*
X23832461Y-102563053D01*
X23818335Y-102560879D01*
X23804850Y-102558587D01*
X23788895Y-102555556D01*
X23773941Y-102552342D01*
X23759990Y-102548945D01*
X23757320Y-102548243D01*
X23757320Y-102377957D01*
X23766894Y-102377957D01*
X23779596Y-102383506D01*
X23794065Y-102389383D01*
X23807874Y-102394680D01*
X23822980Y-102400218D01*
X23836561Y-102405016D01*
X23839386Y-102405996D01*
X23853646Y-102410527D01*
X23867789Y-102414291D01*
X23881816Y-102417286D01*
X23895725Y-102419513D01*
X23909518Y-102420973D01*
X23923194Y-102421664D01*
X23928632Y-102421725D01*
X23945483Y-102421426D01*
X23961501Y-102420528D01*
X23976685Y-102419032D01*
X23991036Y-102416938D01*
X24004553Y-102414245D01*
X24020278Y-102410038D01*
X24034700Y-102404895D01*
X24040104Y-102402577D01*
X24052837Y-102396125D01*
X24064534Y-102388739D01*
X24077205Y-102378641D01*
X24088385Y-102367197D01*
X24098074Y-102354406D01*
X24103705Y-102345131D01*
X24109864Y-102332877D01*
X24115306Y-102319839D01*
X24120029Y-102306016D01*
X24124035Y-102291409D01*
X24127322Y-102276016D01*
X24129892Y-102259839D01*
X24130718Y-102253149D01*
X24132241Y-102239279D01*
X24133561Y-102224682D01*
X24134677Y-102209359D01*
X24135591Y-102193309D01*
X24136302Y-102176533D01*
X24136809Y-102159030D01*
X24137114Y-102140800D01*
X24137209Y-102126651D01*
X24137215Y-102121844D01*
X24137215Y-101261865D01*
X23912903Y-101261865D01*
X23912903Y-101108676D01*
X24317760Y-101108676D01*
X24317760Y-102197755D01*
G37*
G36*
X25533698Y-102181000D02*
G01*
X24758520Y-102181000D01*
X24758520Y-102027810D01*
X25056692Y-102027810D01*
X25056692Y-101086792D01*
X24758520Y-101086792D01*
X24758520Y-100955487D01*
X24773785Y-100955332D01*
X24789316Y-100954867D01*
X24805115Y-100954092D01*
X24821181Y-100953008D01*
X24837514Y-100951613D01*
X24854114Y-100949909D01*
X24870981Y-100947894D01*
X24888115Y-100945570D01*
X24904940Y-100942947D01*
X24920707Y-100940035D01*
X24935415Y-100936835D01*
X24949066Y-100933346D01*
X24964642Y-100928579D01*
X24978565Y-100923362D01*
X24993091Y-100916505D01*
X25006515Y-100908823D01*
X25019004Y-100900524D01*
X25030558Y-100891606D01*
X25041176Y-100882071D01*
X25050860Y-100871918D01*
X25059609Y-100861147D01*
X25062847Y-100856666D01*
X25070327Y-100844623D01*
X25076738Y-100831361D01*
X25082081Y-100816880D01*
X25086355Y-100801181D01*
X25089005Y-100787744D01*
X25090971Y-100773526D01*
X25092254Y-100758529D01*
X25241339Y-100758529D01*
X25241339Y-102027810D01*
X25533698Y-102027810D01*
X25533698Y-102181000D01*
G37*
G36*
X26779727Y-102181000D02*
G01*
X26004550Y-102181000D01*
X26004550Y-102027810D01*
X26302721Y-102027810D01*
X26302721Y-101086792D01*
X26004550Y-101086792D01*
X26004550Y-100955487D01*
X26019814Y-100955332D01*
X26035346Y-100954867D01*
X26051144Y-100954092D01*
X26067210Y-100953008D01*
X26083543Y-100951613D01*
X26100143Y-100949909D01*
X26117010Y-100947894D01*
X26134145Y-100945570D01*
X26150969Y-100942947D01*
X26166736Y-100940035D01*
X26181445Y-100936835D01*
X26195096Y-100933346D01*
X26210672Y-100928579D01*
X26224595Y-100923362D01*
X26239120Y-100916505D01*
X26252544Y-100908823D01*
X26265033Y-100900524D01*
X26276587Y-100891606D01*
X26287206Y-100882071D01*
X26296890Y-100871918D01*
X26305638Y-100861147D01*
X26308876Y-100856666D01*
X26316356Y-100844623D01*
X26322767Y-100831361D01*
X26328110Y-100816880D01*
X26332384Y-100801181D01*
X26335035Y-100787744D01*
X26337001Y-100773526D01*
X26338283Y-100758529D01*
X26487369Y-100758529D01*
X26487369Y-102027810D01*
X26779727Y-102027810D01*
X26779727Y-102181000D01*
G37*
G36*
X34489386Y-100955487D02*
G01*
X34285589Y-100955487D01*
X34285589Y-100758529D01*
X34489386Y-100758529D01*
X34489386Y-100955487D01*
G37*
G36*
X34477760Y-102197755D02*
G01*
X34477384Y-102220734D01*
X34476258Y-102242997D01*
X34474382Y-102264545D01*
X34471754Y-102285377D01*
X34468376Y-102305492D01*
X34464248Y-102324892D01*
X34459368Y-102343576D01*
X34453738Y-102361544D01*
X34447358Y-102378796D01*
X34440226Y-102395332D01*
X34432344Y-102411152D01*
X34423712Y-102426256D01*
X34414328Y-102440644D01*
X34404194Y-102454316D01*
X34393310Y-102467273D01*
X34381674Y-102479513D01*
X34369407Y-102491066D01*
X34356627Y-102501873D01*
X34343334Y-102511935D01*
X34329529Y-102521251D01*
X34315210Y-102529822D01*
X34300378Y-102537648D01*
X34285034Y-102544729D01*
X34269176Y-102551064D01*
X34252806Y-102556654D01*
X34235923Y-102561499D01*
X34218526Y-102565598D01*
X34200617Y-102568952D01*
X34182195Y-102571560D01*
X34163260Y-102573424D01*
X34143812Y-102574542D01*
X34123852Y-102574914D01*
X34108625Y-102574638D01*
X34094613Y-102573985D01*
X34079399Y-102572948D01*
X34062984Y-102571527D01*
X34048986Y-102570114D01*
X34034218Y-102568455D01*
X34022637Y-102567050D01*
X34007229Y-102565110D01*
X33992461Y-102563053D01*
X33978335Y-102560879D01*
X33964850Y-102558587D01*
X33948895Y-102555556D01*
X33933941Y-102552342D01*
X33919990Y-102548945D01*
X33917320Y-102548243D01*
X33917320Y-102377957D01*
X33926894Y-102377957D01*
X33939596Y-102383506D01*
X33954065Y-102389383D01*
X33967874Y-102394680D01*
X33982980Y-102400218D01*
X33996561Y-102405016D01*
X33999386Y-102405996D01*
X34013646Y-102410527D01*
X34027789Y-102414291D01*
X34041816Y-102417286D01*
X34055725Y-102419513D01*
X34069518Y-102420973D01*
X34083194Y-102421664D01*
X34088632Y-102421725D01*
X34105483Y-102421426D01*
X34121501Y-102420528D01*
X34136685Y-102419032D01*
X34151036Y-102416938D01*
X34164553Y-102414245D01*
X34180278Y-102410038D01*
X34194700Y-102404895D01*
X34200104Y-102402577D01*
X34212837Y-102396125D01*
X34224534Y-102388739D01*
X34237205Y-102378641D01*
X34248385Y-102367197D01*
X34258074Y-102354406D01*
X34263705Y-102345131D01*
X34269864Y-102332877D01*
X34275306Y-102319839D01*
X34280029Y-102306016D01*
X34284035Y-102291409D01*
X34287322Y-102276016D01*
X34289892Y-102259839D01*
X34290718Y-102253149D01*
X34292241Y-102239279D01*
X34293561Y-102224682D01*
X34294677Y-102209359D01*
X34295591Y-102193309D01*
X34296302Y-102176533D01*
X34296809Y-102159030D01*
X34297114Y-102140800D01*
X34297209Y-102126651D01*
X34297215Y-102121844D01*
X34297215Y-101261865D01*
X34072903Y-101261865D01*
X34072903Y-101108676D01*
X34477760Y-101108676D01*
X34477760Y-102197755D01*
G37*
G36*
X35693698Y-102181000D02*
G01*
X34918520Y-102181000D01*
X34918520Y-102027810D01*
X35216692Y-102027810D01*
X35216692Y-101086792D01*
X34918520Y-101086792D01*
X34918520Y-100955487D01*
X34933785Y-100955332D01*
X34949316Y-100954867D01*
X34965115Y-100954092D01*
X34981181Y-100953008D01*
X34997514Y-100951613D01*
X35014114Y-100949909D01*
X35030981Y-100947894D01*
X35048115Y-100945570D01*
X35064940Y-100942947D01*
X35080707Y-100940035D01*
X35095415Y-100936835D01*
X35109066Y-100933346D01*
X35124642Y-100928579D01*
X35138565Y-100923362D01*
X35153091Y-100916505D01*
X35166515Y-100908823D01*
X35179004Y-100900524D01*
X35190558Y-100891606D01*
X35201176Y-100882071D01*
X35210860Y-100871918D01*
X35219609Y-100861147D01*
X35222847Y-100856666D01*
X35230327Y-100844623D01*
X35236738Y-100831361D01*
X35242081Y-100816880D01*
X35246355Y-100801181D01*
X35249005Y-100787744D01*
X35250971Y-100773526D01*
X35252254Y-100758529D01*
X35401339Y-100758529D01*
X35401339Y-102027810D01*
X35693698Y-102027810D01*
X35693698Y-102181000D01*
G37*
G36*
X37021451Y-102181000D02*
G01*
X36052051Y-102181000D01*
X36052051Y-101969339D01*
X36064663Y-101958868D01*
X36077280Y-101948400D01*
X36089902Y-101937935D01*
X36102530Y-101927472D01*
X36115163Y-101917012D01*
X36127802Y-101906555D01*
X36140445Y-101896101D01*
X36153095Y-101885649D01*
X36165749Y-101875200D01*
X36178409Y-101864753D01*
X36191074Y-101854309D01*
X36203744Y-101843868D01*
X36216420Y-101833430D01*
X36229101Y-101822994D01*
X36241788Y-101812561D01*
X36254480Y-101802130D01*
X36267120Y-101791662D01*
X36279650Y-101781202D01*
X36292070Y-101770750D01*
X36304382Y-101760306D01*
X36316583Y-101749871D01*
X36328675Y-101739443D01*
X36340658Y-101729023D01*
X36352531Y-101718611D01*
X36364295Y-101708207D01*
X36375949Y-101697812D01*
X36387493Y-101687424D01*
X36398928Y-101677044D01*
X36410253Y-101666672D01*
X36421469Y-101656309D01*
X36432576Y-101645953D01*
X36443573Y-101635605D01*
X36454999Y-101624882D01*
X36466198Y-101614298D01*
X36477169Y-101603853D01*
X36487913Y-101593547D01*
X36498428Y-101583379D01*
X36508716Y-101573351D01*
X36518776Y-101563461D01*
X36528609Y-101553711D01*
X36547590Y-101534626D01*
X36565661Y-101516097D01*
X36582821Y-101498124D01*
X36599070Y-101480706D01*
X36614408Y-101463844D01*
X36628835Y-101447538D01*
X36642351Y-101431788D01*
X36654956Y-101416593D01*
X36666650Y-101401953D01*
X36677433Y-101387870D01*
X36687305Y-101374342D01*
X36696266Y-101361369D01*
X36704548Y-101348568D01*
X36712295Y-101335638D01*
X36719507Y-101322581D01*
X36726186Y-101309394D01*
X36732330Y-101296080D01*
X36737940Y-101282638D01*
X36743016Y-101269067D01*
X36747557Y-101255368D01*
X36751564Y-101241541D01*
X36755037Y-101227585D01*
X36757976Y-101213502D01*
X36760380Y-101199290D01*
X36762250Y-101184950D01*
X36763586Y-101170481D01*
X36764387Y-101155885D01*
X36764654Y-101141160D01*
X36764008Y-101121376D01*
X36762070Y-101102415D01*
X36758839Y-101084278D01*
X36754316Y-101066964D01*
X36748501Y-101050474D01*
X36741393Y-101034807D01*
X36732993Y-101019964D01*
X36723301Y-101005944D01*
X36712316Y-100992748D01*
X36700040Y-100980375D01*
X36691137Y-100972584D01*
X36676839Y-100961706D01*
X36661513Y-100951899D01*
X36645159Y-100943161D01*
X36627777Y-100935494D01*
X36609367Y-100928896D01*
X36589930Y-100923368D01*
X36576400Y-100920277D01*
X36562414Y-100917662D01*
X36547971Y-100915522D01*
X36533071Y-100913858D01*
X36517715Y-100912669D01*
X36501901Y-100911956D01*
X36485631Y-100911718D01*
X36469092Y-100911956D01*
X36452300Y-100912668D01*
X36435256Y-100913855D01*
X36417959Y-100915517D01*
X36400410Y-100917654D01*
X36382608Y-100920265D01*
X36364554Y-100923352D01*
X36346248Y-100926913D01*
X36327689Y-100930949D01*
X36308878Y-100935460D01*
X36296196Y-100938732D01*
X36277133Y-100944046D01*
X36258153Y-100949859D01*
X36239257Y-100956171D01*
X36220446Y-100962983D01*
X36201719Y-100970293D01*
X36183076Y-100978101D01*
X36164517Y-100986409D01*
X36146042Y-100995216D01*
X36133772Y-101001364D01*
X36121540Y-101007734D01*
X36109345Y-101014326D01*
X36097187Y-101021139D01*
X36087613Y-101021139D01*
X36087613Y-100823840D01*
X36100835Y-100817736D01*
X36114857Y-100811734D01*
X36129679Y-100805835D01*
X36145299Y-100800037D01*
X36161720Y-100794342D01*
X36178939Y-100788749D01*
X36196958Y-100783259D01*
X36215776Y-100777870D01*
X36235394Y-100772584D01*
X36248917Y-100769116D01*
X36262795Y-100765694D01*
X36269867Y-100764000D01*
X36284074Y-100760688D01*
X36298227Y-100757589D01*
X36312326Y-100754704D01*
X36326373Y-100752032D01*
X36340365Y-100749575D01*
X36354305Y-100747331D01*
X36368191Y-100745300D01*
X36382023Y-100743484D01*
X36395802Y-100741881D01*
X36409528Y-100740492D01*
X36423200Y-100739316D01*
X36443609Y-100737954D01*
X36463897Y-100737072D01*
X36484064Y-100736672D01*
X36490760Y-100736645D01*
X36517914Y-100737051D01*
X36544322Y-100738269D01*
X36569985Y-100740299D01*
X36594902Y-100743142D01*
X36619075Y-100746796D01*
X36642501Y-100751263D01*
X36665183Y-100756542D01*
X36687119Y-100762632D01*
X36708310Y-100769535D01*
X36728756Y-100777250D01*
X36748456Y-100785778D01*
X36767411Y-100795117D01*
X36785621Y-100805268D01*
X36803085Y-100816232D01*
X36819804Y-100828007D01*
X36835778Y-100840595D01*
X36850933Y-100853877D01*
X36865110Y-100867736D01*
X36878309Y-100882173D01*
X36890531Y-100897186D01*
X36901775Y-100912776D01*
X36912041Y-100928943D01*
X36921330Y-100945688D01*
X36929640Y-100963009D01*
X36936973Y-100980908D01*
X36943329Y-100999383D01*
X36948706Y-101018436D01*
X36953106Y-101038065D01*
X36956528Y-101058272D01*
X36958972Y-101079055D01*
X36960439Y-101100416D01*
X36960928Y-101122353D01*
X36960744Y-101137263D01*
X36960194Y-101151986D01*
X36959278Y-101166523D01*
X36957995Y-101180873D01*
X36956345Y-101195037D01*
X36954328Y-101209015D01*
X36951945Y-101222807D01*
X36949195Y-101236412D01*
X36946078Y-101249830D01*
X36942595Y-101263063D01*
X36940069Y-101271781D01*
X36934630Y-101288937D01*
X36928572Y-101305868D01*
X36921893Y-101322575D01*
X36914595Y-101339058D01*
X36906677Y-101355316D01*
X36898139Y-101371350D01*
X36891329Y-101383228D01*
X36884170Y-101394980D01*
X36879204Y-101402744D01*
X36869598Y-101417330D01*
X36859585Y-101431852D01*
X36849167Y-101446309D01*
X36838342Y-101460703D01*
X36827112Y-101475032D01*
X36818422Y-101485737D01*
X36809504Y-101496406D01*
X36800358Y-101507039D01*
X36790984Y-101517636D01*
X36781367Y-101528323D01*
X36771365Y-101539226D01*
X36760978Y-101550346D01*
X36750207Y-101561682D01*
X36739051Y-101573235D01*
X36727511Y-101585003D01*
X36715586Y-101596989D01*
X36703276Y-101609190D01*
X36690581Y-101621608D01*
X36677502Y-101634243D01*
X36668569Y-101642786D01*
X36655677Y-101655115D01*
X36642731Y-101667395D01*
X36629732Y-101679627D01*
X36616680Y-101691812D01*
X36603574Y-101703948D01*
X36590414Y-101716036D01*
X36577202Y-101728076D01*
X36563935Y-101740068D01*
X36550616Y-101752012D01*
X36537243Y-101763908D01*
X36523816Y-101775755D01*
X36510336Y-101787555D01*
X36496803Y-101799306D01*
X36483216Y-101811010D01*
X36469576Y-101822665D01*
X36455882Y-101834272D01*
X36442219Y-101845802D01*
X36428671Y-101857225D01*
X36415238Y-101868541D01*
X36401920Y-101879750D01*
X36388717Y-101890853D01*
X36375628Y-101901848D01*
X36362654Y-101912737D01*
X36349796Y-101923519D01*
X36337052Y-101934194D01*
X36324423Y-101944762D01*
X36311908Y-101955223D01*
X36299509Y-101965577D01*
X36287225Y-101975825D01*
X36275055Y-101985965D01*
X36263000Y-101995999D01*
X36251060Y-102005926D01*
X37021451Y-102005926D01*
X37021451Y-102181000D01*
G37*
G36*
X14169386Y-100955487D02*
G01*
X13965589Y-100955487D01*
X13965589Y-100758529D01*
X14169386Y-100758529D01*
X14169386Y-100955487D01*
G37*
G36*
X14157760Y-102197755D02*
G01*
X14157384Y-102220734D01*
X14156258Y-102242997D01*
X14154382Y-102264545D01*
X14151754Y-102285377D01*
X14148376Y-102305492D01*
X14144248Y-102324892D01*
X14139368Y-102343576D01*
X14133738Y-102361544D01*
X14127358Y-102378796D01*
X14120226Y-102395332D01*
X14112344Y-102411152D01*
X14103712Y-102426256D01*
X14094328Y-102440644D01*
X14084194Y-102454316D01*
X14073310Y-102467273D01*
X14061674Y-102479513D01*
X14049407Y-102491066D01*
X14036627Y-102501873D01*
X14023334Y-102511935D01*
X14009529Y-102521251D01*
X13995210Y-102529822D01*
X13980378Y-102537648D01*
X13965034Y-102544729D01*
X13949176Y-102551064D01*
X13932806Y-102556654D01*
X13915923Y-102561499D01*
X13898526Y-102565598D01*
X13880617Y-102568952D01*
X13862195Y-102571560D01*
X13843260Y-102573424D01*
X13823812Y-102574542D01*
X13803852Y-102574914D01*
X13788625Y-102574638D01*
X13774613Y-102573985D01*
X13759399Y-102572948D01*
X13742984Y-102571527D01*
X13728986Y-102570114D01*
X13714218Y-102568455D01*
X13702637Y-102567050D01*
X13687229Y-102565110D01*
X13672461Y-102563053D01*
X13658335Y-102560879D01*
X13644850Y-102558587D01*
X13628895Y-102555556D01*
X13613941Y-102552342D01*
X13599990Y-102548945D01*
X13597320Y-102548243D01*
X13597320Y-102377957D01*
X13606894Y-102377957D01*
X13619596Y-102383506D01*
X13634065Y-102389383D01*
X13647874Y-102394680D01*
X13662980Y-102400218D01*
X13676561Y-102405016D01*
X13679386Y-102405996D01*
X13693646Y-102410527D01*
X13707789Y-102414291D01*
X13721816Y-102417286D01*
X13735725Y-102419513D01*
X13749518Y-102420973D01*
X13763194Y-102421664D01*
X13768632Y-102421725D01*
X13785483Y-102421426D01*
X13801501Y-102420528D01*
X13816685Y-102419032D01*
X13831036Y-102416938D01*
X13844553Y-102414245D01*
X13860278Y-102410038D01*
X13874700Y-102404895D01*
X13880104Y-102402577D01*
X13892837Y-102396125D01*
X13904534Y-102388739D01*
X13917205Y-102378641D01*
X13928385Y-102367197D01*
X13938074Y-102354406D01*
X13943705Y-102345131D01*
X13949864Y-102332877D01*
X13955306Y-102319839D01*
X13960029Y-102306016D01*
X13964035Y-102291409D01*
X13967322Y-102276016D01*
X13969892Y-102259839D01*
X13970718Y-102253149D01*
X13972241Y-102239279D01*
X13973561Y-102224682D01*
X13974677Y-102209359D01*
X13975591Y-102193309D01*
X13976302Y-102176533D01*
X13976809Y-102159030D01*
X13977114Y-102140800D01*
X13977209Y-102126651D01*
X13977215Y-102121844D01*
X13977215Y-101261865D01*
X13752903Y-101261865D01*
X13752903Y-101108676D01*
X14157760Y-101108676D01*
X14157760Y-102197755D01*
G37*
G36*
X15373698Y-102181000D02*
G01*
X14598520Y-102181000D01*
X14598520Y-102027810D01*
X14896692Y-102027810D01*
X14896692Y-101086792D01*
X14598520Y-101086792D01*
X14598520Y-100955487D01*
X14613785Y-100955332D01*
X14629316Y-100954867D01*
X14645115Y-100954092D01*
X14661181Y-100953008D01*
X14677514Y-100951613D01*
X14694114Y-100949909D01*
X14710981Y-100947894D01*
X14728115Y-100945570D01*
X14744940Y-100942947D01*
X14760707Y-100940035D01*
X14775415Y-100936835D01*
X14789066Y-100933346D01*
X14804642Y-100928579D01*
X14818565Y-100923362D01*
X14833091Y-100916505D01*
X14846515Y-100908823D01*
X14859004Y-100900524D01*
X14870558Y-100891606D01*
X14881176Y-100882071D01*
X14890860Y-100871918D01*
X14899609Y-100861147D01*
X14902847Y-100856666D01*
X14910327Y-100844623D01*
X14916738Y-100831361D01*
X14922081Y-100816880D01*
X14926355Y-100801181D01*
X14929005Y-100787744D01*
X14930971Y-100773526D01*
X14932254Y-100758529D01*
X15081339Y-100758529D01*
X15081339Y-102027810D01*
X15373698Y-102027810D01*
X15373698Y-102181000D01*
G37*
G36*
X16220227Y-100736823D02*
G01*
X16235913Y-100737357D01*
X16251328Y-100738247D01*
X16266471Y-100739493D01*
X16281344Y-100741095D01*
X16295945Y-100743052D01*
X16310275Y-100745366D01*
X16324334Y-100748036D01*
X16338122Y-100751062D01*
X16351639Y-100754443D01*
X16364884Y-100758181D01*
X16390562Y-100766724D01*
X16415155Y-100776691D01*
X16438663Y-100788082D01*
X16461087Y-100800897D01*
X16482426Y-100815135D01*
X16502680Y-100830798D01*
X16521850Y-100847884D01*
X16539936Y-100866394D01*
X16556937Y-100886328D01*
X16572853Y-100907686D01*
X16580404Y-100918899D01*
X16594814Y-100942365D01*
X16601670Y-100954642D01*
X16608294Y-100967284D01*
X16614685Y-100980288D01*
X16620844Y-100993656D01*
X16626771Y-101007387D01*
X16632465Y-101021481D01*
X16637926Y-101035939D01*
X16643156Y-101050760D01*
X16648153Y-101065944D01*
X16652917Y-101081491D01*
X16657449Y-101097402D01*
X16661749Y-101113677D01*
X16665816Y-101130314D01*
X16669651Y-101147315D01*
X16673253Y-101164679D01*
X16676623Y-101182407D01*
X16679761Y-101200497D01*
X16682666Y-101218951D01*
X16685339Y-101237769D01*
X16687779Y-101256949D01*
X16689987Y-101276493D01*
X16691962Y-101296401D01*
X16693705Y-101316671D01*
X16695216Y-101337305D01*
X16696494Y-101358303D01*
X16697540Y-101379663D01*
X16698354Y-101401387D01*
X16698935Y-101423474D01*
X16699283Y-101445925D01*
X16699399Y-101468739D01*
X16699282Y-101492263D01*
X16698928Y-101515393D01*
X16698339Y-101538129D01*
X16697513Y-101560469D01*
X16696453Y-101582415D01*
X16695156Y-101603966D01*
X16693624Y-101625123D01*
X16691855Y-101645885D01*
X16689852Y-101666252D01*
X16687612Y-101686224D01*
X16685137Y-101705802D01*
X16682425Y-101724985D01*
X16679478Y-101743773D01*
X16676296Y-101762167D01*
X16672877Y-101780166D01*
X16669223Y-101797770D01*
X16665333Y-101814980D01*
X16661208Y-101831795D01*
X16656846Y-101848215D01*
X16652249Y-101864240D01*
X16647416Y-101879871D01*
X16642348Y-101895107D01*
X16637043Y-101909948D01*
X16631503Y-101924395D01*
X16625727Y-101938447D01*
X16619715Y-101952104D01*
X16613468Y-101965367D01*
X16606985Y-101978234D01*
X16600266Y-101990708D01*
X16593311Y-102002786D01*
X16586121Y-102014470D01*
X16578695Y-102025759D01*
X16563087Y-102047207D01*
X16546440Y-102067272D01*
X16528754Y-102085954D01*
X16510029Y-102103251D01*
X16490264Y-102119164D01*
X16469461Y-102133694D01*
X16447618Y-102146840D01*
X16424736Y-102158602D01*
X16400815Y-102168981D01*
X16375855Y-102177975D01*
X16349855Y-102185586D01*
X16336466Y-102188873D01*
X16322817Y-102191813D01*
X16308908Y-102194408D01*
X16294739Y-102196657D01*
X16280310Y-102198559D01*
X16265622Y-102200116D01*
X16250674Y-102201327D01*
X16235466Y-102202192D01*
X16219998Y-102202711D01*
X16204270Y-102202884D01*
X16188292Y-102202708D01*
X16172585Y-102202182D01*
X16157149Y-102201306D01*
X16141984Y-102200079D01*
X16127090Y-102198501D01*
X16112468Y-102196572D01*
X16098116Y-102194293D01*
X16084036Y-102191664D01*
X16070227Y-102188683D01*
X16056689Y-102185353D01*
X16043422Y-102181671D01*
X16017701Y-102173256D01*
X15993066Y-102163439D01*
X15969515Y-102152219D01*
X15947048Y-102139596D01*
X15925666Y-102125571D01*
X15905369Y-102110144D01*
X15886156Y-102093314D01*
X15868028Y-102075082D01*
X15850984Y-102055447D01*
X15835025Y-102034410D01*
X15827453Y-102023365D01*
X15813084Y-102000129D01*
X15806248Y-101987946D01*
X15799643Y-101975387D01*
X15793270Y-101962450D01*
X15787129Y-101949137D01*
X15781220Y-101935448D01*
X15775542Y-101921382D01*
X15770096Y-101906939D01*
X15764882Y-101892119D01*
X15759899Y-101876923D01*
X15755148Y-101861350D01*
X15750629Y-101845400D01*
X15746342Y-101829074D01*
X15742286Y-101812371D01*
X15738463Y-101795291D01*
X15734871Y-101777835D01*
X15731510Y-101760002D01*
X15728382Y-101741792D01*
X15725485Y-101723206D01*
X15722820Y-101704243D01*
X15720387Y-101684903D01*
X15718185Y-101665187D01*
X15716215Y-101645094D01*
X15714477Y-101624624D01*
X15712971Y-101603778D01*
X15711696Y-101582555D01*
X15710653Y-101560955D01*
X15709842Y-101538979D01*
X15709263Y-101516626D01*
X15708915Y-101493896D01*
X15708799Y-101470790D01*
X15904047Y-101470790D01*
X15904088Y-101489151D01*
X15904213Y-101507132D01*
X15904420Y-101524734D01*
X15904710Y-101541956D01*
X15905082Y-101558800D01*
X15905538Y-101575264D01*
X15906076Y-101591348D01*
X15906697Y-101607053D01*
X15907401Y-101622379D01*
X15908188Y-101637326D01*
X15909057Y-101651893D01*
X15910010Y-101666081D01*
X15911045Y-101679889D01*
X15912753Y-101699891D01*
X15914647Y-101719039D01*
X15916845Y-101737515D01*
X15919464Y-101755632D01*
X15922503Y-101773387D01*
X15925963Y-101790782D01*
X15929844Y-101807816D01*
X15934146Y-101824490D01*
X15938868Y-101840803D01*
X15944011Y-101856755D01*
X15949575Y-101872347D01*
X15955560Y-101887578D01*
X15959783Y-101897531D01*
X15965977Y-101911134D01*
X15972634Y-101924118D01*
X15979754Y-101936483D01*
X15987336Y-101948229D01*
X15995381Y-101959356D01*
X16006828Y-101973229D01*
X16019098Y-101986001D01*
X16032191Y-101997672D01*
X16046106Y-102008243D01*
X16049714Y-102010713D01*
X16064844Y-102019850D01*
X16081172Y-102027768D01*
X16094203Y-102032907D01*
X16107907Y-102037361D01*
X16122285Y-102041129D01*
X16137336Y-102044213D01*
X16153060Y-102046611D01*
X16169457Y-102048324D01*
X16186527Y-102049352D01*
X16204270Y-102049695D01*
X16220926Y-102049370D01*
X16237041Y-102048396D01*
X16252614Y-102046773D01*
X16267647Y-102044501D01*
X16282139Y-102041580D01*
X16296089Y-102038010D01*
X16309499Y-102033790D01*
X16322368Y-102028922D01*
X16338685Y-102021420D01*
X16354040Y-102012765D01*
X16368573Y-102002854D01*
X16382250Y-101991757D01*
X16395073Y-101979474D01*
X16407041Y-101966005D01*
X16415456Y-101955124D01*
X16423390Y-101943577D01*
X16430843Y-101931362D01*
X16437815Y-101918480D01*
X16444307Y-101904931D01*
X16446364Y-101900267D01*
X16452519Y-101885604D01*
X16458289Y-101870466D01*
X16463675Y-101854853D01*
X16468675Y-101838766D01*
X16473292Y-101822203D01*
X16477523Y-101805166D01*
X16481370Y-101787654D01*
X16484832Y-101769667D01*
X16487910Y-101751205D01*
X16490602Y-101732269D01*
X16492184Y-101719381D01*
X16494323Y-101699456D01*
X16495632Y-101685763D01*
X16496847Y-101671740D01*
X16497969Y-101657390D01*
X16498998Y-101642710D01*
X16499933Y-101627702D01*
X16500774Y-101612366D01*
X16501522Y-101596701D01*
X16502177Y-101580707D01*
X16502738Y-101564385D01*
X16503205Y-101547734D01*
X16503579Y-101530754D01*
X16503860Y-101513446D01*
X16504047Y-101495810D01*
X16504140Y-101477844D01*
X16504152Y-101468739D01*
X16504105Y-101450849D01*
X16503965Y-101433257D01*
X16503731Y-101415961D01*
X16503404Y-101398961D01*
X16502983Y-101382258D01*
X16502469Y-101365852D01*
X16501861Y-101349742D01*
X16501160Y-101333929D01*
X16500365Y-101318412D01*
X16499477Y-101303191D01*
X16498495Y-101288268D01*
X16497420Y-101273640D01*
X16496251Y-101259310D01*
X16494989Y-101245275D01*
X16493633Y-101231538D01*
X16492184Y-101218096D01*
X16489739Y-101198379D01*
X16486890Y-101179232D01*
X16483640Y-101160656D01*
X16479986Y-101142651D01*
X16475930Y-101125217D01*
X16471471Y-101108354D01*
X16466609Y-101092062D01*
X16461345Y-101076341D01*
X16455678Y-101061191D01*
X16449608Y-101046612D01*
X16445338Y-101037210D01*
X16438839Y-101023808D01*
X16431906Y-101011044D01*
X16424541Y-100998916D01*
X16416743Y-100987426D01*
X16405673Y-100973096D01*
X16393833Y-100959900D01*
X16381224Y-100947836D01*
X16367846Y-100936904D01*
X16353698Y-100927106D01*
X16338647Y-100918370D01*
X16322560Y-100910799D01*
X16305437Y-100904393D01*
X16291914Y-100900353D01*
X16277808Y-100896968D01*
X16263118Y-100894238D01*
X16247846Y-100892164D01*
X16231991Y-100890744D01*
X16215553Y-100889980D01*
X16204270Y-100889834D01*
X16187557Y-100890162D01*
X16171396Y-100891144D01*
X16155788Y-100892782D01*
X16140734Y-100895075D01*
X16126232Y-100898024D01*
X16112283Y-100901627D01*
X16098887Y-100905886D01*
X16086045Y-100910799D01*
X16069781Y-100918370D01*
X16054501Y-100927106D01*
X16040096Y-100936936D01*
X16026462Y-100947964D01*
X16013596Y-100960188D01*
X16001500Y-100973609D01*
X15992933Y-100984461D01*
X15984798Y-100995985D01*
X15977097Y-101008183D01*
X15969828Y-101021054D01*
X15962992Y-101034598D01*
X15960809Y-101039262D01*
X15954838Y-101052784D01*
X15949233Y-101067063D01*
X15943994Y-101082100D01*
X15939123Y-101097894D01*
X15934618Y-101114445D01*
X15930479Y-101131754D01*
X15926708Y-101149820D01*
X15923303Y-101168643D01*
X15920264Y-101188224D01*
X15917592Y-101208562D01*
X15916015Y-101222542D01*
X15914566Y-101236775D01*
X15913210Y-101251179D01*
X15911948Y-101265754D01*
X15910779Y-101280501D01*
X15909704Y-101295418D01*
X15908722Y-101310506D01*
X15907834Y-101325765D01*
X15907039Y-101341195D01*
X15906338Y-101356796D01*
X15905730Y-101372568D01*
X15905216Y-101388511D01*
X15904795Y-101404625D01*
X15904468Y-101420910D01*
X15904234Y-101437366D01*
X15904094Y-101453992D01*
X15904047Y-101470790D01*
X15708799Y-101470790D01*
X15708917Y-101447495D01*
X15709268Y-101424584D01*
X15709854Y-101402057D01*
X15710675Y-101379914D01*
X15711730Y-101358155D01*
X15713019Y-101336780D01*
X15714543Y-101315789D01*
X15716301Y-101295183D01*
X15718293Y-101274960D01*
X15720520Y-101255121D01*
X15722982Y-101235666D01*
X15725677Y-101216595D01*
X15728607Y-101197908D01*
X15731772Y-101179606D01*
X15735171Y-101161687D01*
X15738805Y-101144152D01*
X15742672Y-101127001D01*
X15746775Y-101110234D01*
X15751111Y-101093852D01*
X15755683Y-101077853D01*
X15760488Y-101062238D01*
X15765528Y-101047008D01*
X15770802Y-101032161D01*
X15776311Y-101017698D01*
X15782054Y-101003620D01*
X15788032Y-100989925D01*
X15794244Y-100976614D01*
X15800690Y-100963688D01*
X15807371Y-100951145D01*
X15814287Y-100938987D01*
X15821436Y-100927212D01*
X15828820Y-100915822D01*
X15844392Y-100894124D01*
X15861016Y-100873827D01*
X15878693Y-100854930D01*
X15897422Y-100837432D01*
X15917204Y-100821334D01*
X15938038Y-100806636D01*
X15959925Y-100793338D01*
X15982864Y-100781439D01*
X16006856Y-100770941D01*
X16031901Y-100761842D01*
X16057998Y-100754143D01*
X16071441Y-100750818D01*
X16085147Y-100747844D01*
X16099117Y-100745219D01*
X16113349Y-100742944D01*
X16127845Y-100741019D01*
X16142604Y-100739445D01*
X16157626Y-100738220D01*
X16172911Y-100737345D01*
X16188459Y-100736820D01*
X16204270Y-100736645D01*
X16220227Y-100736823D01*
G37*
G36*
X14792401Y-82540487D02*
G01*
X14588604Y-82540487D01*
X14588604Y-82343529D01*
X14792401Y-82343529D01*
X14792401Y-82540487D01*
G37*
G36*
X14780775Y-83782755D02*
G01*
X14780399Y-83805734D01*
X14779273Y-83827997D01*
X14777397Y-83849545D01*
X14774769Y-83870377D01*
X14771391Y-83890492D01*
X14767263Y-83909892D01*
X14762383Y-83928576D01*
X14756753Y-83946544D01*
X14750373Y-83963796D01*
X14743241Y-83980332D01*
X14735359Y-83996152D01*
X14726727Y-84011256D01*
X14717343Y-84025644D01*
X14707209Y-84039316D01*
X14696325Y-84052273D01*
X14684689Y-84064513D01*
X14672422Y-84076066D01*
X14659642Y-84086873D01*
X14646349Y-84096935D01*
X14632544Y-84106251D01*
X14618225Y-84114822D01*
X14603393Y-84122648D01*
X14588049Y-84129729D01*
X14572191Y-84136064D01*
X14555821Y-84141654D01*
X14538938Y-84146499D01*
X14521541Y-84150598D01*
X14503632Y-84153952D01*
X14485210Y-84156560D01*
X14466275Y-84158424D01*
X14446827Y-84159542D01*
X14426867Y-84159914D01*
X14411640Y-84159638D01*
X14397628Y-84158985D01*
X14382414Y-84157948D01*
X14365999Y-84156527D01*
X14352001Y-84155114D01*
X14337233Y-84153455D01*
X14325652Y-84152050D01*
X14310244Y-84150110D01*
X14295476Y-84148053D01*
X14281350Y-84145879D01*
X14267865Y-84143587D01*
X14251910Y-84140556D01*
X14236956Y-84137342D01*
X14223005Y-84133945D01*
X14220335Y-84133243D01*
X14220335Y-83962957D01*
X14229909Y-83962957D01*
X14242611Y-83968506D01*
X14257080Y-83974383D01*
X14270889Y-83979680D01*
X14285995Y-83985218D01*
X14299576Y-83990016D01*
X14302401Y-83990996D01*
X14316661Y-83995527D01*
X14330804Y-83999291D01*
X14344831Y-84002286D01*
X14358740Y-84004513D01*
X14372533Y-84005973D01*
X14386209Y-84006664D01*
X14391647Y-84006725D01*
X14408498Y-84006426D01*
X14424516Y-84005528D01*
X14439700Y-84004032D01*
X14454051Y-84001938D01*
X14467568Y-83999245D01*
X14483293Y-83995038D01*
X14497715Y-83989895D01*
X14503119Y-83987577D01*
X14515852Y-83981125D01*
X14527549Y-83973739D01*
X14540220Y-83963641D01*
X14551400Y-83952197D01*
X14561089Y-83939406D01*
X14566720Y-83930131D01*
X14572879Y-83917877D01*
X14578321Y-83904839D01*
X14583044Y-83891016D01*
X14587050Y-83876409D01*
X14590337Y-83861016D01*
X14592907Y-83844839D01*
X14593733Y-83838149D01*
X14595256Y-83824279D01*
X14596576Y-83809682D01*
X14597692Y-83794359D01*
X14598606Y-83778309D01*
X14599317Y-83761533D01*
X14599824Y-83744030D01*
X14600129Y-83725800D01*
X14600224Y-83711651D01*
X14600230Y-83706844D01*
X14600230Y-82846865D01*
X14375918Y-82846865D01*
X14375918Y-82693676D01*
X14780775Y-82693676D01*
X14780775Y-83782755D01*
G37*
G36*
X15801006Y-82321725D02*
G01*
X15817572Y-82322051D01*
X15833236Y-82322627D01*
X15847999Y-82323453D01*
X15861861Y-82324530D01*
X15877304Y-82326153D01*
X15882163Y-82326774D01*
X15896677Y-82328986D01*
X15911239Y-82331775D01*
X15925849Y-82335141D01*
X15940507Y-82339084D01*
X15955213Y-82343604D01*
X15960126Y-82345239D01*
X15960126Y-82540487D01*
X15950551Y-82540487D01*
X15937424Y-82533687D01*
X15924088Y-82527989D01*
X15908829Y-82522411D01*
X15894644Y-82517854D01*
X15879123Y-82513382D01*
X15869170Y-82510738D01*
X15855540Y-82507452D01*
X15841836Y-82504604D01*
X15828057Y-82502195D01*
X15814203Y-82500223D01*
X15800274Y-82498690D01*
X15786270Y-82497594D01*
X15772192Y-82496937D01*
X15758039Y-82496718D01*
X15732549Y-82497192D01*
X15707710Y-82498615D01*
X15683523Y-82500986D01*
X15659988Y-82504305D01*
X15637105Y-82508573D01*
X15614873Y-82513789D01*
X15593293Y-82519953D01*
X15572366Y-82527065D01*
X15552090Y-82535126D01*
X15532466Y-82544136D01*
X15513493Y-82554093D01*
X15495173Y-82564999D01*
X15477504Y-82576854D01*
X15460487Y-82589656D01*
X15444122Y-82603408D01*
X15428409Y-82618107D01*
X15413424Y-82633614D01*
X15399243Y-82649790D01*
X15385865Y-82666633D01*
X15373292Y-82684144D01*
X15361524Y-82702323D01*
X15350559Y-82721170D01*
X15340398Y-82740684D01*
X15331042Y-82760867D01*
X15322489Y-82781717D01*
X15314741Y-82803235D01*
X15307796Y-82825421D01*
X15301656Y-82848275D01*
X15296320Y-82871797D01*
X15291788Y-82895987D01*
X15288060Y-82920844D01*
X15285136Y-82946369D01*
X15300246Y-82937408D01*
X15315314Y-82928862D01*
X15330339Y-82920731D01*
X15345323Y-82913014D01*
X15360264Y-82905712D01*
X15375164Y-82898825D01*
X15390021Y-82892353D01*
X15404836Y-82886295D01*
X15419610Y-82880652D01*
X15434341Y-82875423D01*
X15444138Y-82872168D01*
X15459098Y-82867646D01*
X15474484Y-82863569D01*
X15490297Y-82859937D01*
X15506537Y-82856749D01*
X15523203Y-82854006D01*
X15540297Y-82851708D01*
X15557817Y-82849855D01*
X15575764Y-82848446D01*
X15594137Y-82847483D01*
X15612938Y-82846964D01*
X15625708Y-82846865D01*
X15642634Y-82847012D01*
X15659176Y-82847454D01*
X15675332Y-82848190D01*
X15691104Y-82849221D01*
X15706492Y-82850546D01*
X15721494Y-82852166D01*
X15736112Y-82854081D01*
X15750345Y-82856290D01*
X15764194Y-82858793D01*
X15777658Y-82861591D01*
X15786420Y-82863620D01*
X15803912Y-82868343D01*
X15817102Y-82872586D01*
X15830351Y-82877431D01*
X15843661Y-82882877D01*
X15857031Y-82888923D01*
X15870461Y-82895571D01*
X15883950Y-82902820D01*
X15897500Y-82910670D01*
X15911111Y-82919121D01*
X15924781Y-82928173D01*
X15929351Y-82931324D01*
X15944882Y-82942558D01*
X15959673Y-82954333D01*
X15973725Y-82966649D01*
X15987037Y-82979505D01*
X15999611Y-82992903D01*
X16011445Y-83006842D01*
X16022539Y-83021322D01*
X16032895Y-83036342D01*
X16042511Y-83051904D01*
X16051388Y-83068006D01*
X16056895Y-83079042D01*
X16064533Y-83096051D01*
X16071420Y-83113740D01*
X16077556Y-83132107D01*
X16082941Y-83151154D01*
X16087574Y-83170880D01*
X16090245Y-83184408D01*
X16092583Y-83198238D01*
X16094586Y-83212370D01*
X16096256Y-83226803D01*
X16097592Y-83241539D01*
X16098594Y-83256576D01*
X16099261Y-83271915D01*
X16099595Y-83287556D01*
X16099637Y-83295490D01*
X16099075Y-83322362D01*
X16097388Y-83348608D01*
X16094576Y-83374230D01*
X16090640Y-83399226D01*
X16085579Y-83423597D01*
X16079393Y-83447343D01*
X16072083Y-83470465D01*
X16063648Y-83492960D01*
X16054088Y-83514831D01*
X16043404Y-83536077D01*
X16031595Y-83556698D01*
X16018661Y-83576693D01*
X16004603Y-83596063D01*
X15989420Y-83614809D01*
X15973113Y-83632929D01*
X15955680Y-83650424D01*
X15937473Y-83667069D01*
X15918756Y-83682641D01*
X15899529Y-83697139D01*
X15879791Y-83710562D01*
X15859543Y-83722912D01*
X15838785Y-83734188D01*
X15817517Y-83744390D01*
X15795738Y-83753519D01*
X15773449Y-83761573D01*
X15750650Y-83768553D01*
X15727341Y-83774460D01*
X15703521Y-83779292D01*
X15679191Y-83783051D01*
X15654351Y-83785736D01*
X15629001Y-83787347D01*
X15603140Y-83787884D01*
X15583497Y-83787601D01*
X15564191Y-83786754D01*
X15545221Y-83785341D01*
X15526588Y-83783364D01*
X15508292Y-83780821D01*
X15490332Y-83777714D01*
X15472709Y-83774041D01*
X15455422Y-83769804D01*
X15438472Y-83765001D01*
X15421859Y-83759634D01*
X15410970Y-83755741D01*
X15394927Y-83749438D01*
X15379238Y-83742582D01*
X15363903Y-83735173D01*
X15348924Y-83727211D01*
X15334299Y-83718696D01*
X15320029Y-83709627D01*
X15306113Y-83700006D01*
X15292552Y-83689832D01*
X15279345Y-83679105D01*
X15266494Y-83667825D01*
X15258123Y-83659998D01*
X15247927Y-83649968D01*
X15238028Y-83639540D01*
X15228426Y-83628715D01*
X15219120Y-83617491D01*
X15210111Y-83605869D01*
X15201398Y-83593849D01*
X15192982Y-83581431D01*
X15184862Y-83568615D01*
X15177039Y-83555401D01*
X15169512Y-83541788D01*
X15162282Y-83527778D01*
X15155348Y-83513370D01*
X15148711Y-83498564D01*
X15142371Y-83483359D01*
X15136327Y-83467757D01*
X15130579Y-83451757D01*
X15125155Y-83435309D01*
X15120081Y-83418450D01*
X15115356Y-83401179D01*
X15110982Y-83383497D01*
X15106957Y-83365403D01*
X15103283Y-83346899D01*
X15099958Y-83327982D01*
X15096984Y-83308655D01*
X15094359Y-83288916D01*
X15092084Y-83268765D01*
X15090159Y-83248204D01*
X15088585Y-83227230D01*
X15087360Y-83205846D01*
X15086485Y-83184050D01*
X15086169Y-83170682D01*
X15280007Y-83170682D01*
X15280129Y-83189538D01*
X15280493Y-83207895D01*
X15281101Y-83225752D01*
X15281952Y-83243109D01*
X15283046Y-83259967D01*
X15284383Y-83276325D01*
X15285963Y-83292184D01*
X15287786Y-83307543D01*
X15289852Y-83322403D01*
X15292162Y-83336763D01*
X15294714Y-83350624D01*
X15298999Y-83370478D01*
X15303831Y-83389208D01*
X15309209Y-83406815D01*
X15311123Y-83412434D01*
X15317226Y-83428711D01*
X15323738Y-83444334D01*
X15330658Y-83459302D01*
X15337987Y-83473614D01*
X15345725Y-83487271D01*
X15353871Y-83500273D01*
X15362427Y-83512620D01*
X15371390Y-83524312D01*
X15380763Y-83535349D01*
X15390544Y-83545730D01*
X15397292Y-83552287D01*
X15408512Y-83562615D01*
X15419946Y-83572226D01*
X15431593Y-83581122D01*
X15443454Y-83589302D01*
X15455529Y-83596766D01*
X15467817Y-83603514D01*
X15480320Y-83609546D01*
X15493036Y-83614862D01*
X15506083Y-83619510D01*
X15519408Y-83623539D01*
X15533010Y-83626947D01*
X15546891Y-83629736D01*
X15561050Y-83631906D01*
X15575486Y-83633455D01*
X15590200Y-83634385D01*
X15605192Y-83634695D01*
X15622397Y-83634359D01*
X15639135Y-83633353D01*
X15655405Y-83631677D01*
X15671208Y-83629330D01*
X15686543Y-83626313D01*
X15701411Y-83622625D01*
X15715811Y-83618267D01*
X15729744Y-83613238D01*
X15743209Y-83607538D01*
X15756206Y-83601168D01*
X15768737Y-83594128D01*
X15780799Y-83586417D01*
X15792395Y-83578035D01*
X15803522Y-83568983D01*
X15814183Y-83559261D01*
X15824375Y-83548868D01*
X15834065Y-83537847D01*
X15843129Y-83526241D01*
X15851568Y-83514050D01*
X15859382Y-83501274D01*
X15866570Y-83487913D01*
X15873134Y-83473967D01*
X15879072Y-83459436D01*
X15884386Y-83444319D01*
X15889074Y-83428618D01*
X15893137Y-83412332D01*
X15896576Y-83395461D01*
X15899389Y-83378004D01*
X15901576Y-83359963D01*
X15903139Y-83341337D01*
X15904077Y-83322125D01*
X15904389Y-83302329D01*
X15904155Y-83285737D01*
X15903452Y-83269687D01*
X15902280Y-83254177D01*
X15900639Y-83239209D01*
X15898529Y-83224781D01*
X15895950Y-83210895D01*
X15892903Y-83197549D01*
X15888110Y-83180596D01*
X15882485Y-83164605D01*
X15877718Y-83153243D01*
X15870601Y-83138695D01*
X15862416Y-83124627D01*
X15853162Y-83111040D01*
X15842840Y-83097934D01*
X15831449Y-83085309D01*
X15818990Y-83073165D01*
X15805462Y-83061502D01*
X15794615Y-83053070D01*
X15790865Y-83050319D01*
X15776839Y-83041220D01*
X15762328Y-83033155D01*
X15747333Y-83026126D01*
X15731854Y-83020132D01*
X15715891Y-83015173D01*
X15699443Y-83011250D01*
X15692729Y-83009970D01*
X15679227Y-83007646D01*
X15665566Y-83005632D01*
X15651744Y-83003927D01*
X15637762Y-83002533D01*
X15623619Y-83001448D01*
X15609317Y-83000674D01*
X15594854Y-83000209D01*
X15580230Y-83000054D01*
X15565009Y-83000225D01*
X15549993Y-83000739D01*
X15535180Y-83001596D01*
X15520572Y-83002795D01*
X15506169Y-83004337D01*
X15491970Y-83006221D01*
X15477975Y-83008448D01*
X15464184Y-83011017D01*
X15450598Y-83013930D01*
X15437217Y-83017184D01*
X15428409Y-83019545D01*
X15415230Y-83023324D01*
X15401978Y-83027483D01*
X15388654Y-83032020D01*
X15375259Y-83036935D01*
X15361791Y-83042230D01*
X15348251Y-83047903D01*
X15334639Y-83053955D01*
X15320954Y-83060385D01*
X15307198Y-83067194D01*
X15293369Y-83074382D01*
X15284110Y-83079384D01*
X15282821Y-83093992D01*
X15281774Y-83108196D01*
X15281033Y-83120759D01*
X15280449Y-83135606D01*
X15280151Y-83149557D01*
X15280023Y-83163320D01*
X15280007Y-83170682D01*
X15086169Y-83170682D01*
X15085960Y-83161842D01*
X15085785Y-83139224D01*
X15085944Y-83115925D01*
X15086421Y-83092960D01*
X15087216Y-83070329D01*
X15088328Y-83048032D01*
X15089759Y-83026069D01*
X15091507Y-83004440D01*
X15093574Y-82983145D01*
X15095958Y-82962184D01*
X15098660Y-82941557D01*
X15101680Y-82921263D01*
X15105018Y-82901304D01*
X15108674Y-82881679D01*
X15112647Y-82862387D01*
X15116939Y-82843429D01*
X15121548Y-82824806D01*
X15126476Y-82806516D01*
X15131795Y-82788520D01*
X15137493Y-82770778D01*
X15143570Y-82753289D01*
X15150027Y-82736055D01*
X15156863Y-82719074D01*
X15164079Y-82702347D01*
X15171673Y-82685874D01*
X15179648Y-82669654D01*
X15188001Y-82653689D01*
X15196734Y-82637977D01*
X15205846Y-82622519D01*
X15215338Y-82607314D01*
X15225208Y-82592364D01*
X15235459Y-82577667D01*
X15246088Y-82563224D01*
X15257097Y-82549035D01*
X15267847Y-82535840D01*
X15278981Y-82523010D01*
X15290500Y-82510547D01*
X15302404Y-82498449D01*
X15314692Y-82486718D01*
X15327366Y-82475352D01*
X15340423Y-82464353D01*
X15353866Y-82453719D01*
X15367693Y-82443452D01*
X15381905Y-82433550D01*
X15396502Y-82424015D01*
X15411483Y-82414845D01*
X15426849Y-82406041D01*
X15442599Y-82397604D01*
X15458735Y-82389532D01*
X15475255Y-82381826D01*
X15492141Y-82374539D01*
X15509374Y-82367721D01*
X15526954Y-82361374D01*
X15544882Y-82355497D01*
X15563157Y-82350090D01*
X15581780Y-82345153D01*
X15600749Y-82340687D01*
X15620066Y-82336690D01*
X15639730Y-82333164D01*
X15659742Y-82330108D01*
X15680101Y-82327522D01*
X15700807Y-82325406D01*
X15721860Y-82323761D01*
X15743261Y-82322585D01*
X15765009Y-82321880D01*
X15787104Y-82321645D01*
X15801006Y-82321725D01*
G37*
G36*
X24952401Y-82540487D02*
G01*
X24748604Y-82540487D01*
X24748604Y-82343529D01*
X24952401Y-82343529D01*
X24952401Y-82540487D01*
G37*
G36*
X24940775Y-83782755D02*
G01*
X24940399Y-83805734D01*
X24939273Y-83827997D01*
X24937397Y-83849545D01*
X24934769Y-83870377D01*
X24931391Y-83890492D01*
X24927263Y-83909892D01*
X24922383Y-83928576D01*
X24916753Y-83946544D01*
X24910373Y-83963796D01*
X24903241Y-83980332D01*
X24895359Y-83996152D01*
X24886727Y-84011256D01*
X24877343Y-84025644D01*
X24867209Y-84039316D01*
X24856325Y-84052273D01*
X24844689Y-84064513D01*
X24832422Y-84076066D01*
X24819642Y-84086873D01*
X24806349Y-84096935D01*
X24792544Y-84106251D01*
X24778225Y-84114822D01*
X24763393Y-84122648D01*
X24748049Y-84129729D01*
X24732191Y-84136064D01*
X24715821Y-84141654D01*
X24698938Y-84146499D01*
X24681541Y-84150598D01*
X24663632Y-84153952D01*
X24645210Y-84156560D01*
X24626275Y-84158424D01*
X24606827Y-84159542D01*
X24586867Y-84159914D01*
X24571640Y-84159638D01*
X24557628Y-84158985D01*
X24542414Y-84157948D01*
X24525999Y-84156527D01*
X24512001Y-84155114D01*
X24497233Y-84153455D01*
X24485652Y-84152050D01*
X24470244Y-84150110D01*
X24455476Y-84148053D01*
X24441350Y-84145879D01*
X24427865Y-84143587D01*
X24411910Y-84140556D01*
X24396956Y-84137342D01*
X24383005Y-84133945D01*
X24380335Y-84133243D01*
X24380335Y-83962957D01*
X24389909Y-83962957D01*
X24402611Y-83968506D01*
X24417080Y-83974383D01*
X24430889Y-83979680D01*
X24445995Y-83985218D01*
X24459576Y-83990016D01*
X24462401Y-83990996D01*
X24476661Y-83995527D01*
X24490804Y-83999291D01*
X24504831Y-84002286D01*
X24518740Y-84004513D01*
X24532533Y-84005973D01*
X24546209Y-84006664D01*
X24551647Y-84006725D01*
X24568498Y-84006426D01*
X24584516Y-84005528D01*
X24599700Y-84004032D01*
X24614051Y-84001938D01*
X24627568Y-83999245D01*
X24643293Y-83995038D01*
X24657715Y-83989895D01*
X24663119Y-83987577D01*
X24675852Y-83981125D01*
X24687549Y-83973739D01*
X24700220Y-83963641D01*
X24711400Y-83952197D01*
X24721089Y-83939406D01*
X24726720Y-83930131D01*
X24732879Y-83917877D01*
X24738321Y-83904839D01*
X24743044Y-83891016D01*
X24747050Y-83876409D01*
X24750337Y-83861016D01*
X24752907Y-83844839D01*
X24753733Y-83838149D01*
X24755256Y-83824279D01*
X24756576Y-83809682D01*
X24757692Y-83794359D01*
X24758606Y-83778309D01*
X24759317Y-83761533D01*
X24759824Y-83744030D01*
X24760129Y-83725800D01*
X24760224Y-83711651D01*
X24760230Y-83706844D01*
X24760230Y-82846865D01*
X24535918Y-82846865D01*
X24535918Y-82693676D01*
X24940775Y-82693676D01*
X24940775Y-83782755D01*
G37*
G36*
X26242198Y-82562371D02*
G01*
X25594222Y-83766000D01*
X25388374Y-83766000D01*
X26077725Y-82518602D01*
X25262198Y-82518602D01*
X25262198Y-82343529D01*
X26242198Y-82343529D01*
X26242198Y-82562371D01*
G37*
G36*
X35112401Y-82540487D02*
G01*
X34908604Y-82540487D01*
X34908604Y-82343529D01*
X35112401Y-82343529D01*
X35112401Y-82540487D01*
G37*
G36*
X35100775Y-83782755D02*
G01*
X35100399Y-83805734D01*
X35099273Y-83827997D01*
X35097397Y-83849545D01*
X35094769Y-83870377D01*
X35091391Y-83890492D01*
X35087263Y-83909892D01*
X35082383Y-83928576D01*
X35076753Y-83946544D01*
X35070373Y-83963796D01*
X35063241Y-83980332D01*
X35055359Y-83996152D01*
X35046727Y-84011256D01*
X35037343Y-84025644D01*
X35027209Y-84039316D01*
X35016325Y-84052273D01*
X35004689Y-84064513D01*
X34992422Y-84076066D01*
X34979642Y-84086873D01*
X34966349Y-84096935D01*
X34952544Y-84106251D01*
X34938225Y-84114822D01*
X34923393Y-84122648D01*
X34908049Y-84129729D01*
X34892191Y-84136064D01*
X34875821Y-84141654D01*
X34858938Y-84146499D01*
X34841541Y-84150598D01*
X34823632Y-84153952D01*
X34805210Y-84156560D01*
X34786275Y-84158424D01*
X34766827Y-84159542D01*
X34746867Y-84159914D01*
X34731640Y-84159638D01*
X34717628Y-84158985D01*
X34702414Y-84157948D01*
X34685999Y-84156527D01*
X34672001Y-84155114D01*
X34657233Y-84153455D01*
X34645652Y-84152050D01*
X34630244Y-84150110D01*
X34615476Y-84148053D01*
X34601350Y-84145879D01*
X34587865Y-84143587D01*
X34571910Y-84140556D01*
X34556956Y-84137342D01*
X34543005Y-84133945D01*
X34540335Y-84133243D01*
X34540335Y-83962957D01*
X34549909Y-83962957D01*
X34562611Y-83968506D01*
X34577080Y-83974383D01*
X34590889Y-83979680D01*
X34605995Y-83985218D01*
X34619576Y-83990016D01*
X34622401Y-83990996D01*
X34636661Y-83995527D01*
X34650804Y-83999291D01*
X34664831Y-84002286D01*
X34678740Y-84004513D01*
X34692533Y-84005973D01*
X34706209Y-84006664D01*
X34711647Y-84006725D01*
X34728498Y-84006426D01*
X34744516Y-84005528D01*
X34759700Y-84004032D01*
X34774051Y-84001938D01*
X34787568Y-83999245D01*
X34803293Y-83995038D01*
X34817715Y-83989895D01*
X34823119Y-83987577D01*
X34835852Y-83981125D01*
X34847549Y-83973739D01*
X34860220Y-83963641D01*
X34871400Y-83952197D01*
X34881089Y-83939406D01*
X34886720Y-83930131D01*
X34892879Y-83917877D01*
X34898321Y-83904839D01*
X34903044Y-83891016D01*
X34907050Y-83876409D01*
X34910337Y-83861016D01*
X34912907Y-83844839D01*
X34913733Y-83838149D01*
X34915256Y-83824279D01*
X34916576Y-83809682D01*
X34917692Y-83794359D01*
X34918606Y-83778309D01*
X34919317Y-83761533D01*
X34919824Y-83744030D01*
X34920129Y-83725800D01*
X34920224Y-83711651D01*
X34920230Y-83706844D01*
X34920230Y-82846865D01*
X34695918Y-82846865D01*
X34695918Y-82693676D01*
X35100775Y-82693676D01*
X35100775Y-83782755D01*
G37*
G36*
X35926692Y-82322039D02*
G01*
X35952478Y-82323221D01*
X35977588Y-82325191D01*
X36002022Y-82327950D01*
X36025780Y-82331496D01*
X36048862Y-82335830D01*
X36071268Y-82340953D01*
X36092999Y-82346863D01*
X36114054Y-82353562D01*
X36134432Y-82361048D01*
X36154135Y-82369323D01*
X36173162Y-82378386D01*
X36191514Y-82388236D01*
X36209189Y-82398875D01*
X36226189Y-82410302D01*
X36242512Y-82422517D01*
X36257998Y-82435299D01*
X36272485Y-82448510D01*
X36285973Y-82462152D01*
X36298462Y-82476223D01*
X36309952Y-82490725D01*
X36320442Y-82505657D01*
X36329934Y-82521019D01*
X36338426Y-82536811D01*
X36345920Y-82553033D01*
X36352414Y-82569685D01*
X36357909Y-82586767D01*
X36362405Y-82604280D01*
X36365902Y-82622222D01*
X36368400Y-82640595D01*
X36369898Y-82659398D01*
X36370398Y-82678630D01*
X36369866Y-82696427D01*
X36368270Y-82714169D01*
X36365610Y-82731858D01*
X36361887Y-82749492D01*
X36357099Y-82767072D01*
X36351248Y-82784598D01*
X36344333Y-82802070D01*
X36336353Y-82819488D01*
X36327310Y-82836852D01*
X36317203Y-82854162D01*
X36309874Y-82865672D01*
X36302087Y-82876970D01*
X36293857Y-82887956D01*
X36285183Y-82898630D01*
X36276065Y-82908991D01*
X36266504Y-82919040D01*
X36256500Y-82928775D01*
X36246052Y-82938199D01*
X36235160Y-82947310D01*
X36223826Y-82956108D01*
X36212047Y-82964594D01*
X36199826Y-82972767D01*
X36187161Y-82980627D01*
X36174052Y-82988176D01*
X36160500Y-82995411D01*
X36146505Y-83002334D01*
X36132066Y-83008944D01*
X36132066Y-83014757D01*
X36148658Y-83021914D01*
X36164753Y-83029279D01*
X36180351Y-83036853D01*
X36195453Y-83044634D01*
X36210057Y-83052625D01*
X36224165Y-83060823D01*
X36237776Y-83069230D01*
X36250890Y-83077845D01*
X36263507Y-83086669D01*
X36275627Y-83095701D01*
X36287250Y-83104941D01*
X36298377Y-83114390D01*
X36309006Y-83124047D01*
X36319139Y-83133913D01*
X36328775Y-83143987D01*
X36337913Y-83154269D01*
X36350624Y-83170181D01*
X36362084Y-83186887D01*
X36372294Y-83204386D01*
X36381254Y-83222678D01*
X36386533Y-83235314D01*
X36391256Y-83248302D01*
X36395423Y-83261643D01*
X36399035Y-83275337D01*
X36402091Y-83289383D01*
X36404592Y-83303782D01*
X36406537Y-83318534D01*
X36407926Y-83333638D01*
X36408759Y-83349095D01*
X36409037Y-83364904D01*
X36408471Y-83387404D01*
X36406772Y-83409426D01*
X36403940Y-83430969D01*
X36399976Y-83452034D01*
X36394879Y-83472622D01*
X36388649Y-83492731D01*
X36381286Y-83512362D01*
X36372791Y-83531514D01*
X36363164Y-83550189D01*
X36352403Y-83568385D01*
X36340510Y-83586103D01*
X36327484Y-83603343D01*
X36313326Y-83620105D01*
X36298035Y-83636388D01*
X36281611Y-83652194D01*
X36264054Y-83667521D01*
X36245683Y-83682096D01*
X36226730Y-83695731D01*
X36207194Y-83708425D01*
X36187075Y-83720180D01*
X36166374Y-83730993D01*
X36145091Y-83740867D01*
X36123226Y-83749800D01*
X36100778Y-83757793D01*
X36077748Y-83764845D01*
X36054135Y-83770958D01*
X36029940Y-83776129D01*
X36005163Y-83780361D01*
X35979803Y-83783652D01*
X35953861Y-83786003D01*
X35927337Y-83787413D01*
X35900230Y-83787884D01*
X35885769Y-83787769D01*
X35871493Y-83787424D01*
X35857401Y-83786850D01*
X35843495Y-83786046D01*
X35829774Y-83785012D01*
X35802886Y-83782255D01*
X35776738Y-83778579D01*
X35751330Y-83773984D01*
X35726663Y-83768471D01*
X35702735Y-83762038D01*
X35679547Y-83754686D01*
X35657099Y-83746415D01*
X35635391Y-83737226D01*
X35614424Y-83727117D01*
X35594196Y-83716090D01*
X35574708Y-83704143D01*
X35555960Y-83691278D01*
X35537952Y-83677493D01*
X35529225Y-83670256D01*
X35512538Y-83655254D01*
X35496928Y-83639738D01*
X35482394Y-83623710D01*
X35468937Y-83607168D01*
X35456556Y-83590114D01*
X35445252Y-83572547D01*
X35435025Y-83554467D01*
X35425874Y-83535874D01*
X35417800Y-83516768D01*
X35410802Y-83497149D01*
X35404881Y-83477017D01*
X35400036Y-83456373D01*
X35396268Y-83435215D01*
X35393577Y-83413545D01*
X35391962Y-83391362D01*
X35391424Y-83368665D01*
X35391693Y-83354176D01*
X35392034Y-83348149D01*
X35585645Y-83348149D01*
X35585994Y-83363537D01*
X35587040Y-83378587D01*
X35588783Y-83393297D01*
X35591223Y-83407668D01*
X35594361Y-83421699D01*
X35598196Y-83435392D01*
X35602728Y-83448745D01*
X35607957Y-83461758D01*
X35613884Y-83474433D01*
X35620507Y-83486768D01*
X35627828Y-83498764D01*
X35635847Y-83510421D01*
X35644562Y-83521738D01*
X35653975Y-83532716D01*
X35664085Y-83543355D01*
X35674892Y-83553655D01*
X35686277Y-83563468D01*
X35698037Y-83572648D01*
X35710170Y-83581196D01*
X35722678Y-83589110D01*
X35735559Y-83596391D01*
X35748815Y-83603038D01*
X35762444Y-83609053D01*
X35776448Y-83614435D01*
X35790825Y-83619183D01*
X35805577Y-83623298D01*
X35820703Y-83626781D01*
X35836202Y-83629630D01*
X35852075Y-83631845D01*
X35868323Y-83633428D01*
X35884944Y-83634378D01*
X35901940Y-83634695D01*
X35919287Y-83634425D01*
X35936193Y-83633615D01*
X35952658Y-83632266D01*
X35968682Y-83630378D01*
X35984266Y-83627949D01*
X35999409Y-83624981D01*
X36014111Y-83621474D01*
X36028372Y-83617427D01*
X36042193Y-83612840D01*
X36055573Y-83607713D01*
X36068511Y-83602047D01*
X36081010Y-83595842D01*
X36093067Y-83589096D01*
X36104684Y-83581811D01*
X36121282Y-83569872D01*
X36126595Y-83565623D01*
X36141627Y-83552218D01*
X36155181Y-83537905D01*
X36167257Y-83522685D01*
X36177853Y-83506558D01*
X36186972Y-83489523D01*
X36194611Y-83471580D01*
X36200772Y-83452729D01*
X36205454Y-83432971D01*
X36207755Y-83419295D01*
X36209397Y-83405215D01*
X36210383Y-83390732D01*
X36210712Y-83375846D01*
X36210369Y-83360243D01*
X36209341Y-83345236D01*
X36207628Y-83330823D01*
X36205230Y-83317006D01*
X36200966Y-83299508D01*
X36195485Y-83283068D01*
X36188785Y-83267686D01*
X36180867Y-83253362D01*
X36171731Y-83240096D01*
X36160826Y-83227268D01*
X36147602Y-83214429D01*
X36136163Y-83204793D01*
X36123420Y-83195151D01*
X36109372Y-83185503D01*
X36094019Y-83175848D01*
X36077363Y-83166188D01*
X36059402Y-83156522D01*
X36046703Y-83150075D01*
X36033425Y-83143625D01*
X36019567Y-83137172D01*
X36005147Y-83130934D01*
X35990309Y-83124830D01*
X35975053Y-83118859D01*
X35959381Y-83113022D01*
X35943290Y-83107319D01*
X35930118Y-83102852D01*
X35920063Y-83099558D01*
X35906086Y-83094980D01*
X35890998Y-83089963D01*
X35874798Y-83084508D01*
X35857488Y-83078615D01*
X35843775Y-83073907D01*
X35829438Y-83068954D01*
X35814475Y-83063753D01*
X35798888Y-83058307D01*
X35782675Y-83052614D01*
X35777132Y-83050661D01*
X35761209Y-83059410D01*
X35745880Y-83068729D01*
X35731147Y-83078620D01*
X35717009Y-83089081D01*
X35703466Y-83100114D01*
X35690518Y-83111717D01*
X35678165Y-83123892D01*
X35666407Y-83136638D01*
X35655245Y-83149954D01*
X35644677Y-83163842D01*
X35637962Y-83173418D01*
X35628613Y-83188085D01*
X35620183Y-83203106D01*
X35612672Y-83218482D01*
X35606082Y-83234213D01*
X35600411Y-83250299D01*
X35595659Y-83266739D01*
X35591827Y-83283534D01*
X35588915Y-83300683D01*
X35586923Y-83318187D01*
X35585850Y-83336046D01*
X35585645Y-83348149D01*
X35392034Y-83348149D01*
X35392503Y-83339857D01*
X35393852Y-83325709D01*
X35395741Y-83311732D01*
X35398169Y-83297926D01*
X35401137Y-83284292D01*
X35404644Y-83270828D01*
X35408692Y-83257535D01*
X35413278Y-83244413D01*
X35418405Y-83231462D01*
X35424071Y-83218682D01*
X35430276Y-83206073D01*
X35437022Y-83193635D01*
X35444307Y-83181368D01*
X35452131Y-83169271D01*
X35460495Y-83157346D01*
X35469394Y-83145660D01*
X35478736Y-83134281D01*
X35488521Y-83123210D01*
X35498750Y-83112445D01*
X35509422Y-83101988D01*
X35520538Y-83091838D01*
X35532097Y-83081995D01*
X35544100Y-83072460D01*
X35556546Y-83063231D01*
X35569435Y-83054310D01*
X35582768Y-83045696D01*
X35596545Y-83037390D01*
X35610765Y-83029390D01*
X35625428Y-83021698D01*
X35640535Y-83014313D01*
X35656085Y-83007235D01*
X35656085Y-83001422D01*
X35641873Y-82993855D01*
X35628132Y-82986200D01*
X35614860Y-82978457D01*
X35602059Y-82970626D01*
X35589727Y-82962706D01*
X35577866Y-82954699D01*
X35566475Y-82946603D01*
X35550271Y-82934294D01*
X35535124Y-82921787D01*
X35521035Y-82909082D01*
X35508004Y-82896178D01*
X35496030Y-82883075D01*
X35485115Y-82869775D01*
X35475277Y-82855998D01*
X35466406Y-82841597D01*
X35458503Y-82826570D01*
X35451568Y-82810918D01*
X35445600Y-82794641D01*
X35440600Y-82777740D01*
X35436568Y-82760212D01*
X35433504Y-82742060D01*
X35431407Y-82723283D01*
X35430278Y-82703880D01*
X35430063Y-82690598D01*
X35430581Y-82671057D01*
X35431077Y-82664953D01*
X35623259Y-82664953D01*
X35623868Y-82681847D01*
X35625695Y-82698164D01*
X35628741Y-82713904D01*
X35633004Y-82729066D01*
X35638486Y-82743652D01*
X35645186Y-82757661D01*
X35653104Y-82771093D01*
X35662240Y-82783948D01*
X35672605Y-82796263D01*
X35684210Y-82808247D01*
X35697054Y-82819900D01*
X35711137Y-82831221D01*
X35722514Y-82839495D01*
X35734587Y-82847582D01*
X35747358Y-82855483D01*
X35760826Y-82863198D01*
X35774991Y-82870726D01*
X35779867Y-82873194D01*
X35794297Y-82879978D01*
X35807993Y-82886201D01*
X35823208Y-82892941D01*
X35836474Y-82898706D01*
X35850713Y-82904802D01*
X35865924Y-82911230D01*
X35882107Y-82917988D01*
X35898809Y-82924763D01*
X35915404Y-82931239D01*
X35931892Y-82937415D01*
X35948273Y-82943292D01*
X35964547Y-82948870D01*
X35980714Y-82954148D01*
X35996775Y-82959128D01*
X36012729Y-82963808D01*
X36024383Y-82955925D01*
X36035580Y-82948004D01*
X36051519Y-82936053D01*
X36066430Y-82924018D01*
X36080314Y-82911898D01*
X36093170Y-82899695D01*
X36104998Y-82887407D01*
X36115798Y-82875035D01*
X36125570Y-82862579D01*
X36134315Y-82850038D01*
X36142032Y-82837414D01*
X36144375Y-82833187D01*
X36150914Y-82820245D01*
X36156809Y-82806937D01*
X36162062Y-82793261D01*
X36166671Y-82779219D01*
X36170637Y-82764811D01*
X36173960Y-82750036D01*
X36176640Y-82734894D01*
X36178676Y-82719385D01*
X36180070Y-82703510D01*
X36180820Y-82687268D01*
X36180963Y-82676237D01*
X36180266Y-82657495D01*
X36178174Y-82639480D01*
X36174688Y-82622192D01*
X36169807Y-82605632D01*
X36163532Y-82589798D01*
X36155862Y-82574693D01*
X36146798Y-82560314D01*
X36136340Y-82546663D01*
X36124487Y-82533739D01*
X36111239Y-82521542D01*
X36101633Y-82513815D01*
X36086374Y-82502938D01*
X36070345Y-82493131D01*
X36053548Y-82484393D01*
X36035980Y-82476725D01*
X36017644Y-82470128D01*
X35998538Y-82464600D01*
X35978663Y-82460142D01*
X35964985Y-82457764D01*
X35950966Y-82455862D01*
X35936604Y-82454436D01*
X35921901Y-82453485D01*
X35906855Y-82453009D01*
X35899204Y-82452950D01*
X35884243Y-82453174D01*
X35869621Y-82453848D01*
X35855339Y-82454970D01*
X35841395Y-82456540D01*
X35827791Y-82458560D01*
X35808021Y-82462431D01*
X35789014Y-82467311D01*
X35770771Y-82473202D01*
X35753291Y-82480102D01*
X35736574Y-82488012D01*
X35720621Y-82496932D01*
X35705431Y-82506862D01*
X35700537Y-82510396D01*
X35686727Y-82521457D01*
X35674275Y-82533228D01*
X35663181Y-82545709D01*
X35653446Y-82558898D01*
X35645069Y-82572797D01*
X35638050Y-82587404D01*
X35632390Y-82602722D01*
X35628089Y-82618748D01*
X35625146Y-82635484D01*
X35623561Y-82652929D01*
X35623259Y-82664953D01*
X35431077Y-82664953D01*
X35432136Y-82651927D01*
X35434727Y-82633208D01*
X35438355Y-82614901D01*
X35443019Y-82597006D01*
X35448720Y-82579521D01*
X35455457Y-82562448D01*
X35463231Y-82545787D01*
X35472041Y-82529536D01*
X35481888Y-82513698D01*
X35492771Y-82498270D01*
X35504691Y-82483254D01*
X35517648Y-82468650D01*
X35531640Y-82454457D01*
X35546670Y-82440675D01*
X35562736Y-82427304D01*
X35579601Y-82414510D01*
X35597031Y-82402541D01*
X35615024Y-82391397D01*
X35633581Y-82381078D01*
X35652702Y-82371586D01*
X35672386Y-82362918D01*
X35692634Y-82355076D01*
X35713446Y-82348060D01*
X35734821Y-82341869D01*
X35756760Y-82336503D01*
X35779262Y-82331963D01*
X35802329Y-82328249D01*
X35825958Y-82325360D01*
X35850152Y-82323296D01*
X35874909Y-82322058D01*
X35900230Y-82321645D01*
X35926692Y-82322039D01*
G37*
G36*
X35112401Y-64125487D02*
G01*
X34908604Y-64125487D01*
X34908604Y-63928529D01*
X35112401Y-63928529D01*
X35112401Y-64125487D01*
G37*
G36*
X35100775Y-65367755D02*
G01*
X35100399Y-65390734D01*
X35099273Y-65412997D01*
X35097397Y-65434545D01*
X35094769Y-65455377D01*
X35091391Y-65475492D01*
X35087263Y-65494892D01*
X35082383Y-65513576D01*
X35076753Y-65531544D01*
X35070373Y-65548796D01*
X35063241Y-65565332D01*
X35055359Y-65581152D01*
X35046727Y-65596256D01*
X35037343Y-65610644D01*
X35027209Y-65624316D01*
X35016325Y-65637273D01*
X35004689Y-65649513D01*
X34992422Y-65661066D01*
X34979642Y-65671873D01*
X34966349Y-65681935D01*
X34952544Y-65691251D01*
X34938225Y-65699822D01*
X34923393Y-65707648D01*
X34908049Y-65714729D01*
X34892191Y-65721064D01*
X34875821Y-65726654D01*
X34858938Y-65731499D01*
X34841541Y-65735598D01*
X34823632Y-65738952D01*
X34805210Y-65741560D01*
X34786275Y-65743424D01*
X34766827Y-65744542D01*
X34746867Y-65744914D01*
X34731640Y-65744638D01*
X34717628Y-65743985D01*
X34702414Y-65742948D01*
X34685999Y-65741527D01*
X34672001Y-65740114D01*
X34657233Y-65738455D01*
X34645652Y-65737050D01*
X34630244Y-65735110D01*
X34615476Y-65733053D01*
X34601350Y-65730879D01*
X34587865Y-65728587D01*
X34571910Y-65725556D01*
X34556956Y-65722342D01*
X34543005Y-65718945D01*
X34540335Y-65718243D01*
X34540335Y-65547957D01*
X34549909Y-65547957D01*
X34562611Y-65553506D01*
X34577080Y-65559383D01*
X34590889Y-65564680D01*
X34605995Y-65570218D01*
X34619576Y-65575016D01*
X34622401Y-65575996D01*
X34636661Y-65580527D01*
X34650804Y-65584291D01*
X34664831Y-65587286D01*
X34678740Y-65589513D01*
X34692533Y-65590973D01*
X34706209Y-65591664D01*
X34711647Y-65591725D01*
X34728498Y-65591426D01*
X34744516Y-65590528D01*
X34759700Y-65589032D01*
X34774051Y-65586938D01*
X34787568Y-65584245D01*
X34803293Y-65580038D01*
X34817715Y-65574895D01*
X34823119Y-65572577D01*
X34835852Y-65566125D01*
X34847549Y-65558739D01*
X34860220Y-65548641D01*
X34871400Y-65537197D01*
X34881089Y-65524406D01*
X34886720Y-65515131D01*
X34892879Y-65502877D01*
X34898321Y-65489839D01*
X34903044Y-65476016D01*
X34907050Y-65461409D01*
X34910337Y-65446016D01*
X34912907Y-65429839D01*
X34913733Y-65423149D01*
X34915256Y-65409279D01*
X34916576Y-65394682D01*
X34917692Y-65379359D01*
X34918606Y-65363309D01*
X34919317Y-65346533D01*
X34919824Y-65329030D01*
X34920129Y-65310800D01*
X34920224Y-65296651D01*
X34920230Y-65291844D01*
X34920230Y-64431865D01*
X34695918Y-64431865D01*
X34695918Y-64278676D01*
X35100775Y-64278676D01*
X35100775Y-65367755D01*
G37*
G36*
X36218576Y-64803896D02*
G01*
X36430921Y-64803896D01*
X36430921Y-64957085D01*
X36218576Y-64957085D01*
X36218576Y-65351000D01*
X36033929Y-65351000D01*
X36033929Y-64957085D01*
X35348339Y-64957085D01*
X35348339Y-64803896D01*
X35478960Y-64803896D01*
X36033929Y-64803896D01*
X36033929Y-64157287D01*
X35478960Y-64803896D01*
X35348339Y-64803896D01*
X35348339Y-64735849D01*
X36041451Y-63928529D01*
X36218576Y-63928529D01*
X36218576Y-64803896D01*
G37*
G36*
X28659517Y-35047361D02*
G01*
X28682785Y-35049068D01*
X28705379Y-35051913D01*
X28727301Y-35055896D01*
X28748549Y-35061017D01*
X28769124Y-35067276D01*
X28789026Y-35074673D01*
X28808255Y-35083208D01*
X28826811Y-35092881D01*
X28844693Y-35103692D01*
X28861902Y-35115642D01*
X28878438Y-35128729D01*
X28894301Y-35142954D01*
X28909491Y-35158317D01*
X28924007Y-35174819D01*
X28937850Y-35192458D01*
X28950976Y-35211066D01*
X28963255Y-35230558D01*
X28974688Y-35250934D01*
X28985273Y-35272194D01*
X28995012Y-35294339D01*
X29003904Y-35317368D01*
X29011949Y-35341281D01*
X29019147Y-35366078D01*
X29025498Y-35391760D01*
X29031002Y-35418325D01*
X29033437Y-35431940D01*
X29035660Y-35445775D01*
X29037671Y-35459832D01*
X29039471Y-35474110D01*
X29041058Y-35488608D01*
X29042435Y-35503328D01*
X29043599Y-35518269D01*
X29044552Y-35533431D01*
X29045293Y-35548814D01*
X29045822Y-35564418D01*
X29046139Y-35580243D01*
X29046245Y-35596289D01*
X29046098Y-35612402D01*
X29045658Y-35628341D01*
X29044923Y-35644106D01*
X29043895Y-35659698D01*
X29042572Y-35675116D01*
X29040956Y-35690360D01*
X29039046Y-35705431D01*
X29036842Y-35720328D01*
X29034344Y-35735051D01*
X29031553Y-35749601D01*
X29028467Y-35763977D01*
X29025088Y-35778180D01*
X29021415Y-35792209D01*
X29017448Y-35806064D01*
X29013187Y-35819746D01*
X29008632Y-35833254D01*
X29003851Y-35846546D01*
X28998828Y-35859583D01*
X28993561Y-35872363D01*
X28988051Y-35884886D01*
X28979331Y-35903191D01*
X28970064Y-35920918D01*
X28960249Y-35938069D01*
X28949888Y-35954642D01*
X28938979Y-35970639D01*
X28927524Y-35986058D01*
X28915522Y-36000900D01*
X28902973Y-36015166D01*
X28890849Y-36028094D01*
X28878329Y-36040462D01*
X28865412Y-36052272D01*
X28852098Y-36063523D01*
X28838388Y-36074215D01*
X28824281Y-36084348D01*
X28809777Y-36093922D01*
X28794877Y-36102937D01*
X28779580Y-36111393D01*
X28763886Y-36119290D01*
X28753203Y-36124244D01*
X28737020Y-36131150D01*
X28720657Y-36137376D01*
X28704114Y-36142923D01*
X28687390Y-36147790D01*
X28670486Y-36151979D01*
X28653402Y-36155488D01*
X28636137Y-36158318D01*
X28618692Y-36160469D01*
X28601067Y-36161940D01*
X28583261Y-36162733D01*
X28571291Y-36162884D01*
X28555721Y-36162724D01*
X28540428Y-36162247D01*
X28525411Y-36161450D01*
X28510671Y-36160335D01*
X28496208Y-36158902D01*
X28482020Y-36157149D01*
X28468110Y-36155079D01*
X28454475Y-36152690D01*
X28436727Y-36149008D01*
X28419469Y-36144761D01*
X28402506Y-36139915D01*
X28385468Y-36134439D01*
X28368355Y-36128332D01*
X28355471Y-36123338D01*
X28342545Y-36117989D01*
X28329577Y-36112286D01*
X28316567Y-36106228D01*
X28303515Y-36099816D01*
X28290420Y-36093049D01*
X28281668Y-36088341D01*
X28281668Y-36534914D01*
X28100781Y-36534914D01*
X28100781Y-35950197D01*
X28281668Y-35950197D01*
X28295901Y-35956480D01*
X28309749Y-35962379D01*
X28323213Y-35967892D01*
X28336292Y-35973021D01*
X28353133Y-35979262D01*
X28369290Y-35984818D01*
X28384762Y-35989691D01*
X28399551Y-35993880D01*
X28413656Y-35997385D01*
X28427740Y-36000270D01*
X28442294Y-36002770D01*
X28457318Y-36004886D01*
X28472812Y-36006617D01*
X28488776Y-36007963D01*
X28505211Y-36008925D01*
X28522115Y-36009502D01*
X28539490Y-36009695D01*
X28558081Y-36009298D01*
X28576153Y-36008108D01*
X28593706Y-36006124D01*
X28610742Y-36003347D01*
X28627259Y-35999777D01*
X28643258Y-35995413D01*
X28658739Y-35990256D01*
X28673702Y-35984306D01*
X28688146Y-35977562D01*
X28702072Y-35970024D01*
X28715480Y-35961693D01*
X28728369Y-35952569D01*
X28740741Y-35942652D01*
X28752594Y-35931941D01*
X28763928Y-35920436D01*
X28774745Y-35908138D01*
X28785014Y-35895062D01*
X28794620Y-35881221D01*
X28803564Y-35866617D01*
X28811845Y-35851248D01*
X28819464Y-35835115D01*
X28826421Y-35818219D01*
X28832715Y-35800558D01*
X28838346Y-35782133D01*
X28843315Y-35762945D01*
X28847621Y-35742992D01*
X28851265Y-35722275D01*
X28854246Y-35700795D01*
X28856565Y-35678550D01*
X28858221Y-35655541D01*
X28859215Y-35631768D01*
X28859546Y-35607231D01*
X28859287Y-35583421D01*
X28858510Y-35560375D01*
X28857214Y-35538093D01*
X28855400Y-35516574D01*
X28853068Y-35495820D01*
X28850218Y-35475830D01*
X28846849Y-35456604D01*
X28842962Y-35438142D01*
X28838557Y-35420444D01*
X28833633Y-35403510D01*
X28828192Y-35387340D01*
X28822232Y-35371934D01*
X28815754Y-35357292D01*
X28808757Y-35343414D01*
X28801243Y-35330300D01*
X28793210Y-35317950D01*
X28784640Y-35306315D01*
X28775514Y-35295430D01*
X28765833Y-35285296D01*
X28755596Y-35275913D01*
X28744804Y-35267280D01*
X28733456Y-35259398D01*
X28721552Y-35252267D01*
X28709093Y-35245886D01*
X28696077Y-35240256D01*
X28682507Y-35235377D01*
X28668380Y-35231248D01*
X28653698Y-35227870D01*
X28638461Y-35225243D01*
X28622667Y-35223366D01*
X28606318Y-35222240D01*
X28589414Y-35221865D01*
X28574787Y-35222159D01*
X28560142Y-35223043D01*
X28545479Y-35224516D01*
X28530798Y-35226577D01*
X28516098Y-35229228D01*
X28501381Y-35232468D01*
X28486646Y-35236296D01*
X28471893Y-35240714D01*
X28457122Y-35245721D01*
X28442333Y-35251317D01*
X28432463Y-35255375D01*
X28417774Y-35261844D01*
X28403199Y-35268687D01*
X28388739Y-35275901D01*
X28374392Y-35283489D01*
X28360160Y-35291449D01*
X28346042Y-35299782D01*
X28332038Y-35308487D01*
X28318148Y-35317565D01*
X28304373Y-35327016D01*
X28290712Y-35336839D01*
X28281668Y-35343595D01*
X28281668Y-35950197D01*
X28100781Y-35950197D01*
X28100781Y-35068676D01*
X28281668Y-35068676D01*
X28281668Y-35188013D01*
X28295352Y-35176903D01*
X28309349Y-35166142D01*
X28323658Y-35155729D01*
X28338280Y-35145666D01*
X28353214Y-35135950D01*
X28368462Y-35126584D01*
X28384021Y-35117566D01*
X28399893Y-35108896D01*
X28416078Y-35100576D01*
X28432575Y-35092603D01*
X28443747Y-35087482D01*
X28460714Y-35080211D01*
X28477892Y-35073654D01*
X28495280Y-35067813D01*
X28512878Y-35062686D01*
X28530686Y-35058276D01*
X28548705Y-35054580D01*
X28566935Y-35051600D01*
X28585374Y-35049335D01*
X28604024Y-35047785D01*
X28622885Y-35046950D01*
X28635575Y-35046792D01*
X28659517Y-35047361D01*
G37*
G36*
X29755105Y-35046938D02*
G01*
X29768964Y-35047378D01*
X29782644Y-35048111D01*
X29809470Y-35050456D01*
X29835583Y-35053975D01*
X29860983Y-35058666D01*
X29885670Y-35064529D01*
X29909643Y-35071566D01*
X29932903Y-35079775D01*
X29955449Y-35089157D01*
X29977283Y-35099712D01*
X29998403Y-35111439D01*
X30018810Y-35124339D01*
X30038503Y-35138412D01*
X30057484Y-35153658D01*
X30075751Y-35170077D01*
X30093305Y-35187668D01*
X30101814Y-35196903D01*
X30118128Y-35216089D01*
X30133390Y-35236119D01*
X30147599Y-35256994D01*
X30160756Y-35278712D01*
X30172860Y-35301275D01*
X30183912Y-35324682D01*
X30193911Y-35348933D01*
X30202857Y-35374028D01*
X30210751Y-35399967D01*
X30214304Y-35413254D01*
X30217593Y-35426751D01*
X30220619Y-35440459D01*
X30223382Y-35454379D01*
X30225882Y-35468509D01*
X30228118Y-35482851D01*
X30230092Y-35497403D01*
X30231802Y-35512167D01*
X30233249Y-35527141D01*
X30234433Y-35542327D01*
X30235354Y-35557723D01*
X30236012Y-35573331D01*
X30236407Y-35589150D01*
X30236538Y-35605180D01*
X30236407Y-35621230D01*
X30236012Y-35637068D01*
X30235354Y-35652694D01*
X30234433Y-35668107D01*
X30233249Y-35683308D01*
X30231802Y-35698297D01*
X30230092Y-35713073D01*
X30228118Y-35727637D01*
X30225882Y-35741988D01*
X30223382Y-35756127D01*
X30220619Y-35770054D01*
X30217593Y-35783768D01*
X30214304Y-35797270D01*
X30210751Y-35810560D01*
X30202857Y-35836502D01*
X30193911Y-35861594D01*
X30183912Y-35885837D01*
X30172860Y-35909231D01*
X30160756Y-35931775D01*
X30147599Y-35953469D01*
X30133390Y-35974314D01*
X30118128Y-35994310D01*
X30101814Y-36013456D01*
X30084617Y-36031551D01*
X30066706Y-36048478D01*
X30048083Y-36064238D01*
X30028746Y-36078831D01*
X30008696Y-36092256D01*
X29987932Y-36104513D01*
X29966455Y-36115604D01*
X29944265Y-36125527D01*
X29921362Y-36134282D01*
X29897745Y-36141870D01*
X29873416Y-36148291D01*
X29848372Y-36153544D01*
X29822616Y-36157630D01*
X29796146Y-36160549D01*
X29768964Y-36162300D01*
X29755105Y-36162738D01*
X29741067Y-36162884D01*
X29726925Y-36162738D01*
X29712966Y-36162300D01*
X29699188Y-36161570D01*
X29672180Y-36159236D01*
X29645902Y-36155733D01*
X29620352Y-36151064D01*
X29595532Y-36145227D01*
X29571441Y-36138222D01*
X29548080Y-36130050D01*
X29525448Y-36120711D01*
X29503545Y-36110205D01*
X29482371Y-36098530D01*
X29461927Y-36085689D01*
X29442212Y-36071680D01*
X29423227Y-36056504D01*
X29404970Y-36040160D01*
X29387443Y-36022649D01*
X29378953Y-36013456D01*
X29362721Y-35994310D01*
X29347537Y-35974314D01*
X29333400Y-35953469D01*
X29320310Y-35931775D01*
X29308268Y-35909231D01*
X29297272Y-35885837D01*
X29287324Y-35861594D01*
X29278423Y-35836502D01*
X29270569Y-35810560D01*
X29267034Y-35797270D01*
X29263762Y-35783768D01*
X29260751Y-35770054D01*
X29258002Y-35756127D01*
X29255515Y-35741988D01*
X29253290Y-35727637D01*
X29251327Y-35713073D01*
X29249625Y-35698297D01*
X29248185Y-35683308D01*
X29247007Y-35668107D01*
X29246091Y-35652694D01*
X29245436Y-35637068D01*
X29245043Y-35621230D01*
X29244912Y-35605180D01*
X29431612Y-35605180D01*
X29431931Y-35629680D01*
X29432889Y-35653430D01*
X29434485Y-35676430D01*
X29436719Y-35698679D01*
X29439593Y-35720177D01*
X29443104Y-35740924D01*
X29447254Y-35760921D01*
X29452043Y-35780167D01*
X29457470Y-35798663D01*
X29463535Y-35816408D01*
X29470239Y-35833402D01*
X29477581Y-35849645D01*
X29485562Y-35865138D01*
X29494181Y-35879880D01*
X29503439Y-35893872D01*
X29513335Y-35907113D01*
X29523802Y-35919535D01*
X29534771Y-35931155D01*
X29546242Y-35941974D01*
X29558215Y-35951992D01*
X29570690Y-35961209D01*
X29583668Y-35969623D01*
X29597148Y-35977237D01*
X29611130Y-35984049D01*
X29625615Y-35990060D01*
X29640601Y-35995269D01*
X29656090Y-35999677D01*
X29672081Y-36003283D01*
X29688574Y-36006088D01*
X29705570Y-36008092D01*
X29723067Y-36009294D01*
X29741067Y-36009695D01*
X29758862Y-36009298D01*
X29776170Y-36008108D01*
X29792992Y-36006124D01*
X29809327Y-36003347D01*
X29825177Y-35999777D01*
X29840540Y-35995413D01*
X29855417Y-35990256D01*
X29869808Y-35984306D01*
X29883712Y-35977562D01*
X29897131Y-35970024D01*
X29910063Y-35961693D01*
X29922509Y-35952569D01*
X29934469Y-35942652D01*
X29945943Y-35931941D01*
X29956930Y-35920436D01*
X29967432Y-35908138D01*
X29977411Y-35895014D01*
X29986746Y-35881114D01*
X29995437Y-35866440D01*
X30003485Y-35850992D01*
X30010889Y-35834768D01*
X30017649Y-35817770D01*
X30023765Y-35799997D01*
X30029237Y-35781450D01*
X30034066Y-35762127D01*
X30038251Y-35742030D01*
X30041792Y-35721159D01*
X30044689Y-35699512D01*
X30046942Y-35677091D01*
X30048552Y-35653895D01*
X30049517Y-35629925D01*
X30049839Y-35605180D01*
X30049520Y-35579904D01*
X30048562Y-35555454D01*
X30046966Y-35531829D01*
X30044731Y-35509030D01*
X30041858Y-35487057D01*
X30038347Y-35465908D01*
X30034197Y-35445586D01*
X30029408Y-35426088D01*
X30023981Y-35407417D01*
X30017916Y-35389570D01*
X30011212Y-35372549D01*
X30003870Y-35356354D01*
X29995889Y-35340984D01*
X29987270Y-35326440D01*
X29978012Y-35312721D01*
X29968116Y-35299827D01*
X29957652Y-35287736D01*
X29946691Y-35276426D01*
X29935233Y-35265895D01*
X29923279Y-35256144D01*
X29910827Y-35247174D01*
X29897879Y-35238983D01*
X29884434Y-35231573D01*
X29870492Y-35224942D01*
X29856053Y-35219092D01*
X29841117Y-35214022D01*
X29825684Y-35209731D01*
X29809755Y-35206221D01*
X29793328Y-35203491D01*
X29776405Y-35201541D01*
X29758985Y-35200371D01*
X29741067Y-35199981D01*
X29722945Y-35200371D01*
X29705335Y-35201541D01*
X29688238Y-35203491D01*
X29671654Y-35206221D01*
X29655582Y-35209731D01*
X29640024Y-35214022D01*
X29624979Y-35219092D01*
X29610446Y-35224942D01*
X29596427Y-35231573D01*
X29582920Y-35238983D01*
X29569926Y-35247174D01*
X29557446Y-35256144D01*
X29545478Y-35265895D01*
X29534023Y-35276426D01*
X29523081Y-35287736D01*
X29512651Y-35299827D01*
X29502838Y-35312721D01*
X29493658Y-35326440D01*
X29485111Y-35340984D01*
X29477197Y-35356354D01*
X29469916Y-35372549D01*
X29463268Y-35389570D01*
X29457253Y-35407417D01*
X29451872Y-35426088D01*
X29447123Y-35445586D01*
X29443008Y-35465908D01*
X29439526Y-35487057D01*
X29436677Y-35509030D01*
X29434461Y-35531829D01*
X29432878Y-35555454D01*
X29431928Y-35579904D01*
X29431612Y-35605180D01*
X29244912Y-35605180D01*
X29245043Y-35589150D01*
X29245436Y-35573331D01*
X29246091Y-35557723D01*
X29247007Y-35542327D01*
X29248185Y-35527141D01*
X29249625Y-35512167D01*
X29251327Y-35497403D01*
X29253290Y-35482851D01*
X29255515Y-35468509D01*
X29258002Y-35454379D01*
X29260751Y-35440459D01*
X29263762Y-35426751D01*
X29267034Y-35413254D01*
X29270569Y-35399967D01*
X29278423Y-35374028D01*
X29287324Y-35348933D01*
X29297272Y-35324682D01*
X29308268Y-35301275D01*
X29320310Y-35278712D01*
X29333400Y-35256994D01*
X29347537Y-35236119D01*
X29362721Y-35216089D01*
X29378953Y-35196903D01*
X29396115Y-35178726D01*
X29414007Y-35161721D01*
X29432628Y-35145889D01*
X29451979Y-35131229D01*
X29472058Y-35117743D01*
X29492867Y-35105429D01*
X29514405Y-35094288D01*
X29536673Y-35084319D01*
X29559670Y-35075524D01*
X29583396Y-35067901D01*
X29607851Y-35061451D01*
X29633036Y-35056174D01*
X29658950Y-35052069D01*
X29685593Y-35049137D01*
X29712966Y-35047378D01*
X29726925Y-35046938D01*
X29741067Y-35046792D01*
X29755105Y-35046938D01*
G37*
G36*
X31067453Y-36131425D02*
G01*
X31051306Y-36135583D01*
X31034708Y-36139506D01*
X31021105Y-36142477D01*
X31007214Y-36145298D01*
X30993034Y-36147969D01*
X30978566Y-36150491D01*
X30963809Y-36152863D01*
X30956322Y-36153993D01*
X30941485Y-36156077D01*
X30927065Y-36157883D01*
X30913061Y-36159411D01*
X30896143Y-36160930D01*
X30879876Y-36162015D01*
X30864260Y-36162667D01*
X30849295Y-36162884D01*
X30829043Y-36162539D01*
X30809405Y-36161505D01*
X30790382Y-36159782D01*
X30771974Y-36157370D01*
X30754179Y-36154268D01*
X30737000Y-36150478D01*
X30720434Y-36145998D01*
X30704483Y-36140829D01*
X30689147Y-36134970D01*
X30674425Y-36128423D01*
X30660317Y-36121186D01*
X30646824Y-36113260D01*
X30633945Y-36104644D01*
X30621680Y-36095340D01*
X30610030Y-36085346D01*
X30598995Y-36074663D01*
X30588643Y-36063219D01*
X30578959Y-36050941D01*
X30569943Y-36037830D01*
X30561595Y-36023885D01*
X30553915Y-36009107D01*
X30546902Y-35993495D01*
X30540558Y-35977050D01*
X30534881Y-35959771D01*
X30529872Y-35941659D01*
X30525531Y-35922714D01*
X30521858Y-35902934D01*
X30518853Y-35882322D01*
X30516515Y-35860876D01*
X30514846Y-35838596D01*
X30513844Y-35815483D01*
X30513510Y-35791537D01*
X30513510Y-35221865D01*
X30391095Y-35221865D01*
X30391095Y-35068676D01*
X30513510Y-35068676D01*
X30513510Y-34762297D01*
X30694054Y-34762297D01*
X30694054Y-35068676D01*
X31067453Y-35068676D01*
X31067453Y-35221865D01*
X30694054Y-35221865D01*
X30694054Y-35713233D01*
X30694087Y-35728869D01*
X30694186Y-35743851D01*
X30694352Y-35758177D01*
X30694675Y-35776260D01*
X30695116Y-35793178D01*
X30695674Y-35808931D01*
X30696350Y-35823520D01*
X30697360Y-35840118D01*
X30697815Y-35846247D01*
X30699557Y-35860958D01*
X30702217Y-35875386D01*
X30705795Y-35889529D01*
X30710291Y-35903389D01*
X30715706Y-35916964D01*
X30722038Y-35930256D01*
X30724829Y-35935494D01*
X30733332Y-35949250D01*
X30742941Y-35961540D01*
X30753656Y-35972363D01*
X30765477Y-35981720D01*
X30778404Y-35989610D01*
X30782959Y-35991914D01*
X30798294Y-35997956D01*
X30813148Y-36002037D01*
X30829890Y-36005249D01*
X30844641Y-36007194D01*
X30860600Y-36008583D01*
X30877767Y-36009417D01*
X30896141Y-36009695D01*
X30910025Y-36009294D01*
X30924110Y-36008092D01*
X30938396Y-36006088D01*
X30952881Y-36003283D01*
X30967567Y-35999677D01*
X30982454Y-35995269D01*
X30988464Y-35993281D01*
X31002872Y-35988286D01*
X31015960Y-35983558D01*
X31029925Y-35978236D01*
X31043816Y-35972514D01*
X31056527Y-35966615D01*
X31057878Y-35965926D01*
X31067453Y-35965926D01*
X31067453Y-36131425D01*
G37*
G36*
X32915296Y-36141000D02*
G01*
X31945896Y-36141000D01*
X31945896Y-35929339D01*
X31958508Y-35918868D01*
X31971125Y-35908400D01*
X31983748Y-35897935D01*
X31996375Y-35887472D01*
X32009008Y-35877012D01*
X32021647Y-35866555D01*
X32034291Y-35856101D01*
X32046940Y-35845649D01*
X32059594Y-35835200D01*
X32072254Y-35824753D01*
X32084919Y-35814309D01*
X32097590Y-35803868D01*
X32110265Y-35793430D01*
X32122947Y-35782994D01*
X32135633Y-35772561D01*
X32148325Y-35762130D01*
X32160965Y-35751662D01*
X32173495Y-35741202D01*
X32185916Y-35730750D01*
X32198227Y-35720306D01*
X32210428Y-35709871D01*
X32222521Y-35699443D01*
X32234503Y-35689023D01*
X32246376Y-35678611D01*
X32258140Y-35668207D01*
X32269794Y-35657812D01*
X32281338Y-35647424D01*
X32292773Y-35637044D01*
X32304099Y-35626672D01*
X32315315Y-35616309D01*
X32326421Y-35605953D01*
X32337418Y-35595605D01*
X32348844Y-35584882D01*
X32360043Y-35574298D01*
X32371014Y-35563853D01*
X32381758Y-35553547D01*
X32392273Y-35543379D01*
X32402561Y-35533351D01*
X32412621Y-35523461D01*
X32422454Y-35513711D01*
X32441436Y-35494626D01*
X32459506Y-35476097D01*
X32476666Y-35458124D01*
X32492915Y-35440706D01*
X32508253Y-35423844D01*
X32522680Y-35407538D01*
X32536196Y-35391788D01*
X32548801Y-35376593D01*
X32560495Y-35361953D01*
X32571278Y-35347870D01*
X32581150Y-35334342D01*
X32590111Y-35321369D01*
X32598393Y-35308568D01*
X32606140Y-35295638D01*
X32613353Y-35282581D01*
X32620031Y-35269394D01*
X32626175Y-35256080D01*
X32631785Y-35242638D01*
X32636861Y-35229067D01*
X32641402Y-35215368D01*
X32645409Y-35201541D01*
X32648882Y-35187585D01*
X32651821Y-35173502D01*
X32654225Y-35159290D01*
X32656095Y-35144950D01*
X32657431Y-35130481D01*
X32658232Y-35115885D01*
X32658499Y-35101160D01*
X32657853Y-35081376D01*
X32655915Y-35062415D01*
X32652684Y-35044278D01*
X32648161Y-35026964D01*
X32642346Y-35010474D01*
X32635238Y-34994807D01*
X32626838Y-34979964D01*
X32617146Y-34965944D01*
X32606162Y-34952748D01*
X32593885Y-34940375D01*
X32584982Y-34932584D01*
X32570684Y-34921706D01*
X32555358Y-34911899D01*
X32539004Y-34903161D01*
X32521622Y-34895494D01*
X32503212Y-34888896D01*
X32483775Y-34883368D01*
X32470245Y-34880277D01*
X32456259Y-34877662D01*
X32441816Y-34875522D01*
X32426917Y-34873858D01*
X32411560Y-34872669D01*
X32395747Y-34871956D01*
X32379476Y-34871718D01*
X32362937Y-34871956D01*
X32346145Y-34872668D01*
X32329101Y-34873855D01*
X32311804Y-34875517D01*
X32294255Y-34877654D01*
X32276454Y-34880265D01*
X32258400Y-34883352D01*
X32240093Y-34886913D01*
X32221534Y-34890949D01*
X32202723Y-34895460D01*
X32190042Y-34898732D01*
X32170978Y-34904046D01*
X32151998Y-34909859D01*
X32133103Y-34916171D01*
X32114291Y-34922983D01*
X32095564Y-34930293D01*
X32076921Y-34938101D01*
X32058362Y-34946409D01*
X32039887Y-34955216D01*
X32027617Y-34961364D01*
X32015385Y-34967734D01*
X32003190Y-34974326D01*
X31991033Y-34981139D01*
X31981458Y-34981139D01*
X31981458Y-34783840D01*
X31994681Y-34777736D01*
X32008703Y-34771734D01*
X32023524Y-34765835D01*
X32039145Y-34760037D01*
X32055565Y-34754342D01*
X32072784Y-34748749D01*
X32090803Y-34743259D01*
X32109622Y-34737870D01*
X32129239Y-34732584D01*
X32142762Y-34729116D01*
X32156640Y-34725694D01*
X32163712Y-34724000D01*
X32177919Y-34720688D01*
X32192072Y-34717589D01*
X32206172Y-34714704D01*
X32220218Y-34712032D01*
X32234211Y-34709575D01*
X32248150Y-34707331D01*
X32262036Y-34705300D01*
X32275869Y-34703484D01*
X32289648Y-34701881D01*
X32303373Y-34700492D01*
X32317046Y-34699316D01*
X32337454Y-34697954D01*
X32357742Y-34697072D01*
X32377910Y-34696672D01*
X32384605Y-34696645D01*
X32411759Y-34697051D01*
X32438167Y-34698269D01*
X32463830Y-34700299D01*
X32488748Y-34703142D01*
X32512920Y-34706796D01*
X32536347Y-34711263D01*
X32559028Y-34716542D01*
X32580964Y-34722632D01*
X32602155Y-34729535D01*
X32622601Y-34737250D01*
X32642301Y-34745778D01*
X32661256Y-34755117D01*
X32679466Y-34765268D01*
X32696930Y-34776232D01*
X32713649Y-34788007D01*
X32729623Y-34800595D01*
X32744778Y-34813877D01*
X32758955Y-34827736D01*
X32772154Y-34842173D01*
X32784376Y-34857186D01*
X32795620Y-34872776D01*
X32805886Y-34888943D01*
X32815175Y-34905688D01*
X32823485Y-34923009D01*
X32830818Y-34940908D01*
X32837174Y-34959383D01*
X32842551Y-34978436D01*
X32846951Y-34998065D01*
X32850373Y-35018272D01*
X32852817Y-35039055D01*
X32854284Y-35060416D01*
X32854773Y-35082353D01*
X32854590Y-35097263D01*
X32854040Y-35111986D01*
X32853123Y-35126523D01*
X32851840Y-35140873D01*
X32850190Y-35155037D01*
X32848173Y-35169015D01*
X32845790Y-35182807D01*
X32843040Y-35196412D01*
X32839924Y-35209830D01*
X32836440Y-35223063D01*
X32833915Y-35231781D01*
X32828476Y-35248937D01*
X32822417Y-35265868D01*
X32815738Y-35282575D01*
X32808440Y-35299058D01*
X32800522Y-35315316D01*
X32791984Y-35331350D01*
X32785174Y-35343228D01*
X32778015Y-35354980D01*
X32773049Y-35362744D01*
X32763443Y-35377330D01*
X32753430Y-35391852D01*
X32743012Y-35406309D01*
X32732187Y-35420703D01*
X32720957Y-35435032D01*
X32712267Y-35445737D01*
X32703350Y-35456406D01*
X32694203Y-35467039D01*
X32684829Y-35477636D01*
X32675212Y-35488323D01*
X32665210Y-35499226D01*
X32654824Y-35510346D01*
X32644052Y-35521682D01*
X32632897Y-35533235D01*
X32621356Y-35545003D01*
X32609431Y-35556989D01*
X32597121Y-35569190D01*
X32584427Y-35581608D01*
X32571347Y-35594243D01*
X32562414Y-35602786D01*
X32549522Y-35615115D01*
X32536576Y-35627395D01*
X32523577Y-35639627D01*
X32510525Y-35651812D01*
X32497419Y-35663948D01*
X32484260Y-35676036D01*
X32471047Y-35688076D01*
X32457781Y-35700068D01*
X32444461Y-35712012D01*
X32431088Y-35723908D01*
X32417661Y-35735755D01*
X32404182Y-35747555D01*
X32390648Y-35759306D01*
X32377061Y-35771010D01*
X32363421Y-35782665D01*
X32349728Y-35794272D01*
X32336065Y-35805802D01*
X32322517Y-35817225D01*
X32309083Y-35828541D01*
X32295765Y-35839750D01*
X32282562Y-35850853D01*
X32269473Y-35861848D01*
X32256499Y-35872737D01*
X32243641Y-35883519D01*
X32230897Y-35894194D01*
X32218268Y-35904762D01*
X32205753Y-35915223D01*
X32193354Y-35925577D01*
X32181070Y-35935825D01*
X32168900Y-35945965D01*
X32156845Y-35955999D01*
X32144906Y-35965926D01*
X32915296Y-35965926D01*
X32915296Y-36141000D01*
G37*
D10*
%TO.C,mouse-bite-2mm-slot*%
X42656000Y-99485200D02*
G75*
G03*
X40656000Y-99485200I-1000000J0D01*
G01*
X40656000Y-95485200D02*
G75*
G03*
X42656000Y-95485200I1000000J0D01*
G01*
X42668000Y-62236800D02*
G75*
G03*
X40668000Y-62236800I-1000000J0D01*
G01*
X40668000Y-58236800D02*
G75*
G03*
X42668000Y-58236800I1000000J0D01*
G01*
X42668000Y-22155600D02*
G75*
G03*
X40668000Y-22155600I-1000000J0D01*
G01*
X40668000Y-18155600D02*
G75*
G03*
X42668000Y-18155600I1000000J0D01*
G01*
D13*
%TO.C,U11*%
X59642000Y-81826000D02*
X59642000Y-82096000D01*
X59642000Y-82096000D02*
X56812000Y-82096000D01*
X59642000Y-88456000D02*
X58542000Y-88456000D01*
X59642000Y-88726000D02*
X59642000Y-88456000D01*
X66062000Y-81826000D02*
X59642000Y-81826000D01*
X66062000Y-88726000D02*
X59642000Y-88726000D01*
%TO.C,LED2*%
X3180000Y-91945000D02*
X6980000Y-91945000D01*
X3180000Y-94745000D02*
X3180000Y-93995000D01*
X3180000Y-94745000D02*
X6980000Y-94745000D01*
%TO.C,R13*%
X61494641Y-19241000D02*
X61187359Y-19241000D01*
X61494641Y-18481000D02*
X61187359Y-18481000D01*
%TO.C,SW5*%
X77741000Y-51184000D02*
X77741000Y-49784000D01*
X75421000Y-49784000D02*
X75421000Y-51684000D01*
%TO.C,C3*%
X69617000Y-52877836D02*
X69617000Y-52662164D01*
X70337000Y-52877836D02*
X70337000Y-52662164D01*
%TO.C,LED1*%
X3180000Y-73530000D02*
X6980000Y-73530000D01*
X3180000Y-76330000D02*
X3180000Y-75580000D01*
X3180000Y-76330000D02*
X6980000Y-76330000D01*
%TO.C,D2*%
X70232000Y-71012000D02*
X73532000Y-71012000D01*
X70232000Y-71012000D02*
X70232000Y-65502000D01*
X73532000Y-71012000D02*
X73532000Y-65502000D01*
%TO.C,U8*%
X69850000Y-24459000D02*
X66400000Y-24459000D01*
X69850000Y-24459000D02*
X71800000Y-24459000D01*
X69850000Y-33329000D02*
X67900000Y-33329000D01*
X69850000Y-33329000D02*
X71800000Y-33329000D01*
%TO.C,R59*%
X56488359Y-50612000D02*
X56795641Y-50612000D01*
X56488359Y-51372000D02*
X56795641Y-51372000D01*
%TO.C,J17*%
X40060000Y-106100000D02*
X31060000Y-106100000D01*
X31060000Y-106100000D02*
X31060000Y-95600000D01*
X31060000Y-95600000D02*
X40060000Y-95600000D01*
X40060000Y-95600000D02*
X40060000Y-106100000D01*
%TO.C,D3*%
X70792000Y-36784000D02*
X70792000Y-38784000D01*
X70792000Y-36784000D02*
X74802000Y-36784000D01*
X70792000Y-38784000D02*
X74802000Y-38784000D01*
%TO.C,R5*%
X59564000Y-56225641D02*
X59564000Y-55918359D01*
X60324000Y-56225641D02*
X60324000Y-55918359D01*
%TO.C,R12*%
X75312000Y-16093641D02*
X75312000Y-15786359D01*
X76072000Y-16093641D02*
X76072000Y-15786359D01*
%TO.C,D6*%
X68908000Y-91362000D02*
X68908000Y-89362000D01*
X68908000Y-91362000D02*
X64898000Y-91362000D01*
X68908000Y-89362000D02*
X64898000Y-89362000D01*
%TO.C,R32*%
X65658000Y-25438359D02*
X65658000Y-25745641D01*
X64898000Y-25438359D02*
X64898000Y-25745641D01*
%TO.C,C13*%
X59161000Y-55964164D02*
X59161000Y-56179836D01*
X58441000Y-55964164D02*
X58441000Y-56179836D01*
%TO.C,R29*%
X63628000Y-25745641D02*
X63628000Y-25438359D01*
X64388000Y-25745641D02*
X64388000Y-25438359D01*
%TO.C,R41*%
X64388000Y-22390359D02*
X64388000Y-22697641D01*
X63628000Y-22390359D02*
X63628000Y-22697641D01*
D11*
%TO.C,DAC2*%
X55221000Y-18837000D02*
X55221000Y-19062000D01*
X55221000Y-18837000D02*
X58571000Y-18837000D01*
X55221000Y-19062000D02*
X53996000Y-19062000D01*
X55221000Y-22187000D02*
X55221000Y-21887000D01*
X55221000Y-22187000D02*
X58571000Y-22187000D01*
X58571000Y-18837000D02*
X58571000Y-19137000D01*
X58571000Y-22187000D02*
X58571000Y-21887000D01*
D13*
%TO.C,R58*%
X56795641Y-50229000D02*
X56488359Y-50229000D01*
X56795641Y-49469000D02*
X56488359Y-49469000D01*
%TO.C,R11*%
X76988641Y-63310000D02*
X76681359Y-63310000D01*
X76988641Y-62550000D02*
X76681359Y-62550000D01*
%TO.C,U5*%
X65532000Y-76102000D02*
X63732000Y-76102000D01*
X65532000Y-76102000D02*
X66332000Y-76102000D01*
X65532000Y-79222000D02*
X64732000Y-79222000D01*
X65532000Y-79222000D02*
X66332000Y-79222000D01*
%TO.C,R48*%
X79020641Y-33592000D02*
X78713359Y-33592000D01*
X79020641Y-32832000D02*
X78713359Y-32832000D01*
%TO.C,C16*%
X63733000Y-55964164D02*
X63733000Y-56179836D01*
X63013000Y-55964164D02*
X63013000Y-56179836D01*
%TO.C,R33*%
X79020641Y-20892000D02*
X78713359Y-20892000D01*
X79020641Y-20132000D02*
X78713359Y-20132000D01*
%TO.C,J16*%
X29900000Y-106100000D02*
X20900000Y-106100000D01*
X20900000Y-106100000D02*
X20900000Y-95600000D01*
X20900000Y-95600000D02*
X29900000Y-95600000D01*
X29900000Y-95600000D02*
X29900000Y-106100000D01*
%TO.C,U9*%
X51378000Y-22417000D02*
X51378000Y-18817000D01*
X51378000Y-22417000D02*
X51378000Y-24617000D01*
X46158000Y-22417000D02*
X46158000Y-20217000D01*
X46158000Y-22417000D02*
X46158000Y-24617000D01*
%TO.C,P1*%
X58412000Y-94862000D02*
X58412000Y-96782000D01*
X58412000Y-100497000D02*
X58412000Y-98792000D01*
X67572000Y-96782000D02*
X67572000Y-94862000D01*
X67572000Y-98792000D02*
X67572000Y-100497000D01*
X67572000Y-100497000D02*
X58412000Y-100497000D01*
%TO.C,R49*%
X76072000Y-22390359D02*
X76072000Y-22697641D01*
X75312000Y-22390359D02*
X75312000Y-22697641D01*
%TO.C,C22*%
X75291836Y-29254000D02*
X75076164Y-29254000D01*
X75291836Y-28534000D02*
X75076164Y-28534000D01*
%TO.C,C27*%
X53065000Y-21039164D02*
X53065000Y-21254836D01*
X52345000Y-21039164D02*
X52345000Y-21254836D01*
%TO.C,J12*%
X29900000Y-87685000D02*
X20900000Y-87685000D01*
X20900000Y-87685000D02*
X20900000Y-77185000D01*
X20900000Y-77185000D02*
X29900000Y-77185000D01*
X29900000Y-77185000D02*
X29900000Y-87685000D01*
%TO.C,R17*%
X74802000Y-25438359D02*
X74802000Y-25745641D01*
X74042000Y-25438359D02*
X74042000Y-25745641D01*
%TO.C,LED10*%
X23500000Y-55115000D02*
X27300000Y-55115000D01*
X23500000Y-57915000D02*
X23500000Y-57165000D01*
X23500000Y-57915000D02*
X27300000Y-57915000D01*
%TO.C,LED3*%
X13340000Y-73530000D02*
X17140000Y-73530000D01*
X13340000Y-76330000D02*
X13340000Y-75580000D01*
X13340000Y-76330000D02*
X17140000Y-76330000D01*
%TO.C,R30*%
X61494641Y-23051000D02*
X61187359Y-23051000D01*
X61494641Y-22291000D02*
X61187359Y-22291000D01*
%TO.C,J4*%
X29900000Y-69270000D02*
X20900000Y-69270000D01*
X20900000Y-69270000D02*
X20900000Y-58770000D01*
X20900000Y-58770000D02*
X29900000Y-58770000D01*
X29900000Y-58770000D02*
X29900000Y-69270000D01*
%TO.C,R18*%
X79020641Y-18352000D02*
X78713359Y-18352000D01*
X79020641Y-17592000D02*
X78713359Y-17592000D01*
%TO.C,LED9*%
X3180000Y-55130000D02*
X6980000Y-55130000D01*
X3180000Y-57930000D02*
X3180000Y-57180000D01*
X3180000Y-57930000D02*
X6980000Y-57930000D01*
%TO.C,C40*%
X62590000Y-55964164D02*
X62590000Y-56179836D01*
X61870000Y-55964164D02*
X61870000Y-56179836D01*
%TO.C,U1*%
X74295000Y-43352000D02*
X70845000Y-43352000D01*
X74295000Y-43352000D02*
X76245000Y-43352000D01*
X74295000Y-48472000D02*
X72345000Y-48472000D01*
X74295000Y-48472000D02*
X76245000Y-48472000D01*
%TO.C,J3*%
X9580000Y-69270000D02*
X580000Y-69270000D01*
X580000Y-69270000D02*
X580000Y-58770000D01*
X580000Y-58770000D02*
X9580000Y-58770000D01*
X9580000Y-58770000D02*
X9580000Y-69270000D01*
%TO.C,Q1*%
X77978000Y-39272000D02*
X76303000Y-39272000D01*
X77978000Y-39272000D02*
X78628000Y-39272000D01*
X77978000Y-42392000D02*
X77328000Y-42392000D01*
X77978000Y-42392000D02*
X78628000Y-42392000D01*
%TO.C,R37*%
X47651641Y-15431000D02*
X47344359Y-15431000D01*
X47651641Y-14671000D02*
X47344359Y-14671000D01*
%TO.C,C32*%
X75291836Y-21126000D02*
X75076164Y-21126000D01*
X75291836Y-20406000D02*
X75076164Y-20406000D01*
%TO.C,C18*%
X79100000Y-45042164D02*
X79100000Y-45257836D01*
X78380000Y-45042164D02*
X78380000Y-45257836D01*
%TO.C,R62*%
X74776359Y-97602000D02*
X75083641Y-97602000D01*
X74776359Y-98362000D02*
X75083641Y-98362000D01*
%TO.C,R38*%
X47344359Y-15941000D02*
X47651641Y-15941000D01*
X47344359Y-16701000D02*
X47651641Y-16701000D01*
%TO.C,C36*%
X55393000Y-87421836D02*
X55393000Y-87206164D01*
X56113000Y-87421836D02*
X56113000Y-87206164D01*
%TO.C,R1*%
X70357000Y-54775359D02*
X70357000Y-55082641D01*
X69597000Y-54775359D02*
X69597000Y-55082641D01*
%TO.C,R39*%
X49884359Y-26863000D02*
X50191641Y-26863000D01*
X49884359Y-27623000D02*
X50191641Y-27623000D01*
%TO.C,U6*%
X75877000Y-61972000D02*
X75877000Y-61712000D01*
X75877000Y-61712000D02*
X77552000Y-61712000D01*
X75877000Y-56522000D02*
X75877000Y-56782000D01*
X73152000Y-61972000D02*
X75877000Y-61972000D01*
X73152000Y-61972000D02*
X70427000Y-61972000D01*
X73152000Y-56522000D02*
X75877000Y-56522000D01*
X73152000Y-56522000D02*
X70427000Y-56522000D01*
X70427000Y-61972000D02*
X70427000Y-61712000D01*
X70427000Y-56522000D02*
X70427000Y-56782000D01*
%TO.C,D5*%
X73532000Y-84312000D02*
X70232000Y-84312000D01*
X73532000Y-84312000D02*
X73532000Y-89822000D01*
X70232000Y-84312000D02*
X70232000Y-89822000D01*
%TO.C,R25*%
X49884359Y-17211000D02*
X50191641Y-17211000D01*
X49884359Y-17971000D02*
X50191641Y-17971000D01*
%TO.C,R43*%
X64388000Y-32042359D02*
X64388000Y-32349641D01*
X63628000Y-32042359D02*
X63628000Y-32349641D01*
%TO.C,C35*%
X56113000Y-84920164D02*
X56113000Y-85135836D01*
X55393000Y-84920164D02*
X55393000Y-85135836D01*
%TO.C,C24*%
X75291836Y-19602000D02*
X75076164Y-19602000D01*
X75291836Y-18882000D02*
X75076164Y-18882000D01*
%TO.C,C12*%
X75291836Y-27730000D02*
X75076164Y-27730000D01*
X75291836Y-27010000D02*
X75076164Y-27010000D01*
%TO.C,R9*%
X70230000Y-44361359D02*
X70230000Y-44668641D01*
X69470000Y-44361359D02*
X69470000Y-44668641D01*
%TO.C,C30*%
X64408164Y-30058000D02*
X64623836Y-30058000D01*
X64408164Y-30778000D02*
X64623836Y-30778000D01*
%TO.C,LED5*%
X23500000Y-73530000D02*
X27300000Y-73530000D01*
X23500000Y-76330000D02*
X23500000Y-75580000D01*
X23500000Y-76330000D02*
X27300000Y-76330000D01*
%TO.C,C41*%
X60981000Y-43479836D02*
X60981000Y-43264164D01*
X61701000Y-43479836D02*
X61701000Y-43264164D01*
%TO.C,SW3*%
X49784000Y-95950000D02*
X50800000Y-94934000D01*
X49784000Y-97474000D02*
X49784000Y-95950000D01*
X50800000Y-94934000D02*
X52324000Y-94934000D01*
X50800000Y-98490000D02*
X49784000Y-97474000D01*
X52324000Y-94934000D02*
X53340000Y-95950000D01*
X52324000Y-98490000D02*
X50800000Y-98490000D01*
X53340000Y-95950000D02*
X53340000Y-97474000D01*
X53340000Y-97474000D02*
X52324000Y-98490000D01*
X52562000Y-96712000D02*
G75*
G03*
X52562000Y-96712000I-1000000J0D01*
G01*
X54102000Y-95188000D02*
X54102000Y-98236000D01*
X53086000Y-99252000D01*
X50038000Y-99252000D01*
X49022000Y-98236000D01*
X49022000Y-95188000D01*
X50038000Y-94172000D01*
X53086000Y-94172000D01*
X54102000Y-95188000D01*
%TO.C,C21*%
X64623836Y-29254000D02*
X64408164Y-29254000D01*
X64623836Y-28534000D02*
X64408164Y-28534000D01*
%TO.C,J15*%
X19740000Y-106100000D02*
X10740000Y-106100000D01*
X10740000Y-106100000D02*
X10740000Y-95600000D01*
X10740000Y-95600000D02*
X19740000Y-95600000D01*
X19740000Y-95600000D02*
X19740000Y-106100000D01*
%TO.C,R56*%
X79020641Y-25972000D02*
X78713359Y-25972000D01*
X79020641Y-25212000D02*
X78713359Y-25212000D01*
%TO.C,R53*%
X74042000Y-22697641D02*
X74042000Y-22390359D01*
X74802000Y-22697641D02*
X74802000Y-22390359D01*
%TO.C,C7*%
X56418000Y-79039836D02*
X56418000Y-78824164D01*
X57138000Y-79039836D02*
X57138000Y-78824164D01*
%TO.C,SW1*%
X6223000Y-51022752D02*
X14097000Y-51022752D01*
X14097000Y-51022752D02*
G75*
G03*
X6223000Y-51022752I-3937000J4572000D01*
G01*
X14605000Y-46450752D02*
G75*
G03*
X14605000Y-46450752I-4445000J0D01*
G01*
%TO.C,R35*%
X50191641Y-30163000D02*
X49884359Y-30163000D01*
X50191641Y-29403000D02*
X49884359Y-29403000D01*
%TO.C,R8*%
X70230000Y-46520359D02*
X70230000Y-46827641D01*
X69470000Y-46520359D02*
X69470000Y-46827641D01*
%TO.C,LED8*%
X33660000Y-91945000D02*
X37460000Y-91945000D01*
X33660000Y-94745000D02*
X33660000Y-93995000D01*
X33660000Y-94745000D02*
X37460000Y-94745000D01*
%TO.C,C37*%
X53065000Y-15451164D02*
X53065000Y-15666836D01*
X52345000Y-15451164D02*
X52345000Y-15666836D01*
%TO.C,C38*%
X53065000Y-18245164D02*
X53065000Y-18460836D01*
X52345000Y-18245164D02*
X52345000Y-18460836D01*
%TO.C,LED4*%
X13340000Y-91945000D02*
X17140000Y-91945000D01*
X13340000Y-94745000D02*
X13340000Y-93995000D01*
X13340000Y-94745000D02*
X17140000Y-94745000D01*
%TO.C,C14*%
X69234164Y-50759000D02*
X69449836Y-50759000D01*
X69234164Y-51479000D02*
X69449836Y-51479000D01*
%TO.C,SW4*%
X73169000Y-51184000D02*
X73169000Y-49784000D01*
X70849000Y-49784000D02*
X70849000Y-51684000D01*
%TO.C,R16*%
X74802000Y-15786359D02*
X74802000Y-16093641D01*
X74042000Y-15786359D02*
X74042000Y-16093641D01*
%TO.C,R19*%
X79020641Y-28512000D02*
X78713359Y-28512000D01*
X79020641Y-27752000D02*
X78713359Y-27752000D01*
%TO.C,R15*%
X61494641Y-24321000D02*
X61187359Y-24321000D01*
X61494641Y-23561000D02*
X61187359Y-23561000D01*
%TO.C,C5*%
X56749836Y-49066000D02*
X56534164Y-49066000D01*
X56749836Y-48346000D02*
X56534164Y-48346000D01*
%TO.C,J13*%
X40060000Y-87685000D02*
X31060000Y-87685000D01*
X31060000Y-87685000D02*
X31060000Y-77185000D01*
X31060000Y-77185000D02*
X40060000Y-77185000D01*
X40060000Y-77185000D02*
X40060000Y-87685000D01*
%TO.C,U2*%
X77760000Y-54294000D02*
X77760000Y-52619000D01*
X77760000Y-54294000D02*
X77760000Y-54944000D01*
X74640000Y-54294000D02*
X74640000Y-53644000D01*
X74640000Y-54294000D02*
X74640000Y-54944000D01*
%TO.C,R61*%
X79120000Y-47155359D02*
X79120000Y-47462641D01*
X78360000Y-47155359D02*
X78360000Y-47462641D01*
%TO.C,R60*%
X56488359Y-52898000D02*
X56795641Y-52898000D01*
X56488359Y-53658000D02*
X56795641Y-53658000D01*
%TO.C,J7*%
X19740000Y-87685000D02*
X10740000Y-87685000D01*
X10740000Y-87685000D02*
X10740000Y-77185000D01*
X10740000Y-77185000D02*
X19740000Y-77185000D01*
X19740000Y-77185000D02*
X19740000Y-87685000D01*
%TO.C,C2*%
X78973000Y-56853164D02*
X78973000Y-57068836D01*
X78253000Y-56853164D02*
X78253000Y-57068836D01*
%TO.C,C23*%
X64623836Y-19602000D02*
X64408164Y-19602000D01*
X64623836Y-18882000D02*
X64408164Y-18882000D01*
%TO.C,C25*%
X72143252Y-83477000D02*
X71620748Y-83477000D01*
X72143252Y-82007000D02*
X71620748Y-82007000D01*
%TO.C,R54*%
X74042000Y-32347641D02*
X74042000Y-32040359D01*
X74802000Y-32347641D02*
X74802000Y-32040359D01*
%TO.C,U3*%
X49820000Y-33847000D02*
X49820000Y-32172000D01*
X49820000Y-33847000D02*
X49820000Y-34497000D01*
X46700000Y-33847000D02*
X46700000Y-33197000D01*
X46700000Y-33847000D02*
X46700000Y-34497000D01*
%TO.C,R20*%
X49884359Y-14671000D02*
X50191641Y-14671000D01*
X49884359Y-15431000D02*
X50191641Y-15431000D01*
%TO.C,R2*%
X78993000Y-54648359D02*
X78993000Y-54955641D01*
X78233000Y-54648359D02*
X78233000Y-54955641D01*
%TO.C,R26*%
X47651641Y-27623000D02*
X47344359Y-27623000D01*
X47651641Y-26863000D02*
X47344359Y-26863000D01*
%TO.C,C9*%
X61066000Y-39835164D02*
X61066000Y-40050836D01*
X60346000Y-39835164D02*
X60346000Y-40050836D01*
%TO.C,C8*%
X63519164Y-37170000D02*
X63734836Y-37170000D01*
X63519164Y-37890000D02*
X63734836Y-37890000D01*
%TO.C,U7*%
X69850000Y-14807000D02*
X66400000Y-14807000D01*
X69850000Y-14807000D02*
X71800000Y-14807000D01*
X69850000Y-23677000D02*
X67900000Y-23677000D01*
X69850000Y-23677000D02*
X71800000Y-23677000D01*
%TO.C,U12*%
X73950000Y-54294000D02*
X73950000Y-52619000D01*
X73950000Y-54294000D02*
X73950000Y-54944000D01*
X70830000Y-54294000D02*
X70830000Y-53644000D01*
X70830000Y-54294000D02*
X70830000Y-54944000D01*
%TO.C,R44*%
X61494641Y-21781000D02*
X61187359Y-21781000D01*
X61494641Y-21021000D02*
X61187359Y-21021000D01*
%TO.C,C28*%
X72143252Y-93637000D02*
X71620748Y-93637000D01*
X72143252Y-92167000D02*
X71620748Y-92167000D01*
%TO.C,LED7*%
X33660000Y-73530000D02*
X37460000Y-73530000D01*
X33660000Y-76330000D02*
X33660000Y-75580000D01*
X33660000Y-76330000D02*
X37460000Y-76330000D01*
%TO.C,J8*%
X80712000Y-16702000D02*
X80712000Y-54862000D01*
X80712000Y-16702000D02*
X83372000Y-16702000D01*
X80712000Y-54862000D02*
X83372000Y-54862000D01*
X82042000Y-14102000D02*
X83372000Y-14102000D01*
X83372000Y-14102000D02*
X83372000Y-15432000D01*
X83372000Y-16702000D02*
X83372000Y-54862000D01*
%TO.C,P3*%
X25680000Y-37630000D02*
X25680000Y-27080000D01*
X27480000Y-33980000D02*
X25680000Y-33980000D01*
X27980000Y-37680000D02*
X27980000Y-34480000D01*
X33480000Y-26280000D02*
X33480000Y-28080000D01*
X33980000Y-28580000D02*
X35280000Y-28580000D01*
X34480000Y-26280000D02*
X26480000Y-26280000D01*
X35280000Y-27080000D02*
X35280000Y-37630000D01*
X35280000Y-37630000D02*
X25680000Y-37630000D01*
X26480000Y-26280000D02*
G75*
G03*
X25680000Y-27080000I1J-800001D01*
G01*
X27980000Y-34480000D02*
G75*
G03*
X27480000Y-33980000I-500001J-1D01*
G01*
X33480000Y-28080000D02*
G75*
G03*
X33980000Y-28580000I500000J0D01*
G01*
X35280000Y-27080000D02*
G75*
G03*
X34480000Y-26280000I-800000J0D01*
G01*
X32980000Y-30480000D02*
G75*
G03*
X32980000Y-30480000I-2500000J0D01*
G01*
X33480000Y-30480000D02*
G75*
G03*
X33480000Y-30480000I-3000000J0D01*
G01*
%TO.C,R10*%
X74395359Y-62550000D02*
X74702641Y-62550000D01*
X74395359Y-63310000D02*
X74702641Y-63310000D01*
%TO.C,R57*%
X79020641Y-36132000D02*
X78713359Y-36132000D01*
X79020641Y-35372000D02*
X78713359Y-35372000D01*
%TO.C,D1*%
X73532000Y-74152000D02*
X70232000Y-74152000D01*
X73532000Y-74152000D02*
X73532000Y-79662000D01*
X70232000Y-74152000D02*
X70232000Y-79662000D01*
D11*
%TO.C,DAC1*%
X55221000Y-14773000D02*
X55221000Y-14998000D01*
X55221000Y-14773000D02*
X58571000Y-14773000D01*
X55221000Y-14998000D02*
X53996000Y-14998000D01*
X55221000Y-18123000D02*
X55221000Y-17823000D01*
X55221000Y-18123000D02*
X58571000Y-18123000D01*
X58571000Y-14773000D02*
X58571000Y-15073000D01*
X58571000Y-18123000D02*
X58571000Y-17823000D01*
D13*
%TO.C,P2*%
X5360000Y-37630000D02*
X5360000Y-27080000D01*
X7160000Y-33980000D02*
X5360000Y-33980000D01*
X7660000Y-37680000D02*
X7660000Y-34480000D01*
X13160000Y-26280000D02*
X13160000Y-28080000D01*
X13660000Y-28580000D02*
X14960000Y-28580000D01*
X14160000Y-26280000D02*
X6160000Y-26280000D01*
X14960000Y-27080000D02*
X14960000Y-37630000D01*
X14960000Y-37630000D02*
X5360000Y-37630000D01*
X6160000Y-26280000D02*
G75*
G03*
X5360000Y-27080000I1J-800001D01*
G01*
X7660000Y-34480000D02*
G75*
G03*
X7160000Y-33980000I-500001J-1D01*
G01*
X13160000Y-28080000D02*
G75*
G03*
X13660000Y-28580000I500000J0D01*
G01*
X14960000Y-27080000D02*
G75*
G03*
X14160000Y-26280000I-800000J0D01*
G01*
X12660000Y-30480000D02*
G75*
G03*
X12660000Y-30480000I-2500000J0D01*
G01*
X13160000Y-30480000D02*
G75*
G03*
X13160000Y-30480000I-3000000J0D01*
G01*
%TO.C,OLED1*%
X320000Y-226000D02*
X40320000Y-226000D01*
X40320000Y-226000D02*
X40320000Y-23226000D01*
X40320000Y-23226000D02*
X320000Y-23226000D01*
X320000Y-23226000D02*
X320000Y-226000D01*
X5716000Y-2326000D02*
X35136000Y-2326000D01*
X35136000Y-2326000D02*
X35136000Y-17026000D01*
X35136000Y-17026000D02*
X5716000Y-17026000D01*
X5716000Y-17026000D02*
X5716000Y-2326000D01*
%TO.C,R47*%
X79020641Y-23432000D02*
X78713359Y-23432000D01*
X79020641Y-22672000D02*
X78713359Y-22672000D01*
%TO.C,C17*%
X56875000Y-55964164D02*
X56875000Y-56179836D01*
X56155000Y-55964164D02*
X56155000Y-56179836D01*
%TO.C,R46*%
X64898000Y-32349641D02*
X64898000Y-32042359D01*
X65658000Y-32349641D02*
X65658000Y-32042359D01*
%TO.C,J6*%
X9580000Y-87685000D02*
X580000Y-87685000D01*
X580000Y-87685000D02*
X580000Y-77185000D01*
X580000Y-77185000D02*
X9580000Y-77185000D01*
X9580000Y-77185000D02*
X9580000Y-87685000D01*
%TO.C,C15*%
X58018000Y-55964164D02*
X58018000Y-56179836D01*
X57298000Y-55964164D02*
X57298000Y-56179836D01*
%TO.C,R4*%
X60707000Y-56225641D02*
X60707000Y-55918359D01*
X61467000Y-56225641D02*
X61467000Y-55918359D01*
%TO.C,R40*%
X47651641Y-17971000D02*
X47344359Y-17971000D01*
X47651641Y-17211000D02*
X47344359Y-17211000D01*
%TO.C,LED11*%
X13340000Y-55115000D02*
X17140000Y-55115000D01*
X13340000Y-57915000D02*
X13340000Y-57165000D01*
X13340000Y-57915000D02*
X17140000Y-57915000D01*
%TO.C,R14*%
X75312000Y-25745641D02*
X75312000Y-25438359D01*
X76072000Y-25745641D02*
X76072000Y-25438359D01*
%TO.C,R28*%
X61494641Y-17971000D02*
X61187359Y-17971000D01*
X61494641Y-17211000D02*
X61187359Y-17211000D01*
%TO.C,C19*%
X64408164Y-17358000D02*
X64623836Y-17358000D01*
X64408164Y-18078000D02*
X64623836Y-18078000D01*
%TO.C,C6*%
X62124000Y-43479836D02*
X62124000Y-43264164D01*
X62844000Y-43479836D02*
X62844000Y-43264164D01*
%TO.C,R24*%
X56488359Y-54041000D02*
X56795641Y-54041000D01*
X56488359Y-54801000D02*
X56795641Y-54801000D01*
%TO.C,R21*%
X50191641Y-16701000D02*
X49884359Y-16701000D01*
X50191641Y-15941000D02*
X49884359Y-15941000D01*
%TO.C,R27*%
X63628000Y-16093641D02*
X63628000Y-15786359D01*
X64388000Y-16093641D02*
X64388000Y-15786359D01*
%TO.C,J9*%
X40060000Y-69270000D02*
X31060000Y-69270000D01*
X31060000Y-69270000D02*
X31060000Y-58770000D01*
X31060000Y-58770000D02*
X40060000Y-58770000D01*
X40060000Y-58770000D02*
X40060000Y-69270000D01*
%TO.C,LED6*%
X23500000Y-91945000D02*
X27300000Y-91945000D01*
X23500000Y-94745000D02*
X23500000Y-93995000D01*
X23500000Y-94745000D02*
X27300000Y-94745000D01*
%TO.C,R22*%
X47344359Y-29403000D02*
X47651641Y-29403000D01*
X47344359Y-30163000D02*
X47651641Y-30163000D01*
%TO.C,R42*%
X61494641Y-16701000D02*
X61187359Y-16701000D01*
X61494641Y-15941000D02*
X61187359Y-15941000D01*
%TO.C,C4*%
X49930164Y-30693000D02*
X50145836Y-30693000D01*
X49930164Y-31413000D02*
X50145836Y-31413000D01*
%TO.C,R51*%
X76072000Y-32042359D02*
X76072000Y-32349641D01*
X75312000Y-32042359D02*
X75312000Y-32349641D01*
%TO.C,D7*%
X79717000Y-98717000D02*
X79717000Y-97247000D01*
X79717000Y-97247000D02*
X77432000Y-97247000D01*
X77432000Y-98717000D02*
X79717000Y-98717000D01*
%TO.C,R45*%
X64898000Y-22697641D02*
X64898000Y-22390359D01*
X65658000Y-22697641D02*
X65658000Y-22390359D01*
%TO.C,C39*%
X69234164Y-48346000D02*
X69449836Y-48346000D01*
X69234164Y-49066000D02*
X69449836Y-49066000D01*
%TO.C,R6*%
X74956641Y-42736000D02*
X74649359Y-42736000D01*
X74956641Y-41976000D02*
X74649359Y-41976000D01*
%TO.C,J14*%
X9580000Y-106100000D02*
X580000Y-106100000D01*
X580000Y-106100000D02*
X580000Y-95600000D01*
X580000Y-95600000D02*
X9580000Y-95600000D01*
X9580000Y-95600000D02*
X9580000Y-106100000D01*
%TO.C,R34*%
X79020641Y-31052000D02*
X78713359Y-31052000D01*
X79020641Y-30292000D02*
X78713359Y-30292000D01*
%TO.C,R36*%
X50191641Y-28893000D02*
X49884359Y-28893000D01*
X50191641Y-28133000D02*
X49884359Y-28133000D01*
%TO.C,SW2*%
X26543000Y-51022752D02*
X34417000Y-51022752D01*
X34417000Y-51022752D02*
G75*
G03*
X26543000Y-51022752I-3937000J4572000D01*
G01*
X34925000Y-46450752D02*
G75*
G03*
X34925000Y-46450752I-4445000J0D01*
G01*
%TO.C,U10*%
X56896000Y-24967000D02*
X53446000Y-24967000D01*
X56896000Y-24967000D02*
X58846000Y-24967000D01*
X56896000Y-33837000D02*
X54946000Y-33837000D01*
X56896000Y-33837000D02*
X58846000Y-33837000D01*
%TO.C,R3*%
X47651641Y-31433000D02*
X47344359Y-31433000D01*
X47651641Y-30673000D02*
X47344359Y-30673000D01*
%TO.C,R31*%
X65658000Y-15786359D02*
X65658000Y-16093641D01*
X64898000Y-15786359D02*
X64898000Y-16093641D01*
%TO.C,C20*%
X64408164Y-27010000D02*
X64623836Y-27010000D01*
X64408164Y-27730000D02*
X64623836Y-27730000D01*
%TO.C,C10*%
X57138000Y-76284164D02*
X57138000Y-76499836D01*
X56418000Y-76284164D02*
X56418000Y-76499836D01*
%TO.C,C11*%
X75291836Y-18078000D02*
X75076164Y-18078000D01*
X75291836Y-17358000D02*
X75076164Y-17358000D01*
%TO.C,C1*%
X56749836Y-52495000D02*
X56534164Y-52495000D01*
X56749836Y-51775000D02*
X56534164Y-51775000D01*
%TO.C,Y1*%
X65627000Y-41720000D02*
X65627000Y-38420000D01*
X65627000Y-38420000D02*
X61627000Y-38420000D01*
%TO.C,R50*%
X61494641Y-15431000D02*
X61187359Y-15431000D01*
X61494641Y-14671000D02*
X61187359Y-14671000D01*
%TO.C,C33*%
X75291836Y-30778000D02*
X75076164Y-30778000D01*
X75291836Y-30058000D02*
X75076164Y-30058000D01*
%TO.C,C31*%
X56788164Y-34503000D02*
X57003836Y-34503000D01*
X56788164Y-35223000D02*
X57003836Y-35223000D01*
%TO.C,C29*%
X64408164Y-20406000D02*
X64623836Y-20406000D01*
X64408164Y-21126000D02*
X64623836Y-21126000D01*
%TO.C,C26*%
X71620748Y-71847000D02*
X72143252Y-71847000D01*
X71620748Y-73317000D02*
X72143252Y-73317000D01*
%TO.C,R23*%
X47344359Y-28133000D02*
X47651641Y-28133000D01*
X47344359Y-28893000D02*
X47651641Y-28893000D01*
%TO.C,J10*%
X19740000Y-69270000D02*
X10740000Y-69270000D01*
X10740000Y-69270000D02*
X10740000Y-58770000D01*
X10740000Y-58770000D02*
X19740000Y-58770000D01*
X19740000Y-58770000D02*
X19740000Y-69270000D01*
%TO.C,J5*%
X42612000Y-16702000D02*
X42612000Y-54862000D01*
X42612000Y-16702000D02*
X45272000Y-16702000D01*
X42612000Y-54862000D02*
X45272000Y-54862000D01*
X43942000Y-14102000D02*
X45272000Y-14102000D01*
X45272000Y-14102000D02*
X45272000Y-15432000D01*
X45272000Y-16702000D02*
X45272000Y-54862000D01*
%TO.C,R55*%
X79120000Y-49314359D02*
X79120000Y-49621641D01*
X78360000Y-49314359D02*
X78360000Y-49621641D01*
%TO.C,U4*%
X66602000Y-46112000D02*
X66602000Y-46762000D01*
X65952000Y-53332000D02*
X66602000Y-53332000D01*
X65952000Y-46112000D02*
X66602000Y-46112000D01*
X60032000Y-53332000D02*
X59382000Y-53332000D01*
X60032000Y-46112000D02*
X59382000Y-46112000D01*
X59382000Y-53332000D02*
X59382000Y-52682000D01*
X59382000Y-46112000D02*
X59382000Y-46762000D01*
%TO.C,R52*%
X61494641Y-20511000D02*
X61187359Y-20511000D01*
X61494641Y-19751000D02*
X61187359Y-19751000D01*
%TO.C,LED12*%
X33660000Y-55115000D02*
X37460000Y-55115000D01*
X33660000Y-57915000D02*
X33660000Y-57165000D01*
X33660000Y-57915000D02*
X37460000Y-57915000D01*
%TO.C,D4*%
X75512000Y-41324000D02*
X75512000Y-39324000D01*
X75512000Y-41324000D02*
X71502000Y-41324000D01*
X75512000Y-39324000D02*
X71502000Y-39324000D01*
%TO.C,R7*%
X78131641Y-38672000D02*
X77824359Y-38672000D01*
X78131641Y-37912000D02*
X77824359Y-37912000D01*
%TD*%
M02*
