%TF.GenerationSoftware,KiCad,Pcbnew,7.0.9*%
%TF.CreationDate,2023-11-25T16:41:53+01:00*%
%TF.ProjectId,EuroPi-X,4575726f-5069-42d5-982e-6b696361645f,rev?*%
%TF.SameCoordinates,Original*%
%TF.FileFunction,Soldermask,Top*%
%TF.FilePolarity,Negative*%
%FSLAX46Y46*%
G04 Gerber Fmt 4.6, Leading zero omitted, Abs format (unit mm)*
G04 Created by KiCad (PCBNEW 7.0.9) date 2023-11-25 16:41:53*
%MOMM*%
%LPD*%
G01*
G04 APERTURE LIST*
G04 Aperture macros list*
%AMRoundRect*
0 Rectangle with rounded corners*
0 $1 Rounding radius*
0 $2 $3 $4 $5 $6 $7 $8 $9 X,Y pos of 4 corners*
0 Add a 4 corners polygon primitive as box body*
4,1,4,$2,$3,$4,$5,$6,$7,$8,$9,$2,$3,0*
0 Add four circle primitives for the rounded corners*
1,1,$1+$1,$2,$3*
1,1,$1+$1,$4,$5*
1,1,$1+$1,$6,$7*
1,1,$1+$1,$8,$9*
0 Add four rect primitives between the rounded corners*
20,1,$1+$1,$2,$3,$4,$5,0*
20,1,$1+$1,$4,$5,$6,$7,0*
20,1,$1+$1,$6,$7,$8,$9,0*
20,1,$1+$1,$8,$9,$2,$3,0*%
G04 Aperture macros list end*
%ADD10C,0.500000*%
%ADD11RoundRect,0.250000X-0.850000X-0.350000X0.850000X-0.350000X0.850000X0.350000X-0.850000X0.350000X0*%
%ADD12RoundRect,0.249997X-2.950003X-2.650003X2.950003X-2.650003X2.950003X2.650003X-2.950003X2.650003X0*%
%ADD13R,1.000000X0.600000*%
%ADD14RoundRect,0.135000X0.135000X0.185000X-0.135000X0.185000X-0.135000X-0.185000X0.135000X-0.185000X0*%
%ADD15R,0.400000X0.650000*%
%ADD16RoundRect,0.140000X0.170000X-0.140000X0.170000X0.140000X-0.170000X0.140000X-0.170000X-0.140000X0*%
%ADD17RoundRect,0.250000X0.650000X-1.000000X0.650000X1.000000X-0.650000X1.000000X-0.650000X-1.000000X0*%
%ADD18RoundRect,0.150000X-0.825000X-0.150000X0.825000X-0.150000X0.825000X0.150000X-0.825000X0.150000X0*%
%ADD19RoundRect,0.135000X-0.135000X-0.185000X0.135000X-0.185000X0.135000X0.185000X-0.135000X0.185000X0*%
%ADD20C,2.000000*%
%ADD21RoundRect,0.225000X-0.225000X-0.375000X0.225000X-0.375000X0.225000X0.375000X-0.225000X0.375000X0*%
%ADD22RoundRect,0.135000X0.185000X-0.135000X0.185000X0.135000X-0.185000X0.135000X-0.185000X-0.135000X0*%
%ADD23RoundRect,0.225000X0.225000X0.375000X-0.225000X0.375000X-0.225000X-0.375000X0.225000X-0.375000X0*%
%ADD24RoundRect,0.135000X-0.185000X0.135000X-0.185000X-0.135000X0.185000X-0.135000X0.185000X0.135000X0*%
%ADD25RoundRect,0.140000X-0.170000X0.140000X-0.170000X-0.140000X0.170000X-0.140000X0.170000X0.140000X0*%
%ADD26R,1.400000X0.300000*%
%ADD27RoundRect,0.150000X-0.512500X-0.150000X0.512500X-0.150000X0.512500X0.150000X-0.512500X0.150000X0*%
%ADD28RoundRect,0.100000X-0.100000X0.637500X-0.100000X-0.637500X0.100000X-0.637500X0.100000X0.637500X0*%
%ADD29C,0.650000*%
%ADD30R,0.600000X1.240000*%
%ADD31R,0.300000X1.240000*%
%ADD32O,1.000000X2.100000*%
%ADD33O,1.000000X1.800000*%
%ADD34RoundRect,0.140000X0.140000X0.170000X-0.140000X0.170000X-0.140000X-0.170000X0.140000X-0.170000X0*%
%ADD35RoundRect,0.150000X-0.587500X-0.150000X0.587500X-0.150000X0.587500X0.150000X-0.587500X0.150000X0*%
%ADD36RoundRect,0.150000X0.650000X0.150000X-0.650000X0.150000X-0.650000X-0.150000X0.650000X-0.150000X0*%
%ADD37RoundRect,0.250000X-0.650000X1.000000X-0.650000X-1.000000X0.650000X-1.000000X0.650000X1.000000X0*%
%ADD38RoundRect,0.140000X-0.140000X-0.170000X0.140000X-0.170000X0.140000X0.170000X-0.140000X0.170000X0*%
%ADD39RoundRect,0.187500X-0.312500X-0.187500X0.312500X-0.187500X0.312500X0.187500X-0.312500X0.187500X0*%
%ADD40C,1.524000*%
%ADD41RoundRect,0.150000X-0.150000X0.587500X-0.150000X-0.587500X0.150000X-0.587500X0.150000X0.587500X0*%
%ADD42RoundRect,0.250000X0.250000X0.475000X-0.250000X0.475000X-0.250000X-0.475000X0.250000X-0.475000X0*%
%ADD43R,1.700000X1.700000*%
%ADD44O,1.700000X1.700000*%
%ADD45C,1.500000*%
%ADD46C,1.700000*%
%ADD47RoundRect,0.218750X0.218750X0.256250X-0.218750X0.256250X-0.218750X-0.256250X0.218750X-0.256250X0*%
%ADD48R,1.400000X1.200000*%
%ADD49RoundRect,0.250000X-0.250000X-0.475000X0.250000X-0.475000X0.250000X0.475000X-0.250000X0.475000X0*%
%ADD50RoundRect,0.050000X0.387500X0.050000X-0.387500X0.050000X-0.387500X-0.050000X0.387500X-0.050000X0*%
%ADD51RoundRect,0.050000X0.050000X0.387500X-0.050000X0.387500X-0.050000X-0.387500X0.050000X-0.387500X0*%
%ADD52R,3.200000X3.200000*%
G04 APERTURE END LIST*
D10*
%TO.C,mouse-bite-2mm-slot*%
X40906000Y-98235200D03*
X42406000Y-98235200D03*
X40906000Y-97485200D03*
X42406000Y-97485200D03*
X40906000Y-96735200D03*
X42406000Y-96735200D03*
%TD*%
%TO.C,mouse-bite-2mm-slot*%
X40918000Y-60986800D03*
X42418000Y-60986800D03*
X40918000Y-60236800D03*
X42418000Y-60236800D03*
X40918000Y-59486800D03*
X42418000Y-59486800D03*
%TD*%
%TO.C,mouse-bite-2mm-slot*%
X40918000Y-20905600D03*
X42418000Y-20905600D03*
X40918000Y-20155600D03*
X42418000Y-20155600D03*
X40918000Y-19405600D03*
X42418000Y-19405600D03*
%TD*%
D11*
%TO.C,U11*%
X57912000Y-82996000D03*
D12*
X64212000Y-85276000D03*
D11*
X57912000Y-87556000D03*
%TD*%
D13*
%TO.C,LED2*%
X4080000Y-92695000D03*
X4080000Y-93995000D03*
X6080000Y-93995000D03*
X6080000Y-92695000D03*
%TD*%
D14*
%TO.C,R13*%
X61851000Y-18861000D03*
X60831000Y-18861000D03*
%TD*%
D15*
%TO.C,SW5*%
X75931000Y-51434000D03*
X76581000Y-51434000D03*
X77231000Y-51434000D03*
X77231000Y-49534000D03*
X76581000Y-49534000D03*
X75931000Y-49534000D03*
%TD*%
D16*
%TO.C,C3*%
X69977000Y-53250000D03*
X69977000Y-52290000D03*
%TD*%
D13*
%TO.C,LED1*%
X4080000Y-74280000D03*
X4080000Y-75580000D03*
X6080000Y-75580000D03*
X6080000Y-74280000D03*
%TD*%
D17*
%TO.C,D2*%
X71882000Y-69502000D03*
X71882000Y-65502000D03*
%TD*%
D18*
%TO.C,U8*%
X67375000Y-25084000D03*
X67375000Y-26354000D03*
X67375000Y-27624000D03*
X67375000Y-28894000D03*
X67375000Y-30164000D03*
X67375000Y-31434000D03*
X67375000Y-32704000D03*
X72325000Y-32704000D03*
X72325000Y-31434000D03*
X72325000Y-30164000D03*
X72325000Y-28894000D03*
X72325000Y-27624000D03*
X72325000Y-26354000D03*
X72325000Y-25084000D03*
%TD*%
D19*
%TO.C,R59*%
X56132000Y-50992000D03*
X57152000Y-50992000D03*
%TD*%
D20*
%TO.C,J17*%
X35560000Y-107600000D03*
X35560000Y-104500000D03*
X35560000Y-96200000D03*
%TD*%
D21*
%TO.C,D3*%
X71502000Y-37784000D03*
X74802000Y-37784000D03*
%TD*%
D22*
%TO.C,R5*%
X59944000Y-56582000D03*
X59944000Y-55562000D03*
%TD*%
%TO.C,R12*%
X75692000Y-16450000D03*
X75692000Y-15430000D03*
%TD*%
D23*
%TO.C,D6*%
X68198000Y-90362000D03*
X64898000Y-90362000D03*
%TD*%
D24*
%TO.C,R32*%
X65278000Y-25082000D03*
X65278000Y-26102000D03*
%TD*%
D25*
%TO.C,C13*%
X58801000Y-55592000D03*
X58801000Y-56552000D03*
%TD*%
D22*
%TO.C,R29*%
X64008000Y-26102000D03*
X64008000Y-25082000D03*
%TD*%
D24*
%TO.C,R41*%
X64008000Y-22034000D03*
X64008000Y-23054000D03*
%TD*%
D26*
%TO.C,DAC2*%
X54696000Y-19512000D03*
X54696000Y-20012000D03*
X54696000Y-20512000D03*
X54696000Y-21012000D03*
X54696000Y-21512000D03*
X59096000Y-21512000D03*
X59096000Y-21012000D03*
X59096000Y-20512000D03*
X59096000Y-20012000D03*
X59096000Y-19512000D03*
%TD*%
D14*
%TO.C,R58*%
X57152000Y-49849000D03*
X56132000Y-49849000D03*
%TD*%
%TO.C,R11*%
X77345000Y-62930000D03*
X76325000Y-62930000D03*
%TD*%
D27*
%TO.C,U5*%
X64394500Y-76712000D03*
X64394500Y-78612000D03*
X66669500Y-77662000D03*
%TD*%
D14*
%TO.C,R48*%
X79377000Y-33212000D03*
X78357000Y-33212000D03*
%TD*%
D25*
%TO.C,C16*%
X63373000Y-55592000D03*
X63373000Y-56552000D03*
%TD*%
D14*
%TO.C,R33*%
X79377000Y-20512000D03*
X78357000Y-20512000D03*
%TD*%
D20*
%TO.C,J16*%
X25400000Y-107600000D03*
X25400000Y-104500000D03*
X25400000Y-96200000D03*
%TD*%
D28*
%TO.C,U9*%
X50718000Y-19554500D03*
X50068000Y-19554500D03*
X49418000Y-19554500D03*
X48768000Y-19554500D03*
X48118000Y-19554500D03*
X47468000Y-19554500D03*
X46818000Y-19554500D03*
X46818000Y-25279500D03*
X47468000Y-25279500D03*
X48118000Y-25279500D03*
X48768000Y-25279500D03*
X49418000Y-25279500D03*
X50068000Y-25279500D03*
X50718000Y-25279500D03*
%TD*%
D29*
%TO.C,P1*%
X60102000Y-94107000D03*
X65882000Y-94107000D03*
D30*
X59792000Y-92987000D03*
X60592000Y-92987000D03*
D31*
X61742000Y-92987000D03*
X62742000Y-92987000D03*
X63242000Y-92987000D03*
X64242000Y-92987000D03*
D30*
X65392000Y-92987000D03*
X66192000Y-92987000D03*
X66192000Y-92987000D03*
X65392000Y-92987000D03*
D31*
X64742000Y-92987000D03*
X63742000Y-92987000D03*
X62242000Y-92987000D03*
X61242000Y-92987000D03*
D30*
X60592000Y-92987000D03*
X59792000Y-92987000D03*
D32*
X58672000Y-93587000D03*
D33*
X58672000Y-97787000D03*
D32*
X67312000Y-93587000D03*
D33*
X67312000Y-97787000D03*
%TD*%
D24*
%TO.C,R49*%
X75692000Y-22034000D03*
X75692000Y-23054000D03*
%TD*%
D34*
%TO.C,C22*%
X75664000Y-28894000D03*
X74704000Y-28894000D03*
%TD*%
D25*
%TO.C,C27*%
X52705000Y-20667000D03*
X52705000Y-21627000D03*
%TD*%
D20*
%TO.C,J12*%
X25400000Y-89185000D03*
X25400000Y-86085000D03*
X25400000Y-77785000D03*
%TD*%
D24*
%TO.C,R17*%
X74422000Y-25082000D03*
X74422000Y-26102000D03*
%TD*%
D13*
%TO.C,LED10*%
X24400000Y-55865000D03*
X24400000Y-57165000D03*
X26400000Y-57165000D03*
X26400000Y-55865000D03*
%TD*%
%TO.C,LED3*%
X14240000Y-74280000D03*
X14240000Y-75580000D03*
X16240000Y-75580000D03*
X16240000Y-74280000D03*
%TD*%
D14*
%TO.C,R30*%
X61851000Y-22671000D03*
X60831000Y-22671000D03*
%TD*%
D20*
%TO.C,J4*%
X25400000Y-70770000D03*
X25400000Y-67670000D03*
X25400000Y-59370000D03*
%TD*%
D14*
%TO.C,R18*%
X79377000Y-17972000D03*
X78357000Y-17972000D03*
%TD*%
D13*
%TO.C,LED9*%
X4080000Y-55880000D03*
X4080000Y-57180000D03*
X6080000Y-57180000D03*
X6080000Y-55880000D03*
%TD*%
D25*
%TO.C,C40*%
X62230000Y-55592000D03*
X62230000Y-56552000D03*
%TD*%
D18*
%TO.C,U1*%
X71820000Y-44007000D03*
X71820000Y-45277000D03*
X71820000Y-46547000D03*
X71820000Y-47817000D03*
X76770000Y-47817000D03*
X76770000Y-46547000D03*
X76770000Y-45277000D03*
X76770000Y-44007000D03*
%TD*%
D20*
%TO.C,J3*%
X5080000Y-70770000D03*
X5080000Y-67670000D03*
X5080000Y-59370000D03*
%TD*%
D35*
%TO.C,Q1*%
X77040500Y-39882000D03*
X77040500Y-41782000D03*
X78915500Y-40832000D03*
%TD*%
D14*
%TO.C,R37*%
X48008000Y-15051000D03*
X46988000Y-15051000D03*
%TD*%
D34*
%TO.C,C32*%
X75664000Y-20766000D03*
X74704000Y-20766000D03*
%TD*%
D25*
%TO.C,C18*%
X78740000Y-44670000D03*
X78740000Y-45630000D03*
%TD*%
D19*
%TO.C,R62*%
X74420000Y-97982000D03*
X75440000Y-97982000D03*
%TD*%
%TO.C,R38*%
X46988000Y-16321000D03*
X48008000Y-16321000D03*
%TD*%
D16*
%TO.C,C36*%
X55753000Y-87794000D03*
X55753000Y-86834000D03*
%TD*%
D24*
%TO.C,R1*%
X69977000Y-54419000D03*
X69977000Y-55439000D03*
%TD*%
D19*
%TO.C,R39*%
X49528000Y-27243000D03*
X50548000Y-27243000D03*
%TD*%
D36*
%TO.C,U6*%
X76752000Y-61152000D03*
X76752000Y-59882000D03*
X76752000Y-58612000D03*
X76752000Y-57342000D03*
X69552000Y-57342000D03*
X69552000Y-58612000D03*
X69552000Y-59882000D03*
X69552000Y-61152000D03*
%TD*%
D37*
%TO.C,D5*%
X71882000Y-85822000D03*
X71882000Y-89822000D03*
%TD*%
D19*
%TO.C,R25*%
X49528000Y-17591000D03*
X50548000Y-17591000D03*
%TD*%
D24*
%TO.C,R43*%
X64008000Y-31686000D03*
X64008000Y-32706000D03*
%TD*%
D25*
%TO.C,C35*%
X55753000Y-84548000D03*
X55753000Y-85508000D03*
%TD*%
D34*
%TO.C,C24*%
X75664000Y-19242000D03*
X74704000Y-19242000D03*
%TD*%
%TO.C,C12*%
X75664000Y-27370000D03*
X74704000Y-27370000D03*
%TD*%
D24*
%TO.C,R9*%
X69850000Y-44005000D03*
X69850000Y-45025000D03*
%TD*%
D38*
%TO.C,C30*%
X64036000Y-30418000D03*
X64996000Y-30418000D03*
%TD*%
D13*
%TO.C,LED5*%
X24400000Y-74280000D03*
X24400000Y-75580000D03*
X26400000Y-75580000D03*
X26400000Y-74280000D03*
%TD*%
D16*
%TO.C,C41*%
X61341000Y-43852000D03*
X61341000Y-42892000D03*
%TD*%
D39*
%TO.C,SW3*%
X48562000Y-94862000D03*
X54562000Y-94862000D03*
X48562000Y-98562000D03*
X54562000Y-98562000D03*
%TD*%
D34*
%TO.C,C21*%
X64996000Y-28894000D03*
X64036000Y-28894000D03*
%TD*%
D20*
%TO.C,J15*%
X15240000Y-107600000D03*
X15240000Y-104500000D03*
X15240000Y-96200000D03*
%TD*%
D14*
%TO.C,R56*%
X79377000Y-25592000D03*
X78357000Y-25592000D03*
%TD*%
D22*
%TO.C,R53*%
X74422000Y-23054000D03*
X74422000Y-22034000D03*
%TD*%
D16*
%TO.C,C7*%
X56778000Y-79412000D03*
X56778000Y-78452000D03*
%TD*%
D40*
%TO.C,SW1*%
X7620000Y-48990752D03*
X12700000Y-43910752D03*
X12700000Y-48990752D03*
X7620000Y-43910752D03*
%TD*%
D14*
%TO.C,R35*%
X50548000Y-29783000D03*
X49528000Y-29783000D03*
%TD*%
D24*
%TO.C,R8*%
X69850000Y-46164000D03*
X69850000Y-47184000D03*
%TD*%
D13*
%TO.C,LED8*%
X34560000Y-92695000D03*
X34560000Y-93995000D03*
X36560000Y-93995000D03*
X36560000Y-92695000D03*
%TD*%
D25*
%TO.C,C37*%
X52705000Y-15079000D03*
X52705000Y-16039000D03*
%TD*%
%TO.C,C38*%
X52705000Y-17873000D03*
X52705000Y-18833000D03*
%TD*%
D13*
%TO.C,LED4*%
X14240000Y-92695000D03*
X14240000Y-93995000D03*
X16240000Y-93995000D03*
X16240000Y-92695000D03*
%TD*%
D38*
%TO.C,C14*%
X68862000Y-51119000D03*
X69822000Y-51119000D03*
%TD*%
D15*
%TO.C,SW4*%
X71359000Y-51434000D03*
X72009000Y-51434000D03*
X72659000Y-51434000D03*
X72659000Y-49534000D03*
X72009000Y-49534000D03*
X71359000Y-49534000D03*
%TD*%
D24*
%TO.C,R16*%
X74422000Y-15430000D03*
X74422000Y-16450000D03*
%TD*%
D14*
%TO.C,R19*%
X79377000Y-28132000D03*
X78357000Y-28132000D03*
%TD*%
%TO.C,R15*%
X61851000Y-23941000D03*
X60831000Y-23941000D03*
%TD*%
D34*
%TO.C,C5*%
X57122000Y-48706000D03*
X56162000Y-48706000D03*
%TD*%
D20*
%TO.C,J13*%
X35560000Y-89185000D03*
X35560000Y-86085000D03*
X35560000Y-77785000D03*
%TD*%
D41*
%TO.C,U2*%
X77150000Y-53356500D03*
X75250000Y-53356500D03*
X76200000Y-55231500D03*
%TD*%
D24*
%TO.C,R61*%
X78740000Y-46799000D03*
X78740000Y-47819000D03*
%TD*%
D19*
%TO.C,R60*%
X56132000Y-53278000D03*
X57152000Y-53278000D03*
%TD*%
D20*
%TO.C,J7*%
X15240000Y-89185000D03*
X15240000Y-86085000D03*
X15240000Y-77785000D03*
%TD*%
D25*
%TO.C,C2*%
X78613000Y-56481000D03*
X78613000Y-57441000D03*
%TD*%
D34*
%TO.C,C23*%
X64996000Y-19242000D03*
X64036000Y-19242000D03*
%TD*%
D42*
%TO.C,C25*%
X72832000Y-82742000D03*
X70932000Y-82742000D03*
%TD*%
D22*
%TO.C,R54*%
X74422000Y-32704000D03*
X74422000Y-31684000D03*
%TD*%
D41*
%TO.C,U3*%
X49210000Y-32909500D03*
X47310000Y-32909500D03*
X48260000Y-34784500D03*
%TD*%
D19*
%TO.C,R20*%
X49528000Y-15051000D03*
X50548000Y-15051000D03*
%TD*%
D24*
%TO.C,R2*%
X78613000Y-54292000D03*
X78613000Y-55312000D03*
%TD*%
D14*
%TO.C,R26*%
X48008000Y-27243000D03*
X46988000Y-27243000D03*
%TD*%
D25*
%TO.C,C9*%
X60706000Y-39463000D03*
X60706000Y-40423000D03*
%TD*%
D38*
%TO.C,C8*%
X63147000Y-37530000D03*
X64107000Y-37530000D03*
%TD*%
D18*
%TO.C,U7*%
X67375000Y-15432000D03*
X67375000Y-16702000D03*
X67375000Y-17972000D03*
X67375000Y-19242000D03*
X67375000Y-20512000D03*
X67375000Y-21782000D03*
X67375000Y-23052000D03*
X72325000Y-23052000D03*
X72325000Y-21782000D03*
X72325000Y-20512000D03*
X72325000Y-19242000D03*
X72325000Y-17972000D03*
X72325000Y-16702000D03*
X72325000Y-15432000D03*
%TD*%
D41*
%TO.C,U12*%
X73340000Y-53356500D03*
X71440000Y-53356500D03*
X72390000Y-55231500D03*
%TD*%
D14*
%TO.C,R44*%
X61851000Y-21401000D03*
X60831000Y-21401000D03*
%TD*%
D42*
%TO.C,C28*%
X72832000Y-92902000D03*
X70932000Y-92902000D03*
%TD*%
D13*
%TO.C,LED7*%
X34560000Y-74280000D03*
X34560000Y-75580000D03*
X36560000Y-75580000D03*
X36560000Y-74280000D03*
%TD*%
D43*
%TO.C,J8*%
X82042000Y-15432000D03*
D44*
X82042000Y-17972000D03*
X82042000Y-20512000D03*
X82042000Y-23052000D03*
X82042000Y-25592000D03*
X82042000Y-28132000D03*
X82042000Y-30672000D03*
X82042000Y-33212000D03*
X82042000Y-35752000D03*
X82042000Y-38292000D03*
X82042000Y-40832000D03*
X82042000Y-43372000D03*
X82042000Y-45912000D03*
X82042000Y-48452000D03*
X82042000Y-50992000D03*
X82042000Y-53532000D03*
%TD*%
D45*
%TO.C,P3*%
X27980000Y-37980000D03*
X30480000Y-37980000D03*
X32980000Y-37980000D03*
%TD*%
D19*
%TO.C,R10*%
X74039000Y-62930000D03*
X75059000Y-62930000D03*
%TD*%
D14*
%TO.C,R57*%
X79377000Y-35752000D03*
X78357000Y-35752000D03*
%TD*%
D37*
%TO.C,D1*%
X71882000Y-75662000D03*
X71882000Y-79662000D03*
%TD*%
D26*
%TO.C,DAC1*%
X54696000Y-15448000D03*
X54696000Y-15948000D03*
X54696000Y-16448000D03*
X54696000Y-16948000D03*
X54696000Y-17448000D03*
X59096000Y-17448000D03*
X59096000Y-16948000D03*
X59096000Y-16448000D03*
X59096000Y-15948000D03*
X59096000Y-15448000D03*
%TD*%
D45*
%TO.C,P2*%
X7660000Y-37980000D03*
X10160000Y-37980000D03*
X12660000Y-37980000D03*
%TD*%
D46*
%TO.C,OLED1*%
X11536000Y-3810000D03*
X14076000Y-3810000D03*
X16616000Y-3810000D03*
X19156000Y-3810000D03*
X21696000Y-3810000D03*
X24236000Y-3810000D03*
X26776000Y-3810000D03*
X29316000Y-3810000D03*
X3916000Y-19050000D03*
X3916000Y-21590000D03*
X36936000Y-19050000D03*
X36936000Y-21590000D03*
%TD*%
D14*
%TO.C,R47*%
X79377000Y-23052000D03*
X78357000Y-23052000D03*
%TD*%
D25*
%TO.C,C17*%
X56515000Y-55592000D03*
X56515000Y-56552000D03*
%TD*%
D22*
%TO.C,R46*%
X65278000Y-32706000D03*
X65278000Y-31686000D03*
%TD*%
D20*
%TO.C,J6*%
X5080000Y-89185000D03*
X5080000Y-86085000D03*
X5080000Y-77785000D03*
%TD*%
D25*
%TO.C,C15*%
X57658000Y-55592000D03*
X57658000Y-56552000D03*
%TD*%
D22*
%TO.C,R4*%
X61087000Y-56582000D03*
X61087000Y-55562000D03*
%TD*%
D14*
%TO.C,R40*%
X48008000Y-17591000D03*
X46988000Y-17591000D03*
%TD*%
D13*
%TO.C,LED11*%
X14240000Y-55865000D03*
X14240000Y-57165000D03*
X16240000Y-57165000D03*
X16240000Y-55865000D03*
%TD*%
D22*
%TO.C,R14*%
X75692000Y-26102000D03*
X75692000Y-25082000D03*
%TD*%
D14*
%TO.C,R28*%
X61851000Y-17591000D03*
X60831000Y-17591000D03*
%TD*%
D38*
%TO.C,C19*%
X64036000Y-17718000D03*
X64996000Y-17718000D03*
%TD*%
D16*
%TO.C,C6*%
X62484000Y-43852000D03*
X62484000Y-42892000D03*
%TD*%
D19*
%TO.C,R24*%
X56132000Y-54421000D03*
X57152000Y-54421000D03*
%TD*%
D14*
%TO.C,R21*%
X50548000Y-16321000D03*
X49528000Y-16321000D03*
%TD*%
D22*
%TO.C,R27*%
X64008000Y-16450000D03*
X64008000Y-15430000D03*
%TD*%
D20*
%TO.C,J9*%
X35560000Y-70770000D03*
X35560000Y-67670000D03*
X35560000Y-59370000D03*
%TD*%
D13*
%TO.C,LED6*%
X24400000Y-92695000D03*
X24400000Y-93995000D03*
X26400000Y-93995000D03*
X26400000Y-92695000D03*
%TD*%
D19*
%TO.C,R22*%
X46988000Y-29783000D03*
X48008000Y-29783000D03*
%TD*%
D14*
%TO.C,R42*%
X61851000Y-16321000D03*
X60831000Y-16321000D03*
%TD*%
D38*
%TO.C,C4*%
X49558000Y-31053000D03*
X50518000Y-31053000D03*
%TD*%
D24*
%TO.C,R51*%
X75692000Y-31686000D03*
X75692000Y-32706000D03*
%TD*%
D47*
%TO.C,D7*%
X79019500Y-97982000D03*
X77444500Y-97982000D03*
%TD*%
D22*
%TO.C,R45*%
X65278000Y-23054000D03*
X65278000Y-22034000D03*
%TD*%
D38*
%TO.C,C39*%
X68862000Y-48706000D03*
X69822000Y-48706000D03*
%TD*%
D14*
%TO.C,R6*%
X75313000Y-42356000D03*
X74293000Y-42356000D03*
%TD*%
D20*
%TO.C,J14*%
X5080000Y-107600000D03*
X5080000Y-104500000D03*
X5080000Y-96200000D03*
%TD*%
D14*
%TO.C,R34*%
X79377000Y-30672000D03*
X78357000Y-30672000D03*
%TD*%
%TO.C,R36*%
X50548000Y-28513000D03*
X49528000Y-28513000D03*
%TD*%
D40*
%TO.C,SW2*%
X27940000Y-48990752D03*
X33020000Y-43910752D03*
X33020000Y-48990752D03*
X27940000Y-43910752D03*
%TD*%
D18*
%TO.C,U10*%
X54421000Y-25592000D03*
X54421000Y-26862000D03*
X54421000Y-28132000D03*
X54421000Y-29402000D03*
X54421000Y-30672000D03*
X54421000Y-31942000D03*
X54421000Y-33212000D03*
X59371000Y-33212000D03*
X59371000Y-31942000D03*
X59371000Y-30672000D03*
X59371000Y-29402000D03*
X59371000Y-28132000D03*
X59371000Y-26862000D03*
X59371000Y-25592000D03*
%TD*%
D14*
%TO.C,R3*%
X48008000Y-31053000D03*
X46988000Y-31053000D03*
%TD*%
D24*
%TO.C,R31*%
X65278000Y-15430000D03*
X65278000Y-16450000D03*
%TD*%
D38*
%TO.C,C20*%
X64036000Y-27370000D03*
X64996000Y-27370000D03*
%TD*%
D25*
%TO.C,C10*%
X56778000Y-75912000D03*
X56778000Y-76872000D03*
%TD*%
D34*
%TO.C,C11*%
X75664000Y-17718000D03*
X74704000Y-17718000D03*
%TD*%
%TO.C,C1*%
X57122000Y-52135000D03*
X56162000Y-52135000D03*
%TD*%
D48*
%TO.C,Y1*%
X64727000Y-39220000D03*
X62527000Y-39220000D03*
X62527000Y-40920000D03*
X64727000Y-40920000D03*
%TD*%
D14*
%TO.C,R50*%
X61851000Y-15051000D03*
X60831000Y-15051000D03*
%TD*%
D34*
%TO.C,C33*%
X75664000Y-30418000D03*
X74704000Y-30418000D03*
%TD*%
D38*
%TO.C,C31*%
X56416000Y-34863000D03*
X57376000Y-34863000D03*
%TD*%
%TO.C,C29*%
X64036000Y-20766000D03*
X64996000Y-20766000D03*
%TD*%
D49*
%TO.C,C26*%
X70932000Y-72582000D03*
X72832000Y-72582000D03*
%TD*%
D19*
%TO.C,R23*%
X46988000Y-28513000D03*
X48008000Y-28513000D03*
%TD*%
D20*
%TO.C,J10*%
X15240000Y-70770000D03*
X15240000Y-67670000D03*
X15240000Y-59370000D03*
%TD*%
D43*
%TO.C,J5*%
X43942000Y-15432000D03*
D44*
X43942000Y-17972000D03*
X43942000Y-20512000D03*
X43942000Y-23052000D03*
X43942000Y-25592000D03*
X43942000Y-28132000D03*
X43942000Y-30672000D03*
X43942000Y-33212000D03*
X43942000Y-35752000D03*
X43942000Y-38292000D03*
X43942000Y-40832000D03*
X43942000Y-43372000D03*
X43942000Y-45912000D03*
X43942000Y-48452000D03*
X43942000Y-50992000D03*
X43942000Y-53532000D03*
%TD*%
D24*
%TO.C,R55*%
X78740000Y-48958000D03*
X78740000Y-49978000D03*
%TD*%
D50*
%TO.C,U4*%
X66429500Y-52322000D03*
X66429500Y-51922000D03*
X66429500Y-51522000D03*
X66429500Y-51122000D03*
X66429500Y-50722000D03*
X66429500Y-50322000D03*
X66429500Y-49922000D03*
X66429500Y-49522000D03*
X66429500Y-49122000D03*
X66429500Y-48722000D03*
X66429500Y-48322000D03*
X66429500Y-47922000D03*
X66429500Y-47522000D03*
X66429500Y-47122000D03*
D51*
X65592000Y-46284500D03*
X65192000Y-46284500D03*
X64792000Y-46284500D03*
X64392000Y-46284500D03*
X63992000Y-46284500D03*
X63592000Y-46284500D03*
X63192000Y-46284500D03*
X62792000Y-46284500D03*
X62392000Y-46284500D03*
X61992000Y-46284500D03*
X61592000Y-46284500D03*
X61192000Y-46284500D03*
X60792000Y-46284500D03*
X60392000Y-46284500D03*
D50*
X59554500Y-47122000D03*
X59554500Y-47522000D03*
X59554500Y-47922000D03*
X59554500Y-48322000D03*
X59554500Y-48722000D03*
X59554500Y-49122000D03*
X59554500Y-49522000D03*
X59554500Y-49922000D03*
X59554500Y-50322000D03*
X59554500Y-50722000D03*
X59554500Y-51122000D03*
X59554500Y-51522000D03*
X59554500Y-51922000D03*
X59554500Y-52322000D03*
D51*
X60392000Y-53159500D03*
X60792000Y-53159500D03*
X61192000Y-53159500D03*
X61592000Y-53159500D03*
X61992000Y-53159500D03*
X62392000Y-53159500D03*
X62792000Y-53159500D03*
X63192000Y-53159500D03*
X63592000Y-53159500D03*
X63992000Y-53159500D03*
X64392000Y-53159500D03*
X64792000Y-53159500D03*
X65192000Y-53159500D03*
X65592000Y-53159500D03*
D52*
X62992000Y-49722000D03*
%TD*%
D14*
%TO.C,R52*%
X61851000Y-20131000D03*
X60831000Y-20131000D03*
%TD*%
D13*
%TO.C,LED12*%
X34560000Y-55865000D03*
X34560000Y-57165000D03*
X36560000Y-57165000D03*
X36560000Y-55865000D03*
%TD*%
D23*
%TO.C,D4*%
X74802000Y-40324000D03*
X71502000Y-40324000D03*
%TD*%
D14*
%TO.C,R7*%
X78488000Y-38292000D03*
X77468000Y-38292000D03*
%TD*%
D43*
%TO.C,J18*%
X43942000Y-63692000D03*
D44*
X43942000Y-66232000D03*
X43942000Y-68772000D03*
%TD*%
%TO.C,J2*%
X39370000Y-39370000D03*
X39370000Y-36830000D03*
X39370000Y-34290000D03*
X39370000Y-31750000D03*
X39370000Y-29210000D03*
X39370000Y-26670000D03*
X39370000Y-24130000D03*
X39370000Y-21590000D03*
X39370000Y-19050000D03*
X39370000Y-16510000D03*
X39370000Y-13970000D03*
X39370000Y-11430000D03*
X39370000Y-8890000D03*
X39370000Y-6350000D03*
X39370000Y-3810000D03*
D43*
X39370000Y-1270000D03*
%TD*%
D40*
%TO.C,J11*%
X79502000Y-72582000D03*
X76962000Y-72582000D03*
X79502000Y-75122000D03*
X76962000Y-75122000D03*
X79502000Y-77662000D03*
X76962000Y-77662000D03*
X79502000Y-80202000D03*
X76962000Y-80202000D03*
X79502000Y-82742000D03*
X76962000Y-82742000D03*
X79502000Y-85282000D03*
X76962000Y-85282000D03*
X79502000Y-87822000D03*
X76962000Y-87822000D03*
X79502000Y-90362000D03*
X76962000Y-90362000D03*
%TD*%
D43*
%TO.C,J22*%
X43942000Y-73852000D03*
D44*
X43942000Y-76392000D03*
X43942000Y-78932000D03*
X43942000Y-81472000D03*
X43942000Y-84012000D03*
X43942000Y-86552000D03*
X43942000Y-89092000D03*
X43942000Y-91632000D03*
X43942000Y-94172000D03*
X43942000Y-96712000D03*
X43942000Y-99252000D03*
%TD*%
D43*
%TO.C,J1*%
X1270000Y-1270000D03*
D44*
X1270000Y-3810000D03*
X1270000Y-6350000D03*
X1270000Y-8890000D03*
X1270000Y-11430000D03*
X1270000Y-13970000D03*
X1270000Y-16510000D03*
X1270000Y-19050000D03*
X1270000Y-21590000D03*
X1270000Y-24130000D03*
X1270000Y-26670000D03*
X1270000Y-29210000D03*
X1270000Y-31750000D03*
X1270000Y-34290000D03*
X1270000Y-36830000D03*
X1270000Y-39370000D03*
%TD*%
M02*
