%TF.GenerationSoftware,KiCad,Pcbnew,7.0.9*%
%TF.CreationDate,2023-11-30T22:46:54+01:00*%
%TF.ProjectId,euroPi-kicad,6575726f-5069-42d6-9b69-6361642e6b69,rev?*%
%TF.SameCoordinates,Original*%
%TF.FileFunction,Drillmap*%
%TF.FilePolarity,Positive*%
%FSLAX45Y45*%
G04 Gerber Fmt 4.5, Leading zero omitted, Abs format (unit mm)*
G04 Created by KiCad (PCBNEW 7.0.9) date 2023-11-30 22:46:54*
%MOMM*%
%LPD*%
G01*
G04 APERTURE LIST*
%ADD10C,0.100000*%
%ADD11C,0.200000*%
%ADD12C,0.170000*%
%ADD13C,0.220000*%
%ADD14C,0.400000*%
G04 APERTURE END LIST*
D10*
X12899380Y-10261080D02*
G75*
G03*
X12899380Y-10261080I-175000J0D01*
G01*
X13024380Y-13005080D02*
G75*
G03*
X13024380Y-13005080I-300000J0D01*
G01*
X13081419Y-4858340D02*
G75*
G03*
X12974320Y-4965020I-209J-106890D01*
G01*
X16021580Y-13004800D02*
G75*
G03*
X16021580Y-13004800I-300000J0D01*
G01*
X12974320Y-5488521D02*
G75*
G03*
X13081000Y-5595620I106890J-209D01*
G01*
X16021580Y-11226800D02*
G75*
G03*
X16021580Y-11226800I-300000J0D01*
G01*
X14525520Y-11226800D02*
G75*
G03*
X14525520Y-11226800I-300000J0D01*
G01*
X14525520Y-13004800D02*
G75*
G03*
X14525520Y-13004800I-300000J0D01*
G01*
X8128000Y-2540000D02*
X20320000Y-2540000D01*
X20320000Y-15389860D01*
X8128000Y-15389860D01*
X8128000Y-2540000D01*
X13650320Y-6807200D02*
G75*
G03*
X13650320Y-6807200I-390000J0D01*
G01*
X13481580Y-4058400D02*
G75*
G03*
X13481580Y-4058400I-300000J0D01*
G01*
X15896580Y-12039600D02*
G75*
G03*
X15896580Y-12039600I-175000J0D01*
G01*
X12899380Y-12039880D02*
G75*
G03*
X12899380Y-12039880I-175000J0D01*
G01*
X15361501Y-5595830D02*
G75*
G03*
X15468600Y-5489150I209J106890D01*
G01*
X15593420Y-6807200D02*
G75*
G03*
X15593420Y-6807200I-390000J0D01*
G01*
X12974320Y-4965020D02*
X12974322Y-5488521D01*
X14400520Y-12039600D02*
G75*
G03*
X14400520Y-12039600I-175000J0D01*
G01*
X14414500Y-7835900D02*
X16014700Y-7835900D01*
X16014700Y-9423400D01*
X14414500Y-9423400D01*
X14414500Y-7835900D01*
X12433300Y-7835900D02*
X14033500Y-7835900D01*
X14033500Y-9423400D01*
X12433300Y-9423400D01*
X12433300Y-7835900D01*
X13081000Y-5595620D02*
X15361501Y-5595829D01*
X15896580Y-10260800D02*
G75*
G03*
X15896580Y-10260800I-175000J0D01*
G01*
X15468599Y-4965700D02*
G75*
G03*
X15361922Y-4858601I-106889J210D01*
G01*
X15564380Y-4069600D02*
G75*
G03*
X15564380Y-4069600I-300000J0D01*
G01*
X15468600Y-5489150D02*
X15468600Y-4965700D01*
X15361922Y-4858601D02*
X13081419Y-4858342D01*
X14400520Y-10260800D02*
G75*
G03*
X14400520Y-10260800I-175000J0D01*
G01*
X13024380Y-11227080D02*
G75*
G03*
X13024380Y-11227080I-300000J0D01*
G01*
D11*
D12*
X8576400Y-7701000D02*
X8746400Y-7871000D01*
X8746400Y-7701000D02*
X8576400Y-7871000D01*
X9592400Y-7701000D02*
X9762400Y-7871000D01*
X9762400Y-7701000D02*
X9592400Y-7871000D01*
X10560140Y-7703540D02*
X10730140Y-7873540D01*
X10730140Y-7703540D02*
X10560140Y-7873540D01*
X11576140Y-7703540D02*
X11746140Y-7873540D01*
X11746140Y-7703540D02*
X11576140Y-7873540D01*
D13*
X8853265Y-5958700D02*
G75*
G03*
X8853265Y-5958700I-110000J0D01*
G01*
X9733265Y-5958700D02*
G75*
G03*
X9733265Y-5958700I-110000J0D01*
G01*
X10805940Y-5959740D02*
G75*
G03*
X10805940Y-5959740I-110000J0D01*
G01*
X11685940Y-5959740D02*
G75*
G03*
X11685940Y-5959740I-110000J0D01*
G01*
D14*
X9169400Y-7586000D02*
X9169400Y-7986000D01*
X8969400Y-7786000D02*
X9369400Y-7786000D01*
X11153140Y-7588540D02*
X11153140Y-7988540D01*
X10953140Y-7788540D02*
X11353140Y-7788540D01*
D11*
X8383777Y-15706344D02*
X8383777Y-15506344D01*
X8383777Y-15506344D02*
X8431396Y-15506344D01*
X8431396Y-15506344D02*
X8459967Y-15515868D01*
X8459967Y-15515868D02*
X8479015Y-15534915D01*
X8479015Y-15534915D02*
X8488539Y-15553963D01*
X8488539Y-15553963D02*
X8498063Y-15592058D01*
X8498063Y-15592058D02*
X8498063Y-15620629D01*
X8498063Y-15620629D02*
X8488539Y-15658725D01*
X8488539Y-15658725D02*
X8479015Y-15677772D01*
X8479015Y-15677772D02*
X8459967Y-15696820D01*
X8459967Y-15696820D02*
X8431396Y-15706344D01*
X8431396Y-15706344D02*
X8383777Y-15706344D01*
X8583777Y-15706344D02*
X8583777Y-15573010D01*
X8583777Y-15611106D02*
X8593301Y-15592058D01*
X8593301Y-15592058D02*
X8602824Y-15582534D01*
X8602824Y-15582534D02*
X8621872Y-15573010D01*
X8621872Y-15573010D02*
X8640920Y-15573010D01*
X8707586Y-15706344D02*
X8707586Y-15573010D01*
X8707586Y-15506344D02*
X8698063Y-15515868D01*
X8698063Y-15515868D02*
X8707586Y-15525391D01*
X8707586Y-15525391D02*
X8717110Y-15515868D01*
X8717110Y-15515868D02*
X8707586Y-15506344D01*
X8707586Y-15506344D02*
X8707586Y-15525391D01*
X8831396Y-15706344D02*
X8812348Y-15696820D01*
X8812348Y-15696820D02*
X8802824Y-15677772D01*
X8802824Y-15677772D02*
X8802824Y-15506344D01*
X8936158Y-15706344D02*
X8917110Y-15696820D01*
X8917110Y-15696820D02*
X8907586Y-15677772D01*
X8907586Y-15677772D02*
X8907586Y-15506344D01*
X9164729Y-15706344D02*
X9164729Y-15506344D01*
X9164729Y-15506344D02*
X9231396Y-15649201D01*
X9231396Y-15649201D02*
X9298063Y-15506344D01*
X9298063Y-15506344D02*
X9298063Y-15706344D01*
X9479015Y-15706344D02*
X9479015Y-15601582D01*
X9479015Y-15601582D02*
X9469491Y-15582534D01*
X9469491Y-15582534D02*
X9450444Y-15573010D01*
X9450444Y-15573010D02*
X9412348Y-15573010D01*
X9412348Y-15573010D02*
X9393301Y-15582534D01*
X9479015Y-15696820D02*
X9459967Y-15706344D01*
X9459967Y-15706344D02*
X9412348Y-15706344D01*
X9412348Y-15706344D02*
X9393301Y-15696820D01*
X9393301Y-15696820D02*
X9383777Y-15677772D01*
X9383777Y-15677772D02*
X9383777Y-15658725D01*
X9383777Y-15658725D02*
X9393301Y-15639677D01*
X9393301Y-15639677D02*
X9412348Y-15630153D01*
X9412348Y-15630153D02*
X9459967Y-15630153D01*
X9459967Y-15630153D02*
X9479015Y-15620629D01*
X9574253Y-15573010D02*
X9574253Y-15773010D01*
X9574253Y-15582534D02*
X9593301Y-15573010D01*
X9593301Y-15573010D02*
X9631396Y-15573010D01*
X9631396Y-15573010D02*
X9650444Y-15582534D01*
X9650444Y-15582534D02*
X9659967Y-15592058D01*
X9659967Y-15592058D02*
X9669491Y-15611106D01*
X9669491Y-15611106D02*
X9669491Y-15668248D01*
X9669491Y-15668248D02*
X9659967Y-15687296D01*
X9659967Y-15687296D02*
X9650444Y-15696820D01*
X9650444Y-15696820D02*
X9631396Y-15706344D01*
X9631396Y-15706344D02*
X9593301Y-15706344D01*
X9593301Y-15706344D02*
X9574253Y-15696820D01*
X9755205Y-15687296D02*
X9764729Y-15696820D01*
X9764729Y-15696820D02*
X9755205Y-15706344D01*
X9755205Y-15706344D02*
X9745682Y-15696820D01*
X9745682Y-15696820D02*
X9755205Y-15687296D01*
X9755205Y-15687296D02*
X9755205Y-15706344D01*
X9755205Y-15582534D02*
X9764729Y-15592058D01*
X9764729Y-15592058D02*
X9755205Y-15601582D01*
X9755205Y-15601582D02*
X9745682Y-15592058D01*
X9745682Y-15592058D02*
X9755205Y-15582534D01*
X9755205Y-15582534D02*
X9755205Y-15601582D01*
D12*
X7953000Y-15949860D02*
X8123000Y-16119860D01*
X8123000Y-15949860D02*
X7953000Y-16119860D01*
D11*
X8488539Y-16126344D02*
X8374253Y-16126344D01*
X8431396Y-16126344D02*
X8431396Y-15926344D01*
X8431396Y-15926344D02*
X8412348Y-15954915D01*
X8412348Y-15954915D02*
X8393301Y-15973963D01*
X8393301Y-15973963D02*
X8374253Y-15983487D01*
X8574253Y-16107296D02*
X8583777Y-16116820D01*
X8583777Y-16116820D02*
X8574253Y-16126344D01*
X8574253Y-16126344D02*
X8564729Y-16116820D01*
X8564729Y-16116820D02*
X8574253Y-16107296D01*
X8574253Y-16107296D02*
X8574253Y-16126344D01*
X8650444Y-15926344D02*
X8783777Y-15926344D01*
X8783777Y-15926344D02*
X8698063Y-16126344D01*
X8898063Y-15926344D02*
X8917110Y-15926344D01*
X8917110Y-15926344D02*
X8936158Y-15935868D01*
X8936158Y-15935868D02*
X8945682Y-15945391D01*
X8945682Y-15945391D02*
X8955205Y-15964439D01*
X8955205Y-15964439D02*
X8964729Y-16002534D01*
X8964729Y-16002534D02*
X8964729Y-16050153D01*
X8964729Y-16050153D02*
X8955205Y-16088248D01*
X8955205Y-16088248D02*
X8945682Y-16107296D01*
X8945682Y-16107296D02*
X8936158Y-16116820D01*
X8936158Y-16116820D02*
X8917110Y-16126344D01*
X8917110Y-16126344D02*
X8898063Y-16126344D01*
X8898063Y-16126344D02*
X8879015Y-16116820D01*
X8879015Y-16116820D02*
X8869491Y-16107296D01*
X8869491Y-16107296D02*
X8859967Y-16088248D01*
X8859967Y-16088248D02*
X8850444Y-16050153D01*
X8850444Y-16050153D02*
X8850444Y-16002534D01*
X8850444Y-16002534D02*
X8859967Y-15964439D01*
X8859967Y-15964439D02*
X8869491Y-15945391D01*
X8869491Y-15945391D02*
X8879015Y-15935868D01*
X8879015Y-15935868D02*
X8898063Y-15926344D01*
X9088539Y-15926344D02*
X9107586Y-15926344D01*
X9107586Y-15926344D02*
X9126634Y-15935868D01*
X9126634Y-15935868D02*
X9136158Y-15945391D01*
X9136158Y-15945391D02*
X9145682Y-15964439D01*
X9145682Y-15964439D02*
X9155205Y-16002534D01*
X9155205Y-16002534D02*
X9155205Y-16050153D01*
X9155205Y-16050153D02*
X9145682Y-16088248D01*
X9145682Y-16088248D02*
X9136158Y-16107296D01*
X9136158Y-16107296D02*
X9126634Y-16116820D01*
X9126634Y-16116820D02*
X9107586Y-16126344D01*
X9107586Y-16126344D02*
X9088539Y-16126344D01*
X9088539Y-16126344D02*
X9069491Y-16116820D01*
X9069491Y-16116820D02*
X9059967Y-16107296D01*
X9059967Y-16107296D02*
X9050444Y-16088248D01*
X9050444Y-16088248D02*
X9040920Y-16050153D01*
X9040920Y-16050153D02*
X9040920Y-16002534D01*
X9040920Y-16002534D02*
X9050444Y-15964439D01*
X9050444Y-15964439D02*
X9059967Y-15945391D01*
X9059967Y-15945391D02*
X9069491Y-15935868D01*
X9069491Y-15935868D02*
X9088539Y-15926344D01*
X9240920Y-16126344D02*
X9240920Y-15993010D01*
X9240920Y-16012058D02*
X9250444Y-16002534D01*
X9250444Y-16002534D02*
X9269491Y-15993010D01*
X9269491Y-15993010D02*
X9298063Y-15993010D01*
X9298063Y-15993010D02*
X9317110Y-16002534D01*
X9317110Y-16002534D02*
X9326634Y-16021582D01*
X9326634Y-16021582D02*
X9326634Y-16126344D01*
X9326634Y-16021582D02*
X9336158Y-16002534D01*
X9336158Y-16002534D02*
X9355205Y-15993010D01*
X9355205Y-15993010D02*
X9383777Y-15993010D01*
X9383777Y-15993010D02*
X9402825Y-16002534D01*
X9402825Y-16002534D02*
X9412348Y-16021582D01*
X9412348Y-16021582D02*
X9412348Y-16126344D01*
X9507586Y-16126344D02*
X9507586Y-15993010D01*
X9507586Y-16012058D02*
X9517110Y-16002534D01*
X9517110Y-16002534D02*
X9536158Y-15993010D01*
X9536158Y-15993010D02*
X9564729Y-15993010D01*
X9564729Y-15993010D02*
X9583777Y-16002534D01*
X9583777Y-16002534D02*
X9593301Y-16021582D01*
X9593301Y-16021582D02*
X9593301Y-16126344D01*
X9593301Y-16021582D02*
X9602825Y-16002534D01*
X9602825Y-16002534D02*
X9621872Y-15993010D01*
X9621872Y-15993010D02*
X9650444Y-15993010D01*
X9650444Y-15993010D02*
X9669491Y-16002534D01*
X9669491Y-16002534D02*
X9679015Y-16021582D01*
X9679015Y-16021582D02*
X9679015Y-16126344D01*
X10069491Y-15916820D02*
X9898063Y-16173963D01*
X10326634Y-15926344D02*
X10345682Y-15926344D01*
X10345682Y-15926344D02*
X10364729Y-15935868D01*
X10364729Y-15935868D02*
X10374253Y-15945391D01*
X10374253Y-15945391D02*
X10383777Y-15964439D01*
X10383777Y-15964439D02*
X10393301Y-16002534D01*
X10393301Y-16002534D02*
X10393301Y-16050153D01*
X10393301Y-16050153D02*
X10383777Y-16088248D01*
X10383777Y-16088248D02*
X10374253Y-16107296D01*
X10374253Y-16107296D02*
X10364729Y-16116820D01*
X10364729Y-16116820D02*
X10345682Y-16126344D01*
X10345682Y-16126344D02*
X10326634Y-16126344D01*
X10326634Y-16126344D02*
X10307587Y-16116820D01*
X10307587Y-16116820D02*
X10298063Y-16107296D01*
X10298063Y-16107296D02*
X10288539Y-16088248D01*
X10288539Y-16088248D02*
X10279015Y-16050153D01*
X10279015Y-16050153D02*
X10279015Y-16002534D01*
X10279015Y-16002534D02*
X10288539Y-15964439D01*
X10288539Y-15964439D02*
X10298063Y-15945391D01*
X10298063Y-15945391D02*
X10307587Y-15935868D01*
X10307587Y-15935868D02*
X10326634Y-15926344D01*
X10479015Y-16107296D02*
X10488539Y-16116820D01*
X10488539Y-16116820D02*
X10479015Y-16126344D01*
X10479015Y-16126344D02*
X10469491Y-16116820D01*
X10469491Y-16116820D02*
X10479015Y-16107296D01*
X10479015Y-16107296D02*
X10479015Y-16126344D01*
X10612348Y-15926344D02*
X10631396Y-15926344D01*
X10631396Y-15926344D02*
X10650444Y-15935868D01*
X10650444Y-15935868D02*
X10659968Y-15945391D01*
X10659968Y-15945391D02*
X10669491Y-15964439D01*
X10669491Y-15964439D02*
X10679015Y-16002534D01*
X10679015Y-16002534D02*
X10679015Y-16050153D01*
X10679015Y-16050153D02*
X10669491Y-16088248D01*
X10669491Y-16088248D02*
X10659968Y-16107296D01*
X10659968Y-16107296D02*
X10650444Y-16116820D01*
X10650444Y-16116820D02*
X10631396Y-16126344D01*
X10631396Y-16126344D02*
X10612348Y-16126344D01*
X10612348Y-16126344D02*
X10593301Y-16116820D01*
X10593301Y-16116820D02*
X10583777Y-16107296D01*
X10583777Y-16107296D02*
X10574253Y-16088248D01*
X10574253Y-16088248D02*
X10564729Y-16050153D01*
X10564729Y-16050153D02*
X10564729Y-16002534D01*
X10564729Y-16002534D02*
X10574253Y-15964439D01*
X10574253Y-15964439D02*
X10583777Y-15945391D01*
X10583777Y-15945391D02*
X10593301Y-15935868D01*
X10593301Y-15935868D02*
X10612348Y-15926344D01*
X10850444Y-15926344D02*
X10812348Y-15926344D01*
X10812348Y-15926344D02*
X10793301Y-15935868D01*
X10793301Y-15935868D02*
X10783777Y-15945391D01*
X10783777Y-15945391D02*
X10764729Y-15973963D01*
X10764729Y-15973963D02*
X10755206Y-16012058D01*
X10755206Y-16012058D02*
X10755206Y-16088248D01*
X10755206Y-16088248D02*
X10764729Y-16107296D01*
X10764729Y-16107296D02*
X10774253Y-16116820D01*
X10774253Y-16116820D02*
X10793301Y-16126344D01*
X10793301Y-16126344D02*
X10831396Y-16126344D01*
X10831396Y-16126344D02*
X10850444Y-16116820D01*
X10850444Y-16116820D02*
X10859968Y-16107296D01*
X10859968Y-16107296D02*
X10869491Y-16088248D01*
X10869491Y-16088248D02*
X10869491Y-16040629D01*
X10869491Y-16040629D02*
X10859968Y-16021582D01*
X10859968Y-16021582D02*
X10850444Y-16012058D01*
X10850444Y-16012058D02*
X10831396Y-16002534D01*
X10831396Y-16002534D02*
X10793301Y-16002534D01*
X10793301Y-16002534D02*
X10774253Y-16012058D01*
X10774253Y-16012058D02*
X10764729Y-16021582D01*
X10764729Y-16021582D02*
X10755206Y-16040629D01*
X11040920Y-15926344D02*
X11002825Y-15926344D01*
X11002825Y-15926344D02*
X10983777Y-15935868D01*
X10983777Y-15935868D02*
X10974253Y-15945391D01*
X10974253Y-15945391D02*
X10955206Y-15973963D01*
X10955206Y-15973963D02*
X10945682Y-16012058D01*
X10945682Y-16012058D02*
X10945682Y-16088248D01*
X10945682Y-16088248D02*
X10955206Y-16107296D01*
X10955206Y-16107296D02*
X10964729Y-16116820D01*
X10964729Y-16116820D02*
X10983777Y-16126344D01*
X10983777Y-16126344D02*
X11021872Y-16126344D01*
X11021872Y-16126344D02*
X11040920Y-16116820D01*
X11040920Y-16116820D02*
X11050444Y-16107296D01*
X11050444Y-16107296D02*
X11059968Y-16088248D01*
X11059968Y-16088248D02*
X11059968Y-16040629D01*
X11059968Y-16040629D02*
X11050444Y-16021582D01*
X11050444Y-16021582D02*
X11040920Y-16012058D01*
X11040920Y-16012058D02*
X11021872Y-16002534D01*
X11021872Y-16002534D02*
X10983777Y-16002534D01*
X10983777Y-16002534D02*
X10964729Y-16012058D01*
X10964729Y-16012058D02*
X10955206Y-16021582D01*
X10955206Y-16021582D02*
X10945682Y-16040629D01*
X11155206Y-16126344D02*
X11193301Y-16126344D01*
X11193301Y-16126344D02*
X11212348Y-16116820D01*
X11212348Y-16116820D02*
X11221872Y-16107296D01*
X11221872Y-16107296D02*
X11240920Y-16078725D01*
X11240920Y-16078725D02*
X11250444Y-16040629D01*
X11250444Y-16040629D02*
X11250444Y-15964439D01*
X11250444Y-15964439D02*
X11240920Y-15945391D01*
X11240920Y-15945391D02*
X11231396Y-15935868D01*
X11231396Y-15935868D02*
X11212348Y-15926344D01*
X11212348Y-15926344D02*
X11174253Y-15926344D01*
X11174253Y-15926344D02*
X11155206Y-15935868D01*
X11155206Y-15935868D02*
X11145682Y-15945391D01*
X11145682Y-15945391D02*
X11136158Y-15964439D01*
X11136158Y-15964439D02*
X11136158Y-16012058D01*
X11136158Y-16012058D02*
X11145682Y-16031106D01*
X11145682Y-16031106D02*
X11155206Y-16040629D01*
X11155206Y-16040629D02*
X11174253Y-16050153D01*
X11174253Y-16050153D02*
X11212348Y-16050153D01*
X11212348Y-16050153D02*
X11231396Y-16040629D01*
X11231396Y-16040629D02*
X11240920Y-16031106D01*
X11240920Y-16031106D02*
X11250444Y-16012058D01*
X11326634Y-15926344D02*
X11326634Y-15964439D01*
X11402825Y-15926344D02*
X11402825Y-15964439D01*
X11698063Y-16202534D02*
X11688539Y-16193010D01*
X11688539Y-16193010D02*
X11669491Y-16164439D01*
X11669491Y-16164439D02*
X11659968Y-16145391D01*
X11659968Y-16145391D02*
X11650444Y-16116820D01*
X11650444Y-16116820D02*
X11640920Y-16069201D01*
X11640920Y-16069201D02*
X11640920Y-16031106D01*
X11640920Y-16031106D02*
X11650444Y-15983487D01*
X11650444Y-15983487D02*
X11659968Y-15954915D01*
X11659968Y-15954915D02*
X11669491Y-15935868D01*
X11669491Y-15935868D02*
X11688539Y-15907296D01*
X11688539Y-15907296D02*
X11698063Y-15897772D01*
X11859968Y-15993010D02*
X11859968Y-16126344D01*
X11812348Y-15916820D02*
X11764729Y-16059677D01*
X11764729Y-16059677D02*
X11888539Y-16059677D01*
X12117110Y-16126344D02*
X12117110Y-15926344D01*
X12202825Y-16126344D02*
X12202825Y-16021582D01*
X12202825Y-16021582D02*
X12193301Y-16002534D01*
X12193301Y-16002534D02*
X12174253Y-15993010D01*
X12174253Y-15993010D02*
X12145682Y-15993010D01*
X12145682Y-15993010D02*
X12126634Y-16002534D01*
X12126634Y-16002534D02*
X12117110Y-16012058D01*
X12326634Y-16126344D02*
X12307587Y-16116820D01*
X12307587Y-16116820D02*
X12298063Y-16107296D01*
X12298063Y-16107296D02*
X12288539Y-16088248D01*
X12288539Y-16088248D02*
X12288539Y-16031106D01*
X12288539Y-16031106D02*
X12298063Y-16012058D01*
X12298063Y-16012058D02*
X12307587Y-16002534D01*
X12307587Y-16002534D02*
X12326634Y-15993010D01*
X12326634Y-15993010D02*
X12355206Y-15993010D01*
X12355206Y-15993010D02*
X12374253Y-16002534D01*
X12374253Y-16002534D02*
X12383777Y-16012058D01*
X12383777Y-16012058D02*
X12393301Y-16031106D01*
X12393301Y-16031106D02*
X12393301Y-16088248D01*
X12393301Y-16088248D02*
X12383777Y-16107296D01*
X12383777Y-16107296D02*
X12374253Y-16116820D01*
X12374253Y-16116820D02*
X12355206Y-16126344D01*
X12355206Y-16126344D02*
X12326634Y-16126344D01*
X12507587Y-16126344D02*
X12488539Y-16116820D01*
X12488539Y-16116820D02*
X12479015Y-16097772D01*
X12479015Y-16097772D02*
X12479015Y-15926344D01*
X12659968Y-16116820D02*
X12640920Y-16126344D01*
X12640920Y-16126344D02*
X12602825Y-16126344D01*
X12602825Y-16126344D02*
X12583777Y-16116820D01*
X12583777Y-16116820D02*
X12574253Y-16097772D01*
X12574253Y-16097772D02*
X12574253Y-16021582D01*
X12574253Y-16021582D02*
X12583777Y-16002534D01*
X12583777Y-16002534D02*
X12602825Y-15993010D01*
X12602825Y-15993010D02*
X12640920Y-15993010D01*
X12640920Y-15993010D02*
X12659968Y-16002534D01*
X12659968Y-16002534D02*
X12669491Y-16021582D01*
X12669491Y-16021582D02*
X12669491Y-16040629D01*
X12669491Y-16040629D02*
X12574253Y-16059677D01*
X12745682Y-16116820D02*
X12764730Y-16126344D01*
X12764730Y-16126344D02*
X12802825Y-16126344D01*
X12802825Y-16126344D02*
X12821872Y-16116820D01*
X12821872Y-16116820D02*
X12831396Y-16097772D01*
X12831396Y-16097772D02*
X12831396Y-16088248D01*
X12831396Y-16088248D02*
X12821872Y-16069201D01*
X12821872Y-16069201D02*
X12802825Y-16059677D01*
X12802825Y-16059677D02*
X12774253Y-16059677D01*
X12774253Y-16059677D02*
X12755206Y-16050153D01*
X12755206Y-16050153D02*
X12745682Y-16031106D01*
X12745682Y-16031106D02*
X12745682Y-16021582D01*
X12745682Y-16021582D02*
X12755206Y-16002534D01*
X12755206Y-16002534D02*
X12774253Y-15993010D01*
X12774253Y-15993010D02*
X12802825Y-15993010D01*
X12802825Y-15993010D02*
X12821872Y-16002534D01*
X12898063Y-16202534D02*
X12907587Y-16193010D01*
X12907587Y-16193010D02*
X12926634Y-16164439D01*
X12926634Y-16164439D02*
X12936158Y-16145391D01*
X12936158Y-16145391D02*
X12945682Y-16116820D01*
X12945682Y-16116820D02*
X12955206Y-16069201D01*
X12955206Y-16069201D02*
X12955206Y-16031106D01*
X12955206Y-16031106D02*
X12945682Y-15983487D01*
X12945682Y-15983487D02*
X12936158Y-15954915D01*
X12936158Y-15954915D02*
X12926634Y-15935868D01*
X12926634Y-15935868D02*
X12907587Y-15907296D01*
X12907587Y-15907296D02*
X12898063Y-15897772D01*
X13259968Y-16202534D02*
X13250444Y-16193010D01*
X13250444Y-16193010D02*
X13231396Y-16164439D01*
X13231396Y-16164439D02*
X13221872Y-16145391D01*
X13221872Y-16145391D02*
X13212349Y-16116820D01*
X13212349Y-16116820D02*
X13202825Y-16069201D01*
X13202825Y-16069201D02*
X13202825Y-16031106D01*
X13202825Y-16031106D02*
X13212349Y-15983487D01*
X13212349Y-15983487D02*
X13221872Y-15954915D01*
X13221872Y-15954915D02*
X13231396Y-15935868D01*
X13231396Y-15935868D02*
X13250444Y-15907296D01*
X13250444Y-15907296D02*
X13259968Y-15897772D01*
X13336158Y-15993010D02*
X13336158Y-16126344D01*
X13336158Y-16012058D02*
X13345682Y-16002534D01*
X13345682Y-16002534D02*
X13364730Y-15993010D01*
X13364730Y-15993010D02*
X13393301Y-15993010D01*
X13393301Y-15993010D02*
X13412349Y-16002534D01*
X13412349Y-16002534D02*
X13421872Y-16021582D01*
X13421872Y-16021582D02*
X13421872Y-16126344D01*
X13545682Y-16126344D02*
X13526634Y-16116820D01*
X13526634Y-16116820D02*
X13517111Y-16107296D01*
X13517111Y-16107296D02*
X13507587Y-16088248D01*
X13507587Y-16088248D02*
X13507587Y-16031106D01*
X13507587Y-16031106D02*
X13517111Y-16012058D01*
X13517111Y-16012058D02*
X13526634Y-16002534D01*
X13526634Y-16002534D02*
X13545682Y-15993010D01*
X13545682Y-15993010D02*
X13574253Y-15993010D01*
X13574253Y-15993010D02*
X13593301Y-16002534D01*
X13593301Y-16002534D02*
X13602825Y-16012058D01*
X13602825Y-16012058D02*
X13612349Y-16031106D01*
X13612349Y-16031106D02*
X13612349Y-16088248D01*
X13612349Y-16088248D02*
X13602825Y-16107296D01*
X13602825Y-16107296D02*
X13593301Y-16116820D01*
X13593301Y-16116820D02*
X13574253Y-16126344D01*
X13574253Y-16126344D02*
X13545682Y-16126344D01*
X13669492Y-15993010D02*
X13745682Y-15993010D01*
X13698063Y-15926344D02*
X13698063Y-16097772D01*
X13698063Y-16097772D02*
X13707587Y-16116820D01*
X13707587Y-16116820D02*
X13726634Y-16126344D01*
X13726634Y-16126344D02*
X13745682Y-16126344D01*
X13964730Y-15993010D02*
X13964730Y-16193010D01*
X13964730Y-16002534D02*
X13983777Y-15993010D01*
X13983777Y-15993010D02*
X14021873Y-15993010D01*
X14021873Y-15993010D02*
X14040920Y-16002534D01*
X14040920Y-16002534D02*
X14050444Y-16012058D01*
X14050444Y-16012058D02*
X14059968Y-16031106D01*
X14059968Y-16031106D02*
X14059968Y-16088248D01*
X14059968Y-16088248D02*
X14050444Y-16107296D01*
X14050444Y-16107296D02*
X14040920Y-16116820D01*
X14040920Y-16116820D02*
X14021873Y-16126344D01*
X14021873Y-16126344D02*
X13983777Y-16126344D01*
X13983777Y-16126344D02*
X13964730Y-16116820D01*
X14174253Y-16126344D02*
X14155206Y-16116820D01*
X14155206Y-16116820D02*
X14145682Y-16097772D01*
X14145682Y-16097772D02*
X14145682Y-15926344D01*
X14336158Y-16126344D02*
X14336158Y-16021582D01*
X14336158Y-16021582D02*
X14326634Y-16002534D01*
X14326634Y-16002534D02*
X14307587Y-15993010D01*
X14307587Y-15993010D02*
X14269492Y-15993010D01*
X14269492Y-15993010D02*
X14250444Y-16002534D01*
X14336158Y-16116820D02*
X14317111Y-16126344D01*
X14317111Y-16126344D02*
X14269492Y-16126344D01*
X14269492Y-16126344D02*
X14250444Y-16116820D01*
X14250444Y-16116820D02*
X14240920Y-16097772D01*
X14240920Y-16097772D02*
X14240920Y-16078725D01*
X14240920Y-16078725D02*
X14250444Y-16059677D01*
X14250444Y-16059677D02*
X14269492Y-16050153D01*
X14269492Y-16050153D02*
X14317111Y-16050153D01*
X14317111Y-16050153D02*
X14336158Y-16040629D01*
X14402825Y-15993010D02*
X14479015Y-15993010D01*
X14431396Y-15926344D02*
X14431396Y-16097772D01*
X14431396Y-16097772D02*
X14440920Y-16116820D01*
X14440920Y-16116820D02*
X14459968Y-16126344D01*
X14459968Y-16126344D02*
X14479015Y-16126344D01*
X14621873Y-16116820D02*
X14602825Y-16126344D01*
X14602825Y-16126344D02*
X14564730Y-16126344D01*
X14564730Y-16126344D02*
X14545682Y-16116820D01*
X14545682Y-16116820D02*
X14536158Y-16097772D01*
X14536158Y-16097772D02*
X14536158Y-16021582D01*
X14536158Y-16021582D02*
X14545682Y-16002534D01*
X14545682Y-16002534D02*
X14564730Y-15993010D01*
X14564730Y-15993010D02*
X14602825Y-15993010D01*
X14602825Y-15993010D02*
X14621873Y-16002534D01*
X14621873Y-16002534D02*
X14631396Y-16021582D01*
X14631396Y-16021582D02*
X14631396Y-16040629D01*
X14631396Y-16040629D02*
X14536158Y-16059677D01*
X14802825Y-16126344D02*
X14802825Y-15926344D01*
X14802825Y-16116820D02*
X14783777Y-16126344D01*
X14783777Y-16126344D02*
X14745682Y-16126344D01*
X14745682Y-16126344D02*
X14726634Y-16116820D01*
X14726634Y-16116820D02*
X14717111Y-16107296D01*
X14717111Y-16107296D02*
X14707587Y-16088248D01*
X14707587Y-16088248D02*
X14707587Y-16031106D01*
X14707587Y-16031106D02*
X14717111Y-16012058D01*
X14717111Y-16012058D02*
X14726634Y-16002534D01*
X14726634Y-16002534D02*
X14745682Y-15993010D01*
X14745682Y-15993010D02*
X14783777Y-15993010D01*
X14783777Y-15993010D02*
X14802825Y-16002534D01*
X14879015Y-16202534D02*
X14888539Y-16193010D01*
X14888539Y-16193010D02*
X14907587Y-16164439D01*
X14907587Y-16164439D02*
X14917111Y-16145391D01*
X14917111Y-16145391D02*
X14926634Y-16116820D01*
X14926634Y-16116820D02*
X14936158Y-16069201D01*
X14936158Y-16069201D02*
X14936158Y-16031106D01*
X14936158Y-16031106D02*
X14926634Y-15983487D01*
X14926634Y-15983487D02*
X14917111Y-15954915D01*
X14917111Y-15954915D02*
X14907587Y-15935868D01*
X14907587Y-15935868D02*
X14888539Y-15907296D01*
X14888539Y-15907296D02*
X14879015Y-15897772D01*
X8123000Y-16324860D02*
G75*
G03*
X8123000Y-16324860I-100000J0D01*
G01*
X8374253Y-16235391D02*
X8383777Y-16225868D01*
X8383777Y-16225868D02*
X8402824Y-16216344D01*
X8402824Y-16216344D02*
X8450444Y-16216344D01*
X8450444Y-16216344D02*
X8469491Y-16225868D01*
X8469491Y-16225868D02*
X8479015Y-16235391D01*
X8479015Y-16235391D02*
X8488539Y-16254439D01*
X8488539Y-16254439D02*
X8488539Y-16273487D01*
X8488539Y-16273487D02*
X8479015Y-16302058D01*
X8479015Y-16302058D02*
X8364729Y-16416344D01*
X8364729Y-16416344D02*
X8488539Y-16416344D01*
X8574253Y-16397296D02*
X8583777Y-16406820D01*
X8583777Y-16406820D02*
X8574253Y-16416344D01*
X8574253Y-16416344D02*
X8564729Y-16406820D01*
X8564729Y-16406820D02*
X8574253Y-16397296D01*
X8574253Y-16397296D02*
X8574253Y-16416344D01*
X8659967Y-16235391D02*
X8669491Y-16225868D01*
X8669491Y-16225868D02*
X8688539Y-16216344D01*
X8688539Y-16216344D02*
X8736158Y-16216344D01*
X8736158Y-16216344D02*
X8755205Y-16225868D01*
X8755205Y-16225868D02*
X8764729Y-16235391D01*
X8764729Y-16235391D02*
X8774253Y-16254439D01*
X8774253Y-16254439D02*
X8774253Y-16273487D01*
X8774253Y-16273487D02*
X8764729Y-16302058D01*
X8764729Y-16302058D02*
X8650444Y-16416344D01*
X8650444Y-16416344D02*
X8774253Y-16416344D01*
X8898063Y-16216344D02*
X8917110Y-16216344D01*
X8917110Y-16216344D02*
X8936158Y-16225868D01*
X8936158Y-16225868D02*
X8945682Y-16235391D01*
X8945682Y-16235391D02*
X8955205Y-16254439D01*
X8955205Y-16254439D02*
X8964729Y-16292534D01*
X8964729Y-16292534D02*
X8964729Y-16340153D01*
X8964729Y-16340153D02*
X8955205Y-16378248D01*
X8955205Y-16378248D02*
X8945682Y-16397296D01*
X8945682Y-16397296D02*
X8936158Y-16406820D01*
X8936158Y-16406820D02*
X8917110Y-16416344D01*
X8917110Y-16416344D02*
X8898063Y-16416344D01*
X8898063Y-16416344D02*
X8879015Y-16406820D01*
X8879015Y-16406820D02*
X8869491Y-16397296D01*
X8869491Y-16397296D02*
X8859967Y-16378248D01*
X8859967Y-16378248D02*
X8850444Y-16340153D01*
X8850444Y-16340153D02*
X8850444Y-16292534D01*
X8850444Y-16292534D02*
X8859967Y-16254439D01*
X8859967Y-16254439D02*
X8869491Y-16235391D01*
X8869491Y-16235391D02*
X8879015Y-16225868D01*
X8879015Y-16225868D02*
X8898063Y-16216344D01*
X9088539Y-16216344D02*
X9107586Y-16216344D01*
X9107586Y-16216344D02*
X9126634Y-16225868D01*
X9126634Y-16225868D02*
X9136158Y-16235391D01*
X9136158Y-16235391D02*
X9145682Y-16254439D01*
X9145682Y-16254439D02*
X9155205Y-16292534D01*
X9155205Y-16292534D02*
X9155205Y-16340153D01*
X9155205Y-16340153D02*
X9145682Y-16378248D01*
X9145682Y-16378248D02*
X9136158Y-16397296D01*
X9136158Y-16397296D02*
X9126634Y-16406820D01*
X9126634Y-16406820D02*
X9107586Y-16416344D01*
X9107586Y-16416344D02*
X9088539Y-16416344D01*
X9088539Y-16416344D02*
X9069491Y-16406820D01*
X9069491Y-16406820D02*
X9059967Y-16397296D01*
X9059967Y-16397296D02*
X9050444Y-16378248D01*
X9050444Y-16378248D02*
X9040920Y-16340153D01*
X9040920Y-16340153D02*
X9040920Y-16292534D01*
X9040920Y-16292534D02*
X9050444Y-16254439D01*
X9050444Y-16254439D02*
X9059967Y-16235391D01*
X9059967Y-16235391D02*
X9069491Y-16225868D01*
X9069491Y-16225868D02*
X9088539Y-16216344D01*
X9240920Y-16416344D02*
X9240920Y-16283010D01*
X9240920Y-16302058D02*
X9250444Y-16292534D01*
X9250444Y-16292534D02*
X9269491Y-16283010D01*
X9269491Y-16283010D02*
X9298063Y-16283010D01*
X9298063Y-16283010D02*
X9317110Y-16292534D01*
X9317110Y-16292534D02*
X9326634Y-16311582D01*
X9326634Y-16311582D02*
X9326634Y-16416344D01*
X9326634Y-16311582D02*
X9336158Y-16292534D01*
X9336158Y-16292534D02*
X9355205Y-16283010D01*
X9355205Y-16283010D02*
X9383777Y-16283010D01*
X9383777Y-16283010D02*
X9402825Y-16292534D01*
X9402825Y-16292534D02*
X9412348Y-16311582D01*
X9412348Y-16311582D02*
X9412348Y-16416344D01*
X9507586Y-16416344D02*
X9507586Y-16283010D01*
X9507586Y-16302058D02*
X9517110Y-16292534D01*
X9517110Y-16292534D02*
X9536158Y-16283010D01*
X9536158Y-16283010D02*
X9564729Y-16283010D01*
X9564729Y-16283010D02*
X9583777Y-16292534D01*
X9583777Y-16292534D02*
X9593301Y-16311582D01*
X9593301Y-16311582D02*
X9593301Y-16416344D01*
X9593301Y-16311582D02*
X9602825Y-16292534D01*
X9602825Y-16292534D02*
X9621872Y-16283010D01*
X9621872Y-16283010D02*
X9650444Y-16283010D01*
X9650444Y-16283010D02*
X9669491Y-16292534D01*
X9669491Y-16292534D02*
X9679015Y-16311582D01*
X9679015Y-16311582D02*
X9679015Y-16416344D01*
X10069491Y-16206820D02*
X9898063Y-16463963D01*
X10326634Y-16216344D02*
X10345682Y-16216344D01*
X10345682Y-16216344D02*
X10364729Y-16225868D01*
X10364729Y-16225868D02*
X10374253Y-16235391D01*
X10374253Y-16235391D02*
X10383777Y-16254439D01*
X10383777Y-16254439D02*
X10393301Y-16292534D01*
X10393301Y-16292534D02*
X10393301Y-16340153D01*
X10393301Y-16340153D02*
X10383777Y-16378248D01*
X10383777Y-16378248D02*
X10374253Y-16397296D01*
X10374253Y-16397296D02*
X10364729Y-16406820D01*
X10364729Y-16406820D02*
X10345682Y-16416344D01*
X10345682Y-16416344D02*
X10326634Y-16416344D01*
X10326634Y-16416344D02*
X10307587Y-16406820D01*
X10307587Y-16406820D02*
X10298063Y-16397296D01*
X10298063Y-16397296D02*
X10288539Y-16378248D01*
X10288539Y-16378248D02*
X10279015Y-16340153D01*
X10279015Y-16340153D02*
X10279015Y-16292534D01*
X10279015Y-16292534D02*
X10288539Y-16254439D01*
X10288539Y-16254439D02*
X10298063Y-16235391D01*
X10298063Y-16235391D02*
X10307587Y-16225868D01*
X10307587Y-16225868D02*
X10326634Y-16216344D01*
X10479015Y-16397296D02*
X10488539Y-16406820D01*
X10488539Y-16406820D02*
X10479015Y-16416344D01*
X10479015Y-16416344D02*
X10469491Y-16406820D01*
X10469491Y-16406820D02*
X10479015Y-16397296D01*
X10479015Y-16397296D02*
X10479015Y-16416344D01*
X10612348Y-16216344D02*
X10631396Y-16216344D01*
X10631396Y-16216344D02*
X10650444Y-16225868D01*
X10650444Y-16225868D02*
X10659968Y-16235391D01*
X10659968Y-16235391D02*
X10669491Y-16254439D01*
X10669491Y-16254439D02*
X10679015Y-16292534D01*
X10679015Y-16292534D02*
X10679015Y-16340153D01*
X10679015Y-16340153D02*
X10669491Y-16378248D01*
X10669491Y-16378248D02*
X10659968Y-16397296D01*
X10659968Y-16397296D02*
X10650444Y-16406820D01*
X10650444Y-16406820D02*
X10631396Y-16416344D01*
X10631396Y-16416344D02*
X10612348Y-16416344D01*
X10612348Y-16416344D02*
X10593301Y-16406820D01*
X10593301Y-16406820D02*
X10583777Y-16397296D01*
X10583777Y-16397296D02*
X10574253Y-16378248D01*
X10574253Y-16378248D02*
X10564729Y-16340153D01*
X10564729Y-16340153D02*
X10564729Y-16292534D01*
X10564729Y-16292534D02*
X10574253Y-16254439D01*
X10574253Y-16254439D02*
X10583777Y-16235391D01*
X10583777Y-16235391D02*
X10593301Y-16225868D01*
X10593301Y-16225868D02*
X10612348Y-16216344D01*
X10793301Y-16302058D02*
X10774253Y-16292534D01*
X10774253Y-16292534D02*
X10764729Y-16283010D01*
X10764729Y-16283010D02*
X10755206Y-16263963D01*
X10755206Y-16263963D02*
X10755206Y-16254439D01*
X10755206Y-16254439D02*
X10764729Y-16235391D01*
X10764729Y-16235391D02*
X10774253Y-16225868D01*
X10774253Y-16225868D02*
X10793301Y-16216344D01*
X10793301Y-16216344D02*
X10831396Y-16216344D01*
X10831396Y-16216344D02*
X10850444Y-16225868D01*
X10850444Y-16225868D02*
X10859968Y-16235391D01*
X10859968Y-16235391D02*
X10869491Y-16254439D01*
X10869491Y-16254439D02*
X10869491Y-16263963D01*
X10869491Y-16263963D02*
X10859968Y-16283010D01*
X10859968Y-16283010D02*
X10850444Y-16292534D01*
X10850444Y-16292534D02*
X10831396Y-16302058D01*
X10831396Y-16302058D02*
X10793301Y-16302058D01*
X10793301Y-16302058D02*
X10774253Y-16311582D01*
X10774253Y-16311582D02*
X10764729Y-16321106D01*
X10764729Y-16321106D02*
X10755206Y-16340153D01*
X10755206Y-16340153D02*
X10755206Y-16378248D01*
X10755206Y-16378248D02*
X10764729Y-16397296D01*
X10764729Y-16397296D02*
X10774253Y-16406820D01*
X10774253Y-16406820D02*
X10793301Y-16416344D01*
X10793301Y-16416344D02*
X10831396Y-16416344D01*
X10831396Y-16416344D02*
X10850444Y-16406820D01*
X10850444Y-16406820D02*
X10859968Y-16397296D01*
X10859968Y-16397296D02*
X10869491Y-16378248D01*
X10869491Y-16378248D02*
X10869491Y-16340153D01*
X10869491Y-16340153D02*
X10859968Y-16321106D01*
X10859968Y-16321106D02*
X10850444Y-16311582D01*
X10850444Y-16311582D02*
X10831396Y-16302058D01*
X11040920Y-16216344D02*
X11002825Y-16216344D01*
X11002825Y-16216344D02*
X10983777Y-16225868D01*
X10983777Y-16225868D02*
X10974253Y-16235391D01*
X10974253Y-16235391D02*
X10955206Y-16263963D01*
X10955206Y-16263963D02*
X10945682Y-16302058D01*
X10945682Y-16302058D02*
X10945682Y-16378248D01*
X10945682Y-16378248D02*
X10955206Y-16397296D01*
X10955206Y-16397296D02*
X10964729Y-16406820D01*
X10964729Y-16406820D02*
X10983777Y-16416344D01*
X10983777Y-16416344D02*
X11021872Y-16416344D01*
X11021872Y-16416344D02*
X11040920Y-16406820D01*
X11040920Y-16406820D02*
X11050444Y-16397296D01*
X11050444Y-16397296D02*
X11059968Y-16378248D01*
X11059968Y-16378248D02*
X11059968Y-16330629D01*
X11059968Y-16330629D02*
X11050444Y-16311582D01*
X11050444Y-16311582D02*
X11040920Y-16302058D01*
X11040920Y-16302058D02*
X11021872Y-16292534D01*
X11021872Y-16292534D02*
X10983777Y-16292534D01*
X10983777Y-16292534D02*
X10964729Y-16302058D01*
X10964729Y-16302058D02*
X10955206Y-16311582D01*
X10955206Y-16311582D02*
X10945682Y-16330629D01*
X11231396Y-16216344D02*
X11193301Y-16216344D01*
X11193301Y-16216344D02*
X11174253Y-16225868D01*
X11174253Y-16225868D02*
X11164729Y-16235391D01*
X11164729Y-16235391D02*
X11145682Y-16263963D01*
X11145682Y-16263963D02*
X11136158Y-16302058D01*
X11136158Y-16302058D02*
X11136158Y-16378248D01*
X11136158Y-16378248D02*
X11145682Y-16397296D01*
X11145682Y-16397296D02*
X11155206Y-16406820D01*
X11155206Y-16406820D02*
X11174253Y-16416344D01*
X11174253Y-16416344D02*
X11212348Y-16416344D01*
X11212348Y-16416344D02*
X11231396Y-16406820D01*
X11231396Y-16406820D02*
X11240920Y-16397296D01*
X11240920Y-16397296D02*
X11250444Y-16378248D01*
X11250444Y-16378248D02*
X11250444Y-16330629D01*
X11250444Y-16330629D02*
X11240920Y-16311582D01*
X11240920Y-16311582D02*
X11231396Y-16302058D01*
X11231396Y-16302058D02*
X11212348Y-16292534D01*
X11212348Y-16292534D02*
X11174253Y-16292534D01*
X11174253Y-16292534D02*
X11155206Y-16302058D01*
X11155206Y-16302058D02*
X11145682Y-16311582D01*
X11145682Y-16311582D02*
X11136158Y-16330629D01*
X11326634Y-16216344D02*
X11326634Y-16254439D01*
X11402825Y-16216344D02*
X11402825Y-16254439D01*
X11698063Y-16492534D02*
X11688539Y-16483010D01*
X11688539Y-16483010D02*
X11669491Y-16454439D01*
X11669491Y-16454439D02*
X11659968Y-16435391D01*
X11659968Y-16435391D02*
X11650444Y-16406820D01*
X11650444Y-16406820D02*
X11640920Y-16359201D01*
X11640920Y-16359201D02*
X11640920Y-16321106D01*
X11640920Y-16321106D02*
X11650444Y-16273487D01*
X11650444Y-16273487D02*
X11659968Y-16244915D01*
X11659968Y-16244915D02*
X11669491Y-16225868D01*
X11669491Y-16225868D02*
X11688539Y-16197296D01*
X11688539Y-16197296D02*
X11698063Y-16187772D01*
X11859968Y-16283010D02*
X11859968Y-16416344D01*
X11812348Y-16206820D02*
X11764729Y-16349677D01*
X11764729Y-16349677D02*
X11888539Y-16349677D01*
X12117110Y-16416344D02*
X12117110Y-16216344D01*
X12202825Y-16416344D02*
X12202825Y-16311582D01*
X12202825Y-16311582D02*
X12193301Y-16292534D01*
X12193301Y-16292534D02*
X12174253Y-16283010D01*
X12174253Y-16283010D02*
X12145682Y-16283010D01*
X12145682Y-16283010D02*
X12126634Y-16292534D01*
X12126634Y-16292534D02*
X12117110Y-16302058D01*
X12326634Y-16416344D02*
X12307587Y-16406820D01*
X12307587Y-16406820D02*
X12298063Y-16397296D01*
X12298063Y-16397296D02*
X12288539Y-16378248D01*
X12288539Y-16378248D02*
X12288539Y-16321106D01*
X12288539Y-16321106D02*
X12298063Y-16302058D01*
X12298063Y-16302058D02*
X12307587Y-16292534D01*
X12307587Y-16292534D02*
X12326634Y-16283010D01*
X12326634Y-16283010D02*
X12355206Y-16283010D01*
X12355206Y-16283010D02*
X12374253Y-16292534D01*
X12374253Y-16292534D02*
X12383777Y-16302058D01*
X12383777Y-16302058D02*
X12393301Y-16321106D01*
X12393301Y-16321106D02*
X12393301Y-16378248D01*
X12393301Y-16378248D02*
X12383777Y-16397296D01*
X12383777Y-16397296D02*
X12374253Y-16406820D01*
X12374253Y-16406820D02*
X12355206Y-16416344D01*
X12355206Y-16416344D02*
X12326634Y-16416344D01*
X12507587Y-16416344D02*
X12488539Y-16406820D01*
X12488539Y-16406820D02*
X12479015Y-16387772D01*
X12479015Y-16387772D02*
X12479015Y-16216344D01*
X12659968Y-16406820D02*
X12640920Y-16416344D01*
X12640920Y-16416344D02*
X12602825Y-16416344D01*
X12602825Y-16416344D02*
X12583777Y-16406820D01*
X12583777Y-16406820D02*
X12574253Y-16387772D01*
X12574253Y-16387772D02*
X12574253Y-16311582D01*
X12574253Y-16311582D02*
X12583777Y-16292534D01*
X12583777Y-16292534D02*
X12602825Y-16283010D01*
X12602825Y-16283010D02*
X12640920Y-16283010D01*
X12640920Y-16283010D02*
X12659968Y-16292534D01*
X12659968Y-16292534D02*
X12669491Y-16311582D01*
X12669491Y-16311582D02*
X12669491Y-16330629D01*
X12669491Y-16330629D02*
X12574253Y-16349677D01*
X12745682Y-16406820D02*
X12764730Y-16416344D01*
X12764730Y-16416344D02*
X12802825Y-16416344D01*
X12802825Y-16416344D02*
X12821872Y-16406820D01*
X12821872Y-16406820D02*
X12831396Y-16387772D01*
X12831396Y-16387772D02*
X12831396Y-16378248D01*
X12831396Y-16378248D02*
X12821872Y-16359201D01*
X12821872Y-16359201D02*
X12802825Y-16349677D01*
X12802825Y-16349677D02*
X12774253Y-16349677D01*
X12774253Y-16349677D02*
X12755206Y-16340153D01*
X12755206Y-16340153D02*
X12745682Y-16321106D01*
X12745682Y-16321106D02*
X12745682Y-16311582D01*
X12745682Y-16311582D02*
X12755206Y-16292534D01*
X12755206Y-16292534D02*
X12774253Y-16283010D01*
X12774253Y-16283010D02*
X12802825Y-16283010D01*
X12802825Y-16283010D02*
X12821872Y-16292534D01*
X12898063Y-16492534D02*
X12907587Y-16483010D01*
X12907587Y-16483010D02*
X12926634Y-16454439D01*
X12926634Y-16454439D02*
X12936158Y-16435391D01*
X12936158Y-16435391D02*
X12945682Y-16406820D01*
X12945682Y-16406820D02*
X12955206Y-16359201D01*
X12955206Y-16359201D02*
X12955206Y-16321106D01*
X12955206Y-16321106D02*
X12945682Y-16273487D01*
X12945682Y-16273487D02*
X12936158Y-16244915D01*
X12936158Y-16244915D02*
X12926634Y-16225868D01*
X12926634Y-16225868D02*
X12907587Y-16197296D01*
X12907587Y-16197296D02*
X12898063Y-16187772D01*
X13259968Y-16492534D02*
X13250444Y-16483010D01*
X13250444Y-16483010D02*
X13231396Y-16454439D01*
X13231396Y-16454439D02*
X13221872Y-16435391D01*
X13221872Y-16435391D02*
X13212349Y-16406820D01*
X13212349Y-16406820D02*
X13202825Y-16359201D01*
X13202825Y-16359201D02*
X13202825Y-16321106D01*
X13202825Y-16321106D02*
X13212349Y-16273487D01*
X13212349Y-16273487D02*
X13221872Y-16244915D01*
X13221872Y-16244915D02*
X13231396Y-16225868D01*
X13231396Y-16225868D02*
X13250444Y-16197296D01*
X13250444Y-16197296D02*
X13259968Y-16187772D01*
X13336158Y-16283010D02*
X13336158Y-16416344D01*
X13336158Y-16302058D02*
X13345682Y-16292534D01*
X13345682Y-16292534D02*
X13364730Y-16283010D01*
X13364730Y-16283010D02*
X13393301Y-16283010D01*
X13393301Y-16283010D02*
X13412349Y-16292534D01*
X13412349Y-16292534D02*
X13421872Y-16311582D01*
X13421872Y-16311582D02*
X13421872Y-16416344D01*
X13545682Y-16416344D02*
X13526634Y-16406820D01*
X13526634Y-16406820D02*
X13517111Y-16397296D01*
X13517111Y-16397296D02*
X13507587Y-16378248D01*
X13507587Y-16378248D02*
X13507587Y-16321106D01*
X13507587Y-16321106D02*
X13517111Y-16302058D01*
X13517111Y-16302058D02*
X13526634Y-16292534D01*
X13526634Y-16292534D02*
X13545682Y-16283010D01*
X13545682Y-16283010D02*
X13574253Y-16283010D01*
X13574253Y-16283010D02*
X13593301Y-16292534D01*
X13593301Y-16292534D02*
X13602825Y-16302058D01*
X13602825Y-16302058D02*
X13612349Y-16321106D01*
X13612349Y-16321106D02*
X13612349Y-16378248D01*
X13612349Y-16378248D02*
X13602825Y-16397296D01*
X13602825Y-16397296D02*
X13593301Y-16406820D01*
X13593301Y-16406820D02*
X13574253Y-16416344D01*
X13574253Y-16416344D02*
X13545682Y-16416344D01*
X13669492Y-16283010D02*
X13745682Y-16283010D01*
X13698063Y-16216344D02*
X13698063Y-16387772D01*
X13698063Y-16387772D02*
X13707587Y-16406820D01*
X13707587Y-16406820D02*
X13726634Y-16416344D01*
X13726634Y-16416344D02*
X13745682Y-16416344D01*
X13964730Y-16283010D02*
X13964730Y-16483010D01*
X13964730Y-16292534D02*
X13983777Y-16283010D01*
X13983777Y-16283010D02*
X14021873Y-16283010D01*
X14021873Y-16283010D02*
X14040920Y-16292534D01*
X14040920Y-16292534D02*
X14050444Y-16302058D01*
X14050444Y-16302058D02*
X14059968Y-16321106D01*
X14059968Y-16321106D02*
X14059968Y-16378248D01*
X14059968Y-16378248D02*
X14050444Y-16397296D01*
X14050444Y-16397296D02*
X14040920Y-16406820D01*
X14040920Y-16406820D02*
X14021873Y-16416344D01*
X14021873Y-16416344D02*
X13983777Y-16416344D01*
X13983777Y-16416344D02*
X13964730Y-16406820D01*
X14174253Y-16416344D02*
X14155206Y-16406820D01*
X14155206Y-16406820D02*
X14145682Y-16387772D01*
X14145682Y-16387772D02*
X14145682Y-16216344D01*
X14336158Y-16416344D02*
X14336158Y-16311582D01*
X14336158Y-16311582D02*
X14326634Y-16292534D01*
X14326634Y-16292534D02*
X14307587Y-16283010D01*
X14307587Y-16283010D02*
X14269492Y-16283010D01*
X14269492Y-16283010D02*
X14250444Y-16292534D01*
X14336158Y-16406820D02*
X14317111Y-16416344D01*
X14317111Y-16416344D02*
X14269492Y-16416344D01*
X14269492Y-16416344D02*
X14250444Y-16406820D01*
X14250444Y-16406820D02*
X14240920Y-16387772D01*
X14240920Y-16387772D02*
X14240920Y-16368725D01*
X14240920Y-16368725D02*
X14250444Y-16349677D01*
X14250444Y-16349677D02*
X14269492Y-16340153D01*
X14269492Y-16340153D02*
X14317111Y-16340153D01*
X14317111Y-16340153D02*
X14336158Y-16330629D01*
X14402825Y-16283010D02*
X14479015Y-16283010D01*
X14431396Y-16216344D02*
X14431396Y-16387772D01*
X14431396Y-16387772D02*
X14440920Y-16406820D01*
X14440920Y-16406820D02*
X14459968Y-16416344D01*
X14459968Y-16416344D02*
X14479015Y-16416344D01*
X14621873Y-16406820D02*
X14602825Y-16416344D01*
X14602825Y-16416344D02*
X14564730Y-16416344D01*
X14564730Y-16416344D02*
X14545682Y-16406820D01*
X14545682Y-16406820D02*
X14536158Y-16387772D01*
X14536158Y-16387772D02*
X14536158Y-16311582D01*
X14536158Y-16311582D02*
X14545682Y-16292534D01*
X14545682Y-16292534D02*
X14564730Y-16283010D01*
X14564730Y-16283010D02*
X14602825Y-16283010D01*
X14602825Y-16283010D02*
X14621873Y-16292534D01*
X14621873Y-16292534D02*
X14631396Y-16311582D01*
X14631396Y-16311582D02*
X14631396Y-16330629D01*
X14631396Y-16330629D02*
X14536158Y-16349677D01*
X14802825Y-16416344D02*
X14802825Y-16216344D01*
X14802825Y-16406820D02*
X14783777Y-16416344D01*
X14783777Y-16416344D02*
X14745682Y-16416344D01*
X14745682Y-16416344D02*
X14726634Y-16406820D01*
X14726634Y-16406820D02*
X14717111Y-16397296D01*
X14717111Y-16397296D02*
X14707587Y-16378248D01*
X14707587Y-16378248D02*
X14707587Y-16321106D01*
X14707587Y-16321106D02*
X14717111Y-16302058D01*
X14717111Y-16302058D02*
X14726634Y-16292534D01*
X14726634Y-16292534D02*
X14745682Y-16283010D01*
X14745682Y-16283010D02*
X14783777Y-16283010D01*
X14783777Y-16283010D02*
X14802825Y-16292534D01*
X14879015Y-16492534D02*
X14888539Y-16483010D01*
X14888539Y-16483010D02*
X14907587Y-16454439D01*
X14907587Y-16454439D02*
X14917111Y-16435391D01*
X14917111Y-16435391D02*
X14926634Y-16406820D01*
X14926634Y-16406820D02*
X14936158Y-16359201D01*
X14936158Y-16359201D02*
X14936158Y-16321106D01*
X14936158Y-16321106D02*
X14926634Y-16273487D01*
X14926634Y-16273487D02*
X14917111Y-16244915D01*
X14917111Y-16244915D02*
X14907587Y-16225868D01*
X14907587Y-16225868D02*
X14888539Y-16197296D01*
X14888539Y-16197296D02*
X14879015Y-16187772D01*
X8023000Y-16544860D02*
X8023000Y-16744860D01*
X7923000Y-16644860D02*
X8123000Y-16644860D01*
X8469491Y-16603010D02*
X8469491Y-16736344D01*
X8421872Y-16526820D02*
X8374253Y-16669677D01*
X8374253Y-16669677D02*
X8498063Y-16669677D01*
X8574253Y-16717296D02*
X8583777Y-16726820D01*
X8583777Y-16726820D02*
X8574253Y-16736344D01*
X8574253Y-16736344D02*
X8564729Y-16726820D01*
X8564729Y-16726820D02*
X8574253Y-16717296D01*
X8574253Y-16717296D02*
X8574253Y-16736344D01*
X8707586Y-16536344D02*
X8726634Y-16536344D01*
X8726634Y-16536344D02*
X8745682Y-16545868D01*
X8745682Y-16545868D02*
X8755205Y-16555391D01*
X8755205Y-16555391D02*
X8764729Y-16574439D01*
X8764729Y-16574439D02*
X8774253Y-16612534D01*
X8774253Y-16612534D02*
X8774253Y-16660153D01*
X8774253Y-16660153D02*
X8764729Y-16698248D01*
X8764729Y-16698248D02*
X8755205Y-16717296D01*
X8755205Y-16717296D02*
X8745682Y-16726820D01*
X8745682Y-16726820D02*
X8726634Y-16736344D01*
X8726634Y-16736344D02*
X8707586Y-16736344D01*
X8707586Y-16736344D02*
X8688539Y-16726820D01*
X8688539Y-16726820D02*
X8679015Y-16717296D01*
X8679015Y-16717296D02*
X8669491Y-16698248D01*
X8669491Y-16698248D02*
X8659967Y-16660153D01*
X8659967Y-16660153D02*
X8659967Y-16612534D01*
X8659967Y-16612534D02*
X8669491Y-16574439D01*
X8669491Y-16574439D02*
X8679015Y-16555391D01*
X8679015Y-16555391D02*
X8688539Y-16545868D01*
X8688539Y-16545868D02*
X8707586Y-16536344D01*
X8898063Y-16536344D02*
X8917110Y-16536344D01*
X8917110Y-16536344D02*
X8936158Y-16545868D01*
X8936158Y-16545868D02*
X8945682Y-16555391D01*
X8945682Y-16555391D02*
X8955205Y-16574439D01*
X8955205Y-16574439D02*
X8964729Y-16612534D01*
X8964729Y-16612534D02*
X8964729Y-16660153D01*
X8964729Y-16660153D02*
X8955205Y-16698248D01*
X8955205Y-16698248D02*
X8945682Y-16717296D01*
X8945682Y-16717296D02*
X8936158Y-16726820D01*
X8936158Y-16726820D02*
X8917110Y-16736344D01*
X8917110Y-16736344D02*
X8898063Y-16736344D01*
X8898063Y-16736344D02*
X8879015Y-16726820D01*
X8879015Y-16726820D02*
X8869491Y-16717296D01*
X8869491Y-16717296D02*
X8859967Y-16698248D01*
X8859967Y-16698248D02*
X8850444Y-16660153D01*
X8850444Y-16660153D02*
X8850444Y-16612534D01*
X8850444Y-16612534D02*
X8859967Y-16574439D01*
X8859967Y-16574439D02*
X8869491Y-16555391D01*
X8869491Y-16555391D02*
X8879015Y-16545868D01*
X8879015Y-16545868D02*
X8898063Y-16536344D01*
X9088539Y-16536344D02*
X9107586Y-16536344D01*
X9107586Y-16536344D02*
X9126634Y-16545868D01*
X9126634Y-16545868D02*
X9136158Y-16555391D01*
X9136158Y-16555391D02*
X9145682Y-16574439D01*
X9145682Y-16574439D02*
X9155205Y-16612534D01*
X9155205Y-16612534D02*
X9155205Y-16660153D01*
X9155205Y-16660153D02*
X9145682Y-16698248D01*
X9145682Y-16698248D02*
X9136158Y-16717296D01*
X9136158Y-16717296D02*
X9126634Y-16726820D01*
X9126634Y-16726820D02*
X9107586Y-16736344D01*
X9107586Y-16736344D02*
X9088539Y-16736344D01*
X9088539Y-16736344D02*
X9069491Y-16726820D01*
X9069491Y-16726820D02*
X9059967Y-16717296D01*
X9059967Y-16717296D02*
X9050444Y-16698248D01*
X9050444Y-16698248D02*
X9040920Y-16660153D01*
X9040920Y-16660153D02*
X9040920Y-16612534D01*
X9040920Y-16612534D02*
X9050444Y-16574439D01*
X9050444Y-16574439D02*
X9059967Y-16555391D01*
X9059967Y-16555391D02*
X9069491Y-16545868D01*
X9069491Y-16545868D02*
X9088539Y-16536344D01*
X9240920Y-16736344D02*
X9240920Y-16603010D01*
X9240920Y-16622058D02*
X9250444Y-16612534D01*
X9250444Y-16612534D02*
X9269491Y-16603010D01*
X9269491Y-16603010D02*
X9298063Y-16603010D01*
X9298063Y-16603010D02*
X9317110Y-16612534D01*
X9317110Y-16612534D02*
X9326634Y-16631582D01*
X9326634Y-16631582D02*
X9326634Y-16736344D01*
X9326634Y-16631582D02*
X9336158Y-16612534D01*
X9336158Y-16612534D02*
X9355205Y-16603010D01*
X9355205Y-16603010D02*
X9383777Y-16603010D01*
X9383777Y-16603010D02*
X9402825Y-16612534D01*
X9402825Y-16612534D02*
X9412348Y-16631582D01*
X9412348Y-16631582D02*
X9412348Y-16736344D01*
X9507586Y-16736344D02*
X9507586Y-16603010D01*
X9507586Y-16622058D02*
X9517110Y-16612534D01*
X9517110Y-16612534D02*
X9536158Y-16603010D01*
X9536158Y-16603010D02*
X9564729Y-16603010D01*
X9564729Y-16603010D02*
X9583777Y-16612534D01*
X9583777Y-16612534D02*
X9593301Y-16631582D01*
X9593301Y-16631582D02*
X9593301Y-16736344D01*
X9593301Y-16631582D02*
X9602825Y-16612534D01*
X9602825Y-16612534D02*
X9621872Y-16603010D01*
X9621872Y-16603010D02*
X9650444Y-16603010D01*
X9650444Y-16603010D02*
X9669491Y-16612534D01*
X9669491Y-16612534D02*
X9679015Y-16631582D01*
X9679015Y-16631582D02*
X9679015Y-16736344D01*
X10069491Y-16526820D02*
X9898063Y-16783963D01*
X10326634Y-16536344D02*
X10345682Y-16536344D01*
X10345682Y-16536344D02*
X10364729Y-16545868D01*
X10364729Y-16545868D02*
X10374253Y-16555391D01*
X10374253Y-16555391D02*
X10383777Y-16574439D01*
X10383777Y-16574439D02*
X10393301Y-16612534D01*
X10393301Y-16612534D02*
X10393301Y-16660153D01*
X10393301Y-16660153D02*
X10383777Y-16698248D01*
X10383777Y-16698248D02*
X10374253Y-16717296D01*
X10374253Y-16717296D02*
X10364729Y-16726820D01*
X10364729Y-16726820D02*
X10345682Y-16736344D01*
X10345682Y-16736344D02*
X10326634Y-16736344D01*
X10326634Y-16736344D02*
X10307587Y-16726820D01*
X10307587Y-16726820D02*
X10298063Y-16717296D01*
X10298063Y-16717296D02*
X10288539Y-16698248D01*
X10288539Y-16698248D02*
X10279015Y-16660153D01*
X10279015Y-16660153D02*
X10279015Y-16612534D01*
X10279015Y-16612534D02*
X10288539Y-16574439D01*
X10288539Y-16574439D02*
X10298063Y-16555391D01*
X10298063Y-16555391D02*
X10307587Y-16545868D01*
X10307587Y-16545868D02*
X10326634Y-16536344D01*
X10479015Y-16717296D02*
X10488539Y-16726820D01*
X10488539Y-16726820D02*
X10479015Y-16736344D01*
X10479015Y-16736344D02*
X10469491Y-16726820D01*
X10469491Y-16726820D02*
X10479015Y-16717296D01*
X10479015Y-16717296D02*
X10479015Y-16736344D01*
X10679015Y-16736344D02*
X10564729Y-16736344D01*
X10621872Y-16736344D02*
X10621872Y-16536344D01*
X10621872Y-16536344D02*
X10602825Y-16564915D01*
X10602825Y-16564915D02*
X10583777Y-16583963D01*
X10583777Y-16583963D02*
X10564729Y-16593487D01*
X10859968Y-16536344D02*
X10764729Y-16536344D01*
X10764729Y-16536344D02*
X10755206Y-16631582D01*
X10755206Y-16631582D02*
X10764729Y-16622058D01*
X10764729Y-16622058D02*
X10783777Y-16612534D01*
X10783777Y-16612534D02*
X10831396Y-16612534D01*
X10831396Y-16612534D02*
X10850444Y-16622058D01*
X10850444Y-16622058D02*
X10859968Y-16631582D01*
X10859968Y-16631582D02*
X10869491Y-16650629D01*
X10869491Y-16650629D02*
X10869491Y-16698248D01*
X10869491Y-16698248D02*
X10859968Y-16717296D01*
X10859968Y-16717296D02*
X10850444Y-16726820D01*
X10850444Y-16726820D02*
X10831396Y-16736344D01*
X10831396Y-16736344D02*
X10783777Y-16736344D01*
X10783777Y-16736344D02*
X10764729Y-16726820D01*
X10764729Y-16726820D02*
X10755206Y-16717296D01*
X10936158Y-16536344D02*
X11069491Y-16536344D01*
X11069491Y-16536344D02*
X10983777Y-16736344D01*
X11240920Y-16536344D02*
X11145682Y-16536344D01*
X11145682Y-16536344D02*
X11136158Y-16631582D01*
X11136158Y-16631582D02*
X11145682Y-16622058D01*
X11145682Y-16622058D02*
X11164729Y-16612534D01*
X11164729Y-16612534D02*
X11212348Y-16612534D01*
X11212348Y-16612534D02*
X11231396Y-16622058D01*
X11231396Y-16622058D02*
X11240920Y-16631582D01*
X11240920Y-16631582D02*
X11250444Y-16650629D01*
X11250444Y-16650629D02*
X11250444Y-16698248D01*
X11250444Y-16698248D02*
X11240920Y-16717296D01*
X11240920Y-16717296D02*
X11231396Y-16726820D01*
X11231396Y-16726820D02*
X11212348Y-16736344D01*
X11212348Y-16736344D02*
X11164729Y-16736344D01*
X11164729Y-16736344D02*
X11145682Y-16726820D01*
X11145682Y-16726820D02*
X11136158Y-16717296D01*
X11326634Y-16536344D02*
X11326634Y-16574439D01*
X11402825Y-16536344D02*
X11402825Y-16574439D01*
X11698063Y-16812534D02*
X11688539Y-16803010D01*
X11688539Y-16803010D02*
X11669491Y-16774439D01*
X11669491Y-16774439D02*
X11659968Y-16755391D01*
X11659968Y-16755391D02*
X11650444Y-16726820D01*
X11650444Y-16726820D02*
X11640920Y-16679201D01*
X11640920Y-16679201D02*
X11640920Y-16641106D01*
X11640920Y-16641106D02*
X11650444Y-16593487D01*
X11650444Y-16593487D02*
X11659968Y-16564915D01*
X11659968Y-16564915D02*
X11669491Y-16545868D01*
X11669491Y-16545868D02*
X11688539Y-16517296D01*
X11688539Y-16517296D02*
X11698063Y-16507772D01*
X11764729Y-16555391D02*
X11774253Y-16545868D01*
X11774253Y-16545868D02*
X11793301Y-16536344D01*
X11793301Y-16536344D02*
X11840920Y-16536344D01*
X11840920Y-16536344D02*
X11859968Y-16545868D01*
X11859968Y-16545868D02*
X11869491Y-16555391D01*
X11869491Y-16555391D02*
X11879015Y-16574439D01*
X11879015Y-16574439D02*
X11879015Y-16593487D01*
X11879015Y-16593487D02*
X11869491Y-16622058D01*
X11869491Y-16622058D02*
X11755206Y-16736344D01*
X11755206Y-16736344D02*
X11879015Y-16736344D01*
X12117110Y-16736344D02*
X12117110Y-16536344D01*
X12202825Y-16736344D02*
X12202825Y-16631582D01*
X12202825Y-16631582D02*
X12193301Y-16612534D01*
X12193301Y-16612534D02*
X12174253Y-16603010D01*
X12174253Y-16603010D02*
X12145682Y-16603010D01*
X12145682Y-16603010D02*
X12126634Y-16612534D01*
X12126634Y-16612534D02*
X12117110Y-16622058D01*
X12326634Y-16736344D02*
X12307587Y-16726820D01*
X12307587Y-16726820D02*
X12298063Y-16717296D01*
X12298063Y-16717296D02*
X12288539Y-16698248D01*
X12288539Y-16698248D02*
X12288539Y-16641106D01*
X12288539Y-16641106D02*
X12298063Y-16622058D01*
X12298063Y-16622058D02*
X12307587Y-16612534D01*
X12307587Y-16612534D02*
X12326634Y-16603010D01*
X12326634Y-16603010D02*
X12355206Y-16603010D01*
X12355206Y-16603010D02*
X12374253Y-16612534D01*
X12374253Y-16612534D02*
X12383777Y-16622058D01*
X12383777Y-16622058D02*
X12393301Y-16641106D01*
X12393301Y-16641106D02*
X12393301Y-16698248D01*
X12393301Y-16698248D02*
X12383777Y-16717296D01*
X12383777Y-16717296D02*
X12374253Y-16726820D01*
X12374253Y-16726820D02*
X12355206Y-16736344D01*
X12355206Y-16736344D02*
X12326634Y-16736344D01*
X12507587Y-16736344D02*
X12488539Y-16726820D01*
X12488539Y-16726820D02*
X12479015Y-16707772D01*
X12479015Y-16707772D02*
X12479015Y-16536344D01*
X12659968Y-16726820D02*
X12640920Y-16736344D01*
X12640920Y-16736344D02*
X12602825Y-16736344D01*
X12602825Y-16736344D02*
X12583777Y-16726820D01*
X12583777Y-16726820D02*
X12574253Y-16707772D01*
X12574253Y-16707772D02*
X12574253Y-16631582D01*
X12574253Y-16631582D02*
X12583777Y-16612534D01*
X12583777Y-16612534D02*
X12602825Y-16603010D01*
X12602825Y-16603010D02*
X12640920Y-16603010D01*
X12640920Y-16603010D02*
X12659968Y-16612534D01*
X12659968Y-16612534D02*
X12669491Y-16631582D01*
X12669491Y-16631582D02*
X12669491Y-16650629D01*
X12669491Y-16650629D02*
X12574253Y-16669677D01*
X12745682Y-16726820D02*
X12764730Y-16736344D01*
X12764730Y-16736344D02*
X12802825Y-16736344D01*
X12802825Y-16736344D02*
X12821872Y-16726820D01*
X12821872Y-16726820D02*
X12831396Y-16707772D01*
X12831396Y-16707772D02*
X12831396Y-16698248D01*
X12831396Y-16698248D02*
X12821872Y-16679201D01*
X12821872Y-16679201D02*
X12802825Y-16669677D01*
X12802825Y-16669677D02*
X12774253Y-16669677D01*
X12774253Y-16669677D02*
X12755206Y-16660153D01*
X12755206Y-16660153D02*
X12745682Y-16641106D01*
X12745682Y-16641106D02*
X12745682Y-16631582D01*
X12745682Y-16631582D02*
X12755206Y-16612534D01*
X12755206Y-16612534D02*
X12774253Y-16603010D01*
X12774253Y-16603010D02*
X12802825Y-16603010D01*
X12802825Y-16603010D02*
X12821872Y-16612534D01*
X12898063Y-16812534D02*
X12907587Y-16803010D01*
X12907587Y-16803010D02*
X12926634Y-16774439D01*
X12926634Y-16774439D02*
X12936158Y-16755391D01*
X12936158Y-16755391D02*
X12945682Y-16726820D01*
X12945682Y-16726820D02*
X12955206Y-16679201D01*
X12955206Y-16679201D02*
X12955206Y-16641106D01*
X12955206Y-16641106D02*
X12945682Y-16593487D01*
X12945682Y-16593487D02*
X12936158Y-16564915D01*
X12936158Y-16564915D02*
X12926634Y-16545868D01*
X12926634Y-16545868D02*
X12907587Y-16517296D01*
X12907587Y-16517296D02*
X12898063Y-16507772D01*
X13259968Y-16812534D02*
X13250444Y-16803010D01*
X13250444Y-16803010D02*
X13231396Y-16774439D01*
X13231396Y-16774439D02*
X13221872Y-16755391D01*
X13221872Y-16755391D02*
X13212349Y-16726820D01*
X13212349Y-16726820D02*
X13202825Y-16679201D01*
X13202825Y-16679201D02*
X13202825Y-16641106D01*
X13202825Y-16641106D02*
X13212349Y-16593487D01*
X13212349Y-16593487D02*
X13221872Y-16564915D01*
X13221872Y-16564915D02*
X13231396Y-16545868D01*
X13231396Y-16545868D02*
X13250444Y-16517296D01*
X13250444Y-16517296D02*
X13259968Y-16507772D01*
X13336158Y-16603010D02*
X13336158Y-16736344D01*
X13336158Y-16622058D02*
X13345682Y-16612534D01*
X13345682Y-16612534D02*
X13364730Y-16603010D01*
X13364730Y-16603010D02*
X13393301Y-16603010D01*
X13393301Y-16603010D02*
X13412349Y-16612534D01*
X13412349Y-16612534D02*
X13421872Y-16631582D01*
X13421872Y-16631582D02*
X13421872Y-16736344D01*
X13545682Y-16736344D02*
X13526634Y-16726820D01*
X13526634Y-16726820D02*
X13517111Y-16717296D01*
X13517111Y-16717296D02*
X13507587Y-16698248D01*
X13507587Y-16698248D02*
X13507587Y-16641106D01*
X13507587Y-16641106D02*
X13517111Y-16622058D01*
X13517111Y-16622058D02*
X13526634Y-16612534D01*
X13526634Y-16612534D02*
X13545682Y-16603010D01*
X13545682Y-16603010D02*
X13574253Y-16603010D01*
X13574253Y-16603010D02*
X13593301Y-16612534D01*
X13593301Y-16612534D02*
X13602825Y-16622058D01*
X13602825Y-16622058D02*
X13612349Y-16641106D01*
X13612349Y-16641106D02*
X13612349Y-16698248D01*
X13612349Y-16698248D02*
X13602825Y-16717296D01*
X13602825Y-16717296D02*
X13593301Y-16726820D01*
X13593301Y-16726820D02*
X13574253Y-16736344D01*
X13574253Y-16736344D02*
X13545682Y-16736344D01*
X13669492Y-16603010D02*
X13745682Y-16603010D01*
X13698063Y-16536344D02*
X13698063Y-16707772D01*
X13698063Y-16707772D02*
X13707587Y-16726820D01*
X13707587Y-16726820D02*
X13726634Y-16736344D01*
X13726634Y-16736344D02*
X13745682Y-16736344D01*
X13964730Y-16603010D02*
X13964730Y-16803010D01*
X13964730Y-16612534D02*
X13983777Y-16603010D01*
X13983777Y-16603010D02*
X14021873Y-16603010D01*
X14021873Y-16603010D02*
X14040920Y-16612534D01*
X14040920Y-16612534D02*
X14050444Y-16622058D01*
X14050444Y-16622058D02*
X14059968Y-16641106D01*
X14059968Y-16641106D02*
X14059968Y-16698248D01*
X14059968Y-16698248D02*
X14050444Y-16717296D01*
X14050444Y-16717296D02*
X14040920Y-16726820D01*
X14040920Y-16726820D02*
X14021873Y-16736344D01*
X14021873Y-16736344D02*
X13983777Y-16736344D01*
X13983777Y-16736344D02*
X13964730Y-16726820D01*
X14174253Y-16736344D02*
X14155206Y-16726820D01*
X14155206Y-16726820D02*
X14145682Y-16707772D01*
X14145682Y-16707772D02*
X14145682Y-16536344D01*
X14336158Y-16736344D02*
X14336158Y-16631582D01*
X14336158Y-16631582D02*
X14326634Y-16612534D01*
X14326634Y-16612534D02*
X14307587Y-16603010D01*
X14307587Y-16603010D02*
X14269492Y-16603010D01*
X14269492Y-16603010D02*
X14250444Y-16612534D01*
X14336158Y-16726820D02*
X14317111Y-16736344D01*
X14317111Y-16736344D02*
X14269492Y-16736344D01*
X14269492Y-16736344D02*
X14250444Y-16726820D01*
X14250444Y-16726820D02*
X14240920Y-16707772D01*
X14240920Y-16707772D02*
X14240920Y-16688725D01*
X14240920Y-16688725D02*
X14250444Y-16669677D01*
X14250444Y-16669677D02*
X14269492Y-16660153D01*
X14269492Y-16660153D02*
X14317111Y-16660153D01*
X14317111Y-16660153D02*
X14336158Y-16650629D01*
X14402825Y-16603010D02*
X14479015Y-16603010D01*
X14431396Y-16536344D02*
X14431396Y-16707772D01*
X14431396Y-16707772D02*
X14440920Y-16726820D01*
X14440920Y-16726820D02*
X14459968Y-16736344D01*
X14459968Y-16736344D02*
X14479015Y-16736344D01*
X14621873Y-16726820D02*
X14602825Y-16736344D01*
X14602825Y-16736344D02*
X14564730Y-16736344D01*
X14564730Y-16736344D02*
X14545682Y-16726820D01*
X14545682Y-16726820D02*
X14536158Y-16707772D01*
X14536158Y-16707772D02*
X14536158Y-16631582D01*
X14536158Y-16631582D02*
X14545682Y-16612534D01*
X14545682Y-16612534D02*
X14564730Y-16603010D01*
X14564730Y-16603010D02*
X14602825Y-16603010D01*
X14602825Y-16603010D02*
X14621873Y-16612534D01*
X14621873Y-16612534D02*
X14631396Y-16631582D01*
X14631396Y-16631582D02*
X14631396Y-16650629D01*
X14631396Y-16650629D02*
X14536158Y-16669677D01*
X14802825Y-16736344D02*
X14802825Y-16536344D01*
X14802825Y-16726820D02*
X14783777Y-16736344D01*
X14783777Y-16736344D02*
X14745682Y-16736344D01*
X14745682Y-16736344D02*
X14726634Y-16726820D01*
X14726634Y-16726820D02*
X14717111Y-16717296D01*
X14717111Y-16717296D02*
X14707587Y-16698248D01*
X14707587Y-16698248D02*
X14707587Y-16641106D01*
X14707587Y-16641106D02*
X14717111Y-16622058D01*
X14717111Y-16622058D02*
X14726634Y-16612534D01*
X14726634Y-16612534D02*
X14745682Y-16603010D01*
X14745682Y-16603010D02*
X14783777Y-16603010D01*
X14783777Y-16603010D02*
X14802825Y-16612534D01*
X14879015Y-16812534D02*
X14888539Y-16803010D01*
X14888539Y-16803010D02*
X14907587Y-16774439D01*
X14907587Y-16774439D02*
X14917111Y-16755391D01*
X14917111Y-16755391D02*
X14926634Y-16726820D01*
X14926634Y-16726820D02*
X14936158Y-16679201D01*
X14936158Y-16679201D02*
X14936158Y-16641106D01*
X14936158Y-16641106D02*
X14926634Y-16593487D01*
X14926634Y-16593487D02*
X14917111Y-16564915D01*
X14917111Y-16564915D02*
X14907587Y-16545868D01*
X14907587Y-16545868D02*
X14888539Y-16517296D01*
X14888539Y-16517296D02*
X14879015Y-16507772D01*
M02*
