%TF.GenerationSoftware,KiCad,Pcbnew,7.0.9*%
%TF.CreationDate,2023-11-28T21:36:15+01:00*%
%TF.ProjectId,euroPi-kicad,6575726f-5069-42d6-9b69-6361642e6b69,rev?*%
%TF.SameCoordinates,Original*%
%TF.FileFunction,Copper,L2,Bot*%
%TF.FilePolarity,Positive*%
%FSLAX46Y46*%
G04 Gerber Fmt 4.6, Leading zero omitted, Abs format (unit mm)*
G04 Created by KiCad (PCBNEW 7.0.9) date 2023-11-28 21:36:15*
%MOMM*%
%LPD*%
G01*
G04 APERTURE LIST*
G04 Aperture macros list*
%AMRoundRect*
0 Rectangle with rounded corners*
0 $1 Rounding radius*
0 $2 $3 $4 $5 $6 $7 $8 $9 X,Y pos of 4 corners*
0 Add a 4 corners polygon primitive as box body*
4,1,4,$2,$3,$4,$5,$6,$7,$8,$9,$2,$3,0*
0 Add four circle primitives for the rounded corners*
1,1,$1+$1,$2,$3*
1,1,$1+$1,$4,$5*
1,1,$1+$1,$6,$7*
1,1,$1+$1,$8,$9*
0 Add four rect primitives between the rounded corners*
20,1,$1+$1,$2,$3,$4,$5,0*
20,1,$1+$1,$4,$5,$6,$7,0*
20,1,$1+$1,$6,$7,$8,$9,0*
20,1,$1+$1,$8,$9,$2,$3,0*%
%AMFreePoly0*
4,1,28,0.605014,0.794986,0.644504,0.794986,0.724698,0.756366,0.780194,0.686777,0.800000,0.600000,0.800000,-0.600000,0.780194,-0.686777,0.724698,-0.756366,0.644504,-0.794986,0.605014,-0.794986,0.600000,-0.800000,0.000000,-0.800000,-0.178017,-0.779942,-0.347107,-0.720775,-0.498792,-0.625465,-0.625465,-0.498792,-0.720775,-0.347107,-0.779942,-0.178017,-0.800000,0.000000,-0.779942,0.178017,
-0.720775,0.347107,-0.625465,0.498792,-0.498792,0.625465,-0.347107,0.720775,-0.178017,0.779942,0.000000,0.800000,0.600000,0.800000,0.605014,0.794986,0.605014,0.794986,$1*%
%AMFreePoly1*
4,1,28,0.178017,0.779942,0.347107,0.720775,0.498792,0.625465,0.625465,0.498792,0.720775,0.347107,0.779942,0.178017,0.800000,0.000000,0.779942,-0.178017,0.720775,-0.347107,0.625465,-0.498792,0.498792,-0.625465,0.347107,-0.720775,0.178017,-0.779942,0.000000,-0.800000,-0.600000,-0.800000,-0.605014,-0.794986,-0.644504,-0.794986,-0.724698,-0.756366,-0.780194,-0.686777,-0.800000,-0.600000,
-0.800000,0.600000,-0.780194,0.686777,-0.724698,0.756366,-0.644504,0.794986,-0.605014,0.794986,-0.600000,0.800000,0.000000,0.800000,0.178017,0.779942,0.178017,0.779942,$1*%
G04 Aperture macros list end*
%TA.AperFunction,ComponentPad*%
%ADD10R,1.600000X1.600000*%
%TD*%
%TA.AperFunction,ComponentPad*%
%ADD11O,1.600000X1.600000*%
%TD*%
%TA.AperFunction,ComponentPad*%
%ADD12C,1.600000*%
%TD*%
%TA.AperFunction,ComponentPad*%
%ADD13R,1.700000X1.700000*%
%TD*%
%TA.AperFunction,ComponentPad*%
%ADD14O,1.700000X1.700000*%
%TD*%
%TA.AperFunction,ComponentPad*%
%ADD15R,1.830000X1.930000*%
%TD*%
%TA.AperFunction,ComponentPad*%
%ADD16C,2.130000*%
%TD*%
%TA.AperFunction,ComponentPad*%
%ADD17R,1.930000X1.830000*%
%TD*%
%TA.AperFunction,ComponentPad*%
%ADD18R,1.800000X1.800000*%
%TD*%
%TA.AperFunction,ComponentPad*%
%ADD19C,1.800000*%
%TD*%
%TA.AperFunction,ComponentPad*%
%ADD20O,1.800000X1.800000*%
%TD*%
%TA.AperFunction,ComponentPad*%
%ADD21C,2.200000*%
%TD*%
%TA.AperFunction,ComponentPad*%
%ADD22R,1.300000X1.300000*%
%TD*%
%TA.AperFunction,ComponentPad*%
%ADD23C,1.300000*%
%TD*%
%TA.AperFunction,WasherPad*%
%ADD24C,4.000000*%
%TD*%
%TA.AperFunction,ComponentPad*%
%ADD25RoundRect,0.200000X0.600000X0.600000X-0.600000X0.600000X-0.600000X-0.600000X0.600000X-0.600000X0*%
%TD*%
%TA.AperFunction,ComponentPad*%
%ADD26FreePoly0,180.000000*%
%TD*%
%TA.AperFunction,ComponentPad*%
%ADD27FreePoly1,180.000000*%
%TD*%
%TA.AperFunction,ComponentPad*%
%ADD28RoundRect,0.250000X-0.600000X-0.600000X0.600000X-0.600000X0.600000X0.600000X-0.600000X0.600000X0*%
%TD*%
%TA.AperFunction,ComponentPad*%
%ADD29C,1.700000*%
%TD*%
%TA.AperFunction,ComponentPad*%
%ADD30R,1.905000X2.000000*%
%TD*%
%TA.AperFunction,ComponentPad*%
%ADD31O,1.905000X2.000000*%
%TD*%
%TA.AperFunction,ViaPad*%
%ADD32C,1.000000*%
%TD*%
%TA.AperFunction,Conductor*%
%ADD33C,0.400000*%
%TD*%
%TA.AperFunction,Conductor*%
%ADD34C,1.000000*%
%TD*%
%TA.AperFunction,Conductor*%
%ADD35C,1.500000*%
%TD*%
G04 APERTURE END LIST*
D10*
%TO.P,O3,1*%
%TO.N,CJ1*%
X197104000Y-127787400D03*
D11*
%TO.P,O3,2,-*%
%TO.N,Net-(O3A--)*%
X197104000Y-125247400D03*
%TO.P,O3,3,+*%
%TO.N,Net-(O3A-+)*%
X197104000Y-122707400D03*
%TO.P,O3,4,V+*%
%TO.N,~*%
X197104000Y-120167400D03*
%TO.P,O3,5,+*%
%TO.N,Net-(O3B-+)*%
X197104000Y-117627400D03*
%TO.P,O3,6,-*%
%TO.N,Net-(O3B--)*%
X197104000Y-115087400D03*
%TO.P,O3,7*%
%TO.N,CJ2*%
X197104000Y-112547400D03*
%TO.P,O3,8*%
%TO.N,CJ5*%
X189484000Y-112547400D03*
%TO.P,O3,9,-*%
%TO.N,Net-(O3C--)*%
X189484000Y-115087400D03*
%TO.P,O3,10,+*%
%TO.N,Net-(O3C-+)*%
X189484000Y-117627400D03*
%TO.P,O3,11,V-*%
%TO.N,-12V*%
X189484000Y-120167400D03*
%TO.P,O3,12,+*%
%TO.N,Net-(O3D-+)*%
X189484000Y-122707400D03*
%TO.P,O3,13,-*%
%TO.N,Net-(O3D--)*%
X189484000Y-125247400D03*
%TO.P,O3,14*%
%TO.N,CJ4*%
X189484000Y-127787400D03*
%TD*%
D12*
%TO.P,R21,1*%
%TO.N,CJA*%
X200382352Y-139444600D03*
D11*
%TO.P,R21,2*%
%TO.N,Net-(O5-Pad7)*%
X195302352Y-139444600D03*
%TD*%
D12*
%TO.P,R16,1*%
%TO.N,Net-(LED4-A)*%
X93472000Y-120621000D03*
D11*
%TO.P,R16,2*%
%TO.N,CJ4*%
X93472000Y-125701000D03*
%TD*%
D12*
%TO.P,R24,1*%
%TO.N,CS1*%
X193069000Y-61747400D03*
D11*
%TO.P,R24,2*%
%TO.N,I2C_VCC*%
X187989000Y-61747400D03*
%TD*%
D12*
%TO.P,R6,1*%
%TO.N,Net-(O5D-+)*%
X177239352Y-127760600D03*
D11*
%TO.P,R6,2*%
%TO.N,GP19*%
X182319352Y-127760600D03*
%TD*%
D13*
%TO.P,J14,1,Pin_1*%
%TO.N,TPH VCC {slash} CPC SDA*%
X108204000Y-49784000D03*
D14*
%TO.P,J14,2,Pin_2*%
%TO.N,I2C_VCC*%
X108204000Y-52324000D03*
%TO.P,J14,3,Pin_3*%
%TO.N,TPH SDA {slash} CPC VCC*%
X108204000Y-54864000D03*
%TD*%
D12*
%TO.P,R17,1*%
%TO.N,Net-(LED5-A)*%
X108458000Y-112493000D03*
D11*
%TO.P,R17,2*%
%TO.N,CJ5*%
X108458000Y-117573000D03*
%TD*%
D12*
%TO.P,R20,1*%
%TO.N,CS1*%
X102235000Y-70612000D03*
D11*
%TO.P,R20,2*%
%TO.N,Net-(R20-Pad2)*%
X102235000Y-75692000D03*
%TD*%
D12*
%TO.P,C1,1*%
%TO.N,I2C_VCC*%
X194580000Y-68580000D03*
%TO.P,C1,2*%
%TO.N,I2C_GND*%
X196580000Y-68580000D03*
%TD*%
D15*
%TO.P,J8,S*%
%TO.N,I2C_GND*%
X84720648Y-40640000D03*
D16*
%TO.P,J8,T*%
%TO.N,Net-(J8-PadT)*%
X96120648Y-40640000D03*
%TO.P,J8,TN*%
%TO.N,unconnected-(J8-PadTN)*%
X87820648Y-40640000D03*
%TD*%
D12*
%TO.P,R30,1*%
%TO.N,Net-(O3B--)*%
X193548000Y-131343400D03*
D11*
%TO.P,R30,2*%
%TO.N,I2C_GND*%
X193548000Y-136423400D03*
%TD*%
D17*
%TO.P,J4,S*%
%TO.N,I2C_GND*%
X86614000Y-123474000D03*
D16*
%TO.P,J4,T*%
%TO.N,Net-(J4-PadT)*%
X86614000Y-134874000D03*
%TO.P,J4,TN*%
%TO.N,unconnected-(J4-PadTN)*%
X86614000Y-126574000D03*
%TD*%
D18*
%TO.P,LED6,1,K*%
%TO.N,I2C_GND*%
X117872648Y-120396000D03*
D19*
%TO.P,LED6,2,A*%
%TO.N,Net-(LED6-A)*%
X115332648Y-120396000D03*
%TD*%
D12*
%TO.P,R26,1*%
%TO.N,I2C_VCC*%
X186915000Y-86131400D03*
D11*
%TO.P,R26,2*%
%TO.N,GP22*%
X186915000Y-91211400D03*
%TD*%
D12*
%TO.P,R22,1*%
%TO.N,Net-(O5-Pad7)*%
X168066352Y-102868600D03*
D11*
%TO.P,R22,2*%
%TO.N,Net-(O1A--)*%
X173146352Y-102868600D03*
%TD*%
D12*
%TO.P,R13,1*%
%TO.N,Net-(LED1-A)*%
X90903000Y-102616000D03*
D11*
%TO.P,R13,2*%
%TO.N,CJ1*%
X95983000Y-102616000D03*
%TD*%
D12*
%TO.P,R31,1*%
%TO.N,Net-(O5C--)*%
X164539352Y-127702600D03*
D11*
%TO.P,R31,2*%
%TO.N,I2C_GND*%
X164539352Y-132782600D03*
%TD*%
D18*
%TO.P,D2,1,A*%
%TO.N,+5V*%
X175598000Y-73939400D03*
D20*
%TO.P,D2,2,K*%
%TO.N,Net-(D2-K)*%
X178138000Y-73939400D03*
%TD*%
D12*
%TO.P,C16,1*%
%TO.N,I2C_GND*%
X179372000Y-56413400D03*
%TO.P,C16,2*%
%TO.N,-12V*%
X181372000Y-56413400D03*
%TD*%
%TO.P,R11,1*%
%TO.N,CJ5*%
X110773000Y-120396000D03*
D11*
%TO.P,R11,2*%
%TO.N,Net-(J5-PadT)*%
X105693000Y-120396000D03*
%TD*%
D12*
%TO.P,C3,1*%
%TO.N,~*%
X185399352Y-42416600D03*
%TO.P,C3,2*%
%TO.N,I2C_GND*%
X187399352Y-42416600D03*
%TD*%
%TO.P,R23,1*%
%TO.N,Net-(O1A--)*%
X177038000Y-104194400D03*
D11*
%TO.P,R23,2*%
%TO.N,GP26*%
X177038000Y-99114400D03*
%TD*%
D17*
%TO.P,J2,S*%
%TO.N,I2C_GND*%
X101605824Y-105694000D03*
D16*
%TO.P,J2,T*%
%TO.N,Net-(J2-PadT)*%
X101605824Y-117094000D03*
%TO.P,J2,TN*%
%TO.N,unconnected-(J2-PadTN)*%
X101605824Y-108794000D03*
%TD*%
D10*
%TO.P,O1,1*%
%TO.N,GP26*%
X184658000Y-70383400D03*
D11*
%TO.P,O1,2,-*%
%TO.N,Net-(O1A--)*%
X184658000Y-67843400D03*
%TO.P,O1,3,+*%
%TO.N,I2C_GND*%
X184658000Y-65303400D03*
%TO.P,O1,4,V-*%
X184658000Y-62763400D03*
%TO.P,O1,5,+*%
%TO.N,unconnected-(O1B-+-Pad5)*%
X177038000Y-62763400D03*
%TO.P,O1,6,-*%
%TO.N,unconnected-(O1B---Pad6)*%
X177038000Y-65303400D03*
%TO.P,O1,7*%
%TO.N,unconnected-(O1-Pad7)*%
X177038000Y-67843400D03*
%TO.P,O1,8,V+*%
%TO.N,I2C_VCC*%
X177038000Y-70383400D03*
%TD*%
D12*
%TO.P,R18,1*%
%TO.N,Net-(LED6-A)*%
X109739648Y-123640000D03*
D11*
%TO.P,R18,2*%
%TO.N,CJ6*%
X109739648Y-128720000D03*
%TD*%
D12*
%TO.P,R29,1*%
%TO.N,Net-(O3A--)*%
X190246000Y-131372400D03*
D11*
%TO.P,R29,2*%
%TO.N,I2C_GND*%
X190246000Y-136452400D03*
%TD*%
D12*
%TO.P,C11,1*%
%TO.N,Net-(O5C-+)*%
X165809352Y-118870600D03*
%TO.P,C11,2*%
%TO.N,I2C_GND*%
X167809352Y-118870600D03*
%TD*%
D21*
%TO.P,SW2,1,1*%
%TO.N,I2C_GND*%
X94234000Y-81280000D03*
%TO.P,SW2,2,2*%
%TO.N,Net-(R19-Pad2)*%
X87884000Y-83820000D03*
%TD*%
D12*
%TO.P,C14,1*%
%TO.N,Net-(O5D-+)*%
X173651352Y-118870600D03*
%TO.P,C14,2*%
%TO.N,I2C_GND*%
X171651352Y-118870600D03*
%TD*%
D18*
%TO.P,D3,1,A*%
%TO.N,-12V*%
X176022000Y-57404000D03*
D20*
%TO.P,D3,2,K*%
%TO.N,Net-(D3-K)*%
X176022000Y-54864000D03*
%TD*%
D12*
%TO.P,R37,1*%
%TO.N,CJ3*%
X192479352Y-139444600D03*
D11*
%TO.P,R37,2*%
%TO.N,Net-(O5C--)*%
X187399352Y-139444600D03*
%TD*%
D18*
%TO.P,D1,1,A*%
%TO.N,I2C_GND*%
X170180000Y-79527400D03*
D20*
%TO.P,D1,2,K*%
%TO.N,CJD*%
X170180000Y-76987400D03*
%TD*%
D12*
%TO.P,R1,1*%
%TO.N,Net-(O3A-+)*%
X186915000Y-94230400D03*
D11*
%TO.P,R1,2*%
%TO.N,GP21*%
X186915000Y-99310400D03*
%TD*%
D12*
%TO.P,R19,1*%
%TO.N,CS2*%
X102119648Y-61214000D03*
D11*
%TO.P,R19,2*%
%TO.N,Net-(R19-Pad2)*%
X102119648Y-66294000D03*
%TD*%
D15*
%TO.P,J7,S*%
%TO.N,I2C_GND*%
X118461000Y-40690800D03*
D16*
%TO.P,J7,T*%
%TO.N,Net-(J7-PadT)*%
X107061000Y-40690800D03*
%TO.P,J7,TN*%
%TO.N,unconnected-(J7-PadTN)*%
X115361000Y-40690800D03*
%TD*%
D18*
%TO.P,D4,1,A*%
%TO.N,Net-(D4-A)*%
X175913352Y-39069000D03*
D20*
%TO.P,D4,2,K*%
%TO.N,~*%
X175913352Y-36529000D03*
%TD*%
D12*
%TO.P,C2,1*%
%TO.N,+5V*%
X171450000Y-68589400D03*
%TO.P,C2,2*%
%TO.N,I2C_GND*%
X171450000Y-66589400D03*
%TD*%
D17*
%TO.P,J1,S*%
%TO.N,I2C_GND*%
X86614000Y-105694000D03*
D16*
%TO.P,J1,T*%
%TO.N,Net-(J1-PadT)*%
X86614000Y-117094000D03*
%TO.P,J1,TN*%
%TO.N,unconnected-(J1-PadTN)*%
X86614000Y-108794000D03*
%TD*%
D12*
%TO.P,C5,1*%
%TO.N,~*%
X185399352Y-48004600D03*
%TO.P,C5,2*%
%TO.N,I2C_GND*%
X187399352Y-48004600D03*
%TD*%
%TO.P,R5,1*%
%TO.N,Net-(O3C-+)*%
X178255352Y-110713600D03*
D11*
%TO.P,R5,2*%
%TO.N,GP18*%
X178255352Y-115793600D03*
%TD*%
D13*
%TO.P,J11,1,Pin_1*%
%TO.N,CJD*%
X164338000Y-68580000D03*
D14*
%TO.P,J11,2,Pin_2*%
%TO.N,CJA*%
X164338000Y-71120000D03*
%TO.P,J11,3,Pin_3*%
%TO.N,CK1*%
X164338000Y-73660000D03*
%TO.P,J11,4,Pin_4*%
%TO.N,CK2*%
X164338000Y-76200000D03*
%TO.P,J11,5,Pin_5*%
%TO.N,CS1*%
X164338000Y-78740000D03*
%TO.P,J11,6,Pin_6*%
%TO.N,CS2*%
X164338000Y-81280000D03*
%TO.P,J11,7,Pin_7*%
%TO.N,CJ6*%
X164338000Y-83820000D03*
%TO.P,J11,8,Pin_8*%
%TO.N,CJ5*%
X164338000Y-86360000D03*
%TO.P,J11,9,Pin_9*%
%TO.N,CJ4*%
X164338000Y-88900000D03*
%TO.P,J11,10,Pin_10*%
%TO.N,CJ3*%
X164338000Y-91440000D03*
%TO.P,J11,11,Pin_11*%
%TO.N,CJ2*%
X164338000Y-93980000D03*
%TO.P,J11,12,Pin_12*%
%TO.N,CJ1*%
X164338000Y-96520000D03*
%TO.P,J11,13,Pin_13*%
%TO.N,I2C_GND*%
X164338000Y-99060000D03*
%TD*%
D18*
%TO.P,LED5,1,K*%
%TO.N,I2C_GND*%
X100330824Y-120396000D03*
D19*
%TO.P,LED5,2,A*%
%TO.N,Net-(LED5-A)*%
X102870824Y-120396000D03*
%TD*%
D12*
%TO.P,C12,1*%
%TO.N,Net-(O3D-+)*%
X165793352Y-112266600D03*
%TO.P,C12,2*%
%TO.N,I2C_GND*%
X167793352Y-112266600D03*
%TD*%
D17*
%TO.P,J3,S*%
%TO.N,I2C_GND*%
X116597648Y-105694000D03*
D16*
%TO.P,J3,T*%
%TO.N,Net-(J3-PadT)*%
X116597648Y-117094000D03*
%TO.P,J3,TN*%
%TO.N,unconnected-(J3-PadTN)*%
X116597648Y-108794000D03*
%TD*%
D12*
%TO.P,R32,1*%
%TO.N,Net-(O3D--)*%
X186436000Y-125247400D03*
D11*
%TO.P,R32,2*%
%TO.N,I2C_GND*%
X186436000Y-120167400D03*
%TD*%
D12*
%TO.P,R8,1*%
%TO.N,CJ2*%
X105918000Y-98015000D03*
D11*
%TO.P,R8,2*%
%TO.N,Net-(J2-PadT)*%
X105918000Y-103095000D03*
%TD*%
D12*
%TO.P,R28,1*%
%TO.N,Net-(J8-PadT)*%
X103516648Y-39642000D03*
D11*
%TO.P,R28,2*%
%TO.N,CJA*%
X103516648Y-44722000D03*
%TD*%
D12*
%TO.P,R10,1*%
%TO.N,CJ4*%
X93472000Y-128778000D03*
D11*
%TO.P,R10,2*%
%TO.N,Net-(J4-PadT)*%
X93472000Y-133858000D03*
%TD*%
D10*
%TO.P,O5,1*%
%TO.N,N/C*%
X167841352Y-139698600D03*
D11*
%TO.P,O5,2*%
X170381352Y-139698600D03*
%TO.P,O5,3*%
X172921352Y-139698600D03*
%TO.P,O5,4,V+*%
%TO.N,~*%
X175461352Y-139698600D03*
%TO.P,O5,5,+*%
%TO.N,I2C_GND*%
X178001352Y-139698600D03*
%TO.P,O5,6,-*%
%TO.N,CJA*%
X180541352Y-139698600D03*
%TO.P,O5,7*%
%TO.N,Net-(O5-Pad7)*%
X183081352Y-139698600D03*
%TO.P,O5,8*%
%TO.N,CJ3*%
X183081352Y-132078600D03*
%TO.P,O5,9,-*%
%TO.N,Net-(O5C--)*%
X180541352Y-132078600D03*
%TO.P,O5,10,+*%
%TO.N,Net-(O5C-+)*%
X178001352Y-132078600D03*
%TO.P,O5,11,V-*%
%TO.N,-12V*%
X175461352Y-132078600D03*
%TO.P,O5,12,+*%
%TO.N,Net-(O5D-+)*%
X172921352Y-132078600D03*
%TO.P,O5,13,-*%
%TO.N,Net-(O5D--)*%
X170381352Y-132078600D03*
%TO.P,O5,14*%
%TO.N,CJ6*%
X167841352Y-132078600D03*
%TD*%
D12*
%TO.P,R2,1*%
%TO.N,Net-(O3B-+)*%
X191545000Y-102133400D03*
D11*
%TO.P,R2,2*%
%TO.N,GP20*%
X186465000Y-102133400D03*
%TD*%
D12*
%TO.P,C4,1*%
%TO.N,I2C_GND*%
X179372000Y-50825400D03*
%TO.P,C4,2*%
%TO.N,-12V*%
X181372000Y-50825400D03*
%TD*%
D13*
%TO.P,J18,1,Pin_1*%
%TO.N,TPH SCL {slash} CPC GND*%
X195516500Y-56642000D03*
D14*
%TO.P,J18,2,Pin_2*%
%TO.N,TPH SDA {slash} CPC VCC*%
X195516500Y-54102000D03*
%TO.P,J18,3,Pin_3*%
%TO.N,TPH GND {slash} CPC SCL*%
X195516500Y-51562000D03*
%TO.P,J18,4,Pin_4*%
%TO.N,TPH VCC {slash} CPC SDA*%
X195516500Y-49022000D03*
%TD*%
D22*
%TO.P,Q1,1,E*%
%TO.N,I2C_GND*%
X175748000Y-78765400D03*
D23*
%TO.P,Q1,2,B*%
%TO.N,CJD*%
X177018000Y-77495400D03*
%TO.P,Q1,3,C*%
%TO.N,GP22*%
X178288000Y-78765400D03*
%TD*%
D21*
%TO.P,SW1,1,1*%
%TO.N,I2C_GND*%
X114071400Y-81305400D03*
%TO.P,SW1,2,2*%
%TO.N,Net-(R20-Pad2)*%
X107721400Y-83845400D03*
%TD*%
D12*
%TO.P,R27,1*%
%TO.N,Net-(J7-PadT)*%
X99579648Y-36928000D03*
D11*
%TO.P,R27,2*%
%TO.N,CJD*%
X99579648Y-42008000D03*
%TD*%
D17*
%TO.P,J5,S*%
%TO.N,I2C_GND*%
X101605824Y-123474000D03*
D16*
%TO.P,J5,T*%
%TO.N,Net-(J5-PadT)*%
X101605824Y-134874000D03*
%TO.P,J5,TN*%
%TO.N,unconnected-(J5-PadTN)*%
X101605824Y-126574000D03*
%TD*%
D12*
%TO.P,R36,1*%
%TO.N,CJ2*%
X196342000Y-108766400D03*
D11*
%TO.P,R36,2*%
%TO.N,Net-(O3B--)*%
X196342000Y-103686400D03*
%TD*%
D12*
%TO.P,R25,1*%
%TO.N,CS2*%
X191291000Y-71174400D03*
D11*
%TO.P,R25,2*%
%TO.N,I2C_VCC*%
X191291000Y-66094400D03*
%TD*%
D12*
%TO.P,C10,1*%
%TO.N,Net-(O3B-+)*%
X191516000Y-97090701D03*
%TO.P,C10,2*%
%TO.N,I2C_GND*%
X193516000Y-97090701D03*
%TD*%
%TO.P,R9,1*%
%TO.N,CJ3*%
X109982000Y-102362000D03*
D11*
%TO.P,R9,2*%
%TO.N,Net-(J3-PadT)*%
X109982000Y-107442000D03*
%TD*%
D12*
%TO.P,C13,1*%
%TO.N,Net-(O3C-+)*%
X173635352Y-112266600D03*
%TO.P,C13,2*%
%TO.N,I2C_GND*%
X171635352Y-112266600D03*
%TD*%
%TO.P,R7,1*%
%TO.N,CJ1*%
X93218000Y-110236000D03*
D11*
%TO.P,R7,2*%
%TO.N,Net-(J1-PadT)*%
X93218000Y-115316000D03*
%TD*%
D12*
%TO.P,C7,1*%
%TO.N,CS2*%
X195580000Y-81280000D03*
%TO.P,C7,2*%
%TO.N,I2C_GND*%
X195580000Y-79280000D03*
%TD*%
%TO.P,R34,1*%
%TO.N,Net-(O5D--)*%
X164539352Y-140206600D03*
D11*
%TO.P,R34,2*%
%TO.N,I2C_GND*%
X164539352Y-135126600D03*
%TD*%
D24*
%TO.P,VR1,*%
%TO.N,*%
X115759400Y-68097400D03*
X106959400Y-68097400D03*
D19*
%TO.P,VR1,1,1*%
%TO.N,I2C_VCC*%
X108859400Y-61097400D03*
%TO.P,VR1,2,2*%
%TO.N,CK1*%
X111359400Y-61097400D03*
%TO.P,VR1,3,3*%
%TO.N,I2C_GND*%
X113859400Y-61097400D03*
%TD*%
D12*
%TO.P,C15,1*%
%TO.N,~*%
X185399352Y-53592600D03*
%TO.P,C15,2*%
%TO.N,I2C_GND*%
X187399352Y-53592600D03*
%TD*%
D18*
%TO.P,LED2,1,K*%
%TO.N,I2C_GND*%
X102880824Y-102616000D03*
D19*
%TO.P,LED2,2,A*%
%TO.N,Net-(LED2-A)*%
X100340824Y-102616000D03*
%TD*%
D24*
%TO.P,VR2,*%
%TO.N,*%
X96232648Y-68087000D03*
X87432648Y-68087000D03*
D19*
%TO.P,VR2,1,1*%
%TO.N,I2C_VCC*%
X89332648Y-61087000D03*
%TO.P,VR2,2,2*%
%TO.N,CK2*%
X91832648Y-61087000D03*
%TO.P,VR2,3,3*%
%TO.N,I2C_GND*%
X94332648Y-61087000D03*
%TD*%
D12*
%TO.P,R3,1*%
%TO.N,Net-(O5C-+)*%
X168857352Y-124966600D03*
D11*
%TO.P,R3,2*%
%TO.N,GP16*%
X173937352Y-124966600D03*
%TD*%
D12*
%TO.P,R4,1*%
%TO.N,Net-(O3D-+)*%
X168603352Y-106932600D03*
D11*
%TO.P,R4,2*%
%TO.N,GP17*%
X173683352Y-106932600D03*
%TD*%
D12*
%TO.P,R39,1*%
%TO.N,CJ5*%
X191320000Y-108708400D03*
D11*
%TO.P,R39,2*%
%TO.N,Net-(O3C--)*%
X186240000Y-108708400D03*
%TD*%
D18*
%TO.P,LED4,1,K*%
%TO.N,I2C_GND*%
X85339000Y-120396000D03*
D19*
%TO.P,LED4,2,A*%
%TO.N,Net-(LED4-A)*%
X87879000Y-120396000D03*
%TD*%
D13*
%TO.P,J12,1,Pin_1*%
%TO.N,TPH SCL {slash} CPC GND*%
X117957600Y-56642000D03*
D14*
%TO.P,J12,2,Pin_2*%
%TO.N,TPH SDA {slash} CPC VCC*%
X117957600Y-54102000D03*
%TO.P,J12,3,Pin_3*%
%TO.N,TPH GND {slash} CPC SCL*%
X117957600Y-51562000D03*
%TO.P,J12,4,Pin_4*%
%TO.N,TPH VCC {slash} CPC SDA*%
X117957600Y-49022000D03*
%TD*%
D12*
%TO.P,C9,1*%
%TO.N,Net-(O3A-+)*%
X191516000Y-90994701D03*
%TO.P,C9,2*%
%TO.N,I2C_GND*%
X193516000Y-90994701D03*
%TD*%
%TO.P,R40,1*%
%TO.N,CJ6*%
X168603352Y-128551600D03*
D11*
%TO.P,R40,2*%
%TO.N,Net-(O5D--)*%
X173683352Y-128551600D03*
%TD*%
D17*
%TO.P,J6,S*%
%TO.N,I2C_GND*%
X116597648Y-123474000D03*
D16*
%TO.P,J6,T*%
%TO.N,Net-(J6-PadT)*%
X116597648Y-134874000D03*
%TO.P,J6,TN*%
%TO.N,unconnected-(J6-PadTN)*%
X116597648Y-126574000D03*
%TD*%
D18*
%TO.P,LED3,1,K*%
%TO.N,I2C_GND*%
X117872648Y-102616000D03*
D19*
%TO.P,LED3,2,A*%
%TO.N,Net-(LED3-A)*%
X115332648Y-102616000D03*
%TD*%
D12*
%TO.P,R12,1*%
%TO.N,CJ6*%
X109739648Y-131289000D03*
D11*
%TO.P,R12,2*%
%TO.N,Net-(J6-PadT)*%
X109739648Y-136369000D03*
%TD*%
D12*
%TO.P,R38,1*%
%TO.N,CJ4*%
X186436000Y-133375400D03*
D11*
%TO.P,R38,2*%
%TO.N,Net-(O3D--)*%
X186436000Y-128295400D03*
%TD*%
D12*
%TO.P,R35,1*%
%TO.N,CJ1*%
X196850000Y-131314400D03*
D11*
%TO.P,R35,2*%
%TO.N,Net-(O3A--)*%
X196850000Y-136394400D03*
%TD*%
D12*
%TO.P,R14,1*%
%TO.N,Net-(LED2-A)*%
X96266000Y-98552000D03*
D11*
%TO.P,R14,2*%
%TO.N,CJ2*%
X101346000Y-98552000D03*
%TD*%
D12*
%TO.P,C8,1*%
%TO.N,CS1*%
X195580000Y-73438000D03*
%TO.P,C8,2*%
%TO.N,I2C_GND*%
X195580000Y-75438000D03*
%TD*%
D18*
%TO.P,LED1,1,K*%
%TO.N,I2C_GND*%
X87889000Y-102616000D03*
D19*
%TO.P,LED1,2,A*%
%TO.N,Net-(LED1-A)*%
X85349000Y-102616000D03*
%TD*%
D12*
%TO.P,R15,1*%
%TO.N,Net-(LED3-A)*%
X115581648Y-98806000D03*
D11*
%TO.P,R15,2*%
%TO.N,CJ3*%
X110501648Y-98806000D03*
%TD*%
D12*
%TO.P,C6,1*%
%TO.N,I2C_GND*%
X179372000Y-45237400D03*
%TO.P,C6,2*%
%TO.N,-12V*%
X181372000Y-45237400D03*
%TD*%
%TO.P,R33,1*%
%TO.N,Net-(O3C--)*%
X186436000Y-112235400D03*
D11*
%TO.P,R33,2*%
%TO.N,I2C_GND*%
X186436000Y-117315400D03*
%TD*%
D13*
%TO.P,J16,1,Pin_1*%
%TO.N,GP1*%
X200406000Y-39649400D03*
D14*
%TO.P,J16,2,Pin_2*%
%TO.N,TPH GND {slash} CPC SCL*%
X197866000Y-39649400D03*
%TO.P,J16,3,Pin_3*%
%TO.N,TPH SDA {slash} CPC VCC*%
X195326000Y-39649400D03*
%TO.P,J16,4,Pin_4*%
%TO.N,I2C_VCC*%
X192786000Y-39649400D03*
%TO.P,J16,5,Pin_5*%
%TO.N,TPH VCC {slash} CPC SDA*%
X200406000Y-37109400D03*
%TO.P,J16,6,Pin_6*%
%TO.N,GP0*%
X197866000Y-37109400D03*
%TO.P,J16,7,Pin_7*%
%TO.N,I2C_GND*%
X195326000Y-37109400D03*
%TO.P,J16,8,Pin_8*%
%TO.N,TPH SCL {slash} CPC GND*%
X192786000Y-37109400D03*
%TD*%
D13*
%TO.P,J15,1,Pin_1*%
%TO.N,I2C_GND*%
X199390000Y-64770000D03*
D14*
%TO.P,J15,2,Pin_2*%
%TO.N,I2C_VCC*%
X199390000Y-62230000D03*
%TO.P,J15,3,Pin_3*%
%TO.N,GP3*%
X199390000Y-59690000D03*
%TO.P,J15,4,Pin_4*%
%TO.N,GP2*%
X199390000Y-57150000D03*
%TD*%
D25*
%TO.P,U2,1,GP0*%
%TO.N,GP0*%
X200246000Y-75841400D03*
D12*
%TO.P,U2,2,GP1*%
%TO.N,GP1*%
X200246000Y-78381400D03*
D26*
%TO.P,U2,3,GND*%
%TO.N,I2C_GND*%
X200246000Y-80921400D03*
D12*
%TO.P,U2,4,GP2*%
%TO.N,GP2*%
X200246000Y-83461400D03*
%TO.P,U2,5,GP3*%
%TO.N,GP3*%
X200246000Y-86001400D03*
%TO.P,U2,6,GP4*%
%TO.N,CS1*%
X200246000Y-88541400D03*
%TO.P,U2,7,GP5*%
%TO.N,CS2*%
X200246000Y-91081400D03*
D26*
%TO.P,U2,8,GND*%
%TO.N,I2C_GND*%
X200246000Y-93621400D03*
D12*
%TO.P,U2,9,GP6*%
%TO.N,unconnected-(U2-GP6-Pad9)*%
X200246000Y-96161400D03*
%TO.P,U2,10,GP7*%
%TO.N,unconnected-(U2-GP7-Pad10)*%
X200246000Y-98701400D03*
%TO.P,U2,11,GP8*%
%TO.N,unconnected-(U2-GP8-Pad11)*%
X200246000Y-101241400D03*
%TO.P,U2,12,GP9*%
%TO.N,unconnected-(U2-GP9-Pad12)*%
X200246000Y-103781400D03*
D26*
%TO.P,U2,13,GND*%
%TO.N,I2C_GND*%
X200246000Y-106321400D03*
D12*
%TO.P,U2,14,GP10*%
%TO.N,unconnected-(U2-GP10-Pad14)*%
X200246000Y-108861400D03*
%TO.P,U2,15,GP11*%
%TO.N,unconnected-(U2-GP11-Pad15)*%
X200246000Y-111401400D03*
%TO.P,U2,16,GP12*%
%TO.N,unconnected-(U2-GP12-Pad16)*%
X200246000Y-113941400D03*
%TO.P,U2,17,GP13*%
%TO.N,unconnected-(U2-GP13-Pad17)*%
X200246000Y-116481400D03*
D26*
%TO.P,U2,18,GND*%
%TO.N,I2C_GND*%
X200246000Y-119021400D03*
D12*
%TO.P,U2,19,GP14*%
%TO.N,unconnected-(U2-GP14-Pad19)*%
X200246000Y-121561400D03*
%TO.P,U2,20,GP15*%
%TO.N,unconnected-(U2-GP15-Pad20)*%
X200246000Y-124101400D03*
%TO.P,U2,21,GP16*%
%TO.N,GP16*%
X182466000Y-124101400D03*
%TO.P,U2,22,GP17*%
%TO.N,GP17*%
X182466000Y-121561400D03*
D27*
%TO.P,U2,23,GND*%
%TO.N,I2C_GND*%
X182466000Y-119021400D03*
D12*
%TO.P,U2,24,GP18*%
%TO.N,GP18*%
X182466000Y-116481400D03*
%TO.P,U2,25,GP19*%
%TO.N,GP19*%
X182466000Y-113941400D03*
%TO.P,U2,26,GP20*%
%TO.N,GP20*%
X182466000Y-111401400D03*
%TO.P,U2,27,GP21*%
%TO.N,GP21*%
X182466000Y-108861400D03*
D27*
%TO.P,U2,28,GND*%
%TO.N,I2C_GND*%
X182466000Y-106321400D03*
D12*
%TO.P,U2,29,GP22*%
%TO.N,GP22*%
X182466000Y-103781400D03*
%TO.P,U2,30,RUN*%
%TO.N,unconnected-(U2-RUN-Pad30)*%
X182466000Y-101241400D03*
%TO.P,U2,31,GP26*%
%TO.N,GP26*%
X182466000Y-98701400D03*
%TO.P,U2,32,GP27*%
%TO.N,CK1*%
X182466000Y-96161400D03*
D27*
%TO.P,U2,33,GND*%
%TO.N,I2C_GND*%
X182466000Y-93621400D03*
D12*
%TO.P,U2,34,GP28*%
%TO.N,CK2*%
X182466000Y-91081400D03*
%TO.P,U2,35,ADC_VREF*%
%TO.N,unconnected-(U2-ADC_VREF-Pad35)*%
X182466000Y-88541400D03*
%TO.P,U2,36,3V3*%
%TO.N,I2C_VCC*%
X182466000Y-86001400D03*
%TO.P,U2,37,3V3_EN*%
%TO.N,unconnected-(U2-3V3_EN-Pad37)*%
X182466000Y-83461400D03*
D27*
%TO.P,U2,38,GND*%
%TO.N,I2C_GND*%
X182466000Y-80921400D03*
D12*
%TO.P,U2,39,VSYS*%
%TO.N,Net-(D2-K)*%
X182466000Y-78381400D03*
%TO.P,U2,40,VBUS*%
%TO.N,unconnected-(U2-VBUS-Pad40)*%
X182466000Y-75841400D03*
%TD*%
D13*
%TO.P,J19,1,Pin_1*%
%TO.N,TPH SCL {slash} CPC GND*%
X114211500Y-56642000D03*
D14*
%TO.P,J19,2,Pin_2*%
%TO.N,TPH SDA {slash} CPC VCC*%
X114211500Y-54102000D03*
%TO.P,J19,3,Pin_3*%
%TO.N,TPH GND {slash} CPC SCL*%
X114211500Y-51562000D03*
%TO.P,J19,4,Pin_4*%
%TO.N,TPH VCC {slash} CPC SDA*%
X114211500Y-49022000D03*
%TD*%
D13*
%TO.P,J17,1,Pin_1*%
%TO.N,CJD*%
X83058000Y-68580000D03*
D14*
%TO.P,J17,2,Pin_2*%
%TO.N,CJA*%
X83058000Y-71120000D03*
%TO.P,J17,3,Pin_3*%
%TO.N,CK1*%
X83058000Y-73660000D03*
%TO.P,J17,4,Pin_4*%
%TO.N,CK2*%
X83058000Y-76200000D03*
%TO.P,J17,5,Pin_5*%
%TO.N,CS1*%
X83058000Y-78740000D03*
%TO.P,J17,6,Pin_6*%
%TO.N,CS2*%
X83058000Y-81280000D03*
%TO.P,J17,7,Pin_7*%
%TO.N,CJ6*%
X83058000Y-83820000D03*
%TO.P,J17,8,Pin_8*%
%TO.N,CJ5*%
X83058000Y-86360000D03*
%TO.P,J17,9,Pin_9*%
%TO.N,CJ4*%
X83058000Y-88900000D03*
%TO.P,J17,10,Pin_10*%
%TO.N,CJ3*%
X83058000Y-91440000D03*
%TO.P,J17,11,Pin_11*%
%TO.N,CJ2*%
X83058000Y-93980000D03*
%TO.P,J17,12,Pin_12*%
%TO.N,CJ1*%
X83058000Y-96520000D03*
%TO.P,J17,13,Pin_13*%
%TO.N,I2C_GND*%
X83058000Y-99060000D03*
%TD*%
D28*
%TO.P,J10,1,Pin_1*%
%TO.N,Net-(D3-K)*%
X167132000Y-58166000D03*
D29*
%TO.P,J10,2,Pin_2*%
X169672000Y-58166000D03*
%TO.P,J10,3,Pin_3*%
%TO.N,I2C_GND*%
X167132000Y-55626000D03*
%TO.P,J10,4,Pin_4*%
X169672000Y-55626000D03*
%TO.P,J10,5,Pin_5*%
X167132000Y-53086000D03*
%TO.P,J10,6,Pin_6*%
X169672000Y-53086000D03*
%TO.P,J10,7,Pin_7*%
X167132000Y-50546000D03*
%TO.P,J10,8,Pin_8*%
X169672000Y-50546000D03*
%TO.P,J10,9,Pin_9*%
%TO.N,Net-(D4-A)*%
X167132000Y-48006000D03*
%TO.P,J10,10,Pin_10*%
X169672000Y-48006000D03*
%TO.P,J10,11,Pin_11*%
%TO.N,+5V*%
X167132000Y-45466000D03*
%TO.P,J10,12,Pin_12*%
X169672000Y-45466000D03*
%TO.P,J10,13,Pin_13*%
%TO.N,Net-(J10-Pin_13)*%
X167132000Y-42926000D03*
%TO.P,J10,14,Pin_14*%
X169672000Y-42926000D03*
%TO.P,J10,15,Pin_15*%
%TO.N,Net-(J10-Pin_15)*%
X167132000Y-40386000D03*
%TO.P,J10,16,Pin_16*%
X169672000Y-40386000D03*
%TD*%
D30*
%TO.P,U1,1,IN*%
%TO.N,~*%
X181303352Y-37773600D03*
D31*
%TO.P,U1,2,GND*%
%TO.N,I2C_GND*%
X183843352Y-37773600D03*
%TO.P,U1,3,OUT*%
%TO.N,+5V*%
X186383352Y-37773600D03*
%TD*%
D32*
%TO.N,-12V*%
X186690000Y-68351400D03*
X192404377Y-120037635D03*
X197104000Y-95806177D03*
X197104000Y-90424000D03*
%TO.N,Net-(O3D-+)*%
X184969585Y-122757775D03*
X180085992Y-122682000D03*
%TO.N,GP26*%
X184658000Y-84719900D03*
X184746262Y-81226462D03*
%TO.N,Net-(O1A--)*%
X184912000Y-98298000D03*
X189044146Y-79884267D03*
X188976000Y-88392000D03*
%TO.N,Net-(O5C--)*%
X168603352Y-134110600D03*
%TO.N,Net-(R19-Pad2)*%
X99296000Y-81044000D03*
%TO.N,CK1*%
X166823370Y-82003610D03*
%TO.N,CJ2*%
X192532000Y-104394000D03*
X179894723Y-101991229D03*
%TO.N,CJ4*%
X93218000Y-92456000D03*
%TO.N,CJ6*%
X99568000Y-87630000D03*
X166825352Y-100328600D03*
X99568000Y-91948000D03*
X169365352Y-97788600D03*
%TO.N,CJA*%
X185758575Y-89831407D03*
X193040000Y-100584000D03*
%TO.N,CS2*%
X190754000Y-87376000D03*
X94804634Y-76930000D03*
%TO.N,~*%
X191516000Y-64008000D03*
X199136000Y-69596000D03*
%TD*%
D33*
%TO.N,GP18*%
X182361400Y-116586000D02*
X182466000Y-116481400D01*
X180848000Y-116586000D02*
X182361400Y-116586000D01*
X180055600Y-115793600D02*
X180848000Y-116586000D01*
X178255352Y-115793600D02*
X180055600Y-115793600D01*
D34*
%TO.N,-12V*%
X189484000Y-120167400D02*
X185954000Y-123697400D01*
X186858000Y-68519400D02*
X186858000Y-71034000D01*
X194564000Y-115643503D02*
X192404377Y-117803126D01*
X182393384Y-129878600D02*
X177661352Y-129878600D01*
X197104000Y-95806177D02*
X197104000Y-97779767D01*
X177661352Y-129878600D02*
X175461352Y-132078600D01*
X190500000Y-74676000D02*
X190500000Y-83820000D01*
X190500000Y-83820000D02*
X197104000Y-90424000D01*
X186858000Y-71034000D02*
X190500000Y-74676000D01*
X194564000Y-100319767D02*
X194564000Y-115643503D01*
X184886000Y-127385984D02*
X182393384Y-129878600D01*
X184886000Y-124605368D02*
X184886000Y-127385984D01*
X186690000Y-68351400D02*
X186858000Y-68519400D01*
X197104000Y-97779767D02*
X194564000Y-100319767D01*
X185793968Y-123697400D02*
X184886000Y-124605368D01*
X185954000Y-123697400D02*
X185793968Y-123697400D01*
X192404377Y-117803126D02*
X192404377Y-120037635D01*
D33*
%TO.N,Net-(O3D-+)*%
X184915960Y-122811400D02*
X184969585Y-122757775D01*
X180215392Y-122811400D02*
X184915960Y-122811400D01*
X180085992Y-122682000D02*
X180215392Y-122811400D01*
%TO.N,Net-(O3C-+)*%
X182095239Y-115191400D02*
X182047438Y-115143600D01*
X189484000Y-117627400D02*
X187048000Y-115191400D01*
X182047438Y-115143600D02*
X181553982Y-115143600D01*
X178255352Y-111844970D02*
X178255352Y-110713600D01*
X187048000Y-115191400D02*
X182095239Y-115191400D01*
X181553982Y-115143600D02*
X178255352Y-111844970D01*
%TO.N,Net-(O5D-+)*%
X177239352Y-127760600D02*
X172921352Y-132078600D01*
%TO.N,GP26*%
X184658000Y-81138200D02*
X184746262Y-81226462D01*
X184158581Y-97008819D02*
X182466000Y-98701400D01*
X184658000Y-70383400D02*
X184658000Y-81138200D01*
X184158581Y-85219319D02*
X184158581Y-97008819D01*
X182466000Y-98701400D02*
X177451000Y-98701400D01*
X177451000Y-98701400D02*
X177038000Y-99114400D01*
X184658000Y-84719900D02*
X184158581Y-85219319D01*
%TO.N,Net-(O1A--)*%
X185908000Y-76748121D02*
X189044146Y-79884267D01*
X184912000Y-98298000D02*
X184808581Y-98194581D01*
X184808581Y-89437898D02*
X185854479Y-88392000D01*
X185908000Y-69093400D02*
X185908000Y-76748121D01*
X185854479Y-88392000D02*
X188976000Y-88392000D01*
X184808581Y-98194581D02*
X184808581Y-89437898D01*
X184658000Y-67843400D02*
X185908000Y-69093400D01*
%TO.N,Net-(O3A--)*%
X190246000Y-130048000D02*
X190246000Y-131372400D01*
X197104000Y-125247400D02*
X195046600Y-125247400D01*
X195046600Y-125247400D02*
X190246000Y-130048000D01*
%TO.N,Net-(O3D--)*%
X189484000Y-125247400D02*
X186436000Y-125247400D01*
X186436000Y-125247400D02*
X186436000Y-128295400D01*
%TO.N,Net-(O5C--)*%
X168603352Y-134110600D02*
X178509352Y-134110600D01*
X178509352Y-134110600D02*
X180541352Y-132078600D01*
%TO.N,Net-(O5D--)*%
X170381352Y-131853600D02*
X170381352Y-132078600D01*
X173683352Y-128551600D02*
X170381352Y-131853600D01*
D35*
%TO.N,Net-(R19-Pad2)*%
X105664000Y-71495415D02*
X105664000Y-78486000D01*
X102119648Y-66294000D02*
X102119648Y-67951063D01*
X105664000Y-78486000D02*
X101854000Y-78486000D01*
X101854000Y-78486000D02*
X99296000Y-81044000D01*
X102119648Y-67951063D02*
X105664000Y-71495415D01*
D33*
%TO.N,CK1*%
X166823370Y-76145370D02*
X166823370Y-82003610D01*
X164338000Y-73660000D02*
X166823370Y-76145370D01*
D35*
%TO.N,CK2*%
X91832648Y-61087000D02*
X91832648Y-68283195D01*
X91832648Y-68283195D02*
X83915843Y-76200000D01*
X83915843Y-76200000D02*
X83058000Y-76200000D01*
D33*
%TO.N,CJ2*%
X184846367Y-104394000D02*
X182983767Y-102531400D01*
X192532000Y-104394000D02*
X184846367Y-104394000D01*
X180434894Y-102531400D02*
X179894723Y-101991229D01*
X182983767Y-102531400D02*
X180434894Y-102531400D01*
%TO.N,CJ3*%
X179420919Y-110111400D02*
X186079767Y-110111400D01*
X190734000Y-125765167D02*
X190001767Y-126497400D01*
X189006233Y-126497400D02*
X187686000Y-127817633D01*
X164338000Y-91440000D02*
X165810752Y-91440000D01*
X190001767Y-113837400D02*
X190734000Y-114569633D01*
X184605352Y-132078600D02*
X183081352Y-132078600D01*
X188970152Y-113837400D02*
X190001767Y-113837400D01*
X186079767Y-110111400D02*
X188234000Y-112265633D01*
X174488000Y-100117248D02*
X174488000Y-105178481D01*
X187686000Y-127817633D02*
X187686000Y-128997952D01*
X188234000Y-113101248D02*
X188970152Y-113837400D01*
X190001767Y-126497400D02*
X189006233Y-126497400D01*
X187686000Y-128997952D02*
X184605352Y-132078600D01*
X190734000Y-114569633D02*
X190734000Y-125765167D01*
X174488000Y-105178481D02*
X179420919Y-110111400D01*
X165810752Y-91440000D02*
X174488000Y-100117248D01*
X188234000Y-112265633D02*
X188234000Y-113101248D01*
%TO.N,CJ4*%
X181953294Y-107576462D02*
X183854462Y-107576462D01*
D35*
X93218000Y-92710000D02*
X93218000Y-92456000D01*
D33*
X164338000Y-89101406D02*
X166026594Y-90790000D01*
X183972524Y-107458400D02*
X186960400Y-107458400D01*
D35*
X93472000Y-125701000D02*
X91168000Y-123397000D01*
D33*
X183854462Y-107576462D02*
X183972524Y-107458400D01*
X180013469Y-104776875D02*
X180013469Y-105636637D01*
D35*
X91168000Y-105250138D02*
X93218000Y-103200138D01*
D33*
X190615370Y-127787400D02*
X189484000Y-127787400D01*
X166026594Y-90790000D02*
X166079990Y-90790000D01*
X191384000Y-111882000D02*
X191384000Y-127018770D01*
X175138000Y-99901406D02*
X180013469Y-104776875D01*
X191384000Y-127018770D02*
X190615370Y-127787400D01*
X180013469Y-105636637D02*
X181953294Y-107576462D01*
D35*
X91168000Y-123397000D02*
X91168000Y-105250138D01*
D33*
X186960400Y-107458400D02*
X191384000Y-111882000D01*
X166079990Y-90790000D02*
X175138000Y-99848010D01*
X164338000Y-88900000D02*
X164338000Y-89101406D01*
X175138000Y-99848010D02*
X175138000Y-99901406D01*
D35*
X93218000Y-103200138D02*
X93218000Y-92710000D01*
D33*
%TO.N,CJ5*%
X175788000Y-99578771D02*
X166349228Y-90140000D01*
X181222171Y-105066338D02*
X175788000Y-99632167D01*
D35*
X103396000Y-97702862D02*
X103396000Y-98570000D01*
X83487849Y-86360000D02*
X86487849Y-89360000D01*
X104902000Y-100076000D02*
X105798138Y-100076000D01*
D33*
X165638000Y-89438478D02*
X165638000Y-87660000D01*
D35*
X100838000Y-96046428D02*
X101739566Y-96046428D01*
D33*
X166295833Y-90140000D02*
X165616155Y-89460322D01*
X165638000Y-87660000D02*
X164338000Y-86360000D01*
X187677938Y-105066338D02*
X181222171Y-105066338D01*
D35*
X105798138Y-100076000D02*
X107968000Y-102245862D01*
D33*
X175788000Y-99632167D02*
X175788000Y-99578771D01*
D35*
X101739566Y-96046428D02*
X103396000Y-97702862D01*
D33*
X191320000Y-108708400D02*
X187677938Y-105066338D01*
D35*
X86487849Y-89360000D02*
X94151572Y-89360000D01*
X110508000Y-110613138D02*
X110508000Y-115523000D01*
X83058000Y-86360000D02*
X83487849Y-86360000D01*
X110508000Y-115523000D02*
X108458000Y-117573000D01*
X94151572Y-89360000D02*
X100838000Y-96046428D01*
D33*
X166349228Y-90140000D02*
X166295833Y-90140000D01*
X165616155Y-89460322D02*
X165638000Y-89438478D01*
D35*
X107968000Y-102245862D02*
X107968000Y-108073138D01*
X107968000Y-108073138D02*
X110508000Y-110613138D01*
X103396000Y-98570000D02*
X104902000Y-100076000D01*
%TO.N,CJ6*%
X113030000Y-98435214D02*
X113030000Y-125429648D01*
X99568000Y-91948000D02*
X106542786Y-91948000D01*
X95440000Y-78930000D02*
X97296000Y-80786000D01*
X83058000Y-83820000D02*
X84560598Y-83820000D01*
X97296000Y-80786000D02*
X97296000Y-84088000D01*
D33*
X169365352Y-97788600D02*
X166825352Y-100328600D01*
D35*
X113030000Y-125429648D02*
X109739648Y-128720000D01*
X97296000Y-84088000D02*
X99568000Y-86360000D01*
X89450598Y-78930000D02*
X95440000Y-78930000D01*
X99568000Y-86360000D02*
X99568000Y-87630000D01*
X106542786Y-91948000D02*
X113030000Y-98435214D01*
X84560598Y-83820000D02*
X89450598Y-78930000D01*
D33*
%TO.N,CJA*%
X190266000Y-92309265D02*
X187788142Y-89831407D01*
X187788142Y-89831407D02*
X185758575Y-89831407D01*
X193040000Y-100584000D02*
X190266000Y-97810000D01*
X190266000Y-97810000D02*
X190266000Y-92309265D01*
%TO.N,CS2*%
X183282997Y-84751400D02*
X167308419Y-84751400D01*
X164338000Y-81780981D02*
X164338000Y-81280000D01*
D35*
X102119648Y-61214000D02*
X100069648Y-63264000D01*
X100069648Y-63264000D02*
X100069648Y-71664986D01*
D33*
X184264497Y-83769900D02*
X183282997Y-84751400D01*
X167308419Y-84751400D02*
X164338000Y-81780981D01*
X190754000Y-87376000D02*
X187147900Y-83769900D01*
X187147900Y-83769900D02*
X184264497Y-83769900D01*
D35*
X100069648Y-71664986D02*
X94804634Y-76930000D01*
D33*
%TO.N,CS1*%
X197497503Y-91374000D02*
X196456498Y-91374000D01*
X196456498Y-91374000D02*
X187258960Y-82176462D01*
D34*
X194030000Y-73856630D02*
X194030000Y-84048000D01*
D33*
X187258960Y-82176462D02*
X167994021Y-82176462D01*
D34*
X193030000Y-61991400D02*
X193030000Y-62981000D01*
X194448630Y-73438000D02*
X194030000Y-73856630D01*
D33*
X166429867Y-82953610D02*
X165873370Y-82397113D01*
D34*
X193069000Y-62942000D02*
X193069000Y-61747400D01*
X193030000Y-62981000D02*
X193030000Y-70888000D01*
D33*
X200246000Y-88541400D02*
X200246000Y-88625503D01*
D34*
X193030000Y-70888000D02*
X195580000Y-73438000D01*
D33*
X167994021Y-82176462D02*
X167216873Y-82953610D01*
D34*
X195580000Y-73438000D02*
X194448630Y-73438000D01*
D33*
X165873370Y-82397113D02*
X165873370Y-80275370D01*
X167216873Y-82953610D02*
X166429867Y-82953610D01*
X200246000Y-88625503D02*
X197497503Y-91374000D01*
D34*
X198523400Y-88541400D02*
X200246000Y-88541400D01*
X193030000Y-62981000D02*
X193069000Y-62942000D01*
D33*
X165873370Y-80275370D02*
X164338000Y-78740000D01*
D34*
X194030000Y-84048000D02*
X198523400Y-88541400D01*
D33*
%TO.N,TPH VCC {slash} CPC SDA*%
X201956000Y-38099400D02*
X201956000Y-41199400D01*
X201706000Y-42832500D02*
X195516500Y-49022000D01*
X201956000Y-41199400D02*
X201706000Y-41199400D01*
X200406000Y-37109400D02*
X201396000Y-38099400D01*
X201706000Y-41199400D02*
X201706000Y-42832500D01*
X201396000Y-38099400D02*
X201956000Y-38099400D01*
%TO.N,TPH SCL {slash} CPC GND*%
X191486000Y-38409400D02*
X191486000Y-52611500D01*
X191486000Y-52611500D02*
X195516500Y-56642000D01*
X192786000Y-37109400D02*
X191486000Y-38409400D01*
D35*
%TO.N,I2C_GND*%
X94694000Y-81740000D02*
X94694000Y-87074000D01*
X164338000Y-108265663D02*
X167793352Y-111721015D01*
X101680095Y-105694000D02*
X98944648Y-108429447D01*
X183846167Y-48997000D02*
X184885767Y-50036600D01*
X167079352Y-50544600D02*
X178521430Y-50544600D01*
X85339000Y-120396000D02*
X85339000Y-122199000D01*
X118126648Y-120396000D02*
X119276296Y-119246352D01*
X86614000Y-105694000D02*
X87889000Y-104419000D01*
X84720648Y-45125000D02*
X84720648Y-40640000D01*
X83704648Y-118761648D02*
X83704648Y-108429447D01*
X119276296Y-119246352D02*
X119276296Y-108372648D01*
X167793352Y-112266600D02*
X171635352Y-112266600D01*
X185544000Y-119021400D02*
X186436000Y-119913400D01*
X164338000Y-99060000D02*
X164338000Y-108265663D01*
X167143661Y-50544600D02*
X167143661Y-55624600D01*
X112522000Y-63119000D02*
X108026642Y-63119000D01*
X187343352Y-41609000D02*
X187343352Y-39678600D01*
X120396000Y-42726352D02*
X118327648Y-40658000D01*
X186436000Y-119913400D02*
X186436000Y-120167400D01*
X195326000Y-36074048D02*
X195326000Y-37109400D01*
X105167648Y-132809000D02*
X105697648Y-133339000D01*
X117867648Y-102611000D02*
X117872648Y-102616000D01*
X167793352Y-112266600D02*
X167793352Y-118854600D01*
X174661767Y-122426600D02*
X171651352Y-119416185D01*
X167809352Y-118870600D02*
X167809352Y-122458600D01*
X196580000Y-68580000D02*
X196580000Y-63246000D01*
X191762552Y-35259400D02*
X194511352Y-35259400D01*
X86614000Y-123474000D02*
X86787905Y-123474000D01*
X118126648Y-120396000D02*
X118126648Y-124974648D01*
X107689648Y-131347000D02*
X107689648Y-129135743D01*
X120217000Y-61087000D02*
X120396000Y-60908000D01*
X83058000Y-106594095D02*
X84299000Y-107835095D01*
X112851944Y-133339000D02*
X119657296Y-126533648D01*
X164539352Y-135126600D02*
X165339351Y-135926599D01*
X182118000Y-60223400D02*
X184658000Y-62763400D01*
X190246000Y-136452400D02*
X193519000Y-136452400D01*
X200240415Y-80921400D02*
X200246000Y-80921400D01*
X85339000Y-120396000D02*
X83704648Y-118761648D01*
X165339351Y-135926599D02*
X175360721Y-135926599D01*
X177032415Y-60223400D02*
X171450000Y-65805815D01*
X84299000Y-107835095D02*
X86440095Y-105694000D01*
X85339000Y-122199000D02*
X86614000Y-123474000D01*
X117872648Y-120396000D02*
X118126648Y-120396000D01*
X196580000Y-63246000D02*
X196580000Y-60182000D01*
X100247648Y-132058000D02*
X100998648Y-132809000D01*
X180069030Y-48997000D02*
X183846167Y-48997000D01*
X119276296Y-108372648D02*
X116597648Y-105694000D01*
X83058000Y-99060000D02*
X83058000Y-106594095D01*
X113869800Y-61087000D02*
X113859400Y-61097400D01*
X118650000Y-89948000D02*
X118872000Y-90170000D01*
X118872000Y-90170000D02*
X118872000Y-84804366D01*
X167809352Y-122458600D02*
X166339352Y-123928600D01*
X117867648Y-90678000D02*
X117867648Y-102611000D01*
X118375648Y-90170000D02*
X117867648Y-90678000D01*
X174699352Y-122426600D02*
X174661767Y-122426600D01*
X196142699Y-93621400D02*
X200246000Y-93621400D01*
X120396000Y-60908000D02*
X120396000Y-42726352D01*
X94206415Y-132058000D02*
X100247648Y-132058000D01*
X179372000Y-49694030D02*
X180069030Y-48997000D01*
X167793352Y-118854600D02*
X167809352Y-118870600D01*
X179372000Y-56413400D02*
X179372000Y-57477400D01*
X173698000Y-67706030D02*
X172581370Y-66589400D01*
X179372000Y-50825400D02*
X179372000Y-49694030D01*
X193519000Y-136452400D02*
X193548000Y-136423400D01*
X187399352Y-48004600D02*
X187399352Y-53592600D01*
X198104000Y-64770000D02*
X199390000Y-64770000D01*
X97507648Y-57912000D02*
X94332648Y-61087000D01*
X101854000Y-105694000D02*
X102880824Y-104667176D01*
X171450000Y-65805815D02*
X171450000Y-66589400D01*
X184553600Y-39773600D02*
X183843352Y-39063352D01*
X178001352Y-138567230D02*
X180116182Y-136452400D01*
X187343352Y-39678600D02*
X191762552Y-35259400D01*
X184658000Y-62763400D02*
X184658000Y-65303400D01*
X197380000Y-69380000D02*
X197380000Y-74769370D01*
X101605824Y-123474000D02*
X102027905Y-123474000D01*
X189990600Y-53592600D02*
X187399352Y-53592600D01*
X105167648Y-132809000D02*
X100998648Y-132809000D01*
X167809352Y-118870600D02*
X171651352Y-118870600D01*
X179372000Y-50825400D02*
X179372000Y-56413400D01*
X196580000Y-68580000D02*
X197380000Y-69380000D01*
X115373034Y-81305400D02*
X114071400Y-81305400D01*
X184885767Y-50036600D02*
X187399352Y-50036600D01*
X105697648Y-133339000D02*
X112851944Y-133339000D01*
X182386600Y-80842000D02*
X177824600Y-80842000D01*
X195580000Y-75438000D02*
X195580000Y-79280000D01*
X94694000Y-87074000D02*
X97568000Y-89948000D01*
X175748000Y-78765400D02*
X173698000Y-76715400D01*
X177824600Y-80842000D02*
X175748000Y-78765400D01*
X197380000Y-74769370D02*
X196711370Y-75438000D01*
X86787905Y-123474000D02*
X91422000Y-128108095D01*
X182466000Y-119021400D02*
X185544000Y-119021400D01*
X108026642Y-63119000D02*
X102819642Y-57912000D01*
X175360721Y-135926599D02*
X178001352Y-138567230D01*
X172581370Y-66589400D02*
X171450000Y-66589400D01*
X102027905Y-123474000D02*
X107689648Y-129135743D01*
X86440095Y-105694000D02*
X86614000Y-105694000D01*
X94234000Y-81280000D02*
X94694000Y-81740000D01*
X97568000Y-89948000D02*
X118650000Y-89948000D01*
X187248352Y-39773600D02*
X184553600Y-39773600D01*
X174986000Y-79527400D02*
X175748000Y-78765400D01*
X105697648Y-133339000D02*
X107689648Y-131347000D01*
X170180000Y-79527400D02*
X174986000Y-79527400D01*
X178104552Y-119021400D02*
X174699352Y-122426600D01*
X196580000Y-63246000D02*
X198104000Y-64770000D01*
X98944648Y-119009824D02*
X100330824Y-120396000D01*
X113681648Y-61959352D02*
X112522000Y-63119000D01*
X195580000Y-79280000D02*
X198599015Y-79280000D01*
X91422000Y-129273585D02*
X94206415Y-132058000D01*
X190953352Y-56210852D02*
X190953352Y-54417726D01*
X166339352Y-123928600D02*
X166339352Y-130982600D01*
X194924500Y-60182000D02*
X190953352Y-56210852D01*
X100330824Y-122199000D02*
X101605824Y-123474000D01*
X120217000Y-61087000D02*
X113869800Y-61087000D01*
X117872648Y-102616000D02*
X117872648Y-104419000D01*
X179372000Y-57477400D02*
X182118000Y-60223400D01*
X164539352Y-132782600D02*
X164539352Y-135126600D01*
X102880824Y-104667176D02*
X102880824Y-102616000D01*
X173698000Y-76715400D02*
X173698000Y-67706030D01*
X117872648Y-104419000D02*
X116597648Y-105694000D01*
X119657296Y-126533648D02*
X118112472Y-124988824D01*
X167793352Y-111721015D02*
X167793352Y-112266600D01*
X169683661Y-55624600D02*
X169683661Y-50544600D01*
X83704648Y-108429447D02*
X84299000Y-107835095D01*
X180116182Y-136452400D02*
X190246000Y-136452400D01*
X178521430Y-50544600D02*
X179372000Y-49694030D01*
X196711370Y-75438000D02*
X195580000Y-75438000D01*
X185544000Y-118207400D02*
X186436000Y-117315400D01*
X190953352Y-54417726D02*
X190059413Y-53523787D01*
X118112472Y-124988824D02*
X116597648Y-123474000D01*
X187343352Y-39678600D02*
X187248352Y-39773600D01*
X198599015Y-79280000D02*
X200240415Y-80921400D01*
X187399352Y-48004600D02*
X187399352Y-42416600D01*
X118872000Y-84804366D02*
X118872000Y-61087000D01*
X97507648Y-57912000D02*
X84720648Y-45125000D01*
X166339352Y-130982600D02*
X164539352Y-132782600D01*
X102819642Y-57912000D02*
X97507648Y-57912000D01*
X100330824Y-120396000D02*
X100330824Y-122199000D01*
X183843352Y-39063352D02*
X183843352Y-37773600D01*
X118872000Y-61087000D02*
X120217000Y-61087000D01*
X193516000Y-90994701D02*
X196142699Y-93621400D01*
X118126648Y-124974648D02*
X118112472Y-124988824D01*
X113681648Y-61274006D02*
X113681648Y-61959352D01*
X178001352Y-139698600D02*
X178001352Y-138567230D01*
X194511352Y-35259400D02*
X195326000Y-36074048D01*
X196580000Y-60182000D02*
X194924500Y-60182000D01*
X182466000Y-80921400D02*
X182386600Y-80842000D01*
X182118000Y-60223400D02*
X177032415Y-60223400D01*
X185544000Y-119021400D02*
X185544000Y-118207400D01*
X171651352Y-119416185D02*
X171651352Y-118870600D01*
X91422000Y-128108095D02*
X91422000Y-129273585D01*
X87889000Y-104419000D02*
X87889000Y-102616000D01*
X193516000Y-90994701D02*
X193516000Y-97090701D01*
X179372000Y-50825400D02*
X179372000Y-45237400D01*
X98944648Y-108429447D02*
X98944648Y-119009824D01*
X118872000Y-84804366D02*
X115373034Y-81305400D01*
X182466000Y-119021400D02*
X178104552Y-119021400D01*
D34*
%TO.N,+5V*%
X179600852Y-38681500D02*
X172828752Y-45453600D01*
X186383352Y-37773600D02*
X184633352Y-36023600D01*
X179600852Y-36023600D02*
X179600852Y-38681500D01*
X172828752Y-45453600D02*
X169619352Y-45453600D01*
X184633352Y-36023600D02*
X179600852Y-36023600D01*
%TO.N,~*%
X177239352Y-141476600D02*
X196158320Y-141476600D01*
X191516000Y-62728815D02*
X191516000Y-64008000D01*
X185399352Y-56612167D02*
X191516000Y-62728815D01*
X202131352Y-77109682D02*
X202123352Y-77117682D01*
D33*
X197104000Y-120038711D02*
X199376373Y-117766338D01*
D34*
X202131352Y-74420600D02*
X202200753Y-74351199D01*
X202123352Y-119948648D02*
X201795538Y-120276462D01*
X202131352Y-74573118D02*
X202131352Y-77109682D01*
X185399352Y-53592600D02*
X185399352Y-56612167D01*
D33*
X197104000Y-120167400D02*
X197213062Y-120276462D01*
D34*
X201877352Y-120194648D02*
X201795538Y-120276462D01*
D33*
X197104000Y-120167400D02*
X197104000Y-120038711D01*
X197213062Y-120276462D02*
X201795538Y-120276462D01*
D34*
X175461352Y-139698600D02*
X177239352Y-141476600D01*
X196158320Y-141476600D02*
X201877352Y-135757568D01*
X202123352Y-77117682D02*
X202123352Y-119948648D01*
X201877352Y-135757568D02*
X201877352Y-120194648D01*
X202200753Y-74351199D02*
X202200753Y-72660753D01*
X202200753Y-72660753D02*
X199136000Y-69596000D01*
D33*
X199376373Y-117766338D02*
X202019662Y-117766338D01*
%TD*%
%TA.AperFunction,Conductor*%
%TO.N,I2C_GND*%
G36*
X166313810Y-49319685D02*
G01*
X166359565Y-49372489D01*
X166369453Y-49429900D01*
X166999466Y-50059913D01*
X166989685Y-50061320D01*
X166858900Y-50121048D01*
X166750239Y-50215202D01*
X166672507Y-50336156D01*
X166648923Y-50416475D01*
X166017073Y-49784625D01*
X166017072Y-49784625D01*
X165958401Y-49868419D01*
X165858570Y-50082507D01*
X165858566Y-50082516D01*
X165797432Y-50310673D01*
X165797430Y-50310684D01*
X165776843Y-50545998D01*
X165776843Y-50546001D01*
X165797430Y-50781315D01*
X165797432Y-50781326D01*
X165858566Y-51009483D01*
X165858570Y-51009492D01*
X165958400Y-51223579D01*
X165958402Y-51223583D01*
X166017072Y-51307373D01*
X166017073Y-51307373D01*
X166648923Y-50675523D01*
X166672507Y-50755844D01*
X166750239Y-50876798D01*
X166858900Y-50970952D01*
X166989685Y-51030680D01*
X166999466Y-51032086D01*
X166370625Y-51660925D01*
X166447031Y-51714425D01*
X166490655Y-51769002D01*
X166497848Y-51838501D01*
X166466326Y-51900855D01*
X166447029Y-51917576D01*
X166370625Y-51971072D01*
X166999466Y-52599913D01*
X166989685Y-52601320D01*
X166858900Y-52661048D01*
X166750239Y-52755202D01*
X166672507Y-52876156D01*
X166648923Y-52956475D01*
X166017073Y-52324625D01*
X166017072Y-52324625D01*
X165958401Y-52408419D01*
X165858570Y-52622507D01*
X165858566Y-52622516D01*
X165797432Y-52850673D01*
X165797430Y-52850684D01*
X165776843Y-53085998D01*
X165776843Y-53086001D01*
X165797430Y-53321315D01*
X165797432Y-53321326D01*
X165858566Y-53549483D01*
X165858570Y-53549492D01*
X165958400Y-53763579D01*
X165958402Y-53763583D01*
X166017072Y-53847373D01*
X166017073Y-53847373D01*
X166648923Y-53215523D01*
X166672507Y-53295844D01*
X166750239Y-53416798D01*
X166858900Y-53510952D01*
X166989685Y-53570680D01*
X166999466Y-53572086D01*
X166370625Y-54200925D01*
X166447031Y-54254425D01*
X166490655Y-54309002D01*
X166497848Y-54378501D01*
X166466326Y-54440855D01*
X166447029Y-54457576D01*
X166370625Y-54511072D01*
X166999466Y-55139913D01*
X166989685Y-55141320D01*
X166858900Y-55201048D01*
X166750239Y-55295202D01*
X166672507Y-55416156D01*
X166648923Y-55496475D01*
X166017073Y-54864625D01*
X166017072Y-54864625D01*
X165958401Y-54948419D01*
X165858570Y-55162507D01*
X165858566Y-55162516D01*
X165797432Y-55390673D01*
X165797430Y-55390684D01*
X165776843Y-55625998D01*
X165776843Y-55626001D01*
X165797430Y-55861315D01*
X165797432Y-55861326D01*
X165858566Y-56089483D01*
X165858570Y-56089492D01*
X165958400Y-56303579D01*
X165958402Y-56303583D01*
X166017072Y-56387373D01*
X166017073Y-56387373D01*
X166648923Y-55755523D01*
X166672507Y-55835844D01*
X166750239Y-55956798D01*
X166858900Y-56050952D01*
X166989685Y-56110680D01*
X166999466Y-56112086D01*
X166366208Y-56745342D01*
X166355788Y-56797193D01*
X166307172Y-56847376D01*
X166285032Y-56857205D01*
X166212674Y-56881182D01*
X166212659Y-56881189D01*
X166179668Y-56901539D01*
X166114572Y-56920000D01*
X165171352Y-56920000D01*
X165104313Y-56900315D01*
X165058558Y-56847511D01*
X165047352Y-56796000D01*
X165047352Y-49424000D01*
X165067037Y-49356961D01*
X165119841Y-49311206D01*
X165171352Y-49300000D01*
X166246771Y-49300000D01*
X166313810Y-49319685D01*
G37*
%TD.AperFunction*%
%TA.AperFunction,Conductor*%
G36*
X169212507Y-55835844D02*
G01*
X169290239Y-55956798D01*
X169398900Y-56050952D01*
X169529685Y-56110680D01*
X169539466Y-56112086D01*
X168910625Y-56740925D01*
X168914498Y-56785193D01*
X168900731Y-56853693D01*
X168852116Y-56903876D01*
X168790970Y-56920000D01*
X168149428Y-56920000D01*
X168084332Y-56901539D01*
X168051340Y-56881189D01*
X168051335Y-56881187D01*
X168051334Y-56881186D01*
X167978966Y-56857205D01*
X167921522Y-56817433D01*
X167894699Y-56752917D01*
X167894585Y-56742137D01*
X167264533Y-56112086D01*
X167274315Y-56110680D01*
X167405100Y-56050952D01*
X167513761Y-55956798D01*
X167591493Y-55835844D01*
X167615076Y-55755524D01*
X168246925Y-56387373D01*
X168300425Y-56310968D01*
X168355002Y-56267344D01*
X168424501Y-56260151D01*
X168486855Y-56291673D01*
X168503576Y-56310969D01*
X168557073Y-56387372D01*
X169188922Y-55755523D01*
X169212507Y-55835844D01*
G37*
%TD.AperFunction*%
%TA.AperFunction,Conductor*%
G36*
X171848391Y-49319685D02*
G01*
X171894146Y-49372489D01*
X171905352Y-49424000D01*
X171905352Y-56796000D01*
X171885667Y-56863039D01*
X171832863Y-56908794D01*
X171781352Y-56920000D01*
X170553029Y-56920000D01*
X170485990Y-56900315D01*
X170440235Y-56847511D01*
X170429501Y-56785193D01*
X170433373Y-56740925D01*
X169804533Y-56112086D01*
X169814315Y-56110680D01*
X169945100Y-56050952D01*
X170053761Y-55956798D01*
X170131493Y-55835844D01*
X170155076Y-55755524D01*
X170786925Y-56387373D01*
X170786926Y-56387373D01*
X170845598Y-56303582D01*
X170845600Y-56303578D01*
X170945429Y-56089492D01*
X170945433Y-56089483D01*
X171006567Y-55861326D01*
X171006569Y-55861315D01*
X171027157Y-55626001D01*
X171027157Y-55625998D01*
X171006569Y-55390684D01*
X171006567Y-55390673D01*
X170945433Y-55162516D01*
X170945429Y-55162507D01*
X170845600Y-54948423D01*
X170845599Y-54948421D01*
X170786925Y-54864626D01*
X170786925Y-54864625D01*
X170155076Y-55496475D01*
X170131493Y-55416156D01*
X170053761Y-55295202D01*
X169945100Y-55201048D01*
X169814315Y-55141320D01*
X169804533Y-55139913D01*
X170433373Y-54511073D01*
X170356969Y-54457576D01*
X170313344Y-54402999D01*
X170306150Y-54333501D01*
X170337672Y-54271146D01*
X170356968Y-54254425D01*
X170433373Y-54200925D01*
X169804533Y-53572086D01*
X169814315Y-53570680D01*
X169945100Y-53510952D01*
X170053761Y-53416798D01*
X170131493Y-53295844D01*
X170155076Y-53215524D01*
X170786925Y-53847373D01*
X170786926Y-53847373D01*
X170845598Y-53763582D01*
X170845600Y-53763578D01*
X170945429Y-53549492D01*
X170945433Y-53549483D01*
X171006567Y-53321326D01*
X171006569Y-53321315D01*
X171027157Y-53086001D01*
X171027157Y-53085998D01*
X171006569Y-52850684D01*
X171006567Y-52850673D01*
X170945433Y-52622516D01*
X170945429Y-52622507D01*
X170845600Y-52408423D01*
X170845599Y-52408421D01*
X170786925Y-52324626D01*
X170786925Y-52324625D01*
X170155076Y-52956475D01*
X170131493Y-52876156D01*
X170053761Y-52755202D01*
X169945100Y-52661048D01*
X169814315Y-52601320D01*
X169804533Y-52599913D01*
X170433373Y-51971073D01*
X170356969Y-51917576D01*
X170313344Y-51862999D01*
X170306150Y-51793501D01*
X170337672Y-51731146D01*
X170356968Y-51714425D01*
X170433373Y-51660925D01*
X169804533Y-51032086D01*
X169814315Y-51030680D01*
X169945100Y-50970952D01*
X170053761Y-50876798D01*
X170131493Y-50755844D01*
X170155076Y-50675524D01*
X170786925Y-51307373D01*
X170786926Y-51307373D01*
X170845598Y-51223582D01*
X170845600Y-51223578D01*
X170945429Y-51009492D01*
X170945433Y-51009483D01*
X171006567Y-50781326D01*
X171006569Y-50781315D01*
X171027157Y-50546001D01*
X171027157Y-50545998D01*
X171006569Y-50310684D01*
X171006567Y-50310673D01*
X170945433Y-50082516D01*
X170945429Y-50082507D01*
X170845600Y-49868423D01*
X170845599Y-49868421D01*
X170786925Y-49784626D01*
X170786925Y-49784625D01*
X170155076Y-50416475D01*
X170131493Y-50336156D01*
X170053761Y-50215202D01*
X169945100Y-50121048D01*
X169814315Y-50061320D01*
X169804533Y-50059913D01*
X170434721Y-49429725D01*
X170447466Y-49366308D01*
X170496082Y-49316125D01*
X170557228Y-49300000D01*
X171781352Y-49300000D01*
X171848391Y-49319685D01*
G37*
%TD.AperFunction*%
%TA.AperFunction,Conductor*%
G36*
X169212507Y-53295844D02*
G01*
X169290239Y-53416798D01*
X169398900Y-53510952D01*
X169529685Y-53570680D01*
X169539466Y-53572086D01*
X168910625Y-54200925D01*
X168987031Y-54254425D01*
X169030655Y-54309002D01*
X169037848Y-54378501D01*
X169006326Y-54440855D01*
X168987029Y-54457576D01*
X168910625Y-54511072D01*
X169539466Y-55139913D01*
X169529685Y-55141320D01*
X169398900Y-55201048D01*
X169290239Y-55295202D01*
X169212507Y-55416156D01*
X169188923Y-55496475D01*
X168557073Y-54864625D01*
X168557072Y-54864626D01*
X168503574Y-54941030D01*
X168448998Y-54984655D01*
X168379499Y-54991849D01*
X168317144Y-54960326D01*
X168300424Y-54941030D01*
X168246925Y-54864626D01*
X168246925Y-54864625D01*
X167615076Y-55496475D01*
X167591493Y-55416156D01*
X167513761Y-55295202D01*
X167405100Y-55201048D01*
X167274315Y-55141320D01*
X167264533Y-55139913D01*
X167893373Y-54511073D01*
X167816969Y-54457576D01*
X167773344Y-54402999D01*
X167766150Y-54333501D01*
X167797672Y-54271146D01*
X167816968Y-54254425D01*
X167893373Y-54200925D01*
X167264533Y-53572086D01*
X167274315Y-53570680D01*
X167405100Y-53510952D01*
X167513761Y-53416798D01*
X167591493Y-53295844D01*
X167615076Y-53215524D01*
X168246925Y-53847373D01*
X168300425Y-53770968D01*
X168355002Y-53727344D01*
X168424501Y-53720151D01*
X168486855Y-53751673D01*
X168503576Y-53770969D01*
X168557073Y-53847372D01*
X169188922Y-53215523D01*
X169212507Y-53295844D01*
G37*
%TD.AperFunction*%
%TA.AperFunction,Conductor*%
G36*
X169212507Y-50755844D02*
G01*
X169290239Y-50876798D01*
X169398900Y-50970952D01*
X169529685Y-51030680D01*
X169539466Y-51032086D01*
X168910625Y-51660925D01*
X168987031Y-51714425D01*
X169030655Y-51769002D01*
X169037848Y-51838501D01*
X169006326Y-51900855D01*
X168987029Y-51917576D01*
X168910625Y-51971072D01*
X169539466Y-52599913D01*
X169529685Y-52601320D01*
X169398900Y-52661048D01*
X169290239Y-52755202D01*
X169212507Y-52876156D01*
X169188923Y-52956475D01*
X168557073Y-52324625D01*
X168557072Y-52324626D01*
X168503574Y-52401030D01*
X168448998Y-52444655D01*
X168379499Y-52451849D01*
X168317144Y-52420326D01*
X168300424Y-52401030D01*
X168246925Y-52324626D01*
X168246925Y-52324625D01*
X167615076Y-52956475D01*
X167591493Y-52876156D01*
X167513761Y-52755202D01*
X167405100Y-52661048D01*
X167274315Y-52601320D01*
X167264533Y-52599913D01*
X167893373Y-51971073D01*
X167816969Y-51917576D01*
X167773344Y-51862999D01*
X167766150Y-51793501D01*
X167797672Y-51731146D01*
X167816968Y-51714425D01*
X167893373Y-51660925D01*
X167264533Y-51032086D01*
X167274315Y-51030680D01*
X167405100Y-50970952D01*
X167513761Y-50876798D01*
X167591493Y-50755844D01*
X167615076Y-50675524D01*
X168246925Y-51307373D01*
X168300425Y-51230968D01*
X168355002Y-51187344D01*
X168424501Y-51180151D01*
X168486855Y-51211673D01*
X168503576Y-51230969D01*
X168557073Y-51307372D01*
X169188922Y-50675523D01*
X169212507Y-50755844D01*
G37*
%TD.AperFunction*%
%TA.AperFunction,Conductor*%
G36*
X168853810Y-49319685D02*
G01*
X168899565Y-49372489D01*
X168909453Y-49429900D01*
X169539466Y-50059913D01*
X169529685Y-50061320D01*
X169398900Y-50121048D01*
X169290239Y-50215202D01*
X169212507Y-50336156D01*
X169188923Y-50416475D01*
X168557073Y-49784625D01*
X168557072Y-49784626D01*
X168503574Y-49861030D01*
X168448998Y-49904655D01*
X168379499Y-49911849D01*
X168317144Y-49880326D01*
X168300424Y-49861030D01*
X168246925Y-49784626D01*
X168246925Y-49784625D01*
X167615076Y-50416475D01*
X167591493Y-50336156D01*
X167513761Y-50215202D01*
X167405100Y-50121048D01*
X167274315Y-50061320D01*
X167264533Y-50059913D01*
X167894721Y-49429725D01*
X167907466Y-49366308D01*
X167956082Y-49316125D01*
X168017228Y-49300000D01*
X168786771Y-49300000D01*
X168853810Y-49319685D01*
G37*
%TD.AperFunction*%
%TD*%
%TA.AperFunction,Conductor*%
%TO.N,GP18*%
G36*
X182164326Y-115753144D02*
G01*
X182164689Y-115753933D01*
X182465134Y-116476910D01*
X182465144Y-116485863D01*
X182465135Y-116485885D01*
X182465134Y-116485890D01*
X182164060Y-117210379D01*
X182157721Y-117216704D01*
X182149477Y-117216962D01*
X180894727Y-116788703D01*
X180888004Y-116782787D01*
X180886806Y-116777630D01*
X180886806Y-116393194D01*
X180890233Y-116384921D01*
X180893225Y-116382753D01*
X182148608Y-115747981D01*
X182157535Y-115747307D01*
X182164326Y-115753144D01*
G37*
%TD.AperFunction*%
%TD*%
%TA.AperFunction,Conductor*%
%TO.N,GP18*%
G36*
X178572298Y-115058996D02*
G01*
X178572308Y-115059000D01*
X179848152Y-115590600D01*
X179854471Y-115596945D01*
X179855352Y-115601400D01*
X179855352Y-115985799D01*
X179851925Y-115994072D01*
X179848152Y-115996599D01*
X178572308Y-116528199D01*
X178563353Y-116528218D01*
X178557009Y-116521900D01*
X178256216Y-115798087D01*
X178256206Y-115789138D01*
X178557005Y-115065308D01*
X178563343Y-115058985D01*
X178572298Y-115058996D01*
G37*
%TD.AperFunction*%
%TD*%
%TA.AperFunction,Conductor*%
%TO.N,-12V*%
G36*
X188926627Y-119610285D02*
G01*
X188928283Y-119611658D01*
X189484707Y-120166693D01*
X190039741Y-120723116D01*
X190043158Y-120731394D01*
X190039721Y-120739662D01*
X190038065Y-120741035D01*
X188714196Y-121646839D01*
X188705433Y-121648683D01*
X188699316Y-121645456D01*
X188005943Y-120952083D01*
X188002516Y-120943810D01*
X188004560Y-120937203D01*
X188138780Y-120741035D01*
X188910366Y-119613332D01*
X188917864Y-119608441D01*
X188926627Y-119610285D01*
G37*
%TD.AperFunction*%
%TD*%
%TA.AperFunction,Conductor*%
%TO.N,-12V*%
G36*
X176246035Y-130600543D02*
G01*
X176939408Y-131293916D01*
X176942835Y-131302189D01*
X176940791Y-131308796D01*
X176034987Y-132632665D01*
X176027487Y-132637558D01*
X176018724Y-132635714D01*
X176017068Y-132634341D01*
X175460645Y-132079307D01*
X174905610Y-131522883D01*
X174902193Y-131514605D01*
X174905630Y-131506337D01*
X174907277Y-131504970D01*
X176231155Y-130599159D01*
X176239918Y-130597316D01*
X176246035Y-130600543D01*
G37*
%TD.AperFunction*%
%TD*%
%TA.AperFunction,Conductor*%
%TO.N,Net-(O3D-+)*%
G36*
X184776510Y-122300205D02*
G01*
X184782660Y-122306444D01*
X184968712Y-122753278D01*
X184968729Y-122762232D01*
X184968712Y-122762272D01*
X184782154Y-123210321D01*
X184775810Y-123216642D01*
X184768398Y-123217145D01*
X183988997Y-123013682D01*
X183981857Y-123008276D01*
X183980252Y-123002361D01*
X183980252Y-122619354D01*
X183983679Y-122611081D01*
X183987645Y-122608476D01*
X184767556Y-122300061D01*
X184776510Y-122300205D01*
G37*
%TD.AperFunction*%
%TD*%
%TA.AperFunction,Conductor*%
%TO.N,Net-(O3D-+)*%
G36*
X180287813Y-122225328D02*
G01*
X180288528Y-122225655D01*
X181053784Y-122608166D01*
X181059652Y-122614930D01*
X181060253Y-122618631D01*
X181060253Y-123001570D01*
X181056826Y-123009843D01*
X181050571Y-123013095D01*
X180099682Y-123179602D01*
X180090942Y-123177653D01*
X180086139Y-123170095D01*
X180085964Y-123168100D01*
X180085654Y-123013095D01*
X180084996Y-122684345D01*
X180085894Y-122679833D01*
X180272516Y-122231630D01*
X180278859Y-122225311D01*
X180287813Y-122225328D01*
G37*
%TD.AperFunction*%
%TD*%
%TA.AperFunction,Conductor*%
%TO.N,Net-(O3C-+)*%
G36*
X188501259Y-116357577D02*
G01*
X189779318Y-116883836D01*
X189785662Y-116890155D01*
X189785681Y-116899110D01*
X189785677Y-116899120D01*
X189486562Y-117623612D01*
X189480237Y-117629951D01*
X189480212Y-117629962D01*
X188755720Y-117929077D01*
X188746765Y-117929066D01*
X188740441Y-117922728D01*
X188214178Y-116644661D01*
X188214197Y-116635708D01*
X188216721Y-116631938D01*
X188488536Y-116360123D01*
X188496808Y-116356697D01*
X188501259Y-116357577D01*
G37*
%TD.AperFunction*%
%TD*%
%TA.AperFunction,Conductor*%
%TO.N,Net-(O3C-+)*%
G36*
X178261876Y-110715892D02*
G01*
X178985034Y-111015839D01*
X178991362Y-111022173D01*
X178991867Y-111029614D01*
X178728947Y-112031856D01*
X178725903Y-112037160D01*
X178454981Y-112308082D01*
X178446708Y-112311509D01*
X178438435Y-112308082D01*
X178437252Y-112306699D01*
X177695541Y-111287358D01*
X177693446Y-111278654D01*
X177696718Y-111272215D01*
X178249116Y-110718435D01*
X178257381Y-110715000D01*
X178261876Y-110715892D01*
G37*
%TD.AperFunction*%
%TD*%
%TA.AperFunction,Conductor*%
%TO.N,Net-(O5D-+)*%
G36*
X176511072Y-127458922D02*
G01*
X177235564Y-127758037D01*
X177241903Y-127764362D01*
X177241914Y-127764387D01*
X177541029Y-128488879D01*
X177541018Y-128497834D01*
X177534679Y-128504159D01*
X177534669Y-128504163D01*
X176256615Y-129030421D01*
X176247660Y-129030402D01*
X176243887Y-129027875D01*
X175972076Y-128756064D01*
X175968649Y-128747791D01*
X175969529Y-128743340D01*
X176495789Y-127465280D01*
X176502107Y-127458937D01*
X176511062Y-127458918D01*
X176511072Y-127458922D01*
G37*
%TD.AperFunction*%
%TD*%
%TA.AperFunction,Conductor*%
%TO.N,Net-(O5D-+)*%
G36*
X173913043Y-130808797D02*
G01*
X173916816Y-130811324D01*
X174188627Y-131083135D01*
X174192054Y-131091408D01*
X174191173Y-131095863D01*
X173664915Y-132373917D01*
X173658596Y-132380262D01*
X173649641Y-132380281D01*
X173649631Y-132380277D01*
X172925139Y-132081162D01*
X172918800Y-132074837D01*
X172918789Y-132074812D01*
X172619674Y-131350320D01*
X172619685Y-131341365D01*
X172626022Y-131335041D01*
X173904090Y-130808778D01*
X173913043Y-130808797D01*
G37*
%TD.AperFunction*%
%TD*%
%TA.AperFunction,Conductor*%
%TO.N,GP26*%
G36*
X183457691Y-97431597D02*
G01*
X183461464Y-97434124D01*
X183733275Y-97705935D01*
X183736702Y-97714208D01*
X183735821Y-97718663D01*
X183209563Y-98996717D01*
X183203244Y-99003062D01*
X183194289Y-99003081D01*
X183194279Y-99003077D01*
X182469787Y-98703962D01*
X182463448Y-98697637D01*
X182463437Y-98697612D01*
X182164322Y-97973120D01*
X182164333Y-97964165D01*
X182170670Y-97957841D01*
X183448738Y-97431578D01*
X183457691Y-97431597D01*
G37*
%TD.AperFunction*%
%TD*%
%TA.AperFunction,Conductor*%
%TO.N,GP26*%
G36*
X184858657Y-80247445D02*
G01*
X184861083Y-80250982D01*
X185203359Y-81024181D01*
X185203574Y-81033133D01*
X185197396Y-81039616D01*
X185197157Y-81039718D01*
X184750759Y-81225589D01*
X184741805Y-81225606D01*
X184741765Y-81225589D01*
X184293349Y-81038878D01*
X184287028Y-81032534D01*
X184286418Y-81025571D01*
X184455982Y-80253208D01*
X184461103Y-80245863D01*
X184467410Y-80244018D01*
X184850384Y-80244018D01*
X184858657Y-80247445D01*
G37*
%TD.AperFunction*%
%TD*%
%TA.AperFunction,Conductor*%
%TO.N,GP26*%
G36*
X184666268Y-70390678D02*
G01*
X184666278Y-70390688D01*
X185450833Y-71176224D01*
X185454255Y-71184499D01*
X185451915Y-71191512D01*
X184861510Y-71978720D01*
X184853805Y-71983282D01*
X184852150Y-71983400D01*
X184463850Y-71983400D01*
X184455577Y-71979973D01*
X184454490Y-71978720D01*
X183864084Y-71191512D01*
X183861862Y-71182837D01*
X183865164Y-71176226D01*
X184649722Y-70390687D01*
X184657993Y-70387256D01*
X184666268Y-70390678D01*
G37*
%TD.AperFunction*%
%TD*%
%TA.AperFunction,Conductor*%
%TO.N,GP26*%
G36*
X177051162Y-98316077D02*
G01*
X177114991Y-98324209D01*
X178495487Y-98500097D01*
X178503259Y-98504542D01*
X178505707Y-98511703D01*
X178505707Y-98896044D01*
X178502280Y-98904317D01*
X178501652Y-98904900D01*
X177611907Y-99672986D01*
X177603406Y-99675799D01*
X177595996Y-99672410D01*
X177040440Y-99117834D01*
X177037006Y-99109564D01*
X177037006Y-99109539D01*
X177037262Y-98904900D01*
X177037983Y-98327666D01*
X177041420Y-98319400D01*
X177049698Y-98315983D01*
X177051162Y-98316077D01*
G37*
%TD.AperFunction*%
%TD*%
%TA.AperFunction,Conductor*%
%TO.N,GP26*%
G36*
X182164343Y-97973100D02*
G01*
X182164347Y-97973110D01*
X182465134Y-98696910D01*
X182465144Y-98705863D01*
X182465135Y-98705885D01*
X182465134Y-98705890D01*
X182164347Y-99429689D01*
X182158008Y-99436014D01*
X182149053Y-99436003D01*
X182149043Y-99435999D01*
X180873200Y-98904399D01*
X180866881Y-98898054D01*
X180866000Y-98893599D01*
X180866000Y-98509200D01*
X180869427Y-98500927D01*
X180873200Y-98498400D01*
X182149043Y-97966800D01*
X182157998Y-97966781D01*
X182164343Y-97973100D01*
G37*
%TD.AperFunction*%
%TD*%
%TA.AperFunction,Conductor*%
%TO.N,GP26*%
G36*
X184208683Y-84533759D02*
G01*
X184655833Y-84718007D01*
X184659655Y-84720560D01*
X185001536Y-85063408D01*
X185004951Y-85071685D01*
X185001512Y-85079953D01*
X184999785Y-85081374D01*
X184361543Y-85511040D01*
X184355009Y-85513034D01*
X183973439Y-85513034D01*
X183965166Y-85509607D01*
X183961739Y-85501334D01*
X183962065Y-85498590D01*
X184192857Y-84541834D01*
X184198129Y-84534596D01*
X184206975Y-84533205D01*
X184208683Y-84533759D01*
G37*
%TD.AperFunction*%
%TD*%
%TA.AperFunction,Conductor*%
%TO.N,Net-(O1A--)*%
G36*
X188486036Y-79039608D02*
G01*
X189225882Y-79417421D01*
X189231692Y-79424236D01*
X189231379Y-79432298D01*
X189046709Y-79880469D01*
X189040388Y-79886813D01*
X189040348Y-79886830D01*
X188592177Y-80071500D01*
X188583223Y-80071483D01*
X188577301Y-80066003D01*
X188199487Y-79326158D01*
X188198777Y-79317233D01*
X188201633Y-79312567D01*
X188472445Y-79041755D01*
X188480717Y-79038329D01*
X188486036Y-79039608D01*
G37*
%TD.AperFunction*%
%TD*%
%TA.AperFunction,Conductor*%
%TO.N,Net-(O1A--)*%
G36*
X188783324Y-87934094D02*
G01*
X188788804Y-87940017D01*
X188975127Y-88387503D01*
X188975144Y-88396457D01*
X188975127Y-88396497D01*
X188788804Y-88843982D01*
X188782460Y-88850303D01*
X188774398Y-88850616D01*
X187984095Y-88594622D01*
X187977280Y-88588812D01*
X187976000Y-88583491D01*
X187976000Y-88200508D01*
X187979427Y-88192235D01*
X187984091Y-88189378D01*
X188774399Y-87933383D01*
X188783324Y-87934094D01*
G37*
%TD.AperFunction*%
%TD*%
%TA.AperFunction,Conductor*%
%TO.N,Net-(O1A--)*%
G36*
X185009382Y-97321998D02*
G01*
X185011724Y-97325350D01*
X185368820Y-98095615D01*
X185369190Y-98104562D01*
X185363126Y-98111151D01*
X185362702Y-98111337D01*
X184916497Y-98297127D01*
X184907543Y-98297144D01*
X184907503Y-98297127D01*
X184644957Y-98187809D01*
X184458925Y-98110349D01*
X184452605Y-98104006D01*
X184451953Y-98097245D01*
X184606692Y-97327964D01*
X184611683Y-97320529D01*
X184618162Y-97318571D01*
X185001109Y-97318571D01*
X185009382Y-97321998D01*
G37*
%TD.AperFunction*%
%TD*%
%TA.AperFunction,Conductor*%
%TO.N,Net-(O1A--)*%
G36*
X185395234Y-67541733D02*
G01*
X185401559Y-67548072D01*
X185401563Y-67548082D01*
X185927821Y-68826136D01*
X185927802Y-68835091D01*
X185925275Y-68838864D01*
X185653464Y-69110675D01*
X185645191Y-69114102D01*
X185640736Y-69113221D01*
X184961047Y-68833349D01*
X184362682Y-68586963D01*
X184356337Y-68580644D01*
X184356318Y-68571689D01*
X184356322Y-68571679D01*
X184655438Y-67847185D01*
X184661762Y-67840848D01*
X184661764Y-67840846D01*
X185386279Y-67541722D01*
X185395234Y-67541733D01*
G37*
%TD.AperFunction*%
%TD*%
%TA.AperFunction,Conductor*%
%TO.N,Net-(O3A--)*%
G36*
X190307810Y-129720593D02*
G01*
X190310174Y-129722418D01*
X190580510Y-129992754D01*
X190583189Y-129996911D01*
X190980755Y-131054683D01*
X190981124Y-131055663D01*
X190980827Y-131064613D01*
X190974655Y-131070586D01*
X190249780Y-131371245D01*
X190240825Y-131371250D01*
X190240807Y-131371242D01*
X189519273Y-131071396D01*
X189512948Y-131065057D01*
X189512959Y-131056102D01*
X189513660Y-131054691D01*
X190291803Y-129724781D01*
X190298938Y-129719372D01*
X190307810Y-129720593D01*
G37*
%TD.AperFunction*%
%TD*%
%TA.AperFunction,Conductor*%
%TO.N,Net-(O3A--)*%
G36*
X196802343Y-124519100D02*
G01*
X196802347Y-124519110D01*
X197103134Y-125242910D01*
X197103144Y-125251863D01*
X197103135Y-125251885D01*
X197103134Y-125251890D01*
X196802347Y-125975689D01*
X196796008Y-125982014D01*
X196787053Y-125982003D01*
X196787043Y-125981999D01*
X195511200Y-125450399D01*
X195504881Y-125444054D01*
X195504000Y-125439599D01*
X195504000Y-125055200D01*
X195507427Y-125046927D01*
X195511200Y-125044400D01*
X196787043Y-124512800D01*
X196795998Y-124512781D01*
X196802343Y-124519100D01*
G37*
%TD.AperFunction*%
%TD*%
%TA.AperFunction,Conductor*%
%TO.N,Net-(O3D--)*%
G36*
X189182343Y-124519100D02*
G01*
X189182347Y-124519110D01*
X189483134Y-125242910D01*
X189483144Y-125251863D01*
X189483135Y-125251885D01*
X189483134Y-125251890D01*
X189182347Y-125975689D01*
X189176008Y-125982014D01*
X189167053Y-125982003D01*
X189167043Y-125981999D01*
X187891200Y-125450399D01*
X187884881Y-125444054D01*
X187884000Y-125439599D01*
X187884000Y-125055200D01*
X187887427Y-125046927D01*
X187891200Y-125044400D01*
X189167043Y-124512800D01*
X189175998Y-124512781D01*
X189182343Y-124519100D01*
G37*
%TD.AperFunction*%
%TD*%
%TA.AperFunction,Conductor*%
%TO.N,Net-(O3D--)*%
G36*
X186752946Y-124512796D02*
G01*
X186752956Y-124512800D01*
X188028800Y-125044400D01*
X188035119Y-125050745D01*
X188036000Y-125055200D01*
X188036000Y-125439599D01*
X188032573Y-125447872D01*
X188028800Y-125450399D01*
X186752956Y-125981999D01*
X186744001Y-125982018D01*
X186737657Y-125975700D01*
X186436864Y-125251887D01*
X186436854Y-125242938D01*
X186737653Y-124519108D01*
X186743991Y-124512785D01*
X186752946Y-124512796D01*
G37*
%TD.AperFunction*%
%TD*%
%TA.AperFunction,Conductor*%
%TO.N,Net-(O3D--)*%
G36*
X187164290Y-125549053D02*
G01*
X187170614Y-125555391D01*
X187170603Y-125564346D01*
X187170599Y-125564356D01*
X186639000Y-126840200D01*
X186632655Y-126846519D01*
X186628200Y-126847400D01*
X186243800Y-126847400D01*
X186235527Y-126843973D01*
X186233000Y-126840200D01*
X185701400Y-125564356D01*
X185701381Y-125555401D01*
X185707697Y-125549058D01*
X186431512Y-125248264D01*
X186440461Y-125248254D01*
X187164290Y-125549053D01*
G37*
%TD.AperFunction*%
%TD*%
%TA.AperFunction,Conductor*%
%TO.N,Net-(O3D--)*%
G36*
X186636473Y-126698827D02*
G01*
X186639000Y-126702600D01*
X187170599Y-127978443D01*
X187170618Y-127987398D01*
X187164299Y-127993743D01*
X187164289Y-127993747D01*
X186440490Y-128294534D01*
X186431536Y-128294544D01*
X185707709Y-127993746D01*
X185701385Y-127987408D01*
X185701396Y-127978453D01*
X185701400Y-127978443D01*
X186233000Y-126702600D01*
X186239345Y-126696281D01*
X186243800Y-126695400D01*
X186628200Y-126695400D01*
X186636473Y-126698827D01*
G37*
%TD.AperFunction*%
%TD*%
%TA.AperFunction,Conductor*%
%TO.N,Net-(O5C--)*%
G36*
X169595258Y-133907978D02*
G01*
X169602072Y-133913787D01*
X169603352Y-133919108D01*
X169603352Y-134302091D01*
X169599925Y-134310364D01*
X169595257Y-134313222D01*
X168804953Y-134569216D01*
X168796027Y-134568505D01*
X168790548Y-134562583D01*
X168604223Y-134115095D01*
X168604207Y-134106144D01*
X168790548Y-133658615D01*
X168796891Y-133652296D01*
X168804953Y-133651983D01*
X169595258Y-133907978D01*
G37*
%TD.AperFunction*%
%TD*%
%TA.AperFunction,Conductor*%
%TO.N,Net-(O5C--)*%
G36*
X179813072Y-131776922D02*
G01*
X180537564Y-132076037D01*
X180543903Y-132082362D01*
X180543914Y-132082387D01*
X180843029Y-132806879D01*
X180843018Y-132815834D01*
X180836679Y-132822159D01*
X180836669Y-132822163D01*
X179558615Y-133348421D01*
X179549660Y-133348402D01*
X179545887Y-133345875D01*
X179274076Y-133074064D01*
X179270649Y-133065791D01*
X179271529Y-133061340D01*
X179797789Y-131783280D01*
X179804107Y-131776937D01*
X179813062Y-131776918D01*
X179813072Y-131776922D01*
G37*
%TD.AperFunction*%
%TD*%
%TA.AperFunction,Conductor*%
%TO.N,Net-(O5D--)*%
G36*
X171242573Y-130721835D02*
G01*
X171514387Y-130993649D01*
X171517814Y-131001922D01*
X171517358Y-131005157D01*
X171124073Y-132372174D01*
X171118492Y-132379177D01*
X171109594Y-132380183D01*
X171108364Y-132379754D01*
X170385139Y-132081162D01*
X170378800Y-132074837D01*
X170378789Y-132074812D01*
X170079238Y-131349265D01*
X170079249Y-131340310D01*
X170084514Y-131334495D01*
X171228764Y-130719800D01*
X171237673Y-130718905D01*
X171242573Y-130721835D01*
G37*
%TD.AperFunction*%
%TD*%
%TA.AperFunction,Conductor*%
%TO.N,Net-(O5D--)*%
G36*
X172955072Y-128249922D02*
G01*
X173679564Y-128549037D01*
X173685903Y-128555362D01*
X173685914Y-128555387D01*
X173985029Y-129279879D01*
X173985018Y-129288834D01*
X173978679Y-129295159D01*
X173978669Y-129295163D01*
X172700615Y-129821421D01*
X172691660Y-129821402D01*
X172687887Y-129818875D01*
X172416076Y-129547064D01*
X172412649Y-129538791D01*
X172413529Y-129534340D01*
X172939789Y-128256280D01*
X172946107Y-128249937D01*
X172955062Y-128249918D01*
X172955072Y-128249922D01*
G37*
%TD.AperFunction*%
%TD*%
%TA.AperFunction,Conductor*%
%TO.N,CK1*%
G36*
X167023134Y-81007037D02*
G01*
X167025992Y-81011705D01*
X167281986Y-81802008D01*
X167281275Y-81810934D01*
X167275352Y-81816414D01*
X166827867Y-82002737D01*
X166818913Y-82002754D01*
X166818873Y-82002737D01*
X166371387Y-81816414D01*
X166365066Y-81810070D01*
X166364753Y-81802008D01*
X166620748Y-81011705D01*
X166626558Y-81004890D01*
X166631879Y-81003610D01*
X167014861Y-81003610D01*
X167023134Y-81007037D01*
G37*
%TD.AperFunction*%
%TD*%
%TA.AperFunction,Conductor*%
%TO.N,CK1*%
G36*
X165121343Y-73339233D02*
G01*
X165127668Y-73345572D01*
X165127707Y-73345667D01*
X165678613Y-74713485D01*
X165678525Y-74722439D01*
X165676033Y-74726129D01*
X165404129Y-74998033D01*
X165395856Y-75001460D01*
X165391485Y-75000613D01*
X164023667Y-74449707D01*
X164017273Y-74443437D01*
X164017185Y-74434483D01*
X164017224Y-74434388D01*
X164335438Y-73663783D01*
X164341759Y-73657448D01*
X165112388Y-73339224D01*
X165121343Y-73339233D01*
G37*
%TD.AperFunction*%
%TD*%
%TA.AperFunction,Conductor*%
%TO.N,CK2*%
G36*
X92719948Y-61086985D02*
G01*
X92728215Y-61090421D01*
X92731633Y-61098698D01*
X92731593Y-61099657D01*
X92583542Y-62876272D01*
X92579440Y-62884232D01*
X92571882Y-62887000D01*
X91093414Y-62887000D01*
X91085141Y-62883573D01*
X91081754Y-62876272D01*
X90933702Y-61099655D01*
X90936430Y-61091127D01*
X90944390Y-61087025D01*
X90945327Y-61086985D01*
X91832648Y-61086000D01*
X92719948Y-61086985D01*
G37*
%TD.AperFunction*%
%TD*%
%TA.AperFunction,Conductor*%
%TO.N,CK2*%
G36*
X83983339Y-75077090D02*
G01*
X83985808Y-75078976D01*
X85030312Y-76123480D01*
X85033739Y-76131753D01*
X85030312Y-76140026D01*
X85027378Y-76142164D01*
X83394561Y-76979513D01*
X83385636Y-76980239D01*
X83378811Y-76974441D01*
X83378417Y-76973591D01*
X83057293Y-76200707D01*
X82737782Y-75426964D01*
X82737791Y-75418009D01*
X82744130Y-75411684D01*
X82745505Y-75411213D01*
X83974458Y-75075961D01*
X83983339Y-75077090D01*
G37*
%TD.AperFunction*%
%TD*%
%TA.AperFunction,Conductor*%
%TO.N,CJ2*%
G36*
X192339324Y-103936094D02*
G01*
X192344804Y-103942017D01*
X192531127Y-104389503D01*
X192531144Y-104398457D01*
X192531127Y-104398497D01*
X192344804Y-104845982D01*
X192338460Y-104852303D01*
X192330398Y-104852616D01*
X191540095Y-104596622D01*
X191533280Y-104590812D01*
X191532000Y-104585491D01*
X191532000Y-104202508D01*
X191535427Y-104194235D01*
X191540091Y-104191378D01*
X192330399Y-103935383D01*
X192339324Y-103936094D01*
G37*
%TD.AperFunction*%
%TD*%
%TA.AperFunction,Conductor*%
%TO.N,CJ2*%
G36*
X180356242Y-101803769D02*
G01*
X180361827Y-101808620D01*
X180669348Y-102328645D01*
X180670977Y-102334600D01*
X180670977Y-102715862D01*
X180667550Y-102724135D01*
X180659277Y-102727562D01*
X180656044Y-102727106D01*
X179715946Y-102456782D01*
X179708942Y-102451203D01*
X179707935Y-102442305D01*
X179708356Y-102441094D01*
X179891870Y-101995724D01*
X179898188Y-101989383D01*
X180347287Y-101803762D01*
X180356242Y-101803769D01*
G37*
%TD.AperFunction*%
%TD*%
%TA.AperFunction,Conductor*%
%TO.N,CJ3*%
G36*
X164673547Y-90660485D02*
G01*
X164674737Y-90661060D01*
X166099294Y-91451737D01*
X166104864Y-91458746D01*
X166103845Y-91467643D01*
X166101888Y-91470238D01*
X165831666Y-91740461D01*
X165827870Y-91742998D01*
X164674084Y-92220823D01*
X164665129Y-92220822D01*
X164658800Y-92214495D01*
X164339152Y-91443777D01*
X164339149Y-91434825D01*
X164658254Y-90666799D01*
X164664592Y-90660476D01*
X164673547Y-90660485D01*
G37*
%TD.AperFunction*%
%TD*%
%TA.AperFunction,Conductor*%
%TO.N,CJ3*%
G36*
X183398051Y-131344594D02*
G01*
X183398642Y-131344859D01*
X184515878Y-131882576D01*
X184519077Y-131884845D01*
X184788643Y-132154411D01*
X184792070Y-132162684D01*
X184788643Y-132170957D01*
X184785268Y-132173309D01*
X183398536Y-132812615D01*
X183389589Y-132812967D01*
X183383013Y-132806888D01*
X183382846Y-132806508D01*
X183082509Y-132083792D01*
X183082498Y-132074839D01*
X183382761Y-131350917D01*
X183389096Y-131344589D01*
X183398051Y-131344594D01*
G37*
%TD.AperFunction*%
%TD*%
%TA.AperFunction,Conductor*%
%TO.N,CJ4*%
G36*
X165120278Y-88579672D02*
G01*
X165126603Y-88586011D01*
X165127000Y-88587131D01*
X165187012Y-88788320D01*
X165187500Y-88791661D01*
X165187500Y-89313812D01*
X165186524Y-89318490D01*
X165176090Y-89342406D01*
X165176089Y-89342408D01*
X165174318Y-89358127D01*
X165173735Y-89360681D01*
X165168511Y-89375608D01*
X165168511Y-89375610D01*
X165166608Y-89426419D01*
X165166575Y-89426855D01*
X165160884Y-89477350D01*
X165160885Y-89477358D01*
X165163824Y-89492895D01*
X165164020Y-89495507D01*
X165163428Y-89511319D01*
X165163429Y-89511322D01*
X165176584Y-89560422D01*
X165176681Y-89560849D01*
X165186131Y-89610791D01*
X165186133Y-89610798D01*
X165193523Y-89624780D01*
X165194480Y-89627218D01*
X165198575Y-89642498D01*
X165198575Y-89642499D01*
X165225619Y-89685543D01*
X165225838Y-89685921D01*
X165249589Y-89730860D01*
X165249590Y-89730861D01*
X165260774Y-89742045D01*
X165262408Y-89744093D01*
X165270826Y-89757490D01*
X165270827Y-89757491D01*
X165309351Y-89790645D01*
X165309671Y-89790942D01*
X165552141Y-90033412D01*
X165555568Y-90041685D01*
X165552141Y-90049958D01*
X165283913Y-90318187D01*
X165275640Y-90321614D01*
X165270367Y-90320358D01*
X164022396Y-89690184D01*
X164016557Y-89683397D01*
X164016856Y-89675277D01*
X164335438Y-88903783D01*
X164341759Y-88897448D01*
X165111325Y-88579663D01*
X165120278Y-88579672D01*
G37*
%TD.AperFunction*%
%TD*%
%TA.AperFunction,Conductor*%
%TO.N,CJ4*%
G36*
X190802256Y-127313804D02*
G01*
X190807560Y-127316848D01*
X191078482Y-127587770D01*
X191081909Y-127596043D01*
X191078482Y-127604316D01*
X191077093Y-127605504D01*
X190057760Y-128347209D01*
X190049054Y-128349305D01*
X190042613Y-128346031D01*
X189488836Y-127793636D01*
X189485400Y-127785370D01*
X189486292Y-127780876D01*
X189786239Y-127057716D01*
X189792573Y-127051389D01*
X189800012Y-127050884D01*
X190802256Y-127313804D01*
G37*
%TD.AperFunction*%
%TD*%
%TA.AperFunction,Conductor*%
%TO.N,CJ5*%
G36*
X83667185Y-85765301D02*
G01*
X84952133Y-86765937D01*
X84956555Y-86773724D01*
X84954175Y-86782357D01*
X84953217Y-86783441D01*
X83908332Y-87828326D01*
X83900059Y-87831753D01*
X83894116Y-87830131D01*
X82741465Y-87150455D01*
X82736079Y-87143301D01*
X82736593Y-87135914D01*
X83056401Y-86361452D01*
X83058948Y-86357641D01*
X83651734Y-85766248D01*
X83660010Y-85762832D01*
X83667185Y-85765301D01*
G37*
%TD.AperFunction*%
%TD*%
%TA.AperFunction,Conductor*%
%TO.N,CJ5*%
G36*
X165121343Y-86039233D02*
G01*
X165127668Y-86045572D01*
X165127707Y-86045667D01*
X165678613Y-87413485D01*
X165678525Y-87422439D01*
X165676033Y-87426129D01*
X165404129Y-87698033D01*
X165395856Y-87701460D01*
X165391485Y-87700613D01*
X164023667Y-87149707D01*
X164017273Y-87143437D01*
X164017185Y-87134483D01*
X164017224Y-87134388D01*
X164335438Y-86363783D01*
X164341759Y-86357448D01*
X165112388Y-86039224D01*
X165121343Y-86039233D01*
G37*
%TD.AperFunction*%
%TD*%
%TA.AperFunction,Conductor*%
%TO.N,CJ5*%
G36*
X190337259Y-107438577D02*
G01*
X191615318Y-107964836D01*
X191621662Y-107971155D01*
X191621681Y-107980110D01*
X191621677Y-107980120D01*
X191322562Y-108704612D01*
X191316237Y-108710951D01*
X191316212Y-108710962D01*
X190591720Y-109010077D01*
X190582765Y-109010066D01*
X190576441Y-109003728D01*
X190050178Y-107725661D01*
X190050197Y-107716708D01*
X190052721Y-107712938D01*
X190324536Y-107441123D01*
X190332808Y-107437697D01*
X190337259Y-107438577D01*
G37*
%TD.AperFunction*%
%TD*%
%TA.AperFunction,Conductor*%
%TO.N,CJ6*%
G36*
X83071557Y-82972195D02*
G01*
X84166123Y-83149482D01*
X84172524Y-83152757D01*
X85215292Y-84195525D01*
X85218719Y-84203798D01*
X85215292Y-84212071D01*
X85209463Y-84215240D01*
X83392796Y-84603265D01*
X83383989Y-84601642D01*
X83379547Y-84596312D01*
X83058188Y-83822862D01*
X83057294Y-83818370D01*
X83057988Y-82983733D01*
X83061422Y-82975465D01*
X83069698Y-82972045D01*
X83071557Y-82972195D01*
G37*
%TD.AperFunction*%
%TD*%
%TA.AperFunction,Conductor*%
%TO.N,CJ6*%
G36*
X167397053Y-99486089D02*
G01*
X167667862Y-99756898D01*
X167671289Y-99765171D01*
X167670009Y-99770492D01*
X167292197Y-100510336D01*
X167285382Y-100516146D01*
X167277320Y-100515833D01*
X166829149Y-100331163D01*
X166822805Y-100324842D01*
X166638118Y-99876629D01*
X166638135Y-99867677D01*
X166643613Y-99861756D01*
X167383460Y-99483941D01*
X167392385Y-99483231D01*
X167397053Y-99486089D01*
G37*
%TD.AperFunction*%
%TD*%
%TA.AperFunction,Conductor*%
%TO.N,CJ6*%
G36*
X168913381Y-97601365D02*
G01*
X169361555Y-97786037D01*
X169367898Y-97792357D01*
X169367915Y-97792397D01*
X169552585Y-98240568D01*
X169552568Y-98249522D01*
X169547088Y-98255445D01*
X168807244Y-98633257D01*
X168798318Y-98633968D01*
X168793650Y-98631110D01*
X168522841Y-98360301D01*
X168519414Y-98352028D01*
X168520693Y-98346710D01*
X168898507Y-97606861D01*
X168905321Y-97601053D01*
X168913381Y-97601365D01*
G37*
%TD.AperFunction*%
%TD*%
%TA.AperFunction,Conductor*%
%TO.N,CJA*%
G36*
X186750481Y-89628785D02*
G01*
X186757295Y-89634594D01*
X186758575Y-89639915D01*
X186758575Y-90022898D01*
X186755148Y-90031171D01*
X186750480Y-90034029D01*
X185960176Y-90290023D01*
X185951250Y-90289312D01*
X185945771Y-90283390D01*
X185759446Y-89835902D01*
X185759430Y-89826951D01*
X185945771Y-89379422D01*
X185952114Y-89373103D01*
X185960176Y-89372790D01*
X186750481Y-89628785D01*
G37*
%TD.AperFunction*%
%TD*%
%TA.AperFunction,Conductor*%
%TO.N,CJA*%
G36*
X192481890Y-99739341D02*
G01*
X193221736Y-100117154D01*
X193227546Y-100123969D01*
X193227233Y-100132031D01*
X193042563Y-100580202D01*
X193036242Y-100586546D01*
X193036202Y-100586563D01*
X192588031Y-100771233D01*
X192579077Y-100771216D01*
X192573155Y-100765736D01*
X192195341Y-100025891D01*
X192194631Y-100016966D01*
X192197487Y-100012300D01*
X192468299Y-99741488D01*
X192476571Y-99738062D01*
X192481890Y-99739341D01*
G37*
%TD.AperFunction*%
%TD*%
%TA.AperFunction,Conductor*%
%TO.N,CS2*%
G36*
X165177900Y-81279991D02*
G01*
X165186169Y-81283425D01*
X165189465Y-81289993D01*
X165370722Y-82525897D01*
X165368532Y-82534580D01*
X165367419Y-82535868D01*
X165095628Y-82807659D01*
X165087355Y-82811086D01*
X165080706Y-82809013D01*
X163748493Y-81889006D01*
X163743633Y-81881485D01*
X163745515Y-81872730D01*
X163746850Y-81871126D01*
X164333860Y-81282733D01*
X164342128Y-81279297D01*
X165177900Y-81279991D01*
G37*
%TD.AperFunction*%
%TD*%
%TA.AperFunction,Conductor*%
%TO.N,CS2*%
G36*
X190195890Y-86531341D02*
G01*
X190935736Y-86909154D01*
X190941546Y-86915969D01*
X190941233Y-86924031D01*
X190756563Y-87372202D01*
X190750242Y-87378546D01*
X190750202Y-87378563D01*
X190302031Y-87563233D01*
X190293077Y-87563216D01*
X190287155Y-87557736D01*
X189909341Y-86817891D01*
X189908631Y-86808966D01*
X189911487Y-86804300D01*
X190182299Y-86533488D01*
X190190571Y-86530062D01*
X190195890Y-86531341D01*
G37*
%TD.AperFunction*%
%TD*%
%TA.AperFunction,Conductor*%
%TO.N,CS1*%
G36*
X193071158Y-61747297D02*
G01*
X193799096Y-62049803D01*
X193805421Y-62056142D01*
X193806042Y-62063080D01*
X193531995Y-63330415D01*
X193526897Y-63337777D01*
X193520559Y-63339642D01*
X192539938Y-63339642D01*
X192531665Y-63336215D01*
X192528392Y-63329835D01*
X192319183Y-62053547D01*
X192271225Y-61760974D01*
X192273269Y-61752256D01*
X192280878Y-61747536D01*
X192282746Y-61747382D01*
X193066662Y-61746402D01*
X193071158Y-61747297D01*
G37*
%TD.AperFunction*%
%TD*%
%TA.AperFunction,Conductor*%
%TO.N,CS1*%
G36*
X193798070Y-62049377D02*
G01*
X193804394Y-62055715D01*
X193804685Y-62063861D01*
X193389519Y-63316548D01*
X193383663Y-63323323D01*
X193374732Y-63323973D01*
X193370140Y-63321140D01*
X192677455Y-62628455D01*
X192675712Y-62626230D01*
X192336927Y-62065190D01*
X192335584Y-62056336D01*
X192340895Y-62049126D01*
X192342451Y-62048339D01*
X193065220Y-61748553D01*
X193074173Y-61748549D01*
X193798070Y-62049377D01*
G37*
%TD.AperFunction*%
%TD*%
%TA.AperFunction,Conductor*%
%TO.N,CS1*%
G36*
X194810196Y-71958560D02*
G01*
X195432909Y-72384626D01*
X196134065Y-72864364D01*
X196138958Y-72871864D01*
X196137114Y-72880627D01*
X196135741Y-72882283D01*
X195580707Y-73438707D01*
X195024283Y-73993741D01*
X195016005Y-73997158D01*
X195007737Y-73993721D01*
X195006364Y-73992065D01*
X194100560Y-72668196D01*
X194098716Y-72659433D01*
X194101941Y-72653318D01*
X194795317Y-71959942D01*
X194803589Y-71956516D01*
X194810196Y-71958560D01*
G37*
%TD.AperFunction*%
%TD*%
%TA.AperFunction,Conductor*%
%TO.N,CS1*%
G36*
X195278335Y-72709718D02*
G01*
X195278570Y-72710246D01*
X195579808Y-73435131D01*
X195580704Y-73439631D01*
X195580011Y-74225034D01*
X195576577Y-74233304D01*
X195568301Y-74236724D01*
X195567104Y-74236662D01*
X194474940Y-74123352D01*
X194467874Y-74119987D01*
X193775434Y-73427547D01*
X193772007Y-73419274D01*
X193775434Y-73411001D01*
X193778684Y-73408708D01*
X195262750Y-72704166D01*
X195271692Y-72703714D01*
X195278335Y-72709718D01*
G37*
%TD.AperFunction*%
%TD*%
%TA.AperFunction,Conductor*%
%TO.N,CS1*%
G36*
X199518169Y-88239907D02*
G01*
X200242212Y-88538837D01*
X200248551Y-88545162D01*
X200248562Y-88545187D01*
X200547839Y-89270069D01*
X200547828Y-89279024D01*
X200541874Y-89285182D01*
X199313851Y-89844514D01*
X199304901Y-89844824D01*
X199300728Y-89842139D01*
X199028892Y-89570303D01*
X199025465Y-89562030D01*
X199026168Y-89558037D01*
X199502725Y-88246729D01*
X199508769Y-88240127D01*
X199517715Y-88239732D01*
X199518169Y-88239907D01*
G37*
%TD.AperFunction*%
%TD*%
%TA.AperFunction,Conductor*%
%TO.N,CS1*%
G36*
X200240924Y-87745838D02*
G01*
X200245817Y-87753338D01*
X200246017Y-87755479D01*
X200247000Y-88541400D01*
X200246017Y-89327320D01*
X200242580Y-89335588D01*
X200234302Y-89339005D01*
X200232161Y-89338805D01*
X198655544Y-89043189D01*
X198648044Y-89038296D01*
X198646000Y-89031689D01*
X198646000Y-88051110D01*
X198649427Y-88042837D01*
X198655542Y-88039610D01*
X200232163Y-87743994D01*
X200240924Y-87745838D01*
G37*
%TD.AperFunction*%
%TD*%
%TA.AperFunction,Conductor*%
%TO.N,CS1*%
G36*
X165121343Y-78419233D02*
G01*
X165127668Y-78425572D01*
X165127707Y-78425667D01*
X165678613Y-79793485D01*
X165678525Y-79802439D01*
X165676033Y-79806129D01*
X165404129Y-80078033D01*
X165395856Y-80081460D01*
X165391485Y-80080613D01*
X164023667Y-79529707D01*
X164017273Y-79523437D01*
X164017185Y-79514483D01*
X164017224Y-79514388D01*
X164335438Y-78743783D01*
X164341759Y-78737448D01*
X165112388Y-78419224D01*
X165121343Y-78419233D01*
G37*
%TD.AperFunction*%
%TD*%
%TA.AperFunction,Conductor*%
%TO.N,TPH VCC {slash} CPC SDA*%
G36*
X196578939Y-47681474D02*
G01*
X196582629Y-47683966D01*
X196854533Y-47955870D01*
X196857960Y-47964143D01*
X196857113Y-47968514D01*
X196306207Y-49336332D01*
X196299937Y-49342726D01*
X196290983Y-49342814D01*
X196290888Y-49342775D01*
X195520285Y-49024562D01*
X195513947Y-49018238D01*
X195195724Y-48247611D01*
X195195733Y-48238656D01*
X195202072Y-48232331D01*
X195202095Y-48232321D01*
X196569986Y-47681386D01*
X196578939Y-47681474D01*
G37*
%TD.AperFunction*%
%TD*%
%TA.AperFunction,Conductor*%
%TO.N,TPH VCC {slash} CPC SDA*%
G36*
X201189788Y-36788452D02*
G01*
X201195966Y-36794436D01*
X201378130Y-37197035D01*
X201693801Y-37894698D01*
X201694889Y-37897101D01*
X201695929Y-37901924D01*
X201695929Y-38284406D01*
X201692502Y-38292679D01*
X201684229Y-38296106D01*
X201681385Y-38295755D01*
X200093860Y-37897990D01*
X200086668Y-37892655D01*
X200085355Y-37883797D01*
X200085890Y-37882175D01*
X200403147Y-37113886D01*
X200409468Y-37107551D01*
X201180833Y-36788448D01*
X201189788Y-36788452D01*
G37*
%TD.AperFunction*%
%TD*%
%TA.AperFunction,Conductor*%
%TO.N,TPH SCL {slash} CPC GND*%
G36*
X194214228Y-55052821D02*
G01*
X195554672Y-55651742D01*
X195858199Y-55787361D01*
X195864354Y-55793864D01*
X195864240Y-55802510D01*
X195519062Y-56638215D01*
X195512736Y-56644553D01*
X195512715Y-56644562D01*
X194677010Y-56989740D01*
X194668055Y-56989731D01*
X194661861Y-56983699D01*
X194526242Y-56680172D01*
X193927321Y-55339730D01*
X193927076Y-55330781D01*
X193929729Y-55326689D01*
X194201188Y-55055230D01*
X194209460Y-55051804D01*
X194214228Y-55052821D01*
G37*
%TD.AperFunction*%
%TD*%
%TA.AperFunction,Conductor*%
%TO.N,TPH SCL {slash} CPC GND*%
G36*
X192011611Y-36788624D02*
G01*
X192011730Y-36788673D01*
X192782215Y-37106838D01*
X192788552Y-37113161D01*
X192788562Y-37113185D01*
X193106775Y-37883788D01*
X193106766Y-37892743D01*
X193100427Y-37899068D01*
X193100332Y-37899107D01*
X191732514Y-38450013D01*
X191723560Y-38449925D01*
X191719870Y-38447433D01*
X191447966Y-38175529D01*
X191444539Y-38167256D01*
X191445385Y-38162888D01*
X191996292Y-36795066D01*
X192002562Y-36788673D01*
X192011516Y-36788585D01*
X192011611Y-36788624D01*
G37*
%TD.AperFunction*%
%TD*%
%TA.AperFunction,Conductor*%
%TO.N,I2C_GND*%
G36*
X95290949Y-81449333D02*
G01*
X95298571Y-81454033D01*
X95300751Y-81459961D01*
X95443001Y-83257553D01*
X95440237Y-83266071D01*
X95432260Y-83270140D01*
X95431337Y-83270176D01*
X93951684Y-83270176D01*
X93943411Y-83266749D01*
X93940947Y-83263123D01*
X93355110Y-81909626D01*
X93354968Y-81900673D01*
X93359106Y-81895416D01*
X94230104Y-81281744D01*
X94238704Y-81279758D01*
X95290949Y-81449333D01*
G37*
%TD.AperFunction*%
%TD*%
%TA.AperFunction,Conductor*%
%TO.N,I2C_GND*%
G36*
X100648601Y-105383023D02*
G01*
X101601469Y-105691653D01*
X101608284Y-105697463D01*
X101608622Y-105698185D01*
X101994629Y-106601177D01*
X101994730Y-106610131D01*
X101991562Y-106614593D01*
X100656658Y-107779147D01*
X100648171Y-107782003D01*
X100640694Y-107778603D01*
X99595089Y-106732998D01*
X99591662Y-106724725D01*
X99594148Y-106717515D01*
X100635784Y-105386940D01*
X100643581Y-105382540D01*
X100648601Y-105383023D01*
G37*
%TD.AperFunction*%
%TD*%
%TA.AperFunction,Conductor*%
%TO.N,I2C_GND*%
G36*
X85347269Y-120403278D02*
G01*
X85347278Y-120403287D01*
X86234747Y-121291743D01*
X86238169Y-121300019D01*
X86238010Y-121301935D01*
X86090630Y-122186223D01*
X86085890Y-122193821D01*
X86079089Y-122196000D01*
X84598911Y-122196000D01*
X84590638Y-122192573D01*
X84587370Y-122186223D01*
X84439989Y-121301935D01*
X84442009Y-121293212D01*
X84443252Y-121291743D01*
X85330722Y-120403287D01*
X85338994Y-120399856D01*
X85347269Y-120403278D01*
G37*
%TD.AperFunction*%
%TD*%
%TA.AperFunction,Conductor*%
%TO.N,I2C_GND*%
G36*
X120011593Y-119062044D02*
G01*
X120015020Y-119070317D01*
X120012782Y-119077199D01*
X118778136Y-120774854D01*
X118770499Y-120779529D01*
X118764068Y-120778727D01*
X117877111Y-120398911D01*
X117870855Y-120392504D01*
X117870849Y-120392489D01*
X117517601Y-119506564D01*
X117517720Y-119497610D01*
X117523829Y-119491491D01*
X118524075Y-119059575D01*
X118528713Y-119058617D01*
X120003320Y-119058617D01*
X120011593Y-119062044D01*
G37*
%TD.AperFunction*%
%TD*%
%TA.AperFunction,Conductor*%
%TO.N,I2C_GND*%
G36*
X88627467Y-104016543D02*
G01*
X88630894Y-104024816D01*
X88629441Y-104030463D01*
X87583348Y-105928771D01*
X87576354Y-105934363D01*
X87570259Y-105934474D01*
X86619242Y-105696312D01*
X86612049Y-105690978D01*
X86611600Y-105690156D01*
X86164428Y-104787536D01*
X86163826Y-104778601D01*
X86167700Y-104773130D01*
X87135823Y-104015602D01*
X87143033Y-104013116D01*
X88619194Y-104013116D01*
X88627467Y-104016543D01*
G37*
%TD.AperFunction*%
%TD*%
%TA.AperFunction,Conductor*%
%TO.N,I2C_GND*%
G36*
X84728694Y-40647519D02*
G01*
X84729142Y-40647967D01*
X85631577Y-41600702D01*
X85634779Y-41609065D01*
X85634597Y-41610824D01*
X85472383Y-42510376D01*
X85467543Y-42517910D01*
X85460869Y-42520000D01*
X83980427Y-42520000D01*
X83972154Y-42516573D01*
X83968913Y-42510376D01*
X83806698Y-41610824D01*
X83808602Y-41602074D01*
X83809711Y-41600710D01*
X84712154Y-40647966D01*
X84720331Y-40644317D01*
X84728694Y-40647519D01*
G37*
%TD.AperFunction*%
%TD*%
%TA.AperFunction,Conductor*%
%TO.N,I2C_GND*%
G36*
X165175607Y-99059985D02*
G01*
X165183875Y-99063422D01*
X165187292Y-99071699D01*
X165187272Y-99072372D01*
X165088648Y-100748987D01*
X165084741Y-100757045D01*
X165076968Y-100760000D01*
X163599032Y-100760000D01*
X163590759Y-100756573D01*
X163587352Y-100748987D01*
X163488727Y-99072370D01*
X163491662Y-99063912D01*
X163499720Y-99060005D01*
X163500378Y-99059985D01*
X164338000Y-99059000D01*
X165175607Y-99059985D01*
G37*
%TD.AperFunction*%
%TD*%
%TA.AperFunction,Conductor*%
%TO.N,I2C_GND*%
G36*
X119376818Y-40332330D02*
G01*
X119381380Y-40335862D01*
X120496413Y-41764316D01*
X120498802Y-41772946D01*
X120495463Y-41779788D01*
X119449903Y-42825348D01*
X119441630Y-42828775D01*
X119433877Y-42825838D01*
X118117425Y-41661064D01*
X118113500Y-41653015D01*
X118114173Y-41648328D01*
X118458498Y-40695059D01*
X118464530Y-40688445D01*
X118465172Y-40688168D01*
X119367867Y-40332177D01*
X119376818Y-40332330D01*
G37*
%TD.AperFunction*%
%TD*%
%TA.AperFunction,Conductor*%
%TO.N,I2C_GND*%
G36*
X195390625Y-35086013D02*
G01*
X195393124Y-35089720D01*
X196106699Y-36773269D01*
X196106773Y-36782224D01*
X196100493Y-36788607D01*
X196100416Y-36788640D01*
X195328865Y-37109210D01*
X195324366Y-37110105D01*
X194486025Y-37109408D01*
X194477755Y-37105974D01*
X194474472Y-37099491D01*
X194425562Y-36782224D01*
X194326596Y-36140260D01*
X194328722Y-36131563D01*
X194329879Y-36130213D01*
X195374080Y-35086012D01*
X195382352Y-35082586D01*
X195390625Y-35086013D01*
G37*
%TD.AperFunction*%
%TD*%
%TA.AperFunction,Conductor*%
%TO.N,I2C_GND*%
G36*
X118769301Y-120335515D02*
G01*
X118773298Y-120343528D01*
X118773309Y-120343695D01*
X118875959Y-122183648D01*
X118872998Y-122192099D01*
X118864929Y-122195982D01*
X118864277Y-122196000D01*
X117385208Y-122196000D01*
X117376935Y-122192573D01*
X117374057Y-122187842D01*
X117092798Y-121302254D01*
X117093560Y-121293331D01*
X117095110Y-121291046D01*
X117869469Y-120398662D01*
X117877477Y-120394661D01*
X118760810Y-120332676D01*
X118769301Y-120335515D01*
G37*
%TD.AperFunction*%
%TD*%
%TA.AperFunction,Conductor*%
%TO.N,I2C_GND*%
G36*
X84341150Y-118336226D02*
G01*
X85023214Y-118913357D01*
X85705277Y-119490488D01*
X85709379Y-119498448D01*
X85708533Y-119503887D01*
X85341562Y-120392215D01*
X85335236Y-120398553D01*
X85335215Y-120398562D01*
X84446887Y-120765533D01*
X84437932Y-120765524D01*
X84433488Y-120762277D01*
X83856357Y-120080214D01*
X83279226Y-119398150D01*
X83276499Y-119389622D01*
X83279885Y-119382322D01*
X84325322Y-118336885D01*
X84333594Y-118333459D01*
X84341150Y-118336226D01*
G37*
%TD.AperFunction*%
%TD*%
%TA.AperFunction,Conductor*%
%TO.N,I2C_GND*%
G36*
X85656368Y-105331423D02*
G01*
X86609776Y-105691431D01*
X86616304Y-105697559D01*
X86616579Y-105698219D01*
X86959596Y-106600692D01*
X86959332Y-106609643D01*
X86955597Y-106614270D01*
X85540426Y-107656462D01*
X85531732Y-107658609D01*
X85525215Y-107655314D01*
X84479624Y-106609723D01*
X84476197Y-106601450D01*
X84479307Y-106593506D01*
X85643651Y-105334424D01*
X85651782Y-105330679D01*
X85656368Y-105331423D01*
G37*
%TD.AperFunction*%
%TD*%
%TA.AperFunction,Conductor*%
%TO.N,I2C_GND*%
G36*
X86092177Y-121795602D02*
G01*
X87060297Y-122553128D01*
X87064701Y-122560925D01*
X87063571Y-122567536D01*
X86616399Y-123470156D01*
X86609656Y-123476048D01*
X86608757Y-123476312D01*
X85657740Y-123714474D01*
X85648882Y-123713159D01*
X85644651Y-123708771D01*
X84598559Y-121810463D01*
X84597567Y-121801563D01*
X84603159Y-121794569D01*
X84608806Y-121793116D01*
X86084967Y-121793116D01*
X86092177Y-121795602D01*
G37*
%TD.AperFunction*%
%TD*%
%TA.AperFunction,Conductor*%
%TO.N,I2C_GND*%
G36*
X117563951Y-105368169D02*
G01*
X117567789Y-105371199D01*
X118593316Y-106609000D01*
X118683183Y-106717468D01*
X118685822Y-106726025D01*
X118682446Y-106733205D01*
X117636881Y-107778770D01*
X117628608Y-107782197D01*
X117621111Y-107779480D01*
X116225240Y-106614506D01*
X116221084Y-106606574D01*
X116221922Y-106601059D01*
X116594916Y-105698193D01*
X116601242Y-105691857D01*
X116601943Y-105691592D01*
X117555017Y-105367588D01*
X117563951Y-105368169D01*
G37*
%TD.AperFunction*%
%TD*%
%TA.AperFunction,Conductor*%
%TO.N,I2C_GND*%
G36*
X83895607Y-99059985D02*
G01*
X83903875Y-99063422D01*
X83907292Y-99071699D01*
X83907272Y-99072372D01*
X83808648Y-100748987D01*
X83804741Y-100757045D01*
X83796968Y-100760000D01*
X82319032Y-100760000D01*
X82310759Y-100756573D01*
X82307352Y-100748987D01*
X82208727Y-99072370D01*
X82211662Y-99063912D01*
X82219720Y-99060005D01*
X82220378Y-99059985D01*
X83058000Y-99059000D01*
X83895607Y-99059985D01*
G37*
%TD.AperFunction*%
%TD*%
%TA.AperFunction,Conductor*%
%TO.N,I2C_GND*%
G36*
X118616036Y-100819427D02*
G01*
X118619299Y-100825745D01*
X118769144Y-101710058D01*
X118767147Y-101718788D01*
X118765897Y-101720270D01*
X117880925Y-102608689D01*
X117872659Y-102612132D01*
X117864379Y-102608721D01*
X117864358Y-102608701D01*
X116976871Y-101720228D01*
X116973449Y-101711953D01*
X116973597Y-101710108D01*
X117116063Y-100825839D01*
X117120762Y-100818216D01*
X117127614Y-100816000D01*
X118607763Y-100816000D01*
X118616036Y-100819427D01*
G37*
%TD.AperFunction*%
%TD*%
%TA.AperFunction,Conductor*%
%TO.N,I2C_GND*%
G36*
X198542912Y-63923062D02*
G01*
X198544100Y-63924100D01*
X199381632Y-64761632D01*
X199385059Y-64769905D01*
X199381632Y-64778178D01*
X199380834Y-64778906D01*
X198545213Y-65472868D01*
X198536659Y-65475517D01*
X198533649Y-65474829D01*
X197297985Y-65013948D01*
X197291431Y-65007846D01*
X197291112Y-64998897D01*
X197293799Y-64994715D01*
X198338797Y-63949717D01*
X198345494Y-63946397D01*
X198534256Y-63920779D01*
X198542912Y-63923062D01*
G37*
%TD.AperFunction*%
%TD*%
%TA.AperFunction,Conductor*%
%TO.N,I2C_GND*%
G36*
X95082722Y-59291490D02*
G01*
X96128157Y-60336925D01*
X96131584Y-60345198D01*
X96128816Y-60352756D01*
X94977248Y-61713700D01*
X94969288Y-61717802D01*
X94960758Y-61715074D01*
X94960052Y-61714424D01*
X94331941Y-61087707D01*
X93705223Y-60459595D01*
X93701805Y-60451318D01*
X93705241Y-60443049D01*
X93705926Y-60442418D01*
X95066893Y-59290830D01*
X95075421Y-59288103D01*
X95082722Y-59291490D01*
G37*
%TD.AperFunction*%
%TD*%
%TA.AperFunction,Conductor*%
%TO.N,I2C_GND*%
G36*
X103618518Y-104194009D02*
G01*
X103621945Y-104202282D01*
X103620299Y-104208266D01*
X102575434Y-105963835D01*
X102568258Y-105969191D01*
X102562156Y-105969098D01*
X101610975Y-105696476D01*
X101603967Y-105690903D01*
X101603577Y-105690135D01*
X101546026Y-105565537D01*
X101187068Y-104788389D01*
X101186711Y-104779443D01*
X101191518Y-104773546D01*
X102127990Y-104192341D01*
X102134160Y-104190582D01*
X103610245Y-104190582D01*
X103618518Y-104194009D01*
G37*
%TD.AperFunction*%
%TD*%
%TA.AperFunction,Conductor*%
%TO.N,I2C_GND*%
G36*
X114769984Y-80473320D02*
G01*
X116399478Y-81304693D01*
X116453557Y-81332284D01*
X116459369Y-81339096D01*
X116458662Y-81348023D01*
X116456513Y-81350979D01*
X115410727Y-82396765D01*
X115402454Y-82400192D01*
X115402292Y-82400191D01*
X114192754Y-82383473D01*
X114184529Y-82379932D01*
X114181278Y-82372979D01*
X114071198Y-81309573D01*
X114073755Y-81300991D01*
X114073819Y-81300912D01*
X114755652Y-80476286D01*
X114763564Y-80472095D01*
X114769984Y-80473320D01*
G37*
%TD.AperFunction*%
%TD*%
%TA.AperFunction,Conductor*%
%TO.N,I2C_GND*%
G36*
X87580577Y-123111708D02*
G01*
X87584350Y-123114426D01*
X88748692Y-124373506D01*
X88751793Y-124381907D01*
X88748375Y-124389723D01*
X87702784Y-125435314D01*
X87694511Y-125438741D01*
X87687573Y-125436462D01*
X86272402Y-124394270D01*
X86267772Y-124386605D01*
X86268402Y-124380694D01*
X86611421Y-123478217D01*
X86617563Y-123471703D01*
X86618194Y-123471442D01*
X87571629Y-123111424D01*
X87580577Y-123111708D01*
G37*
%TD.AperFunction*%
%TD*%
%TA.AperFunction,Conductor*%
%TO.N,I2C_GND*%
G36*
X102576452Y-123054091D02*
G01*
X103739191Y-124125332D01*
X103742953Y-124133458D01*
X103739868Y-124141865D01*
X103739536Y-124142210D01*
X102693868Y-125187878D01*
X102685595Y-125191305D01*
X102679708Y-125189715D01*
X101313081Y-124393762D01*
X101307657Y-124386638D01*
X101307851Y-124380011D01*
X101603490Y-123478254D01*
X101609323Y-123471462D01*
X101609866Y-123471205D01*
X102563817Y-123051984D01*
X102572770Y-123051793D01*
X102576452Y-123054091D01*
G37*
%TD.AperFunction*%
%TD*%
%TA.AperFunction,Conductor*%
%TO.N,I2C_GND*%
G36*
X171085933Y-78628388D02*
G01*
X171970224Y-78775770D01*
X171977821Y-78780511D01*
X171980000Y-78787311D01*
X171980000Y-80267488D01*
X171976573Y-80275761D01*
X171970223Y-80279029D01*
X171085935Y-80426410D01*
X171077212Y-80424390D01*
X171075743Y-80423147D01*
X170187287Y-79535678D01*
X170183856Y-79527407D01*
X170187278Y-79519131D01*
X170187287Y-79519122D01*
X171075743Y-78631652D01*
X171084018Y-78628230D01*
X171085933Y-78628388D01*
G37*
%TD.AperFunction*%
%TD*%
%TA.AperFunction,Conductor*%
%TO.N,I2C_GND*%
G36*
X99697598Y-118799350D02*
G01*
X100732682Y-119490476D01*
X100737659Y-119497920D01*
X100736834Y-119505053D01*
X100332835Y-120392581D01*
X100326288Y-120398691D01*
X100326275Y-120398696D01*
X99439683Y-120729395D01*
X99430734Y-120729076D01*
X99425734Y-120724731D01*
X98206144Y-118815378D01*
X98204578Y-118806561D01*
X98209706Y-118799220D01*
X98216004Y-118797380D01*
X99691101Y-118797380D01*
X99697598Y-118799350D01*
G37*
%TD.AperFunction*%
%TD*%
%TA.AperFunction,Conductor*%
%TO.N,I2C_GND*%
G36*
X113038862Y-60757509D02*
G01*
X113860107Y-61096693D01*
X114677790Y-61436372D01*
X114684116Y-61442711D01*
X114684107Y-61451665D01*
X114683055Y-61453640D01*
X113581242Y-63116392D01*
X113573816Y-63121395D01*
X113565026Y-63119682D01*
X113563216Y-63118202D01*
X112518090Y-62073076D01*
X112514663Y-62064803D01*
X112515469Y-62060538D01*
X113023561Y-60764075D01*
X113029769Y-60757625D01*
X113038722Y-60757453D01*
X113038862Y-60757509D01*
G37*
%TD.AperFunction*%
%TD*%
%TA.AperFunction,Conductor*%
%TO.N,I2C_GND*%
G36*
X101084001Y-121795602D02*
G01*
X102052121Y-122553128D01*
X102056525Y-122560925D01*
X102055395Y-122567536D01*
X101608223Y-123470156D01*
X101601480Y-123476048D01*
X101600581Y-123476312D01*
X100649564Y-123714474D01*
X100640706Y-123713159D01*
X100636475Y-123708771D01*
X99590383Y-121810463D01*
X99589391Y-121801563D01*
X99594983Y-121794569D01*
X99600630Y-121793116D01*
X101076791Y-121793116D01*
X101084001Y-121795602D01*
G37*
%TD.AperFunction*%
%TD*%
%TA.AperFunction,Conductor*%
%TO.N,I2C_GND*%
G36*
X113871974Y-60198376D02*
G01*
X115646539Y-60336162D01*
X115654520Y-60340218D01*
X115657331Y-60347826D01*
X115657331Y-61826297D01*
X115653904Y-61834570D01*
X115646671Y-61837951D01*
X113872125Y-61996264D01*
X113863580Y-61993586D01*
X113859431Y-61985650D01*
X113859385Y-61984641D01*
X113858400Y-61097400D01*
X113859385Y-60210026D01*
X113862821Y-60201760D01*
X113871098Y-60198342D01*
X113871974Y-60198376D01*
G37*
%TD.AperFunction*%
%TD*%
%TA.AperFunction,Conductor*%
%TO.N,I2C_GND*%
G36*
X117880917Y-102623278D02*
G01*
X117880926Y-102623287D01*
X118768395Y-103511743D01*
X118771817Y-103520019D01*
X118771658Y-103521935D01*
X118624278Y-104406223D01*
X118619538Y-104413821D01*
X118612737Y-104416000D01*
X117132559Y-104416000D01*
X117124286Y-104412573D01*
X117121018Y-104406223D01*
X116973637Y-103521935D01*
X116975657Y-103513212D01*
X116976900Y-103511743D01*
X117864370Y-102623287D01*
X117872642Y-102619856D01*
X117880917Y-102623278D01*
G37*
%TD.AperFunction*%
%TD*%
%TA.AperFunction,Conductor*%
%TO.N,I2C_GND*%
G36*
X102889093Y-102623278D02*
G01*
X102889102Y-102623287D01*
X103776571Y-103511743D01*
X103779993Y-103520019D01*
X103779834Y-103521935D01*
X103632454Y-104406223D01*
X103627714Y-104413821D01*
X103620913Y-104416000D01*
X102140735Y-104416000D01*
X102132462Y-104412573D01*
X102129194Y-104406223D01*
X101981813Y-103521935D01*
X101983833Y-103513212D01*
X101985076Y-103511743D01*
X102872546Y-102623287D01*
X102880818Y-102619856D01*
X102889093Y-102623278D01*
G37*
%TD.AperFunction*%
%TD*%
%TA.AperFunction,Conductor*%
%TO.N,I2C_GND*%
G36*
X118611115Y-104016543D02*
G01*
X118614542Y-104024816D01*
X118613089Y-104030463D01*
X117566996Y-105928771D01*
X117560002Y-105934363D01*
X117553907Y-105934474D01*
X116602890Y-105696312D01*
X116595697Y-105690978D01*
X116595248Y-105690156D01*
X116148076Y-104787536D01*
X116147474Y-104778601D01*
X116151348Y-104773130D01*
X117119471Y-104015602D01*
X117126681Y-104013116D01*
X118602842Y-104013116D01*
X118611115Y-104016543D01*
G37*
%TD.AperFunction*%
%TD*%
%TA.AperFunction,Conductor*%
%TO.N,I2C_GND*%
G36*
X117563951Y-123148169D02*
G01*
X117567789Y-123151199D01*
X118586734Y-124381056D01*
X118683183Y-124497469D01*
X118685822Y-124506026D01*
X118682446Y-124513206D01*
X117636882Y-125558770D01*
X117628609Y-125562197D01*
X117621112Y-125559480D01*
X116225241Y-124394506D01*
X116221085Y-124386574D01*
X116221923Y-124381059D01*
X116594916Y-123478193D01*
X116601242Y-123471857D01*
X116601943Y-123471592D01*
X117555017Y-123147588D01*
X117563951Y-123148169D01*
G37*
%TD.AperFunction*%
%TD*%
%TA.AperFunction,Conductor*%
%TO.N,I2C_GND*%
G36*
X100339093Y-120403278D02*
G01*
X100339102Y-120403287D01*
X101226571Y-121291743D01*
X101229993Y-121300019D01*
X101229834Y-121301935D01*
X101082454Y-122186223D01*
X101077714Y-122193821D01*
X101070913Y-122196000D01*
X99590735Y-122196000D01*
X99582462Y-122192573D01*
X99579194Y-122186223D01*
X99431813Y-121301935D01*
X99433833Y-121293212D01*
X99435076Y-121291743D01*
X100322546Y-120403287D01*
X100330818Y-120399856D01*
X100339093Y-120403278D01*
G37*
%TD.AperFunction*%
%TD*%
%TA.AperFunction,Conductor*%
%TO.N,I2C_GND*%
G36*
X184792449Y-37729697D02*
G01*
X184796277Y-37737792D01*
X184796283Y-37737940D01*
X184842129Y-38996561D01*
X184839006Y-39004954D01*
X184838710Y-39005260D01*
X183793805Y-40050165D01*
X183785532Y-40053592D01*
X183777259Y-40050165D01*
X183774803Y-40046558D01*
X182973807Y-38204846D01*
X182973650Y-38195893D01*
X182979447Y-38189645D01*
X183840506Y-37773925D01*
X183845014Y-37772776D01*
X184784019Y-37726680D01*
X184792449Y-37729697D01*
G37*
%TD.AperFunction*%
%TD*%
%TA.AperFunction,Conductor*%
%TO.N,I2C_GND*%
G36*
X87897269Y-102623278D02*
G01*
X87897278Y-102623287D01*
X88784747Y-103511743D01*
X88788169Y-103520019D01*
X88788010Y-103521935D01*
X88640630Y-104406223D01*
X88635890Y-104413821D01*
X88629089Y-104416000D01*
X87148911Y-104416000D01*
X87140638Y-104412573D01*
X87137370Y-104406223D01*
X86989989Y-103521935D01*
X86992009Y-103513212D01*
X86993252Y-103511743D01*
X87880722Y-102623287D01*
X87888994Y-102619856D01*
X87897269Y-102623278D01*
G37*
%TD.AperFunction*%
%TD*%
%TA.AperFunction,Conductor*%
%TO.N,+5V*%
G36*
X185378610Y-36058452D02*
G01*
X186050677Y-36445055D01*
X186739120Y-36841078D01*
X186744583Y-36848174D01*
X186744179Y-36855489D01*
X186385765Y-37769953D01*
X186379823Y-37776285D01*
X185512989Y-38181107D01*
X185504043Y-38181503D01*
X185497959Y-38176447D01*
X185260934Y-37774307D01*
X184940841Y-37231232D01*
X184940663Y-37230905D01*
X184870545Y-37090089D01*
X184811993Y-37012553D01*
X184811632Y-37012014D01*
X184668336Y-36768896D01*
X184667087Y-36760029D01*
X184670140Y-36754684D01*
X185364504Y-36060320D01*
X185372776Y-36056894D01*
X185378610Y-36058452D01*
G37*
%TD.AperFunction*%
%TD*%
%TA.AperFunction,Conductor*%
%TO.N,+5V*%
G36*
X169685961Y-44618776D02*
G01*
X171360118Y-44951727D01*
X171367562Y-44956700D01*
X171369534Y-44963201D01*
X171369534Y-45944165D01*
X171366107Y-45952438D01*
X171360315Y-45955599D01*
X170006821Y-46249228D01*
X169998009Y-46247633D01*
X169993535Y-46242283D01*
X169873591Y-45953600D01*
X169671896Y-45468157D01*
X169671002Y-45463660D01*
X169671983Y-44630237D01*
X169675420Y-44621969D01*
X169683697Y-44618552D01*
X169685961Y-44618776D01*
G37*
%TD.AperFunction*%
%TD*%
%TA.AperFunction,Conductor*%
%TO.N,~*%
G36*
X198022668Y-118848925D02*
G01*
X198294507Y-119120764D01*
X198297934Y-119129037D01*
X198297315Y-119132791D01*
X197847110Y-120461721D01*
X197841210Y-120468457D01*
X197832275Y-120469048D01*
X197831564Y-120468782D01*
X197107787Y-120169962D01*
X197101448Y-120163637D01*
X197101437Y-120163612D01*
X196802074Y-119438520D01*
X196802085Y-119429565D01*
X196807824Y-119423508D01*
X198009332Y-118846650D01*
X198018272Y-118846159D01*
X198022668Y-118848925D01*
G37*
%TD.AperFunction*%
%TD*%
%TA.AperFunction,Conductor*%
%TO.N,~*%
G36*
X186185272Y-53592582D02*
G01*
X186193540Y-53596019D01*
X186196957Y-53604297D01*
X186196757Y-53606438D01*
X185901142Y-55183056D01*
X185896249Y-55190556D01*
X185889642Y-55192600D01*
X184909062Y-55192600D01*
X184900789Y-55189173D01*
X184897562Y-55183056D01*
X184601946Y-53606436D01*
X184603790Y-53597675D01*
X184611290Y-53592782D01*
X184613426Y-53592582D01*
X185399352Y-53591600D01*
X186185272Y-53592582D01*
G37*
%TD.AperFunction*%
%TD*%
%TA.AperFunction,Conductor*%
%TO.N,~*%
G36*
X197420589Y-119433655D02*
G01*
X197421399Y-119434029D01*
X198675918Y-120073207D01*
X198681733Y-120080015D01*
X198682306Y-120083631D01*
X198682306Y-120468066D01*
X198678879Y-120476339D01*
X198674353Y-120479150D01*
X197420502Y-120903003D01*
X197411567Y-120902406D01*
X197405952Y-120896410D01*
X197104864Y-120171887D01*
X197104854Y-120162938D01*
X197405296Y-119439967D01*
X197411634Y-119433644D01*
X197420589Y-119433655D01*
G37*
%TD.AperFunction*%
%TD*%
%TA.AperFunction,Conductor*%
%TO.N,~*%
G36*
X176033614Y-139142878D02*
G01*
X176034987Y-139144534D01*
X176940791Y-140468403D01*
X176942635Y-140477166D01*
X176939408Y-140483283D01*
X176246035Y-141176656D01*
X176237762Y-141180083D01*
X176231155Y-141178039D01*
X174907286Y-140272235D01*
X174902393Y-140264735D01*
X174904237Y-140255972D01*
X174905604Y-140254322D01*
X175460645Y-139697893D01*
X176017069Y-139142857D01*
X176025346Y-139139441D01*
X176033614Y-139142878D01*
G37*
%TD.AperFunction*%
%TD*%
M02*
