%TF.GenerationSoftware,KiCad,Pcbnew,7.0.9*%
%TF.CreationDate,2023-11-30T22:47:02+01:00*%
%TF.ProjectId,euroPi-kicad,6575726f-5069-42d6-9b69-6361642e6b69,rev?*%
%TF.SameCoordinates,Original*%
%TF.FileFunction,Soldermask,Bot*%
%TF.FilePolarity,Negative*%
%FSLAX46Y46*%
G04 Gerber Fmt 4.6, Leading zero omitted, Abs format (unit mm)*
G04 Created by KiCad (PCBNEW 7.0.9) date 2023-11-30 22:47:02*
%MOMM*%
%LPD*%
G01*
G04 APERTURE LIST*
G04 Aperture macros list*
%AMRoundRect*
0 Rectangle with rounded corners*
0 $1 Rounding radius*
0 $2 $3 $4 $5 $6 $7 $8 $9 X,Y pos of 4 corners*
0 Add a 4 corners polygon primitive as box body*
4,1,4,$2,$3,$4,$5,$6,$7,$8,$9,$2,$3,0*
0 Add four circle primitives for the rounded corners*
1,1,$1+$1,$2,$3*
1,1,$1+$1,$4,$5*
1,1,$1+$1,$6,$7*
1,1,$1+$1,$8,$9*
0 Add four rect primitives between the rounded corners*
20,1,$1+$1,$2,$3,$4,$5,0*
20,1,$1+$1,$4,$5,$6,$7,0*
20,1,$1+$1,$6,$7,$8,$9,0*
20,1,$1+$1,$8,$9,$2,$3,0*%
%AMFreePoly0*
4,1,28,0.178017,0.779942,0.347107,0.720775,0.498792,0.625465,0.625465,0.498792,0.720775,0.347107,0.779942,0.178017,0.800000,0.000000,0.779942,-0.178017,0.720775,-0.347107,0.625465,-0.498792,0.498792,-0.625465,0.347107,-0.720775,0.178017,-0.779942,0.000000,-0.800000,-0.600000,-0.800000,-0.605014,-0.794986,-0.644504,-0.794986,-0.724698,-0.756366,-0.780194,-0.686777,-0.800000,-0.600000,
-0.800000,0.600000,-0.780194,0.686777,-0.724698,0.756366,-0.644504,0.794986,-0.605014,0.794986,-0.600000,0.800000,0.000000,0.800000,0.178017,0.779942,0.178017,0.779942,$1*%
%AMFreePoly1*
4,1,28,0.605014,0.794986,0.644504,0.794986,0.724698,0.756366,0.780194,0.686777,0.800000,0.600000,0.800000,-0.600000,0.780194,-0.686777,0.724698,-0.756366,0.644504,-0.794986,0.605014,-0.794986,0.600000,-0.800000,0.000000,-0.800000,-0.178017,-0.779942,-0.347107,-0.720775,-0.498792,-0.625465,-0.625465,-0.498792,-0.720775,-0.347107,-0.779942,-0.178017,-0.800000,0.000000,-0.779942,0.178017,
-0.720775,0.347107,-0.625465,0.498792,-0.498792,0.625465,-0.347107,0.720775,-0.178017,0.779942,0.000000,0.800000,0.600000,0.800000,0.605014,0.794986,0.605014,0.794986,$1*%
G04 Aperture macros list end*
%ADD10O,1.600000X1.600000*%
%ADD11R,1.600000X1.600000*%
%ADD12C,1.600000*%
%ADD13C,2.130000*%
%ADD14R,1.830000X1.930000*%
%ADD15R,1.930000X1.830000*%
%ADD16C,1.800000*%
%ADD17R,1.800000X1.800000*%
%ADD18O,1.800000X1.800000*%
%ADD19C,2.200000*%
%ADD20C,1.700000*%
%ADD21C,4.000000*%
%ADD22O,1.700000X1.700000*%
%ADD23R,1.700000X1.700000*%
%ADD24C,1.300000*%
%ADD25R,1.300000X1.300000*%
%ADD26FreePoly0,180.000000*%
%ADD27FreePoly1,180.000000*%
%ADD28RoundRect,0.200000X0.600000X0.600000X-0.600000X0.600000X-0.600000X-0.600000X0.600000X-0.600000X0*%
%ADD29RoundRect,0.250000X-0.600000X-0.600000X0.600000X-0.600000X0.600000X0.600000X-0.600000X0.600000X0*%
%ADD30O,1.905000X2.000000*%
%ADD31R,1.905000X2.000000*%
G04 APERTURE END LIST*
D10*
%TO.C,O3*%
X189484000Y-119287400D03*
X189484000Y-116747400D03*
X189484000Y-114207400D03*
X189484000Y-111667400D03*
X189484000Y-109127400D03*
X189484000Y-106587400D03*
X189484000Y-104047400D03*
X197104000Y-104047400D03*
X197104000Y-106587400D03*
X197104000Y-109127400D03*
X197104000Y-111667400D03*
X197104000Y-114207400D03*
X197104000Y-116747400D03*
D11*
X197104000Y-119287400D03*
%TD*%
D10*
%TO.C,R21*%
X195302352Y-130944600D03*
D12*
X200382352Y-130944600D03*
%TD*%
D10*
%TO.C,R16*%
X93472000Y-117201000D03*
D12*
X93472000Y-112121000D03*
%TD*%
D10*
%TO.C,R24*%
X187989000Y-53247400D03*
D12*
X193069000Y-53247400D03*
%TD*%
D10*
%TO.C,R6*%
X182319352Y-119260600D03*
D12*
X177239352Y-119260600D03*
%TD*%
D10*
%TO.C,R17*%
X108458000Y-109073000D03*
D12*
X108458000Y-103993000D03*
%TD*%
D10*
%TO.C,R20*%
X102235000Y-67192000D03*
D12*
X102235000Y-62112000D03*
%TD*%
%TO.C,C1*%
X196580000Y-60080000D03*
X194580000Y-60080000D03*
%TD*%
D13*
%TO.C,J8*%
X87820648Y-32140000D03*
X96120648Y-32140000D03*
D14*
X84720648Y-32140000D03*
%TD*%
D10*
%TO.C,R30*%
X193548000Y-127923400D03*
D12*
X193548000Y-122843400D03*
%TD*%
D13*
%TO.C,J4*%
X86614000Y-118074000D03*
X86614000Y-126374000D03*
D15*
X86614000Y-114974000D03*
%TD*%
D16*
%TO.C,LED6*%
X115332648Y-111896000D03*
D17*
X117872648Y-111896000D03*
%TD*%
D10*
%TO.C,R26*%
X186915000Y-82711400D03*
D12*
X186915000Y-77631400D03*
%TD*%
D10*
%TO.C,R22*%
X173146352Y-94368600D03*
D12*
X168066352Y-94368600D03*
%TD*%
D10*
%TO.C,R13*%
X95983000Y-94116000D03*
D12*
X90903000Y-94116000D03*
%TD*%
D10*
%TO.C,R31*%
X164539352Y-124282600D03*
D12*
X164539352Y-119202600D03*
%TD*%
D18*
%TO.C,D2*%
X178138000Y-65439400D03*
D17*
X175598000Y-65439400D03*
%TD*%
D12*
%TO.C,C16*%
X181372000Y-47913400D03*
X179372000Y-47913400D03*
%TD*%
D10*
%TO.C,R11*%
X105693000Y-111896000D03*
D12*
X110773000Y-111896000D03*
%TD*%
%TO.C,C3*%
X187399352Y-33916600D03*
X185399352Y-33916600D03*
%TD*%
D10*
%TO.C,R23*%
X177038000Y-90614400D03*
D12*
X177038000Y-95694400D03*
%TD*%
D13*
%TO.C,J2*%
X101605824Y-100294000D03*
X101605824Y-108594000D03*
D15*
X101605824Y-97194000D03*
%TD*%
D10*
%TO.C,O1*%
X177038000Y-61883400D03*
X177038000Y-59343400D03*
X177038000Y-56803400D03*
X177038000Y-54263400D03*
X184658000Y-54263400D03*
X184658000Y-56803400D03*
X184658000Y-59343400D03*
D11*
X184658000Y-61883400D03*
%TD*%
D10*
%TO.C,R18*%
X109739648Y-120220000D03*
D12*
X109739648Y-115140000D03*
%TD*%
D10*
%TO.C,R29*%
X190246000Y-127952400D03*
D12*
X190246000Y-122872400D03*
%TD*%
%TO.C,C11*%
X167809352Y-110370600D03*
X165809352Y-110370600D03*
%TD*%
D19*
%TO.C,SW2*%
X87884000Y-75320000D03*
X94234000Y-72780000D03*
D20*
X96774000Y-77860000D03*
D21*
X91694000Y-77860000D03*
D20*
X86614000Y-77860000D03*
%TD*%
D12*
%TO.C,C14*%
X171651352Y-110370600D03*
X173651352Y-110370600D03*
%TD*%
D18*
%TO.C,D3*%
X176022000Y-46364000D03*
D17*
X176022000Y-48904000D03*
%TD*%
D10*
%TO.C,R37*%
X187399352Y-130944600D03*
D12*
X192479352Y-130944600D03*
%TD*%
D18*
%TO.C,D1*%
X170180000Y-68487400D03*
D17*
X170180000Y-71027400D03*
%TD*%
D10*
%TO.C,R1*%
X186915000Y-90810400D03*
D12*
X186915000Y-85730400D03*
%TD*%
D10*
%TO.C,R19*%
X102119648Y-57794000D03*
D12*
X102119648Y-52714000D03*
%TD*%
D13*
%TO.C,J7*%
X115361000Y-32190800D03*
X107061000Y-32190800D03*
D14*
X118461000Y-32190800D03*
%TD*%
D18*
%TO.C,D4*%
X175913352Y-28029000D03*
D17*
X175913352Y-30569000D03*
%TD*%
D12*
%TO.C,C2*%
X171450000Y-58089400D03*
X171450000Y-60089400D03*
%TD*%
D13*
%TO.C,J1*%
X86614000Y-100294000D03*
X86614000Y-108594000D03*
D15*
X86614000Y-97194000D03*
%TD*%
D12*
%TO.C,C5*%
X187399352Y-39504600D03*
X185399352Y-39504600D03*
%TD*%
D10*
%TO.C,R5*%
X178255352Y-107293600D03*
D12*
X178255352Y-102213600D03*
%TD*%
D22*
%TO.C,J11*%
X164338000Y-90560000D03*
X164338000Y-88020000D03*
X164338000Y-85480000D03*
X164338000Y-82940000D03*
X164338000Y-80400000D03*
X164338000Y-77860000D03*
X164338000Y-75320000D03*
X164338000Y-72780000D03*
X164338000Y-70240000D03*
X164338000Y-67700000D03*
X164338000Y-65160000D03*
X164338000Y-62620000D03*
D23*
X164338000Y-60080000D03*
%TD*%
D16*
%TO.C,LED5*%
X102870824Y-111896000D03*
D17*
X100330824Y-111896000D03*
%TD*%
D12*
%TO.C,C12*%
X167793352Y-103766600D03*
X165793352Y-103766600D03*
%TD*%
D13*
%TO.C,J3*%
X116597648Y-100294000D03*
X116597648Y-108594000D03*
D15*
X116597648Y-97194000D03*
%TD*%
D10*
%TO.C,R32*%
X186436000Y-111667400D03*
D12*
X186436000Y-116747400D03*
%TD*%
D10*
%TO.C,R8*%
X105918000Y-94595000D03*
D12*
X105918000Y-89515000D03*
%TD*%
D10*
%TO.C,R28*%
X103516648Y-36222000D03*
D12*
X103516648Y-31142000D03*
%TD*%
D10*
%TO.C,R10*%
X93472000Y-125358000D03*
D12*
X93472000Y-120278000D03*
%TD*%
D10*
%TO.C,O5*%
X167841352Y-123578600D03*
X170381352Y-123578600D03*
X172921352Y-123578600D03*
X175461352Y-123578600D03*
X178001352Y-123578600D03*
X180541352Y-123578600D03*
X183081352Y-123578600D03*
X183081352Y-131198600D03*
X180541352Y-131198600D03*
X178001352Y-131198600D03*
X175461352Y-131198600D03*
X172921352Y-131198600D03*
X170381352Y-131198600D03*
D11*
X167841352Y-131198600D03*
%TD*%
D10*
%TO.C,R2*%
X186465000Y-93633400D03*
D12*
X191545000Y-93633400D03*
%TD*%
%TO.C,C4*%
X181372000Y-42325400D03*
X179372000Y-42325400D03*
%TD*%
D22*
%TO.C,J18*%
X195516500Y-40522000D03*
X195516500Y-43062000D03*
X195516500Y-45602000D03*
D23*
X195516500Y-48142000D03*
%TD*%
D24*
%TO.C,Q1*%
X178288000Y-70265400D03*
X177018000Y-68995400D03*
D25*
X175748000Y-70265400D03*
%TD*%
D19*
%TO.C,SW1*%
X107721400Y-75345400D03*
X114071400Y-72805400D03*
D20*
X116611400Y-77885400D03*
D21*
X111531400Y-77885400D03*
D20*
X106451400Y-77885400D03*
%TD*%
D10*
%TO.C,R27*%
X99579648Y-33508000D03*
D12*
X99579648Y-28428000D03*
%TD*%
D13*
%TO.C,J5*%
X101605824Y-118074000D03*
X101605824Y-126374000D03*
D15*
X101605824Y-114974000D03*
%TD*%
D10*
%TO.C,R36*%
X196342000Y-95186400D03*
D12*
X196342000Y-100266400D03*
%TD*%
D10*
%TO.C,R25*%
X191291000Y-57594400D03*
D12*
X191291000Y-62674400D03*
%TD*%
%TO.C,C10*%
X193516000Y-88590701D03*
X191516000Y-88590701D03*
%TD*%
D10*
%TO.C,R9*%
X109982000Y-98942000D03*
D12*
X109982000Y-93862000D03*
%TD*%
%TO.C,C13*%
X171635352Y-103766600D03*
X173635352Y-103766600D03*
%TD*%
D10*
%TO.C,R7*%
X93218000Y-106816000D03*
D12*
X93218000Y-101736000D03*
%TD*%
%TO.C,C7*%
X195580000Y-70780000D03*
X195580000Y-72780000D03*
%TD*%
D10*
%TO.C,R34*%
X164539352Y-126626600D03*
D12*
X164539352Y-131706600D03*
%TD*%
D16*
%TO.C,VR1*%
X113859400Y-52597400D03*
X111359400Y-52597400D03*
X108859400Y-52597400D03*
D21*
X106959400Y-59597400D03*
X115759400Y-59597400D03*
%TD*%
D12*
%TO.C,C15*%
X187399352Y-45092600D03*
X185399352Y-45092600D03*
%TD*%
D16*
%TO.C,LED2*%
X100340824Y-94116000D03*
D17*
X102880824Y-94116000D03*
%TD*%
D16*
%TO.C,VR2*%
X94332648Y-52587000D03*
X91832648Y-52587000D03*
X89332648Y-52587000D03*
D21*
X87432648Y-59587000D03*
X96232648Y-59587000D03*
%TD*%
D10*
%TO.C,R3*%
X173937352Y-116466600D03*
D12*
X168857352Y-116466600D03*
%TD*%
D10*
%TO.C,R4*%
X173683352Y-98432600D03*
D12*
X168603352Y-98432600D03*
%TD*%
D10*
%TO.C,R39*%
X186240000Y-100208400D03*
D12*
X191320000Y-100208400D03*
%TD*%
D16*
%TO.C,LED4*%
X87879000Y-111896000D03*
D17*
X85339000Y-111896000D03*
%TD*%
D22*
%TO.C,J12*%
X117957600Y-40522000D03*
X117957600Y-43062000D03*
X117957600Y-45602000D03*
D23*
X117957600Y-48142000D03*
%TD*%
D12*
%TO.C,C9*%
X193516000Y-82494701D03*
X191516000Y-82494701D03*
%TD*%
D10*
%TO.C,R40*%
X173683352Y-120051600D03*
D12*
X168603352Y-120051600D03*
%TD*%
D13*
%TO.C,J6*%
X116597648Y-118074000D03*
X116597648Y-126374000D03*
D15*
X116597648Y-114974000D03*
%TD*%
D16*
%TO.C,LED3*%
X115332648Y-94116000D03*
D17*
X117872648Y-94116000D03*
%TD*%
D10*
%TO.C,R12*%
X109739648Y-127869000D03*
D12*
X109739648Y-122789000D03*
%TD*%
D10*
%TO.C,R38*%
X186436000Y-119795400D03*
D12*
X186436000Y-124875400D03*
%TD*%
D10*
%TO.C,R35*%
X196850000Y-127894400D03*
D12*
X196850000Y-122814400D03*
%TD*%
D10*
%TO.C,R14*%
X101346000Y-90052000D03*
D12*
X96266000Y-90052000D03*
%TD*%
%TO.C,C8*%
X195580000Y-66938000D03*
X195580000Y-64938000D03*
%TD*%
D16*
%TO.C,LED1*%
X85349000Y-94116000D03*
D17*
X87889000Y-94116000D03*
%TD*%
D10*
%TO.C,R15*%
X110501648Y-90306000D03*
D12*
X115581648Y-90306000D03*
%TD*%
%TO.C,C6*%
X181372000Y-36737400D03*
X179372000Y-36737400D03*
%TD*%
D10*
%TO.C,R33*%
X186436000Y-108815400D03*
D12*
X186436000Y-103735400D03*
%TD*%
D22*
%TO.C,J14*%
X108204000Y-46364000D03*
X108204000Y-43824000D03*
D23*
X108204000Y-41284000D03*
%TD*%
D22*
%TO.C,J16*%
X192786000Y-28609400D03*
X195326000Y-28609400D03*
X197866000Y-28609400D03*
X200406000Y-28609400D03*
X192786000Y-31149400D03*
X195326000Y-31149400D03*
X197866000Y-31149400D03*
D23*
X200406000Y-31149400D03*
%TD*%
D22*
%TO.C,J15*%
X199390000Y-48650000D03*
X199390000Y-51190000D03*
X199390000Y-53730000D03*
D23*
X199390000Y-56270000D03*
%TD*%
D12*
%TO.C,U2*%
X182466000Y-67341400D03*
X182466000Y-69881400D03*
D26*
X182466000Y-72421400D03*
D12*
X182466000Y-74961400D03*
X182466000Y-77501400D03*
X182466000Y-80041400D03*
X182466000Y-82581400D03*
D26*
X182466000Y-85121400D03*
D12*
X182466000Y-87661400D03*
X182466000Y-90201400D03*
X182466000Y-92741400D03*
X182466000Y-95281400D03*
D26*
X182466000Y-97821400D03*
D12*
X182466000Y-100361400D03*
X182466000Y-102901400D03*
X182466000Y-105441400D03*
X182466000Y-107981400D03*
D26*
X182466000Y-110521400D03*
D12*
X182466000Y-113061400D03*
X182466000Y-115601400D03*
X200246000Y-115601400D03*
X200246000Y-113061400D03*
D27*
X200246000Y-110521400D03*
D12*
X200246000Y-107981400D03*
X200246000Y-105441400D03*
X200246000Y-102901400D03*
X200246000Y-100361400D03*
D27*
X200246000Y-97821400D03*
D12*
X200246000Y-95281400D03*
X200246000Y-92741400D03*
X200246000Y-90201400D03*
X200246000Y-87661400D03*
D27*
X200246000Y-85121400D03*
D12*
X200246000Y-82581400D03*
X200246000Y-80041400D03*
X200246000Y-77501400D03*
X200246000Y-74961400D03*
D27*
X200246000Y-72421400D03*
D12*
X200246000Y-69881400D03*
D28*
X200246000Y-67341400D03*
%TD*%
D22*
%TO.C,J19*%
X114211500Y-40522000D03*
X114211500Y-43062000D03*
X114211500Y-45602000D03*
D23*
X114211500Y-48142000D03*
%TD*%
D22*
%TO.C,J17*%
X83058000Y-90560000D03*
X83058000Y-88020000D03*
X83058000Y-85480000D03*
X83058000Y-82940000D03*
X83058000Y-80400000D03*
X83058000Y-77860000D03*
X83058000Y-75320000D03*
X83058000Y-72780000D03*
X83058000Y-70240000D03*
X83058000Y-67700000D03*
X83058000Y-65160000D03*
X83058000Y-62620000D03*
D23*
X83058000Y-60080000D03*
%TD*%
D20*
%TO.C,J10*%
X169672000Y-31886000D03*
X167132000Y-31886000D03*
X169672000Y-34426000D03*
X167132000Y-34426000D03*
X169672000Y-36966000D03*
X167132000Y-36966000D03*
X169672000Y-39506000D03*
X167132000Y-39506000D03*
X169672000Y-42046000D03*
X167132000Y-42046000D03*
X169672000Y-44586000D03*
X167132000Y-44586000D03*
X169672000Y-47126000D03*
X167132000Y-47126000D03*
X169672000Y-49666000D03*
D29*
X167132000Y-49666000D03*
%TD*%
D30*
%TO.C,U1*%
X186383352Y-29273600D03*
X183843352Y-29273600D03*
D31*
X181303352Y-29273600D03*
%TD*%
M02*
