%TF.GenerationSoftware,KiCad,Pcbnew,7.0.9*%
%TF.CreationDate,2023-11-28T16:59:50+01:00*%
%TF.ProjectId,euroPi-kicad,6575726f-5069-42d6-9b69-6361642e6b69,rev?*%
%TF.SameCoordinates,Original*%
%TF.FileFunction,Copper,L1,Top*%
%TF.FilePolarity,Positive*%
%FSLAX46Y46*%
G04 Gerber Fmt 4.6, Leading zero omitted, Abs format (unit mm)*
G04 Created by KiCad (PCBNEW 7.0.9) date 2023-11-28 16:59:50*
%MOMM*%
%LPD*%
G01*
G04 APERTURE LIST*
G04 Aperture macros list*
%AMRoundRect*
0 Rectangle with rounded corners*
0 $1 Rounding radius*
0 $2 $3 $4 $5 $6 $7 $8 $9 X,Y pos of 4 corners*
0 Add a 4 corners polygon primitive as box body*
4,1,4,$2,$3,$4,$5,$6,$7,$8,$9,$2,$3,0*
0 Add four circle primitives for the rounded corners*
1,1,$1+$1,$2,$3*
1,1,$1+$1,$4,$5*
1,1,$1+$1,$6,$7*
1,1,$1+$1,$8,$9*
0 Add four rect primitives between the rounded corners*
20,1,$1+$1,$2,$3,$4,$5,0*
20,1,$1+$1,$4,$5,$6,$7,0*
20,1,$1+$1,$6,$7,$8,$9,0*
20,1,$1+$1,$8,$9,$2,$3,0*%
%AMFreePoly0*
4,1,28,0.178017,0.779942,0.347107,0.720775,0.498792,0.625465,0.625465,0.498792,0.720775,0.347107,0.779942,0.178017,0.800000,0.000000,0.779942,-0.178017,0.720775,-0.347107,0.625465,-0.498792,0.498792,-0.625465,0.347107,-0.720775,0.178017,-0.779942,0.000000,-0.800000,-0.600000,-0.800000,-0.605014,-0.794986,-0.644504,-0.794986,-0.724698,-0.756366,-0.780194,-0.686777,-0.800000,-0.600000,
-0.800000,0.600000,-0.780194,0.686777,-0.724698,0.756366,-0.644504,0.794986,-0.605014,0.794986,-0.600000,0.800000,0.000000,0.800000,0.178017,0.779942,0.178017,0.779942,$1*%
%AMFreePoly1*
4,1,28,0.605014,0.794986,0.644504,0.794986,0.724698,0.756366,0.780194,0.686777,0.800000,0.600000,0.800000,-0.600000,0.780194,-0.686777,0.724698,-0.756366,0.644504,-0.794986,0.605014,-0.794986,0.600000,-0.800000,0.000000,-0.800000,-0.178017,-0.779942,-0.347107,-0.720775,-0.498792,-0.625465,-0.625465,-0.498792,-0.720775,-0.347107,-0.779942,-0.178017,-0.800000,0.000000,-0.779942,0.178017,
-0.720775,0.347107,-0.625465,0.498792,-0.498792,0.625465,-0.347107,0.720775,-0.178017,0.779942,0.000000,0.800000,0.600000,0.800000,0.605014,0.794986,0.605014,0.794986,$1*%
G04 Aperture macros list end*
%TA.AperFunction,ComponentPad*%
%ADD10RoundRect,0.250000X-0.600000X-0.600000X0.600000X-0.600000X0.600000X0.600000X-0.600000X0.600000X0*%
%TD*%
%TA.AperFunction,ComponentPad*%
%ADD11C,1.700000*%
%TD*%
%TA.AperFunction,ComponentPad*%
%ADD12O,1.905000X2.000000*%
%TD*%
%TA.AperFunction,ComponentPad*%
%ADD13R,1.905000X2.000000*%
%TD*%
%TA.AperFunction,ComponentPad*%
%ADD14O,1.600000X1.600000*%
%TD*%
%TA.AperFunction,ComponentPad*%
%ADD15R,1.600000X1.600000*%
%TD*%
%TA.AperFunction,ComponentPad*%
%ADD16C,1.600000*%
%TD*%
%TA.AperFunction,ComponentPad*%
%ADD17R,1.700000X1.700000*%
%TD*%
%TA.AperFunction,ComponentPad*%
%ADD18O,1.700000X1.700000*%
%TD*%
%TA.AperFunction,ComponentPad*%
%ADD19R,1.830000X1.930000*%
%TD*%
%TA.AperFunction,ComponentPad*%
%ADD20C,2.130000*%
%TD*%
%TA.AperFunction,ComponentPad*%
%ADD21R,1.930000X1.830000*%
%TD*%
%TA.AperFunction,ComponentPad*%
%ADD22R,1.800000X1.800000*%
%TD*%
%TA.AperFunction,ComponentPad*%
%ADD23C,1.800000*%
%TD*%
%TA.AperFunction,ComponentPad*%
%ADD24O,1.800000X1.800000*%
%TD*%
%TA.AperFunction,ComponentPad*%
%ADD25C,2.200000*%
%TD*%
%TA.AperFunction,ComponentPad*%
%ADD26C,1.300000*%
%TD*%
%TA.AperFunction,ComponentPad*%
%ADD27R,1.300000X1.300000*%
%TD*%
%TA.AperFunction,WasherPad*%
%ADD28C,4.000000*%
%TD*%
%TA.AperFunction,ComponentPad*%
%ADD29FreePoly0,180.000000*%
%TD*%
%TA.AperFunction,ComponentPad*%
%ADD30FreePoly1,180.000000*%
%TD*%
%TA.AperFunction,ComponentPad*%
%ADD31RoundRect,0.200000X0.600000X0.600000X-0.600000X0.600000X-0.600000X-0.600000X0.600000X-0.600000X0*%
%TD*%
%TA.AperFunction,ViaPad*%
%ADD32C,1.000000*%
%TD*%
%TA.AperFunction,Conductor*%
%ADD33C,1.500000*%
%TD*%
%TA.AperFunction,Conductor*%
%ADD34C,1.000000*%
%TD*%
%TA.AperFunction,Conductor*%
%ADD35C,0.500000*%
%TD*%
%TA.AperFunction,Conductor*%
%ADD36C,0.400000*%
%TD*%
G04 APERTURE END LIST*
D10*
%TO.P,J10,1,Pin_1*%
%TO.N,Net-(D3-K)*%
X45212000Y-58166000D03*
D11*
%TO.P,J10,2,Pin_2*%
X47752000Y-58166000D03*
%TO.P,J10,3,Pin_3*%
%TO.N,I2C_GND*%
X45212000Y-55626000D03*
%TO.P,J10,4,Pin_4*%
X47752000Y-55626000D03*
%TO.P,J10,5,Pin_5*%
X45212000Y-53086000D03*
%TO.P,J10,6,Pin_6*%
X47752000Y-53086000D03*
%TO.P,J10,7,Pin_7*%
X45212000Y-50546000D03*
%TO.P,J10,8,Pin_8*%
X47752000Y-50546000D03*
%TO.P,J10,9,Pin_9*%
%TO.N,Net-(D4-A)*%
X45212000Y-48006000D03*
%TO.P,J10,10,Pin_10*%
X47752000Y-48006000D03*
%TO.P,J10,11,Pin_11*%
%TO.N,+5V*%
X45212000Y-45466000D03*
%TO.P,J10,12,Pin_12*%
X47752000Y-45466000D03*
%TO.P,J10,13,Pin_13*%
%TO.N,Net-(J10-Pin_13)*%
X45212000Y-42926000D03*
%TO.P,J10,14,Pin_14*%
X47752000Y-42926000D03*
%TO.P,J10,15,Pin_15*%
%TO.N,Net-(J10-Pin_15)*%
X45212000Y-40386000D03*
%TO.P,J10,16,Pin_16*%
X47752000Y-40386000D03*
%TD*%
D12*
%TO.P,U1,3,OUT*%
%TO.N,+5V*%
X64463352Y-37773600D03*
%TO.P,U1,2,GND*%
%TO.N,I2C_GND*%
X61923352Y-37773600D03*
D13*
%TO.P,U1,1,IN*%
%TO.N,~*%
X59383352Y-37773600D03*
%TD*%
D14*
%TO.P,O3,14*%
%TO.N,CJ4*%
X67564000Y-127787400D03*
%TO.P,O3,13,-*%
%TO.N,Net-(O3D--)*%
X67564000Y-125247400D03*
%TO.P,O3,12,+*%
%TO.N,Net-(O3D-+)*%
X67564000Y-122707400D03*
%TO.P,O3,11,V-*%
%TO.N,-12V*%
X67564000Y-120167400D03*
%TO.P,O3,10,+*%
%TO.N,Net-(O3C-+)*%
X67564000Y-117627400D03*
%TO.P,O3,9,-*%
%TO.N,Net-(O3C--)*%
X67564000Y-115087400D03*
%TO.P,O3,8*%
%TO.N,CJ5*%
X67564000Y-112547400D03*
%TO.P,O3,7*%
%TO.N,CJ2*%
X75184000Y-112547400D03*
%TO.P,O3,6,-*%
%TO.N,Net-(O3B--)*%
X75184000Y-115087400D03*
%TO.P,O3,5,+*%
%TO.N,Net-(O3B-+)*%
X75184000Y-117627400D03*
%TO.P,O3,4,V+*%
%TO.N,~*%
X75184000Y-120167400D03*
%TO.P,O3,3,+*%
%TO.N,Net-(O3A-+)*%
X75184000Y-122707400D03*
%TO.P,O3,2,-*%
%TO.N,Net-(O3A--)*%
X75184000Y-125247400D03*
D15*
%TO.P,O3,1*%
%TO.N,CJ1*%
X75184000Y-127787400D03*
%TD*%
D14*
%TO.P,R21,2*%
%TO.N,Net-(O5-Pad7)*%
X73382352Y-139444600D03*
D16*
%TO.P,R21,1*%
%TO.N,CJA*%
X78462352Y-139444600D03*
%TD*%
%TO.P,R16,1*%
%TO.N,Net-(LED4-A)*%
X93472000Y-120621000D03*
D14*
%TO.P,R16,2*%
%TO.N,CJ4*%
X93472000Y-125701000D03*
%TD*%
%TO.P,R24,2*%
%TO.N,I2C_VCC*%
X66069000Y-61747400D03*
D16*
%TO.P,R24,1*%
%TO.N,CS1*%
X71149000Y-61747400D03*
%TD*%
D14*
%TO.P,R6,2*%
%TO.N,GP19*%
X60399352Y-127760600D03*
D16*
%TO.P,R6,1*%
%TO.N,Net-(O5D-+)*%
X55319352Y-127760600D03*
%TD*%
D17*
%TO.P,J14,1,Pin_1*%
%TO.N,TPH VCC {slash} CPC SDA*%
X108204000Y-49784000D03*
D18*
%TO.P,J14,2,Pin_2*%
%TO.N,I2C_VCC*%
X108204000Y-52324000D03*
%TO.P,J14,3,Pin_3*%
%TO.N,TPH SDA {slash} CPC VCC*%
X108204000Y-54864000D03*
%TD*%
D16*
%TO.P,R17,1*%
%TO.N,Net-(LED5-A)*%
X108458000Y-112493000D03*
D14*
%TO.P,R17,2*%
%TO.N,CJ5*%
X108458000Y-117573000D03*
%TD*%
D16*
%TO.P,R20,1*%
%TO.N,CS1*%
X102235000Y-70612000D03*
D14*
%TO.P,R20,2*%
%TO.N,Net-(R20-Pad2)*%
X102235000Y-75692000D03*
%TD*%
D16*
%TO.P,C1,2*%
%TO.N,I2C_GND*%
X74660000Y-68580000D03*
%TO.P,C1,1*%
%TO.N,I2C_VCC*%
X72660000Y-68580000D03*
%TD*%
D19*
%TO.P,J8,S*%
%TO.N,I2C_GND*%
X84720648Y-40640000D03*
D20*
%TO.P,J8,T*%
%TO.N,Net-(J8-PadT)*%
X96120648Y-40640000D03*
%TO.P,J8,TN*%
%TO.N,unconnected-(J8-PadTN)*%
X87820648Y-40640000D03*
%TD*%
D14*
%TO.P,R30,2*%
%TO.N,I2C_GND*%
X71628000Y-136423400D03*
D16*
%TO.P,R30,1*%
%TO.N,Net-(O3B--)*%
X71628000Y-131343400D03*
%TD*%
D21*
%TO.P,J4,S*%
%TO.N,I2C_GND*%
X86614000Y-123474000D03*
D20*
%TO.P,J4,T*%
%TO.N,Net-(J4-PadT)*%
X86614000Y-134874000D03*
%TO.P,J4,TN*%
%TO.N,unconnected-(J4-PadTN)*%
X86614000Y-126574000D03*
%TD*%
D22*
%TO.P,LED6,1,K*%
%TO.N,I2C_GND*%
X117872648Y-120396000D03*
D23*
%TO.P,LED6,2,A*%
%TO.N,Net-(LED6-A)*%
X115332648Y-120396000D03*
%TD*%
D14*
%TO.P,R26,2*%
%TO.N,GP22*%
X64995000Y-91211400D03*
D16*
%TO.P,R26,1*%
%TO.N,I2C_VCC*%
X64995000Y-86131400D03*
%TD*%
D14*
%TO.P,R22,2*%
%TO.N,Net-(O1A--)*%
X51226352Y-102868600D03*
D16*
%TO.P,R22,1*%
%TO.N,Net-(O5-Pad7)*%
X46146352Y-102868600D03*
%TD*%
%TO.P,R13,1*%
%TO.N,Net-(LED1-A)*%
X90903000Y-102616000D03*
D14*
%TO.P,R13,2*%
%TO.N,CJ1*%
X95983000Y-102616000D03*
%TD*%
%TO.P,R31,2*%
%TO.N,I2C_GND*%
X42619352Y-132782600D03*
D16*
%TO.P,R31,1*%
%TO.N,Net-(O5C--)*%
X42619352Y-127702600D03*
%TD*%
D24*
%TO.P,D2,2,K*%
%TO.N,Net-(D2-K)*%
X56218000Y-73939400D03*
D22*
%TO.P,D2,1,A*%
%TO.N,+5V*%
X53678000Y-73939400D03*
%TD*%
D16*
%TO.P,C16,2*%
%TO.N,-12V*%
X59452000Y-56413400D03*
%TO.P,C16,1*%
%TO.N,I2C_GND*%
X57452000Y-56413400D03*
%TD*%
%TO.P,R11,1*%
%TO.N,CJ5*%
X110773000Y-120396000D03*
D14*
%TO.P,R11,2*%
%TO.N,Net-(J5-PadT)*%
X105693000Y-120396000D03*
%TD*%
D16*
%TO.P,C3,2*%
%TO.N,I2C_GND*%
X65479352Y-42416600D03*
%TO.P,C3,1*%
%TO.N,~*%
X63479352Y-42416600D03*
%TD*%
D14*
%TO.P,R23,2*%
%TO.N,GP26*%
X55118000Y-99114400D03*
D16*
%TO.P,R23,1*%
%TO.N,Net-(O1A--)*%
X55118000Y-104194400D03*
%TD*%
D21*
%TO.P,J2,S*%
%TO.N,I2C_GND*%
X101605824Y-105694000D03*
D20*
%TO.P,J2,T*%
%TO.N,Net-(J2-PadT)*%
X101605824Y-117094000D03*
%TO.P,J2,TN*%
%TO.N,unconnected-(J2-PadTN)*%
X101605824Y-108794000D03*
%TD*%
D14*
%TO.P,O1,8,V+*%
%TO.N,I2C_VCC*%
X55118000Y-70383400D03*
%TO.P,O1,7*%
%TO.N,unconnected-(O1-Pad7)*%
X55118000Y-67843400D03*
%TO.P,O1,6,-*%
%TO.N,unconnected-(O1B---Pad6)*%
X55118000Y-65303400D03*
%TO.P,O1,5,+*%
%TO.N,unconnected-(O1B-+-Pad5)*%
X55118000Y-62763400D03*
%TO.P,O1,4,V-*%
%TO.N,I2C_GND*%
X62738000Y-62763400D03*
%TO.P,O1,3,+*%
X62738000Y-65303400D03*
%TO.P,O1,2,-*%
%TO.N,Net-(O1A--)*%
X62738000Y-67843400D03*
D15*
%TO.P,O1,1*%
%TO.N,GP26*%
X62738000Y-70383400D03*
%TD*%
D16*
%TO.P,R18,1*%
%TO.N,Net-(LED6-A)*%
X109739648Y-123640000D03*
D14*
%TO.P,R18,2*%
%TO.N,CJ6*%
X109739648Y-128720000D03*
%TD*%
%TO.P,R29,2*%
%TO.N,I2C_GND*%
X68326000Y-136452400D03*
D16*
%TO.P,R29,1*%
%TO.N,Net-(O3A--)*%
X68326000Y-131372400D03*
%TD*%
%TO.P,C11,2*%
%TO.N,I2C_GND*%
X45889352Y-118870600D03*
%TO.P,C11,1*%
%TO.N,Net-(O5C-+)*%
X43889352Y-118870600D03*
%TD*%
D25*
%TO.P,SW2,1,1*%
%TO.N,I2C_GND*%
X94234000Y-81280000D03*
%TO.P,SW2,2,2*%
%TO.N,Net-(R19-Pad2)*%
X87884000Y-83820000D03*
%TD*%
D16*
%TO.P,C14,2*%
%TO.N,I2C_GND*%
X49731352Y-118870600D03*
%TO.P,C14,1*%
%TO.N,Net-(O5D-+)*%
X51731352Y-118870600D03*
%TD*%
D24*
%TO.P,D3,2,K*%
%TO.N,Net-(D3-K)*%
X54102000Y-54864000D03*
D22*
%TO.P,D3,1,A*%
%TO.N,-12V*%
X54102000Y-57404000D03*
%TD*%
D14*
%TO.P,R37,2*%
%TO.N,Net-(O5C--)*%
X65479352Y-139444600D03*
D16*
%TO.P,R37,1*%
%TO.N,CJ3*%
X70559352Y-139444600D03*
%TD*%
D24*
%TO.P,D1,2,K*%
%TO.N,CJD*%
X48260000Y-76987400D03*
D22*
%TO.P,D1,1,A*%
%TO.N,I2C_GND*%
X48260000Y-79527400D03*
%TD*%
D14*
%TO.P,R1,2*%
%TO.N,GP21*%
X64995000Y-99310400D03*
D16*
%TO.P,R1,1*%
%TO.N,Net-(O3A-+)*%
X64995000Y-94230400D03*
%TD*%
%TO.P,R19,1*%
%TO.N,CS2*%
X102119648Y-61214000D03*
D14*
%TO.P,R19,2*%
%TO.N,Net-(R19-Pad2)*%
X102119648Y-66294000D03*
%TD*%
D19*
%TO.P,J7,S*%
%TO.N,I2C_GND*%
X118461000Y-40690800D03*
D20*
%TO.P,J7,T*%
%TO.N,Net-(J7-PadT)*%
X107061000Y-40690800D03*
%TO.P,J7,TN*%
%TO.N,unconnected-(J7-PadTN)*%
X115361000Y-40690800D03*
%TD*%
D24*
%TO.P,D4,2,K*%
%TO.N,~*%
X53993352Y-36529000D03*
D22*
%TO.P,D4,1,A*%
%TO.N,Net-(D4-A)*%
X53993352Y-39069000D03*
%TD*%
D16*
%TO.P,C2,1*%
%TO.N,+5V*%
X49530000Y-68589400D03*
%TO.P,C2,2*%
%TO.N,I2C_GND*%
X49530000Y-66589400D03*
%TD*%
D21*
%TO.P,J1,S*%
%TO.N,I2C_GND*%
X86614000Y-105694000D03*
D20*
%TO.P,J1,T*%
%TO.N,Net-(J1-PadT)*%
X86614000Y-117094000D03*
%TO.P,J1,TN*%
%TO.N,unconnected-(J1-PadTN)*%
X86614000Y-108794000D03*
%TD*%
D16*
%TO.P,C5,2*%
%TO.N,I2C_GND*%
X65479352Y-48004600D03*
%TO.P,C5,1*%
%TO.N,~*%
X63479352Y-48004600D03*
%TD*%
D14*
%TO.P,R5,2*%
%TO.N,GP18*%
X56335352Y-115793600D03*
D16*
%TO.P,R5,1*%
%TO.N,Net-(O3C-+)*%
X56335352Y-110713600D03*
%TD*%
D18*
%TO.P,J11,13,Pin_13*%
%TO.N,I2C_GND*%
X42418000Y-99060000D03*
%TO.P,J11,12,Pin_12*%
%TO.N,CJ1*%
X42418000Y-96520000D03*
%TO.P,J11,11,Pin_11*%
%TO.N,CJ2*%
X42418000Y-93980000D03*
%TO.P,J11,10,Pin_10*%
%TO.N,CJ3*%
X42418000Y-91440000D03*
%TO.P,J11,9,Pin_9*%
%TO.N,CJ4*%
X42418000Y-88900000D03*
%TO.P,J11,8,Pin_8*%
%TO.N,CJ5*%
X42418000Y-86360000D03*
%TO.P,J11,7,Pin_7*%
%TO.N,CJ6*%
X42418000Y-83820000D03*
%TO.P,J11,6,Pin_6*%
%TO.N,CS2*%
X42418000Y-81280000D03*
%TO.P,J11,5,Pin_5*%
%TO.N,CS1*%
X42418000Y-78740000D03*
%TO.P,J11,4,Pin_4*%
%TO.N,CK2*%
X42418000Y-76200000D03*
%TO.P,J11,3,Pin_3*%
%TO.N,CK1*%
X42418000Y-73660000D03*
%TO.P,J11,2,Pin_2*%
%TO.N,CJA*%
X42418000Y-71120000D03*
D17*
%TO.P,J11,1,Pin_1*%
%TO.N,CJD*%
X42418000Y-68580000D03*
%TD*%
D22*
%TO.P,LED5,1,K*%
%TO.N,I2C_GND*%
X100330824Y-120396000D03*
D23*
%TO.P,LED5,2,A*%
%TO.N,Net-(LED5-A)*%
X102870824Y-120396000D03*
%TD*%
D16*
%TO.P,C12,2*%
%TO.N,I2C_GND*%
X45873352Y-112266600D03*
%TO.P,C12,1*%
%TO.N,Net-(O3D-+)*%
X43873352Y-112266600D03*
%TD*%
D21*
%TO.P,J3,S*%
%TO.N,I2C_GND*%
X116597648Y-105694000D03*
D20*
%TO.P,J3,T*%
%TO.N,Net-(J3-PadT)*%
X116597648Y-117094000D03*
%TO.P,J3,TN*%
%TO.N,unconnected-(J3-PadTN)*%
X116597648Y-108794000D03*
%TD*%
D14*
%TO.P,R32,2*%
%TO.N,I2C_GND*%
X64516000Y-120167400D03*
D16*
%TO.P,R32,1*%
%TO.N,Net-(O3D--)*%
X64516000Y-125247400D03*
%TD*%
%TO.P,R8,1*%
%TO.N,CJ2*%
X105918000Y-98015000D03*
D14*
%TO.P,R8,2*%
%TO.N,Net-(J2-PadT)*%
X105918000Y-103095000D03*
%TD*%
D16*
%TO.P,R28,1*%
%TO.N,Net-(J8-PadT)*%
X103516648Y-39642000D03*
D14*
%TO.P,R28,2*%
%TO.N,CJA*%
X103516648Y-44722000D03*
%TD*%
D16*
%TO.P,R10,1*%
%TO.N,CJ4*%
X93472000Y-128778000D03*
D14*
%TO.P,R10,2*%
%TO.N,Net-(J4-PadT)*%
X93472000Y-133858000D03*
%TD*%
%TO.P,O5,14*%
%TO.N,CJ6*%
X45921352Y-132078600D03*
%TO.P,O5,13,-*%
%TO.N,Net-(O5D--)*%
X48461352Y-132078600D03*
%TO.P,O5,12,+*%
%TO.N,Net-(O5D-+)*%
X51001352Y-132078600D03*
%TO.P,O5,11,V-*%
%TO.N,-12V*%
X53541352Y-132078600D03*
%TO.P,O5,10,+*%
%TO.N,Net-(O5C-+)*%
X56081352Y-132078600D03*
%TO.P,O5,9,-*%
%TO.N,Net-(O5C--)*%
X58621352Y-132078600D03*
%TO.P,O5,8*%
%TO.N,CJ3*%
X61161352Y-132078600D03*
%TO.P,O5,7*%
%TO.N,Net-(O5-Pad7)*%
X61161352Y-139698600D03*
%TO.P,O5,6,-*%
%TO.N,CJA*%
X58621352Y-139698600D03*
%TO.P,O5,5,+*%
%TO.N,I2C_GND*%
X56081352Y-139698600D03*
%TO.P,O5,4,V+*%
%TO.N,~*%
X53541352Y-139698600D03*
%TO.P,O5,3*%
%TO.N,N/C*%
X51001352Y-139698600D03*
%TO.P,O5,2*%
X48461352Y-139698600D03*
D15*
%TO.P,O5,1*%
X45921352Y-139698600D03*
%TD*%
D14*
%TO.P,R2,2*%
%TO.N,GP20*%
X64545000Y-102133400D03*
D16*
%TO.P,R2,1*%
%TO.N,Net-(O3B-+)*%
X69625000Y-102133400D03*
%TD*%
%TO.P,C4,2*%
%TO.N,-12V*%
X59452000Y-50825400D03*
%TO.P,C4,1*%
%TO.N,I2C_GND*%
X57452000Y-50825400D03*
%TD*%
D18*
%TO.P,J18,4,Pin_4*%
%TO.N,TPH VCC {slash} CPC SDA*%
X73596500Y-49022000D03*
%TO.P,J18,3,Pin_3*%
%TO.N,TPH GND {slash} CPC SCL*%
X73596500Y-51562000D03*
%TO.P,J18,2,Pin_2*%
%TO.N,TPH SDA {slash} CPC VCC*%
X73596500Y-54102000D03*
D17*
%TO.P,J18,1,Pin_1*%
%TO.N,TPH SCL {slash} CPC GND*%
X73596500Y-56642000D03*
%TD*%
D26*
%TO.P,Q1,3,C*%
%TO.N,GP22*%
X56368000Y-78765400D03*
%TO.P,Q1,2,B*%
%TO.N,CJD*%
X55098000Y-77495400D03*
D27*
%TO.P,Q1,1,E*%
%TO.N,I2C_GND*%
X53828000Y-78765400D03*
%TD*%
D25*
%TO.P,SW1,1,1*%
%TO.N,I2C_GND*%
X114071400Y-81305400D03*
%TO.P,SW1,2,2*%
%TO.N,Net-(R20-Pad2)*%
X107721400Y-83845400D03*
%TD*%
D16*
%TO.P,R27,1*%
%TO.N,Net-(J7-PadT)*%
X99579648Y-36928000D03*
D14*
%TO.P,R27,2*%
%TO.N,CJD*%
X99579648Y-42008000D03*
%TD*%
D21*
%TO.P,J5,S*%
%TO.N,I2C_GND*%
X101605824Y-123474000D03*
D20*
%TO.P,J5,T*%
%TO.N,Net-(J5-PadT)*%
X101605824Y-134874000D03*
%TO.P,J5,TN*%
%TO.N,unconnected-(J5-PadTN)*%
X101605824Y-126574000D03*
%TD*%
D14*
%TO.P,R36,2*%
%TO.N,Net-(O3B--)*%
X74422000Y-103686400D03*
D16*
%TO.P,R36,1*%
%TO.N,CJ2*%
X74422000Y-108766400D03*
%TD*%
D14*
%TO.P,R25,2*%
%TO.N,I2C_VCC*%
X69371000Y-66094400D03*
D16*
%TO.P,R25,1*%
%TO.N,CS2*%
X69371000Y-71174400D03*
%TD*%
%TO.P,C10,2*%
%TO.N,I2C_GND*%
X71596000Y-97090701D03*
%TO.P,C10,1*%
%TO.N,Net-(O3B-+)*%
X69596000Y-97090701D03*
%TD*%
%TO.P,R9,1*%
%TO.N,CJ3*%
X109982000Y-102362000D03*
D14*
%TO.P,R9,2*%
%TO.N,Net-(J3-PadT)*%
X109982000Y-107442000D03*
%TD*%
D16*
%TO.P,C13,2*%
%TO.N,I2C_GND*%
X49715352Y-112266600D03*
%TO.P,C13,1*%
%TO.N,Net-(O3C-+)*%
X51715352Y-112266600D03*
%TD*%
%TO.P,R7,1*%
%TO.N,CJ1*%
X93218000Y-110236000D03*
D14*
%TO.P,R7,2*%
%TO.N,Net-(J1-PadT)*%
X93218000Y-115316000D03*
%TD*%
D16*
%TO.P,C7,2*%
%TO.N,I2C_GND*%
X73660000Y-79280000D03*
%TO.P,C7,1*%
%TO.N,CS2*%
X73660000Y-81280000D03*
%TD*%
D14*
%TO.P,R34,2*%
%TO.N,I2C_GND*%
X42619352Y-135126600D03*
D16*
%TO.P,R34,1*%
%TO.N,Net-(O5D--)*%
X42619352Y-140206600D03*
%TD*%
D28*
%TO.P,VR1,*%
%TO.N,*%
X115759400Y-68097400D03*
X106959400Y-68097400D03*
D23*
%TO.P,VR1,1,1*%
%TO.N,I2C_VCC*%
X108859400Y-61097400D03*
%TO.P,VR1,2,2*%
%TO.N,CK1*%
X111359400Y-61097400D03*
%TO.P,VR1,3,3*%
%TO.N,I2C_GND*%
X113859400Y-61097400D03*
%TD*%
D16*
%TO.P,C15,2*%
%TO.N,I2C_GND*%
X65479352Y-53592600D03*
%TO.P,C15,1*%
%TO.N,~*%
X63479352Y-53592600D03*
%TD*%
D22*
%TO.P,LED2,1,K*%
%TO.N,I2C_GND*%
X102880824Y-102616000D03*
D23*
%TO.P,LED2,2,A*%
%TO.N,Net-(LED2-A)*%
X100340824Y-102616000D03*
%TD*%
D28*
%TO.P,VR2,*%
%TO.N,*%
X96232648Y-68087000D03*
X87432648Y-68087000D03*
D23*
%TO.P,VR2,1,1*%
%TO.N,I2C_VCC*%
X89332648Y-61087000D03*
%TO.P,VR2,2,2*%
%TO.N,CK2*%
X91832648Y-61087000D03*
%TO.P,VR2,3,3*%
%TO.N,I2C_GND*%
X94332648Y-61087000D03*
%TD*%
D14*
%TO.P,R3,2*%
%TO.N,GP16*%
X52017352Y-124966600D03*
D16*
%TO.P,R3,1*%
%TO.N,Net-(O5C-+)*%
X46937352Y-124966600D03*
%TD*%
D14*
%TO.P,R4,2*%
%TO.N,GP17*%
X51763352Y-106932600D03*
D16*
%TO.P,R4,1*%
%TO.N,Net-(O3D-+)*%
X46683352Y-106932600D03*
%TD*%
D14*
%TO.P,R39,2*%
%TO.N,Net-(O3C--)*%
X64320000Y-108708400D03*
D16*
%TO.P,R39,1*%
%TO.N,CJ5*%
X69400000Y-108708400D03*
%TD*%
D22*
%TO.P,LED4,1,K*%
%TO.N,I2C_GND*%
X85339000Y-120396000D03*
D23*
%TO.P,LED4,2,A*%
%TO.N,Net-(LED4-A)*%
X87879000Y-120396000D03*
%TD*%
D17*
%TO.P,J12,1,Pin_1*%
%TO.N,TPH SCL {slash} CPC GND*%
X117957600Y-56642000D03*
D18*
%TO.P,J12,2,Pin_2*%
%TO.N,TPH SDA {slash} CPC VCC*%
X117957600Y-54102000D03*
%TO.P,J12,3,Pin_3*%
%TO.N,TPH GND {slash} CPC SCL*%
X117957600Y-51562000D03*
%TO.P,J12,4,Pin_4*%
%TO.N,TPH VCC {slash} CPC SDA*%
X117957600Y-49022000D03*
%TD*%
D16*
%TO.P,C9,2*%
%TO.N,I2C_GND*%
X71596000Y-90994701D03*
%TO.P,C9,1*%
%TO.N,Net-(O3A-+)*%
X69596000Y-90994701D03*
%TD*%
D14*
%TO.P,R40,2*%
%TO.N,Net-(O5D--)*%
X51763352Y-128551600D03*
D16*
%TO.P,R40,1*%
%TO.N,CJ6*%
X46683352Y-128551600D03*
%TD*%
D21*
%TO.P,J6,S*%
%TO.N,I2C_GND*%
X116597648Y-123474000D03*
D20*
%TO.P,J6,T*%
%TO.N,Net-(J6-PadT)*%
X116597648Y-134874000D03*
%TO.P,J6,TN*%
%TO.N,unconnected-(J6-PadTN)*%
X116597648Y-126574000D03*
%TD*%
D22*
%TO.P,LED3,1,K*%
%TO.N,I2C_GND*%
X117872648Y-102616000D03*
D23*
%TO.P,LED3,2,A*%
%TO.N,Net-(LED3-A)*%
X115332648Y-102616000D03*
%TD*%
D16*
%TO.P,R12,1*%
%TO.N,CJ6*%
X109739648Y-131289000D03*
D14*
%TO.P,R12,2*%
%TO.N,Net-(J6-PadT)*%
X109739648Y-136369000D03*
%TD*%
%TO.P,R38,2*%
%TO.N,Net-(O3D--)*%
X64516000Y-128295400D03*
D16*
%TO.P,R38,1*%
%TO.N,CJ4*%
X64516000Y-133375400D03*
%TD*%
D14*
%TO.P,R35,2*%
%TO.N,Net-(O3A--)*%
X74930000Y-136394400D03*
D16*
%TO.P,R35,1*%
%TO.N,CJ1*%
X74930000Y-131314400D03*
%TD*%
%TO.P,R14,1*%
%TO.N,Net-(LED2-A)*%
X96266000Y-98552000D03*
D14*
%TO.P,R14,2*%
%TO.N,CJ2*%
X101346000Y-98552000D03*
%TD*%
D16*
%TO.P,C8,2*%
%TO.N,I2C_GND*%
X73660000Y-75438000D03*
%TO.P,C8,1*%
%TO.N,CS1*%
X73660000Y-73438000D03*
%TD*%
D22*
%TO.P,LED1,1,K*%
%TO.N,I2C_GND*%
X87889000Y-102616000D03*
D23*
%TO.P,LED1,2,A*%
%TO.N,Net-(LED1-A)*%
X85349000Y-102616000D03*
%TD*%
D16*
%TO.P,R15,1*%
%TO.N,Net-(LED3-A)*%
X115581648Y-98806000D03*
D14*
%TO.P,R15,2*%
%TO.N,CJ3*%
X110501648Y-98806000D03*
%TD*%
D16*
%TO.P,C6,2*%
%TO.N,-12V*%
X59452000Y-45237400D03*
%TO.P,C6,1*%
%TO.N,I2C_GND*%
X57452000Y-45237400D03*
%TD*%
D14*
%TO.P,R33,2*%
%TO.N,I2C_GND*%
X64516000Y-117315400D03*
D16*
%TO.P,R33,1*%
%TO.N,Net-(O3C--)*%
X64516000Y-112235400D03*
%TD*%
D18*
%TO.P,J16,8,Pin_8*%
%TO.N,TPH SCL {slash} CPC GND*%
X70866000Y-37109400D03*
%TO.P,J16,7,Pin_7*%
%TO.N,I2C_GND*%
X73406000Y-37109400D03*
%TO.P,J16,6,Pin_6*%
%TO.N,GP0*%
X75946000Y-37109400D03*
%TO.P,J16,5,Pin_5*%
%TO.N,TPH VCC {slash} CPC SDA*%
X78486000Y-37109400D03*
%TO.P,J16,4,Pin_4*%
%TO.N,I2C_VCC*%
X70866000Y-39649400D03*
%TO.P,J16,3,Pin_3*%
%TO.N,TPH SDA {slash} CPC VCC*%
X73406000Y-39649400D03*
%TO.P,J16,2,Pin_2*%
%TO.N,TPH GND {slash} CPC SCL*%
X75946000Y-39649400D03*
D17*
%TO.P,J16,1,Pin_1*%
%TO.N,GP1*%
X78486000Y-39649400D03*
%TD*%
D18*
%TO.P,J15,4,Pin_4*%
%TO.N,GP2*%
X77470000Y-57150000D03*
%TO.P,J15,3,Pin_3*%
%TO.N,GP3*%
X77470000Y-59690000D03*
%TO.P,J15,2,Pin_2*%
%TO.N,I2C_VCC*%
X77470000Y-62230000D03*
D17*
%TO.P,J15,1,Pin_1*%
%TO.N,I2C_GND*%
X77470000Y-64770000D03*
%TD*%
D16*
%TO.P,U2,40,VBUS*%
%TO.N,unconnected-(U2-VBUS-Pad40)*%
X60546000Y-75841400D03*
%TO.P,U2,39,VSYS*%
%TO.N,Net-(D2-K)*%
X60546000Y-78381400D03*
D29*
%TO.P,U2,38,GND*%
%TO.N,I2C_GND*%
X60546000Y-80921400D03*
D16*
%TO.P,U2,37,3V3_EN*%
%TO.N,unconnected-(U2-3V3_EN-Pad37)*%
X60546000Y-83461400D03*
%TO.P,U2,36,3V3*%
%TO.N,I2C_VCC*%
X60546000Y-86001400D03*
%TO.P,U2,35,ADC_VREF*%
%TO.N,unconnected-(U2-ADC_VREF-Pad35)*%
X60546000Y-88541400D03*
%TO.P,U2,34,GP28*%
%TO.N,CK2*%
X60546000Y-91081400D03*
D29*
%TO.P,U2,33,GND*%
%TO.N,I2C_GND*%
X60546000Y-93621400D03*
D16*
%TO.P,U2,32,GP27*%
%TO.N,CK1*%
X60546000Y-96161400D03*
%TO.P,U2,31,GP26*%
%TO.N,GP26*%
X60546000Y-98701400D03*
%TO.P,U2,30,RUN*%
%TO.N,unconnected-(U2-RUN-Pad30)*%
X60546000Y-101241400D03*
%TO.P,U2,29,GP22*%
%TO.N,GP22*%
X60546000Y-103781400D03*
D29*
%TO.P,U2,28,GND*%
%TO.N,I2C_GND*%
X60546000Y-106321400D03*
D16*
%TO.P,U2,27,GP21*%
%TO.N,GP21*%
X60546000Y-108861400D03*
%TO.P,U2,26,GP20*%
%TO.N,GP20*%
X60546000Y-111401400D03*
%TO.P,U2,25,GP19*%
%TO.N,GP19*%
X60546000Y-113941400D03*
%TO.P,U2,24,GP18*%
%TO.N,GP18*%
X60546000Y-116481400D03*
D29*
%TO.P,U2,23,GND*%
%TO.N,I2C_GND*%
X60546000Y-119021400D03*
D16*
%TO.P,U2,22,GP17*%
%TO.N,GP17*%
X60546000Y-121561400D03*
%TO.P,U2,21,GP16*%
%TO.N,GP16*%
X60546000Y-124101400D03*
%TO.P,U2,20,GP15*%
%TO.N,unconnected-(U2-GP15-Pad20)*%
X78326000Y-124101400D03*
%TO.P,U2,19,GP14*%
%TO.N,unconnected-(U2-GP14-Pad19)*%
X78326000Y-121561400D03*
D30*
%TO.P,U2,18,GND*%
%TO.N,I2C_GND*%
X78326000Y-119021400D03*
D16*
%TO.P,U2,17,GP13*%
%TO.N,unconnected-(U2-GP13-Pad17)*%
X78326000Y-116481400D03*
%TO.P,U2,16,GP12*%
%TO.N,unconnected-(U2-GP12-Pad16)*%
X78326000Y-113941400D03*
%TO.P,U2,15,GP11*%
%TO.N,unconnected-(U2-GP11-Pad15)*%
X78326000Y-111401400D03*
%TO.P,U2,14,GP10*%
%TO.N,unconnected-(U2-GP10-Pad14)*%
X78326000Y-108861400D03*
D30*
%TO.P,U2,13,GND*%
%TO.N,I2C_GND*%
X78326000Y-106321400D03*
D16*
%TO.P,U2,12,GP9*%
%TO.N,unconnected-(U2-GP9-Pad12)*%
X78326000Y-103781400D03*
%TO.P,U2,11,GP8*%
%TO.N,unconnected-(U2-GP8-Pad11)*%
X78326000Y-101241400D03*
%TO.P,U2,10,GP7*%
%TO.N,unconnected-(U2-GP7-Pad10)*%
X78326000Y-98701400D03*
%TO.P,U2,9,GP6*%
%TO.N,unconnected-(U2-GP6-Pad9)*%
X78326000Y-96161400D03*
D30*
%TO.P,U2,8,GND*%
%TO.N,I2C_GND*%
X78326000Y-93621400D03*
D16*
%TO.P,U2,7,GP5*%
%TO.N,CS2*%
X78326000Y-91081400D03*
%TO.P,U2,6,GP4*%
%TO.N,CS1*%
X78326000Y-88541400D03*
%TO.P,U2,5,GP3*%
%TO.N,GP3*%
X78326000Y-86001400D03*
%TO.P,U2,4,GP2*%
%TO.N,GP2*%
X78326000Y-83461400D03*
D30*
%TO.P,U2,3,GND*%
%TO.N,I2C_GND*%
X78326000Y-80921400D03*
D16*
%TO.P,U2,2,GP1*%
%TO.N,GP1*%
X78326000Y-78381400D03*
D31*
%TO.P,U2,1,GP0*%
%TO.N,GP0*%
X78326000Y-75841400D03*
%TD*%
D17*
%TO.P,J19,1,Pin_1*%
%TO.N,TPH SCL {slash} CPC GND*%
X114211500Y-56642000D03*
D18*
%TO.P,J19,2,Pin_2*%
%TO.N,TPH SDA {slash} CPC VCC*%
X114211500Y-54102000D03*
%TO.P,J19,3,Pin_3*%
%TO.N,TPH GND {slash} CPC SCL*%
X114211500Y-51562000D03*
%TO.P,J19,4,Pin_4*%
%TO.N,TPH VCC {slash} CPC SDA*%
X114211500Y-49022000D03*
%TD*%
D17*
%TO.P,J17,1,Pin_1*%
%TO.N,CJD*%
X83058000Y-68580000D03*
D18*
%TO.P,J17,2,Pin_2*%
%TO.N,CJA*%
X83058000Y-71120000D03*
%TO.P,J17,3,Pin_3*%
%TO.N,CK1*%
X83058000Y-73660000D03*
%TO.P,J17,4,Pin_4*%
%TO.N,CK2*%
X83058000Y-76200000D03*
%TO.P,J17,5,Pin_5*%
%TO.N,CS1*%
X83058000Y-78740000D03*
%TO.P,J17,6,Pin_6*%
%TO.N,CS2*%
X83058000Y-81280000D03*
%TO.P,J17,7,Pin_7*%
%TO.N,CJ6*%
X83058000Y-83820000D03*
%TO.P,J17,8,Pin_8*%
%TO.N,CJ5*%
X83058000Y-86360000D03*
%TO.P,J17,9,Pin_9*%
%TO.N,CJ4*%
X83058000Y-88900000D03*
%TO.P,J17,10,Pin_10*%
%TO.N,CJ3*%
X83058000Y-91440000D03*
%TO.P,J17,11,Pin_11*%
%TO.N,CJ2*%
X83058000Y-93980000D03*
%TO.P,J17,12,Pin_12*%
%TO.N,CJ1*%
X83058000Y-96520000D03*
%TO.P,J17,13,Pin_13*%
%TO.N,I2C_GND*%
X83058000Y-99060000D03*
%TD*%
D32*
%TO.N,-12V*%
X64770000Y-68351400D03*
X70484377Y-120037635D03*
X75184000Y-95806177D03*
X75184000Y-90424000D03*
%TO.N,Net-(O3D-+)*%
X63049585Y-122757775D03*
X58165992Y-122682000D03*
%TO.N,GP26*%
X62738000Y-84719900D03*
X62826262Y-81226462D03*
%TO.N,Net-(O1A--)*%
X62992000Y-98298000D03*
X67124146Y-79884267D03*
X67056000Y-88392000D03*
%TO.N,Net-(O5C--)*%
X46683352Y-134110600D03*
%TO.N,Net-(R19-Pad2)*%
X99296000Y-81044000D03*
%TO.N,CK1*%
X44903370Y-82003610D03*
%TO.N,CJ2*%
X70612000Y-104394000D03*
X57974723Y-101991229D03*
%TO.N,CJ4*%
X93218000Y-92456000D03*
%TO.N,CJ6*%
X99568000Y-87630000D03*
X44905352Y-100328600D03*
X99568000Y-91948000D03*
X47445352Y-97788600D03*
%TO.N,CJA*%
X63838575Y-89831407D03*
X71120000Y-100584000D03*
%TO.N,CS2*%
X68834000Y-87376000D03*
X94804634Y-76930000D03*
%TO.N,~*%
X69596000Y-64008000D03*
X77216000Y-69596000D03*
%TD*%
D33*
%TO.N,CJ3*%
X110501648Y-101842352D02*
X109982000Y-102362000D01*
X110501648Y-98806000D02*
X110501648Y-101842352D01*
X106150000Y-94466000D02*
X110490000Y-98806000D01*
X87508856Y-94466000D02*
X106150000Y-94466000D01*
X84482856Y-91440000D02*
X87508856Y-94466000D01*
X110490000Y-98806000D02*
X110501648Y-98806000D01*
X83058000Y-91440000D02*
X84482856Y-91440000D01*
%TO.N,Net-(J3-PadT)*%
X109982000Y-110478352D02*
X109982000Y-107442000D01*
X116597648Y-117094000D02*
X109982000Y-110478352D01*
%TO.N,~*%
X63479352Y-48004600D02*
X63479352Y-53592600D01*
X63479352Y-42416600D02*
X63479352Y-48004600D01*
X59383352Y-38320600D02*
X63479352Y-42416600D01*
X59383352Y-37773600D02*
X59383352Y-38320600D01*
X58138752Y-36529000D02*
X59383352Y-37773600D01*
X53993352Y-36529000D02*
X58138752Y-36529000D01*
%TO.N,Net-(R20-Pad2)*%
X107594400Y-83845400D02*
X102235000Y-78486000D01*
X102235000Y-78486000D02*
X102235000Y-75692000D01*
X107721400Y-83845400D02*
X107594400Y-83845400D01*
%TO.N,CS1*%
X97917000Y-74930000D02*
X102235000Y-70612000D01*
X87246697Y-78740000D02*
X91056697Y-74930000D01*
X91056697Y-74930000D02*
X97917000Y-74930000D01*
X83058000Y-78740000D02*
X87246697Y-78740000D01*
%TO.N,CK1*%
X111359400Y-61449808D02*
X111359400Y-61097400D01*
X108928208Y-63881000D02*
X111359400Y-61449808D01*
X101633510Y-63881000D02*
X108928208Y-63881000D01*
X99706648Y-65807862D02*
X101633510Y-63881000D01*
X90228271Y-72930000D02*
X96199843Y-72930000D01*
X99706648Y-69423195D02*
X99706648Y-65807862D01*
X89498271Y-73660000D02*
X90228271Y-72930000D01*
X86498648Y-73660000D02*
X89498271Y-73660000D01*
X96199843Y-72930000D02*
X99706648Y-69423195D01*
X86403648Y-73755000D02*
X86498648Y-73660000D01*
X83153000Y-73755000D02*
X86403648Y-73755000D01*
X83058000Y-73660000D02*
X83153000Y-73755000D01*
%TO.N,Net-(LED3-A)*%
X115581648Y-98806000D02*
X115581648Y-102367000D01*
X115581648Y-102367000D02*
X115332648Y-102616000D01*
%TO.N,Net-(LED2-A)*%
X100340824Y-102118824D02*
X100340824Y-102616000D01*
X96774000Y-98552000D02*
X100340824Y-102118824D01*
X96266000Y-98552000D02*
X96774000Y-98552000D01*
%TO.N,Net-(J7-PadT)*%
X104703785Y-36928000D02*
X99579648Y-36928000D01*
X107061000Y-39285215D02*
X104703785Y-36928000D01*
X107061000Y-40690800D02*
X107061000Y-39285215D01*
%TO.N,TPH VCC {slash} CPC SDA*%
X117838500Y-49022000D02*
X117869500Y-49053000D01*
X108966000Y-49022000D02*
X117838500Y-49022000D01*
X108204000Y-49784000D02*
X108966000Y-49022000D01*
%TO.N,TPH SCL {slash} CPC GND*%
X114211500Y-56642000D02*
X117838500Y-56642000D01*
X117838500Y-56642000D02*
X117869500Y-56673000D01*
%TO.N,TPH GND {slash} CPC SCL*%
X117838500Y-51562000D02*
X117869500Y-51593000D01*
X114211500Y-51562000D02*
X117838500Y-51562000D01*
%TO.N,TPH SDA {slash} CPC VCC*%
X117926600Y-54133000D02*
X117957600Y-54102000D01*
X112081919Y-54864000D02*
X112812919Y-54133000D01*
X108204000Y-54864000D02*
X112081919Y-54864000D01*
X112812919Y-54133000D02*
X117926600Y-54133000D01*
%TO.N,I2C_VCC*%
X108440000Y-58810000D02*
X108859400Y-59229400D01*
X108859400Y-59229400D02*
X108859400Y-61097400D01*
X106172000Y-58810000D02*
X108440000Y-58810000D01*
D34*
%TO.N,Net-(J5-PadT)*%
X101605824Y-134874000D02*
X101854000Y-134874000D01*
%TO.N,-12V*%
X67564000Y-120167400D02*
X70354612Y-120167400D01*
X59452000Y-50825400D02*
X59452000Y-55651400D01*
X70354612Y-120167400D02*
X70484377Y-120037635D01*
X75184000Y-90424000D02*
X75184000Y-95806177D01*
X59452000Y-50825400D02*
X59452000Y-45237400D01*
D33*
X54911400Y-58213400D02*
X58372600Y-58213400D01*
X54102000Y-57404000D02*
X54911400Y-58213400D01*
D34*
X59452000Y-55651400D02*
X59452000Y-56605432D01*
D33*
X59452000Y-57134000D02*
X59452000Y-56413400D01*
D35*
X59498000Y-56221400D02*
X59690000Y-56413400D01*
D34*
X59452000Y-55651400D02*
X59452000Y-56413400D01*
D35*
X59452000Y-56221400D02*
X59498000Y-56221400D01*
D34*
X64288000Y-61249400D02*
X64288000Y-67869400D01*
X64288000Y-67869400D02*
X64770000Y-68351400D01*
D33*
X58372600Y-58213400D02*
X59452000Y-57134000D01*
D34*
X59452000Y-56413400D02*
X64288000Y-61249400D01*
D36*
%TO.N,Net-(O3A-+)*%
X75184000Y-121935167D02*
X70650000Y-117401167D01*
X68230699Y-90994701D02*
X64995000Y-94230400D01*
X69596000Y-90994701D02*
X68230699Y-90994701D01*
X66294000Y-95529400D02*
X64995000Y-94230400D01*
X66294000Y-103834632D02*
X66294000Y-95529400D01*
X70650000Y-108190632D02*
X66294000Y-103834632D01*
X75184000Y-122707400D02*
X75184000Y-121935167D01*
X70650000Y-117401167D02*
X70650000Y-108190632D01*
%TO.N,Net-(O5C-+)*%
X54181352Y-130178600D02*
X56081352Y-132078600D01*
X46937352Y-125825362D02*
X51290590Y-130178600D01*
X43889352Y-121918600D02*
X46937352Y-124966600D01*
X51290590Y-130178600D02*
X54181352Y-130178600D01*
X46937352Y-124966600D02*
X46937352Y-125825362D01*
X43889352Y-118870600D02*
X43889352Y-121918600D01*
%TO.N,Net-(O3D-+)*%
X46683352Y-106932600D02*
X46683352Y-109456600D01*
X53104592Y-117620600D02*
X58165992Y-122682000D01*
X46683352Y-109456600D02*
X43873352Y-112266600D01*
X43873352Y-112266600D02*
X49227352Y-117620600D01*
X63099960Y-122707400D02*
X63049585Y-122757775D01*
X67564000Y-122707400D02*
X63099960Y-122707400D01*
X49227352Y-117620600D02*
X53104592Y-117620600D01*
%TO.N,Net-(O3C-+)*%
X51715352Y-112266600D02*
X54782352Y-112266600D01*
X54782352Y-112266600D02*
X56335352Y-110713600D01*
%TO.N,Net-(O5D-+)*%
X53033352Y-127760600D02*
X55319352Y-127760600D01*
X50767352Y-119834600D02*
X50767352Y-125494600D01*
X50767352Y-125494600D02*
X53033352Y-127760600D01*
X51731352Y-118870600D02*
X50767352Y-119834600D01*
D34*
%TO.N,Net-(D2-K)*%
X56218000Y-73939400D02*
X56218000Y-74053400D01*
X56218000Y-74053400D02*
X60546000Y-78381400D01*
D33*
%TO.N,Net-(D3-K)*%
X49731352Y-58164600D02*
X47699352Y-58164600D01*
X47699352Y-58164600D02*
X45159352Y-58164600D01*
X54102000Y-54864000D02*
X53031952Y-54864000D01*
X53031952Y-54864000D02*
X49731352Y-58164600D01*
%TO.N,Net-(D4-A)*%
X53993352Y-43488600D02*
X49477352Y-48004600D01*
X53993352Y-39069000D02*
X53993352Y-43488600D01*
X49477352Y-48004600D02*
X45223661Y-48004600D01*
%TO.N,Net-(J1-PadT)*%
X91440000Y-117094000D02*
X86614000Y-117094000D01*
X93218000Y-115316000D02*
X91440000Y-117094000D01*
%TO.N,Net-(J2-PadT)*%
X105918000Y-103095000D02*
X105918000Y-113030000D01*
X105918000Y-113030000D02*
X101854000Y-117094000D01*
%TO.N,Net-(J4-PadT)*%
X93472000Y-133858000D02*
X92456000Y-134874000D01*
X92456000Y-134874000D02*
X86614000Y-134874000D01*
%TO.N,Net-(J5-PadT)*%
X105693000Y-120396000D02*
X105693000Y-131035000D01*
X105693000Y-131035000D02*
X101854000Y-134874000D01*
%TO.N,Net-(J6-PadT)*%
X110980648Y-135128000D02*
X111517648Y-135128000D01*
X109739648Y-136369000D02*
X110980648Y-135128000D01*
X111517648Y-135128000D02*
X111771648Y-134874000D01*
X111771648Y-134874000D02*
X116597648Y-134874000D01*
%TO.N,Net-(J8-PadT)*%
X97118648Y-39642000D02*
X96120648Y-40640000D01*
X103516648Y-39642000D02*
X97118648Y-39642000D01*
%TO.N,Net-(LED1-A)*%
X90039000Y-100466000D02*
X85739000Y-100466000D01*
X90903000Y-102616000D02*
X90903000Y-101330000D01*
X90903000Y-101330000D02*
X90039000Y-100466000D01*
X85349000Y-100856000D02*
X85349000Y-102616000D01*
X85739000Y-100466000D02*
X85349000Y-100856000D01*
%TO.N,Net-(LED4-A)*%
X88138000Y-120396000D02*
X88363000Y-120621000D01*
X87879000Y-120396000D02*
X88138000Y-120396000D01*
X93472000Y-120621000D02*
X88363000Y-120621000D01*
%TO.N,Net-(LED5-A)*%
X102870824Y-119351081D02*
X108458000Y-113763905D01*
X102870824Y-120396000D02*
X102870824Y-119351081D01*
X108458000Y-113763905D02*
X108458000Y-112493000D01*
%TO.N,Net-(LED6-A)*%
X115332648Y-120396000D02*
X115332648Y-120650000D01*
X112342648Y-123640000D02*
X109739648Y-123640000D01*
X115332648Y-120650000D02*
X112342648Y-123640000D01*
D36*
%TO.N,GP26*%
X62738000Y-81314724D02*
X62826262Y-81226462D01*
X62738000Y-84719900D02*
X62738000Y-81314724D01*
%TO.N,Net-(O1A--)*%
X62446000Y-103670000D02*
X61084600Y-105031400D01*
X58365233Y-104194400D02*
X55118000Y-104194400D01*
X67124146Y-88323854D02*
X67056000Y-88392000D01*
X52552152Y-104194400D02*
X51226352Y-102868600D01*
X62446000Y-98844000D02*
X62446000Y-103670000D01*
X67124146Y-79884267D02*
X67124146Y-88323854D01*
X55118000Y-104194400D02*
X52552152Y-104194400D01*
X62992000Y-98298000D02*
X62446000Y-98844000D01*
X59202233Y-105031400D02*
X58365233Y-104194400D01*
X61084600Y-105031400D02*
X59202233Y-105031400D01*
%TO.N,Net-(O3A--)*%
X68326000Y-131372400D02*
X69457370Y-131372400D01*
X74479370Y-136394400D02*
X74930000Y-136394400D01*
X69457370Y-131372400D02*
X74479370Y-136394400D01*
%TO.N,Net-(O3B--)*%
X76434000Y-105698400D02*
X76434000Y-113837400D01*
X76434000Y-131578167D02*
X75424167Y-132588000D01*
X72872600Y-132588000D02*
X71628000Y-131343400D01*
X76434000Y-116337400D02*
X76434000Y-131578167D01*
X76434000Y-113837400D02*
X75184000Y-115087400D01*
X74422000Y-103686400D02*
X76434000Y-105698400D01*
X75424167Y-132588000D02*
X72872600Y-132588000D01*
X75184000Y-115087400D02*
X76434000Y-116337400D01*
%TO.N,Net-(O3C--)*%
X67368000Y-115087400D02*
X67564000Y-115087400D01*
X64320000Y-108708400D02*
X64320000Y-112039400D01*
X64320000Y-112039400D02*
X67368000Y-115087400D01*
%TO.N,Net-(O5-Pad7)*%
X46937352Y-126744600D02*
X51021352Y-130828600D01*
X72132352Y-140694600D02*
X73382352Y-139444600D01*
X61161352Y-139698600D02*
X62157352Y-140694600D01*
X46146352Y-102868600D02*
X41857352Y-107157600D01*
X58143585Y-138448600D02*
X59911352Y-138448600D01*
X41857352Y-107157600D02*
X41857352Y-123442600D01*
X59911352Y-138448600D02*
X61161352Y-139698600D01*
X52271352Y-131570600D02*
X52271352Y-132576367D01*
X51529352Y-130828600D02*
X52271352Y-131570600D01*
X41857352Y-123442600D02*
X45159352Y-126744600D01*
X62157352Y-140694600D02*
X72132352Y-140694600D01*
X51021352Y-130828600D02*
X51529352Y-130828600D01*
X52271352Y-132576367D02*
X58143585Y-138448600D01*
X45159352Y-126744600D02*
X46937352Y-126744600D01*
%TO.N,Net-(O5C--)*%
X58621352Y-132586600D02*
X58621352Y-132078600D01*
X46185585Y-134110600D02*
X46683352Y-134110600D01*
X65479352Y-139444600D02*
X58621352Y-132586600D01*
X42619352Y-130544367D02*
X46185585Y-134110600D01*
X42619352Y-127702600D02*
X42619352Y-130300600D01*
X42619352Y-130300600D02*
X42619352Y-130544367D01*
%TO.N,Net-(O5D--)*%
X48461352Y-134364600D02*
X42619352Y-140206600D01*
X48461352Y-132078600D02*
X48461352Y-134364600D01*
%TO.N,GP22*%
X65794999Y-90411401D02*
X64995000Y-91211400D01*
X60028233Y-87251400D02*
X63882903Y-87251400D01*
X63882903Y-87251400D02*
X65794999Y-89163496D01*
X65794999Y-89163496D02*
X65794999Y-90411401D01*
X56368000Y-83591167D02*
X60028233Y-87251400D01*
X60546000Y-103781400D02*
X61796000Y-102531400D01*
X56368000Y-78765400D02*
X56368000Y-83591167D01*
X61796000Y-102531400D02*
X61796000Y-94410400D01*
X61796000Y-94410400D02*
X64995000Y-91211400D01*
%TO.N,GP21*%
X63295000Y-106112400D02*
X63295000Y-101010400D01*
X63295000Y-101010400D02*
X64995000Y-99310400D01*
X60546000Y-108861400D02*
X63295000Y-106112400D01*
%TO.N,GP20*%
X60546000Y-111401400D02*
X61796000Y-110151400D01*
X61796000Y-108638000D02*
X64545000Y-105889000D01*
X64545000Y-105889000D02*
X64545000Y-102133400D01*
X61796000Y-110151400D02*
X61796000Y-108638000D01*
%TO.N,GP16*%
X60546000Y-124101400D02*
X52882552Y-124101400D01*
X52882552Y-124101400D02*
X52017352Y-124966600D01*
%TO.N,GP17*%
X59290938Y-120306338D02*
X59290938Y-118472938D01*
X57585352Y-116767352D02*
X59290938Y-118472938D01*
X57585352Y-110195833D02*
X57585352Y-116767352D01*
X60546000Y-121561400D02*
X59290938Y-120306338D01*
X54294352Y-109463600D02*
X56853119Y-109463600D01*
X51763352Y-106932600D02*
X54294352Y-109463600D01*
X56853119Y-109463600D02*
X57585352Y-110195833D01*
%TO.N,GP19*%
X62099585Y-115494985D02*
X60546000Y-113941400D01*
X60399352Y-127760600D02*
X62099585Y-126060367D01*
X62099585Y-126060367D02*
X62099585Y-115494985D01*
D33*
%TO.N,Net-(R19-Pad2)*%
X87884000Y-83820000D02*
X88983999Y-82720001D01*
X92296642Y-82720001D02*
X93206641Y-83630000D01*
X93206641Y-83630000D02*
X96710000Y-83630000D01*
X88983999Y-82720001D02*
X92296642Y-82720001D01*
X96710000Y-83630000D02*
X99296000Y-81044000D01*
D36*
%TO.N,Net-(O3B-+)*%
X69625000Y-102133400D02*
X69625000Y-106246394D01*
X73660000Y-110281394D02*
X73660000Y-116103400D01*
X69625000Y-106246394D02*
X73660000Y-110281394D01*
X69596000Y-102104400D02*
X69625000Y-102133400D01*
X73660000Y-116103400D02*
X75184000Y-117627400D01*
X69596000Y-97090701D02*
X69596000Y-102104400D01*
D33*
%TO.N,CJD*%
X99579648Y-42037000D02*
X83058000Y-58558648D01*
D34*
X48260000Y-73840497D02*
X42999503Y-68580000D01*
X48260000Y-76987400D02*
X48260000Y-73840497D01*
X48260000Y-76987400D02*
X54590000Y-76987400D01*
D33*
X83058000Y-58558648D02*
X83058000Y-68580000D01*
D34*
X42999503Y-68580000D02*
X42189000Y-68580000D01*
X54590000Y-76987400D02*
X55098000Y-77495400D01*
D33*
X99579648Y-42008000D02*
X99579648Y-42037000D01*
D36*
%TO.N,CK1*%
X59061160Y-96161400D02*
X44903370Y-82003610D01*
X60546000Y-96161400D02*
X59061160Y-96161400D01*
%TO.N,CK2*%
X60546000Y-91081400D02*
X55470152Y-91081400D01*
X55470152Y-91081400D02*
X43718000Y-79329248D01*
X43718000Y-79329248D02*
X43718000Y-77500000D01*
X43718000Y-77500000D02*
X42418000Y-76200000D01*
%TO.N,CJ1*%
X51508119Y-104118600D02*
X50473352Y-104118600D01*
X69586233Y-121417400D02*
X67046233Y-121417400D01*
X63266000Y-114893633D02*
X61063767Y-112691400D01*
D33*
X91833000Y-98466000D02*
X95983000Y-102616000D01*
D36*
X63266000Y-117833167D02*
X63266000Y-114893633D01*
X57122357Y-108813600D02*
X56203119Y-108813600D01*
X61063767Y-112691400D02*
X60028233Y-112691400D01*
X60028233Y-112691400D02*
X58235352Y-110898519D01*
X66314000Y-120685167D02*
X66314000Y-119908000D01*
D33*
X83058000Y-96520000D02*
X83906000Y-96520000D01*
D36*
X50473352Y-104118600D02*
X42874752Y-96520000D01*
D33*
X93218000Y-104140000D02*
X93218000Y-110236000D01*
D36*
X75184000Y-127787400D02*
X75184000Y-127015167D01*
X42874752Y-96520000D02*
X42418000Y-96520000D01*
D33*
X85852000Y-98466000D02*
X91833000Y-98466000D01*
D36*
X75184000Y-127787400D02*
X75184000Y-131060400D01*
X66314000Y-119908000D02*
X65323400Y-118917400D01*
D33*
X95983000Y-102616000D02*
X94742000Y-102616000D01*
D36*
X75184000Y-131060400D02*
X74930000Y-131314400D01*
X65323400Y-118917400D02*
X64350233Y-118917400D01*
D33*
X83906000Y-96520000D02*
X85852000Y-98466000D01*
X94742000Y-102616000D02*
X93218000Y-104140000D01*
D36*
X67046233Y-121417400D02*
X66314000Y-120685167D01*
X75184000Y-127015167D02*
X69586233Y-121417400D01*
X56203119Y-108813600D02*
X51508119Y-104118600D01*
X58235352Y-110898519D02*
X58235352Y-109926594D01*
X58235352Y-109926594D02*
X57122357Y-108813600D01*
X64350233Y-118917400D02*
X63266000Y-117833167D01*
D33*
%TO.N,CJ2*%
X86680428Y-96466000D02*
X99260000Y-96466000D01*
X105381000Y-98552000D02*
X105918000Y-98015000D01*
D36*
X44958000Y-96520000D02*
X44958000Y-97355503D01*
X74422000Y-108766400D02*
X70612000Y-104956400D01*
X75184000Y-109528400D02*
X74422000Y-108766400D01*
X49201097Y-101598600D02*
X57582094Y-101598600D01*
D33*
X84194428Y-93980000D02*
X86680428Y-96466000D01*
X83058000Y-93980000D02*
X84194428Y-93980000D01*
D36*
X75184000Y-112547400D02*
X75184000Y-109528400D01*
X42418000Y-93980000D02*
X44958000Y-96520000D01*
D33*
X101346000Y-98552000D02*
X105381000Y-98552000D01*
D36*
X70612000Y-104956400D02*
X70612000Y-104394000D01*
D33*
X99260000Y-96466000D02*
X101346000Y-98552000D01*
D36*
X44958000Y-97355503D02*
X49201097Y-101598600D01*
X57582094Y-101598600D02*
X57974723Y-101991229D01*
%TO.N,CJ3*%
X70559352Y-139444600D02*
X68527352Y-139444600D01*
X68527352Y-139444600D02*
X61161352Y-132078600D01*
%TO.N,CJ4*%
X64516000Y-130835400D02*
X64516000Y-133375400D01*
D33*
X93472000Y-125701000D02*
X93472000Y-128778000D01*
X88327284Y-92456000D02*
X84771284Y-88900000D01*
D36*
X67564000Y-127787400D02*
X64516000Y-130835400D01*
D33*
X84771284Y-88900000D02*
X83058000Y-88900000D01*
X93218000Y-92456000D02*
X88327284Y-92456000D01*
%TO.N,CJ5*%
X108458000Y-118081000D02*
X110773000Y-120396000D01*
X108458000Y-117573000D02*
X108458000Y-118081000D01*
D36*
X67564000Y-110544400D02*
X69400000Y-108708400D01*
X67564000Y-112547400D02*
X67564000Y-110544400D01*
%TO.N,CJ6*%
X49276000Y-90678000D02*
X42418000Y-83820000D01*
X45921352Y-129313600D02*
X45921352Y-132078600D01*
X45551982Y-128551600D02*
X46683352Y-128551600D01*
D33*
X99568000Y-87630000D02*
X99568000Y-91948000D01*
D36*
X44905352Y-100328600D02*
X41973352Y-103260600D01*
X41973352Y-103260600D02*
X41973352Y-106122362D01*
X47445352Y-97788600D02*
X49276000Y-95957952D01*
D33*
X109739648Y-128720000D02*
X109739648Y-131289000D01*
D36*
X41973352Y-106122362D02*
X41207352Y-106888362D01*
X41207352Y-106888362D02*
X41207352Y-124206970D01*
X41207352Y-124206970D02*
X45551982Y-128551600D01*
X49276000Y-95957952D02*
X49276000Y-90678000D01*
X46683352Y-128551600D02*
X45921352Y-129313600D01*
%TO.N,CJA*%
X44368000Y-78455248D02*
X55744159Y-89831407D01*
X79756000Y-100903633D02*
X79756000Y-138150952D01*
X79756000Y-138150952D02*
X78462352Y-139444600D01*
D33*
X83275000Y-71337000D02*
X88992843Y-71337000D01*
D36*
X78843767Y-99991400D02*
X79756000Y-100903633D01*
X44368000Y-73070000D02*
X44368000Y-78455248D01*
D33*
X90896648Y-69433195D02*
X90896648Y-65477560D01*
D36*
X42418000Y-71120000D02*
X44368000Y-73070000D01*
X71712600Y-99991400D02*
X78843767Y-99991400D01*
D33*
X99942648Y-44722000D02*
X85158000Y-59506648D01*
X88992843Y-71337000D02*
X90896648Y-69433195D01*
X90896648Y-65477560D02*
X85158000Y-59738912D01*
D36*
X71120000Y-100584000D02*
X71712600Y-99991400D01*
D33*
X85158000Y-59738912D02*
X85158000Y-59506648D01*
X83058000Y-71120000D02*
X83275000Y-71337000D01*
D36*
X55744159Y-89831407D02*
X63838575Y-89831407D01*
D33*
X103516648Y-44722000D02*
X99942648Y-44722000D01*
D34*
%TO.N,CS2*%
X73660000Y-81280000D02*
X73660000Y-83929786D01*
D36*
X73660000Y-82550000D02*
X73660000Y-81280000D01*
D34*
X73660000Y-81280000D02*
X73467968Y-81280000D01*
D36*
X68834000Y-87376000D02*
X73660000Y-82550000D01*
D34*
X70643266Y-72446666D02*
X69371000Y-71174400D01*
X73467968Y-81280000D02*
X70643266Y-78455298D01*
D33*
X91885124Y-76930000D02*
X94804634Y-76930000D01*
X87535125Y-81280000D02*
X91885124Y-76930000D01*
D34*
X73660000Y-83929786D02*
X75438000Y-85707786D01*
X70643266Y-78455298D02*
X70643266Y-72446666D01*
X75438000Y-85707786D02*
X75438000Y-88193400D01*
D33*
X83058000Y-81280000D02*
X87535125Y-81280000D01*
D34*
X75438000Y-88193400D02*
X78326000Y-91081400D01*
D33*
%TO.N,I2C_VCC*%
X89333582Y-59395066D02*
X89918648Y-58810000D01*
D34*
X67818000Y-61711000D02*
X67781600Y-61747400D01*
X70866000Y-39649400D02*
X67818000Y-42697400D01*
X64894000Y-75339400D02*
X64894000Y-86001400D01*
X67818000Y-72415400D02*
X67818000Y-67647400D01*
X67818000Y-61711000D02*
X67818000Y-64541400D01*
X67818000Y-58420000D02*
X67818000Y-61711000D01*
X67818000Y-72415400D02*
X64894000Y-75339400D01*
X64894000Y-86001400D02*
X60546000Y-86001400D01*
D33*
X108204000Y-52324000D02*
X107001919Y-52324000D01*
X106104000Y-58742000D02*
X106172000Y-58810000D01*
D34*
X67818000Y-67647400D02*
X69371000Y-66094400D01*
D33*
X89333582Y-61086066D02*
X89333582Y-59395066D01*
D34*
X73660000Y-58420000D02*
X77470000Y-62230000D01*
X67818000Y-42697400D02*
X67818000Y-58420000D01*
X70174400Y-66094400D02*
X72660000Y-68580000D01*
D33*
X106104000Y-53221919D02*
X106104000Y-58742000D01*
D34*
X69371000Y-66094400D02*
X70174400Y-66094400D01*
X67818000Y-64541400D02*
X69371000Y-66094400D01*
D33*
X89918648Y-58810000D02*
X106172000Y-58810000D01*
D34*
X57658000Y-72923400D02*
X67818000Y-72923400D01*
X67818000Y-72923400D02*
X67818000Y-72415400D01*
X67781600Y-61747400D02*
X66069000Y-61747400D01*
D33*
X107001919Y-52324000D02*
X106104000Y-53221919D01*
D34*
X55118000Y-70383400D02*
X57658000Y-72923400D01*
X67818000Y-58420000D02*
X73660000Y-58420000D01*
D36*
%TO.N,TPH GND {slash} CPC SCL*%
X75946000Y-39649400D02*
X75946000Y-49212500D01*
X75946000Y-49212500D02*
X73596500Y-51562000D01*
%TO.N,TPH SDA {slash} CPC VCC*%
X72046500Y-47955556D02*
X72046500Y-52552000D01*
X72046500Y-52552000D02*
X73596500Y-54102000D01*
X73406000Y-46596056D02*
X72046500Y-47955556D01*
X73406000Y-39649400D02*
X73406000Y-46596056D01*
%TO.N,GP3*%
X75776000Y-74428144D02*
X75776000Y-83451400D01*
X75776000Y-83451400D02*
X78326000Y-86001400D01*
X77470000Y-59690000D02*
X78770000Y-60990000D01*
X78770000Y-60990000D02*
X78770000Y-71434144D01*
X78770000Y-71434144D02*
X75776000Y-74428144D01*
%TO.N,GP2*%
X79420000Y-59100000D02*
X79420000Y-71703382D01*
X76426000Y-74697382D02*
X76426000Y-81561400D01*
X79420000Y-71703382D02*
X76426000Y-74697382D01*
X76426000Y-81561400D02*
X78326000Y-83461400D01*
X77470000Y-57150000D02*
X79420000Y-59100000D01*
D33*
%TO.N,Net-(J10-Pin_15)*%
X45223661Y-40384600D02*
X47763661Y-40384600D01*
D34*
%TO.N,+5V*%
X53678000Y-73939400D02*
X53678000Y-72737400D01*
X45223661Y-45298000D02*
X43559352Y-46962309D01*
D33*
X45223661Y-45464600D02*
X47763661Y-45464600D01*
D34*
X53678000Y-72737400D02*
X49530000Y-68589400D01*
X48398630Y-68589400D02*
X49530000Y-68589400D01*
X43559352Y-63750122D02*
X48398630Y-68589400D01*
X43559352Y-46962309D02*
X43559352Y-63750122D01*
D33*
%TO.N,Net-(J10-Pin_13)*%
X45223661Y-42924600D02*
X47763661Y-42924600D01*
D34*
%TO.N,~*%
X76886000Y-69266000D02*
X77216000Y-69596000D01*
D35*
X77216000Y-69342000D02*
X77216000Y-69596000D01*
D34*
X76886000Y-68480741D02*
X76886000Y-69266000D01*
X72413259Y-64008000D02*
X76886000Y-68480741D01*
X69596000Y-64008000D02*
X72413259Y-64008000D01*
D36*
%TO.N,GP1*%
X78486000Y-39649400D02*
X79736000Y-39649400D01*
X80070000Y-71972620D02*
X77076000Y-74966620D01*
X77076000Y-74966620D02*
X77076000Y-77131400D01*
X77076000Y-77131400D02*
X78326000Y-78381400D01*
X80070000Y-39983400D02*
X80070000Y-71972620D01*
X79736000Y-39649400D02*
X80070000Y-39983400D01*
%TO.N,GP0*%
X79128032Y-35559400D02*
X80720000Y-37151368D01*
X80720000Y-73447400D02*
X78326000Y-75841400D01*
X77496000Y-35559400D02*
X79128032Y-35559400D01*
X80720000Y-37151368D02*
X80720000Y-73447400D01*
X75946000Y-37109400D02*
X77496000Y-35559400D01*
%TD*%
M02*
