%TF.GenerationSoftware,KiCad,Pcbnew,7.0.9*%
%TF.CreationDate,2023-11-30T22:47:02+01:00*%
%TF.ProjectId,euroPi-kicad,6575726f-5069-42d6-9b69-6361642e6b69,rev?*%
%TF.SameCoordinates,Original*%
%TF.FileFunction,Copper,L1,Top*%
%TF.FilePolarity,Positive*%
%FSLAX46Y46*%
G04 Gerber Fmt 4.6, Leading zero omitted, Abs format (unit mm)*
G04 Created by KiCad (PCBNEW 7.0.9) date 2023-11-30 22:47:02*
%MOMM*%
%LPD*%
G01*
G04 APERTURE LIST*
G04 Aperture macros list*
%AMRoundRect*
0 Rectangle with rounded corners*
0 $1 Rounding radius*
0 $2 $3 $4 $5 $6 $7 $8 $9 X,Y pos of 4 corners*
0 Add a 4 corners polygon primitive as box body*
4,1,4,$2,$3,$4,$5,$6,$7,$8,$9,$2,$3,0*
0 Add four circle primitives for the rounded corners*
1,1,$1+$1,$2,$3*
1,1,$1+$1,$4,$5*
1,1,$1+$1,$6,$7*
1,1,$1+$1,$8,$9*
0 Add four rect primitives between the rounded corners*
20,1,$1+$1,$2,$3,$4,$5,0*
20,1,$1+$1,$4,$5,$6,$7,0*
20,1,$1+$1,$6,$7,$8,$9,0*
20,1,$1+$1,$8,$9,$2,$3,0*%
%AMFreePoly0*
4,1,28,0.178017,0.779942,0.347107,0.720775,0.498792,0.625465,0.625465,0.498792,0.720775,0.347107,0.779942,0.178017,0.800000,0.000000,0.779942,-0.178017,0.720775,-0.347107,0.625465,-0.498792,0.498792,-0.625465,0.347107,-0.720775,0.178017,-0.779942,0.000000,-0.800000,-0.600000,-0.800000,-0.605014,-0.794986,-0.644504,-0.794986,-0.724698,-0.756366,-0.780194,-0.686777,-0.800000,-0.600000,
-0.800000,0.600000,-0.780194,0.686777,-0.724698,0.756366,-0.644504,0.794986,-0.605014,0.794986,-0.600000,0.800000,0.000000,0.800000,0.178017,0.779942,0.178017,0.779942,$1*%
%AMFreePoly1*
4,1,28,0.605014,0.794986,0.644504,0.794986,0.724698,0.756366,0.780194,0.686777,0.800000,0.600000,0.800000,-0.600000,0.780194,-0.686777,0.724698,-0.756366,0.644504,-0.794986,0.605014,-0.794986,0.600000,-0.800000,0.000000,-0.800000,-0.178017,-0.779942,-0.347107,-0.720775,-0.498792,-0.625465,-0.625465,-0.498792,-0.720775,-0.347107,-0.779942,-0.178017,-0.800000,0.000000,-0.779942,0.178017,
-0.720775,0.347107,-0.625465,0.498792,-0.498792,0.625465,-0.347107,0.720775,-0.178017,0.779942,0.000000,0.800000,0.600000,0.800000,0.605014,0.794986,0.605014,0.794986,$1*%
G04 Aperture macros list end*
%TA.AperFunction,ComponentPad*%
%ADD10O,1.600000X1.600000*%
%TD*%
%TA.AperFunction,ComponentPad*%
%ADD11R,1.600000X1.600000*%
%TD*%
%TA.AperFunction,ComponentPad*%
%ADD12C,1.600000*%
%TD*%
%TA.AperFunction,ComponentPad*%
%ADD13C,2.130000*%
%TD*%
%TA.AperFunction,ComponentPad*%
%ADD14R,1.830000X1.930000*%
%TD*%
%TA.AperFunction,ComponentPad*%
%ADD15R,1.930000X1.830000*%
%TD*%
%TA.AperFunction,ComponentPad*%
%ADD16C,1.800000*%
%TD*%
%TA.AperFunction,ComponentPad*%
%ADD17R,1.800000X1.800000*%
%TD*%
%TA.AperFunction,ComponentPad*%
%ADD18O,1.800000X1.800000*%
%TD*%
%TA.AperFunction,ComponentPad*%
%ADD19C,2.200000*%
%TD*%
%TA.AperFunction,ComponentPad*%
%ADD20O,1.700000X1.700000*%
%TD*%
%TA.AperFunction,ComponentPad*%
%ADD21R,1.700000X1.700000*%
%TD*%
%TA.AperFunction,ComponentPad*%
%ADD22C,1.300000*%
%TD*%
%TA.AperFunction,ComponentPad*%
%ADD23R,1.300000X1.300000*%
%TD*%
%TA.AperFunction,WasherPad*%
%ADD24C,4.000000*%
%TD*%
%TA.AperFunction,ComponentPad*%
%ADD25FreePoly0,180.000000*%
%TD*%
%TA.AperFunction,ComponentPad*%
%ADD26FreePoly1,180.000000*%
%TD*%
%TA.AperFunction,ComponentPad*%
%ADD27RoundRect,0.200000X0.600000X0.600000X-0.600000X0.600000X-0.600000X-0.600000X0.600000X-0.600000X0*%
%TD*%
%TA.AperFunction,ComponentPad*%
%ADD28C,1.700000*%
%TD*%
%TA.AperFunction,ComponentPad*%
%ADD29RoundRect,0.250000X-0.600000X-0.600000X0.600000X-0.600000X0.600000X0.600000X-0.600000X0.600000X0*%
%TD*%
%TA.AperFunction,ComponentPad*%
%ADD30O,1.905000X2.000000*%
%TD*%
%TA.AperFunction,ComponentPad*%
%ADD31R,1.905000X2.000000*%
%TD*%
%TA.AperFunction,ViaPad*%
%ADD32C,0.800000*%
%TD*%
%TA.AperFunction,ViaPad*%
%ADD33C,1.000000*%
%TD*%
%TA.AperFunction,Conductor*%
%ADD34C,1.500000*%
%TD*%
%TA.AperFunction,Conductor*%
%ADD35C,0.400000*%
%TD*%
%TA.AperFunction,Conductor*%
%ADD36C,1.000000*%
%TD*%
%TA.AperFunction,Conductor*%
%ADD37C,0.500000*%
%TD*%
G04 APERTURE END LIST*
D10*
%TO.P,O3,14*%
%TO.N,CJ4*%
X189484000Y-119287400D03*
%TO.P,O3,13,-*%
%TO.N,Net-(O3D--)*%
X189484000Y-116747400D03*
%TO.P,O3,12,+*%
%TO.N,Net-(O3D-+)*%
X189484000Y-114207400D03*
%TO.P,O3,11,V-*%
%TO.N,-12V*%
X189484000Y-111667400D03*
%TO.P,O3,10,+*%
%TO.N,Net-(O3C-+)*%
X189484000Y-109127400D03*
%TO.P,O3,9,-*%
%TO.N,Net-(O3C--)*%
X189484000Y-106587400D03*
%TO.P,O3,8*%
%TO.N,CJ5*%
X189484000Y-104047400D03*
%TO.P,O3,7*%
%TO.N,CJ2*%
X197104000Y-104047400D03*
%TO.P,O3,6,-*%
%TO.N,Net-(O3B--)*%
X197104000Y-106587400D03*
%TO.P,O3,5,+*%
%TO.N,Net-(O3B-+)*%
X197104000Y-109127400D03*
%TO.P,O3,4,V+*%
%TO.N,~*%
X197104000Y-111667400D03*
%TO.P,O3,3,+*%
%TO.N,Net-(O3A-+)*%
X197104000Y-114207400D03*
%TO.P,O3,2,-*%
%TO.N,Net-(O3A--)*%
X197104000Y-116747400D03*
D11*
%TO.P,O3,1*%
%TO.N,CJ1*%
X197104000Y-119287400D03*
%TD*%
D10*
%TO.P,R21,2*%
%TO.N,Net-(O5-Pad7)*%
X195302352Y-130944600D03*
D12*
%TO.P,R21,1*%
%TO.N,CJA*%
X200382352Y-130944600D03*
%TD*%
D10*
%TO.P,R16,2*%
%TO.N,CJ4*%
X93472000Y-117201000D03*
D12*
%TO.P,R16,1*%
%TO.N,Net-(LED4-A)*%
X93472000Y-112121000D03*
%TD*%
D10*
%TO.P,R24,2*%
%TO.N,I2C_VCC*%
X187989000Y-53247400D03*
D12*
%TO.P,R24,1*%
%TO.N,CS1*%
X193069000Y-53247400D03*
%TD*%
D10*
%TO.P,R6,2*%
%TO.N,GP19*%
X182319352Y-119260600D03*
D12*
%TO.P,R6,1*%
%TO.N,Net-(O5D-+)*%
X177239352Y-119260600D03*
%TD*%
D10*
%TO.P,R17,2*%
%TO.N,CJ5*%
X108458000Y-109073000D03*
D12*
%TO.P,R17,1*%
%TO.N,Net-(LED5-A)*%
X108458000Y-103993000D03*
%TD*%
D10*
%TO.P,R20,2*%
%TO.N,Net-(R20-Pad2)*%
X102235000Y-67192000D03*
D12*
%TO.P,R20,1*%
%TO.N,CS1*%
X102235000Y-62112000D03*
%TD*%
%TO.P,C1,2*%
%TO.N,I2C_GND*%
X196580000Y-60080000D03*
%TO.P,C1,1*%
%TO.N,I2C_VCC*%
X194580000Y-60080000D03*
%TD*%
D13*
%TO.P,J8,TN*%
%TO.N,unconnected-(J8-PadTN)*%
X87820648Y-32140000D03*
%TO.P,J8,T*%
%TO.N,Net-(J8-PadT)*%
X96120648Y-32140000D03*
D14*
%TO.P,J8,S*%
%TO.N,I2C_GND*%
X84720648Y-32140000D03*
%TD*%
D10*
%TO.P,R30,2*%
%TO.N,I2C_GND*%
X193548000Y-127923400D03*
D12*
%TO.P,R30,1*%
%TO.N,Net-(O3B--)*%
X193548000Y-122843400D03*
%TD*%
D13*
%TO.P,J4,TN*%
%TO.N,unconnected-(J4-PadTN)*%
X86614000Y-118074000D03*
%TO.P,J4,T*%
%TO.N,Net-(J4-PadT)*%
X86614000Y-126374000D03*
D15*
%TO.P,J4,S*%
%TO.N,I2C_GND*%
X86614000Y-114974000D03*
%TD*%
D16*
%TO.P,LED6,2,A*%
%TO.N,Net-(LED6-A)*%
X115332648Y-111896000D03*
D17*
%TO.P,LED6,1,K*%
%TO.N,I2C_GND*%
X117872648Y-111896000D03*
%TD*%
D10*
%TO.P,R26,2*%
%TO.N,GP22*%
X186915000Y-82711400D03*
D12*
%TO.P,R26,1*%
%TO.N,I2C_VCC*%
X186915000Y-77631400D03*
%TD*%
D10*
%TO.P,R22,2*%
%TO.N,Net-(O1A--)*%
X173146352Y-94368600D03*
D12*
%TO.P,R22,1*%
%TO.N,Net-(O5-Pad7)*%
X168066352Y-94368600D03*
%TD*%
D10*
%TO.P,R13,2*%
%TO.N,CJ1*%
X95983000Y-94116000D03*
D12*
%TO.P,R13,1*%
%TO.N,Net-(LED1-A)*%
X90903000Y-94116000D03*
%TD*%
D10*
%TO.P,R31,2*%
%TO.N,I2C_GND*%
X164539352Y-124282600D03*
D12*
%TO.P,R31,1*%
%TO.N,Net-(O5C--)*%
X164539352Y-119202600D03*
%TD*%
D18*
%TO.P,D2,2,K*%
%TO.N,Net-(D2-K)*%
X178138000Y-65439400D03*
D17*
%TO.P,D2,1,A*%
%TO.N,+5V*%
X175598000Y-65439400D03*
%TD*%
D12*
%TO.P,C16,2*%
%TO.N,-12V*%
X181372000Y-47913400D03*
%TO.P,C16,1*%
%TO.N,I2C_GND*%
X179372000Y-47913400D03*
%TD*%
D10*
%TO.P,R11,2*%
%TO.N,Net-(J5-PadT)*%
X105693000Y-111896000D03*
D12*
%TO.P,R11,1*%
%TO.N,CJ5*%
X110773000Y-111896000D03*
%TD*%
%TO.P,C3,2*%
%TO.N,I2C_GND*%
X187399352Y-33916600D03*
%TO.P,C3,1*%
%TO.N,~*%
X185399352Y-33916600D03*
%TD*%
D10*
%TO.P,R23,2*%
%TO.N,GP26*%
X177038000Y-90614400D03*
D12*
%TO.P,R23,1*%
%TO.N,Net-(O1A--)*%
X177038000Y-95694400D03*
%TD*%
D13*
%TO.P,J2,TN*%
%TO.N,unconnected-(J2-PadTN)*%
X101605824Y-100294000D03*
%TO.P,J2,T*%
%TO.N,Net-(J2-PadT)*%
X101605824Y-108594000D03*
D15*
%TO.P,J2,S*%
%TO.N,I2C_GND*%
X101605824Y-97194000D03*
%TD*%
D10*
%TO.P,O1,8,V+*%
%TO.N,I2C_VCC*%
X177038000Y-61883400D03*
%TO.P,O1,7*%
%TO.N,unconnected-(O1-Pad7)*%
X177038000Y-59343400D03*
%TO.P,O1,6,-*%
%TO.N,unconnected-(O1B---Pad6)*%
X177038000Y-56803400D03*
%TO.P,O1,5,+*%
%TO.N,unconnected-(O1B-+-Pad5)*%
X177038000Y-54263400D03*
%TO.P,O1,4,V-*%
%TO.N,I2C_GND*%
X184658000Y-54263400D03*
%TO.P,O1,3,+*%
X184658000Y-56803400D03*
%TO.P,O1,2,-*%
%TO.N,Net-(O1A--)*%
X184658000Y-59343400D03*
D11*
%TO.P,O1,1*%
%TO.N,GP26*%
X184658000Y-61883400D03*
%TD*%
D10*
%TO.P,R18,2*%
%TO.N,CJ6*%
X109739648Y-120220000D03*
D12*
%TO.P,R18,1*%
%TO.N,Net-(LED6-A)*%
X109739648Y-115140000D03*
%TD*%
D10*
%TO.P,R29,2*%
%TO.N,I2C_GND*%
X190246000Y-127952400D03*
D12*
%TO.P,R29,1*%
%TO.N,Net-(O3A--)*%
X190246000Y-122872400D03*
%TD*%
%TO.P,C11,2*%
%TO.N,I2C_GND*%
X167809352Y-110370600D03*
%TO.P,C11,1*%
%TO.N,Net-(O5C-+)*%
X165809352Y-110370600D03*
%TD*%
D19*
%TO.P,SW2,2,2*%
%TO.N,Net-(R19-Pad2)*%
X87884000Y-75320000D03*
%TO.P,SW2,1,1*%
%TO.N,I2C_GND*%
X94234000Y-72780000D03*
%TD*%
D12*
%TO.P,C14,2*%
%TO.N,I2C_GND*%
X171651352Y-110370600D03*
%TO.P,C14,1*%
%TO.N,Net-(O5D-+)*%
X173651352Y-110370600D03*
%TD*%
D18*
%TO.P,D3,2,K*%
%TO.N,Net-(D3-K)*%
X176022000Y-46364000D03*
D17*
%TO.P,D3,1,A*%
%TO.N,-12V*%
X176022000Y-48904000D03*
%TD*%
D10*
%TO.P,R37,2*%
%TO.N,Net-(O5C--)*%
X187399352Y-130944600D03*
D12*
%TO.P,R37,1*%
%TO.N,CJ3*%
X192479352Y-130944600D03*
%TD*%
D18*
%TO.P,D1,2,K*%
%TO.N,CJD*%
X170180000Y-68487400D03*
D17*
%TO.P,D1,1,A*%
%TO.N,I2C_GND*%
X170180000Y-71027400D03*
%TD*%
D10*
%TO.P,R1,2*%
%TO.N,GP21*%
X186915000Y-90810400D03*
D12*
%TO.P,R1,1*%
%TO.N,Net-(O3A-+)*%
X186915000Y-85730400D03*
%TD*%
D10*
%TO.P,R19,2*%
%TO.N,Net-(R19-Pad2)*%
X102119648Y-57794000D03*
D12*
%TO.P,R19,1*%
%TO.N,CS2*%
X102119648Y-52714000D03*
%TD*%
D13*
%TO.P,J7,TN*%
%TO.N,unconnected-(J7-PadTN)*%
X115361000Y-32190800D03*
%TO.P,J7,T*%
%TO.N,Net-(J7-PadT)*%
X107061000Y-32190800D03*
D14*
%TO.P,J7,S*%
%TO.N,I2C_GND*%
X118461000Y-32190800D03*
%TD*%
D18*
%TO.P,D4,2,K*%
%TO.N,~*%
X175913352Y-28029000D03*
D17*
%TO.P,D4,1,A*%
%TO.N,Net-(D4-A)*%
X175913352Y-30569000D03*
%TD*%
D12*
%TO.P,C2,2*%
%TO.N,I2C_GND*%
X171450000Y-58089400D03*
%TO.P,C2,1*%
%TO.N,+5V*%
X171450000Y-60089400D03*
%TD*%
D13*
%TO.P,J1,TN*%
%TO.N,unconnected-(J1-PadTN)*%
X86614000Y-100294000D03*
%TO.P,J1,T*%
%TO.N,Net-(J1-PadT)*%
X86614000Y-108594000D03*
D15*
%TO.P,J1,S*%
%TO.N,I2C_GND*%
X86614000Y-97194000D03*
%TD*%
D12*
%TO.P,C5,2*%
%TO.N,I2C_GND*%
X187399352Y-39504600D03*
%TO.P,C5,1*%
%TO.N,~*%
X185399352Y-39504600D03*
%TD*%
D10*
%TO.P,R5,2*%
%TO.N,GP18*%
X178255352Y-107293600D03*
D12*
%TO.P,R5,1*%
%TO.N,Net-(O3C-+)*%
X178255352Y-102213600D03*
%TD*%
D20*
%TO.P,J11,13,Pin_13*%
%TO.N,I2C_GND*%
X164338000Y-90560000D03*
%TO.P,J11,12,Pin_12*%
%TO.N,CJ1*%
X164338000Y-88020000D03*
%TO.P,J11,11,Pin_11*%
%TO.N,CJ2*%
X164338000Y-85480000D03*
%TO.P,J11,10,Pin_10*%
%TO.N,CJ3*%
X164338000Y-82940000D03*
%TO.P,J11,9,Pin_9*%
%TO.N,CJ4*%
X164338000Y-80400000D03*
%TO.P,J11,8,Pin_8*%
%TO.N,CJ5*%
X164338000Y-77860000D03*
%TO.P,J11,7,Pin_7*%
%TO.N,CJ6*%
X164338000Y-75320000D03*
%TO.P,J11,6,Pin_6*%
%TO.N,CS2*%
X164338000Y-72780000D03*
%TO.P,J11,5,Pin_5*%
%TO.N,CS1*%
X164338000Y-70240000D03*
%TO.P,J11,4,Pin_4*%
%TO.N,CK2*%
X164338000Y-67700000D03*
%TO.P,J11,3,Pin_3*%
%TO.N,CK1*%
X164338000Y-65160000D03*
%TO.P,J11,2,Pin_2*%
%TO.N,CJA*%
X164338000Y-62620000D03*
D21*
%TO.P,J11,1,Pin_1*%
%TO.N,CJD*%
X164338000Y-60080000D03*
%TD*%
D16*
%TO.P,LED5,2,A*%
%TO.N,Net-(LED5-A)*%
X102870824Y-111896000D03*
D17*
%TO.P,LED5,1,K*%
%TO.N,I2C_GND*%
X100330824Y-111896000D03*
%TD*%
D12*
%TO.P,C12,2*%
%TO.N,I2C_GND*%
X167793352Y-103766600D03*
%TO.P,C12,1*%
%TO.N,Net-(O3D-+)*%
X165793352Y-103766600D03*
%TD*%
D13*
%TO.P,J3,TN*%
%TO.N,unconnected-(J3-PadTN)*%
X116597648Y-100294000D03*
%TO.P,J3,T*%
%TO.N,Net-(J3-PadT)*%
X116597648Y-108594000D03*
D15*
%TO.P,J3,S*%
%TO.N,I2C_GND*%
X116597648Y-97194000D03*
%TD*%
D10*
%TO.P,R32,2*%
%TO.N,I2C_GND*%
X186436000Y-111667400D03*
D12*
%TO.P,R32,1*%
%TO.N,Net-(O3D--)*%
X186436000Y-116747400D03*
%TD*%
D10*
%TO.P,R8,2*%
%TO.N,Net-(J2-PadT)*%
X105918000Y-94595000D03*
D12*
%TO.P,R8,1*%
%TO.N,CJ2*%
X105918000Y-89515000D03*
%TD*%
D10*
%TO.P,R28,2*%
%TO.N,CJA*%
X103516648Y-36222000D03*
D12*
%TO.P,R28,1*%
%TO.N,Net-(J8-PadT)*%
X103516648Y-31142000D03*
%TD*%
D10*
%TO.P,R10,2*%
%TO.N,Net-(J4-PadT)*%
X93472000Y-125358000D03*
D12*
%TO.P,R10,1*%
%TO.N,CJ4*%
X93472000Y-120278000D03*
%TD*%
D10*
%TO.P,O5,14*%
%TO.N,CJ6*%
X167841352Y-123578600D03*
%TO.P,O5,13,-*%
%TO.N,Net-(O5D--)*%
X170381352Y-123578600D03*
%TO.P,O5,12,+*%
%TO.N,Net-(O5D-+)*%
X172921352Y-123578600D03*
%TO.P,O5,11,V-*%
%TO.N,-12V*%
X175461352Y-123578600D03*
%TO.P,O5,10,+*%
%TO.N,Net-(O5C-+)*%
X178001352Y-123578600D03*
%TO.P,O5,9,-*%
%TO.N,Net-(O5C--)*%
X180541352Y-123578600D03*
%TO.P,O5,8*%
%TO.N,CJ3*%
X183081352Y-123578600D03*
%TO.P,O5,7*%
%TO.N,Net-(O5-Pad7)*%
X183081352Y-131198600D03*
%TO.P,O5,6,-*%
%TO.N,CJA*%
X180541352Y-131198600D03*
%TO.P,O5,5,+*%
%TO.N,I2C_GND*%
X178001352Y-131198600D03*
%TO.P,O5,4,V+*%
%TO.N,~*%
X175461352Y-131198600D03*
%TO.P,O5,3*%
%TO.N,N/C*%
X172921352Y-131198600D03*
%TO.P,O5,2*%
X170381352Y-131198600D03*
D11*
%TO.P,O5,1*%
X167841352Y-131198600D03*
%TD*%
D10*
%TO.P,R2,2*%
%TO.N,GP20*%
X186465000Y-93633400D03*
D12*
%TO.P,R2,1*%
%TO.N,Net-(O3B-+)*%
X191545000Y-93633400D03*
%TD*%
%TO.P,C4,2*%
%TO.N,-12V*%
X181372000Y-42325400D03*
%TO.P,C4,1*%
%TO.N,I2C_GND*%
X179372000Y-42325400D03*
%TD*%
D20*
%TO.P,J18,4,Pin_4*%
%TO.N,TPH VCC {slash} CPC SDA*%
X195516500Y-40522000D03*
%TO.P,J18,3,Pin_3*%
%TO.N,TPH GND {slash} CPC SCL*%
X195516500Y-43062000D03*
%TO.P,J18,2,Pin_2*%
%TO.N,TPH SDA {slash} CPC VCC*%
X195516500Y-45602000D03*
D21*
%TO.P,J18,1,Pin_1*%
%TO.N,TPH SCL {slash} CPC GND*%
X195516500Y-48142000D03*
%TD*%
D22*
%TO.P,Q1,3,C*%
%TO.N,GP22*%
X178288000Y-70265400D03*
%TO.P,Q1,2,B*%
%TO.N,CJD*%
X177018000Y-68995400D03*
D23*
%TO.P,Q1,1,E*%
%TO.N,I2C_GND*%
X175748000Y-70265400D03*
%TD*%
D19*
%TO.P,SW1,2,2*%
%TO.N,Net-(R20-Pad2)*%
X107721400Y-75345400D03*
%TO.P,SW1,1,1*%
%TO.N,I2C_GND*%
X114071400Y-72805400D03*
%TD*%
D10*
%TO.P,R27,2*%
%TO.N,CJD*%
X99579648Y-33508000D03*
D12*
%TO.P,R27,1*%
%TO.N,Net-(J7-PadT)*%
X99579648Y-28428000D03*
%TD*%
D13*
%TO.P,J5,TN*%
%TO.N,unconnected-(J5-PadTN)*%
X101605824Y-118074000D03*
%TO.P,J5,T*%
%TO.N,Net-(J5-PadT)*%
X101605824Y-126374000D03*
D15*
%TO.P,J5,S*%
%TO.N,I2C_GND*%
X101605824Y-114974000D03*
%TD*%
D10*
%TO.P,R36,2*%
%TO.N,Net-(O3B--)*%
X196342000Y-95186400D03*
D12*
%TO.P,R36,1*%
%TO.N,CJ2*%
X196342000Y-100266400D03*
%TD*%
D10*
%TO.P,R25,2*%
%TO.N,I2C_VCC*%
X191291000Y-57594400D03*
D12*
%TO.P,R25,1*%
%TO.N,CS2*%
X191291000Y-62674400D03*
%TD*%
%TO.P,C10,2*%
%TO.N,I2C_GND*%
X193516000Y-88590701D03*
%TO.P,C10,1*%
%TO.N,Net-(O3B-+)*%
X191516000Y-88590701D03*
%TD*%
D10*
%TO.P,R9,2*%
%TO.N,Net-(J3-PadT)*%
X109982000Y-98942000D03*
D12*
%TO.P,R9,1*%
%TO.N,CJ3*%
X109982000Y-93862000D03*
%TD*%
%TO.P,C13,2*%
%TO.N,I2C_GND*%
X171635352Y-103766600D03*
%TO.P,C13,1*%
%TO.N,Net-(O3C-+)*%
X173635352Y-103766600D03*
%TD*%
D10*
%TO.P,R7,2*%
%TO.N,Net-(J1-PadT)*%
X93218000Y-106816000D03*
D12*
%TO.P,R7,1*%
%TO.N,CJ1*%
X93218000Y-101736000D03*
%TD*%
%TO.P,C7,2*%
%TO.N,I2C_GND*%
X195580000Y-70780000D03*
%TO.P,C7,1*%
%TO.N,CS2*%
X195580000Y-72780000D03*
%TD*%
D10*
%TO.P,R34,2*%
%TO.N,I2C_GND*%
X164539352Y-126626600D03*
D12*
%TO.P,R34,1*%
%TO.N,Net-(O5D--)*%
X164539352Y-131706600D03*
%TD*%
D16*
%TO.P,VR1,3,3*%
%TO.N,I2C_GND*%
X113859400Y-52597400D03*
%TO.P,VR1,2,2*%
%TO.N,CK1*%
X111359400Y-52597400D03*
%TO.P,VR1,1,1*%
%TO.N,I2C_VCC*%
X108859400Y-52597400D03*
D24*
%TO.P,VR1,*%
%TO.N,*%
X106959400Y-59597400D03*
X115759400Y-59597400D03*
%TD*%
D12*
%TO.P,C15,2*%
%TO.N,I2C_GND*%
X187399352Y-45092600D03*
%TO.P,C15,1*%
%TO.N,~*%
X185399352Y-45092600D03*
%TD*%
D16*
%TO.P,LED2,2,A*%
%TO.N,Net-(LED2-A)*%
X100340824Y-94116000D03*
D17*
%TO.P,LED2,1,K*%
%TO.N,I2C_GND*%
X102880824Y-94116000D03*
%TD*%
D16*
%TO.P,VR2,3,3*%
%TO.N,I2C_GND*%
X94332648Y-52587000D03*
%TO.P,VR2,2,2*%
%TO.N,CK2*%
X91832648Y-52587000D03*
%TO.P,VR2,1,1*%
%TO.N,I2C_VCC*%
X89332648Y-52587000D03*
D24*
%TO.P,VR2,*%
%TO.N,*%
X87432648Y-59587000D03*
X96232648Y-59587000D03*
%TD*%
D10*
%TO.P,R3,2*%
%TO.N,GP16*%
X173937352Y-116466600D03*
D12*
%TO.P,R3,1*%
%TO.N,Net-(O5C-+)*%
X168857352Y-116466600D03*
%TD*%
D10*
%TO.P,R4,2*%
%TO.N,GP17*%
X173683352Y-98432600D03*
D12*
%TO.P,R4,1*%
%TO.N,Net-(O3D-+)*%
X168603352Y-98432600D03*
%TD*%
D10*
%TO.P,R39,2*%
%TO.N,Net-(O3C--)*%
X186240000Y-100208400D03*
D12*
%TO.P,R39,1*%
%TO.N,CJ5*%
X191320000Y-100208400D03*
%TD*%
D16*
%TO.P,LED4,2,A*%
%TO.N,Net-(LED4-A)*%
X87879000Y-111896000D03*
D17*
%TO.P,LED4,1,K*%
%TO.N,I2C_GND*%
X85339000Y-111896000D03*
%TD*%
D20*
%TO.P,J12,4,Pin_4*%
%TO.N,TPH VCC {slash} CPC SDA*%
X117957600Y-40522000D03*
%TO.P,J12,3,Pin_3*%
%TO.N,TPH GND {slash} CPC SCL*%
X117957600Y-43062000D03*
%TO.P,J12,2,Pin_2*%
%TO.N,TPH SDA {slash} CPC VCC*%
X117957600Y-45602000D03*
D21*
%TO.P,J12,1,Pin_1*%
%TO.N,TPH SCL {slash} CPC GND*%
X117957600Y-48142000D03*
%TD*%
D12*
%TO.P,C9,2*%
%TO.N,I2C_GND*%
X193516000Y-82494701D03*
%TO.P,C9,1*%
%TO.N,Net-(O3A-+)*%
X191516000Y-82494701D03*
%TD*%
D10*
%TO.P,R40,2*%
%TO.N,Net-(O5D--)*%
X173683352Y-120051600D03*
D12*
%TO.P,R40,1*%
%TO.N,CJ6*%
X168603352Y-120051600D03*
%TD*%
D13*
%TO.P,J6,TN*%
%TO.N,unconnected-(J6-PadTN)*%
X116597648Y-118074000D03*
%TO.P,J6,T*%
%TO.N,Net-(J6-PadT)*%
X116597648Y-126374000D03*
D15*
%TO.P,J6,S*%
%TO.N,I2C_GND*%
X116597648Y-114974000D03*
%TD*%
D16*
%TO.P,LED3,2,A*%
%TO.N,Net-(LED3-A)*%
X115332648Y-94116000D03*
D17*
%TO.P,LED3,1,K*%
%TO.N,I2C_GND*%
X117872648Y-94116000D03*
%TD*%
D10*
%TO.P,R12,2*%
%TO.N,Net-(J6-PadT)*%
X109739648Y-127869000D03*
D12*
%TO.P,R12,1*%
%TO.N,CJ6*%
X109739648Y-122789000D03*
%TD*%
D10*
%TO.P,R38,2*%
%TO.N,Net-(O3D--)*%
X186436000Y-119795400D03*
D12*
%TO.P,R38,1*%
%TO.N,CJ4*%
X186436000Y-124875400D03*
%TD*%
D10*
%TO.P,R35,2*%
%TO.N,Net-(O3A--)*%
X196850000Y-127894400D03*
D12*
%TO.P,R35,1*%
%TO.N,CJ1*%
X196850000Y-122814400D03*
%TD*%
D10*
%TO.P,R14,2*%
%TO.N,CJ2*%
X101346000Y-90052000D03*
D12*
%TO.P,R14,1*%
%TO.N,Net-(LED2-A)*%
X96266000Y-90052000D03*
%TD*%
%TO.P,C8,2*%
%TO.N,I2C_GND*%
X195580000Y-66938000D03*
%TO.P,C8,1*%
%TO.N,CS1*%
X195580000Y-64938000D03*
%TD*%
D16*
%TO.P,LED1,2,A*%
%TO.N,Net-(LED1-A)*%
X85349000Y-94116000D03*
D17*
%TO.P,LED1,1,K*%
%TO.N,I2C_GND*%
X87889000Y-94116000D03*
%TD*%
D10*
%TO.P,R15,2*%
%TO.N,CJ3*%
X110501648Y-90306000D03*
D12*
%TO.P,R15,1*%
%TO.N,Net-(LED3-A)*%
X115581648Y-90306000D03*
%TD*%
%TO.P,C6,2*%
%TO.N,-12V*%
X181372000Y-36737400D03*
%TO.P,C6,1*%
%TO.N,I2C_GND*%
X179372000Y-36737400D03*
%TD*%
D10*
%TO.P,R33,2*%
%TO.N,I2C_GND*%
X186436000Y-108815400D03*
D12*
%TO.P,R33,1*%
%TO.N,Net-(O3C--)*%
X186436000Y-103735400D03*
%TD*%
D20*
%TO.P,J14,3,Pin_3*%
%TO.N,TPH SDA {slash} CPC VCC*%
X108204000Y-46364000D03*
%TO.P,J14,2,Pin_2*%
%TO.N,I2C_VCC*%
X108204000Y-43824000D03*
D21*
%TO.P,J14,1,Pin_1*%
%TO.N,TPH VCC {slash} CPC SDA*%
X108204000Y-41284000D03*
%TD*%
D20*
%TO.P,J16,8,Pin_8*%
%TO.N,TPH SCL {slash} CPC GND*%
X192786000Y-28609400D03*
%TO.P,J16,7,Pin_7*%
%TO.N,I2C_GND*%
X195326000Y-28609400D03*
%TO.P,J16,6,Pin_6*%
%TO.N,GP0*%
X197866000Y-28609400D03*
%TO.P,J16,5,Pin_5*%
%TO.N,TPH VCC {slash} CPC SDA*%
X200406000Y-28609400D03*
%TO.P,J16,4,Pin_4*%
%TO.N,I2C_VCC*%
X192786000Y-31149400D03*
%TO.P,J16,3,Pin_3*%
%TO.N,TPH SDA {slash} CPC VCC*%
X195326000Y-31149400D03*
%TO.P,J16,2,Pin_2*%
%TO.N,TPH GND {slash} CPC SCL*%
X197866000Y-31149400D03*
D21*
%TO.P,J16,1,Pin_1*%
%TO.N,GP1*%
X200406000Y-31149400D03*
%TD*%
D20*
%TO.P,J15,4,Pin_4*%
%TO.N,GP2*%
X199390000Y-48650000D03*
%TO.P,J15,3,Pin_3*%
%TO.N,GP3*%
X199390000Y-51190000D03*
%TO.P,J15,2,Pin_2*%
%TO.N,I2C_VCC*%
X199390000Y-53730000D03*
D21*
%TO.P,J15,1,Pin_1*%
%TO.N,I2C_GND*%
X199390000Y-56270000D03*
%TD*%
D12*
%TO.P,U2,40,VBUS*%
%TO.N,unconnected-(U2-VBUS-Pad40)*%
X182466000Y-67341400D03*
%TO.P,U2,39,VSYS*%
%TO.N,Net-(D2-K)*%
X182466000Y-69881400D03*
D25*
%TO.P,U2,38,GND*%
%TO.N,I2C_GND*%
X182466000Y-72421400D03*
D12*
%TO.P,U2,37,3V3_EN*%
%TO.N,unconnected-(U2-3V3_EN-Pad37)*%
X182466000Y-74961400D03*
%TO.P,U2,36,3V3*%
%TO.N,I2C_VCC*%
X182466000Y-77501400D03*
%TO.P,U2,35,ADC_VREF*%
%TO.N,unconnected-(U2-ADC_VREF-Pad35)*%
X182466000Y-80041400D03*
%TO.P,U2,34,GP28*%
%TO.N,CK2*%
X182466000Y-82581400D03*
D25*
%TO.P,U2,33,GND*%
%TO.N,I2C_GND*%
X182466000Y-85121400D03*
D12*
%TO.P,U2,32,GP27*%
%TO.N,CK1*%
X182466000Y-87661400D03*
%TO.P,U2,31,GP26*%
%TO.N,GP26*%
X182466000Y-90201400D03*
%TO.P,U2,30,RUN*%
%TO.N,unconnected-(U2-RUN-Pad30)*%
X182466000Y-92741400D03*
%TO.P,U2,29,GP22*%
%TO.N,GP22*%
X182466000Y-95281400D03*
D25*
%TO.P,U2,28,GND*%
%TO.N,I2C_GND*%
X182466000Y-97821400D03*
D12*
%TO.P,U2,27,GP21*%
%TO.N,GP21*%
X182466000Y-100361400D03*
%TO.P,U2,26,GP20*%
%TO.N,GP20*%
X182466000Y-102901400D03*
%TO.P,U2,25,GP19*%
%TO.N,GP19*%
X182466000Y-105441400D03*
%TO.P,U2,24,GP18*%
%TO.N,GP18*%
X182466000Y-107981400D03*
D25*
%TO.P,U2,23,GND*%
%TO.N,I2C_GND*%
X182466000Y-110521400D03*
D12*
%TO.P,U2,22,GP17*%
%TO.N,GP17*%
X182466000Y-113061400D03*
%TO.P,U2,21,GP16*%
%TO.N,GP16*%
X182466000Y-115601400D03*
%TO.P,U2,20,GP15*%
%TO.N,unconnected-(U2-GP15-Pad20)*%
X200246000Y-115601400D03*
%TO.P,U2,19,GP14*%
%TO.N,unconnected-(U2-GP14-Pad19)*%
X200246000Y-113061400D03*
D26*
%TO.P,U2,18,GND*%
%TO.N,I2C_GND*%
X200246000Y-110521400D03*
D12*
%TO.P,U2,17,GP13*%
%TO.N,unconnected-(U2-GP13-Pad17)*%
X200246000Y-107981400D03*
%TO.P,U2,16,GP12*%
%TO.N,unconnected-(U2-GP12-Pad16)*%
X200246000Y-105441400D03*
%TO.P,U2,15,GP11*%
%TO.N,unconnected-(U2-GP11-Pad15)*%
X200246000Y-102901400D03*
%TO.P,U2,14,GP10*%
%TO.N,unconnected-(U2-GP10-Pad14)*%
X200246000Y-100361400D03*
D26*
%TO.P,U2,13,GND*%
%TO.N,I2C_GND*%
X200246000Y-97821400D03*
D12*
%TO.P,U2,12,GP9*%
%TO.N,unconnected-(U2-GP9-Pad12)*%
X200246000Y-95281400D03*
%TO.P,U2,11,GP8*%
%TO.N,unconnected-(U2-GP8-Pad11)*%
X200246000Y-92741400D03*
%TO.P,U2,10,GP7*%
%TO.N,unconnected-(U2-GP7-Pad10)*%
X200246000Y-90201400D03*
%TO.P,U2,9,GP6*%
%TO.N,unconnected-(U2-GP6-Pad9)*%
X200246000Y-87661400D03*
D26*
%TO.P,U2,8,GND*%
%TO.N,I2C_GND*%
X200246000Y-85121400D03*
D12*
%TO.P,U2,7,GP5*%
%TO.N,CS2*%
X200246000Y-82581400D03*
%TO.P,U2,6,GP4*%
%TO.N,CS1*%
X200246000Y-80041400D03*
%TO.P,U2,5,GP3*%
%TO.N,GP3*%
X200246000Y-77501400D03*
%TO.P,U2,4,GP2*%
%TO.N,GP2*%
X200246000Y-74961400D03*
D26*
%TO.P,U2,3,GND*%
%TO.N,I2C_GND*%
X200246000Y-72421400D03*
D12*
%TO.P,U2,2,GP1*%
%TO.N,GP1*%
X200246000Y-69881400D03*
D27*
%TO.P,U2,1,GP0*%
%TO.N,GP0*%
X200246000Y-67341400D03*
%TD*%
D20*
%TO.P,J19,4,Pin_4*%
%TO.N,TPH VCC {slash} CPC SDA*%
X114211500Y-40522000D03*
%TO.P,J19,3,Pin_3*%
%TO.N,TPH GND {slash} CPC SCL*%
X114211500Y-43062000D03*
%TO.P,J19,2,Pin_2*%
%TO.N,TPH SDA {slash} CPC VCC*%
X114211500Y-45602000D03*
D21*
%TO.P,J19,1,Pin_1*%
%TO.N,TPH SCL {slash} CPC GND*%
X114211500Y-48142000D03*
%TD*%
D20*
%TO.P,J17,13,Pin_13*%
%TO.N,I2C_GND*%
X83058000Y-90560000D03*
%TO.P,J17,12,Pin_12*%
%TO.N,CJ1*%
X83058000Y-88020000D03*
%TO.P,J17,11,Pin_11*%
%TO.N,CJ2*%
X83058000Y-85480000D03*
%TO.P,J17,10,Pin_10*%
%TO.N,CJ3*%
X83058000Y-82940000D03*
%TO.P,J17,9,Pin_9*%
%TO.N,CJ4*%
X83058000Y-80400000D03*
%TO.P,J17,8,Pin_8*%
%TO.N,CJ5*%
X83058000Y-77860000D03*
%TO.P,J17,7,Pin_7*%
%TO.N,CJ6*%
X83058000Y-75320000D03*
%TO.P,J17,6,Pin_6*%
%TO.N,CS2*%
X83058000Y-72780000D03*
%TO.P,J17,5,Pin_5*%
%TO.N,CS1*%
X83058000Y-70240000D03*
%TO.P,J17,4,Pin_4*%
%TO.N,CK2*%
X83058000Y-67700000D03*
%TO.P,J17,3,Pin_3*%
%TO.N,CK1*%
X83058000Y-65160000D03*
%TO.P,J17,2,Pin_2*%
%TO.N,CJA*%
X83058000Y-62620000D03*
D21*
%TO.P,J17,1,Pin_1*%
%TO.N,CJD*%
X83058000Y-60080000D03*
%TD*%
D28*
%TO.P,J10,16,Pin_16*%
%TO.N,Net-(J10-Pin_15)*%
X169672000Y-31886000D03*
%TO.P,J10,15,Pin_15*%
X167132000Y-31886000D03*
%TO.P,J10,14,Pin_14*%
%TO.N,Net-(J10-Pin_13)*%
X169672000Y-34426000D03*
%TO.P,J10,13,Pin_13*%
X167132000Y-34426000D03*
%TO.P,J10,12,Pin_12*%
%TO.N,+5V*%
X169672000Y-36966000D03*
%TO.P,J10,11,Pin_11*%
X167132000Y-36966000D03*
%TO.P,J10,10,Pin_10*%
%TO.N,Net-(D4-A)*%
X169672000Y-39506000D03*
%TO.P,J10,9,Pin_9*%
X167132000Y-39506000D03*
%TO.P,J10,8,Pin_8*%
%TO.N,I2C_GND*%
X169672000Y-42046000D03*
%TO.P,J10,7,Pin_7*%
X167132000Y-42046000D03*
%TO.P,J10,6,Pin_6*%
X169672000Y-44586000D03*
%TO.P,J10,5,Pin_5*%
X167132000Y-44586000D03*
%TO.P,J10,4,Pin_4*%
X169672000Y-47126000D03*
%TO.P,J10,3,Pin_3*%
X167132000Y-47126000D03*
%TO.P,J10,2,Pin_2*%
%TO.N,Net-(D3-K)*%
X169672000Y-49666000D03*
D29*
%TO.P,J10,1,Pin_1*%
X167132000Y-49666000D03*
%TD*%
D30*
%TO.P,U1,3,OUT*%
%TO.N,+5V*%
X186383352Y-29273600D03*
%TO.P,U1,2,GND*%
%TO.N,I2C_GND*%
X183843352Y-29273600D03*
D31*
%TO.P,U1,1,IN*%
%TO.N,~*%
X181303352Y-29273600D03*
%TD*%
D32*
%TO.N,I2C_GND*%
X97536000Y-69596000D03*
X107950000Y-91440000D03*
X187960000Y-115198000D03*
X182626000Y-121294000D03*
X185674000Y-71002000D03*
X185420000Y-84210000D03*
X180130659Y-96357339D03*
D33*
%TO.N,-12V*%
X186690000Y-59851400D03*
X192404377Y-111537635D03*
X197104000Y-87306177D03*
X197104000Y-81924000D03*
%TO.N,Net-(O3D-+)*%
X185316000Y-113166000D03*
X180085992Y-114182000D03*
%TO.N,GP26*%
X184658000Y-76219900D03*
X185420000Y-73542000D03*
%TO.N,Net-(O1A--)*%
X184912000Y-89798000D03*
X189483992Y-71256000D03*
X188976000Y-79892000D03*
%TO.N,Net-(O5C--)*%
X168603352Y-125610600D03*
%TO.N,Net-(R19-Pad2)*%
X99296000Y-72544000D03*
%TO.N,CK1*%
X166823370Y-72704000D03*
%TO.N,CJ2*%
X191262000Y-97358394D03*
X179894723Y-93491229D03*
%TO.N,CJ4*%
X93218000Y-83956000D03*
%TO.N,CJ6*%
X99568000Y-79130000D03*
X166825352Y-91828600D03*
X99568000Y-83448000D03*
X169365352Y-89288600D03*
%TO.N,CJA*%
X186131194Y-81374760D03*
X193040000Y-92084000D03*
%TO.N,CS2*%
X190285484Y-79413252D03*
X94804634Y-68430000D03*
%TO.N,~*%
X191516000Y-55508000D03*
X199136000Y-61096000D03*
%TD*%
D34*
%TO.N,I2C_GND*%
X94352000Y-72780000D02*
X97536000Y-69596000D01*
X94234000Y-72780000D02*
X94352000Y-72780000D01*
X105556824Y-91440000D02*
X107950000Y-91440000D01*
X102880824Y-94116000D02*
X105556824Y-91440000D01*
%TO.N,CJ2*%
X101883000Y-89515000D02*
X105918000Y-89515000D01*
X101346000Y-90052000D02*
X101883000Y-89515000D01*
D35*
%TO.N,CS2*%
X195580000Y-74118736D02*
X190285484Y-79413252D01*
X195580000Y-72780000D02*
X195580000Y-74118736D01*
%TO.N,CJ6*%
X169365352Y-89288600D02*
X171196000Y-87457952D01*
X171196000Y-82178000D02*
X164338000Y-75320000D01*
X171196000Y-87457952D02*
X171196000Y-82178000D01*
%TO.N,GP26*%
X182053000Y-90614400D02*
X182466000Y-90201400D01*
X177038000Y-90614400D02*
X182053000Y-90614400D01*
%TO.N,I2C_GND*%
X186436000Y-113674000D02*
X187960000Y-115198000D01*
X186436000Y-111667400D02*
X186436000Y-113674000D01*
%TO.N,Net-(O3D-+)*%
X185316000Y-113756082D02*
X185316000Y-113166000D01*
X187607918Y-116048000D02*
X185316000Y-113756082D01*
X189484000Y-114876082D02*
X188312082Y-116048000D01*
X188312082Y-116048000D02*
X187607918Y-116048000D01*
X189484000Y-114207400D02*
X189484000Y-114876082D01*
%TO.N,I2C_GND*%
X182372000Y-121294000D02*
X182626000Y-121294000D01*
X181069352Y-118532648D02*
X181069352Y-119991352D01*
X181591400Y-118010600D02*
X181069352Y-118532648D01*
X181845400Y-118010600D02*
X181591400Y-118010600D01*
X181069352Y-119991352D02*
X182372000Y-121294000D01*
X183716000Y-116140000D02*
X181845400Y-118010600D01*
X183716000Y-111771400D02*
X183716000Y-116140000D01*
X182466000Y-110521400D02*
X183716000Y-111771400D01*
%TO.N,GP19*%
X184366000Y-117213952D02*
X184366000Y-107341400D01*
X184366000Y-107341400D02*
X182466000Y-105441400D01*
X182319352Y-119260600D02*
X184366000Y-117213952D01*
%TO.N,Net-(O3A--)*%
X190979000Y-122872400D02*
X190246000Y-122872400D01*
%TO.N,Net-(O3B--)*%
X194792600Y-124088000D02*
X193548000Y-122843400D01*
X197344167Y-124088000D02*
X194792600Y-124088000D01*
X199004000Y-115960394D02*
X199004000Y-122428167D01*
X198354000Y-107837400D02*
X198354000Y-115310395D01*
X197104000Y-106587400D02*
X198354000Y-107837400D01*
%TO.N,CJ1*%
X164794752Y-88020000D02*
X164338000Y-88020000D01*
X178123119Y-100313600D02*
X174465519Y-96656000D01*
X180155352Y-101426594D02*
X179042357Y-100313600D01*
%TO.N,Net-(O3B--)*%
X198354000Y-115310395D02*
X199004000Y-115960394D01*
%TO.N,CJ1*%
X180155352Y-102398519D02*
X180155352Y-101426594D01*
X183303400Y-104191400D02*
X181948233Y-104191400D01*
X185186000Y-106074000D02*
X183303400Y-104191400D01*
%TO.N,Net-(O3A--)*%
X197104000Y-116747400D02*
X190979000Y-122872400D01*
%TO.N,CJ1*%
X173430752Y-96656000D02*
X164794752Y-88020000D01*
X186270233Y-110417400D02*
X185186000Y-109333167D01*
X185186000Y-109333167D02*
X185186000Y-106074000D01*
X187243400Y-110417400D02*
X186270233Y-110417400D01*
X179042357Y-100313600D02*
X178123119Y-100313600D01*
X188234000Y-112185167D02*
X188234000Y-111408000D01*
X188966233Y-112917400D02*
X188234000Y-112185167D01*
X190094162Y-112917400D02*
X188966233Y-112917400D01*
X174465519Y-96656000D02*
X173430752Y-96656000D01*
X192674162Y-115497400D02*
X190094162Y-112917400D01*
X197104000Y-119287400D02*
X198354000Y-118037400D01*
X188234000Y-111408000D02*
X187243400Y-110417400D01*
X197621767Y-115497400D02*
X192674162Y-115497400D01*
X198354000Y-116229633D02*
X197621767Y-115497400D01*
%TO.N,Net-(O3B--)*%
X199004000Y-122428167D02*
X197344167Y-124088000D01*
%TO.N,CJ1*%
X181948233Y-104191400D02*
X180155352Y-102398519D01*
X198354000Y-118037400D02*
X198354000Y-116229633D01*
%TO.N,Net-(O1A--)*%
X177837999Y-94894401D02*
X177038000Y-95694400D01*
X179869803Y-94894401D02*
X177837999Y-94894401D01*
X181506802Y-96531400D02*
X179869803Y-94894401D01*
X184366000Y-90344000D02*
X184366000Y-95170000D01*
X184912000Y-89798000D02*
X184366000Y-90344000D01*
X183004600Y-96531400D02*
X181506802Y-96531400D01*
%TO.N,I2C_GND*%
X182466000Y-97821400D02*
X181594720Y-97821400D01*
X181594720Y-97821400D02*
X180130659Y-96357339D01*
%TO.N,Net-(O1A--)*%
X184366000Y-95170000D02*
X183004600Y-96531400D01*
D36*
%TO.N,I2C_VCC*%
X186814000Y-71488346D02*
X186814000Y-77501400D01*
X189738000Y-68564346D02*
X186814000Y-71488346D01*
D35*
%TO.N,I2C_GND*%
X184254600Y-72421400D02*
X185674000Y-71002000D01*
D36*
%TO.N,I2C_VCC*%
X189738000Y-63915400D02*
X189738000Y-68564346D01*
X186814000Y-77501400D02*
X182466000Y-77501400D01*
D35*
%TO.N,I2C_GND*%
X182466000Y-72421400D02*
X184254600Y-72421400D01*
%TO.N,GP26*%
X184658000Y-74304000D02*
X185420000Y-73542000D01*
X184658000Y-76219900D02*
X184658000Y-74304000D01*
%TO.N,Net-(O1A--)*%
X188976000Y-71763992D02*
X189483992Y-71256000D01*
X188976000Y-79892000D02*
X188976000Y-71763992D01*
%TO.N,CJA*%
X168423370Y-66705370D02*
X164338000Y-62620000D01*
X168423370Y-72090618D02*
X168423370Y-66705370D01*
X177664159Y-81331407D02*
X168423370Y-72090618D01*
X186087841Y-81331407D02*
X177664159Y-81331407D01*
X186131194Y-81374760D02*
X186087841Y-81331407D01*
%TO.N,I2C_GND*%
X184508600Y-85121400D02*
X185420000Y-84210000D01*
X182466000Y-85121400D02*
X184508600Y-85121400D01*
%TO.N,GP22*%
X183716000Y-87116082D02*
X186915000Y-83917082D01*
X183716000Y-94031400D02*
X183716000Y-87116082D01*
X182466000Y-95281400D02*
X183716000Y-94031400D01*
X186915000Y-83917082D02*
X186915000Y-82711400D01*
%TO.N,Net-(O3B-+)*%
X195580000Y-107603400D02*
X197104000Y-109127400D01*
X195580000Y-101781394D02*
X195580000Y-107603400D01*
X192107005Y-98308399D02*
X195580000Y-101781394D01*
X190808893Y-98308400D02*
X192107005Y-98308399D01*
X190312000Y-97811508D02*
X190808893Y-98308400D01*
X190312000Y-94866400D02*
X190312000Y-97811508D01*
X191545000Y-93633400D02*
X190312000Y-94866400D01*
%TO.N,Net-(O3A-+)*%
X188214000Y-87029400D02*
X186915000Y-85730400D01*
X188214000Y-96632742D02*
X188214000Y-87029400D01*
X190539658Y-98958400D02*
X188214000Y-96632742D01*
X192570000Y-99690632D02*
X191837767Y-98958400D01*
%TO.N,CJ2*%
X193433994Y-97358394D02*
X191262000Y-97358394D01*
%TO.N,Net-(O3A-+)*%
X192570000Y-109673400D02*
X192570000Y-99690632D01*
X191837767Y-98958400D02*
X190539658Y-98958400D01*
%TO.N,CJ2*%
X196342000Y-100266400D02*
X193433994Y-97358394D01*
%TO.N,Net-(O3A-+)*%
X197104000Y-114207400D02*
X192570000Y-109673400D01*
%TO.N,CK2*%
X167773370Y-71135370D02*
X164338000Y-67700000D01*
X167773370Y-72564497D02*
X167773370Y-71135370D01*
X177790273Y-82581400D02*
X167773370Y-72564497D01*
X182466000Y-82581400D02*
X177790273Y-82581400D01*
%TO.N,CK1*%
X166823370Y-73212000D02*
X166823370Y-72704000D01*
X181272770Y-87661400D02*
X166823370Y-73212000D01*
X182466000Y-87661400D02*
X181272770Y-87661400D01*
D36*
%TO.N,-12V*%
X189484000Y-111667400D02*
X192274612Y-111667400D01*
X181372000Y-42325400D02*
X181372000Y-47151400D01*
X192274612Y-111667400D02*
X192404377Y-111537635D01*
X197104000Y-81924000D02*
X197104000Y-87306177D01*
X181372000Y-42325400D02*
X181372000Y-36737400D01*
D34*
X176831400Y-49713400D02*
X180292600Y-49713400D01*
X176022000Y-48904000D02*
X176831400Y-49713400D01*
D36*
X181372000Y-47151400D02*
X181372000Y-48105432D01*
D34*
X181372000Y-48634000D02*
X181372000Y-47913400D01*
D37*
X181418000Y-47721400D02*
X181610000Y-47913400D01*
D36*
X181372000Y-47151400D02*
X181372000Y-47913400D01*
D37*
X181372000Y-47721400D02*
X181418000Y-47721400D01*
D36*
X186208000Y-52749400D02*
X186208000Y-59369400D01*
X186208000Y-59369400D02*
X186690000Y-59851400D01*
D34*
X180292600Y-49713400D02*
X181372000Y-48634000D01*
D36*
X181372000Y-47913400D02*
X186208000Y-52749400D01*
D35*
%TO.N,Net-(O3A-+)*%
X190150699Y-82494701D02*
X186915000Y-85730400D01*
X191516000Y-82494701D02*
X190150699Y-82494701D01*
%TO.N,Net-(O5C-+)*%
X176101352Y-121678600D02*
X178001352Y-123578600D01*
X168857352Y-117325362D02*
X173210590Y-121678600D01*
X165809352Y-113418600D02*
X168857352Y-116466600D01*
X173210590Y-121678600D02*
X176101352Y-121678600D01*
X168857352Y-116466600D02*
X168857352Y-117325362D01*
X165809352Y-110370600D02*
X165809352Y-113418600D01*
%TO.N,Net-(O3D-+)*%
X170198600Y-109120600D02*
X175024592Y-109120600D01*
X165793352Y-103766600D02*
X165793352Y-104715352D01*
X165793352Y-104715352D02*
X170198600Y-109120600D01*
X168603352Y-98432600D02*
X168603352Y-99756648D01*
X175024592Y-109120600D02*
X180085992Y-114182000D01*
X168603352Y-99756648D02*
X165793352Y-102566648D01*
X165793352Y-102566648D02*
X165793352Y-103766600D01*
%TO.N,Net-(O3C-+)*%
X173635352Y-103766600D02*
X176702352Y-103766600D01*
X176702352Y-103766600D02*
X178255352Y-102213600D01*
%TO.N,Net-(O5D-+)*%
X174953352Y-119260600D02*
X177239352Y-119260600D01*
X172687352Y-111334600D02*
X172687352Y-116994600D01*
X172687352Y-116994600D02*
X174953352Y-119260600D01*
X173651352Y-110370600D02*
X172687352Y-111334600D01*
D36*
%TO.N,Net-(D2-K)*%
X178138000Y-65439400D02*
X178138000Y-65553400D01*
X178138000Y-65553400D02*
X182466000Y-69881400D01*
D34*
%TO.N,Net-(D3-K)*%
X171651352Y-49664600D02*
X169619352Y-49664600D01*
X169619352Y-49664600D02*
X167079352Y-49664600D01*
X176022000Y-46364000D02*
X174951952Y-46364000D01*
X174951952Y-46364000D02*
X171651352Y-49664600D01*
%TO.N,Net-(D4-A)*%
X175913352Y-34988600D02*
X171397352Y-39504600D01*
X175913352Y-30569000D02*
X175913352Y-34988600D01*
X171397352Y-39504600D02*
X167143661Y-39504600D01*
%TO.N,Net-(J1-PadT)*%
X91440000Y-108594000D02*
X86614000Y-108594000D01*
X93218000Y-106816000D02*
X91440000Y-108594000D01*
%TO.N,Net-(J2-PadT)*%
X105918000Y-94595000D02*
X105918000Y-104530000D01*
X105918000Y-104530000D02*
X101854000Y-108594000D01*
%TO.N,Net-(J3-PadT)*%
X109982000Y-101978352D02*
X109982000Y-98942000D01*
X116597648Y-108594000D02*
X109982000Y-101978352D01*
%TO.N,Net-(J4-PadT)*%
X93472000Y-125358000D02*
X92456000Y-126374000D01*
X92456000Y-126374000D02*
X86614000Y-126374000D01*
%TO.N,Net-(J5-PadT)*%
X105693000Y-111896000D02*
X105693000Y-122535000D01*
D36*
X101605824Y-126374000D02*
X101854000Y-126374000D01*
D34*
X105693000Y-122535000D02*
X101854000Y-126374000D01*
%TO.N,Net-(J6-PadT)*%
X110980648Y-126628000D02*
X111517648Y-126628000D01*
X109739648Y-127869000D02*
X110980648Y-126628000D01*
X111517648Y-126628000D02*
X111771648Y-126374000D01*
X111771648Y-126374000D02*
X116597648Y-126374000D01*
%TO.N,Net-(J7-PadT)*%
X107061000Y-32190800D02*
X107061000Y-30785215D01*
X107061000Y-30785215D02*
X104703785Y-28428000D01*
X104703785Y-28428000D02*
X99579648Y-28428000D01*
%TO.N,Net-(J8-PadT)*%
X97118648Y-31142000D02*
X96120648Y-32140000D01*
X103516648Y-31142000D02*
X97118648Y-31142000D01*
%TO.N,Net-(LED1-A)*%
X90039000Y-91966000D02*
X85739000Y-91966000D01*
X90903000Y-94116000D02*
X90903000Y-92830000D01*
X90903000Y-92830000D02*
X90039000Y-91966000D01*
X85349000Y-92356000D02*
X85349000Y-94116000D01*
X85739000Y-91966000D02*
X85349000Y-92356000D01*
%TO.N,Net-(LED2-A)*%
X100340824Y-93618824D02*
X100340824Y-94116000D01*
X96774000Y-90052000D02*
X100340824Y-93618824D01*
X96266000Y-90052000D02*
X96774000Y-90052000D01*
%TO.N,Net-(LED3-A)*%
X115581648Y-93867000D02*
X115332648Y-94116000D01*
X115581648Y-90306000D02*
X115581648Y-93867000D01*
%TO.N,Net-(LED4-A)*%
X88138000Y-111896000D02*
X88363000Y-112121000D01*
X87879000Y-111896000D02*
X88138000Y-111896000D01*
X93472000Y-112121000D02*
X88363000Y-112121000D01*
%TO.N,Net-(LED5-A)*%
X102870824Y-110851081D02*
X108458000Y-105263905D01*
X102870824Y-111896000D02*
X102870824Y-110851081D01*
X108458000Y-105263905D02*
X108458000Y-103993000D01*
%TO.N,Net-(LED6-A)*%
X115332648Y-111896000D02*
X115332648Y-112150000D01*
X112342648Y-115140000D02*
X109739648Y-115140000D01*
X115332648Y-112150000D02*
X112342648Y-115140000D01*
D35*
%TO.N,Net-(O1A--)*%
X174472152Y-95694400D02*
X173146352Y-94368600D01*
X177038000Y-95694400D02*
X174472152Y-95694400D01*
%TO.N,Net-(O3A--)*%
X190246000Y-122872400D02*
X191377370Y-122872400D01*
X196399370Y-127894400D02*
X196850000Y-127894400D01*
X191377370Y-122872400D02*
X196399370Y-127894400D01*
%TO.N,Net-(O3B--)*%
X198354000Y-97198400D02*
X198354000Y-105337400D01*
X198354000Y-105337400D02*
X197104000Y-106587400D01*
X196342000Y-95186400D02*
X198354000Y-97198400D01*
%TO.N,Net-(O3C--)*%
X189288000Y-106587400D02*
X189484000Y-106587400D01*
X186240000Y-100208400D02*
X186240000Y-103539400D01*
X186240000Y-103539400D02*
X189288000Y-106587400D01*
%TO.N,Net-(O5-Pad7)*%
X164543352Y-104284367D02*
X164592000Y-104333015D01*
X181831352Y-129948600D02*
X183081352Y-131198600D01*
X164559352Y-109852833D02*
X164559352Y-110888367D01*
X164592000Y-110921015D02*
X164592000Y-115757248D01*
X194052352Y-132194600D02*
X195302352Y-130944600D01*
X183081352Y-131198600D02*
X184077352Y-132194600D01*
X164543352Y-97891600D02*
X164543352Y-104284367D01*
X168066352Y-94368600D02*
X164543352Y-97891600D01*
X180063585Y-129948600D02*
X181831352Y-129948600D01*
X174191352Y-123070600D02*
X174191352Y-124076367D01*
X164592000Y-104333015D02*
X164592000Y-109820185D01*
X174191352Y-124076367D02*
X180063585Y-129948600D01*
X167079352Y-118244600D02*
X168857352Y-118244600D01*
X164592000Y-109820185D02*
X164559352Y-109852833D01*
X172941352Y-122328600D02*
X173449352Y-122328600D01*
X164592000Y-115757248D02*
X167079352Y-118244600D01*
X168857352Y-118244600D02*
X172941352Y-122328600D01*
X184077352Y-132194600D02*
X194052352Y-132194600D01*
X164559352Y-110888367D02*
X164592000Y-110921015D01*
X173449352Y-122328600D02*
X174191352Y-123070600D01*
%TO.N,Net-(O5C--)*%
X180541352Y-124086600D02*
X180541352Y-123578600D01*
X168105585Y-125610600D02*
X168603352Y-125610600D01*
X187399352Y-130944600D02*
X180541352Y-124086600D01*
X164539352Y-122044367D02*
X168105585Y-125610600D01*
X164539352Y-119202600D02*
X164539352Y-122044367D01*
%TO.N,Net-(O5D--)*%
X170381352Y-125864600D02*
X164539352Y-131706600D01*
X170381352Y-123578600D02*
X170381352Y-125864600D01*
%TO.N,GP22*%
X187714999Y-81911401D02*
X186915000Y-82711400D01*
X181948233Y-78751400D02*
X185802903Y-78751400D01*
X185802903Y-78751400D02*
X187714999Y-80663496D01*
X187714999Y-80663496D02*
X187714999Y-81911401D01*
X178288000Y-75091167D02*
X181948233Y-78751400D01*
X178288000Y-70265400D02*
X178288000Y-75091167D01*
%TO.N,GP21*%
X185215000Y-97612400D02*
X185215000Y-92510400D01*
X185215000Y-92510400D02*
X186915000Y-90810400D01*
X182466000Y-100361400D02*
X185215000Y-97612400D01*
%TO.N,GP20*%
X182466000Y-102901400D02*
X184658000Y-100709400D01*
X184658000Y-100709400D02*
X184658000Y-99196000D01*
X184658000Y-99196000D02*
X186465000Y-97389000D01*
X186465000Y-97389000D02*
X186465000Y-93633400D01*
%TO.N,GP16*%
X182466000Y-115601400D02*
X174802552Y-115601400D01*
X174802552Y-115601400D02*
X173937352Y-116466600D01*
%TO.N,GP17*%
X181210938Y-111806338D02*
X181210938Y-109972938D01*
X179505352Y-108267352D02*
X181210938Y-109972938D01*
X179505352Y-101695833D02*
X179505352Y-108267352D01*
X182466000Y-113061400D02*
X181210938Y-111806338D01*
X176214352Y-100963600D02*
X178773119Y-100963600D01*
X173683352Y-98432600D02*
X176214352Y-100963600D01*
X178773119Y-100963600D02*
X179505352Y-101695833D01*
D34*
%TO.N,Net-(R19-Pad2)*%
X87884000Y-75320000D02*
X88983999Y-74220001D01*
X92296642Y-74220001D02*
X93206641Y-75130000D01*
X93206641Y-75130000D02*
X96710000Y-75130000D01*
X88983999Y-74220001D02*
X92296642Y-74220001D01*
X96710000Y-75130000D02*
X99296000Y-72544000D01*
%TO.N,Net-(R20-Pad2)*%
X102235000Y-69986000D02*
X102235000Y-67192000D01*
X107721400Y-75345400D02*
X107594400Y-75345400D01*
X107594400Y-75345400D02*
X102235000Y-69986000D01*
D35*
%TO.N,Net-(O3B-+)*%
X191516000Y-93604400D02*
X191545000Y-93633400D01*
X191516000Y-88590701D02*
X191516000Y-93604400D01*
D34*
%TO.N,CJD*%
X99579648Y-33537000D02*
X83058000Y-50058648D01*
D36*
X170180000Y-65340497D02*
X164919503Y-60080000D01*
X170180000Y-68487400D02*
X170180000Y-65340497D01*
X170180000Y-68487400D02*
X176510000Y-68487400D01*
D34*
X83058000Y-50058648D02*
X83058000Y-60080000D01*
D36*
X164919503Y-60080000D02*
X164109000Y-60080000D01*
X176510000Y-68487400D02*
X177018000Y-68995400D01*
D34*
X99579648Y-33508000D02*
X99579648Y-33537000D01*
%TO.N,CK1*%
X90228271Y-64430000D02*
X96199843Y-64430000D01*
X108928208Y-55381000D02*
X111359400Y-52949808D01*
X111359400Y-52949808D02*
X111359400Y-52597400D01*
X86403648Y-65255000D02*
X86498648Y-65160000D01*
X89498271Y-65160000D02*
X90228271Y-64430000D01*
X101633510Y-55381000D02*
X108928208Y-55381000D01*
X96199843Y-64430000D02*
X99706648Y-60923195D01*
X83058000Y-65160000D02*
X83153000Y-65255000D01*
X86498648Y-65160000D02*
X89498271Y-65160000D01*
X99706648Y-60923195D02*
X99706648Y-57307862D01*
X83153000Y-65255000D02*
X86403648Y-65255000D01*
X99706648Y-57307862D02*
X101633510Y-55381000D01*
D35*
%TO.N,CJ1*%
X197104000Y-119287400D02*
X196596000Y-119795400D01*
D34*
X91833000Y-89966000D02*
X95983000Y-94116000D01*
X83058000Y-88020000D02*
X83906000Y-88020000D01*
X93218000Y-95640000D02*
X93218000Y-101736000D01*
D35*
X196596000Y-122560400D02*
X196850000Y-122814400D01*
D34*
X85852000Y-89966000D02*
X91833000Y-89966000D01*
X95983000Y-94116000D02*
X94742000Y-94116000D01*
D35*
X196596000Y-119795400D02*
X196596000Y-122560400D01*
D34*
X83906000Y-88020000D02*
X85852000Y-89966000D01*
X94742000Y-94116000D02*
X93218000Y-95640000D01*
%TO.N,CJ2*%
X86680428Y-87966000D02*
X99260000Y-87966000D01*
D35*
X166878000Y-88020000D02*
X166878000Y-88855503D01*
X197104000Y-101028400D02*
X196342000Y-100266400D01*
X171121097Y-93098600D02*
X179502094Y-93098600D01*
D34*
X84194428Y-85480000D02*
X86680428Y-87966000D01*
X83058000Y-85480000D02*
X84194428Y-85480000D01*
D35*
X197104000Y-104047400D02*
X197104000Y-101028400D01*
X164338000Y-85480000D02*
X166878000Y-88020000D01*
D34*
X99260000Y-87966000D02*
X101346000Y-90052000D01*
D35*
X166878000Y-88855503D02*
X171121097Y-93098600D01*
X179502094Y-93098600D02*
X179894723Y-93491229D01*
D34*
%TO.N,CJ3*%
X110501648Y-90306000D02*
X110501648Y-93342352D01*
D35*
X192479352Y-130944600D02*
X190447352Y-130944600D01*
X190447352Y-130944600D02*
X183081352Y-123578600D01*
D34*
X83058000Y-82940000D02*
X84482856Y-82940000D01*
X106150000Y-85966000D02*
X110490000Y-90306000D01*
X84482856Y-82940000D02*
X87508856Y-85966000D01*
X110490000Y-90306000D02*
X110501648Y-90306000D01*
X110501648Y-93342352D02*
X109982000Y-93862000D01*
X87508856Y-85966000D02*
X106150000Y-85966000D01*
D35*
%TO.N,CJ4*%
X186436000Y-122335400D02*
X186436000Y-124875400D01*
D34*
X93472000Y-117201000D02*
X93472000Y-120278000D01*
X88327284Y-83956000D02*
X84771284Y-80400000D01*
D35*
X189484000Y-119287400D02*
X186436000Y-122335400D01*
D34*
X84771284Y-80400000D02*
X83058000Y-80400000D01*
X93218000Y-83956000D02*
X88327284Y-83956000D01*
%TO.N,CJ5*%
X108458000Y-109581000D02*
X110773000Y-111896000D01*
X108458000Y-109073000D02*
X108458000Y-109581000D01*
D35*
X189484000Y-102044400D02*
X191320000Y-100208400D01*
X189484000Y-104047400D02*
X189484000Y-102044400D01*
%TO.N,CJ6*%
X167841352Y-120813600D02*
X167841352Y-123578600D01*
D34*
X99568000Y-79130000D02*
X99568000Y-83448000D01*
X109739648Y-120220000D02*
X109739648Y-122789000D01*
D35*
X163893352Y-116472970D02*
X167471982Y-120051600D01*
X163893352Y-94760600D02*
X163893352Y-116472970D01*
X166825352Y-91828600D02*
X163893352Y-94760600D01*
X167471982Y-120051600D02*
X168603352Y-120051600D01*
X168603352Y-120051600D02*
X167841352Y-120813600D01*
%TO.N,CJA*%
X201676000Y-92403633D02*
X201676000Y-129650952D01*
X201676000Y-129650952D02*
X200382352Y-130944600D01*
D34*
X83275000Y-62837000D02*
X88992843Y-62837000D01*
D35*
X200763767Y-91491400D02*
X201676000Y-92403633D01*
D34*
X90896648Y-60933195D02*
X90896648Y-56977560D01*
D35*
X193632600Y-91491400D02*
X200763767Y-91491400D01*
D34*
X99942648Y-36222000D02*
X85158000Y-51006648D01*
X88992843Y-62837000D02*
X90896648Y-60933195D01*
X90896648Y-56977560D02*
X85158000Y-51238912D01*
D35*
X193040000Y-92084000D02*
X193632600Y-91491400D01*
D34*
X85158000Y-51238912D02*
X85158000Y-51006648D01*
X83058000Y-62620000D02*
X83275000Y-62837000D01*
X103516648Y-36222000D02*
X99942648Y-36222000D01*
D36*
%TO.N,CS2*%
X195580000Y-72780000D02*
X195580000Y-75429786D01*
X195580000Y-72780000D02*
X195387968Y-72780000D01*
X192563266Y-63946666D02*
X191291000Y-62674400D01*
X195387968Y-72780000D02*
X192563266Y-69955298D01*
D34*
X91885124Y-68430000D02*
X94804634Y-68430000D01*
X87535125Y-72780000D02*
X91885124Y-68430000D01*
D36*
X195580000Y-75429786D02*
X197358000Y-77207786D01*
X192563266Y-69955298D02*
X192563266Y-63946666D01*
X197358000Y-77207786D02*
X197358000Y-79693400D01*
D34*
X83058000Y-72780000D02*
X87535125Y-72780000D01*
D36*
X197358000Y-79693400D02*
X200246000Y-82581400D01*
D34*
%TO.N,CS1*%
X83058000Y-70240000D02*
X87246697Y-70240000D01*
X87246697Y-70240000D02*
X91056697Y-66430000D01*
X91056697Y-66430000D02*
X97917000Y-66430000D01*
X97917000Y-66430000D02*
X102235000Y-62112000D01*
%TO.N,I2C_VCC*%
X89333582Y-50895066D02*
X89918648Y-50310000D01*
D36*
X189738000Y-53211000D02*
X189701600Y-53247400D01*
D34*
X108440000Y-50310000D02*
X108859400Y-50729400D01*
D36*
X192786000Y-31149400D02*
X189738000Y-34197400D01*
X189738000Y-63915400D02*
X189738000Y-59147400D01*
X189738000Y-53211000D02*
X189738000Y-56041400D01*
X189738000Y-49920000D02*
X189738000Y-53211000D01*
D34*
X108204000Y-43824000D02*
X107001919Y-43824000D01*
X106104000Y-50242000D02*
X106172000Y-50310000D01*
D36*
X189738000Y-59147400D02*
X191291000Y-57594400D01*
D34*
X89333582Y-52586066D02*
X89333582Y-50895066D01*
D36*
X195580000Y-49920000D02*
X199390000Y-53730000D01*
X189738000Y-34197400D02*
X189738000Y-49920000D01*
X192094400Y-57594400D02*
X194580000Y-60080000D01*
D34*
X106104000Y-44721919D02*
X106104000Y-50242000D01*
D36*
X191291000Y-57594400D02*
X192094400Y-57594400D01*
X189738000Y-56041400D02*
X191291000Y-57594400D01*
D34*
X89918648Y-50310000D02*
X106172000Y-50310000D01*
D36*
X179578000Y-64423400D02*
X189738000Y-64423400D01*
X189738000Y-64423400D02*
X189738000Y-63915400D01*
D34*
X108859400Y-50729400D02*
X108859400Y-52597400D01*
X106172000Y-50310000D02*
X108440000Y-50310000D01*
D36*
X189701600Y-53247400D02*
X187989000Y-53247400D01*
D34*
X107001919Y-43824000D02*
X106104000Y-44721919D01*
D36*
X177038000Y-61883400D02*
X179578000Y-64423400D01*
X189738000Y-49920000D02*
X195580000Y-49920000D01*
D34*
%TO.N,TPH VCC {slash} CPC SDA*%
X108966000Y-40522000D02*
X117838500Y-40522000D01*
X108204000Y-41284000D02*
X108966000Y-40522000D01*
X117838500Y-40522000D02*
X117869500Y-40553000D01*
D35*
%TO.N,TPH GND {slash} CPC SCL*%
X197866000Y-31149400D02*
X197866000Y-40712500D01*
X197866000Y-40712500D02*
X195516500Y-43062000D01*
D34*
X114211500Y-43062000D02*
X117838500Y-43062000D01*
X117838500Y-43062000D02*
X117869500Y-43093000D01*
D35*
%TO.N,TPH SDA {slash} CPC VCC*%
X193966500Y-39455556D02*
X193966500Y-44052000D01*
D34*
X108204000Y-46364000D02*
X112081919Y-46364000D01*
D35*
X193966500Y-44052000D02*
X195516500Y-45602000D01*
D34*
X112081919Y-46364000D02*
X112812919Y-45633000D01*
X112812919Y-45633000D02*
X117926600Y-45633000D01*
D35*
X195326000Y-38096056D02*
X193966500Y-39455556D01*
X195326000Y-31149400D02*
X195326000Y-38096056D01*
D34*
X117926600Y-45633000D02*
X117957600Y-45602000D01*
%TO.N,TPH SCL {slash} CPC GND*%
X114211500Y-48142000D02*
X117838500Y-48142000D01*
X117838500Y-48142000D02*
X117869500Y-48173000D01*
D35*
%TO.N,GP3*%
X197696000Y-65928144D02*
X197696000Y-74951400D01*
X197696000Y-74951400D02*
X200246000Y-77501400D01*
X199390000Y-51190000D02*
X200690000Y-52490000D01*
X200690000Y-52490000D02*
X200690000Y-62934144D01*
X200690000Y-62934144D02*
X197696000Y-65928144D01*
D36*
%TO.N,+5V*%
X175598000Y-65439400D02*
X175598000Y-64237400D01*
X167143661Y-36798000D02*
X165479352Y-38462309D01*
D34*
X167143661Y-36964600D02*
X169683661Y-36964600D01*
D36*
X175598000Y-64237400D02*
X171450000Y-60089400D01*
X170318630Y-60089400D02*
X171450000Y-60089400D01*
X165479352Y-55250122D02*
X170318630Y-60089400D01*
X165479352Y-38462309D02*
X165479352Y-55250122D01*
%TO.N,~*%
X198806000Y-60766000D02*
X199136000Y-61096000D01*
D34*
X181303352Y-29273600D02*
X181303352Y-29820600D01*
D37*
X199136000Y-60842000D02*
X199136000Y-61096000D01*
D34*
X175913352Y-28029000D02*
X180058752Y-28029000D01*
X181303352Y-29820600D02*
X185399352Y-33916600D01*
D36*
X198806000Y-59980741D02*
X198806000Y-60766000D01*
D34*
X180058752Y-28029000D02*
X181303352Y-29273600D01*
X185399352Y-33916600D02*
X185399352Y-39504600D01*
D36*
X194333259Y-55508000D02*
X198806000Y-59980741D01*
D34*
X185399352Y-39504600D02*
X185399352Y-45092600D01*
D36*
X191516000Y-55508000D02*
X194333259Y-55508000D01*
D35*
%TO.N,GP1*%
X200406000Y-31149400D02*
X201656000Y-31149400D01*
X201990000Y-63472620D02*
X198996000Y-66466620D01*
X198996000Y-66466620D02*
X198996000Y-68631400D01*
X198996000Y-68631400D02*
X200246000Y-69881400D01*
X201990000Y-31483400D02*
X201990000Y-63472620D01*
X201656000Y-31149400D02*
X201990000Y-31483400D01*
%TO.N,GP0*%
X201048032Y-27059400D02*
X202640000Y-28651368D01*
X202640000Y-64947400D02*
X200246000Y-67341400D01*
X199416000Y-27059400D02*
X201048032Y-27059400D01*
X202640000Y-28651368D02*
X202640000Y-64947400D01*
X197866000Y-28609400D02*
X199416000Y-27059400D01*
%TO.N,GP2*%
X201340000Y-50600000D02*
X201340000Y-63203382D01*
X198346000Y-66197382D02*
X198346000Y-73061400D01*
X201340000Y-63203382D02*
X198346000Y-66197382D01*
X198346000Y-73061400D02*
X200246000Y-74961400D01*
X199390000Y-48650000D02*
X201340000Y-50600000D01*
D34*
%TO.N,Net-(J10-Pin_13)*%
X167143661Y-34424600D02*
X169683661Y-34424600D01*
%TO.N,Net-(J10-Pin_15)*%
X167143661Y-31884600D02*
X169683661Y-31884600D01*
%TD*%
%TA.AperFunction,Conductor*%
%TO.N,I2C_GND*%
G36*
X95242667Y-70842293D02*
G01*
X96289106Y-71888732D01*
X96292533Y-71897005D01*
X96289963Y-71904321D01*
X95252409Y-73199117D01*
X95244562Y-73203430D01*
X95238752Y-73202590D01*
X94238093Y-72782721D01*
X94231790Y-72776360D01*
X94231584Y-72775815D01*
X93876788Y-71760171D01*
X93877294Y-71751231D01*
X93881301Y-71746607D01*
X95227866Y-70840857D01*
X95236641Y-70839084D01*
X95242667Y-70842293D01*
G37*
%TD.AperFunction*%
%TD*%
%TA.AperFunction,Conductor*%
%TO.N,I2C_GND*%
G36*
X103894502Y-92056886D02*
G01*
X104939937Y-93102321D01*
X104943364Y-93110594D01*
X104940596Y-93118152D01*
X103786335Y-94482277D01*
X103778375Y-94486379D01*
X103772936Y-94485533D01*
X102884608Y-94118562D01*
X102878270Y-94112236D01*
X102878261Y-94112215D01*
X102511290Y-93223887D01*
X102511299Y-93214932D01*
X102514546Y-93210488D01*
X103878673Y-92056226D01*
X103887201Y-92053499D01*
X103894502Y-92056886D01*
G37*
%TD.AperFunction*%
%TD*%
%TA.AperFunction,Conductor*%
%TO.N,CS2*%
G36*
X190857185Y-78570741D02*
G01*
X191127994Y-78841550D01*
X191131421Y-78849823D01*
X191130141Y-78855144D01*
X190752329Y-79594988D01*
X190745514Y-79600798D01*
X190737452Y-79600485D01*
X190289281Y-79415815D01*
X190282937Y-79409494D01*
X190098250Y-78961281D01*
X190098267Y-78952329D01*
X190103745Y-78946408D01*
X190843592Y-78568593D01*
X190852517Y-78567883D01*
X190857185Y-78570741D01*
G37*
%TD.AperFunction*%
%TD*%
%TA.AperFunction,Conductor*%
%TO.N,CS2*%
G36*
X195585185Y-72781154D02*
G01*
X195585192Y-72781157D01*
X196306812Y-73081039D01*
X196313137Y-73087378D01*
X196313126Y-73096333D01*
X196312461Y-73097682D01*
X195544297Y-74431669D01*
X195537199Y-74437128D01*
X195528319Y-74435969D01*
X195525885Y-74434103D01*
X195255596Y-74163814D01*
X195252946Y-74159733D01*
X194844977Y-73096781D01*
X194845212Y-73087830D01*
X194851414Y-73081784D01*
X195576220Y-72781153D01*
X195585173Y-72781149D01*
X195585185Y-72781154D01*
G37*
%TD.AperFunction*%
%TD*%
%TA.AperFunction,Conductor*%
%TO.N,CJ6*%
G36*
X169937053Y-88446089D02*
G01*
X170207862Y-88716898D01*
X170211289Y-88725171D01*
X170210009Y-88730492D01*
X169832197Y-89470336D01*
X169825382Y-89476146D01*
X169817320Y-89475833D01*
X169369149Y-89291163D01*
X169362805Y-89284842D01*
X169178118Y-88836629D01*
X169178135Y-88827677D01*
X169183613Y-88821756D01*
X169923460Y-88443941D01*
X169932385Y-88443231D01*
X169937053Y-88446089D01*
G37*
%TD.AperFunction*%
%TD*%
%TA.AperFunction,Conductor*%
%TO.N,CJ6*%
G36*
X165121343Y-74999233D02*
G01*
X165127668Y-75005572D01*
X165127707Y-75005667D01*
X165678613Y-76373485D01*
X165678525Y-76382439D01*
X165676033Y-76386129D01*
X165404129Y-76658033D01*
X165395856Y-76661460D01*
X165391485Y-76660613D01*
X164023667Y-76109707D01*
X164017273Y-76103437D01*
X164017185Y-76094483D01*
X164017224Y-76094388D01*
X164335438Y-75323783D01*
X164341759Y-75317448D01*
X165112388Y-74999224D01*
X165121343Y-74999233D01*
G37*
%TD.AperFunction*%
%TD*%
%TA.AperFunction,Conductor*%
%TO.N,GP26*%
G36*
X177354946Y-89879796D02*
G01*
X177354956Y-89879800D01*
X178630800Y-90411400D01*
X178637119Y-90417745D01*
X178638000Y-90422200D01*
X178638000Y-90806599D01*
X178634573Y-90814872D01*
X178630800Y-90817399D01*
X177354956Y-91348999D01*
X177346001Y-91349018D01*
X177339657Y-91342700D01*
X177038864Y-90618887D01*
X177038854Y-90609938D01*
X177339653Y-89886108D01*
X177345991Y-89879785D01*
X177354946Y-89879796D01*
G37*
%TD.AperFunction*%
%TD*%
%TA.AperFunction,Conductor*%
%TO.N,GP26*%
G36*
X181908003Y-89643389D02*
G01*
X182463559Y-90197965D01*
X182466993Y-90206235D01*
X182466993Y-90206260D01*
X182466016Y-90988131D01*
X182462579Y-90996399D01*
X182454301Y-90999816D01*
X182452837Y-90999722D01*
X181008514Y-90815702D01*
X181000741Y-90811257D01*
X180998293Y-90804096D01*
X180998293Y-90419755D01*
X181001720Y-90411482D01*
X181002340Y-90410905D01*
X181892093Y-89642812D01*
X181900593Y-89640000D01*
X181908003Y-89643389D01*
G37*
%TD.AperFunction*%
%TD*%
%TA.AperFunction,Conductor*%
%TO.N,I2C_GND*%
G36*
X187543526Y-114495448D02*
G01*
X188032827Y-114781530D01*
X188104284Y-114823309D01*
X188109697Y-114830443D01*
X188109199Y-114837861D01*
X187962563Y-115194195D01*
X187956245Y-115200542D01*
X187956195Y-115200563D01*
X187599861Y-115347199D01*
X187590907Y-115347178D01*
X187585309Y-115342284D01*
X187498725Y-115194195D01*
X187257448Y-114781527D01*
X187256231Y-114772659D01*
X187259274Y-114767354D01*
X187529353Y-114497275D01*
X187537625Y-114493849D01*
X187543526Y-114495448D01*
G37*
%TD.AperFunction*%
%TD*%
%TA.AperFunction,Conductor*%
%TO.N,I2C_GND*%
G36*
X187164290Y-111969053D02*
G01*
X187170614Y-111975391D01*
X187170603Y-111984346D01*
X187170599Y-111984356D01*
X186639000Y-113260200D01*
X186632655Y-113266519D01*
X186628200Y-113267400D01*
X186243800Y-113267400D01*
X186235527Y-113263973D01*
X186233000Y-113260200D01*
X185701400Y-111984356D01*
X185701381Y-111975401D01*
X185707697Y-111969058D01*
X186431512Y-111668264D01*
X186440461Y-111668254D01*
X187164290Y-111969053D01*
G37*
%TD.AperFunction*%
%TD*%
%TA.AperFunction,Conductor*%
%TO.N,Net-(O3D-+)*%
G36*
X185803181Y-113165981D02*
G01*
X185811447Y-113169420D01*
X185814862Y-113177698D01*
X185814812Y-113178765D01*
X185747668Y-113900312D01*
X185744291Y-113907501D01*
X185473962Y-114177830D01*
X185465689Y-114181257D01*
X185457416Y-114177830D01*
X185456337Y-114176587D01*
X185248662Y-113900312D01*
X184968537Y-113527655D01*
X184966306Y-113518985D01*
X184969598Y-113512372D01*
X185311859Y-113168740D01*
X185320121Y-113165299D01*
X185803181Y-113165981D01*
G37*
%TD.AperFunction*%
%TD*%
%TA.AperFunction,Conductor*%
%TO.N,Net-(O3D-+)*%
G36*
X189488122Y-114210117D02*
G01*
X189488139Y-114210134D01*
X190040664Y-114764041D01*
X190044081Y-114772319D01*
X190040644Y-114780587D01*
X190039888Y-114781279D01*
X188958415Y-115685851D01*
X188949870Y-115688530D01*
X188942635Y-115685149D01*
X188670857Y-115413371D01*
X188667430Y-115405098D01*
X188667431Y-115404936D01*
X188676060Y-114781279D01*
X188683840Y-114218925D01*
X188687381Y-114210702D01*
X188695526Y-114207389D01*
X189479846Y-114206697D01*
X189488122Y-114210117D01*
G37*
%TD.AperFunction*%
%TD*%
%TA.AperFunction,Conductor*%
%TO.N,I2C_GND*%
G36*
X182115299Y-120749669D02*
G01*
X182766145Y-120921044D01*
X182773272Y-120926463D01*
X182774479Y-120935336D01*
X182773985Y-120936809D01*
X182627603Y-121292527D01*
X182625035Y-121296369D01*
X182351657Y-121568385D01*
X182343376Y-121571791D01*
X182335111Y-121568343D01*
X182334911Y-121568137D01*
X181833789Y-121039069D01*
X181830587Y-121030706D01*
X181834009Y-121022751D01*
X182104050Y-120752710D01*
X182112322Y-120749284D01*
X182115299Y-120749669D01*
G37*
%TD.AperFunction*%
%TD*%
%TA.AperFunction,Conductor*%
%TO.N,GP19*%
G36*
X183203234Y-105139733D02*
G01*
X183209559Y-105146072D01*
X183209563Y-105146082D01*
X183735821Y-106424136D01*
X183735802Y-106433091D01*
X183733275Y-106436864D01*
X183461464Y-106708675D01*
X183453191Y-106712102D01*
X183448736Y-106711221D01*
X182769047Y-106431349D01*
X182170682Y-106184963D01*
X182164337Y-106178644D01*
X182164318Y-106169689D01*
X182164322Y-106169679D01*
X182463438Y-105445185D01*
X182469762Y-105438848D01*
X182469764Y-105438846D01*
X183194279Y-105139722D01*
X183203234Y-105139733D01*
G37*
%TD.AperFunction*%
%TD*%
%TA.AperFunction,Conductor*%
%TO.N,GP19*%
G36*
X183311043Y-117990797D02*
G01*
X183314816Y-117993324D01*
X183586627Y-118265135D01*
X183590054Y-118273408D01*
X183589173Y-118277863D01*
X183062915Y-119555917D01*
X183056596Y-119562262D01*
X183047641Y-119562281D01*
X183047631Y-119562277D01*
X182323139Y-119263162D01*
X182316800Y-119256837D01*
X182316789Y-119256812D01*
X182017674Y-118532320D01*
X182017685Y-118523365D01*
X182024022Y-118517041D01*
X183302090Y-117990778D01*
X183311043Y-117990797D01*
G37*
%TD.AperFunction*%
%TD*%
%TA.AperFunction,Conductor*%
%TO.N,Net-(O3B--)*%
G36*
X194285234Y-122541733D02*
G01*
X194291559Y-122548072D01*
X194291563Y-122548082D01*
X194817821Y-123826136D01*
X194817802Y-123835091D01*
X194815275Y-123838864D01*
X194543464Y-124110675D01*
X194535191Y-124114102D01*
X194530736Y-124113221D01*
X193851047Y-123833349D01*
X193252682Y-123586963D01*
X193246337Y-123580644D01*
X193246318Y-123571689D01*
X193246322Y-123571679D01*
X193545438Y-122847185D01*
X193551762Y-122840848D01*
X193551764Y-122840846D01*
X194276279Y-122541722D01*
X194285234Y-122541733D01*
G37*
%TD.AperFunction*%
%TD*%
%TA.AperFunction,Conductor*%
%TO.N,Net-(O3B--)*%
G36*
X197841234Y-106285733D02*
G01*
X197847559Y-106292072D01*
X197847563Y-106292082D01*
X198373821Y-107570136D01*
X198373802Y-107579091D01*
X198371275Y-107582864D01*
X198099464Y-107854675D01*
X198091191Y-107858102D01*
X198086736Y-107857221D01*
X197407047Y-107577349D01*
X196808682Y-107330963D01*
X196802337Y-107324644D01*
X196802318Y-107315689D01*
X196802322Y-107315679D01*
X197101438Y-106591185D01*
X197107762Y-106584848D01*
X197107764Y-106584846D01*
X197832279Y-106285722D01*
X197841234Y-106285733D01*
G37*
%TD.AperFunction*%
%TD*%
%TA.AperFunction,Conductor*%
%TO.N,Net-(O3A--)*%
G36*
X196375720Y-116445722D02*
G01*
X197100212Y-116744837D01*
X197106551Y-116751162D01*
X197106562Y-116751187D01*
X197405677Y-117475679D01*
X197405666Y-117484634D01*
X197399327Y-117490959D01*
X197399317Y-117490963D01*
X196121263Y-118017221D01*
X196112308Y-118017202D01*
X196108535Y-118014675D01*
X195836724Y-117742864D01*
X195833297Y-117734591D01*
X195834177Y-117730140D01*
X196360437Y-116452080D01*
X196366755Y-116445737D01*
X196375710Y-116445718D01*
X196375720Y-116445722D01*
G37*
%TD.AperFunction*%
%TD*%
%TA.AperFunction,Conductor*%
%TO.N,Net-(O3A--)*%
G36*
X190258015Y-122072766D02*
G01*
X191454513Y-122109268D01*
X191462428Y-122112690D01*
X191734186Y-122384448D01*
X191737613Y-122392721D01*
X191734655Y-122400497D01*
X190819918Y-123428828D01*
X190811859Y-123432732D01*
X190803400Y-123429794D01*
X190802913Y-123429335D01*
X190248734Y-122876539D01*
X190245297Y-122868271D01*
X190245297Y-122868246D01*
X190245717Y-122392721D01*
X190245989Y-122084451D01*
X190249423Y-122076182D01*
X190257699Y-122072762D01*
X190258015Y-122072766D01*
G37*
%TD.AperFunction*%
%TD*%
%TA.AperFunction,Conductor*%
%TO.N,CJ1*%
G36*
X165123376Y-87698393D02*
G01*
X165128623Y-87702710D01*
X165859133Y-88798877D01*
X165860869Y-88807662D01*
X165857670Y-88813638D01*
X165585917Y-89085391D01*
X165577644Y-89088818D01*
X165575609Y-89088640D01*
X165418243Y-89060839D01*
X164347655Y-88871705D01*
X164340105Y-88866892D01*
X164337991Y-88860196D01*
X164337299Y-88027125D01*
X164340719Y-88018851D01*
X164344531Y-88016303D01*
X165114422Y-87698384D01*
X165123376Y-87698393D01*
G37*
%TD.AperFunction*%
%TD*%
%TA.AperFunction,Conductor*%
%TO.N,CJ1*%
G36*
X198545336Y-117877223D02*
G01*
X198548763Y-117885496D01*
X198548005Y-117889634D01*
X198317680Y-118498197D01*
X197908141Y-119580271D01*
X197902008Y-119586796D01*
X197893058Y-119587072D01*
X197893057Y-119587072D01*
X197108540Y-119290118D01*
X197102017Y-119283986D01*
X196749067Y-118498197D01*
X196748803Y-118489246D01*
X196754945Y-118482730D01*
X198127119Y-117885496D01*
X198151767Y-117874768D01*
X198156436Y-117873796D01*
X198537063Y-117873796D01*
X198545336Y-117877223D01*
G37*
%TD.AperFunction*%
%TD*%
%TA.AperFunction,Conductor*%
%TO.N,Net-(O1A--)*%
G36*
X178301813Y-94698628D02*
G01*
X178306486Y-94706267D01*
X178306629Y-94708089D01*
X178306629Y-95091232D01*
X178305031Y-95097135D01*
X177782251Y-95991738D01*
X177775118Y-95997152D01*
X177767677Y-95996647D01*
X177044237Y-95697393D01*
X177037902Y-95691064D01*
X177037009Y-95686569D01*
X177037987Y-94904384D01*
X177041424Y-94896118D01*
X177047862Y-94892845D01*
X178293108Y-94696532D01*
X178301813Y-94698628D01*
G37*
%TD.AperFunction*%
%TD*%
%TA.AperFunction,Conductor*%
%TO.N,Net-(O1A--)*%
G36*
X184462063Y-89611603D02*
G01*
X184907503Y-89795147D01*
X184913846Y-89801467D01*
X184913858Y-89801495D01*
X185099434Y-90250487D01*
X185099427Y-90259442D01*
X185094494Y-90265075D01*
X184568722Y-90570258D01*
X184562851Y-90571839D01*
X184181639Y-90571839D01*
X184173366Y-90568412D01*
X184169939Y-90560139D01*
X184170415Y-90556836D01*
X184446392Y-89619120D01*
X184452014Y-89612153D01*
X184460918Y-89611201D01*
X184462063Y-89611603D01*
G37*
%TD.AperFunction*%
%TD*%
%TA.AperFunction,Conductor*%
%TO.N,I2C_GND*%
G36*
X180499751Y-96208160D02*
G01*
X180505349Y-96213054D01*
X180833209Y-96773809D01*
X180834427Y-96782679D01*
X180831382Y-96787986D01*
X180561306Y-97058062D01*
X180553033Y-97061489D01*
X180547129Y-97059889D01*
X180071163Y-96781603D01*
X179986374Y-96732029D01*
X179980961Y-96724895D01*
X179981458Y-96717479D01*
X180128096Y-96361141D01*
X180134412Y-96354796D01*
X180490799Y-96208139D01*
X180499751Y-96208160D01*
G37*
%TD.AperFunction*%
%TD*%
%TA.AperFunction,Conductor*%
%TO.N,I2C_VCC*%
G36*
X187313287Y-76054917D02*
G01*
X187316318Y-76060172D01*
X187651462Y-77315360D01*
X187650285Y-77324237D01*
X187644648Y-77329182D01*
X186917163Y-77631501D01*
X186912658Y-77632397D01*
X186128248Y-77631416D01*
X186119980Y-77627979D01*
X186116563Y-77619701D01*
X186116654Y-77618267D01*
X186312710Y-76061726D01*
X186317144Y-76053948D01*
X186324318Y-76051490D01*
X187305014Y-76051490D01*
X187313287Y-76054917D01*
G37*
%TD.AperFunction*%
%TD*%
%TA.AperFunction,Conductor*%
%TO.N,I2C_GND*%
G36*
X185313859Y-70852799D02*
G01*
X185670195Y-70999436D01*
X185676542Y-71005754D01*
X185676563Y-71005804D01*
X185823199Y-71362138D01*
X185823178Y-71371092D01*
X185818284Y-71376690D01*
X185257530Y-71704550D01*
X185248659Y-71705768D01*
X185243352Y-71702723D01*
X184973276Y-71432647D01*
X184969849Y-71424374D01*
X184971447Y-71418473D01*
X185299310Y-70857713D01*
X185306443Y-70852302D01*
X185313859Y-70852799D01*
G37*
%TD.AperFunction*%
%TD*%
%TA.AperFunction,Conductor*%
%TO.N,I2C_VCC*%
G36*
X186910653Y-76835315D02*
G01*
X186914948Y-76843173D01*
X186915016Y-76844414D01*
X186915997Y-77629058D01*
X186915101Y-77633563D01*
X186612871Y-78360833D01*
X186606532Y-78367158D01*
X186598797Y-78367576D01*
X186349094Y-78294890D01*
X185349288Y-78003853D01*
X185342302Y-77998250D01*
X185340858Y-77992619D01*
X185340858Y-77011904D01*
X185344285Y-77003631D01*
X185351301Y-77000272D01*
X186902061Y-76832797D01*
X186910653Y-76835315D01*
G37*
%TD.AperFunction*%
%TD*%
%TA.AperFunction,Conductor*%
%TO.N,I2C_VCC*%
G36*
X182479831Y-76703993D02*
G01*
X184056457Y-76999610D01*
X184063956Y-77004503D01*
X184066000Y-77011110D01*
X184066000Y-77991689D01*
X184062573Y-77999962D01*
X184056456Y-78003189D01*
X182479838Y-78298805D01*
X182471075Y-78296961D01*
X182466182Y-78289461D01*
X182465982Y-78287320D01*
X182465000Y-77501400D01*
X182465982Y-76715479D01*
X182469419Y-76707211D01*
X182477697Y-76703794D01*
X182479831Y-76703993D01*
G37*
%TD.AperFunction*%
%TD*%
%TA.AperFunction,Conductor*%
%TO.N,GP26*%
G36*
X184968029Y-73354765D02*
G01*
X185416203Y-73539437D01*
X185422546Y-73545757D01*
X185422563Y-73545797D01*
X185607233Y-73993968D01*
X185607216Y-74002922D01*
X185601736Y-74008845D01*
X184861892Y-74386657D01*
X184852966Y-74387368D01*
X184848298Y-74384510D01*
X184577489Y-74113701D01*
X184574062Y-74105428D01*
X184575341Y-74100110D01*
X184953155Y-73360261D01*
X184959969Y-73354453D01*
X184968029Y-73354765D01*
G37*
%TD.AperFunction*%
%TD*%
%TA.AperFunction,Conductor*%
%TO.N,GP26*%
G36*
X184857764Y-75223327D02*
G01*
X184860622Y-75227995D01*
X185116616Y-76018298D01*
X185115905Y-76027224D01*
X185109982Y-76032704D01*
X184662497Y-76219027D01*
X184653543Y-76219044D01*
X184653503Y-76219027D01*
X184206017Y-76032704D01*
X184199696Y-76026360D01*
X184199383Y-76018298D01*
X184455378Y-75227995D01*
X184461188Y-75221180D01*
X184466509Y-75219900D01*
X184849491Y-75219900D01*
X184857764Y-75223327D01*
G37*
%TD.AperFunction*%
%TD*%
%TA.AperFunction,Conductor*%
%TO.N,Net-(O1A--)*%
G36*
X189034557Y-71069810D02*
G01*
X189479495Y-71253147D01*
X189485838Y-71259467D01*
X189485850Y-71259495D01*
X189671637Y-71708997D01*
X189671630Y-71717952D01*
X189667243Y-71723248D01*
X189178923Y-72043665D01*
X189172504Y-72045583D01*
X188790997Y-72045583D01*
X188782724Y-72042156D01*
X188779297Y-72033883D01*
X188779649Y-72031036D01*
X188860428Y-71708997D01*
X189018759Y-71077782D01*
X189024095Y-71070594D01*
X189032954Y-71069283D01*
X189034557Y-71069810D01*
G37*
%TD.AperFunction*%
%TD*%
%TA.AperFunction,Conductor*%
%TO.N,Net-(O1A--)*%
G36*
X189175764Y-78895427D02*
G01*
X189178622Y-78900095D01*
X189434616Y-79690398D01*
X189433905Y-79699324D01*
X189427982Y-79704804D01*
X188980497Y-79891127D01*
X188971543Y-79891144D01*
X188971503Y-79891127D01*
X188524017Y-79704804D01*
X188517696Y-79698460D01*
X188517383Y-79690398D01*
X188773378Y-78900095D01*
X188779188Y-78893280D01*
X188784509Y-78892000D01*
X189167491Y-78892000D01*
X189175764Y-78895427D01*
G37*
%TD.AperFunction*%
%TD*%
%TA.AperFunction,Conductor*%
%TO.N,CJA*%
G36*
X165121343Y-62299233D02*
G01*
X165127668Y-62305572D01*
X165127707Y-62305667D01*
X165678613Y-63673485D01*
X165678525Y-63682439D01*
X165676033Y-63686129D01*
X165404129Y-63958033D01*
X165395856Y-63961460D01*
X165391485Y-63960613D01*
X164023667Y-63409707D01*
X164017273Y-63403437D01*
X164017185Y-63394483D01*
X164017224Y-63394388D01*
X164335438Y-62623783D01*
X164341759Y-62617448D01*
X165112388Y-62299224D01*
X165121343Y-62299233D01*
G37*
%TD.AperFunction*%
%TD*%
%TA.AperFunction,Conductor*%
%TO.N,CJA*%
G36*
X185938807Y-80916657D02*
G01*
X185943808Y-80922321D01*
X186130321Y-81370263D01*
X186130338Y-81379217D01*
X186130321Y-81379257D01*
X185944216Y-81826218D01*
X185937872Y-81832539D01*
X185929244Y-81832652D01*
X185147346Y-81534280D01*
X185140838Y-81528129D01*
X185139817Y-81523349D01*
X185139817Y-81140338D01*
X185143244Y-81132065D01*
X185148430Y-81129053D01*
X185929925Y-80915532D01*
X185938807Y-80916657D01*
G37*
%TD.AperFunction*%
%TD*%
%TA.AperFunction,Conductor*%
%TO.N,I2C_GND*%
G36*
X185059859Y-84060799D02*
G01*
X185416195Y-84207436D01*
X185422542Y-84213754D01*
X185422563Y-84213804D01*
X185569199Y-84570138D01*
X185569178Y-84579092D01*
X185564284Y-84584690D01*
X185003530Y-84912550D01*
X184994659Y-84913768D01*
X184989352Y-84910723D01*
X184719276Y-84640647D01*
X184715849Y-84632374D01*
X184717447Y-84626473D01*
X185045310Y-84065713D01*
X185052443Y-84060302D01*
X185059859Y-84060799D01*
G37*
%TD.AperFunction*%
%TD*%
%TA.AperFunction,Conductor*%
%TO.N,GP22*%
G36*
X183457691Y-94011597D02*
G01*
X183461464Y-94014124D01*
X183733275Y-94285935D01*
X183736702Y-94294208D01*
X183735821Y-94298663D01*
X183209563Y-95576717D01*
X183203244Y-95583062D01*
X183194289Y-95583081D01*
X183194279Y-95583077D01*
X182469787Y-95283962D01*
X182463448Y-95277637D01*
X182463437Y-95277612D01*
X182164322Y-94553120D01*
X182164333Y-94544165D01*
X182170670Y-94537841D01*
X183448738Y-94011578D01*
X183457691Y-94011597D01*
G37*
%TD.AperFunction*%
%TD*%
%TA.AperFunction,Conductor*%
%TO.N,GP22*%
G36*
X186920185Y-82712554D02*
G01*
X186920192Y-82712557D01*
X187640992Y-83012098D01*
X187647317Y-83018437D01*
X187647306Y-83027392D01*
X187646248Y-83029375D01*
X186785506Y-84325418D01*
X186778075Y-84330414D01*
X186769287Y-84328691D01*
X186767487Y-84327218D01*
X186496809Y-84056540D01*
X186493899Y-84051706D01*
X186179023Y-83027716D01*
X186179867Y-83018801D01*
X186185720Y-83013471D01*
X186911220Y-82712553D01*
X186920173Y-82712549D01*
X186920185Y-82712554D01*
G37*
%TD.AperFunction*%
%TD*%
%TA.AperFunction,Conductor*%
%TO.N,Net-(O3B-+)*%
G36*
X196121259Y-107857577D02*
G01*
X197399318Y-108383836D01*
X197405662Y-108390155D01*
X197405681Y-108399110D01*
X197405677Y-108399120D01*
X197106562Y-109123612D01*
X197100237Y-109129951D01*
X197100212Y-109129962D01*
X196375720Y-109429077D01*
X196366765Y-109429066D01*
X196360441Y-109422728D01*
X195834178Y-108144661D01*
X195834197Y-108135708D01*
X195836721Y-108131938D01*
X196108536Y-107860123D01*
X196116808Y-107856697D01*
X196121259Y-107857577D01*
G37*
%TD.AperFunction*%
%TD*%
%TA.AperFunction,Conductor*%
%TO.N,Net-(O3B-+)*%
G36*
X190816720Y-93331722D02*
G01*
X191541212Y-93630837D01*
X191547551Y-93637162D01*
X191547562Y-93637187D01*
X191846677Y-94361679D01*
X191846666Y-94370634D01*
X191840327Y-94376959D01*
X191840317Y-94376963D01*
X190562263Y-94903221D01*
X190553308Y-94903202D01*
X190549535Y-94900675D01*
X190277724Y-94628864D01*
X190274297Y-94620591D01*
X190275177Y-94616140D01*
X190801437Y-93338080D01*
X190807755Y-93331737D01*
X190816710Y-93331718D01*
X190816720Y-93331722D01*
G37*
%TD.AperFunction*%
%TD*%
%TA.AperFunction,Conductor*%
%TO.N,Net-(O3A-+)*%
G36*
X187652234Y-85428733D02*
G01*
X187658559Y-85435072D01*
X187658563Y-85435082D01*
X188184821Y-86713136D01*
X188184802Y-86722091D01*
X188182275Y-86725864D01*
X187910464Y-86997675D01*
X187902191Y-87001102D01*
X187897736Y-87000221D01*
X187218047Y-86720349D01*
X186619682Y-86473963D01*
X186613337Y-86467644D01*
X186613318Y-86458689D01*
X186613322Y-86458679D01*
X186912438Y-85734185D01*
X186918762Y-85727848D01*
X186918764Y-85727846D01*
X187643279Y-85428722D01*
X187652234Y-85428733D01*
G37*
%TD.AperFunction*%
%TD*%
%TA.AperFunction,Conductor*%
%TO.N,CJ2*%
G36*
X192253906Y-97155772D02*
G01*
X192260720Y-97161581D01*
X192262000Y-97166902D01*
X192262000Y-97549885D01*
X192258573Y-97558158D01*
X192253905Y-97561016D01*
X191463601Y-97817010D01*
X191454675Y-97816299D01*
X191449196Y-97810377D01*
X191262871Y-97362889D01*
X191262855Y-97353938D01*
X191449196Y-96906409D01*
X191455539Y-96900090D01*
X191463601Y-96899777D01*
X192253906Y-97155772D01*
G37*
%TD.AperFunction*%
%TD*%
%TA.AperFunction,Conductor*%
%TO.N,CJ2*%
G36*
X195359259Y-98996577D02*
G01*
X196637318Y-99522836D01*
X196643662Y-99529155D01*
X196643681Y-99538110D01*
X196643677Y-99538120D01*
X196344562Y-100262612D01*
X196338237Y-100268951D01*
X196338212Y-100268962D01*
X195613720Y-100568077D01*
X195604765Y-100568066D01*
X195598441Y-100561728D01*
X195072178Y-99283661D01*
X195072197Y-99274708D01*
X195074721Y-99270938D01*
X195346536Y-98999123D01*
X195354808Y-98995697D01*
X195359259Y-98996577D01*
G37*
%TD.AperFunction*%
%TD*%
%TA.AperFunction,Conductor*%
%TO.N,Net-(O3A-+)*%
G36*
X196121259Y-112937577D02*
G01*
X197399318Y-113463836D01*
X197405662Y-113470155D01*
X197405681Y-113479110D01*
X197405677Y-113479120D01*
X197106562Y-114203612D01*
X197100237Y-114209951D01*
X197100212Y-114209962D01*
X196375720Y-114509077D01*
X196366765Y-114509066D01*
X196360441Y-114502728D01*
X195834178Y-113224661D01*
X195834197Y-113215708D01*
X195836721Y-113211938D01*
X196108536Y-112940123D01*
X196116808Y-112936697D01*
X196121259Y-112937577D01*
G37*
%TD.AperFunction*%
%TD*%
%TA.AperFunction,Conductor*%
%TO.N,CK2*%
G36*
X165121343Y-67379233D02*
G01*
X165127668Y-67385572D01*
X165127707Y-67385667D01*
X165678613Y-68753485D01*
X165678525Y-68762439D01*
X165676033Y-68766129D01*
X165404129Y-69038033D01*
X165395856Y-69041460D01*
X165391485Y-69040613D01*
X164023667Y-68489707D01*
X164017273Y-68483437D01*
X164017185Y-68474483D01*
X164017224Y-68474388D01*
X164335438Y-67703783D01*
X164341759Y-67697448D01*
X165112388Y-67379224D01*
X165121343Y-67379233D01*
G37*
%TD.AperFunction*%
%TD*%
%TA.AperFunction,Conductor*%
%TO.N,CK2*%
G36*
X182164343Y-81853100D02*
G01*
X182164347Y-81853110D01*
X182465134Y-82576910D01*
X182465144Y-82585863D01*
X182465135Y-82585885D01*
X182465134Y-82585890D01*
X182164347Y-83309689D01*
X182158008Y-83316014D01*
X182149053Y-83316003D01*
X182149043Y-83315999D01*
X180873200Y-82784399D01*
X180866881Y-82778054D01*
X180866000Y-82773599D01*
X180866000Y-82389200D01*
X180869427Y-82380927D01*
X180873200Y-82378400D01*
X182149043Y-81846800D01*
X182157998Y-81846781D01*
X182164343Y-81853100D01*
G37*
%TD.AperFunction*%
%TD*%
%TA.AperFunction,Conductor*%
%TO.N,CK1*%
G36*
X167311510Y-72703983D02*
G01*
X167319778Y-72707422D01*
X167323193Y-72715700D01*
X167323192Y-72715858D01*
X167312757Y-73413732D01*
X167309331Y-73421830D01*
X167038713Y-73692448D01*
X167030440Y-73695875D01*
X167022167Y-73692448D01*
X167021613Y-73691854D01*
X166476966Y-73065771D01*
X166474121Y-73057280D01*
X166477501Y-73049837D01*
X166819229Y-72706740D01*
X166827491Y-72703299D01*
X167311510Y-72703983D01*
G37*
%TD.AperFunction*%
%TD*%
%TA.AperFunction,Conductor*%
%TO.N,CK1*%
G36*
X182158640Y-86926237D02*
G01*
X182163901Y-86932056D01*
X182463706Y-87654872D01*
X182463711Y-87663827D01*
X182461162Y-87667638D01*
X181907131Y-88220285D01*
X181898853Y-88223702D01*
X181892330Y-88221705D01*
X180855495Y-87523126D01*
X180850549Y-87515661D01*
X180852330Y-87506885D01*
X180853755Y-87505155D01*
X181124478Y-87234432D01*
X181129383Y-87231502D01*
X182149731Y-86925333D01*
X182158640Y-86926237D01*
G37*
%TD.AperFunction*%
%TD*%
%TA.AperFunction,Conductor*%
%TO.N,-12V*%
G36*
X189497831Y-110869993D02*
G01*
X191074457Y-111165610D01*
X191081956Y-111170503D01*
X191084000Y-111177110D01*
X191084000Y-112157689D01*
X191080573Y-112165962D01*
X191074456Y-112169189D01*
X189497838Y-112464805D01*
X189489075Y-112462961D01*
X189484182Y-112455461D01*
X189483982Y-112453320D01*
X189483000Y-111667400D01*
X189483982Y-110881479D01*
X189487419Y-110873211D01*
X189495697Y-110869794D01*
X189497831Y-110869993D01*
G37*
%TD.AperFunction*%
%TD*%
%TA.AperFunction,Conductor*%
%TO.N,-12V*%
G36*
X181870563Y-46316827D02*
G01*
X181873790Y-46322944D01*
X182169405Y-47899561D01*
X182167561Y-47908324D01*
X182160061Y-47913217D01*
X182157920Y-47913417D01*
X181372000Y-47914400D01*
X180586079Y-47913417D01*
X180577811Y-47909980D01*
X180574394Y-47901702D01*
X180574593Y-47899569D01*
X180870210Y-46322942D01*
X180875103Y-46315444D01*
X180881710Y-46313400D01*
X181862290Y-46313400D01*
X181870563Y-46316827D01*
G37*
%TD.AperFunction*%
%TD*%
%TA.AperFunction,Conductor*%
%TO.N,-12V*%
G36*
X182157920Y-42325382D02*
G01*
X182166188Y-42328819D01*
X182169605Y-42337097D01*
X182169405Y-42339238D01*
X181873790Y-43915856D01*
X181868897Y-43923356D01*
X181862290Y-43925400D01*
X180881710Y-43925400D01*
X180873437Y-43921973D01*
X180870210Y-43915856D01*
X180574594Y-42339236D01*
X180576438Y-42330475D01*
X180583938Y-42325582D01*
X180586074Y-42325382D01*
X181372000Y-42324400D01*
X182157920Y-42325382D01*
G37*
%TD.AperFunction*%
%TD*%
%TA.AperFunction,Conductor*%
%TO.N,-12V*%
G36*
X181870563Y-40728827D02*
G01*
X181873790Y-40734944D01*
X182169405Y-42311561D01*
X182167561Y-42320324D01*
X182160061Y-42325217D01*
X182157920Y-42325417D01*
X181372000Y-42326400D01*
X180586079Y-42325417D01*
X180577811Y-42321980D01*
X180574394Y-42313702D01*
X180574593Y-42311569D01*
X180870210Y-40734942D01*
X180875103Y-40727444D01*
X180881710Y-40725400D01*
X181862290Y-40725400D01*
X181870563Y-40728827D01*
G37*
%TD.AperFunction*%
%TD*%
%TA.AperFunction,Conductor*%
%TO.N,-12V*%
G36*
X182157920Y-36737382D02*
G01*
X182166188Y-36740819D01*
X182169605Y-36749097D01*
X182169405Y-36751238D01*
X181873790Y-38327856D01*
X181868897Y-38335356D01*
X181862290Y-38337400D01*
X180881710Y-38337400D01*
X180873437Y-38333973D01*
X180870210Y-38327856D01*
X180574594Y-36751236D01*
X180576438Y-36742475D01*
X180583938Y-36737582D01*
X180586074Y-36737382D01*
X181372000Y-36736400D01*
X182157920Y-36737382D01*
G37*
%TD.AperFunction*%
%TD*%
%TA.AperFunction,Conductor*%
%TO.N,-12V*%
G36*
X176928463Y-48326818D02*
G01*
X177817089Y-48959901D01*
X177821838Y-48967492D01*
X177822000Y-48969430D01*
X177822000Y-50447207D01*
X177818573Y-50455480D01*
X177810300Y-50458907D01*
X177806626Y-50458315D01*
X175838024Y-49807295D01*
X175831246Y-49801444D01*
X175830258Y-49793736D01*
X176019983Y-48908741D01*
X176025065Y-48901374D01*
X176915331Y-48326518D01*
X176924139Y-48324910D01*
X176928463Y-48326818D01*
G37*
%TD.AperFunction*%
%TD*%
%TA.AperFunction,Conductor*%
%TO.N,-12V*%
G36*
X181944262Y-47357678D02*
G01*
X181945635Y-47359334D01*
X182851439Y-48683203D01*
X182853283Y-48691966D01*
X182850056Y-48698083D01*
X182156683Y-49391456D01*
X182148410Y-49394883D01*
X182141803Y-49392839D01*
X180817934Y-48487035D01*
X180813041Y-48479535D01*
X180814885Y-48470772D01*
X180816252Y-48469122D01*
X181371293Y-47912693D01*
X181927717Y-47357657D01*
X181935994Y-47354241D01*
X181944262Y-47357678D01*
G37*
%TD.AperFunction*%
%TD*%
%TA.AperFunction,Conductor*%
%TO.N,Net-(O3A-+)*%
G36*
X187906691Y-84460597D02*
G01*
X187910464Y-84463124D01*
X188182275Y-84734935D01*
X188185702Y-84743208D01*
X188184821Y-84747663D01*
X187658563Y-86025717D01*
X187652244Y-86032062D01*
X187643289Y-86032081D01*
X187643279Y-86032077D01*
X186918787Y-85732962D01*
X186912448Y-85726637D01*
X186912437Y-85726612D01*
X186613322Y-85002120D01*
X186613333Y-84993165D01*
X186619670Y-84986841D01*
X187897738Y-84460578D01*
X187906691Y-84460597D01*
G37*
%TD.AperFunction*%
%TD*%
%TA.AperFunction,Conductor*%
%TO.N,Net-(O3A-+)*%
G36*
X191214303Y-81766512D02*
G01*
X191214894Y-81767729D01*
X191514842Y-82489508D01*
X191514853Y-82498463D01*
X191514845Y-82498481D01*
X191214272Y-83223149D01*
X191207937Y-83229478D01*
X191199135Y-83229535D01*
X190128402Y-82802970D01*
X190124459Y-82800374D01*
X189854260Y-82530175D01*
X189850833Y-82521902D01*
X189854260Y-82513629D01*
X189856826Y-82511689D01*
X189880494Y-82498463D01*
X191198384Y-81762005D01*
X191207276Y-81760961D01*
X191214303Y-81766512D01*
G37*
%TD.AperFunction*%
%TD*%
%TA.AperFunction,Conductor*%
%TO.N,Net-(O5C-+)*%
G36*
X177018611Y-122308777D02*
G01*
X178296670Y-122835036D01*
X178303014Y-122841355D01*
X178303033Y-122850310D01*
X178303029Y-122850320D01*
X178003914Y-123574812D01*
X177997589Y-123581151D01*
X177997564Y-123581162D01*
X177273072Y-123880277D01*
X177264117Y-123880266D01*
X177257793Y-123873928D01*
X176731530Y-122595861D01*
X176731549Y-122586908D01*
X176734073Y-122583138D01*
X177005888Y-122311323D01*
X177014160Y-122307897D01*
X177018611Y-122308777D01*
G37*
%TD.AperFunction*%
%TD*%
%TA.AperFunction,Conductor*%
%TO.N,Net-(O5C-+)*%
G36*
X167874611Y-115196777D02*
G01*
X169152670Y-115723036D01*
X169159014Y-115729355D01*
X169159033Y-115738310D01*
X169159029Y-115738320D01*
X168859914Y-116462812D01*
X168853589Y-116469151D01*
X168853564Y-116469162D01*
X168129072Y-116768277D01*
X168120117Y-116768266D01*
X168113793Y-116761928D01*
X167587530Y-115483861D01*
X167587549Y-115474908D01*
X167590073Y-115471138D01*
X167861888Y-115199323D01*
X167870160Y-115195897D01*
X167874611Y-115196777D01*
G37*
%TD.AperFunction*%
%TD*%
%TA.AperFunction,Conductor*%
%TO.N,Net-(O5C-+)*%
G36*
X169644328Y-116466588D02*
G01*
X169652597Y-116470022D01*
X169656017Y-116478298D01*
X169655949Y-116479548D01*
X169523350Y-117703977D01*
X169519991Y-117710990D01*
X169248691Y-117982290D01*
X169240418Y-117985717D01*
X169232145Y-117982290D01*
X169194026Y-117944171D01*
X169193588Y-117943681D01*
X169167232Y-117910631D01*
X169147898Y-117897448D01*
X169146172Y-117896010D01*
X168299841Y-117040547D01*
X168296458Y-117032255D01*
X168299873Y-117024057D01*
X168853213Y-116469333D01*
X168861479Y-116465897D01*
X169644328Y-116466588D01*
G37*
%TD.AperFunction*%
%TD*%
%TA.AperFunction,Conductor*%
%TO.N,Net-(O5C-+)*%
G36*
X166537642Y-110672253D02*
G01*
X166543966Y-110678591D01*
X166543955Y-110687546D01*
X166543951Y-110687556D01*
X166012352Y-111963400D01*
X166006007Y-111969719D01*
X166001552Y-111970600D01*
X165617152Y-111970600D01*
X165608879Y-111967173D01*
X165606352Y-111963400D01*
X165074752Y-110687556D01*
X165074733Y-110678601D01*
X165081049Y-110672258D01*
X165804864Y-110371464D01*
X165813813Y-110371454D01*
X166537642Y-110672253D01*
G37*
%TD.AperFunction*%
%TD*%
%TA.AperFunction,Conductor*%
%TO.N,Net-(O3D-+)*%
G36*
X166579695Y-103766587D02*
G01*
X166587963Y-103770021D01*
X166591383Y-103778297D01*
X166591243Y-103780093D01*
X166395863Y-105030663D01*
X166392576Y-105037130D01*
X166121160Y-105308546D01*
X166112887Y-105311973D01*
X166104614Y-105308546D01*
X166104183Y-105308091D01*
X165235068Y-104340524D01*
X165232089Y-104332080D01*
X165235489Y-104324443D01*
X165778480Y-103780093D01*
X165789213Y-103769333D01*
X165797479Y-103765897D01*
X166579695Y-103766587D01*
G37*
%TD.AperFunction*%
%TD*%
%TA.AperFunction,Conductor*%
%TO.N,Net-(O3D-+)*%
G36*
X169330076Y-98733602D02*
G01*
X169336401Y-98739941D01*
X169336390Y-98748896D01*
X169335683Y-98750316D01*
X168557301Y-100080118D01*
X168550165Y-100085527D01*
X168541294Y-100084305D01*
X168538931Y-100082481D01*
X168268594Y-99812144D01*
X168265914Y-99807985D01*
X167868225Y-98749334D01*
X167868524Y-98740385D01*
X167874693Y-98734414D01*
X168599572Y-98433753D01*
X168608525Y-98433749D01*
X169330076Y-98733602D01*
G37*
%TD.AperFunction*%
%TD*%
%TA.AperFunction,Conductor*%
%TO.N,Net-(O3D-+)*%
G36*
X179527882Y-113337341D02*
G01*
X180267728Y-113715154D01*
X180273538Y-113721969D01*
X180273225Y-113730031D01*
X180088555Y-114178202D01*
X180082234Y-114184546D01*
X180082194Y-114184563D01*
X179634023Y-114369233D01*
X179625069Y-114369216D01*
X179619147Y-114363736D01*
X179241333Y-113623891D01*
X179240623Y-113614966D01*
X179243479Y-113610300D01*
X179514291Y-113339488D01*
X179522563Y-113336062D01*
X179527882Y-113337341D01*
G37*
%TD.AperFunction*%
%TD*%
%TA.AperFunction,Conductor*%
%TO.N,Net-(O3D-+)*%
G36*
X165943114Y-102150975D02*
G01*
X165944888Y-102152431D01*
X166215580Y-102423123D01*
X166218501Y-102427992D01*
X166529370Y-103450305D01*
X166528498Y-103459217D01*
X166522659Y-103464516D01*
X165797132Y-103765445D01*
X165788177Y-103765450D01*
X165788159Y-103765442D01*
X165067396Y-103465916D01*
X165061071Y-103459577D01*
X165061082Y-103450622D01*
X165062154Y-103448618D01*
X165926888Y-102154203D01*
X165934331Y-102149229D01*
X165943114Y-102150975D01*
G37*
%TD.AperFunction*%
%TD*%
%TA.AperFunction,Conductor*%
%TO.N,Net-(O3C-+)*%
G36*
X173952298Y-103031996D02*
G01*
X173952308Y-103032000D01*
X175228152Y-103563600D01*
X175234471Y-103569945D01*
X175235352Y-103574400D01*
X175235352Y-103958799D01*
X175231925Y-103967072D01*
X175228152Y-103969599D01*
X173952308Y-104501199D01*
X173943353Y-104501218D01*
X173937009Y-104494900D01*
X173636216Y-103771087D01*
X173636206Y-103762138D01*
X173937005Y-103038308D01*
X173943343Y-103031985D01*
X173952298Y-103031996D01*
G37*
%TD.AperFunction*%
%TD*%
%TA.AperFunction,Conductor*%
%TO.N,Net-(O3C-+)*%
G36*
X177527072Y-101911922D02*
G01*
X178251564Y-102211037D01*
X178257903Y-102217362D01*
X178257914Y-102217387D01*
X178557029Y-102941879D01*
X178557018Y-102950834D01*
X178550679Y-102957159D01*
X178550669Y-102957163D01*
X177272615Y-103483421D01*
X177263660Y-103483402D01*
X177259887Y-103480875D01*
X176988076Y-103209064D01*
X176984649Y-103200791D01*
X176985529Y-103196340D01*
X177511789Y-101918280D01*
X177518107Y-101911937D01*
X177527062Y-101911918D01*
X177527072Y-101911922D01*
G37*
%TD.AperFunction*%
%TD*%
%TA.AperFunction,Conductor*%
%TO.N,Net-(O5D-+)*%
G36*
X176937695Y-118532300D02*
G01*
X176937699Y-118532310D01*
X177238486Y-119256110D01*
X177238496Y-119265063D01*
X177238487Y-119265085D01*
X177238486Y-119265090D01*
X176937699Y-119988889D01*
X176931360Y-119995214D01*
X176922405Y-119995203D01*
X176922395Y-119995199D01*
X175646552Y-119463599D01*
X175640233Y-119457254D01*
X175639352Y-119452799D01*
X175639352Y-119068400D01*
X175642779Y-119060127D01*
X175646552Y-119057600D01*
X176922395Y-118526000D01*
X176931350Y-118525981D01*
X176937695Y-118532300D01*
G37*
%TD.AperFunction*%
%TD*%
%TA.AperFunction,Conductor*%
%TO.N,Net-(O5D-+)*%
G36*
X172924393Y-110069467D02*
G01*
X173519376Y-110315112D01*
X173646861Y-110367746D01*
X173653200Y-110374071D01*
X173653208Y-110374089D01*
X173953093Y-111099054D01*
X173953088Y-111108009D01*
X173946915Y-111114269D01*
X172889571Y-111570341D01*
X172884937Y-111571298D01*
X172502807Y-111571298D01*
X172494534Y-111567871D01*
X172491107Y-111559598D01*
X172491546Y-111556423D01*
X172908679Y-110077109D01*
X172914222Y-110070078D01*
X172923114Y-110069025D01*
X172924393Y-110069467D01*
G37*
%TD.AperFunction*%
%TD*%
%TA.AperFunction,Conductor*%
%TO.N,Net-(D2-K)*%
G36*
X178968808Y-65098974D02*
G01*
X178974551Y-65104102D01*
X179691727Y-66396587D01*
X179692744Y-66405484D01*
X179689769Y-66410537D01*
X178995823Y-67104483D01*
X178987550Y-67107910D01*
X178980865Y-67105812D01*
X178340361Y-66659826D01*
X177513064Y-66083775D01*
X177508233Y-66076235D01*
X177510148Y-66067487D01*
X177511462Y-66065915D01*
X178135642Y-65440347D01*
X178139453Y-65437800D01*
X178959855Y-65098965D01*
X178968808Y-65098974D01*
G37*
%TD.AperFunction*%
%TD*%
%TA.AperFunction,Conductor*%
%TO.N,Net-(D2-K)*%
G36*
X181696196Y-68401960D02*
G01*
X182318909Y-68828026D01*
X183020065Y-69307764D01*
X183024958Y-69315264D01*
X183023114Y-69324027D01*
X183021741Y-69325683D01*
X182466707Y-69882107D01*
X181910283Y-70437141D01*
X181902005Y-70440558D01*
X181893737Y-70437121D01*
X181892364Y-70435465D01*
X180986560Y-69111596D01*
X180984716Y-69102833D01*
X180987941Y-69096718D01*
X181681317Y-68403342D01*
X181689589Y-68399916D01*
X181696196Y-68401960D01*
G37*
%TD.AperFunction*%
%TD*%
%TA.AperFunction,Conductor*%
%TO.N,Net-(D3-K)*%
G36*
X169684356Y-48816716D02*
G01*
X171360701Y-48913960D01*
X171368760Y-48917860D01*
X171371722Y-48925640D01*
X171371722Y-50403577D01*
X171368295Y-50411850D01*
X171360719Y-50415256D01*
X169684382Y-50515261D01*
X169675919Y-50512333D01*
X169672006Y-50504279D01*
X169671985Y-50503596D01*
X169671880Y-50414600D01*
X169671000Y-49666000D01*
X169671985Y-48828381D01*
X169675422Y-48820114D01*
X169683699Y-48816697D01*
X169684356Y-48816716D01*
G37*
%TD.AperFunction*%
%TD*%
%TA.AperFunction,Conductor*%
%TO.N,Net-(D3-K)*%
G36*
X169668094Y-48819659D02*
G01*
X169671994Y-48827719D01*
X169672014Y-48828383D01*
X169673000Y-49666000D01*
X169672014Y-50503596D01*
X169668577Y-50511865D01*
X169660300Y-50515282D01*
X169659617Y-50515261D01*
X167983281Y-50415256D01*
X167975227Y-50411343D01*
X167972278Y-50403577D01*
X167972278Y-48925640D01*
X167975705Y-48917367D01*
X167983298Y-48913960D01*
X169659636Y-48816717D01*
X169668094Y-48819659D01*
G37*
%TD.AperFunction*%
%TD*%
%TA.AperFunction,Conductor*%
%TO.N,Net-(D3-K)*%
G36*
X168821347Y-48913645D02*
G01*
X168829279Y-48917795D01*
X168832000Y-48925297D01*
X168832000Y-50403926D01*
X168828573Y-50412199D01*
X168821371Y-50415577D01*
X167741201Y-50514886D01*
X167732649Y-50512231D01*
X167730592Y-50510011D01*
X167663505Y-50415577D01*
X167135801Y-49672759D01*
X167133804Y-49664031D01*
X167135787Y-49659229D01*
X167728112Y-48821497D01*
X167735685Y-48816723D01*
X167738706Y-48816601D01*
X168821347Y-48913645D01*
G37*
%TD.AperFunction*%
%TD*%
%TA.AperFunction,Conductor*%
%TO.N,Net-(D3-K)*%
G36*
X175682068Y-45543324D02*
G01*
X175682249Y-45543736D01*
X176021810Y-46361134D01*
X176022705Y-46365631D01*
X176022007Y-47253818D01*
X176018574Y-47262089D01*
X176011915Y-47265398D01*
X174971893Y-47409684D01*
X174963227Y-47407427D01*
X174962012Y-47406368D01*
X173917335Y-46361691D01*
X173913908Y-46353418D01*
X173917335Y-46345145D01*
X173920703Y-46342797D01*
X175666544Y-45537599D01*
X175675492Y-45537246D01*
X175682068Y-45543324D01*
G37*
%TD.AperFunction*%
%TD*%
%TA.AperFunction,Conductor*%
%TO.N,Net-(D4-A)*%
G36*
X175921621Y-30576278D02*
G01*
X175921630Y-30576287D01*
X176809099Y-31464743D01*
X176812521Y-31473019D01*
X176812362Y-31474935D01*
X176664982Y-32359223D01*
X176660242Y-32366821D01*
X176653441Y-32369000D01*
X175173263Y-32369000D01*
X175164990Y-32365573D01*
X175161722Y-32359223D01*
X175014341Y-31474935D01*
X175016361Y-31466212D01*
X175017604Y-31464743D01*
X175905074Y-30576287D01*
X175913346Y-30572856D01*
X175921621Y-30576278D01*
G37*
%TD.AperFunction*%
%TD*%
%TA.AperFunction,Conductor*%
%TO.N,Net-(D4-A)*%
G36*
X167144356Y-38656716D02*
G01*
X168820701Y-38753960D01*
X168828760Y-38757860D01*
X168831722Y-38765640D01*
X168831722Y-40243577D01*
X168828295Y-40251850D01*
X168820719Y-40255256D01*
X167144382Y-40355261D01*
X167135919Y-40352333D01*
X167132006Y-40344279D01*
X167131985Y-40343596D01*
X167131880Y-40254600D01*
X167131000Y-39506000D01*
X167131985Y-38668381D01*
X167135422Y-38660114D01*
X167143699Y-38656697D01*
X167144356Y-38656716D01*
G37*
%TD.AperFunction*%
%TD*%
%TA.AperFunction,Conductor*%
%TO.N,Net-(J1-PadT)*%
G36*
X88668967Y-107842557D02*
G01*
X88676667Y-107847126D01*
X88679000Y-107854137D01*
X88679000Y-109333862D01*
X88675573Y-109342135D01*
X88668966Y-109345443D01*
X86950502Y-109592601D01*
X86941825Y-109590387D01*
X86937718Y-109584664D01*
X86859271Y-109345335D01*
X86614194Y-108597642D01*
X86614194Y-108590356D01*
X86858834Y-107844000D01*
X86937718Y-107603334D01*
X86943551Y-107596541D01*
X86950500Y-107595398D01*
X88668967Y-107842557D01*
G37*
%TD.AperFunction*%
%TD*%
%TA.AperFunction,Conductor*%
%TO.N,Net-(J2-PadT)*%
G36*
X102641562Y-106758754D02*
G01*
X103687890Y-107805082D01*
X103691317Y-107813355D01*
X103688319Y-107821176D01*
X102487071Y-109157807D01*
X102478992Y-109161669D01*
X102471980Y-109159787D01*
X101608316Y-108596792D01*
X101603764Y-108591136D01*
X101309091Y-107813355D01*
X101233153Y-107612917D01*
X101233426Y-107603969D01*
X101238030Y-107598769D01*
X102627226Y-106757020D01*
X102636077Y-106755664D01*
X102641562Y-106758754D01*
G37*
%TD.AperFunction*%
%TD*%
%TA.AperFunction,Conductor*%
%TO.N,Net-(J3-PadT)*%
G36*
X115675917Y-106609568D02*
G01*
X116646878Y-107336350D01*
X117065823Y-107649939D01*
X117070393Y-107657640D01*
X117069250Y-107664591D01*
X116600086Y-108591285D01*
X116594933Y-108596438D01*
X115668239Y-109065602D01*
X115659310Y-109066282D01*
X115653587Y-109062175D01*
X114613217Y-107672270D01*
X114611003Y-107663593D01*
X114614309Y-107656988D01*
X115660635Y-106610662D01*
X115668907Y-106607236D01*
X115675917Y-106609568D01*
G37*
%TD.AperFunction*%
%TD*%
%TA.AperFunction,Conductor*%
%TO.N,Net-(J4-PadT)*%
G36*
X88668967Y-125622557D02*
G01*
X88676667Y-125627126D01*
X88679000Y-125634137D01*
X88679000Y-127113862D01*
X88675573Y-127122135D01*
X88668966Y-127125443D01*
X86950502Y-127372601D01*
X86941825Y-127370387D01*
X86937718Y-127364664D01*
X86859271Y-127125335D01*
X86614194Y-126377642D01*
X86614194Y-126370356D01*
X86858834Y-125624000D01*
X86937718Y-125383334D01*
X86943551Y-125376541D01*
X86950500Y-125375398D01*
X88668967Y-125622557D01*
G37*
%TD.AperFunction*%
%TD*%
%TA.AperFunction,Conductor*%
%TO.N,Net-(J5-PadT)*%
G36*
X102641562Y-124538754D02*
G01*
X103687890Y-125585082D01*
X103691317Y-125593355D01*
X103688319Y-125601176D01*
X102487071Y-126937807D01*
X102478992Y-126941669D01*
X102471980Y-126939787D01*
X101608316Y-126376792D01*
X101603764Y-126371136D01*
X101309091Y-125593355D01*
X101233153Y-125392917D01*
X101233426Y-125383969D01*
X101238030Y-125378769D01*
X102627226Y-124537020D01*
X102636077Y-124535664D01*
X102641562Y-124538754D01*
G37*
%TD.AperFunction*%
%TD*%
%TA.AperFunction,Conductor*%
%TO.N,Net-(J6-PadT)*%
G36*
X116269822Y-125377612D02*
G01*
X116273929Y-125383335D01*
X116597453Y-126370356D01*
X116597453Y-126377644D01*
X116273929Y-127364664D01*
X116268096Y-127371458D01*
X116261145Y-127372601D01*
X114542682Y-127125443D01*
X114534981Y-127120873D01*
X114532648Y-127113862D01*
X114532648Y-125634137D01*
X114536075Y-125625864D01*
X114542679Y-125622557D01*
X116261146Y-125375398D01*
X116269822Y-125377612D01*
G37*
%TD.AperFunction*%
%TD*%
%TA.AperFunction,Conductor*%
%TO.N,Net-(J7-PadT)*%
G36*
X107129578Y-29800629D02*
G01*
X107131987Y-29804130D01*
X107953889Y-31643851D01*
X107954135Y-31652802D01*
X107949229Y-31658654D01*
X107064893Y-32189593D01*
X107057998Y-32191229D01*
X106022777Y-32113784D01*
X106014783Y-32109750D01*
X106011960Y-32101629D01*
X106064203Y-30853824D01*
X106067619Y-30846042D01*
X107113033Y-29800628D01*
X107121305Y-29797202D01*
X107129578Y-29800629D01*
G37*
%TD.AperFunction*%
%TD*%
%TA.AperFunction,Conductor*%
%TO.N,Net-(J8-PadT)*%
G36*
X97765315Y-30398345D02*
G01*
X97771484Y-30404836D01*
X97772264Y-30409037D01*
X97772264Y-31887458D01*
X97769199Y-31895352D01*
X96926450Y-32817227D01*
X96918339Y-32821021D01*
X96910197Y-32818213D01*
X96122468Y-32142419D01*
X96118740Y-32136397D01*
X95866866Y-31136035D01*
X95868169Y-31127177D01*
X95874009Y-31122261D01*
X97756363Y-30398117D01*
X97765315Y-30398345D01*
G37*
%TD.AperFunction*%
%TD*%
%TA.AperFunction,Conductor*%
%TO.N,Net-(LED1-A)*%
G36*
X84862935Y-91813366D02*
G01*
X85905521Y-92855952D01*
X85908459Y-92860876D01*
X86177471Y-93761472D01*
X86176555Y-93770380D01*
X86170742Y-93775628D01*
X85350450Y-94115812D01*
X85345959Y-94116705D01*
X84462867Y-94116010D01*
X84454596Y-94112577D01*
X84451176Y-94104301D01*
X84451343Y-94102343D01*
X84843132Y-91819657D01*
X84847908Y-91812086D01*
X84856641Y-91810108D01*
X84862935Y-91813366D01*
G37*
%TD.AperFunction*%
%TD*%
%TA.AperFunction,Conductor*%
%TO.N,Net-(LED2-A)*%
G36*
X99906016Y-92125401D02*
G01*
X99906920Y-92126416D01*
X100970767Y-93471445D01*
X100973211Y-93480060D01*
X100969872Y-93486967D01*
X100343183Y-94115050D01*
X100339367Y-94117600D01*
X99519212Y-94456334D01*
X99510258Y-94456325D01*
X99504379Y-94450942D01*
X98842087Y-93184380D01*
X98841291Y-93175463D01*
X98844181Y-93170690D01*
X99889471Y-92125400D01*
X99897743Y-92121974D01*
X99906016Y-92125401D01*
G37*
%TD.AperFunction*%
%TD*%
%TA.AperFunction,Conductor*%
%TO.N,Net-(LED3-A)*%
G36*
X116327541Y-92368956D02*
G01*
X116330968Y-92377229D01*
X116330949Y-92377890D01*
X116233271Y-94104973D01*
X116229383Y-94113039D01*
X116221603Y-94116012D01*
X115334988Y-94116997D01*
X115330487Y-94116102D01*
X114510331Y-93775396D01*
X114504005Y-93769057D01*
X114503429Y-93761914D01*
X114828743Y-92377890D01*
X114829527Y-92374551D01*
X114834756Y-92367282D01*
X114840917Y-92365529D01*
X116319268Y-92365529D01*
X116327541Y-92368956D01*
G37*
%TD.AperFunction*%
%TD*%
%TA.AperFunction,Conductor*%
%TO.N,Net-(LED4-A)*%
G36*
X88264926Y-111073526D02*
G01*
X89625030Y-111368998D01*
X89632386Y-111374102D01*
X89634245Y-111380430D01*
X89634245Y-112858789D01*
X89630818Y-112867062D01*
X89622545Y-112870489D01*
X89622046Y-112870478D01*
X87890188Y-112796478D01*
X87882068Y-112792701D01*
X87878987Y-112784803D01*
X87878002Y-111898336D01*
X87878896Y-111893842D01*
X88219669Y-111073524D01*
X88226007Y-111067200D01*
X88232957Y-111066581D01*
X88264926Y-111073526D01*
G37*
%TD.AperFunction*%
%TD*%
%TA.AperFunction,Conductor*%
%TO.N,Net-(LED5-A)*%
G36*
X102882891Y-109796270D02*
G01*
X102886160Y-109798573D01*
X103930869Y-110843282D01*
X103934296Y-110851555D01*
X103934155Y-110853366D01*
X103772371Y-111886118D01*
X103767705Y-111893761D01*
X103760821Y-111896007D01*
X102872455Y-111896705D01*
X102867958Y-111895810D01*
X102050671Y-111556295D01*
X102044345Y-111549956D01*
X102044354Y-111541002D01*
X102044567Y-111540521D01*
X102867312Y-109801840D01*
X102873948Y-109795829D01*
X102882891Y-109796270D01*
G37*
%TD.AperFunction*%
%TD*%
%TA.AperFunction,Conductor*%
%TO.N,Net-(LED6-A)*%
G36*
X114704562Y-111268173D02*
G01*
X114706213Y-111269543D01*
X115333355Y-111895293D01*
X115960926Y-112524260D01*
X115964344Y-112532537D01*
X115961055Y-112540657D01*
X114750718Y-113792306D01*
X114742503Y-113795871D01*
X114734174Y-113792584D01*
X114734034Y-113792446D01*
X113688658Y-112747070D01*
X113685231Y-112738797D01*
X113687277Y-112732187D01*
X114688299Y-111271210D01*
X114695800Y-111266324D01*
X114704562Y-111268173D01*
G37*
%TD.AperFunction*%
%TD*%
%TA.AperFunction,Conductor*%
%TO.N,Net-(O1A--)*%
G36*
X173883586Y-94066933D02*
G01*
X173889911Y-94073272D01*
X173889915Y-94073282D01*
X174416173Y-95351336D01*
X174416154Y-95360291D01*
X174413627Y-95364064D01*
X174141816Y-95635875D01*
X174133543Y-95639302D01*
X174129088Y-95638421D01*
X173449399Y-95358549D01*
X172851034Y-95112163D01*
X172844689Y-95105844D01*
X172844670Y-95096889D01*
X172844674Y-95096879D01*
X173143790Y-94372385D01*
X173150114Y-94366048D01*
X173150116Y-94366046D01*
X173874631Y-94066922D01*
X173883586Y-94066933D01*
G37*
%TD.AperFunction*%
%TD*%
%TA.AperFunction,Conductor*%
%TO.N,Net-(O1A--)*%
G36*
X176736343Y-94966100D02*
G01*
X176736347Y-94966110D01*
X177037134Y-95689910D01*
X177037144Y-95698863D01*
X177037135Y-95698885D01*
X177037134Y-95698890D01*
X176736347Y-96422689D01*
X176730008Y-96429014D01*
X176721053Y-96429003D01*
X176721043Y-96428999D01*
X175445200Y-95897399D01*
X175438881Y-95891054D01*
X175438000Y-95886599D01*
X175438000Y-95502200D01*
X175441427Y-95493927D01*
X175445200Y-95491400D01*
X176721043Y-94959800D01*
X176729998Y-94959781D01*
X176736343Y-94966100D01*
G37*
%TD.AperFunction*%
%TD*%
%TA.AperFunction,Conductor*%
%TO.N,Net-(O3A--)*%
G36*
X190819758Y-122312589D02*
G01*
X191839093Y-123054296D01*
X191843766Y-123061934D01*
X191841670Y-123070640D01*
X191840482Y-123072029D01*
X191569560Y-123342951D01*
X191564256Y-123345995D01*
X190562014Y-123608915D01*
X190553142Y-123607700D01*
X190548239Y-123602082D01*
X190248292Y-122878925D01*
X190248288Y-122869972D01*
X190250833Y-122866166D01*
X190804615Y-122313767D01*
X190812891Y-122310351D01*
X190819758Y-122312589D01*
G37*
%TD.AperFunction*%
%TD*%
%TA.AperFunction,Conductor*%
%TO.N,Net-(O3A--)*%
G36*
X195689654Y-126896901D02*
G01*
X196840271Y-127092744D01*
X196847852Y-127097510D01*
X196850008Y-127104268D01*
X196850702Y-127890246D01*
X196847282Y-127898522D01*
X196847265Y-127898539D01*
X196294247Y-128450177D01*
X196285969Y-128453594D01*
X196277701Y-128450157D01*
X196276352Y-128448535D01*
X195891428Y-127890246D01*
X195406388Y-127186751D01*
X195404514Y-127177997D01*
X195407746Y-127171841D01*
X195679425Y-126900162D01*
X195687697Y-126896736D01*
X195689654Y-126896901D01*
G37*
%TD.AperFunction*%
%TD*%
%TA.AperFunction,Conductor*%
%TO.N,Net-(O3B--)*%
G36*
X198095691Y-105317597D02*
G01*
X198099464Y-105320124D01*
X198371275Y-105591935D01*
X198374702Y-105600208D01*
X198373821Y-105604663D01*
X197847563Y-106882717D01*
X197841244Y-106889062D01*
X197832289Y-106889081D01*
X197832279Y-106889077D01*
X197107787Y-106589962D01*
X197101448Y-106583637D01*
X197101437Y-106583612D01*
X196802322Y-105859120D01*
X196802333Y-105850165D01*
X196808670Y-105843841D01*
X198086738Y-105317578D01*
X198095691Y-105317597D01*
G37*
%TD.AperFunction*%
%TD*%
%TA.AperFunction,Conductor*%
%TO.N,Net-(O3B--)*%
G36*
X197079234Y-94884733D02*
G01*
X197085559Y-94891072D01*
X197085563Y-94891082D01*
X197611821Y-96169136D01*
X197611802Y-96178091D01*
X197609275Y-96181864D01*
X197337464Y-96453675D01*
X197329191Y-96457102D01*
X197324736Y-96456221D01*
X196645047Y-96176349D01*
X196046682Y-95929963D01*
X196040337Y-95923644D01*
X196040318Y-95914689D01*
X196040322Y-95914679D01*
X196339438Y-95190185D01*
X196345762Y-95183848D01*
X196345764Y-95183846D01*
X197070279Y-94884722D01*
X197079234Y-94884733D01*
G37*
%TD.AperFunction*%
%TD*%
%TA.AperFunction,Conductor*%
%TO.N,Net-(O3C--)*%
G36*
X186968290Y-100510053D02*
G01*
X186974614Y-100516391D01*
X186974603Y-100525346D01*
X186974599Y-100525356D01*
X186443000Y-101801200D01*
X186436655Y-101807519D01*
X186432200Y-101808400D01*
X186047800Y-101808400D01*
X186039527Y-101804973D01*
X186037000Y-101801200D01*
X185505400Y-100525356D01*
X185505381Y-100516401D01*
X185511697Y-100510058D01*
X186235512Y-100209264D01*
X186244461Y-100209254D01*
X186968290Y-100510053D01*
G37*
%TD.AperFunction*%
%TD*%
%TA.AperFunction,Conductor*%
%TO.N,Net-(O3C--)*%
G36*
X186441567Y-102177814D02*
G01*
X186443389Y-102180173D01*
X187168325Y-103417681D01*
X187169550Y-103426552D01*
X187164144Y-103433690D01*
X187162720Y-103434399D01*
X186440490Y-103734534D01*
X186431536Y-103734544D01*
X185706407Y-103433205D01*
X185700083Y-103426867D01*
X185699612Y-103419318D01*
X186037645Y-102183001D01*
X186043133Y-102175925D01*
X186048931Y-102174387D01*
X186433294Y-102174387D01*
X186441567Y-102177814D01*
G37*
%TD.AperFunction*%
%TD*%
%TA.AperFunction,Conductor*%
%TO.N,Net-(O3C--)*%
G36*
X188422246Y-105434131D02*
G01*
X189374831Y-105722549D01*
X189777798Y-105844557D01*
X189784724Y-105850234D01*
X189785606Y-105859145D01*
X189785223Y-105860220D01*
X189486562Y-106583612D01*
X189480237Y-106589951D01*
X189480212Y-106589962D01*
X188754803Y-106889456D01*
X188745848Y-106889445D01*
X188739955Y-106884034D01*
X188136652Y-105722549D01*
X188135880Y-105713628D01*
X188138760Y-105708885D01*
X188410589Y-105437056D01*
X188418861Y-105433630D01*
X188422246Y-105434131D01*
G37*
%TD.AperFunction*%
%TD*%
%TA.AperFunction,Conductor*%
%TO.N,Net-(O3C--)*%
G36*
X187173234Y-103433733D02*
G01*
X187179559Y-103440072D01*
X187179563Y-103440082D01*
X187705821Y-104718136D01*
X187705802Y-104727091D01*
X187703275Y-104730864D01*
X187431464Y-105002675D01*
X187423191Y-105006102D01*
X187418736Y-105005221D01*
X186739047Y-104725349D01*
X186140682Y-104478963D01*
X186134337Y-104472644D01*
X186134318Y-104463689D01*
X186134322Y-104463679D01*
X186433438Y-103739185D01*
X186439762Y-103732848D01*
X186439764Y-103732846D01*
X187164279Y-103433722D01*
X187173234Y-103433733D01*
G37*
%TD.AperFunction*%
%TD*%
%TA.AperFunction,Conductor*%
%TO.N,Net-(O5-Pad7)*%
G36*
X182098611Y-129928777D02*
G01*
X183376670Y-130455036D01*
X183383014Y-130461355D01*
X183383033Y-130470310D01*
X183383029Y-130470320D01*
X183083914Y-131194812D01*
X183077589Y-131201151D01*
X183077564Y-131201162D01*
X182353072Y-131500277D01*
X182344117Y-131500266D01*
X182337793Y-131493928D01*
X181811530Y-130215861D01*
X181811549Y-130206908D01*
X181814073Y-130203138D01*
X182085888Y-129931323D01*
X182094160Y-129927897D01*
X182098611Y-129928777D01*
G37*
%TD.AperFunction*%
%TD*%
%TA.AperFunction,Conductor*%
%TO.N,Net-(O5-Pad7)*%
G36*
X194574072Y-130642922D02*
G01*
X195298564Y-130942037D01*
X195304903Y-130948362D01*
X195304914Y-130948387D01*
X195604029Y-131672879D01*
X195604018Y-131681834D01*
X195597679Y-131688159D01*
X195597669Y-131688163D01*
X194319615Y-132214421D01*
X194310660Y-132214402D01*
X194306887Y-132211875D01*
X194035076Y-131940064D01*
X194031649Y-131931791D01*
X194032529Y-131927340D01*
X194558789Y-130649280D01*
X194565107Y-130642937D01*
X194574062Y-130642918D01*
X194574072Y-130642922D01*
G37*
%TD.AperFunction*%
%TD*%
%TA.AperFunction,Conductor*%
%TO.N,Net-(O5-Pad7)*%
G36*
X183818535Y-130896956D02*
G01*
X183824864Y-130903291D01*
X183824890Y-130903354D01*
X183946819Y-131203090D01*
X184245650Y-131937704D01*
X184267933Y-131992480D01*
X184268795Y-131996889D01*
X184268795Y-132378785D01*
X184265368Y-132387058D01*
X184257095Y-132390485D01*
X184253672Y-132389973D01*
X182787505Y-131941466D01*
X182780597Y-131935769D01*
X182779740Y-131926855D01*
X182780104Y-131925837D01*
X183078498Y-131203089D01*
X183084823Y-131196751D01*
X183084841Y-131196743D01*
X183809582Y-130896951D01*
X183818535Y-130896956D01*
G37*
%TD.AperFunction*%
%TD*%
%TA.AperFunction,Conductor*%
%TO.N,Net-(O5-Pad7)*%
G36*
X167338072Y-94066922D02*
G01*
X168062564Y-94366037D01*
X168068903Y-94372362D01*
X168068914Y-94372387D01*
X168368029Y-95096879D01*
X168368018Y-95105834D01*
X168361679Y-95112159D01*
X168361669Y-95112163D01*
X167083615Y-95638421D01*
X167074660Y-95638402D01*
X167070887Y-95635875D01*
X166799076Y-95364064D01*
X166795649Y-95355791D01*
X166796529Y-95351340D01*
X167322789Y-94073280D01*
X167329107Y-94066937D01*
X167338062Y-94066918D01*
X167338072Y-94066922D01*
G37*
%TD.AperFunction*%
%TD*%
%TA.AperFunction,Conductor*%
%TO.N,Net-(O5C--)*%
G36*
X186416611Y-129674777D02*
G01*
X187694670Y-130201036D01*
X187701014Y-130207355D01*
X187701033Y-130216310D01*
X187701029Y-130216320D01*
X187401914Y-130940812D01*
X187395589Y-130947151D01*
X187395564Y-130947162D01*
X186671072Y-131246277D01*
X186662117Y-131246266D01*
X186655793Y-131239928D01*
X186129530Y-129961861D01*
X186129549Y-129952908D01*
X186132073Y-129949138D01*
X186403888Y-129677323D01*
X186412160Y-129673897D01*
X186416611Y-129674777D01*
G37*
%TD.AperFunction*%
%TD*%
%TA.AperFunction,Conductor*%
%TO.N,Net-(O5C--)*%
G36*
X181331066Y-123578590D02*
G01*
X181339334Y-123582024D01*
X181342659Y-123588803D01*
X181491281Y-124748720D01*
X181488934Y-124757362D01*
X181487949Y-124758480D01*
X181216223Y-125030206D01*
X181207950Y-125033633D01*
X181201089Y-125031410D01*
X179986768Y-124152321D01*
X179982076Y-124144694D01*
X179984152Y-124135983D01*
X179985341Y-124134586D01*
X180537213Y-123581333D01*
X180545479Y-123577897D01*
X181331066Y-123578590D01*
G37*
%TD.AperFunction*%
%TD*%
%TA.AperFunction,Conductor*%
%TO.N,Net-(O5C--)*%
G36*
X168599904Y-125114042D02*
G01*
X168603368Y-125122300D01*
X168603368Y-125122335D01*
X168604052Y-125606436D01*
X168600637Y-125614714D01*
X168600609Y-125614743D01*
X168257584Y-125956398D01*
X168249304Y-125959808D01*
X168241571Y-125956868D01*
X167618056Y-125404846D01*
X167614134Y-125396796D01*
X167617052Y-125388330D01*
X167617522Y-125387830D01*
X167888185Y-125117167D01*
X167896403Y-125113741D01*
X168591616Y-125110652D01*
X168599904Y-125114042D01*
G37*
%TD.AperFunction*%
%TD*%
%TA.AperFunction,Conductor*%
%TO.N,Net-(O5C--)*%
G36*
X165267642Y-119504253D02*
G01*
X165273966Y-119510591D01*
X165273955Y-119519546D01*
X165273951Y-119519556D01*
X164742352Y-120795400D01*
X164736007Y-120801719D01*
X164731552Y-120802600D01*
X164347152Y-120802600D01*
X164338879Y-120799173D01*
X164336352Y-120795400D01*
X163804752Y-119519556D01*
X163804733Y-119510601D01*
X163811049Y-119504258D01*
X164534864Y-119203464D01*
X164543813Y-119203454D01*
X165267642Y-119504253D01*
G37*
%TD.AperFunction*%
%TD*%
%TA.AperFunction,Conductor*%
%TO.N,Net-(O5D--)*%
G36*
X165531043Y-130436797D02*
G01*
X165534816Y-130439324D01*
X165806627Y-130711135D01*
X165810054Y-130719408D01*
X165809173Y-130723863D01*
X165282915Y-132001917D01*
X165276596Y-132008262D01*
X165267641Y-132008281D01*
X165267631Y-132008277D01*
X164543139Y-131709162D01*
X164536800Y-131702837D01*
X164536789Y-131702812D01*
X164237674Y-130978320D01*
X164237685Y-130969365D01*
X164244022Y-130963041D01*
X165522090Y-130436778D01*
X165531043Y-130436797D01*
G37*
%TD.AperFunction*%
%TD*%
%TA.AperFunction,Conductor*%
%TO.N,Net-(O5D--)*%
G36*
X171109642Y-123880253D02*
G01*
X171115966Y-123886591D01*
X171115955Y-123895546D01*
X171115951Y-123895556D01*
X170584352Y-125171400D01*
X170578007Y-125177719D01*
X170573552Y-125178600D01*
X170189152Y-125178600D01*
X170180879Y-125175173D01*
X170178352Y-125171400D01*
X169646752Y-123895556D01*
X169646733Y-123886601D01*
X169653049Y-123880258D01*
X170376864Y-123579464D01*
X170385813Y-123579454D01*
X171109642Y-123880253D01*
G37*
%TD.AperFunction*%
%TD*%
%TA.AperFunction,Conductor*%
%TO.N,GP22*%
G36*
X187909583Y-81446198D02*
G01*
X187913010Y-81454471D01*
X187912867Y-81456293D01*
X187716555Y-82701534D01*
X187711882Y-82709173D01*
X187705013Y-82711412D01*
X186922833Y-82712390D01*
X186914555Y-82708973D01*
X186912006Y-82705162D01*
X186612752Y-81981722D01*
X186612757Y-81972767D01*
X186617659Y-81967149D01*
X187512264Y-81444368D01*
X187518167Y-81442771D01*
X187901310Y-81442771D01*
X187909583Y-81446198D01*
G37*
%TD.AperFunction*%
%TD*%
%TA.AperFunction,Conductor*%
%TO.N,GP22*%
G36*
X178878039Y-70509784D02*
G01*
X178884362Y-70516125D01*
X178884479Y-70524753D01*
X178490870Y-71557866D01*
X178484723Y-71564377D01*
X178479937Y-71565400D01*
X178096063Y-71565400D01*
X178087790Y-71561973D01*
X178085130Y-71557866D01*
X177691520Y-70524753D01*
X177691776Y-70515801D01*
X177697958Y-70509785D01*
X178283508Y-70266267D01*
X178292460Y-70266255D01*
X178878039Y-70509784D01*
G37*
%TD.AperFunction*%
%TD*%
%TA.AperFunction,Conductor*%
%TO.N,GP21*%
G36*
X186186720Y-90508722D02*
G01*
X186911212Y-90807837D01*
X186917551Y-90814162D01*
X186917562Y-90814187D01*
X187216677Y-91538679D01*
X187216666Y-91547634D01*
X187210327Y-91553959D01*
X187210317Y-91553963D01*
X185932263Y-92080221D01*
X185923308Y-92080202D01*
X185919535Y-92077675D01*
X185647724Y-91805864D01*
X185644297Y-91797591D01*
X185645177Y-91793140D01*
X186171437Y-90515080D01*
X186177755Y-90508737D01*
X186186710Y-90508718D01*
X186186720Y-90508722D01*
G37*
%TD.AperFunction*%
%TD*%
%TA.AperFunction,Conductor*%
%TO.N,GP21*%
G36*
X183457691Y-99091597D02*
G01*
X183461464Y-99094124D01*
X183733275Y-99365935D01*
X183736702Y-99374208D01*
X183735821Y-99378663D01*
X183209563Y-100656717D01*
X183203244Y-100663062D01*
X183194289Y-100663081D01*
X183194279Y-100663077D01*
X182469787Y-100363962D01*
X182463448Y-100357637D01*
X182463437Y-100357612D01*
X182164322Y-99633120D01*
X182164333Y-99624165D01*
X182170670Y-99617841D01*
X183448738Y-99091578D01*
X183457691Y-99091597D01*
G37*
%TD.AperFunction*%
%TD*%
%TA.AperFunction,Conductor*%
%TO.N,GP20*%
G36*
X183457691Y-101631597D02*
G01*
X183461464Y-101634124D01*
X183733275Y-101905935D01*
X183736702Y-101914208D01*
X183735821Y-101918663D01*
X183209563Y-103196717D01*
X183203244Y-103203062D01*
X183194289Y-103203081D01*
X183194279Y-103203077D01*
X182469787Y-102903962D01*
X182463448Y-102897637D01*
X182463437Y-102897612D01*
X182164322Y-102173120D01*
X182164333Y-102164165D01*
X182170670Y-102157841D01*
X183448738Y-101631578D01*
X183457691Y-101631597D01*
G37*
%TD.AperFunction*%
%TD*%
%TA.AperFunction,Conductor*%
%TO.N,GP20*%
G36*
X187193290Y-93935053D02*
G01*
X187199614Y-93941391D01*
X187199603Y-93950346D01*
X187199599Y-93950356D01*
X186668000Y-95226200D01*
X186661655Y-95232519D01*
X186657200Y-95233400D01*
X186272800Y-95233400D01*
X186264527Y-95229973D01*
X186262000Y-95226200D01*
X185730400Y-93950356D01*
X185730381Y-93941401D01*
X185736697Y-93935058D01*
X186460512Y-93634264D01*
X186469461Y-93634254D01*
X187193290Y-93935053D01*
G37*
%TD.AperFunction*%
%TD*%
%TA.AperFunction,Conductor*%
%TO.N,GP16*%
G36*
X182164343Y-114873100D02*
G01*
X182164347Y-114873110D01*
X182465134Y-115596910D01*
X182465144Y-115605863D01*
X182465135Y-115605885D01*
X182465134Y-115605890D01*
X182164347Y-116329689D01*
X182158008Y-116336014D01*
X182149053Y-116336003D01*
X182149043Y-116335999D01*
X180873200Y-115804399D01*
X180866881Y-115798054D01*
X180866000Y-115793599D01*
X180866000Y-115409200D01*
X180869427Y-115400927D01*
X180873200Y-115398400D01*
X182149043Y-114866800D01*
X182157998Y-114866781D01*
X182164343Y-114873100D01*
G37*
%TD.AperFunction*%
%TD*%
%TA.AperFunction,Conductor*%
%TO.N,GP16*%
G36*
X175173664Y-115406021D02*
G01*
X175178723Y-115413410D01*
X175178974Y-115415822D01*
X175178974Y-115798552D01*
X175177666Y-115803928D01*
X174681392Y-116763204D01*
X174674547Y-116768978D01*
X174666528Y-116768640D01*
X173940841Y-116468456D01*
X173934506Y-116462127D01*
X173934498Y-116462109D01*
X173636577Y-115740507D01*
X173636588Y-115731552D01*
X173642927Y-115725227D01*
X173644972Y-115724595D01*
X175164862Y-115404373D01*
X175173664Y-115406021D01*
G37*
%TD.AperFunction*%
%TD*%
%TA.AperFunction,Conductor*%
%TO.N,GP17*%
G36*
X181483259Y-111791577D02*
G01*
X182761318Y-112317836D01*
X182767662Y-112324155D01*
X182767681Y-112333110D01*
X182767677Y-112333120D01*
X182468562Y-113057612D01*
X182462237Y-113063951D01*
X182462212Y-113063962D01*
X181737720Y-113363077D01*
X181728765Y-113363066D01*
X181722441Y-113356728D01*
X181196178Y-112078661D01*
X181196197Y-112069708D01*
X181198721Y-112065938D01*
X181470536Y-111794123D01*
X181478808Y-111790697D01*
X181483259Y-111791577D01*
G37*
%TD.AperFunction*%
%TD*%
%TA.AperFunction,Conductor*%
%TO.N,GP17*%
G36*
X174420586Y-98130933D02*
G01*
X174426911Y-98137272D01*
X174426915Y-98137282D01*
X174953173Y-99415336D01*
X174953154Y-99424291D01*
X174950627Y-99428064D01*
X174678816Y-99699875D01*
X174670543Y-99703302D01*
X174666088Y-99702421D01*
X173986399Y-99422549D01*
X173388034Y-99176163D01*
X173381689Y-99169844D01*
X173381670Y-99160889D01*
X173381674Y-99160879D01*
X173680790Y-98436385D01*
X173687114Y-98430048D01*
X173687116Y-98430046D01*
X174411631Y-98130922D01*
X174420586Y-98130933D01*
G37*
%TD.AperFunction*%
%TD*%
%TA.AperFunction,Conductor*%
%TO.N,Net-(R19-Pad2)*%
G36*
X89527430Y-73483114D02*
G01*
X89528365Y-73487697D01*
X89528365Y-74965950D01*
X89525862Y-74973183D01*
X88783996Y-75916476D01*
X88776188Y-75920860D01*
X88768243Y-75918933D01*
X87886932Y-75322660D01*
X87882034Y-75315352D01*
X87665433Y-74273250D01*
X87667104Y-74264455D01*
X87672302Y-74260108D01*
X89512083Y-73476931D01*
X89521037Y-73476844D01*
X89527430Y-73483114D01*
G37*
%TD.AperFunction*%
%TD*%
%TA.AperFunction,Conductor*%
%TO.N,Net-(R20-Pad2)*%
G36*
X106723920Y-73411608D02*
G01*
X108071560Y-74311526D01*
X108076538Y-74318970D01*
X108076117Y-74325089D01*
X107723806Y-75341206D01*
X107717858Y-75347900D01*
X107717336Y-75348138D01*
X106719943Y-75772876D01*
X106710989Y-75772964D01*
X106706253Y-75769458D01*
X105661881Y-74475121D01*
X105659353Y-74466531D01*
X105662713Y-74459502D01*
X106709151Y-73413064D01*
X106717423Y-73409638D01*
X106723920Y-73411608D01*
G37*
%TD.AperFunction*%
%TD*%
%TA.AperFunction,Conductor*%
%TO.N,Net-(O3B-+)*%
G36*
X191716646Y-92042595D02*
G01*
X191719078Y-92046147D01*
X192279280Y-93316315D01*
X192279483Y-93325267D01*
X192273296Y-93331741D01*
X192273065Y-93331840D01*
X191549490Y-93632534D01*
X191540536Y-93632544D01*
X190816519Y-93331667D01*
X190810195Y-93325329D01*
X190810132Y-93316556D01*
X190810228Y-93316315D01*
X191313073Y-92046560D01*
X191319305Y-92040130D01*
X191323951Y-92039168D01*
X191708373Y-92039168D01*
X191716646Y-92042595D01*
G37*
%TD.AperFunction*%
%TD*%
%TA.AperFunction,Conductor*%
%TO.N,Net-(O3B-+)*%
G36*
X192244290Y-88892354D02*
G01*
X192250614Y-88898692D01*
X192250603Y-88907647D01*
X192250599Y-88907657D01*
X191719000Y-90183501D01*
X191712655Y-90189820D01*
X191708200Y-90190701D01*
X191323800Y-90190701D01*
X191315527Y-90187274D01*
X191313000Y-90183501D01*
X190781400Y-88907657D01*
X190781381Y-88898702D01*
X190787697Y-88892359D01*
X191511512Y-88591565D01*
X191520461Y-88591555D01*
X192244290Y-88892354D01*
G37*
%TD.AperFunction*%
%TD*%
%TA.AperFunction,Conductor*%
%TO.N,CJD*%
G36*
X165194291Y-59604801D02*
G01*
X166134682Y-60587715D01*
X166137925Y-60596062D01*
X166134501Y-60604076D01*
X165440326Y-61298251D01*
X165432053Y-61301678D01*
X165428898Y-61301245D01*
X164114438Y-60933140D01*
X164107395Y-60927609D01*
X164106312Y-60918771D01*
X164336004Y-60083977D01*
X164341500Y-60076913D01*
X165180079Y-59602704D01*
X165188966Y-59601615D01*
X165194291Y-59604801D01*
G37*
%TD.AperFunction*%
%TD*%
%TA.AperFunction,Conductor*%
%TO.N,CJD*%
G36*
X170678938Y-66690827D02*
G01*
X170682073Y-66696502D01*
X171009301Y-68133366D01*
X171007797Y-68142194D01*
X171002381Y-68146769D01*
X170184488Y-68486535D01*
X170175534Y-68486544D01*
X170175512Y-68486535D01*
X169357618Y-68146769D01*
X169351292Y-68140430D01*
X169350698Y-68133367D01*
X169677927Y-66696501D01*
X169683105Y-66689196D01*
X169689335Y-66687400D01*
X170670665Y-66687400D01*
X170678938Y-66690827D01*
G37*
%TD.AperFunction*%
%TD*%
%TA.AperFunction,Conductor*%
%TO.N,CJD*%
G36*
X171970898Y-67985327D02*
G01*
X171978204Y-67990505D01*
X171980000Y-67996735D01*
X171980000Y-68978064D01*
X171976573Y-68986337D01*
X171970898Y-68989472D01*
X170534033Y-69316701D01*
X170525205Y-69315197D01*
X170520630Y-69309781D01*
X170180863Y-68491887D01*
X170180855Y-68482934D01*
X170180864Y-68482912D01*
X170385418Y-67990505D01*
X170520630Y-67665017D01*
X170526969Y-67658692D01*
X170534031Y-67658098D01*
X171970898Y-67985327D01*
G37*
%TD.AperFunction*%
%TD*%
%TA.AperFunction,Conductor*%
%TO.N,CJD*%
G36*
X83805869Y-58383427D02*
G01*
X83809216Y-58390333D01*
X83907338Y-59224373D01*
X83904901Y-59232990D01*
X83903996Y-59234008D01*
X83066278Y-60072712D01*
X83058007Y-60076144D01*
X83049732Y-60072722D01*
X83049722Y-60072712D01*
X82212003Y-59234008D01*
X82208581Y-59225733D01*
X82208660Y-59224390D01*
X82306784Y-58390332D01*
X82311154Y-58382517D01*
X82318404Y-58380000D01*
X83797596Y-58380000D01*
X83805869Y-58383427D01*
G37*
%TD.AperFunction*%
%TD*%
%TA.AperFunction,Conductor*%
%TO.N,CJD*%
G36*
X175943523Y-67991998D02*
G01*
X177174954Y-68366930D01*
X177254424Y-68391127D01*
X177261340Y-68396815D01*
X177262209Y-68405728D01*
X177261832Y-68406782D01*
X177019893Y-68993235D01*
X177017341Y-68997055D01*
X176585416Y-69428041D01*
X176577139Y-69431459D01*
X176570652Y-69429487D01*
X176495740Y-69379434D01*
X176444791Y-69369299D01*
X176440100Y-69367219D01*
X175933147Y-68990908D01*
X175928547Y-68983225D01*
X175928421Y-68981513D01*
X175928421Y-68003192D01*
X175931848Y-67994919D01*
X175940121Y-67991492D01*
X175943523Y-67991998D01*
G37*
%TD.AperFunction*%
%TD*%
%TA.AperFunction,Conductor*%
%TO.N,CK1*%
G36*
X110537089Y-52256776D02*
G01*
X111357943Y-52595799D01*
X111361759Y-52598349D01*
X111987995Y-53225978D01*
X111991413Y-53234255D01*
X111988441Y-53242034D01*
X110836436Y-54532440D01*
X110828370Y-54536329D01*
X110819916Y-54533376D01*
X110819435Y-54532921D01*
X109774083Y-53487569D01*
X109770656Y-53479296D01*
X109772408Y-53473140D01*
X110522678Y-52261431D01*
X110529945Y-52256202D01*
X110537089Y-52256776D01*
G37*
%TD.AperFunction*%
%TD*%
%TA.AperFunction,Conductor*%
%TO.N,CK1*%
G36*
X83071020Y-64311510D02*
G01*
X84728751Y-64503799D01*
X84736574Y-64508156D01*
X84739103Y-64515421D01*
X84739103Y-65993334D01*
X84735676Y-66001607D01*
X84727438Y-66005034D01*
X83069721Y-66009965D01*
X83061437Y-66006563D01*
X83057986Y-65998300D01*
X83057986Y-65998279D01*
X83057000Y-65160000D01*
X83057758Y-64515421D01*
X83057984Y-64323117D01*
X83061421Y-64314850D01*
X83069698Y-64311433D01*
X83071020Y-64311510D01*
G37*
%TD.AperFunction*%
%TD*%
%TA.AperFunction,Conductor*%
%TO.N,CJ1*%
G36*
X197110884Y-119296063D02*
G01*
X197112064Y-119297439D01*
X197682901Y-120078848D01*
X197685014Y-120087550D01*
X197681259Y-120094465D01*
X196799333Y-120884415D01*
X196791527Y-120887400D01*
X196406431Y-120887400D01*
X196398158Y-120883973D01*
X196394808Y-120877037D01*
X196304645Y-120093009D01*
X196307104Y-120084398D01*
X196307981Y-120083413D01*
X197094339Y-119296072D01*
X197102609Y-119292641D01*
X197110884Y-119296063D01*
G37*
%TD.AperFunction*%
%TD*%
%TA.AperFunction,Conductor*%
%TO.N,CJ1*%
G36*
X196797859Y-121268350D02*
G01*
X196799448Y-121270329D01*
X197110246Y-121757560D01*
X197581609Y-122496504D01*
X197583169Y-122505322D01*
X197578037Y-122512660D01*
X197576235Y-122513600D01*
X196854490Y-122813534D01*
X196845536Y-122813544D01*
X196845510Y-122813534D01*
X196120017Y-122512043D01*
X196113692Y-122505704D01*
X196113103Y-122498627D01*
X196393917Y-121274008D01*
X196399106Y-121266710D01*
X196405321Y-121264923D01*
X196789586Y-121264923D01*
X196797859Y-121268350D01*
G37*
%TD.AperFunction*%
%TD*%
%TA.AperFunction,Conductor*%
%TO.N,CJ1*%
G36*
X83393691Y-87240140D02*
G01*
X83394575Y-87240552D01*
X85024840Y-88085023D01*
X85030609Y-88091870D01*
X85029847Y-88100792D01*
X85027731Y-88103684D01*
X83983212Y-89148203D01*
X83974939Y-89151630D01*
X83971793Y-89151199D01*
X82745420Y-88808843D01*
X82738373Y-88803318D01*
X82737297Y-88794428D01*
X82737748Y-88793119D01*
X83057293Y-88019293D01*
X83378397Y-87246455D01*
X83384736Y-87240131D01*
X83393691Y-87240140D01*
G37*
%TD.AperFunction*%
%TD*%
%TA.AperFunction,Conductor*%
%TO.N,CJ2*%
G36*
X197131696Y-100266387D02*
G01*
X197139964Y-100269824D01*
X197143289Y-100276623D01*
X197302340Y-101537605D01*
X197299975Y-101546242D01*
X197292196Y-101550677D01*
X197290732Y-101550769D01*
X196907370Y-101550769D01*
X196901147Y-101548977D01*
X196044217Y-101010757D01*
X196039034Y-101003455D01*
X196039628Y-100996377D01*
X196337358Y-100276623D01*
X196339006Y-100272636D01*
X196345335Y-100266302D01*
X196349829Y-100265409D01*
X197131696Y-100266387D01*
G37*
%TD.AperFunction*%
%TD*%
%TA.AperFunction,Conductor*%
%TO.N,CJ2*%
G36*
X83394233Y-84698815D02*
G01*
X85106262Y-85341791D01*
X85112802Y-85347908D01*
X85113101Y-85356858D01*
X85110421Y-85361017D01*
X84066416Y-86405022D01*
X84058143Y-86408449D01*
X84057228Y-86408413D01*
X83068776Y-86330845D01*
X83060796Y-86326782D01*
X83057991Y-86319191D01*
X83057294Y-85481628D01*
X83058188Y-85477138D01*
X83378944Y-84705139D01*
X83385283Y-84698815D01*
X83393862Y-84698676D01*
X83394233Y-84698815D01*
G37*
%TD.AperFunction*%
%TD*%
%TA.AperFunction,Conductor*%
%TO.N,CJ2*%
G36*
X197304473Y-102450827D02*
G01*
X197307000Y-102454600D01*
X197838599Y-103730443D01*
X197838618Y-103739398D01*
X197832299Y-103745743D01*
X197832289Y-103745747D01*
X197108490Y-104046534D01*
X197099536Y-104046544D01*
X196375709Y-103745746D01*
X196369385Y-103739408D01*
X196369396Y-103730453D01*
X196369400Y-103730443D01*
X196901000Y-102454600D01*
X196907345Y-102448281D01*
X196911800Y-102447400D01*
X197296200Y-102447400D01*
X197304473Y-102450827D01*
G37*
%TD.AperFunction*%
%TD*%
%TA.AperFunction,Conductor*%
%TO.N,CJ2*%
G36*
X165121343Y-85159233D02*
G01*
X165127668Y-85165572D01*
X165127707Y-85165667D01*
X165678613Y-86533485D01*
X165678525Y-86542439D01*
X165676033Y-86546129D01*
X165404129Y-86818033D01*
X165395856Y-86821460D01*
X165391485Y-86820613D01*
X164023667Y-86269707D01*
X164017273Y-86263437D01*
X164017185Y-86254483D01*
X164017224Y-86254388D01*
X164335438Y-85483783D01*
X164341759Y-85477448D01*
X165112388Y-85159224D01*
X165121343Y-85159233D01*
G37*
%TD.AperFunction*%
%TD*%
%TA.AperFunction,Conductor*%
%TO.N,CJ2*%
G36*
X179070331Y-92900035D02*
G01*
X179884329Y-92990079D01*
X179892176Y-92994395D01*
X179894743Y-93001685D01*
X179895713Y-93486360D01*
X179892303Y-93494638D01*
X179892282Y-93494659D01*
X179892274Y-93494668D01*
X179549958Y-93836017D01*
X179541680Y-93839432D01*
X179533412Y-93835993D01*
X179532939Y-93835490D01*
X179060297Y-93301921D01*
X179057355Y-93294163D01*
X179057355Y-92911665D01*
X179060782Y-92903392D01*
X179069055Y-92899965D01*
X179070331Y-92900035D01*
G37*
%TD.AperFunction*%
%TD*%
%TA.AperFunction,Conductor*%
%TO.N,CJ3*%
G36*
X192177695Y-130216300D02*
G01*
X192177699Y-130216310D01*
X192478486Y-130940110D01*
X192478496Y-130949063D01*
X192478487Y-130949085D01*
X192478486Y-130949090D01*
X192177699Y-131672889D01*
X192171360Y-131679214D01*
X192162405Y-131679203D01*
X192162395Y-131679199D01*
X190886552Y-131147599D01*
X190880233Y-131141254D01*
X190879352Y-131136799D01*
X190879352Y-130752400D01*
X190882779Y-130744127D01*
X190886552Y-130741600D01*
X192162395Y-130210000D01*
X192171350Y-130209981D01*
X192177695Y-130216300D01*
G37*
%TD.AperFunction*%
%TD*%
%TA.AperFunction,Conductor*%
%TO.N,CJ3*%
G36*
X183818586Y-123276933D02*
G01*
X183824911Y-123283272D01*
X183824915Y-123283282D01*
X184351173Y-124561336D01*
X184351154Y-124570291D01*
X184348627Y-124574064D01*
X184076816Y-124845875D01*
X184068543Y-124849302D01*
X184064088Y-124848421D01*
X183384399Y-124568549D01*
X182786034Y-124322163D01*
X182779689Y-124315844D01*
X182779670Y-124306889D01*
X182779674Y-124306879D01*
X183078790Y-123582385D01*
X183085114Y-123576048D01*
X183085116Y-123576046D01*
X183809631Y-123276922D01*
X183818586Y-123276933D01*
G37*
%TD.AperFunction*%
%TD*%
%TA.AperFunction,Conductor*%
%TO.N,CJ3*%
G36*
X85187599Y-82599264D02*
G01*
X85194811Y-82604569D01*
X85196159Y-82613422D01*
X85193072Y-82618896D01*
X84149968Y-83662000D01*
X84143030Y-83665351D01*
X83071024Y-83788503D01*
X83062414Y-83786042D01*
X83058065Y-83778214D01*
X83057989Y-83776889D01*
X83057896Y-83664886D01*
X83057294Y-82941628D01*
X83058188Y-82937138D01*
X83379429Y-82163972D01*
X83385766Y-82157650D01*
X83393030Y-82157104D01*
X85187599Y-82599264D01*
G37*
%TD.AperFunction*%
%TD*%
%TA.AperFunction,Conductor*%
%TO.N,CJ4*%
G36*
X186636473Y-123278827D02*
G01*
X186639000Y-123282600D01*
X187170599Y-124558443D01*
X187170618Y-124567398D01*
X187164299Y-124573743D01*
X187164289Y-124573747D01*
X186440490Y-124874534D01*
X186431536Y-124874544D01*
X185707709Y-124573746D01*
X185701385Y-124567408D01*
X185701396Y-124558453D01*
X185701400Y-124558443D01*
X186233000Y-123282600D01*
X186239345Y-123276281D01*
X186243800Y-123275400D01*
X186628200Y-123275400D01*
X186636473Y-123278827D01*
G37*
%TD.AperFunction*%
%TD*%
%TA.AperFunction,Conductor*%
%TO.N,CJ4*%
G36*
X188755720Y-118985722D02*
G01*
X189480212Y-119284837D01*
X189486551Y-119291162D01*
X189486562Y-119291187D01*
X189785677Y-120015679D01*
X189785666Y-120024634D01*
X189779327Y-120030959D01*
X189779317Y-120030963D01*
X188501263Y-120557221D01*
X188492308Y-120557202D01*
X188488535Y-120554675D01*
X188216724Y-120282864D01*
X188213297Y-120274591D01*
X188214177Y-120270140D01*
X188740437Y-118992080D01*
X188746755Y-118985737D01*
X188755710Y-118985718D01*
X188755720Y-118985722D01*
G37*
%TD.AperFunction*%
%TD*%
%TA.AperFunction,Conductor*%
%TO.N,CJ4*%
G36*
X83070345Y-79550726D02*
G01*
X84746987Y-79649352D01*
X84755045Y-79653259D01*
X84758000Y-79661032D01*
X84758000Y-81138967D01*
X84754573Y-81147240D01*
X84746987Y-81150647D01*
X83070372Y-81249272D01*
X83061912Y-81246337D01*
X83058005Y-81238279D01*
X83057985Y-81237606D01*
X83057000Y-80400000D01*
X83057869Y-79661032D01*
X83057985Y-79562391D01*
X83061422Y-79554124D01*
X83069699Y-79550707D01*
X83070345Y-79550726D01*
G37*
%TD.AperFunction*%
%TD*%
%TA.AperFunction,Conductor*%
%TO.N,CJ5*%
G36*
X190591720Y-99906722D02*
G01*
X191316212Y-100205837D01*
X191322551Y-100212162D01*
X191322562Y-100212187D01*
X191621677Y-100936679D01*
X191621666Y-100945634D01*
X191615327Y-100951959D01*
X191615317Y-100951963D01*
X190337263Y-101478221D01*
X190328308Y-101478202D01*
X190324535Y-101475675D01*
X190052724Y-101203864D01*
X190049297Y-101195591D01*
X190050177Y-101191140D01*
X190576437Y-99913080D01*
X190582755Y-99906737D01*
X190591710Y-99906718D01*
X190591720Y-99906722D01*
G37*
%TD.AperFunction*%
%TD*%
%TA.AperFunction,Conductor*%
%TO.N,CJ5*%
G36*
X189684473Y-102450827D02*
G01*
X189687000Y-102454600D01*
X190218599Y-103730443D01*
X190218618Y-103739398D01*
X190212299Y-103745743D01*
X190212289Y-103745747D01*
X189488490Y-104046534D01*
X189479536Y-104046544D01*
X188755709Y-103745746D01*
X188749385Y-103739408D01*
X188749396Y-103730453D01*
X188749400Y-103730443D01*
X189281000Y-102454600D01*
X189287345Y-102448281D01*
X189291800Y-102447400D01*
X189676200Y-102447400D01*
X189684473Y-102450827D01*
G37*
%TD.AperFunction*%
%TD*%
%TA.AperFunction,Conductor*%
%TO.N,CJ6*%
G36*
X168041825Y-121982027D02*
G01*
X168044352Y-121985800D01*
X168575951Y-123261643D01*
X168575970Y-123270598D01*
X168569651Y-123276943D01*
X168569641Y-123276947D01*
X167845842Y-123577734D01*
X167836888Y-123577744D01*
X167113061Y-123276946D01*
X167106737Y-123270608D01*
X167106748Y-123261653D01*
X167106752Y-123261643D01*
X167638352Y-121985800D01*
X167644697Y-121979481D01*
X167649152Y-121978600D01*
X168033552Y-121978600D01*
X168041825Y-121982027D01*
G37*
%TD.AperFunction*%
%TD*%
%TA.AperFunction,Conductor*%
%TO.N,CJ6*%
G36*
X166373381Y-91641365D02*
G01*
X166821555Y-91826037D01*
X166827898Y-91832357D01*
X166827915Y-91832397D01*
X167012585Y-92280568D01*
X167012568Y-92289522D01*
X167007088Y-92295445D01*
X166267244Y-92673257D01*
X166258318Y-92673968D01*
X166253650Y-92671110D01*
X165982841Y-92400301D01*
X165979414Y-92392028D01*
X165980693Y-92386710D01*
X166358507Y-91646861D01*
X166365321Y-91641053D01*
X166373381Y-91641365D01*
G37*
%TD.AperFunction*%
%TD*%
%TA.AperFunction,Conductor*%
%TO.N,CJ6*%
G36*
X168296209Y-119316299D02*
G01*
X168301113Y-119321918D01*
X168601058Y-120045072D01*
X168601063Y-120054027D01*
X168598514Y-120057838D01*
X168044738Y-120610231D01*
X168036460Y-120613648D01*
X168029592Y-120611409D01*
X167010257Y-119869703D01*
X167005585Y-119862065D01*
X167007681Y-119853359D01*
X167008863Y-119851976D01*
X167279793Y-119581046D01*
X167285093Y-119578004D01*
X168287338Y-119315084D01*
X168296209Y-119316299D01*
G37*
%TD.AperFunction*%
%TD*%
%TA.AperFunction,Conductor*%
%TO.N,CJ6*%
G36*
X168603796Y-120054026D02*
G01*
X168606345Y-120057837D01*
X168905723Y-120781577D01*
X168905718Y-120790532D01*
X168901134Y-120795957D01*
X168044205Y-121334177D01*
X168037982Y-121335969D01*
X167654620Y-121335969D01*
X167646347Y-121332542D01*
X167642920Y-121324269D01*
X167643012Y-121322805D01*
X167802062Y-120061821D01*
X167806497Y-120054044D01*
X167813654Y-120051587D01*
X168595519Y-120050609D01*
X168603796Y-120054026D01*
G37*
%TD.AperFunction*%
%TD*%
%TA.AperFunction,Conductor*%
%TO.N,CJA*%
G36*
X201374043Y-129674797D02*
G01*
X201377816Y-129677324D01*
X201649627Y-129949135D01*
X201653054Y-129957408D01*
X201652173Y-129961863D01*
X201125915Y-131239917D01*
X201119596Y-131246262D01*
X201110641Y-131246281D01*
X201110631Y-131246277D01*
X200386139Y-130947162D01*
X200379800Y-130940837D01*
X200379789Y-130940812D01*
X200080674Y-130216320D01*
X200080685Y-130207365D01*
X200087022Y-130201041D01*
X201365090Y-129674778D01*
X201374043Y-129674797D01*
G37*
%TD.AperFunction*%
%TD*%
%TA.AperFunction,Conductor*%
%TO.N,CJA*%
G36*
X83071881Y-61772655D02*
G01*
X84705335Y-62085182D01*
X84712816Y-62090103D01*
X84714836Y-62096674D01*
X84714836Y-63574444D01*
X84711409Y-63582717D01*
X84703136Y-63586144D01*
X84702312Y-63586115D01*
X83068863Y-63470767D01*
X83060852Y-63466766D01*
X83057987Y-63459110D01*
X83057000Y-62620000D01*
X83057983Y-61784133D01*
X83061420Y-61775865D01*
X83069697Y-61772448D01*
X83071881Y-61772655D01*
G37*
%TD.AperFunction*%
%TD*%
%TA.AperFunction,Conductor*%
%TO.N,CJA*%
G36*
X193787917Y-91297344D02*
G01*
X193793882Y-91304023D01*
X193794537Y-91307884D01*
X193794537Y-91688633D01*
X193793297Y-91693874D01*
X193506814Y-92265614D01*
X193500044Y-92271476D01*
X193491885Y-92271186D01*
X193043495Y-92085858D01*
X193037158Y-92079531D01*
X192853365Y-91633483D01*
X192853382Y-91624530D01*
X192859726Y-91618209D01*
X192860305Y-91617988D01*
X193778977Y-91296839D01*
X193787917Y-91297344D01*
G37*
%TD.AperFunction*%
%TD*%
%TA.AperFunction,Conductor*%
%TO.N,CS2*%
G36*
X196365920Y-72779982D02*
G01*
X196374188Y-72783419D01*
X196377605Y-72791697D01*
X196377405Y-72793838D01*
X196081790Y-74370456D01*
X196076897Y-74377956D01*
X196070290Y-74380000D01*
X195089710Y-74380000D01*
X195081437Y-74376573D01*
X195078210Y-74370456D01*
X194782594Y-72793836D01*
X194784438Y-72785075D01*
X194791938Y-72780182D01*
X194794074Y-72779982D01*
X195580000Y-72779000D01*
X196365920Y-72779982D01*
G37*
%TD.AperFunction*%
%TD*%
%TA.AperFunction,Conductor*%
%TO.N,CS2*%
G36*
X191863262Y-62118678D02*
G01*
X191864635Y-62120334D01*
X192770439Y-63444203D01*
X192772283Y-63452966D01*
X192769056Y-63459083D01*
X192075683Y-64152456D01*
X192067410Y-64155883D01*
X192060803Y-64153839D01*
X190736934Y-63248035D01*
X190732041Y-63240535D01*
X190733885Y-63231772D01*
X190735252Y-63230122D01*
X191290293Y-62673693D01*
X191846717Y-62118657D01*
X191854994Y-62115241D01*
X191863262Y-62118678D01*
G37*
%TD.AperFunction*%
%TD*%
%TA.AperFunction,Conductor*%
%TO.N,CS2*%
G36*
X194732942Y-71414363D02*
G01*
X194746621Y-71421794D01*
X194750080Y-71424653D01*
X194833587Y-71526408D01*
X194833591Y-71526412D01*
X194993546Y-71657683D01*
X194993556Y-71657689D01*
X195176042Y-71755230D01*
X195176046Y-71755232D01*
X195374066Y-71815300D01*
X195490007Y-71826719D01*
X195494432Y-71828078D01*
X195876902Y-72035873D01*
X195882536Y-72042834D01*
X195882132Y-72050619D01*
X195581600Y-72778543D01*
X195579048Y-72782361D01*
X195023496Y-73336526D01*
X195015218Y-73339943D01*
X195006950Y-73336506D01*
X195006146Y-73335612D01*
X194024799Y-72125484D01*
X194022249Y-72116900D01*
X194025612Y-72109843D01*
X194719085Y-71416370D01*
X194727357Y-71412944D01*
X194732942Y-71414363D01*
G37*
%TD.AperFunction*%
%TD*%
%TA.AperFunction,Conductor*%
%TO.N,CS2*%
G36*
X83070345Y-71930726D02*
G01*
X84746987Y-72029352D01*
X84755045Y-72033259D01*
X84758000Y-72041032D01*
X84758000Y-73518967D01*
X84754573Y-73527240D01*
X84746987Y-73530647D01*
X83070372Y-73629272D01*
X83061912Y-73626337D01*
X83058005Y-73618279D01*
X83057985Y-73617606D01*
X83057000Y-72780000D01*
X83057869Y-72041032D01*
X83057985Y-71942391D01*
X83061422Y-71934124D01*
X83069699Y-71930707D01*
X83070345Y-71930726D01*
G37*
%TD.AperFunction*%
%TD*%
%TA.AperFunction,Conductor*%
%TO.N,CS2*%
G36*
X199476196Y-81101960D02*
G01*
X200098909Y-81528026D01*
X200800065Y-82007764D01*
X200804958Y-82015264D01*
X200803114Y-82024027D01*
X200801741Y-82025683D01*
X200246707Y-82582107D01*
X199690283Y-83137141D01*
X199682005Y-83140558D01*
X199673737Y-83137121D01*
X199672364Y-83135465D01*
X198766560Y-81811596D01*
X198764716Y-81802833D01*
X198767941Y-81796718D01*
X199461317Y-81103342D01*
X199469589Y-81099916D01*
X199476196Y-81101960D01*
G37*
%TD.AperFunction*%
%TD*%
%TA.AperFunction,Conductor*%
%TO.N,CS1*%
G36*
X83070345Y-69390726D02*
G01*
X84746987Y-69489352D01*
X84755045Y-69493259D01*
X84758000Y-69501032D01*
X84758000Y-70978967D01*
X84754573Y-70987240D01*
X84746987Y-70990647D01*
X83070372Y-71089272D01*
X83061912Y-71086337D01*
X83058005Y-71078279D01*
X83057985Y-71077606D01*
X83057000Y-70240000D01*
X83057869Y-69501032D01*
X83057985Y-69402391D01*
X83061422Y-69394124D01*
X83069699Y-69390707D01*
X83070345Y-69390726D01*
G37*
%TD.AperFunction*%
%TD*%
%TA.AperFunction,Conductor*%
%TO.N,I2C_VCC*%
G36*
X192009639Y-30827809D02*
G01*
X192782215Y-31146838D01*
X192788552Y-31153161D01*
X192788562Y-31153185D01*
X193107589Y-31925757D01*
X193107580Y-31934712D01*
X193103194Y-31940005D01*
X191945431Y-32699811D01*
X191936635Y-32701485D01*
X191930739Y-32698302D01*
X191237097Y-32004660D01*
X191233670Y-31996387D01*
X191235587Y-31989970D01*
X191995396Y-30832203D01*
X192002799Y-30827168D01*
X192009639Y-30827809D01*
G37*
%TD.AperFunction*%
%TD*%
%TA.AperFunction,Conductor*%
%TO.N,I2C_VCC*%
G36*
X107877257Y-43042831D02*
G01*
X107882940Y-43048861D01*
X108203810Y-43821134D01*
X108204705Y-43825633D01*
X108204009Y-44662674D01*
X108200575Y-44670944D01*
X108192679Y-44674358D01*
X107185228Y-44706250D01*
X107176851Y-44703087D01*
X107176585Y-44702829D01*
X106132737Y-43658981D01*
X106129310Y-43650708D01*
X106132737Y-43642435D01*
X106137190Y-43639650D01*
X107868320Y-43042290D01*
X107877257Y-43042831D01*
G37*
%TD.AperFunction*%
%TD*%
%TA.AperFunction,Conductor*%
%TO.N,I2C_VCC*%
G36*
X190733627Y-57037285D02*
G01*
X190735283Y-57038658D01*
X191291707Y-57593693D01*
X191846741Y-58150116D01*
X191850158Y-58158394D01*
X191846721Y-58166662D01*
X191845065Y-58168035D01*
X190521196Y-59073839D01*
X190512433Y-59075683D01*
X190506316Y-59072456D01*
X189812943Y-58379083D01*
X189809516Y-58370810D01*
X189811560Y-58364203D01*
X189945780Y-58168035D01*
X190717366Y-57040332D01*
X190724864Y-57035441D01*
X190733627Y-57037285D01*
G37*
%TD.AperFunction*%
%TD*%
%TA.AperFunction,Conductor*%
%TO.N,I2C_VCC*%
G36*
X88895093Y-50304012D02*
G01*
X89937904Y-51346823D01*
X89940980Y-51352251D01*
X90161686Y-52232798D01*
X90160373Y-52241656D01*
X90154819Y-52246450D01*
X89334098Y-52586812D01*
X89329607Y-52587705D01*
X88446830Y-52587011D01*
X88438559Y-52583578D01*
X88435139Y-52575302D01*
X88435353Y-52573085D01*
X88875336Y-50310050D01*
X88880278Y-50302585D01*
X88889053Y-50300800D01*
X88895093Y-50304012D01*
G37*
%TD.AperFunction*%
%TD*%
%TA.AperFunction,Conductor*%
%TO.N,I2C_VCC*%
G36*
X198549430Y-52179587D02*
G01*
X199707194Y-52939395D01*
X199712231Y-52946799D01*
X199711589Y-52953642D01*
X199392562Y-53726214D01*
X199386237Y-53732553D01*
X199386214Y-53732562D01*
X198613642Y-54051589D01*
X198604687Y-54051580D01*
X198599395Y-54047195D01*
X197839587Y-52889430D01*
X197837914Y-52880635D01*
X197841095Y-52874741D01*
X198534740Y-52181096D01*
X198543012Y-52177670D01*
X198549430Y-52179587D01*
G37*
%TD.AperFunction*%
%TD*%
%TA.AperFunction,Conductor*%
%TO.N,I2C_VCC*%
G36*
X193810196Y-58600560D02*
G01*
X194432909Y-59026626D01*
X195134065Y-59506364D01*
X195138958Y-59513864D01*
X195137114Y-59522627D01*
X195135741Y-59524283D01*
X194580707Y-60080707D01*
X194024283Y-60635741D01*
X194016005Y-60639158D01*
X194007737Y-60635721D01*
X194006364Y-60634065D01*
X193100560Y-59310196D01*
X193098716Y-59301433D01*
X193101941Y-59295318D01*
X193795317Y-58601942D01*
X193803589Y-58598516D01*
X193810196Y-58600560D01*
G37*
%TD.AperFunction*%
%TD*%
%TA.AperFunction,Conductor*%
%TO.N,I2C_VCC*%
G36*
X191864664Y-57034074D02*
G01*
X192697908Y-57593693D01*
X192999427Y-57796197D01*
X193004385Y-57803655D01*
X193002617Y-57812433D01*
X193001177Y-57814183D01*
X192308124Y-58507236D01*
X192299851Y-58510663D01*
X192298511Y-58510586D01*
X191301350Y-58395593D01*
X191293524Y-58391241D01*
X191290990Y-58383982D01*
X191290297Y-57598552D01*
X191293716Y-57590277D01*
X191849879Y-57035503D01*
X191858156Y-57032087D01*
X191864664Y-57034074D01*
G37*
%TD.AperFunction*%
%TD*%
%TA.AperFunction,Conductor*%
%TO.N,I2C_VCC*%
G36*
X190521196Y-56114960D02*
G01*
X191143909Y-56541026D01*
X191845065Y-57020764D01*
X191849958Y-57028264D01*
X191848114Y-57037027D01*
X191846741Y-57038683D01*
X191291707Y-57595107D01*
X190735283Y-58150141D01*
X190727005Y-58153558D01*
X190718737Y-58150121D01*
X190717364Y-58148465D01*
X189811560Y-56824596D01*
X189809716Y-56815833D01*
X189812941Y-56809718D01*
X190506317Y-56116342D01*
X190514589Y-56112916D01*
X190521196Y-56114960D01*
G37*
%TD.AperFunction*%
%TD*%
%TA.AperFunction,Conductor*%
%TO.N,I2C_VCC*%
G36*
X109606907Y-50800827D02*
G01*
X109610294Y-50808128D01*
X109758345Y-52584742D01*
X109755617Y-52593272D01*
X109747657Y-52597374D01*
X109746698Y-52597414D01*
X108859400Y-52598400D01*
X107972101Y-52597414D01*
X107963832Y-52593978D01*
X107960414Y-52585701D01*
X107960453Y-52584762D01*
X108108506Y-50808128D01*
X108112608Y-50800168D01*
X108120166Y-50797400D01*
X109598634Y-50797400D01*
X109606907Y-50800827D01*
G37*
%TD.AperFunction*%
%TD*%
%TA.AperFunction,Conductor*%
%TO.N,I2C_VCC*%
G36*
X188002831Y-52449993D02*
G01*
X189579457Y-52745610D01*
X189586956Y-52750503D01*
X189589000Y-52757110D01*
X189589000Y-53737689D01*
X189585573Y-53745962D01*
X189579456Y-53749189D01*
X188002838Y-54044805D01*
X187994075Y-54042961D01*
X187989182Y-54035461D01*
X187988982Y-54033320D01*
X187988000Y-53247400D01*
X187988982Y-52461479D01*
X187992419Y-52453211D01*
X188000697Y-52449794D01*
X188002831Y-52449993D01*
G37*
%TD.AperFunction*%
%TD*%
%TA.AperFunction,Conductor*%
%TO.N,I2C_VCC*%
G36*
X177610262Y-61327678D02*
G01*
X177611635Y-61329334D01*
X178517439Y-62653203D01*
X178519283Y-62661966D01*
X178516056Y-62668083D01*
X177822683Y-63361456D01*
X177814410Y-63364883D01*
X177807803Y-63362839D01*
X176483934Y-62457035D01*
X176479041Y-62449535D01*
X176480885Y-62440772D01*
X176482252Y-62439122D01*
X177037293Y-61882693D01*
X177593717Y-61327657D01*
X177601994Y-61324241D01*
X177610262Y-61327678D01*
G37*
%TD.AperFunction*%
%TD*%
%TA.AperFunction,Conductor*%
%TO.N,TPH VCC {slash} CPC SDA*%
G36*
X117953687Y-39675662D02*
G01*
X117957594Y-39683720D01*
X117957614Y-39684393D01*
X117958600Y-40522000D01*
X117957614Y-41359606D01*
X117954177Y-41367875D01*
X117945900Y-41371292D01*
X117945227Y-41371272D01*
X116268613Y-41272647D01*
X116260555Y-41268740D01*
X116257600Y-41260967D01*
X116257600Y-39783032D01*
X116261027Y-39774759D01*
X116268612Y-39771352D01*
X117945229Y-39672727D01*
X117953687Y-39675662D01*
G37*
%TD.AperFunction*%
%TD*%
%TA.AperFunction,Conductor*%
%TO.N,TPH VCC {slash} CPC SDA*%
G36*
X109897360Y-39777967D02*
G01*
X109903338Y-39784635D01*
X109904000Y-39788516D01*
X109904000Y-41265710D01*
X109900573Y-41273983D01*
X109898754Y-41275469D01*
X109060380Y-41829947D01*
X109051589Y-41831652D01*
X109047575Y-41830013D01*
X108207074Y-41286634D01*
X108201988Y-41279266D01*
X108023463Y-40444067D01*
X108025085Y-40435261D01*
X108031022Y-40430585D01*
X109888420Y-39777478D01*
X109897360Y-39777967D01*
G37*
%TD.AperFunction*%
%TD*%
%TA.AperFunction,Conductor*%
%TO.N,TPH GND {slash} CPC SCL*%
G36*
X197870489Y-31150265D02*
G01*
X198640398Y-31470152D01*
X198646723Y-31476491D01*
X198646714Y-31485446D01*
X198646674Y-31485540D01*
X198069030Y-32842283D01*
X198062636Y-32848553D01*
X198058265Y-32849400D01*
X197673735Y-32849400D01*
X197665462Y-32845973D01*
X197662970Y-32842283D01*
X197085325Y-31485540D01*
X197085237Y-31476586D01*
X197091507Y-31470192D01*
X197091540Y-31470177D01*
X197861511Y-31150264D01*
X197870466Y-31150256D01*
X197870489Y-31150265D01*
G37*
%TD.AperFunction*%
%TD*%
%TA.AperFunction,Conductor*%
%TO.N,TPH GND {slash} CPC SCL*%
G36*
X196578939Y-41721474D02*
G01*
X196582629Y-41723966D01*
X196854533Y-41995870D01*
X196857960Y-42004143D01*
X196857113Y-42008514D01*
X196306207Y-43376332D01*
X196299937Y-43382726D01*
X196290983Y-43382814D01*
X196290888Y-43382775D01*
X195520285Y-43064562D01*
X195513947Y-43058238D01*
X195195724Y-42287611D01*
X195195733Y-42278656D01*
X195202072Y-42272331D01*
X195202095Y-42272321D01*
X196569986Y-41721386D01*
X196578939Y-41721474D01*
G37*
%TD.AperFunction*%
%TD*%
%TA.AperFunction,Conductor*%
%TO.N,TPH GND {slash} CPC SCL*%
G36*
X117953687Y-42215662D02*
G01*
X117957594Y-42223720D01*
X117957614Y-42224393D01*
X117958600Y-43062000D01*
X117957614Y-43899606D01*
X117954177Y-43907875D01*
X117945900Y-43911292D01*
X117945227Y-43911272D01*
X116268613Y-43812647D01*
X116260555Y-43808740D01*
X116257600Y-43800967D01*
X116257600Y-42323032D01*
X116261027Y-42314759D01*
X116268612Y-42311352D01*
X117945229Y-42212727D01*
X117953687Y-42215662D01*
G37*
%TD.AperFunction*%
%TD*%
%TA.AperFunction,Conductor*%
%TO.N,TPH GND {slash} CPC SCL*%
G36*
X114223845Y-42212726D02*
G01*
X115900487Y-42311352D01*
X115908545Y-42315259D01*
X115911500Y-42323032D01*
X115911500Y-43800967D01*
X115908073Y-43809240D01*
X115900487Y-43812647D01*
X114223872Y-43911272D01*
X114215412Y-43908337D01*
X114211505Y-43900279D01*
X114211485Y-43899606D01*
X114210500Y-43062000D01*
X114211369Y-42323032D01*
X114211485Y-42224391D01*
X114214922Y-42216124D01*
X114223199Y-42212707D01*
X114223845Y-42212726D01*
G37*
%TD.AperFunction*%
%TD*%
%TA.AperFunction,Conductor*%
%TO.N,TPH SDA {slash} CPC VCC*%
G36*
X108216345Y-45514726D02*
G01*
X109892987Y-45613352D01*
X109901045Y-45617259D01*
X109904000Y-45625032D01*
X109904000Y-47102967D01*
X109900573Y-47111240D01*
X109892987Y-47114647D01*
X108216372Y-47213272D01*
X108207912Y-47210337D01*
X108204005Y-47202279D01*
X108203985Y-47201606D01*
X108203000Y-46364000D01*
X108203869Y-45625032D01*
X108203985Y-45526391D01*
X108207422Y-45518124D01*
X108215699Y-45514707D01*
X108216345Y-45514726D01*
G37*
%TD.AperFunction*%
%TD*%
%TA.AperFunction,Conductor*%
%TO.N,TPH SDA {slash} CPC VCC*%
G36*
X194463012Y-44261385D02*
G01*
X195158098Y-44541340D01*
X195830832Y-44812292D01*
X195837226Y-44818562D01*
X195837314Y-44827516D01*
X195837275Y-44827611D01*
X195519062Y-45598214D01*
X195512737Y-45604553D01*
X195512714Y-45604562D01*
X194742111Y-45922775D01*
X194733156Y-45922766D01*
X194726831Y-45916427D01*
X194726792Y-45916332D01*
X194288258Y-44827516D01*
X194175886Y-44548512D01*
X194175974Y-44539560D01*
X194178463Y-44535873D01*
X194450371Y-44263965D01*
X194458643Y-44260539D01*
X194463012Y-44261385D01*
G37*
%TD.AperFunction*%
%TD*%
%TA.AperFunction,Conductor*%
%TO.N,TPH SDA {slash} CPC VCC*%
G36*
X117953525Y-44755752D02*
G01*
X117957579Y-44763736D01*
X117957614Y-44764624D01*
X117958600Y-45602000D01*
X117957614Y-46439828D01*
X117954177Y-46448097D01*
X117945900Y-46451514D01*
X117945438Y-46451504D01*
X116274990Y-46383457D01*
X116266863Y-46379697D01*
X116263766Y-46371767D01*
X116263766Y-44893829D01*
X116267193Y-44885556D01*
X116274561Y-44882165D01*
X117945013Y-44752973D01*
X117953525Y-44755752D01*
G37*
%TD.AperFunction*%
%TD*%
%TA.AperFunction,Conductor*%
%TO.N,TPH SDA {slash} CPC VCC*%
G36*
X195330489Y-31150265D02*
G01*
X196100398Y-31470152D01*
X196106723Y-31476491D01*
X196106714Y-31485446D01*
X196106674Y-31485540D01*
X195529030Y-32842283D01*
X195522636Y-32848553D01*
X195518265Y-32849400D01*
X195133735Y-32849400D01*
X195125462Y-32845973D01*
X195122970Y-32842283D01*
X194545325Y-31485540D01*
X194545237Y-31476586D01*
X194551507Y-31470192D01*
X194551540Y-31470177D01*
X195321511Y-31150264D01*
X195330466Y-31150256D01*
X195330489Y-31150265D01*
G37*
%TD.AperFunction*%
%TD*%
%TA.AperFunction,Conductor*%
%TO.N,TPH SCL {slash} CPC GND*%
G36*
X117110590Y-47295098D02*
G01*
X117111608Y-47296003D01*
X117950312Y-48133722D01*
X117953744Y-48141993D01*
X117950322Y-48150268D01*
X117950312Y-48150278D01*
X117111608Y-48987996D01*
X117103333Y-48991418D01*
X117101973Y-48991338D01*
X116267933Y-48893215D01*
X116260117Y-48888845D01*
X116257600Y-48881595D01*
X116257600Y-47402404D01*
X116261027Y-47394131D01*
X116267932Y-47390784D01*
X117101975Y-47292661D01*
X117110590Y-47295098D01*
G37*
%TD.AperFunction*%
%TD*%
%TA.AperFunction,Conductor*%
%TO.N,TPH SCL {slash} CPC GND*%
G36*
X115067111Y-47292660D02*
G01*
X115901167Y-47390784D01*
X115908983Y-47395154D01*
X115911500Y-47402404D01*
X115911500Y-48881595D01*
X115908073Y-48889868D01*
X115901167Y-48893215D01*
X115067126Y-48991338D01*
X115058509Y-48988901D01*
X115057491Y-48987996D01*
X114218786Y-48150276D01*
X114215355Y-48142007D01*
X114218776Y-48133733D01*
X115057493Y-47296002D01*
X115065766Y-47292581D01*
X115067111Y-47292660D01*
G37*
%TD.AperFunction*%
%TD*%
%TA.AperFunction,Conductor*%
%TO.N,GP3*%
G36*
X199263259Y-76231577D02*
G01*
X200541318Y-76757836D01*
X200547662Y-76764155D01*
X200547681Y-76773110D01*
X200547677Y-76773120D01*
X200248562Y-77497612D01*
X200242237Y-77503951D01*
X200242212Y-77503962D01*
X199517720Y-77803077D01*
X199508765Y-77803066D01*
X199502441Y-77796728D01*
X198976178Y-76518661D01*
X198976197Y-76509708D01*
X198978721Y-76505938D01*
X199250536Y-76234123D01*
X199258808Y-76230697D01*
X199263259Y-76231577D01*
G37*
%TD.AperFunction*%
%TD*%
%TA.AperFunction,Conductor*%
%TO.N,GP3*%
G36*
X200173343Y-50869233D02*
G01*
X200179668Y-50875572D01*
X200179707Y-50875667D01*
X200730613Y-52243485D01*
X200730525Y-52252439D01*
X200728033Y-52256129D01*
X200456129Y-52528033D01*
X200447856Y-52531460D01*
X200443485Y-52530613D01*
X199075667Y-51979707D01*
X199069273Y-51973437D01*
X199069185Y-51964483D01*
X199069224Y-51964388D01*
X199387438Y-51193783D01*
X199393759Y-51187448D01*
X200164388Y-50869224D01*
X200173343Y-50869233D01*
G37*
%TD.AperFunction*%
%TD*%
%TA.AperFunction,Conductor*%
%TO.N,+5V*%
G36*
X175535453Y-63470793D02*
G01*
X175536721Y-63472294D01*
X176289054Y-64532335D01*
X176291048Y-64541065D01*
X176288774Y-64546257D01*
X175606835Y-65429578D01*
X175599067Y-65434032D01*
X175590424Y-65431689D01*
X175589301Y-65430701D01*
X174703110Y-64544510D01*
X174699683Y-64536237D01*
X174700281Y-64532547D01*
X174820724Y-64170723D01*
X174823549Y-64166151D01*
X175518908Y-63470792D01*
X175527180Y-63467366D01*
X175535453Y-63470793D01*
G37*
%TD.AperFunction*%
%TD*%
%TA.AperFunction,Conductor*%
%TO.N,+5V*%
G36*
X166539253Y-36373397D02*
G01*
X166540495Y-36374473D01*
X167131049Y-36963639D01*
X167133600Y-36967456D01*
X167453277Y-37741602D01*
X167453268Y-37750557D01*
X167448080Y-37756332D01*
X166228541Y-38423708D01*
X166219638Y-38424673D01*
X166214651Y-38421717D01*
X165520920Y-37727986D01*
X165517493Y-37719713D01*
X165519834Y-37712692D01*
X166522875Y-36375733D01*
X166530579Y-36371173D01*
X166539253Y-36373397D01*
G37*
%TD.AperFunction*%
%TD*%
%TA.AperFunction,Conductor*%
%TO.N,+5V*%
G36*
X169668094Y-36119659D02*
G01*
X169671994Y-36127719D01*
X169672014Y-36128383D01*
X169673000Y-36966000D01*
X169672014Y-37803596D01*
X169668577Y-37811865D01*
X169660300Y-37815282D01*
X169659617Y-37815261D01*
X167983281Y-37715256D01*
X167975227Y-37711343D01*
X167972278Y-37703577D01*
X167972278Y-36225640D01*
X167975705Y-36217367D01*
X167983298Y-36213960D01*
X169659636Y-36116717D01*
X169668094Y-36119659D01*
G37*
%TD.AperFunction*%
%TD*%
%TA.AperFunction,Conductor*%
%TO.N,+5V*%
G36*
X167144356Y-36116716D02*
G01*
X168820701Y-36213960D01*
X168828760Y-36217860D01*
X168831722Y-36225640D01*
X168831722Y-37703577D01*
X168828295Y-37711850D01*
X168820719Y-37715256D01*
X167144382Y-37815261D01*
X167135919Y-37812333D01*
X167132006Y-37804279D01*
X167131985Y-37803596D01*
X167131880Y-37714600D01*
X167131000Y-36966000D01*
X167131985Y-36128381D01*
X167135422Y-36120114D01*
X167143699Y-36116697D01*
X167144356Y-36116716D01*
G37*
%TD.AperFunction*%
%TD*%
%TA.AperFunction,Conductor*%
%TO.N,+5V*%
G36*
X172022262Y-59533678D02*
G01*
X172023635Y-59535334D01*
X172929439Y-60859203D01*
X172931283Y-60867966D01*
X172928056Y-60874083D01*
X172234683Y-61567456D01*
X172226410Y-61570883D01*
X172219803Y-61568839D01*
X170895934Y-60663035D01*
X170891041Y-60655535D01*
X170892885Y-60646772D01*
X170894252Y-60645122D01*
X171449293Y-60088693D01*
X172005717Y-59533657D01*
X172013994Y-59530241D01*
X172022262Y-59533678D01*
G37*
%TD.AperFunction*%
%TD*%
%TA.AperFunction,Conductor*%
%TO.N,+5V*%
G36*
X171445686Y-59293292D02*
G01*
X171449949Y-59301168D01*
X171450011Y-59302365D01*
X171450704Y-60087768D01*
X171449808Y-60092268D01*
X171148570Y-60817153D01*
X171142231Y-60823478D01*
X171133276Y-60823467D01*
X171132748Y-60823232D01*
X169648689Y-60118694D01*
X169642685Y-60112051D01*
X169643138Y-60103107D01*
X169645431Y-60099855D01*
X170337875Y-59407411D01*
X170344938Y-59404047D01*
X171437106Y-59290737D01*
X171445686Y-59293292D01*
G37*
%TD.AperFunction*%
%TD*%
%TA.AperFunction,Conductor*%
%TO.N,~*%
G36*
X175925990Y-27130053D02*
G01*
X177702624Y-27278106D01*
X177710584Y-27282208D01*
X177713352Y-27289766D01*
X177713352Y-28768234D01*
X177709925Y-28776507D01*
X177702624Y-28779894D01*
X175926009Y-28927945D01*
X175917479Y-28925217D01*
X175913377Y-28917257D01*
X175913337Y-28916319D01*
X175912352Y-28029000D01*
X175913337Y-27141698D01*
X175916773Y-27133432D01*
X175925050Y-27130014D01*
X175925990Y-27130053D01*
G37*
%TD.AperFunction*%
%TD*%
%TA.AperFunction,Conductor*%
%TO.N,~*%
G36*
X182255247Y-28986938D02*
G01*
X182260238Y-28992100D01*
X182956509Y-30409276D01*
X182957082Y-30418212D01*
X182954281Y-30422708D01*
X181908309Y-31468680D01*
X181900036Y-31472107D01*
X181891763Y-31468680D01*
X181891296Y-31468185D01*
X180956835Y-30418212D01*
X180833284Y-30279388D01*
X180830345Y-30270931D01*
X180831453Y-30266598D01*
X181300429Y-29277566D01*
X181307068Y-29271561D01*
X181307561Y-29271398D01*
X182246336Y-28986065D01*
X182255247Y-28986938D01*
G37*
%TD.AperFunction*%
%TD*%
%TA.AperFunction,Conductor*%
%TO.N,~*%
G36*
X179536219Y-27287325D02*
G01*
X181527198Y-28269500D01*
X181533102Y-28276234D01*
X181533421Y-28282628D01*
X181305566Y-29268346D01*
X181300364Y-29275635D01*
X181299569Y-29276089D01*
X180359181Y-29765610D01*
X180350261Y-29766390D01*
X180344816Y-29762753D01*
X179522080Y-28782261D01*
X179519343Y-28774740D01*
X179519343Y-27297818D01*
X179522770Y-27289545D01*
X179531043Y-27286118D01*
X179536219Y-27287325D01*
G37*
%TD.AperFunction*%
%TD*%
%TA.AperFunction,Conductor*%
%TO.N,GP1*%
G36*
X201263477Y-30461815D02*
G01*
X201940645Y-31148693D01*
X202107463Y-31317903D01*
X202110831Y-31326200D01*
X202107404Y-31334390D01*
X201833565Y-31608229D01*
X201831850Y-31609645D01*
X201264000Y-31993985D01*
X201255228Y-31995785D01*
X201249169Y-31992569D01*
X200414444Y-31157844D01*
X200411017Y-31149571D01*
X200414444Y-31141298D01*
X200415303Y-31140520D01*
X201247749Y-30460966D01*
X201256323Y-30458389D01*
X201263477Y-30461815D01*
G37*
%TD.AperFunction*%
%TD*%
%TA.AperFunction,Conductor*%
%TO.N,GP1*%
G36*
X199263259Y-68611577D02*
G01*
X200541318Y-69137836D01*
X200547662Y-69144155D01*
X200547681Y-69153110D01*
X200547677Y-69153120D01*
X200248562Y-69877612D01*
X200242237Y-69883951D01*
X200242212Y-69883962D01*
X199517720Y-70183077D01*
X199508765Y-70183066D01*
X199502441Y-70176728D01*
X198976178Y-68898661D01*
X198976197Y-68889708D01*
X198978721Y-68885938D01*
X199250536Y-68614123D01*
X199258808Y-68610697D01*
X199263259Y-68611577D01*
G37*
%TD.AperFunction*%
%TD*%
%TA.AperFunction,Conductor*%
%TO.N,GP0*%
G36*
X201417309Y-65898497D02*
G01*
X201688902Y-66170090D01*
X201692329Y-66178363D01*
X201691365Y-66183014D01*
X201050571Y-67662217D01*
X201044138Y-67668446D01*
X201035369Y-67668380D01*
X200249785Y-67343962D01*
X200243447Y-67337638D01*
X199919018Y-66552028D01*
X199919027Y-66543075D01*
X199925179Y-66536829D01*
X201404388Y-65896033D01*
X201413339Y-65895890D01*
X201417309Y-65898497D01*
G37*
%TD.AperFunction*%
%TD*%
%TA.AperFunction,Conductor*%
%TO.N,GP0*%
G36*
X198928439Y-27268874D02*
G01*
X198932129Y-27271366D01*
X199204033Y-27543270D01*
X199207460Y-27551543D01*
X199206613Y-27555914D01*
X198655707Y-28923732D01*
X198649437Y-28930126D01*
X198640483Y-28930214D01*
X198640388Y-28930175D01*
X197869785Y-28611962D01*
X197863447Y-28605638D01*
X197545224Y-27835011D01*
X197545233Y-27826056D01*
X197551572Y-27819731D01*
X197551595Y-27819721D01*
X198919486Y-27268786D01*
X198928439Y-27268874D01*
G37*
%TD.AperFunction*%
%TD*%
%TA.AperFunction,Conductor*%
%TO.N,GP2*%
G36*
X199263259Y-73691577D02*
G01*
X200541318Y-74217836D01*
X200547662Y-74224155D01*
X200547681Y-74233110D01*
X200547677Y-74233120D01*
X200248562Y-74957612D01*
X200242237Y-74963951D01*
X200242212Y-74963962D01*
X199517720Y-75263077D01*
X199508765Y-75263066D01*
X199502441Y-75256728D01*
X198976178Y-73978661D01*
X198976197Y-73969708D01*
X198978721Y-73965938D01*
X199250536Y-73694123D01*
X199258808Y-73690697D01*
X199263259Y-73691577D01*
G37*
%TD.AperFunction*%
%TD*%
%TA.AperFunction,Conductor*%
%TO.N,GP2*%
G36*
X200173343Y-48329233D02*
G01*
X200179668Y-48335572D01*
X200179707Y-48335667D01*
X200730613Y-49703485D01*
X200730525Y-49712439D01*
X200728033Y-49716129D01*
X200456129Y-49988033D01*
X200447856Y-49991460D01*
X200443485Y-49990613D01*
X199075667Y-49439707D01*
X199069273Y-49433437D01*
X199069185Y-49424483D01*
X199069224Y-49424388D01*
X199387438Y-48653783D01*
X199393759Y-48647448D01*
X200164388Y-48329224D01*
X200173343Y-48329233D01*
G37*
%TD.AperFunction*%
%TD*%
%TA.AperFunction,Conductor*%
%TO.N,Net-(J10-Pin_13)*%
G36*
X169668094Y-33579659D02*
G01*
X169671994Y-33587719D01*
X169672014Y-33588383D01*
X169673000Y-34426000D01*
X169672014Y-35263596D01*
X169668577Y-35271865D01*
X169660300Y-35275282D01*
X169659617Y-35275261D01*
X167983281Y-35175256D01*
X167975227Y-35171343D01*
X167972278Y-35163577D01*
X167972278Y-33685640D01*
X167975705Y-33677367D01*
X167983298Y-33673960D01*
X169659636Y-33576717D01*
X169668094Y-33579659D01*
G37*
%TD.AperFunction*%
%TD*%
%TA.AperFunction,Conductor*%
%TO.N,Net-(J10-Pin_13)*%
G36*
X167144356Y-33576716D02*
G01*
X168820701Y-33673960D01*
X168828760Y-33677860D01*
X168831722Y-33685640D01*
X168831722Y-35163577D01*
X168828295Y-35171850D01*
X168820719Y-35175256D01*
X167144382Y-35275261D01*
X167135919Y-35272333D01*
X167132006Y-35264279D01*
X167131985Y-35263596D01*
X167131880Y-35174600D01*
X167131000Y-34426000D01*
X167131985Y-33588381D01*
X167135422Y-33580114D01*
X167143699Y-33576697D01*
X167144356Y-33576716D01*
G37*
%TD.AperFunction*%
%TD*%
%TA.AperFunction,Conductor*%
%TO.N,Net-(J10-Pin_15)*%
G36*
X169668094Y-31039659D02*
G01*
X169671994Y-31047719D01*
X169672014Y-31048383D01*
X169673000Y-31886000D01*
X169672014Y-32723596D01*
X169668577Y-32731865D01*
X169660300Y-32735282D01*
X169659617Y-32735261D01*
X167983281Y-32635256D01*
X167975227Y-32631343D01*
X167972278Y-32623577D01*
X167972278Y-31145640D01*
X167975705Y-31137367D01*
X167983298Y-31133960D01*
X169659636Y-31036717D01*
X169668094Y-31039659D01*
G37*
%TD.AperFunction*%
%TD*%
%TA.AperFunction,Conductor*%
%TO.N,Net-(J10-Pin_15)*%
G36*
X167144356Y-31036716D02*
G01*
X168820701Y-31133960D01*
X168828760Y-31137860D01*
X168831722Y-31145640D01*
X168831722Y-32623577D01*
X168828295Y-32631850D01*
X168820719Y-32635256D01*
X167144382Y-32735261D01*
X167135919Y-32732333D01*
X167132006Y-32724279D01*
X167131985Y-32723596D01*
X167131880Y-32634600D01*
X167131000Y-31886000D01*
X167131985Y-31048381D01*
X167135422Y-31040114D01*
X167143699Y-31036697D01*
X167144356Y-31036716D01*
G37*
%TD.AperFunction*%
%TD*%
M02*
