%TF.GenerationSoftware,KiCad,Pcbnew,7.0.9*%
%TF.CreationDate,2023-11-28T21:36:34+01:00*%
%TF.ProjectId,euroPi-kicad,6575726f-5069-42d6-9b69-6361642e6b69,rev?*%
%TF.SameCoordinates,Original*%
%TF.FileFunction,Drillmap*%
%TF.FilePolarity,Positive*%
%FSLAX45Y45*%
G04 Gerber Fmt 4.5, Leading zero omitted, Abs format (unit mm)*
G04 Created by KiCad (PCBNEW 7.0.9) date 2023-11-28 21:36:34*
%MOMM*%
%LPD*%
G01*
G04 APERTURE LIST*
%ADD10C,0.100000*%
%ADD11C,0.200000*%
%ADD12C,0.110000*%
%ADD13C,0.122000*%
%ADD14C,0.142000*%
%ADD15C,0.143000*%
%ADD16C,0.150000*%
G04 APERTURE END LIST*
D10*
X12899380Y-10261080D02*
G75*
G03*
X12899380Y-10261080I-175000J0D01*
G01*
X13024380Y-13005080D02*
G75*
G03*
X13024380Y-13005080I-300000J0D01*
G01*
X13081419Y-4858340D02*
G75*
G03*
X12974320Y-4965020I-209J-106890D01*
G01*
X16021580Y-13004800D02*
G75*
G03*
X16021580Y-13004800I-300000J0D01*
G01*
X12974320Y-5488521D02*
G75*
G03*
X13081000Y-5595620I106890J-209D01*
G01*
X16021580Y-11226800D02*
G75*
G03*
X16021580Y-11226800I-300000J0D01*
G01*
X14525520Y-11226800D02*
G75*
G03*
X14525520Y-11226800I-300000J0D01*
G01*
X14525520Y-13004800D02*
G75*
G03*
X14525520Y-13004800I-300000J0D01*
G01*
X8128000Y-2540000D02*
X20320000Y-2540000D01*
X20320000Y-15389860D01*
X8128000Y-15389860D01*
X8128000Y-2540000D01*
X13650320Y-6807200D02*
G75*
G03*
X13650320Y-6807200I-390000J0D01*
G01*
X13481580Y-4058400D02*
G75*
G03*
X13481580Y-4058400I-300000J0D01*
G01*
X15896580Y-12039600D02*
G75*
G03*
X15896580Y-12039600I-175000J0D01*
G01*
X12899380Y-12039880D02*
G75*
G03*
X12899380Y-12039880I-175000J0D01*
G01*
X15361501Y-5595830D02*
G75*
G03*
X15468600Y-5489150I209J106890D01*
G01*
X15593420Y-6807200D02*
G75*
G03*
X15593420Y-6807200I-390000J0D01*
G01*
X12974320Y-4965020D02*
X12974322Y-5488521D01*
X14400520Y-12039600D02*
G75*
G03*
X14400520Y-12039600I-175000J0D01*
G01*
X14414500Y-7835900D02*
X16014700Y-7835900D01*
X16014700Y-9423400D01*
X14414500Y-9423400D01*
X14414500Y-7835900D01*
X12433300Y-7835900D02*
X14033500Y-7835900D01*
X14033500Y-9423400D01*
X12433300Y-9423400D01*
X12433300Y-7835900D01*
X13081000Y-5595620D02*
X15361501Y-5595829D01*
X15896580Y-10260800D02*
G75*
G03*
X15896580Y-10260800I-175000J0D01*
G01*
X15468599Y-4965700D02*
G75*
G03*
X15361922Y-4858601I-106889J210D01*
G01*
X15564380Y-4069600D02*
G75*
G03*
X15564380Y-4069600I-300000J0D01*
G01*
X15468600Y-5489150D02*
X15468600Y-4965700D01*
X15361922Y-4858601D02*
X13081419Y-4858342D01*
X14400520Y-10260800D02*
G75*
G03*
X14400520Y-10260800I-175000J0D01*
G01*
X13024380Y-11227080D02*
G75*
G03*
X13024380Y-11227080I-300000J0D01*
G01*
D11*
D10*
X9296800Y-9220600D02*
X9346800Y-9270600D01*
X9346800Y-9220600D02*
X9296800Y-9270600D01*
X9455463Y-7668000D02*
X9505463Y-7718000D01*
X9505463Y-7668000D02*
X9455463Y-7718000D01*
X9904600Y-8079400D02*
X9954600Y-8129400D01*
X9954600Y-8079400D02*
X9904600Y-8129400D01*
X9931800Y-8738000D02*
X9981800Y-8788000D01*
X9981800Y-8738000D02*
X9931800Y-8788000D01*
X9931800Y-9169800D02*
X9981800Y-9219800D01*
X9981800Y-9169800D02*
X9931800Y-9219800D01*
X16657337Y-8175361D02*
X16707337Y-8225361D01*
X16707337Y-8175361D02*
X16657337Y-8225361D01*
X16657535Y-10007860D02*
X16707535Y-10057860D01*
X16707535Y-10007860D02*
X16657535Y-10057860D01*
X16835335Y-13386060D02*
X16885335Y-13436060D01*
X16885335Y-13386060D02*
X16835335Y-13436060D01*
X16911535Y-9753860D02*
X16961535Y-9803860D01*
X16961535Y-9753860D02*
X16911535Y-9803860D01*
X17964472Y-10174123D02*
X18014472Y-10224123D01*
X18014472Y-10174123D02*
X17964472Y-10224123D01*
X17983599Y-12243200D02*
X18033599Y-12293200D01*
X18033599Y-12243200D02*
X17983599Y-12293200D01*
X18440800Y-8446990D02*
X18490800Y-8496990D01*
X18490800Y-8446990D02*
X18440800Y-8496990D01*
X18449626Y-8097646D02*
X18499626Y-8147646D01*
X18499626Y-8097646D02*
X18449626Y-8147646D01*
X18466200Y-9804800D02*
X18516200Y-9854800D01*
X18516200Y-9804800D02*
X18466200Y-9854800D01*
X18471959Y-12250777D02*
X18521959Y-12300777D01*
X18521959Y-12250777D02*
X18471959Y-12300777D01*
X18550858Y-8958141D02*
X18600858Y-9008141D01*
X18600858Y-8958141D02*
X18550858Y-9008141D01*
X18644000Y-6810140D02*
X18694000Y-6860140D01*
X18694000Y-6810140D02*
X18644000Y-6860140D01*
X18872600Y-8814200D02*
X18922600Y-8864200D01*
X18922600Y-8814200D02*
X18872600Y-8864200D01*
X18879415Y-7963427D02*
X18929415Y-8013427D01*
X18929415Y-7963427D02*
X18879415Y-8013427D01*
X19050400Y-8712600D02*
X19100400Y-8762600D01*
X19100400Y-8712600D02*
X19050400Y-8762600D01*
X19126600Y-6375800D02*
X19176600Y-6425800D01*
X19176600Y-6375800D02*
X19126600Y-6425800D01*
X19215438Y-11978763D02*
X19265438Y-12028763D01*
X19265438Y-11978763D02*
X19215438Y-12028763D01*
X19228200Y-10414400D02*
X19278200Y-10464400D01*
X19278200Y-10414400D02*
X19228200Y-10464400D01*
X19279000Y-10033400D02*
X19329000Y-10083400D01*
X19329000Y-10033400D02*
X19279000Y-10083400D01*
X19685400Y-9017400D02*
X19735400Y-9067400D01*
X19735400Y-9017400D02*
X19685400Y-9067400D01*
X19685400Y-9555618D02*
X19735400Y-9605618D01*
X19735400Y-9555618D02*
X19685400Y-9605618D01*
X19888600Y-6934600D02*
X19938600Y-6984600D01*
X19938600Y-6934600D02*
X19888600Y-6984600D01*
X17612300Y-7876540D02*
G75*
G03*
X17612300Y-7876540I-37500J0D01*
G01*
X17739300Y-7749540D02*
G75*
G03*
X17739300Y-7749540I-37500J0D01*
G01*
X17866300Y-7876540D02*
G75*
G03*
X17866300Y-7876540I-37500J0D01*
G01*
X9090300Y-10221600D02*
X9090300Y-10301600D01*
X9050300Y-10261600D02*
X9130300Y-10261600D01*
X9321800Y-10983600D02*
X9321800Y-11063600D01*
X9281800Y-11023600D02*
X9361800Y-11023600D01*
X9321800Y-11491600D02*
X9321800Y-11571600D01*
X9281800Y-11531600D02*
X9361800Y-11531600D01*
X9347200Y-12022100D02*
X9347200Y-12102100D01*
X9307200Y-12062100D02*
X9387200Y-12062100D01*
X9347200Y-12530100D02*
X9347200Y-12610100D01*
X9307200Y-12570100D02*
X9387200Y-12570100D01*
X9347200Y-12837800D02*
X9347200Y-12917800D01*
X9307200Y-12877800D02*
X9387200Y-12877800D01*
X9347200Y-13345800D02*
X9347200Y-13425800D01*
X9307200Y-13385800D02*
X9387200Y-13385800D01*
X9598300Y-10221600D02*
X9598300Y-10301600D01*
X9558300Y-10261600D02*
X9638300Y-10261600D01*
X9626600Y-9815200D02*
X9626600Y-9895200D01*
X9586600Y-9855200D02*
X9666600Y-9855200D01*
X9957965Y-3652800D02*
X9957965Y-3732800D01*
X9917965Y-3692800D02*
X9997965Y-3692800D01*
X9957965Y-4160800D02*
X9957965Y-4240800D01*
X9917965Y-4200800D02*
X9997965Y-4200800D01*
X10134600Y-9815200D02*
X10134600Y-9895200D01*
X10094600Y-9855200D02*
X10174600Y-9855200D01*
X10211965Y-6081400D02*
X10211965Y-6161400D01*
X10171965Y-6121400D02*
X10251965Y-6121400D01*
X10211965Y-6589400D02*
X10211965Y-6669400D01*
X10171965Y-6629400D02*
X10251965Y-6629400D01*
X10223500Y-7021200D02*
X10223500Y-7101200D01*
X10183500Y-7061200D02*
X10263500Y-7061200D01*
X10223500Y-7529200D02*
X10223500Y-7609200D01*
X10183500Y-7569200D02*
X10263500Y-7569200D01*
X10351665Y-3924200D02*
X10351665Y-4004200D01*
X10311665Y-3964200D02*
X10391665Y-3964200D01*
X10351665Y-4432200D02*
X10351665Y-4512200D01*
X10311665Y-4472200D02*
X10391665Y-4472200D01*
X10569300Y-11999600D02*
X10569300Y-12079600D01*
X10529300Y-12039600D02*
X10609300Y-12039600D01*
X10591800Y-9761500D02*
X10591800Y-9841500D01*
X10551800Y-9801500D02*
X10631800Y-9801500D01*
X10591800Y-10269500D02*
X10591800Y-10349500D01*
X10551800Y-10309500D02*
X10631800Y-10309500D01*
X10845800Y-11209300D02*
X10845800Y-11289300D01*
X10805800Y-11249300D02*
X10885800Y-11249300D01*
X10845800Y-11717300D02*
X10845800Y-11797300D01*
X10805800Y-11757300D02*
X10885800Y-11757300D01*
X10973965Y-12324000D02*
X10973965Y-12404000D01*
X10933965Y-12364000D02*
X11013965Y-12364000D01*
X10973965Y-12832000D02*
X10973965Y-12912000D01*
X10933965Y-12872000D02*
X11013965Y-12872000D01*
X10973965Y-13088900D02*
X10973965Y-13168900D01*
X10933965Y-13128900D02*
X11013965Y-13128900D01*
X10973965Y-13596900D02*
X10973965Y-13676900D01*
X10933965Y-13636900D02*
X11013965Y-13636900D01*
X10998200Y-10196200D02*
X10998200Y-10276200D01*
X10958200Y-10236200D02*
X11038200Y-10236200D01*
X10998200Y-10704200D02*
X10998200Y-10784200D01*
X10958200Y-10744200D02*
X11038200Y-10744200D01*
X11050165Y-9840600D02*
X11050165Y-9920600D01*
X11010165Y-9880600D02*
X11090165Y-9880600D01*
X11077300Y-11999600D02*
X11077300Y-12079600D01*
X11037300Y-12039600D02*
X11117300Y-12039600D01*
X11558165Y-9840600D02*
X11558165Y-9920600D01*
X11518165Y-9880600D02*
X11598165Y-9880600D01*
X16453935Y-12730260D02*
X16453935Y-12810260D01*
X16413935Y-12770260D02*
X16493935Y-12770260D01*
X16453935Y-13238260D02*
X16453935Y-13318260D01*
X16413935Y-13278260D02*
X16493935Y-13278260D01*
X16453935Y-13472660D02*
X16453935Y-13552660D01*
X16413935Y-13512660D02*
X16493935Y-13512660D01*
X16453935Y-13980660D02*
X16453935Y-14060660D01*
X16413935Y-14020660D02*
X16493935Y-14020660D01*
X16579335Y-11186660D02*
X16579335Y-11266660D01*
X16539335Y-11226660D02*
X16619335Y-11226660D01*
X16580935Y-11847060D02*
X16580935Y-11927060D01*
X16540935Y-11887060D02*
X16620935Y-11887060D01*
X16779335Y-11186660D02*
X16779335Y-11266660D01*
X16739335Y-11226660D02*
X16819335Y-11226660D01*
X16780935Y-11847060D02*
X16780935Y-11927060D01*
X16740935Y-11887060D02*
X16820935Y-11887060D01*
X16784135Y-13167860D02*
X16784135Y-13247860D01*
X16744135Y-13207860D02*
X16824135Y-13207860D01*
X16784135Y-13929860D02*
X16784135Y-14009860D01*
X16744135Y-13969860D02*
X16824135Y-13969860D01*
X16806635Y-10246860D02*
X16806635Y-10326860D01*
X16766635Y-10286860D02*
X16846635Y-10286860D01*
X16860335Y-10653260D02*
X16860335Y-10733260D01*
X16820335Y-10693260D02*
X16900335Y-10693260D01*
X16860335Y-12815160D02*
X16860335Y-12895160D01*
X16820335Y-12855160D02*
X16900335Y-12855160D01*
X16885735Y-12456660D02*
X16885735Y-12536660D01*
X16845735Y-12496660D02*
X16925735Y-12496660D01*
X17038135Y-13167860D02*
X17038135Y-13247860D01*
X16998135Y-13207860D02*
X17078135Y-13207860D01*
X17038135Y-13929860D02*
X17038135Y-14009860D01*
X16998135Y-13969860D02*
X17078135Y-13969860D01*
X17145000Y-6618940D02*
X17145000Y-6698940D01*
X17105000Y-6658940D02*
X17185000Y-6658940D01*
X17145000Y-6818940D02*
X17145000Y-6898940D01*
X17105000Y-6858940D02*
X17185000Y-6858940D01*
X17163535Y-11186660D02*
X17163535Y-11266660D01*
X17123535Y-11226660D02*
X17203535Y-11226660D01*
X17165135Y-11847060D02*
X17165135Y-11927060D01*
X17125135Y-11887060D02*
X17205135Y-11887060D01*
X17292135Y-13167860D02*
X17292135Y-13247860D01*
X17252135Y-13207860D02*
X17332135Y-13207860D01*
X17292135Y-13929860D02*
X17292135Y-14009860D01*
X17252135Y-13969860D02*
X17332135Y-13969860D01*
X17314635Y-10246860D02*
X17314635Y-10326860D01*
X17274635Y-10286860D02*
X17354635Y-10286860D01*
X17363535Y-11186660D02*
X17363535Y-11266660D01*
X17323535Y-11226660D02*
X17403535Y-11226660D01*
X17365135Y-11847060D02*
X17365135Y-11927060D01*
X17325135Y-11887060D02*
X17405135Y-11887060D01*
X17368335Y-10653260D02*
X17368335Y-10733260D01*
X17328335Y-10693260D02*
X17408335Y-10693260D01*
X17368335Y-12815160D02*
X17368335Y-12895160D01*
X17328335Y-12855160D02*
X17408335Y-12855160D01*
X17393735Y-12456660D02*
X17393735Y-12536660D01*
X17353735Y-12496660D02*
X17433735Y-12496660D01*
X17546135Y-13167860D02*
X17546135Y-13247860D01*
X17506135Y-13207860D02*
X17586135Y-13207860D01*
X17546135Y-13929860D02*
X17546135Y-14009860D01*
X17506135Y-13969860D02*
X17586135Y-13969860D01*
X17703800Y-6236340D02*
X17703800Y-6316340D01*
X17663800Y-6276340D02*
X17743800Y-6276340D01*
X17703800Y-6490340D02*
X17703800Y-6570340D01*
X17663800Y-6530340D02*
X17743800Y-6530340D01*
X17703800Y-6744340D02*
X17703800Y-6824340D01*
X17663800Y-6784340D02*
X17743800Y-6784340D01*
X17703800Y-6998340D02*
X17703800Y-7078340D01*
X17663800Y-7038340D02*
X17743800Y-7038340D01*
X17703800Y-9871440D02*
X17703800Y-9951440D01*
X17663800Y-9911440D02*
X17743800Y-9911440D01*
X17703800Y-10379440D02*
X17703800Y-10459440D01*
X17663800Y-10419440D02*
X17743800Y-10419440D01*
X17723935Y-12736060D02*
X17723935Y-12816060D01*
X17683935Y-12776060D02*
X17763935Y-12776060D01*
X17800135Y-13167860D02*
X17800135Y-13247860D01*
X17760135Y-13207860D02*
X17840135Y-13207860D01*
X17800135Y-13929860D02*
X17800135Y-14009860D01*
X17760135Y-13969860D02*
X17840135Y-13969860D01*
X17825535Y-11031360D02*
X17825535Y-11111360D01*
X17785535Y-11071360D02*
X17865535Y-11071360D01*
X17825535Y-11539360D02*
X17825535Y-11619360D01*
X17785535Y-11579360D02*
X17865535Y-11579360D01*
X17937200Y-4483740D02*
X17937200Y-4563740D01*
X17897200Y-4523740D02*
X17977200Y-4523740D01*
X17937200Y-5042540D02*
X17937200Y-5122540D01*
X17897200Y-5082540D02*
X17977200Y-5082540D01*
X17937200Y-5601340D02*
X17937200Y-5681340D01*
X17897200Y-5641340D02*
X17977200Y-5641340D01*
X18054135Y-13167860D02*
X18054135Y-13247860D01*
X18014135Y-13207860D02*
X18094135Y-13207860D01*
X18054135Y-13929860D02*
X18054135Y-14009860D01*
X18014135Y-13969860D02*
X18094135Y-13969860D01*
X18137200Y-4483740D02*
X18137200Y-4563740D01*
X18097200Y-4523740D02*
X18177200Y-4523740D01*
X18137200Y-5042540D02*
X18137200Y-5122540D01*
X18097200Y-5082540D02*
X18177200Y-5082540D01*
X18137200Y-5601340D02*
X18137200Y-5681340D01*
X18097200Y-5641340D02*
X18177200Y-5641340D01*
X18231935Y-12736060D02*
X18231935Y-12816060D01*
X18191935Y-12776060D02*
X18271935Y-12776060D01*
X18308135Y-13167860D02*
X18308135Y-13247860D01*
X18268135Y-13207860D02*
X18348135Y-13207860D01*
X18308135Y-13929860D02*
X18308135Y-14009860D01*
X18268135Y-13969860D02*
X18348135Y-13969860D01*
X18465800Y-6236340D02*
X18465800Y-6316340D01*
X18425800Y-6276340D02*
X18505800Y-6276340D01*
X18465800Y-6490340D02*
X18465800Y-6570340D01*
X18425800Y-6530340D02*
X18505800Y-6530340D01*
X18465800Y-6744340D02*
X18465800Y-6824340D01*
X18425800Y-6784340D02*
X18505800Y-6784340D01*
X18465800Y-6998340D02*
X18465800Y-7078340D01*
X18425800Y-7038340D02*
X18505800Y-7038340D01*
X18539935Y-4201660D02*
X18539935Y-4281660D01*
X18499935Y-4241660D02*
X18579935Y-4241660D01*
X18539935Y-4760460D02*
X18539935Y-4840460D01*
X18499935Y-4800460D02*
X18579935Y-4800460D01*
X18539935Y-5319260D02*
X18539935Y-5399260D01*
X18499935Y-5359260D02*
X18579935Y-5359260D01*
X18624000Y-10830840D02*
X18624000Y-10910840D01*
X18584000Y-10870840D02*
X18664000Y-10870840D01*
X18643600Y-11183540D02*
X18643600Y-11263540D01*
X18603600Y-11223540D02*
X18683600Y-11223540D01*
X18643600Y-11691540D02*
X18643600Y-11771540D01*
X18603600Y-11731540D02*
X18683600Y-11731540D01*
X18643600Y-11976740D02*
X18643600Y-12056740D01*
X18603600Y-12016740D02*
X18683600Y-12016740D01*
X18643600Y-12484740D02*
X18643600Y-12564740D01*
X18603600Y-12524740D02*
X18683600Y-12524740D01*
X18643600Y-12789540D02*
X18643600Y-12869540D01*
X18603600Y-12829540D02*
X18683600Y-12829540D01*
X18643600Y-13297540D02*
X18643600Y-13377540D01*
X18603600Y-13337540D02*
X18683600Y-13337540D01*
X18646500Y-10173340D02*
X18646500Y-10253340D01*
X18606500Y-10213340D02*
X18686500Y-10213340D01*
X18691500Y-8573140D02*
X18691500Y-8653140D01*
X18651500Y-8613140D02*
X18731500Y-8613140D01*
X18691500Y-9081140D02*
X18691500Y-9161140D01*
X18651500Y-9121140D02*
X18731500Y-9121140D01*
X18691500Y-9383040D02*
X18691500Y-9463040D01*
X18651500Y-9423040D02*
X18731500Y-9423040D01*
X18691500Y-9891040D02*
X18691500Y-9971040D01*
X18651500Y-9931040D02*
X18731500Y-9931040D01*
X18739935Y-4201660D02*
X18739935Y-4281660D01*
X18699935Y-4241660D02*
X18779935Y-4241660D01*
X18739935Y-4760460D02*
X18739935Y-4840460D01*
X18699935Y-4800460D02*
X18779935Y-4800460D01*
X18739935Y-5319260D02*
X18739935Y-5399260D01*
X18699935Y-5359260D02*
X18779935Y-5359260D01*
X18739935Y-13904460D02*
X18739935Y-13984460D01*
X18699935Y-13944460D02*
X18779935Y-13944460D01*
X18798900Y-6134740D02*
X18798900Y-6214740D01*
X18758900Y-6174740D02*
X18838900Y-6174740D01*
X18948400Y-11214740D02*
X18948400Y-11294740D01*
X18908400Y-11254740D02*
X18988400Y-11254740D01*
X18948400Y-11468740D02*
X18948400Y-11548740D01*
X18908400Y-11508740D02*
X18988400Y-11508740D01*
X18948400Y-11722740D02*
X18948400Y-11802740D01*
X18908400Y-11762740D02*
X18988400Y-11762740D01*
X18948400Y-11976740D02*
X18948400Y-12056740D01*
X18908400Y-12016740D02*
X18988400Y-12016740D01*
X18948400Y-12230740D02*
X18948400Y-12310740D01*
X18908400Y-12270740D02*
X18988400Y-12270740D01*
X18948400Y-12484740D02*
X18948400Y-12564740D01*
X18908400Y-12524740D02*
X18988400Y-12524740D01*
X18948400Y-12738740D02*
X18948400Y-12818740D01*
X18908400Y-12778740D02*
X18988400Y-12778740D01*
X19024600Y-13097240D02*
X19024600Y-13177240D01*
X18984600Y-13137240D02*
X19064600Y-13137240D01*
X19024600Y-13605240D02*
X19024600Y-13685240D01*
X18984600Y-13645240D02*
X19064600Y-13645240D01*
X19129100Y-6569440D02*
X19129100Y-6649440D01*
X19089100Y-6609440D02*
X19169100Y-6609440D01*
X19129100Y-7077440D02*
X19129100Y-7157440D01*
X19089100Y-7117440D02*
X19169100Y-7117440D01*
X19132000Y-10830840D02*
X19132000Y-10910840D01*
X19092000Y-10870840D02*
X19172000Y-10870840D01*
X19151600Y-9059470D02*
X19151600Y-9139470D01*
X19111600Y-9099470D02*
X19191600Y-9099470D01*
X19151600Y-9669070D02*
X19151600Y-9749070D01*
X19111600Y-9709070D02*
X19191600Y-9709070D01*
X19154500Y-10173340D02*
X19154500Y-10253340D01*
X19114500Y-10213340D02*
X19194500Y-10213340D01*
X19247935Y-13904460D02*
X19247935Y-13984460D01*
X19207935Y-13944460D02*
X19287935Y-13944460D01*
X19306900Y-6134740D02*
X19306900Y-6214740D01*
X19266900Y-6174740D02*
X19346900Y-6174740D01*
X19351600Y-9059470D02*
X19351600Y-9139470D01*
X19311600Y-9099470D02*
X19391600Y-9099470D01*
X19351600Y-9669070D02*
X19351600Y-9749070D01*
X19311600Y-9709070D02*
X19391600Y-9709070D01*
X19354800Y-13094340D02*
X19354800Y-13174340D01*
X19314800Y-13134340D02*
X19394800Y-13134340D01*
X19354800Y-13602340D02*
X19354800Y-13682340D01*
X19314800Y-13642340D02*
X19394800Y-13642340D01*
X19458000Y-6818000D02*
X19458000Y-6898000D01*
X19418000Y-6858000D02*
X19498000Y-6858000D01*
X19530235Y-13904460D02*
X19530235Y-13984460D01*
X19490235Y-13944460D02*
X19570235Y-13944460D01*
X19558000Y-7303800D02*
X19558000Y-7383800D01*
X19518000Y-7343800D02*
X19598000Y-7343800D01*
X19558000Y-7503800D02*
X19558000Y-7583800D01*
X19518000Y-7543800D02*
X19598000Y-7543800D01*
X19558000Y-7888000D02*
X19558000Y-7968000D01*
X19518000Y-7928000D02*
X19598000Y-7928000D01*
X19558000Y-8088000D02*
X19558000Y-8168000D01*
X19518000Y-8128000D02*
X19598000Y-8128000D01*
X19634200Y-10328640D02*
X19634200Y-10408640D01*
X19594200Y-10368640D02*
X19674200Y-10368640D01*
X19634200Y-10836640D02*
X19634200Y-10916640D01*
X19594200Y-10876640D02*
X19674200Y-10876640D01*
X19658000Y-6818000D02*
X19658000Y-6898000D01*
X19618000Y-6858000D02*
X19698000Y-6858000D01*
X19685000Y-13091440D02*
X19685000Y-13171440D01*
X19645000Y-13131440D02*
X19725000Y-13131440D01*
X19685000Y-13599440D02*
X19685000Y-13679440D01*
X19645000Y-13639440D02*
X19725000Y-13639440D01*
X19710400Y-11214740D02*
X19710400Y-11294740D01*
X19670400Y-11254740D02*
X19750400Y-11254740D01*
X19710400Y-11468740D02*
X19710400Y-11548740D01*
X19670400Y-11508740D02*
X19750400Y-11508740D01*
X19710400Y-11722740D02*
X19710400Y-11802740D01*
X19670400Y-11762740D02*
X19750400Y-11762740D01*
X19710400Y-11976740D02*
X19710400Y-12056740D01*
X19670400Y-12016740D02*
X19750400Y-12016740D01*
X19710400Y-12230740D02*
X19710400Y-12310740D01*
X19670400Y-12270740D02*
X19750400Y-12270740D01*
X19710400Y-12484740D02*
X19710400Y-12564740D01*
X19670400Y-12524740D02*
X19750400Y-12524740D01*
X19710400Y-12738740D02*
X19710400Y-12818740D01*
X19670400Y-12778740D02*
X19750400Y-12778740D01*
X20038235Y-13904460D02*
X20038235Y-13984460D01*
X19998235Y-13944460D02*
X20078235Y-13944460D01*
X8565720Y-12071420D02*
X8565720Y-12007780D01*
X8502080Y-12007780D01*
X8502080Y-12071420D01*
X8565720Y-12071420D01*
X8566720Y-10293420D02*
X8566720Y-10229780D01*
X8503080Y-10229780D01*
X8503080Y-10293420D01*
X8566720Y-10293420D01*
X8819720Y-12071420D02*
X8819720Y-12007780D01*
X8756080Y-12007780D01*
X8756080Y-12071420D01*
X8819720Y-12071420D01*
X8820720Y-10293420D02*
X8820720Y-10229780D01*
X8757080Y-10229780D01*
X8757080Y-10293420D01*
X8820720Y-10293420D01*
X10064903Y-12071420D02*
X10064903Y-12007780D01*
X10001262Y-12007780D01*
X10001262Y-12071420D01*
X10064903Y-12071420D01*
X10065903Y-10293420D02*
X10065903Y-10229780D01*
X10002262Y-10229780D01*
X10002262Y-10293420D01*
X10065903Y-10293420D01*
X10318903Y-12071420D02*
X10318903Y-12007780D01*
X10255262Y-12007780D01*
X10255262Y-12071420D01*
X10318903Y-12071420D01*
X10319903Y-10293420D02*
X10319903Y-10229780D01*
X10256262Y-10229780D01*
X10256262Y-10293420D01*
X10319903Y-10293420D01*
X11565085Y-10293420D02*
X11565085Y-10229780D01*
X11501445Y-10229780D01*
X11501445Y-10293420D01*
X11565085Y-10293420D01*
X11565085Y-12071420D02*
X11565085Y-12007780D01*
X11501445Y-12007780D01*
X11501445Y-12071420D01*
X11565085Y-12071420D01*
X11819085Y-10293420D02*
X11819085Y-10229780D01*
X11755445Y-10229780D01*
X11755445Y-10293420D01*
X11819085Y-10293420D01*
X11819085Y-12071420D02*
X11819085Y-12007780D01*
X11755445Y-12007780D01*
X11755445Y-12071420D01*
X11819085Y-12071420D01*
X17049820Y-7730560D02*
X17049820Y-7666920D01*
X16986180Y-7666920D01*
X16986180Y-7730560D01*
X17049820Y-7730560D01*
X17049820Y-7984560D02*
X17049820Y-7920920D01*
X16986180Y-7920920D01*
X16986180Y-7984560D01*
X17049820Y-7984560D01*
X17591620Y-7425760D02*
X17591620Y-7362120D01*
X17527980Y-7362120D01*
X17527980Y-7425760D01*
X17591620Y-7425760D01*
X17623155Y-3684720D02*
X17623155Y-3621080D01*
X17559515Y-3621080D01*
X17559515Y-3684720D01*
X17623155Y-3684720D01*
X17623155Y-3938720D02*
X17623155Y-3875080D01*
X17559515Y-3875080D01*
X17559515Y-3938720D01*
X17623155Y-3938720D01*
X17634020Y-5518220D02*
X17634020Y-5454580D01*
X17570380Y-5454580D01*
X17570380Y-5518220D01*
X17634020Y-5518220D01*
X17634020Y-5772220D02*
X17634020Y-5708580D01*
X17570380Y-5708580D01*
X17570380Y-5772220D01*
X17634020Y-5772220D01*
X17845620Y-7425760D02*
X17845620Y-7362120D01*
X17781980Y-7362120D01*
X17781980Y-7425760D01*
X17845620Y-7425760D01*
X8305800Y-6908000D02*
X8355800Y-6858000D01*
X8305800Y-6808000D01*
X8255800Y-6858000D01*
X8305800Y-6908000D01*
X8305800Y-7162000D02*
X8355800Y-7112000D01*
X8305800Y-7062000D01*
X8255800Y-7112000D01*
X8305800Y-7162000D01*
X8305800Y-7416000D02*
X8355800Y-7366000D01*
X8305800Y-7316000D01*
X8255800Y-7366000D01*
X8305800Y-7416000D01*
X8305800Y-7670000D02*
X8355800Y-7620000D01*
X8305800Y-7570000D01*
X8255800Y-7620000D01*
X8305800Y-7670000D01*
X8305800Y-7924000D02*
X8355800Y-7874000D01*
X8305800Y-7824000D01*
X8255800Y-7874000D01*
X8305800Y-7924000D01*
X8305800Y-8178000D02*
X8355800Y-8128000D01*
X8305800Y-8078000D01*
X8255800Y-8128000D01*
X8305800Y-8178000D01*
X8305800Y-8432000D02*
X8355800Y-8382000D01*
X8305800Y-8332000D01*
X8255800Y-8382000D01*
X8305800Y-8432000D01*
X8305800Y-8686000D02*
X8355800Y-8636000D01*
X8305800Y-8586000D01*
X8255800Y-8636000D01*
X8305800Y-8686000D01*
X8305800Y-8940000D02*
X8355800Y-8890000D01*
X8305800Y-8840000D01*
X8255800Y-8890000D01*
X8305800Y-8940000D01*
X8305800Y-9194000D02*
X8355800Y-9144000D01*
X8305800Y-9094000D01*
X8255800Y-9144000D01*
X8305800Y-9194000D01*
X8305800Y-9448000D02*
X8355800Y-9398000D01*
X8305800Y-9348000D01*
X8255800Y-9398000D01*
X8305800Y-9448000D01*
X8305800Y-9702000D02*
X8355800Y-9652000D01*
X8305800Y-9602000D01*
X8255800Y-9652000D01*
X8305800Y-9702000D01*
X8305800Y-9956000D02*
X8355800Y-9906000D01*
X8305800Y-9856000D01*
X8255800Y-9906000D01*
X8305800Y-9956000D01*
X8933265Y-6158700D02*
X8983265Y-6108700D01*
X8933265Y-6058700D01*
X8883265Y-6108700D01*
X8933265Y-6158700D01*
X9183265Y-6158700D02*
X9233265Y-6108700D01*
X9183265Y-6058700D01*
X9133265Y-6108700D01*
X9183265Y-6158700D01*
X9433265Y-6158700D02*
X9483265Y-6108700D01*
X9433265Y-6058700D01*
X9383265Y-6108700D01*
X9433265Y-6158700D01*
X10820400Y-5028400D02*
X10870400Y-4978400D01*
X10820400Y-4928400D01*
X10770400Y-4978400D01*
X10820400Y-5028400D01*
X10820400Y-5282400D02*
X10870400Y-5232400D01*
X10820400Y-5182400D01*
X10770400Y-5232400D01*
X10820400Y-5282400D01*
X10820400Y-5536400D02*
X10870400Y-5486400D01*
X10820400Y-5436400D01*
X10770400Y-5486400D01*
X10820400Y-5536400D01*
X10885940Y-6159740D02*
X10935940Y-6109740D01*
X10885940Y-6059740D01*
X10835940Y-6109740D01*
X10885940Y-6159740D01*
X11135940Y-6159740D02*
X11185940Y-6109740D01*
X11135940Y-6059740D01*
X11085940Y-6109740D01*
X11135940Y-6159740D01*
X11385940Y-6159740D02*
X11435940Y-6109740D01*
X11385940Y-6059740D01*
X11335940Y-6109740D01*
X11385940Y-6159740D01*
X11421150Y-4952200D02*
X11471150Y-4902200D01*
X11421150Y-4852200D01*
X11371150Y-4902200D01*
X11421150Y-4952200D01*
X11421150Y-5206200D02*
X11471150Y-5156200D01*
X11421150Y-5106200D01*
X11371150Y-5156200D01*
X11421150Y-5206200D01*
X11421150Y-5460200D02*
X11471150Y-5410200D01*
X11421150Y-5360200D01*
X11371150Y-5410200D01*
X11421150Y-5460200D01*
X11421150Y-5714200D02*
X11471150Y-5664200D01*
X11421150Y-5614200D01*
X11371150Y-5664200D01*
X11421150Y-5714200D01*
X11795760Y-4952200D02*
X11845760Y-4902200D01*
X11795760Y-4852200D01*
X11745760Y-4902200D01*
X11795760Y-4952200D01*
X11795760Y-5206200D02*
X11845760Y-5156200D01*
X11795760Y-5106200D01*
X11745760Y-5156200D01*
X11795760Y-5206200D01*
X11795760Y-5460200D02*
X11845760Y-5410200D01*
X11795760Y-5360200D01*
X11745760Y-5410200D01*
X11795760Y-5460200D01*
X11795760Y-5714200D02*
X11845760Y-5664200D01*
X11795760Y-5614200D01*
X11745760Y-5664200D01*
X11795760Y-5714200D01*
X16433800Y-6908000D02*
X16483800Y-6858000D01*
X16433800Y-6808000D01*
X16383800Y-6858000D01*
X16433800Y-6908000D01*
X16433800Y-7162000D02*
X16483800Y-7112000D01*
X16433800Y-7062000D01*
X16383800Y-7112000D01*
X16433800Y-7162000D01*
X16433800Y-7416000D02*
X16483800Y-7366000D01*
X16433800Y-7316000D01*
X16383800Y-7366000D01*
X16433800Y-7416000D01*
X16433800Y-7670000D02*
X16483800Y-7620000D01*
X16433800Y-7570000D01*
X16383800Y-7620000D01*
X16433800Y-7670000D01*
X16433800Y-7924000D02*
X16483800Y-7874000D01*
X16433800Y-7824000D01*
X16383800Y-7874000D01*
X16433800Y-7924000D01*
X16433800Y-8178000D02*
X16483800Y-8128000D01*
X16433800Y-8078000D01*
X16383800Y-8128000D01*
X16433800Y-8178000D01*
X16433800Y-8432000D02*
X16483800Y-8382000D01*
X16433800Y-8332000D01*
X16383800Y-8382000D01*
X16433800Y-8432000D01*
X16433800Y-8686000D02*
X16483800Y-8636000D01*
X16433800Y-8586000D01*
X16383800Y-8636000D01*
X16433800Y-8686000D01*
X16433800Y-8940000D02*
X16483800Y-8890000D01*
X16433800Y-8840000D01*
X16383800Y-8890000D01*
X16433800Y-8940000D01*
X16433800Y-9194000D02*
X16483800Y-9144000D01*
X16433800Y-9094000D01*
X16383800Y-9144000D01*
X16433800Y-9194000D01*
X16433800Y-9448000D02*
X16483800Y-9398000D01*
X16433800Y-9348000D01*
X16383800Y-9398000D01*
X16433800Y-9448000D01*
X16433800Y-9702000D02*
X16483800Y-9652000D01*
X16433800Y-9602000D01*
X16383800Y-9652000D01*
X16433800Y-9702000D01*
X16433800Y-9956000D02*
X16483800Y-9906000D01*
X16433800Y-9856000D01*
X16383800Y-9906000D01*
X16433800Y-9956000D01*
X16713200Y-4088600D02*
X16763200Y-4038600D01*
X16713200Y-3988600D01*
X16663200Y-4038600D01*
X16713200Y-4088600D01*
X16713200Y-4342600D02*
X16763200Y-4292600D01*
X16713200Y-4242600D01*
X16663200Y-4292600D01*
X16713200Y-4342600D01*
X16713200Y-4596600D02*
X16763200Y-4546600D01*
X16713200Y-4496600D01*
X16663200Y-4546600D01*
X16713200Y-4596600D01*
X16713200Y-4850600D02*
X16763200Y-4800600D01*
X16713200Y-4750600D01*
X16663200Y-4800600D01*
X16713200Y-4850600D01*
X16713200Y-5104600D02*
X16763200Y-5054600D01*
X16713200Y-5004600D01*
X16663200Y-5054600D01*
X16713200Y-5104600D01*
X16713200Y-5358600D02*
X16763200Y-5308600D01*
X16713200Y-5258600D01*
X16663200Y-5308600D01*
X16713200Y-5358600D01*
X16713200Y-5612600D02*
X16763200Y-5562600D01*
X16713200Y-5512600D01*
X16663200Y-5562600D01*
X16713200Y-5612600D01*
X16713200Y-5866600D02*
X16763200Y-5816600D01*
X16713200Y-5766600D01*
X16663200Y-5816600D01*
X16713200Y-5866600D01*
X16967200Y-4088600D02*
X17017200Y-4038600D01*
X16967200Y-3988600D01*
X16917200Y-4038600D01*
X16967200Y-4088600D01*
X16967200Y-4342600D02*
X17017200Y-4292600D01*
X16967200Y-4242600D01*
X16917200Y-4292600D01*
X16967200Y-4342600D01*
X16967200Y-4596600D02*
X17017200Y-4546600D01*
X16967200Y-4496600D01*
X16917200Y-4546600D01*
X16967200Y-4596600D01*
X16967200Y-4850600D02*
X17017200Y-4800600D01*
X16967200Y-4750600D01*
X16917200Y-4800600D01*
X16967200Y-4850600D01*
X16967200Y-5104600D02*
X17017200Y-5054600D01*
X16967200Y-5004600D01*
X16917200Y-5054600D01*
X16967200Y-5104600D01*
X16967200Y-5358600D02*
X17017200Y-5308600D01*
X16967200Y-5258600D01*
X16917200Y-5308600D01*
X16967200Y-5358600D01*
X16967200Y-5612600D02*
X17017200Y-5562600D01*
X16967200Y-5512600D01*
X16917200Y-5562600D01*
X16967200Y-5612600D01*
X16967200Y-5866600D02*
X17017200Y-5816600D01*
X16967200Y-5766600D01*
X16917200Y-5816600D01*
X16967200Y-5866600D01*
X18246600Y-7634140D02*
X18296600Y-7584140D01*
X18246600Y-7534140D01*
X18196600Y-7584140D01*
X18246600Y-7634140D01*
X18246600Y-7888140D02*
X18296600Y-7838140D01*
X18246600Y-7788140D01*
X18196600Y-7838140D01*
X18246600Y-7888140D01*
X18246600Y-8142140D02*
X18296600Y-8092140D01*
X18246600Y-8042140D01*
X18196600Y-8092140D01*
X18246600Y-8142140D01*
X18246600Y-8396140D02*
X18296600Y-8346140D01*
X18246600Y-8296140D01*
X18196600Y-8346140D01*
X18246600Y-8396140D01*
X18246600Y-8650140D02*
X18296600Y-8600140D01*
X18246600Y-8550140D01*
X18196600Y-8600140D01*
X18246600Y-8650140D01*
X18246600Y-8904140D02*
X18296600Y-8854140D01*
X18246600Y-8804140D01*
X18196600Y-8854140D01*
X18246600Y-8904140D01*
X18246600Y-9158140D02*
X18296600Y-9108140D01*
X18246600Y-9058140D01*
X18196600Y-9108140D01*
X18246600Y-9158140D01*
X18246600Y-9412140D02*
X18296600Y-9362140D01*
X18246600Y-9312140D01*
X18196600Y-9362140D01*
X18246600Y-9412140D01*
X18246600Y-9666140D02*
X18296600Y-9616140D01*
X18246600Y-9566140D01*
X18196600Y-9616140D01*
X18246600Y-9666140D01*
X18246600Y-9920140D02*
X18296600Y-9870140D01*
X18246600Y-9820140D01*
X18196600Y-9870140D01*
X18246600Y-9920140D01*
X18246600Y-10174140D02*
X18296600Y-10124140D01*
X18246600Y-10074140D01*
X18196600Y-10124140D01*
X18246600Y-10174140D01*
X18246600Y-10428140D02*
X18296600Y-10378140D01*
X18246600Y-10328140D01*
X18196600Y-10378140D01*
X18246600Y-10428140D01*
X18246600Y-10682140D02*
X18296600Y-10632140D01*
X18246600Y-10582140D01*
X18196600Y-10632140D01*
X18246600Y-10682140D01*
X18246600Y-10936140D02*
X18296600Y-10886140D01*
X18246600Y-10836140D01*
X18196600Y-10886140D01*
X18246600Y-10936140D01*
X18246600Y-11190140D02*
X18296600Y-11140140D01*
X18246600Y-11090140D01*
X18196600Y-11140140D01*
X18246600Y-11190140D01*
X18246600Y-11444140D02*
X18296600Y-11394140D01*
X18246600Y-11344140D01*
X18196600Y-11394140D01*
X18246600Y-11444140D01*
X18246600Y-11698140D02*
X18296600Y-11648140D01*
X18246600Y-11598140D01*
X18196600Y-11648140D01*
X18246600Y-11698140D01*
X18246600Y-11952140D02*
X18296600Y-11902140D01*
X18246600Y-11852140D01*
X18196600Y-11902140D01*
X18246600Y-11952140D01*
X18246600Y-12206140D02*
X18296600Y-12156140D01*
X18246600Y-12106140D01*
X18196600Y-12156140D01*
X18246600Y-12206140D01*
X18246600Y-12460140D02*
X18296600Y-12410140D01*
X18246600Y-12360140D01*
X18196600Y-12410140D01*
X18246600Y-12460140D01*
X19278600Y-3760940D02*
X19328600Y-3710940D01*
X19278600Y-3660940D01*
X19228600Y-3710940D01*
X19278600Y-3760940D01*
X19278600Y-4014940D02*
X19328600Y-3964940D01*
X19278600Y-3914940D01*
X19228600Y-3964940D01*
X19278600Y-4014940D01*
X19532600Y-3760940D02*
X19582600Y-3710940D01*
X19532600Y-3660940D01*
X19482600Y-3710940D01*
X19532600Y-3760940D01*
X19532600Y-4014940D02*
X19582600Y-3964940D01*
X19532600Y-3914940D01*
X19482600Y-3964940D01*
X19532600Y-4014940D01*
X19551650Y-4952200D02*
X19601650Y-4902200D01*
X19551650Y-4852200D01*
X19501650Y-4902200D01*
X19551650Y-4952200D01*
X19551650Y-5206200D02*
X19601650Y-5156200D01*
X19551650Y-5106200D01*
X19501650Y-5156200D01*
X19551650Y-5206200D01*
X19551650Y-5460200D02*
X19601650Y-5410200D01*
X19551650Y-5360200D01*
X19501650Y-5410200D01*
X19551650Y-5460200D01*
X19551650Y-5714200D02*
X19601650Y-5664200D01*
X19551650Y-5614200D01*
X19501650Y-5664200D01*
X19551650Y-5714200D01*
X19786600Y-3760940D02*
X19836600Y-3710940D01*
X19786600Y-3660940D01*
X19736600Y-3710940D01*
X19786600Y-3760940D01*
X19786600Y-4014940D02*
X19836600Y-3964940D01*
X19786600Y-3914940D01*
X19736600Y-3964940D01*
X19786600Y-4014940D01*
X19939000Y-5765000D02*
X19989000Y-5715000D01*
X19939000Y-5665000D01*
X19889000Y-5715000D01*
X19939000Y-5765000D01*
X19939000Y-6019000D02*
X19989000Y-5969000D01*
X19939000Y-5919000D01*
X19889000Y-5969000D01*
X19939000Y-6019000D01*
X19939000Y-6273000D02*
X19989000Y-6223000D01*
X19939000Y-6173000D01*
X19889000Y-6223000D01*
X19939000Y-6273000D01*
X19939000Y-6527000D02*
X19989000Y-6477000D01*
X19939000Y-6427000D01*
X19889000Y-6477000D01*
X19939000Y-6527000D01*
X20024600Y-7634140D02*
X20074600Y-7584140D01*
X20024600Y-7534140D01*
X19974600Y-7584140D01*
X20024600Y-7634140D01*
X20024600Y-7888140D02*
X20074600Y-7838140D01*
X20024600Y-7788140D01*
X19974600Y-7838140D01*
X20024600Y-7888140D01*
X20024600Y-8142140D02*
X20074600Y-8092140D01*
X20024600Y-8042140D01*
X19974600Y-8092140D01*
X20024600Y-8142140D01*
X20024600Y-8396140D02*
X20074600Y-8346140D01*
X20024600Y-8296140D01*
X19974600Y-8346140D01*
X20024600Y-8396140D01*
X20024600Y-8650140D02*
X20074600Y-8600140D01*
X20024600Y-8550140D01*
X19974600Y-8600140D01*
X20024600Y-8650140D01*
X20024600Y-8904140D02*
X20074600Y-8854140D01*
X20024600Y-8804140D01*
X19974600Y-8854140D01*
X20024600Y-8904140D01*
X20024600Y-9158140D02*
X20074600Y-9108140D01*
X20024600Y-9058140D01*
X19974600Y-9108140D01*
X20024600Y-9158140D01*
X20024600Y-9412140D02*
X20074600Y-9362140D01*
X20024600Y-9312140D01*
X19974600Y-9362140D01*
X20024600Y-9412140D01*
X20024600Y-9666140D02*
X20074600Y-9616140D01*
X20024600Y-9566140D01*
X19974600Y-9616140D01*
X20024600Y-9666140D01*
X20024600Y-9920140D02*
X20074600Y-9870140D01*
X20024600Y-9820140D01*
X19974600Y-9870140D01*
X20024600Y-9920140D01*
X20024600Y-10174140D02*
X20074600Y-10124140D01*
X20024600Y-10074140D01*
X19974600Y-10124140D01*
X20024600Y-10174140D01*
X20024600Y-10428140D02*
X20074600Y-10378140D01*
X20024600Y-10328140D01*
X19974600Y-10378140D01*
X20024600Y-10428140D01*
X20024600Y-10682140D02*
X20074600Y-10632140D01*
X20024600Y-10582140D01*
X19974600Y-10632140D01*
X20024600Y-10682140D01*
X20024600Y-10936140D02*
X20074600Y-10886140D01*
X20024600Y-10836140D01*
X19974600Y-10886140D01*
X20024600Y-10936140D01*
X20024600Y-11190140D02*
X20074600Y-11140140D01*
X20024600Y-11090140D01*
X19974600Y-11140140D01*
X20024600Y-11190140D01*
X20024600Y-11444140D02*
X20074600Y-11394140D01*
X20024600Y-11344140D01*
X19974600Y-11394140D01*
X20024600Y-11444140D01*
X20024600Y-11698140D02*
X20074600Y-11648140D01*
X20024600Y-11598140D01*
X19974600Y-11648140D01*
X20024600Y-11698140D01*
X20024600Y-11952140D02*
X20074600Y-11902140D01*
X20024600Y-11852140D01*
X19974600Y-11902140D01*
X20024600Y-11952140D01*
X20024600Y-12206140D02*
X20074600Y-12156140D01*
X20024600Y-12106140D01*
X19974600Y-12156140D01*
X20024600Y-12206140D01*
X20024600Y-12460140D02*
X20074600Y-12410140D01*
X20024600Y-12360140D01*
X19974600Y-12410140D01*
X20024600Y-12460140D01*
X20040600Y-3760940D02*
X20090600Y-3710940D01*
X20040600Y-3660940D01*
X19990600Y-3710940D01*
X20040600Y-3760940D01*
X20040600Y-4014940D02*
X20090600Y-3964940D01*
X20040600Y-3914940D01*
X19990600Y-3964940D01*
X20040600Y-4014940D01*
D12*
X18075335Y-3722360D02*
X18185335Y-3832360D01*
X18185335Y-3722360D02*
X18075335Y-3832360D01*
X18185335Y-3777360D02*
G75*
G03*
X18185335Y-3777360I-55000J0D01*
G01*
X18329335Y-3722360D02*
X18439335Y-3832360D01*
X18439335Y-3722360D02*
X18329335Y-3832360D01*
X18439335Y-3777360D02*
G75*
G03*
X18439335Y-3777360I-55000J0D01*
G01*
X18583335Y-3722360D02*
X18693335Y-3832360D01*
X18693335Y-3722360D02*
X18583335Y-3832360D01*
X18693335Y-3777360D02*
G75*
G03*
X18693335Y-3777360I-55000J0D01*
G01*
D13*
X8411065Y-4003000D02*
X8533065Y-4125000D01*
X8533065Y-4003000D02*
X8411065Y-4125000D01*
X8472065Y-4003000D02*
X8472065Y-4125000D01*
X8411065Y-4064000D02*
X8533065Y-4064000D01*
X8600400Y-10508400D02*
X8722400Y-10630400D01*
X8722400Y-10508400D02*
X8600400Y-10630400D01*
X8661400Y-10508400D02*
X8661400Y-10630400D01*
X8600400Y-10569400D02*
X8722400Y-10569400D01*
X8600400Y-12286400D02*
X8722400Y-12408400D01*
X8722400Y-12286400D02*
X8600400Y-12408400D01*
X8661400Y-12286400D02*
X8661400Y-12408400D01*
X8600400Y-12347400D02*
X8722400Y-12347400D01*
X10099582Y-10508400D02*
X10221582Y-10630400D01*
X10221582Y-10508400D02*
X10099582Y-10630400D01*
X10160582Y-10508400D02*
X10160582Y-10630400D01*
X10099582Y-10569400D02*
X10221582Y-10569400D01*
X10099582Y-12286400D02*
X10221582Y-12408400D01*
X10221582Y-12286400D02*
X10099582Y-12408400D01*
X10160582Y-12286400D02*
X10160582Y-12408400D01*
X10099582Y-12347400D02*
X10221582Y-12347400D01*
X11598765Y-10508400D02*
X11720765Y-10630400D01*
X11720765Y-10508400D02*
X11598765Y-10630400D01*
X11659765Y-10508400D02*
X11659765Y-10630400D01*
X11598765Y-10569400D02*
X11720765Y-10569400D01*
X11598765Y-12286400D02*
X11720765Y-12408400D01*
X11720765Y-12286400D02*
X11598765Y-12408400D01*
X11659765Y-12286400D02*
X11659765Y-12408400D01*
X11598765Y-12347400D02*
X11720765Y-12347400D01*
X11785100Y-4008080D02*
X11907100Y-4130080D01*
X11907100Y-4008080D02*
X11785100Y-4130080D01*
X11846100Y-4008080D02*
X11846100Y-4130080D01*
X11785100Y-4069080D02*
X11907100Y-4069080D01*
D14*
X8590400Y-10808400D02*
X8732400Y-10950400D01*
X8732400Y-10808400D02*
X8590400Y-10950400D01*
X8711605Y-10929605D02*
X8711605Y-10829195D01*
X8611195Y-10829195D01*
X8611195Y-10929605D01*
X8711605Y-10929605D01*
X8590400Y-12586400D02*
X8732400Y-12728400D01*
X8732400Y-12586400D02*
X8590400Y-12728400D01*
X8711605Y-12707605D02*
X8711605Y-12607195D01*
X8611195Y-12607195D01*
X8611195Y-12707605D01*
X8711605Y-12707605D01*
X8711065Y-3993000D02*
X8853065Y-4135000D01*
X8853065Y-3993000D02*
X8711065Y-4135000D01*
X8832270Y-4114205D02*
X8832270Y-4013795D01*
X8731860Y-4013795D01*
X8731860Y-4114205D01*
X8832270Y-4114205D01*
X10089582Y-10808400D02*
X10231582Y-10950400D01*
X10231582Y-10808400D02*
X10089582Y-10950400D01*
X10210788Y-10929605D02*
X10210788Y-10829195D01*
X10110377Y-10829195D01*
X10110377Y-10929605D01*
X10210788Y-10929605D01*
X10089582Y-12586400D02*
X10231582Y-12728400D01*
X10231582Y-12586400D02*
X10089582Y-12728400D01*
X10210788Y-12707605D02*
X10210788Y-12607195D01*
X10110377Y-12607195D01*
X10110377Y-12707605D01*
X10210788Y-12707605D01*
X11465100Y-3998080D02*
X11607100Y-4140080D01*
X11607100Y-3998080D02*
X11465100Y-4140080D01*
X11586305Y-4119285D02*
X11586305Y-4018875D01*
X11485895Y-4018875D01*
X11485895Y-4119285D01*
X11586305Y-4119285D01*
X11588765Y-10808400D02*
X11730765Y-10950400D01*
X11730765Y-10808400D02*
X11588765Y-10950400D01*
X11709970Y-10929605D02*
X11709970Y-10829195D01*
X11609560Y-10829195D01*
X11609560Y-10929605D01*
X11709970Y-10929605D01*
X11588765Y-12586400D02*
X11730765Y-12728400D01*
X11730765Y-12586400D02*
X11588765Y-12728400D01*
X11709970Y-12707605D02*
X11709970Y-12607195D01*
X11609560Y-12607195D01*
X11609560Y-12707605D01*
X11709970Y-12707605D01*
D15*
X8589900Y-11637900D02*
X8732900Y-11780900D01*
X8732900Y-11637900D02*
X8589900Y-11780900D01*
X8661400Y-11780900D02*
X8732900Y-11709400D01*
X8661400Y-11637900D01*
X8589900Y-11709400D01*
X8661400Y-11780900D01*
X8589900Y-13415900D02*
X8732900Y-13558900D01*
X8732900Y-13415900D02*
X8589900Y-13558900D01*
X8661400Y-13558900D02*
X8732900Y-13487400D01*
X8661400Y-13415900D01*
X8589900Y-13487400D01*
X8661400Y-13558900D01*
X9540565Y-3992500D02*
X9683565Y-4135500D01*
X9683565Y-3992500D02*
X9540565Y-4135500D01*
X9612065Y-4135500D02*
X9683565Y-4064000D01*
X9612065Y-3992500D01*
X9540565Y-4064000D01*
X9612065Y-4135500D01*
X10089082Y-11637900D02*
X10232082Y-11780900D01*
X10232082Y-11637900D02*
X10089082Y-11780900D01*
X10160582Y-11780900D02*
X10232082Y-11709400D01*
X10160582Y-11637900D01*
X10089082Y-11709400D01*
X10160582Y-11780900D01*
X10089082Y-13415900D02*
X10232082Y-13558900D01*
X10232082Y-13415900D02*
X10089082Y-13558900D01*
X10160582Y-13558900D02*
X10232082Y-13487400D01*
X10160582Y-13415900D01*
X10089082Y-13487400D01*
X10160582Y-13558900D01*
X10634600Y-3997580D02*
X10777600Y-4140580D01*
X10777600Y-3997580D02*
X10634600Y-4140580D01*
X10706100Y-4140580D02*
X10777600Y-4069080D01*
X10706100Y-3997580D01*
X10634600Y-4069080D01*
X10706100Y-4140580D01*
X11588265Y-11637900D02*
X11731265Y-11780900D01*
X11731265Y-11637900D02*
X11588265Y-11780900D01*
X11659765Y-11780900D02*
X11731265Y-11709400D01*
X11659765Y-11637900D01*
X11588265Y-11709400D01*
X11659765Y-11780900D01*
X11588265Y-13415900D02*
X11731265Y-13558900D01*
X11731265Y-13415900D02*
X11588265Y-13558900D01*
X11659765Y-13558900D02*
X11731265Y-13487400D01*
X11659765Y-13415900D01*
X11588265Y-13487400D01*
X11659765Y-13558900D01*
D16*
X8788400Y-8307000D02*
X8788400Y-8457000D01*
X8713400Y-8382000D02*
X8863400Y-8382000D01*
X8863400Y-8382000D02*
G75*
G03*
X8863400Y-8382000I-75000J0D01*
G01*
X9423400Y-8053000D02*
X9423400Y-8203000D01*
X9348400Y-8128000D02*
X9498400Y-8128000D01*
X9498400Y-8128000D02*
G75*
G03*
X9498400Y-8128000I-75000J0D01*
G01*
X10772140Y-8309540D02*
X10772140Y-8459540D01*
X10697140Y-8384540D02*
X10847140Y-8384540D01*
X10847140Y-8384540D02*
G75*
G03*
X10847140Y-8384540I-75000J0D01*
G01*
X11407140Y-8055540D02*
X11407140Y-8205540D01*
X11332140Y-8130540D02*
X11482140Y-8130540D01*
X11482140Y-8130540D02*
G75*
G03*
X11482140Y-8130540I-75000J0D01*
G01*
D11*
X8383777Y-15706344D02*
X8383777Y-15506344D01*
X8383777Y-15506344D02*
X8431396Y-15506344D01*
X8431396Y-15506344D02*
X8459967Y-15515868D01*
X8459967Y-15515868D02*
X8479015Y-15534915D01*
X8479015Y-15534915D02*
X8488539Y-15553963D01*
X8488539Y-15553963D02*
X8498063Y-15592058D01*
X8498063Y-15592058D02*
X8498063Y-15620629D01*
X8498063Y-15620629D02*
X8488539Y-15658725D01*
X8488539Y-15658725D02*
X8479015Y-15677772D01*
X8479015Y-15677772D02*
X8459967Y-15696820D01*
X8459967Y-15696820D02*
X8431396Y-15706344D01*
X8431396Y-15706344D02*
X8383777Y-15706344D01*
X8583777Y-15706344D02*
X8583777Y-15573010D01*
X8583777Y-15611106D02*
X8593301Y-15592058D01*
X8593301Y-15592058D02*
X8602824Y-15582534D01*
X8602824Y-15582534D02*
X8621872Y-15573010D01*
X8621872Y-15573010D02*
X8640920Y-15573010D01*
X8707586Y-15706344D02*
X8707586Y-15573010D01*
X8707586Y-15506344D02*
X8698063Y-15515868D01*
X8698063Y-15515868D02*
X8707586Y-15525391D01*
X8707586Y-15525391D02*
X8717110Y-15515868D01*
X8717110Y-15515868D02*
X8707586Y-15506344D01*
X8707586Y-15506344D02*
X8707586Y-15525391D01*
X8831396Y-15706344D02*
X8812348Y-15696820D01*
X8812348Y-15696820D02*
X8802824Y-15677772D01*
X8802824Y-15677772D02*
X8802824Y-15506344D01*
X8936158Y-15706344D02*
X8917110Y-15696820D01*
X8917110Y-15696820D02*
X8907586Y-15677772D01*
X8907586Y-15677772D02*
X8907586Y-15506344D01*
X9164729Y-15706344D02*
X9164729Y-15506344D01*
X9164729Y-15506344D02*
X9231396Y-15649201D01*
X9231396Y-15649201D02*
X9298063Y-15506344D01*
X9298063Y-15506344D02*
X9298063Y-15706344D01*
X9479015Y-15706344D02*
X9479015Y-15601582D01*
X9479015Y-15601582D02*
X9469491Y-15582534D01*
X9469491Y-15582534D02*
X9450444Y-15573010D01*
X9450444Y-15573010D02*
X9412348Y-15573010D01*
X9412348Y-15573010D02*
X9393301Y-15582534D01*
X9479015Y-15696820D02*
X9459967Y-15706344D01*
X9459967Y-15706344D02*
X9412348Y-15706344D01*
X9412348Y-15706344D02*
X9393301Y-15696820D01*
X9393301Y-15696820D02*
X9383777Y-15677772D01*
X9383777Y-15677772D02*
X9383777Y-15658725D01*
X9383777Y-15658725D02*
X9393301Y-15639677D01*
X9393301Y-15639677D02*
X9412348Y-15630153D01*
X9412348Y-15630153D02*
X9459967Y-15630153D01*
X9459967Y-15630153D02*
X9479015Y-15620629D01*
X9574253Y-15573010D02*
X9574253Y-15773010D01*
X9574253Y-15582534D02*
X9593301Y-15573010D01*
X9593301Y-15573010D02*
X9631396Y-15573010D01*
X9631396Y-15573010D02*
X9650444Y-15582534D01*
X9650444Y-15582534D02*
X9659967Y-15592058D01*
X9659967Y-15592058D02*
X9669491Y-15611106D01*
X9669491Y-15611106D02*
X9669491Y-15668248D01*
X9669491Y-15668248D02*
X9659967Y-15687296D01*
X9659967Y-15687296D02*
X9650444Y-15696820D01*
X9650444Y-15696820D02*
X9631396Y-15706344D01*
X9631396Y-15706344D02*
X9593301Y-15706344D01*
X9593301Y-15706344D02*
X9574253Y-15696820D01*
X9755205Y-15687296D02*
X9764729Y-15696820D01*
X9764729Y-15696820D02*
X9755205Y-15706344D01*
X9755205Y-15706344D02*
X9745682Y-15696820D01*
X9745682Y-15696820D02*
X9755205Y-15687296D01*
X9755205Y-15687296D02*
X9755205Y-15706344D01*
X9755205Y-15582534D02*
X9764729Y-15592058D01*
X9764729Y-15592058D02*
X9755205Y-15601582D01*
X9755205Y-15601582D02*
X9745682Y-15592058D01*
X9745682Y-15592058D02*
X9755205Y-15582534D01*
X9755205Y-15582534D02*
X9755205Y-15601582D01*
D10*
X8073000Y-16009860D02*
X8123000Y-16059860D01*
X8123000Y-16009860D02*
X8073000Y-16059860D01*
D11*
X8421872Y-15926344D02*
X8440920Y-15926344D01*
X8440920Y-15926344D02*
X8459967Y-15935868D01*
X8459967Y-15935868D02*
X8469491Y-15945391D01*
X8469491Y-15945391D02*
X8479015Y-15964439D01*
X8479015Y-15964439D02*
X8488539Y-16002534D01*
X8488539Y-16002534D02*
X8488539Y-16050153D01*
X8488539Y-16050153D02*
X8479015Y-16088248D01*
X8479015Y-16088248D02*
X8469491Y-16107296D01*
X8469491Y-16107296D02*
X8459967Y-16116820D01*
X8459967Y-16116820D02*
X8440920Y-16126344D01*
X8440920Y-16126344D02*
X8421872Y-16126344D01*
X8421872Y-16126344D02*
X8402824Y-16116820D01*
X8402824Y-16116820D02*
X8393301Y-16107296D01*
X8393301Y-16107296D02*
X8383777Y-16088248D01*
X8383777Y-16088248D02*
X8374253Y-16050153D01*
X8374253Y-16050153D02*
X8374253Y-16002534D01*
X8374253Y-16002534D02*
X8383777Y-15964439D01*
X8383777Y-15964439D02*
X8393301Y-15945391D01*
X8393301Y-15945391D02*
X8402824Y-15935868D01*
X8402824Y-15935868D02*
X8421872Y-15926344D01*
X8574253Y-16107296D02*
X8583777Y-16116820D01*
X8583777Y-16116820D02*
X8574253Y-16126344D01*
X8574253Y-16126344D02*
X8564729Y-16116820D01*
X8564729Y-16116820D02*
X8574253Y-16107296D01*
X8574253Y-16107296D02*
X8574253Y-16126344D01*
X8764729Y-15926344D02*
X8669491Y-15926344D01*
X8669491Y-15926344D02*
X8659967Y-16021582D01*
X8659967Y-16021582D02*
X8669491Y-16012058D01*
X8669491Y-16012058D02*
X8688539Y-16002534D01*
X8688539Y-16002534D02*
X8736158Y-16002534D01*
X8736158Y-16002534D02*
X8755205Y-16012058D01*
X8755205Y-16012058D02*
X8764729Y-16021582D01*
X8764729Y-16021582D02*
X8774253Y-16040629D01*
X8774253Y-16040629D02*
X8774253Y-16088248D01*
X8774253Y-16088248D02*
X8764729Y-16107296D01*
X8764729Y-16107296D02*
X8755205Y-16116820D01*
X8755205Y-16116820D02*
X8736158Y-16126344D01*
X8736158Y-16126344D02*
X8688539Y-16126344D01*
X8688539Y-16126344D02*
X8669491Y-16116820D01*
X8669491Y-16116820D02*
X8659967Y-16107296D01*
X8898063Y-15926344D02*
X8917110Y-15926344D01*
X8917110Y-15926344D02*
X8936158Y-15935868D01*
X8936158Y-15935868D02*
X8945682Y-15945391D01*
X8945682Y-15945391D02*
X8955205Y-15964439D01*
X8955205Y-15964439D02*
X8964729Y-16002534D01*
X8964729Y-16002534D02*
X8964729Y-16050153D01*
X8964729Y-16050153D02*
X8955205Y-16088248D01*
X8955205Y-16088248D02*
X8945682Y-16107296D01*
X8945682Y-16107296D02*
X8936158Y-16116820D01*
X8936158Y-16116820D02*
X8917110Y-16126344D01*
X8917110Y-16126344D02*
X8898063Y-16126344D01*
X8898063Y-16126344D02*
X8879015Y-16116820D01*
X8879015Y-16116820D02*
X8869491Y-16107296D01*
X8869491Y-16107296D02*
X8859967Y-16088248D01*
X8859967Y-16088248D02*
X8850444Y-16050153D01*
X8850444Y-16050153D02*
X8850444Y-16002534D01*
X8850444Y-16002534D02*
X8859967Y-15964439D01*
X8859967Y-15964439D02*
X8869491Y-15945391D01*
X8869491Y-15945391D02*
X8879015Y-15935868D01*
X8879015Y-15935868D02*
X8898063Y-15926344D01*
X9088539Y-15926344D02*
X9107586Y-15926344D01*
X9107586Y-15926344D02*
X9126634Y-15935868D01*
X9126634Y-15935868D02*
X9136158Y-15945391D01*
X9136158Y-15945391D02*
X9145682Y-15964439D01*
X9145682Y-15964439D02*
X9155205Y-16002534D01*
X9155205Y-16002534D02*
X9155205Y-16050153D01*
X9155205Y-16050153D02*
X9145682Y-16088248D01*
X9145682Y-16088248D02*
X9136158Y-16107296D01*
X9136158Y-16107296D02*
X9126634Y-16116820D01*
X9126634Y-16116820D02*
X9107586Y-16126344D01*
X9107586Y-16126344D02*
X9088539Y-16126344D01*
X9088539Y-16126344D02*
X9069491Y-16116820D01*
X9069491Y-16116820D02*
X9059967Y-16107296D01*
X9059967Y-16107296D02*
X9050444Y-16088248D01*
X9050444Y-16088248D02*
X9040920Y-16050153D01*
X9040920Y-16050153D02*
X9040920Y-16002534D01*
X9040920Y-16002534D02*
X9050444Y-15964439D01*
X9050444Y-15964439D02*
X9059967Y-15945391D01*
X9059967Y-15945391D02*
X9069491Y-15935868D01*
X9069491Y-15935868D02*
X9088539Y-15926344D01*
X9240920Y-16126344D02*
X9240920Y-15993010D01*
X9240920Y-16012058D02*
X9250444Y-16002534D01*
X9250444Y-16002534D02*
X9269491Y-15993010D01*
X9269491Y-15993010D02*
X9298063Y-15993010D01*
X9298063Y-15993010D02*
X9317110Y-16002534D01*
X9317110Y-16002534D02*
X9326634Y-16021582D01*
X9326634Y-16021582D02*
X9326634Y-16126344D01*
X9326634Y-16021582D02*
X9336158Y-16002534D01*
X9336158Y-16002534D02*
X9355205Y-15993010D01*
X9355205Y-15993010D02*
X9383777Y-15993010D01*
X9383777Y-15993010D02*
X9402825Y-16002534D01*
X9402825Y-16002534D02*
X9412348Y-16021582D01*
X9412348Y-16021582D02*
X9412348Y-16126344D01*
X9507586Y-16126344D02*
X9507586Y-15993010D01*
X9507586Y-16012058D02*
X9517110Y-16002534D01*
X9517110Y-16002534D02*
X9536158Y-15993010D01*
X9536158Y-15993010D02*
X9564729Y-15993010D01*
X9564729Y-15993010D02*
X9583777Y-16002534D01*
X9583777Y-16002534D02*
X9593301Y-16021582D01*
X9593301Y-16021582D02*
X9593301Y-16126344D01*
X9593301Y-16021582D02*
X9602825Y-16002534D01*
X9602825Y-16002534D02*
X9621872Y-15993010D01*
X9621872Y-15993010D02*
X9650444Y-15993010D01*
X9650444Y-15993010D02*
X9669491Y-16002534D01*
X9669491Y-16002534D02*
X9679015Y-16021582D01*
X9679015Y-16021582D02*
X9679015Y-16126344D01*
X10069491Y-15916820D02*
X9898063Y-16173963D01*
X10326634Y-15926344D02*
X10345682Y-15926344D01*
X10345682Y-15926344D02*
X10364729Y-15935868D01*
X10364729Y-15935868D02*
X10374253Y-15945391D01*
X10374253Y-15945391D02*
X10383777Y-15964439D01*
X10383777Y-15964439D02*
X10393301Y-16002534D01*
X10393301Y-16002534D02*
X10393301Y-16050153D01*
X10393301Y-16050153D02*
X10383777Y-16088248D01*
X10383777Y-16088248D02*
X10374253Y-16107296D01*
X10374253Y-16107296D02*
X10364729Y-16116820D01*
X10364729Y-16116820D02*
X10345682Y-16126344D01*
X10345682Y-16126344D02*
X10326634Y-16126344D01*
X10326634Y-16126344D02*
X10307587Y-16116820D01*
X10307587Y-16116820D02*
X10298063Y-16107296D01*
X10298063Y-16107296D02*
X10288539Y-16088248D01*
X10288539Y-16088248D02*
X10279015Y-16050153D01*
X10279015Y-16050153D02*
X10279015Y-16002534D01*
X10279015Y-16002534D02*
X10288539Y-15964439D01*
X10288539Y-15964439D02*
X10298063Y-15945391D01*
X10298063Y-15945391D02*
X10307587Y-15935868D01*
X10307587Y-15935868D02*
X10326634Y-15926344D01*
X10479015Y-16107296D02*
X10488539Y-16116820D01*
X10488539Y-16116820D02*
X10479015Y-16126344D01*
X10479015Y-16126344D02*
X10469491Y-16116820D01*
X10469491Y-16116820D02*
X10479015Y-16107296D01*
X10479015Y-16107296D02*
X10479015Y-16126344D01*
X10612348Y-15926344D02*
X10631396Y-15926344D01*
X10631396Y-15926344D02*
X10650444Y-15935868D01*
X10650444Y-15935868D02*
X10659968Y-15945391D01*
X10659968Y-15945391D02*
X10669491Y-15964439D01*
X10669491Y-15964439D02*
X10679015Y-16002534D01*
X10679015Y-16002534D02*
X10679015Y-16050153D01*
X10679015Y-16050153D02*
X10669491Y-16088248D01*
X10669491Y-16088248D02*
X10659968Y-16107296D01*
X10659968Y-16107296D02*
X10650444Y-16116820D01*
X10650444Y-16116820D02*
X10631396Y-16126344D01*
X10631396Y-16126344D02*
X10612348Y-16126344D01*
X10612348Y-16126344D02*
X10593301Y-16116820D01*
X10593301Y-16116820D02*
X10583777Y-16107296D01*
X10583777Y-16107296D02*
X10574253Y-16088248D01*
X10574253Y-16088248D02*
X10564729Y-16050153D01*
X10564729Y-16050153D02*
X10564729Y-16002534D01*
X10564729Y-16002534D02*
X10574253Y-15964439D01*
X10574253Y-15964439D02*
X10583777Y-15945391D01*
X10583777Y-15945391D02*
X10593301Y-15935868D01*
X10593301Y-15935868D02*
X10612348Y-15926344D01*
X10869491Y-16126344D02*
X10755206Y-16126344D01*
X10812348Y-16126344D02*
X10812348Y-15926344D01*
X10812348Y-15926344D02*
X10793301Y-15954915D01*
X10793301Y-15954915D02*
X10774253Y-15973963D01*
X10774253Y-15973963D02*
X10755206Y-15983487D01*
X10964729Y-16126344D02*
X11002825Y-16126344D01*
X11002825Y-16126344D02*
X11021872Y-16116820D01*
X11021872Y-16116820D02*
X11031396Y-16107296D01*
X11031396Y-16107296D02*
X11050444Y-16078725D01*
X11050444Y-16078725D02*
X11059968Y-16040629D01*
X11059968Y-16040629D02*
X11059968Y-15964439D01*
X11059968Y-15964439D02*
X11050444Y-15945391D01*
X11050444Y-15945391D02*
X11040920Y-15935868D01*
X11040920Y-15935868D02*
X11021872Y-15926344D01*
X11021872Y-15926344D02*
X10983777Y-15926344D01*
X10983777Y-15926344D02*
X10964729Y-15935868D01*
X10964729Y-15935868D02*
X10955206Y-15945391D01*
X10955206Y-15945391D02*
X10945682Y-15964439D01*
X10945682Y-15964439D02*
X10945682Y-16012058D01*
X10945682Y-16012058D02*
X10955206Y-16031106D01*
X10955206Y-16031106D02*
X10964729Y-16040629D01*
X10964729Y-16040629D02*
X10983777Y-16050153D01*
X10983777Y-16050153D02*
X11021872Y-16050153D01*
X11021872Y-16050153D02*
X11040920Y-16040629D01*
X11040920Y-16040629D02*
X11050444Y-16031106D01*
X11050444Y-16031106D02*
X11059968Y-16012058D01*
X11126634Y-15926344D02*
X11259967Y-15926344D01*
X11259967Y-15926344D02*
X11174253Y-16126344D01*
X11326634Y-15926344D02*
X11326634Y-15964439D01*
X11402825Y-15926344D02*
X11402825Y-15964439D01*
X11698063Y-16202534D02*
X11688539Y-16193010D01*
X11688539Y-16193010D02*
X11669491Y-16164439D01*
X11669491Y-16164439D02*
X11659968Y-16145391D01*
X11659968Y-16145391D02*
X11650444Y-16116820D01*
X11650444Y-16116820D02*
X11640920Y-16069201D01*
X11640920Y-16069201D02*
X11640920Y-16031106D01*
X11640920Y-16031106D02*
X11650444Y-15983487D01*
X11650444Y-15983487D02*
X11659968Y-15954915D01*
X11659968Y-15954915D02*
X11669491Y-15935868D01*
X11669491Y-15935868D02*
X11688539Y-15907296D01*
X11688539Y-15907296D02*
X11698063Y-15897772D01*
X11764729Y-15945391D02*
X11774253Y-15935868D01*
X11774253Y-15935868D02*
X11793301Y-15926344D01*
X11793301Y-15926344D02*
X11840920Y-15926344D01*
X11840920Y-15926344D02*
X11859968Y-15935868D01*
X11859968Y-15935868D02*
X11869491Y-15945391D01*
X11869491Y-15945391D02*
X11879015Y-15964439D01*
X11879015Y-15964439D02*
X11879015Y-15983487D01*
X11879015Y-15983487D02*
X11869491Y-16012058D01*
X11869491Y-16012058D02*
X11755206Y-16126344D01*
X11755206Y-16126344D02*
X11879015Y-16126344D01*
X11945682Y-15926344D02*
X12079015Y-15926344D01*
X12079015Y-15926344D02*
X11993301Y-16126344D01*
X12307587Y-16126344D02*
X12307587Y-15926344D01*
X12393301Y-16126344D02*
X12393301Y-16021582D01*
X12393301Y-16021582D02*
X12383777Y-16002534D01*
X12383777Y-16002534D02*
X12364730Y-15993010D01*
X12364730Y-15993010D02*
X12336158Y-15993010D01*
X12336158Y-15993010D02*
X12317110Y-16002534D01*
X12317110Y-16002534D02*
X12307587Y-16012058D01*
X12517110Y-16126344D02*
X12498063Y-16116820D01*
X12498063Y-16116820D02*
X12488539Y-16107296D01*
X12488539Y-16107296D02*
X12479015Y-16088248D01*
X12479015Y-16088248D02*
X12479015Y-16031106D01*
X12479015Y-16031106D02*
X12488539Y-16012058D01*
X12488539Y-16012058D02*
X12498063Y-16002534D01*
X12498063Y-16002534D02*
X12517110Y-15993010D01*
X12517110Y-15993010D02*
X12545682Y-15993010D01*
X12545682Y-15993010D02*
X12564730Y-16002534D01*
X12564730Y-16002534D02*
X12574253Y-16012058D01*
X12574253Y-16012058D02*
X12583777Y-16031106D01*
X12583777Y-16031106D02*
X12583777Y-16088248D01*
X12583777Y-16088248D02*
X12574253Y-16107296D01*
X12574253Y-16107296D02*
X12564730Y-16116820D01*
X12564730Y-16116820D02*
X12545682Y-16126344D01*
X12545682Y-16126344D02*
X12517110Y-16126344D01*
X12698063Y-16126344D02*
X12679015Y-16116820D01*
X12679015Y-16116820D02*
X12669491Y-16097772D01*
X12669491Y-16097772D02*
X12669491Y-15926344D01*
X12850444Y-16116820D02*
X12831396Y-16126344D01*
X12831396Y-16126344D02*
X12793301Y-16126344D01*
X12793301Y-16126344D02*
X12774253Y-16116820D01*
X12774253Y-16116820D02*
X12764730Y-16097772D01*
X12764730Y-16097772D02*
X12764730Y-16021582D01*
X12764730Y-16021582D02*
X12774253Y-16002534D01*
X12774253Y-16002534D02*
X12793301Y-15993010D01*
X12793301Y-15993010D02*
X12831396Y-15993010D01*
X12831396Y-15993010D02*
X12850444Y-16002534D01*
X12850444Y-16002534D02*
X12859968Y-16021582D01*
X12859968Y-16021582D02*
X12859968Y-16040629D01*
X12859968Y-16040629D02*
X12764730Y-16059677D01*
X12936158Y-16116820D02*
X12955206Y-16126344D01*
X12955206Y-16126344D02*
X12993301Y-16126344D01*
X12993301Y-16126344D02*
X13012349Y-16116820D01*
X13012349Y-16116820D02*
X13021872Y-16097772D01*
X13021872Y-16097772D02*
X13021872Y-16088248D01*
X13021872Y-16088248D02*
X13012349Y-16069201D01*
X13012349Y-16069201D02*
X12993301Y-16059677D01*
X12993301Y-16059677D02*
X12964730Y-16059677D01*
X12964730Y-16059677D02*
X12945682Y-16050153D01*
X12945682Y-16050153D02*
X12936158Y-16031106D01*
X12936158Y-16031106D02*
X12936158Y-16021582D01*
X12936158Y-16021582D02*
X12945682Y-16002534D01*
X12945682Y-16002534D02*
X12964730Y-15993010D01*
X12964730Y-15993010D02*
X12993301Y-15993010D01*
X12993301Y-15993010D02*
X13012349Y-16002534D01*
X13088539Y-16202534D02*
X13098063Y-16193010D01*
X13098063Y-16193010D02*
X13117111Y-16164439D01*
X13117111Y-16164439D02*
X13126634Y-16145391D01*
X13126634Y-16145391D02*
X13136158Y-16116820D01*
X13136158Y-16116820D02*
X13145682Y-16069201D01*
X13145682Y-16069201D02*
X13145682Y-16031106D01*
X13145682Y-16031106D02*
X13136158Y-15983487D01*
X13136158Y-15983487D02*
X13126634Y-15954915D01*
X13126634Y-15954915D02*
X13117111Y-15935868D01*
X13117111Y-15935868D02*
X13098063Y-15907296D01*
X13098063Y-15907296D02*
X13088539Y-15897772D01*
D10*
X8123000Y-16298860D02*
G75*
G03*
X8123000Y-16298860I-37500J0D01*
G01*
D11*
X8421872Y-16190344D02*
X8440920Y-16190344D01*
X8440920Y-16190344D02*
X8459967Y-16199868D01*
X8459967Y-16199868D02*
X8469491Y-16209391D01*
X8469491Y-16209391D02*
X8479015Y-16228439D01*
X8479015Y-16228439D02*
X8488539Y-16266534D01*
X8488539Y-16266534D02*
X8488539Y-16314153D01*
X8488539Y-16314153D02*
X8479015Y-16352248D01*
X8479015Y-16352248D02*
X8469491Y-16371296D01*
X8469491Y-16371296D02*
X8459967Y-16380820D01*
X8459967Y-16380820D02*
X8440920Y-16390344D01*
X8440920Y-16390344D02*
X8421872Y-16390344D01*
X8421872Y-16390344D02*
X8402824Y-16380820D01*
X8402824Y-16380820D02*
X8393301Y-16371296D01*
X8393301Y-16371296D02*
X8383777Y-16352248D01*
X8383777Y-16352248D02*
X8374253Y-16314153D01*
X8374253Y-16314153D02*
X8374253Y-16266534D01*
X8374253Y-16266534D02*
X8383777Y-16228439D01*
X8383777Y-16228439D02*
X8393301Y-16209391D01*
X8393301Y-16209391D02*
X8402824Y-16199868D01*
X8402824Y-16199868D02*
X8421872Y-16190344D01*
X8574253Y-16371296D02*
X8583777Y-16380820D01*
X8583777Y-16380820D02*
X8574253Y-16390344D01*
X8574253Y-16390344D02*
X8564729Y-16380820D01*
X8564729Y-16380820D02*
X8574253Y-16371296D01*
X8574253Y-16371296D02*
X8574253Y-16390344D01*
X8650444Y-16190344D02*
X8783777Y-16190344D01*
X8783777Y-16190344D02*
X8698063Y-16390344D01*
X8955205Y-16190344D02*
X8859967Y-16190344D01*
X8859967Y-16190344D02*
X8850444Y-16285582D01*
X8850444Y-16285582D02*
X8859967Y-16276058D01*
X8859967Y-16276058D02*
X8879015Y-16266534D01*
X8879015Y-16266534D02*
X8926634Y-16266534D01*
X8926634Y-16266534D02*
X8945682Y-16276058D01*
X8945682Y-16276058D02*
X8955205Y-16285582D01*
X8955205Y-16285582D02*
X8964729Y-16304629D01*
X8964729Y-16304629D02*
X8964729Y-16352248D01*
X8964729Y-16352248D02*
X8955205Y-16371296D01*
X8955205Y-16371296D02*
X8945682Y-16380820D01*
X8945682Y-16380820D02*
X8926634Y-16390344D01*
X8926634Y-16390344D02*
X8879015Y-16390344D01*
X8879015Y-16390344D02*
X8859967Y-16380820D01*
X8859967Y-16380820D02*
X8850444Y-16371296D01*
X9088539Y-16190344D02*
X9107586Y-16190344D01*
X9107586Y-16190344D02*
X9126634Y-16199868D01*
X9126634Y-16199868D02*
X9136158Y-16209391D01*
X9136158Y-16209391D02*
X9145682Y-16228439D01*
X9145682Y-16228439D02*
X9155205Y-16266534D01*
X9155205Y-16266534D02*
X9155205Y-16314153D01*
X9155205Y-16314153D02*
X9145682Y-16352248D01*
X9145682Y-16352248D02*
X9136158Y-16371296D01*
X9136158Y-16371296D02*
X9126634Y-16380820D01*
X9126634Y-16380820D02*
X9107586Y-16390344D01*
X9107586Y-16390344D02*
X9088539Y-16390344D01*
X9088539Y-16390344D02*
X9069491Y-16380820D01*
X9069491Y-16380820D02*
X9059967Y-16371296D01*
X9059967Y-16371296D02*
X9050444Y-16352248D01*
X9050444Y-16352248D02*
X9040920Y-16314153D01*
X9040920Y-16314153D02*
X9040920Y-16266534D01*
X9040920Y-16266534D02*
X9050444Y-16228439D01*
X9050444Y-16228439D02*
X9059967Y-16209391D01*
X9059967Y-16209391D02*
X9069491Y-16199868D01*
X9069491Y-16199868D02*
X9088539Y-16190344D01*
X9240920Y-16390344D02*
X9240920Y-16257010D01*
X9240920Y-16276058D02*
X9250444Y-16266534D01*
X9250444Y-16266534D02*
X9269491Y-16257010D01*
X9269491Y-16257010D02*
X9298063Y-16257010D01*
X9298063Y-16257010D02*
X9317110Y-16266534D01*
X9317110Y-16266534D02*
X9326634Y-16285582D01*
X9326634Y-16285582D02*
X9326634Y-16390344D01*
X9326634Y-16285582D02*
X9336158Y-16266534D01*
X9336158Y-16266534D02*
X9355205Y-16257010D01*
X9355205Y-16257010D02*
X9383777Y-16257010D01*
X9383777Y-16257010D02*
X9402825Y-16266534D01*
X9402825Y-16266534D02*
X9412348Y-16285582D01*
X9412348Y-16285582D02*
X9412348Y-16390344D01*
X9507586Y-16390344D02*
X9507586Y-16257010D01*
X9507586Y-16276058D02*
X9517110Y-16266534D01*
X9517110Y-16266534D02*
X9536158Y-16257010D01*
X9536158Y-16257010D02*
X9564729Y-16257010D01*
X9564729Y-16257010D02*
X9583777Y-16266534D01*
X9583777Y-16266534D02*
X9593301Y-16285582D01*
X9593301Y-16285582D02*
X9593301Y-16390344D01*
X9593301Y-16285582D02*
X9602825Y-16266534D01*
X9602825Y-16266534D02*
X9621872Y-16257010D01*
X9621872Y-16257010D02*
X9650444Y-16257010D01*
X9650444Y-16257010D02*
X9669491Y-16266534D01*
X9669491Y-16266534D02*
X9679015Y-16285582D01*
X9679015Y-16285582D02*
X9679015Y-16390344D01*
X10069491Y-16180820D02*
X9898063Y-16437963D01*
X10326634Y-16190344D02*
X10345682Y-16190344D01*
X10345682Y-16190344D02*
X10364729Y-16199868D01*
X10364729Y-16199868D02*
X10374253Y-16209391D01*
X10374253Y-16209391D02*
X10383777Y-16228439D01*
X10383777Y-16228439D02*
X10393301Y-16266534D01*
X10393301Y-16266534D02*
X10393301Y-16314153D01*
X10393301Y-16314153D02*
X10383777Y-16352248D01*
X10383777Y-16352248D02*
X10374253Y-16371296D01*
X10374253Y-16371296D02*
X10364729Y-16380820D01*
X10364729Y-16380820D02*
X10345682Y-16390344D01*
X10345682Y-16390344D02*
X10326634Y-16390344D01*
X10326634Y-16390344D02*
X10307587Y-16380820D01*
X10307587Y-16380820D02*
X10298063Y-16371296D01*
X10298063Y-16371296D02*
X10288539Y-16352248D01*
X10288539Y-16352248D02*
X10279015Y-16314153D01*
X10279015Y-16314153D02*
X10279015Y-16266534D01*
X10279015Y-16266534D02*
X10288539Y-16228439D01*
X10288539Y-16228439D02*
X10298063Y-16209391D01*
X10298063Y-16209391D02*
X10307587Y-16199868D01*
X10307587Y-16199868D02*
X10326634Y-16190344D01*
X10479015Y-16371296D02*
X10488539Y-16380820D01*
X10488539Y-16380820D02*
X10479015Y-16390344D01*
X10479015Y-16390344D02*
X10469491Y-16380820D01*
X10469491Y-16380820D02*
X10479015Y-16371296D01*
X10479015Y-16371296D02*
X10479015Y-16390344D01*
X10612348Y-16190344D02*
X10631396Y-16190344D01*
X10631396Y-16190344D02*
X10650444Y-16199868D01*
X10650444Y-16199868D02*
X10659968Y-16209391D01*
X10659968Y-16209391D02*
X10669491Y-16228439D01*
X10669491Y-16228439D02*
X10679015Y-16266534D01*
X10679015Y-16266534D02*
X10679015Y-16314153D01*
X10679015Y-16314153D02*
X10669491Y-16352248D01*
X10669491Y-16352248D02*
X10659968Y-16371296D01*
X10659968Y-16371296D02*
X10650444Y-16380820D01*
X10650444Y-16380820D02*
X10631396Y-16390344D01*
X10631396Y-16390344D02*
X10612348Y-16390344D01*
X10612348Y-16390344D02*
X10593301Y-16380820D01*
X10593301Y-16380820D02*
X10583777Y-16371296D01*
X10583777Y-16371296D02*
X10574253Y-16352248D01*
X10574253Y-16352248D02*
X10564729Y-16314153D01*
X10564729Y-16314153D02*
X10564729Y-16266534D01*
X10564729Y-16266534D02*
X10574253Y-16228439D01*
X10574253Y-16228439D02*
X10583777Y-16209391D01*
X10583777Y-16209391D02*
X10593301Y-16199868D01*
X10593301Y-16199868D02*
X10612348Y-16190344D01*
X10755206Y-16209391D02*
X10764729Y-16199868D01*
X10764729Y-16199868D02*
X10783777Y-16190344D01*
X10783777Y-16190344D02*
X10831396Y-16190344D01*
X10831396Y-16190344D02*
X10850444Y-16199868D01*
X10850444Y-16199868D02*
X10859968Y-16209391D01*
X10859968Y-16209391D02*
X10869491Y-16228439D01*
X10869491Y-16228439D02*
X10869491Y-16247487D01*
X10869491Y-16247487D02*
X10859968Y-16276058D01*
X10859968Y-16276058D02*
X10745682Y-16390344D01*
X10745682Y-16390344D02*
X10869491Y-16390344D01*
X10964729Y-16390344D02*
X11002825Y-16390344D01*
X11002825Y-16390344D02*
X11021872Y-16380820D01*
X11021872Y-16380820D02*
X11031396Y-16371296D01*
X11031396Y-16371296D02*
X11050444Y-16342725D01*
X11050444Y-16342725D02*
X11059968Y-16304629D01*
X11059968Y-16304629D02*
X11059968Y-16228439D01*
X11059968Y-16228439D02*
X11050444Y-16209391D01*
X11050444Y-16209391D02*
X11040920Y-16199868D01*
X11040920Y-16199868D02*
X11021872Y-16190344D01*
X11021872Y-16190344D02*
X10983777Y-16190344D01*
X10983777Y-16190344D02*
X10964729Y-16199868D01*
X10964729Y-16199868D02*
X10955206Y-16209391D01*
X10955206Y-16209391D02*
X10945682Y-16228439D01*
X10945682Y-16228439D02*
X10945682Y-16276058D01*
X10945682Y-16276058D02*
X10955206Y-16295106D01*
X10955206Y-16295106D02*
X10964729Y-16304629D01*
X10964729Y-16304629D02*
X10983777Y-16314153D01*
X10983777Y-16314153D02*
X11021872Y-16314153D01*
X11021872Y-16314153D02*
X11040920Y-16304629D01*
X11040920Y-16304629D02*
X11050444Y-16295106D01*
X11050444Y-16295106D02*
X11059968Y-16276058D01*
X11240920Y-16190344D02*
X11145682Y-16190344D01*
X11145682Y-16190344D02*
X11136158Y-16285582D01*
X11136158Y-16285582D02*
X11145682Y-16276058D01*
X11145682Y-16276058D02*
X11164729Y-16266534D01*
X11164729Y-16266534D02*
X11212348Y-16266534D01*
X11212348Y-16266534D02*
X11231396Y-16276058D01*
X11231396Y-16276058D02*
X11240920Y-16285582D01*
X11240920Y-16285582D02*
X11250444Y-16304629D01*
X11250444Y-16304629D02*
X11250444Y-16352248D01*
X11250444Y-16352248D02*
X11240920Y-16371296D01*
X11240920Y-16371296D02*
X11231396Y-16380820D01*
X11231396Y-16380820D02*
X11212348Y-16390344D01*
X11212348Y-16390344D02*
X11164729Y-16390344D01*
X11164729Y-16390344D02*
X11145682Y-16380820D01*
X11145682Y-16380820D02*
X11136158Y-16371296D01*
X11326634Y-16190344D02*
X11326634Y-16228439D01*
X11402825Y-16190344D02*
X11402825Y-16228439D01*
X11698063Y-16466534D02*
X11688539Y-16457010D01*
X11688539Y-16457010D02*
X11669491Y-16428439D01*
X11669491Y-16428439D02*
X11659968Y-16409391D01*
X11659968Y-16409391D02*
X11650444Y-16380820D01*
X11650444Y-16380820D02*
X11640920Y-16333201D01*
X11640920Y-16333201D02*
X11640920Y-16295106D01*
X11640920Y-16295106D02*
X11650444Y-16247487D01*
X11650444Y-16247487D02*
X11659968Y-16218915D01*
X11659968Y-16218915D02*
X11669491Y-16199868D01*
X11669491Y-16199868D02*
X11688539Y-16171296D01*
X11688539Y-16171296D02*
X11698063Y-16161772D01*
X11755206Y-16190344D02*
X11879015Y-16190344D01*
X11879015Y-16190344D02*
X11812348Y-16266534D01*
X11812348Y-16266534D02*
X11840920Y-16266534D01*
X11840920Y-16266534D02*
X11859968Y-16276058D01*
X11859968Y-16276058D02*
X11869491Y-16285582D01*
X11869491Y-16285582D02*
X11879015Y-16304629D01*
X11879015Y-16304629D02*
X11879015Y-16352248D01*
X11879015Y-16352248D02*
X11869491Y-16371296D01*
X11869491Y-16371296D02*
X11859968Y-16380820D01*
X11859968Y-16380820D02*
X11840920Y-16390344D01*
X11840920Y-16390344D02*
X11783777Y-16390344D01*
X11783777Y-16390344D02*
X11764729Y-16380820D01*
X11764729Y-16380820D02*
X11755206Y-16371296D01*
X12117110Y-16390344D02*
X12117110Y-16190344D01*
X12202825Y-16390344D02*
X12202825Y-16285582D01*
X12202825Y-16285582D02*
X12193301Y-16266534D01*
X12193301Y-16266534D02*
X12174253Y-16257010D01*
X12174253Y-16257010D02*
X12145682Y-16257010D01*
X12145682Y-16257010D02*
X12126634Y-16266534D01*
X12126634Y-16266534D02*
X12117110Y-16276058D01*
X12326634Y-16390344D02*
X12307587Y-16380820D01*
X12307587Y-16380820D02*
X12298063Y-16371296D01*
X12298063Y-16371296D02*
X12288539Y-16352248D01*
X12288539Y-16352248D02*
X12288539Y-16295106D01*
X12288539Y-16295106D02*
X12298063Y-16276058D01*
X12298063Y-16276058D02*
X12307587Y-16266534D01*
X12307587Y-16266534D02*
X12326634Y-16257010D01*
X12326634Y-16257010D02*
X12355206Y-16257010D01*
X12355206Y-16257010D02*
X12374253Y-16266534D01*
X12374253Y-16266534D02*
X12383777Y-16276058D01*
X12383777Y-16276058D02*
X12393301Y-16295106D01*
X12393301Y-16295106D02*
X12393301Y-16352248D01*
X12393301Y-16352248D02*
X12383777Y-16371296D01*
X12383777Y-16371296D02*
X12374253Y-16380820D01*
X12374253Y-16380820D02*
X12355206Y-16390344D01*
X12355206Y-16390344D02*
X12326634Y-16390344D01*
X12507587Y-16390344D02*
X12488539Y-16380820D01*
X12488539Y-16380820D02*
X12479015Y-16361772D01*
X12479015Y-16361772D02*
X12479015Y-16190344D01*
X12659968Y-16380820D02*
X12640920Y-16390344D01*
X12640920Y-16390344D02*
X12602825Y-16390344D01*
X12602825Y-16390344D02*
X12583777Y-16380820D01*
X12583777Y-16380820D02*
X12574253Y-16361772D01*
X12574253Y-16361772D02*
X12574253Y-16285582D01*
X12574253Y-16285582D02*
X12583777Y-16266534D01*
X12583777Y-16266534D02*
X12602825Y-16257010D01*
X12602825Y-16257010D02*
X12640920Y-16257010D01*
X12640920Y-16257010D02*
X12659968Y-16266534D01*
X12659968Y-16266534D02*
X12669491Y-16285582D01*
X12669491Y-16285582D02*
X12669491Y-16304629D01*
X12669491Y-16304629D02*
X12574253Y-16323677D01*
X12745682Y-16380820D02*
X12764730Y-16390344D01*
X12764730Y-16390344D02*
X12802825Y-16390344D01*
X12802825Y-16390344D02*
X12821872Y-16380820D01*
X12821872Y-16380820D02*
X12831396Y-16361772D01*
X12831396Y-16361772D02*
X12831396Y-16352248D01*
X12831396Y-16352248D02*
X12821872Y-16333201D01*
X12821872Y-16333201D02*
X12802825Y-16323677D01*
X12802825Y-16323677D02*
X12774253Y-16323677D01*
X12774253Y-16323677D02*
X12755206Y-16314153D01*
X12755206Y-16314153D02*
X12745682Y-16295106D01*
X12745682Y-16295106D02*
X12745682Y-16285582D01*
X12745682Y-16285582D02*
X12755206Y-16266534D01*
X12755206Y-16266534D02*
X12774253Y-16257010D01*
X12774253Y-16257010D02*
X12802825Y-16257010D01*
X12802825Y-16257010D02*
X12821872Y-16266534D01*
X12898063Y-16466534D02*
X12907587Y-16457010D01*
X12907587Y-16457010D02*
X12926634Y-16428439D01*
X12926634Y-16428439D02*
X12936158Y-16409391D01*
X12936158Y-16409391D02*
X12945682Y-16380820D01*
X12945682Y-16380820D02*
X12955206Y-16333201D01*
X12955206Y-16333201D02*
X12955206Y-16295106D01*
X12955206Y-16295106D02*
X12945682Y-16247487D01*
X12945682Y-16247487D02*
X12936158Y-16218915D01*
X12936158Y-16218915D02*
X12926634Y-16199868D01*
X12926634Y-16199868D02*
X12907587Y-16171296D01*
X12907587Y-16171296D02*
X12898063Y-16161772D01*
D10*
X8083000Y-16522860D02*
X8083000Y-16602860D01*
X8043000Y-16562860D02*
X8123000Y-16562860D01*
D11*
X8421872Y-16454344D02*
X8440920Y-16454344D01*
X8440920Y-16454344D02*
X8459967Y-16463868D01*
X8459967Y-16463868D02*
X8469491Y-16473391D01*
X8469491Y-16473391D02*
X8479015Y-16492439D01*
X8479015Y-16492439D02*
X8488539Y-16530534D01*
X8488539Y-16530534D02*
X8488539Y-16578153D01*
X8488539Y-16578153D02*
X8479015Y-16616248D01*
X8479015Y-16616248D02*
X8469491Y-16635296D01*
X8469491Y-16635296D02*
X8459967Y-16644820D01*
X8459967Y-16644820D02*
X8440920Y-16654344D01*
X8440920Y-16654344D02*
X8421872Y-16654344D01*
X8421872Y-16654344D02*
X8402824Y-16644820D01*
X8402824Y-16644820D02*
X8393301Y-16635296D01*
X8393301Y-16635296D02*
X8383777Y-16616248D01*
X8383777Y-16616248D02*
X8374253Y-16578153D01*
X8374253Y-16578153D02*
X8374253Y-16530534D01*
X8374253Y-16530534D02*
X8383777Y-16492439D01*
X8383777Y-16492439D02*
X8393301Y-16473391D01*
X8393301Y-16473391D02*
X8402824Y-16463868D01*
X8402824Y-16463868D02*
X8421872Y-16454344D01*
X8574253Y-16635296D02*
X8583777Y-16644820D01*
X8583777Y-16644820D02*
X8574253Y-16654344D01*
X8574253Y-16654344D02*
X8564729Y-16644820D01*
X8564729Y-16644820D02*
X8574253Y-16635296D01*
X8574253Y-16635296D02*
X8574253Y-16654344D01*
X8698063Y-16540058D02*
X8679015Y-16530534D01*
X8679015Y-16530534D02*
X8669491Y-16521010D01*
X8669491Y-16521010D02*
X8659967Y-16501963D01*
X8659967Y-16501963D02*
X8659967Y-16492439D01*
X8659967Y-16492439D02*
X8669491Y-16473391D01*
X8669491Y-16473391D02*
X8679015Y-16463868D01*
X8679015Y-16463868D02*
X8698063Y-16454344D01*
X8698063Y-16454344D02*
X8736158Y-16454344D01*
X8736158Y-16454344D02*
X8755205Y-16463868D01*
X8755205Y-16463868D02*
X8764729Y-16473391D01*
X8764729Y-16473391D02*
X8774253Y-16492439D01*
X8774253Y-16492439D02*
X8774253Y-16501963D01*
X8774253Y-16501963D02*
X8764729Y-16521010D01*
X8764729Y-16521010D02*
X8755205Y-16530534D01*
X8755205Y-16530534D02*
X8736158Y-16540058D01*
X8736158Y-16540058D02*
X8698063Y-16540058D01*
X8698063Y-16540058D02*
X8679015Y-16549582D01*
X8679015Y-16549582D02*
X8669491Y-16559106D01*
X8669491Y-16559106D02*
X8659967Y-16578153D01*
X8659967Y-16578153D02*
X8659967Y-16616248D01*
X8659967Y-16616248D02*
X8669491Y-16635296D01*
X8669491Y-16635296D02*
X8679015Y-16644820D01*
X8679015Y-16644820D02*
X8698063Y-16654344D01*
X8698063Y-16654344D02*
X8736158Y-16654344D01*
X8736158Y-16654344D02*
X8755205Y-16644820D01*
X8755205Y-16644820D02*
X8764729Y-16635296D01*
X8764729Y-16635296D02*
X8774253Y-16616248D01*
X8774253Y-16616248D02*
X8774253Y-16578153D01*
X8774253Y-16578153D02*
X8764729Y-16559106D01*
X8764729Y-16559106D02*
X8755205Y-16549582D01*
X8755205Y-16549582D02*
X8736158Y-16540058D01*
X8898063Y-16454344D02*
X8917110Y-16454344D01*
X8917110Y-16454344D02*
X8936158Y-16463868D01*
X8936158Y-16463868D02*
X8945682Y-16473391D01*
X8945682Y-16473391D02*
X8955205Y-16492439D01*
X8955205Y-16492439D02*
X8964729Y-16530534D01*
X8964729Y-16530534D02*
X8964729Y-16578153D01*
X8964729Y-16578153D02*
X8955205Y-16616248D01*
X8955205Y-16616248D02*
X8945682Y-16635296D01*
X8945682Y-16635296D02*
X8936158Y-16644820D01*
X8936158Y-16644820D02*
X8917110Y-16654344D01*
X8917110Y-16654344D02*
X8898063Y-16654344D01*
X8898063Y-16654344D02*
X8879015Y-16644820D01*
X8879015Y-16644820D02*
X8869491Y-16635296D01*
X8869491Y-16635296D02*
X8859967Y-16616248D01*
X8859967Y-16616248D02*
X8850444Y-16578153D01*
X8850444Y-16578153D02*
X8850444Y-16530534D01*
X8850444Y-16530534D02*
X8859967Y-16492439D01*
X8859967Y-16492439D02*
X8869491Y-16473391D01*
X8869491Y-16473391D02*
X8879015Y-16463868D01*
X8879015Y-16463868D02*
X8898063Y-16454344D01*
X9088539Y-16454344D02*
X9107586Y-16454344D01*
X9107586Y-16454344D02*
X9126634Y-16463868D01*
X9126634Y-16463868D02*
X9136158Y-16473391D01*
X9136158Y-16473391D02*
X9145682Y-16492439D01*
X9145682Y-16492439D02*
X9155205Y-16530534D01*
X9155205Y-16530534D02*
X9155205Y-16578153D01*
X9155205Y-16578153D02*
X9145682Y-16616248D01*
X9145682Y-16616248D02*
X9136158Y-16635296D01*
X9136158Y-16635296D02*
X9126634Y-16644820D01*
X9126634Y-16644820D02*
X9107586Y-16654344D01*
X9107586Y-16654344D02*
X9088539Y-16654344D01*
X9088539Y-16654344D02*
X9069491Y-16644820D01*
X9069491Y-16644820D02*
X9059967Y-16635296D01*
X9059967Y-16635296D02*
X9050444Y-16616248D01*
X9050444Y-16616248D02*
X9040920Y-16578153D01*
X9040920Y-16578153D02*
X9040920Y-16530534D01*
X9040920Y-16530534D02*
X9050444Y-16492439D01*
X9050444Y-16492439D02*
X9059967Y-16473391D01*
X9059967Y-16473391D02*
X9069491Y-16463868D01*
X9069491Y-16463868D02*
X9088539Y-16454344D01*
X9240920Y-16654344D02*
X9240920Y-16521010D01*
X9240920Y-16540058D02*
X9250444Y-16530534D01*
X9250444Y-16530534D02*
X9269491Y-16521010D01*
X9269491Y-16521010D02*
X9298063Y-16521010D01*
X9298063Y-16521010D02*
X9317110Y-16530534D01*
X9317110Y-16530534D02*
X9326634Y-16549582D01*
X9326634Y-16549582D02*
X9326634Y-16654344D01*
X9326634Y-16549582D02*
X9336158Y-16530534D01*
X9336158Y-16530534D02*
X9355205Y-16521010D01*
X9355205Y-16521010D02*
X9383777Y-16521010D01*
X9383777Y-16521010D02*
X9402825Y-16530534D01*
X9402825Y-16530534D02*
X9412348Y-16549582D01*
X9412348Y-16549582D02*
X9412348Y-16654344D01*
X9507586Y-16654344D02*
X9507586Y-16521010D01*
X9507586Y-16540058D02*
X9517110Y-16530534D01*
X9517110Y-16530534D02*
X9536158Y-16521010D01*
X9536158Y-16521010D02*
X9564729Y-16521010D01*
X9564729Y-16521010D02*
X9583777Y-16530534D01*
X9583777Y-16530534D02*
X9593301Y-16549582D01*
X9593301Y-16549582D02*
X9593301Y-16654344D01*
X9593301Y-16549582D02*
X9602825Y-16530534D01*
X9602825Y-16530534D02*
X9621872Y-16521010D01*
X9621872Y-16521010D02*
X9650444Y-16521010D01*
X9650444Y-16521010D02*
X9669491Y-16530534D01*
X9669491Y-16530534D02*
X9679015Y-16549582D01*
X9679015Y-16549582D02*
X9679015Y-16654344D01*
X10069491Y-16444820D02*
X9898063Y-16701963D01*
X10326634Y-16454344D02*
X10345682Y-16454344D01*
X10345682Y-16454344D02*
X10364729Y-16463868D01*
X10364729Y-16463868D02*
X10374253Y-16473391D01*
X10374253Y-16473391D02*
X10383777Y-16492439D01*
X10383777Y-16492439D02*
X10393301Y-16530534D01*
X10393301Y-16530534D02*
X10393301Y-16578153D01*
X10393301Y-16578153D02*
X10383777Y-16616248D01*
X10383777Y-16616248D02*
X10374253Y-16635296D01*
X10374253Y-16635296D02*
X10364729Y-16644820D01*
X10364729Y-16644820D02*
X10345682Y-16654344D01*
X10345682Y-16654344D02*
X10326634Y-16654344D01*
X10326634Y-16654344D02*
X10307587Y-16644820D01*
X10307587Y-16644820D02*
X10298063Y-16635296D01*
X10298063Y-16635296D02*
X10288539Y-16616248D01*
X10288539Y-16616248D02*
X10279015Y-16578153D01*
X10279015Y-16578153D02*
X10279015Y-16530534D01*
X10279015Y-16530534D02*
X10288539Y-16492439D01*
X10288539Y-16492439D02*
X10298063Y-16473391D01*
X10298063Y-16473391D02*
X10307587Y-16463868D01*
X10307587Y-16463868D02*
X10326634Y-16454344D01*
X10479015Y-16635296D02*
X10488539Y-16644820D01*
X10488539Y-16644820D02*
X10479015Y-16654344D01*
X10479015Y-16654344D02*
X10469491Y-16644820D01*
X10469491Y-16644820D02*
X10479015Y-16635296D01*
X10479015Y-16635296D02*
X10479015Y-16654344D01*
X10612348Y-16454344D02*
X10631396Y-16454344D01*
X10631396Y-16454344D02*
X10650444Y-16463868D01*
X10650444Y-16463868D02*
X10659968Y-16473391D01*
X10659968Y-16473391D02*
X10669491Y-16492439D01*
X10669491Y-16492439D02*
X10679015Y-16530534D01*
X10679015Y-16530534D02*
X10679015Y-16578153D01*
X10679015Y-16578153D02*
X10669491Y-16616248D01*
X10669491Y-16616248D02*
X10659968Y-16635296D01*
X10659968Y-16635296D02*
X10650444Y-16644820D01*
X10650444Y-16644820D02*
X10631396Y-16654344D01*
X10631396Y-16654344D02*
X10612348Y-16654344D01*
X10612348Y-16654344D02*
X10593301Y-16644820D01*
X10593301Y-16644820D02*
X10583777Y-16635296D01*
X10583777Y-16635296D02*
X10574253Y-16616248D01*
X10574253Y-16616248D02*
X10564729Y-16578153D01*
X10564729Y-16578153D02*
X10564729Y-16530534D01*
X10564729Y-16530534D02*
X10574253Y-16492439D01*
X10574253Y-16492439D02*
X10583777Y-16473391D01*
X10583777Y-16473391D02*
X10593301Y-16463868D01*
X10593301Y-16463868D02*
X10612348Y-16454344D01*
X10745682Y-16454344D02*
X10869491Y-16454344D01*
X10869491Y-16454344D02*
X10802825Y-16530534D01*
X10802825Y-16530534D02*
X10831396Y-16530534D01*
X10831396Y-16530534D02*
X10850444Y-16540058D01*
X10850444Y-16540058D02*
X10859968Y-16549582D01*
X10859968Y-16549582D02*
X10869491Y-16568629D01*
X10869491Y-16568629D02*
X10869491Y-16616248D01*
X10869491Y-16616248D02*
X10859968Y-16635296D01*
X10859968Y-16635296D02*
X10850444Y-16644820D01*
X10850444Y-16644820D02*
X10831396Y-16654344D01*
X10831396Y-16654344D02*
X10774253Y-16654344D01*
X10774253Y-16654344D02*
X10755206Y-16644820D01*
X10755206Y-16644820D02*
X10745682Y-16635296D01*
X11059968Y-16654344D02*
X10945682Y-16654344D01*
X11002825Y-16654344D02*
X11002825Y-16454344D01*
X11002825Y-16454344D02*
X10983777Y-16482915D01*
X10983777Y-16482915D02*
X10964729Y-16501963D01*
X10964729Y-16501963D02*
X10945682Y-16511487D01*
X11240920Y-16454344D02*
X11145682Y-16454344D01*
X11145682Y-16454344D02*
X11136158Y-16549582D01*
X11136158Y-16549582D02*
X11145682Y-16540058D01*
X11145682Y-16540058D02*
X11164729Y-16530534D01*
X11164729Y-16530534D02*
X11212348Y-16530534D01*
X11212348Y-16530534D02*
X11231396Y-16540058D01*
X11231396Y-16540058D02*
X11240920Y-16549582D01*
X11240920Y-16549582D02*
X11250444Y-16568629D01*
X11250444Y-16568629D02*
X11250444Y-16616248D01*
X11250444Y-16616248D02*
X11240920Y-16635296D01*
X11240920Y-16635296D02*
X11231396Y-16644820D01*
X11231396Y-16644820D02*
X11212348Y-16654344D01*
X11212348Y-16654344D02*
X11164729Y-16654344D01*
X11164729Y-16654344D02*
X11145682Y-16644820D01*
X11145682Y-16644820D02*
X11136158Y-16635296D01*
X11326634Y-16454344D02*
X11326634Y-16492439D01*
X11402825Y-16454344D02*
X11402825Y-16492439D01*
X11698063Y-16730534D02*
X11688539Y-16721010D01*
X11688539Y-16721010D02*
X11669491Y-16692439D01*
X11669491Y-16692439D02*
X11659968Y-16673391D01*
X11659968Y-16673391D02*
X11650444Y-16644820D01*
X11650444Y-16644820D02*
X11640920Y-16597201D01*
X11640920Y-16597201D02*
X11640920Y-16559106D01*
X11640920Y-16559106D02*
X11650444Y-16511487D01*
X11650444Y-16511487D02*
X11659968Y-16482915D01*
X11659968Y-16482915D02*
X11669491Y-16463868D01*
X11669491Y-16463868D02*
X11688539Y-16435296D01*
X11688539Y-16435296D02*
X11698063Y-16425772D01*
X11879015Y-16654344D02*
X11764729Y-16654344D01*
X11821872Y-16654344D02*
X11821872Y-16454344D01*
X11821872Y-16454344D02*
X11802825Y-16482915D01*
X11802825Y-16482915D02*
X11783777Y-16501963D01*
X11783777Y-16501963D02*
X11764729Y-16511487D01*
X12050444Y-16521010D02*
X12050444Y-16654344D01*
X12002825Y-16444820D02*
X11955206Y-16587677D01*
X11955206Y-16587677D02*
X12079015Y-16587677D01*
X12183777Y-16540058D02*
X12164729Y-16530534D01*
X12164729Y-16530534D02*
X12155206Y-16521010D01*
X12155206Y-16521010D02*
X12145682Y-16501963D01*
X12145682Y-16501963D02*
X12145682Y-16492439D01*
X12145682Y-16492439D02*
X12155206Y-16473391D01*
X12155206Y-16473391D02*
X12164729Y-16463868D01*
X12164729Y-16463868D02*
X12183777Y-16454344D01*
X12183777Y-16454344D02*
X12221872Y-16454344D01*
X12221872Y-16454344D02*
X12240920Y-16463868D01*
X12240920Y-16463868D02*
X12250444Y-16473391D01*
X12250444Y-16473391D02*
X12259968Y-16492439D01*
X12259968Y-16492439D02*
X12259968Y-16501963D01*
X12259968Y-16501963D02*
X12250444Y-16521010D01*
X12250444Y-16521010D02*
X12240920Y-16530534D01*
X12240920Y-16530534D02*
X12221872Y-16540058D01*
X12221872Y-16540058D02*
X12183777Y-16540058D01*
X12183777Y-16540058D02*
X12164729Y-16549582D01*
X12164729Y-16549582D02*
X12155206Y-16559106D01*
X12155206Y-16559106D02*
X12145682Y-16578153D01*
X12145682Y-16578153D02*
X12145682Y-16616248D01*
X12145682Y-16616248D02*
X12155206Y-16635296D01*
X12155206Y-16635296D02*
X12164729Y-16644820D01*
X12164729Y-16644820D02*
X12183777Y-16654344D01*
X12183777Y-16654344D02*
X12221872Y-16654344D01*
X12221872Y-16654344D02*
X12240920Y-16644820D01*
X12240920Y-16644820D02*
X12250444Y-16635296D01*
X12250444Y-16635296D02*
X12259968Y-16616248D01*
X12259968Y-16616248D02*
X12259968Y-16578153D01*
X12259968Y-16578153D02*
X12250444Y-16559106D01*
X12250444Y-16559106D02*
X12240920Y-16549582D01*
X12240920Y-16549582D02*
X12221872Y-16540058D01*
X12498063Y-16654344D02*
X12498063Y-16454344D01*
X12583777Y-16654344D02*
X12583777Y-16549582D01*
X12583777Y-16549582D02*
X12574253Y-16530534D01*
X12574253Y-16530534D02*
X12555206Y-16521010D01*
X12555206Y-16521010D02*
X12526634Y-16521010D01*
X12526634Y-16521010D02*
X12507587Y-16530534D01*
X12507587Y-16530534D02*
X12498063Y-16540058D01*
X12707587Y-16654344D02*
X12688539Y-16644820D01*
X12688539Y-16644820D02*
X12679015Y-16635296D01*
X12679015Y-16635296D02*
X12669491Y-16616248D01*
X12669491Y-16616248D02*
X12669491Y-16559106D01*
X12669491Y-16559106D02*
X12679015Y-16540058D01*
X12679015Y-16540058D02*
X12688539Y-16530534D01*
X12688539Y-16530534D02*
X12707587Y-16521010D01*
X12707587Y-16521010D02*
X12736158Y-16521010D01*
X12736158Y-16521010D02*
X12755206Y-16530534D01*
X12755206Y-16530534D02*
X12764730Y-16540058D01*
X12764730Y-16540058D02*
X12774253Y-16559106D01*
X12774253Y-16559106D02*
X12774253Y-16616248D01*
X12774253Y-16616248D02*
X12764730Y-16635296D01*
X12764730Y-16635296D02*
X12755206Y-16644820D01*
X12755206Y-16644820D02*
X12736158Y-16654344D01*
X12736158Y-16654344D02*
X12707587Y-16654344D01*
X12888539Y-16654344D02*
X12869491Y-16644820D01*
X12869491Y-16644820D02*
X12859968Y-16625772D01*
X12859968Y-16625772D02*
X12859968Y-16454344D01*
X13040920Y-16644820D02*
X13021872Y-16654344D01*
X13021872Y-16654344D02*
X12983777Y-16654344D01*
X12983777Y-16654344D02*
X12964730Y-16644820D01*
X12964730Y-16644820D02*
X12955206Y-16625772D01*
X12955206Y-16625772D02*
X12955206Y-16549582D01*
X12955206Y-16549582D02*
X12964730Y-16530534D01*
X12964730Y-16530534D02*
X12983777Y-16521010D01*
X12983777Y-16521010D02*
X13021872Y-16521010D01*
X13021872Y-16521010D02*
X13040920Y-16530534D01*
X13040920Y-16530534D02*
X13050444Y-16549582D01*
X13050444Y-16549582D02*
X13050444Y-16568629D01*
X13050444Y-16568629D02*
X12955206Y-16587677D01*
X13126634Y-16644820D02*
X13145682Y-16654344D01*
X13145682Y-16654344D02*
X13183777Y-16654344D01*
X13183777Y-16654344D02*
X13202825Y-16644820D01*
X13202825Y-16644820D02*
X13212349Y-16625772D01*
X13212349Y-16625772D02*
X13212349Y-16616248D01*
X13212349Y-16616248D02*
X13202825Y-16597201D01*
X13202825Y-16597201D02*
X13183777Y-16587677D01*
X13183777Y-16587677D02*
X13155206Y-16587677D01*
X13155206Y-16587677D02*
X13136158Y-16578153D01*
X13136158Y-16578153D02*
X13126634Y-16559106D01*
X13126634Y-16559106D02*
X13126634Y-16549582D01*
X13126634Y-16549582D02*
X13136158Y-16530534D01*
X13136158Y-16530534D02*
X13155206Y-16521010D01*
X13155206Y-16521010D02*
X13183777Y-16521010D01*
X13183777Y-16521010D02*
X13202825Y-16530534D01*
X13279015Y-16730534D02*
X13288539Y-16721010D01*
X13288539Y-16721010D02*
X13307587Y-16692439D01*
X13307587Y-16692439D02*
X13317111Y-16673391D01*
X13317111Y-16673391D02*
X13326634Y-16644820D01*
X13326634Y-16644820D02*
X13336158Y-16597201D01*
X13336158Y-16597201D02*
X13336158Y-16559106D01*
X13336158Y-16559106D02*
X13326634Y-16511487D01*
X13326634Y-16511487D02*
X13317111Y-16482915D01*
X13317111Y-16482915D02*
X13307587Y-16463868D01*
X13307587Y-16463868D02*
X13288539Y-16435296D01*
X13288539Y-16435296D02*
X13279015Y-16425772D01*
D10*
X8109820Y-16858680D02*
X8109820Y-16795040D01*
X8046180Y-16795040D01*
X8046180Y-16858680D01*
X8109820Y-16858680D01*
D11*
X8421872Y-16718344D02*
X8440920Y-16718344D01*
X8440920Y-16718344D02*
X8459967Y-16727868D01*
X8459967Y-16727868D02*
X8469491Y-16737391D01*
X8469491Y-16737391D02*
X8479015Y-16756439D01*
X8479015Y-16756439D02*
X8488539Y-16794534D01*
X8488539Y-16794534D02*
X8488539Y-16842153D01*
X8488539Y-16842153D02*
X8479015Y-16880249D01*
X8479015Y-16880249D02*
X8469491Y-16899296D01*
X8469491Y-16899296D02*
X8459967Y-16908820D01*
X8459967Y-16908820D02*
X8440920Y-16918344D01*
X8440920Y-16918344D02*
X8421872Y-16918344D01*
X8421872Y-16918344D02*
X8402824Y-16908820D01*
X8402824Y-16908820D02*
X8393301Y-16899296D01*
X8393301Y-16899296D02*
X8383777Y-16880249D01*
X8383777Y-16880249D02*
X8374253Y-16842153D01*
X8374253Y-16842153D02*
X8374253Y-16794534D01*
X8374253Y-16794534D02*
X8383777Y-16756439D01*
X8383777Y-16756439D02*
X8393301Y-16737391D01*
X8393301Y-16737391D02*
X8402824Y-16727868D01*
X8402824Y-16727868D02*
X8421872Y-16718344D01*
X8574253Y-16899296D02*
X8583777Y-16908820D01*
X8583777Y-16908820D02*
X8574253Y-16918344D01*
X8574253Y-16918344D02*
X8564729Y-16908820D01*
X8564729Y-16908820D02*
X8574253Y-16899296D01*
X8574253Y-16899296D02*
X8574253Y-16918344D01*
X8679015Y-16918344D02*
X8717110Y-16918344D01*
X8717110Y-16918344D02*
X8736158Y-16908820D01*
X8736158Y-16908820D02*
X8745682Y-16899296D01*
X8745682Y-16899296D02*
X8764729Y-16870725D01*
X8764729Y-16870725D02*
X8774253Y-16832630D01*
X8774253Y-16832630D02*
X8774253Y-16756439D01*
X8774253Y-16756439D02*
X8764729Y-16737391D01*
X8764729Y-16737391D02*
X8755205Y-16727868D01*
X8755205Y-16727868D02*
X8736158Y-16718344D01*
X8736158Y-16718344D02*
X8698063Y-16718344D01*
X8698063Y-16718344D02*
X8679015Y-16727868D01*
X8679015Y-16727868D02*
X8669491Y-16737391D01*
X8669491Y-16737391D02*
X8659967Y-16756439D01*
X8659967Y-16756439D02*
X8659967Y-16804058D01*
X8659967Y-16804058D02*
X8669491Y-16823106D01*
X8669491Y-16823106D02*
X8679015Y-16832630D01*
X8679015Y-16832630D02*
X8698063Y-16842153D01*
X8698063Y-16842153D02*
X8736158Y-16842153D01*
X8736158Y-16842153D02*
X8755205Y-16832630D01*
X8755205Y-16832630D02*
X8764729Y-16823106D01*
X8764729Y-16823106D02*
X8774253Y-16804058D01*
X8898063Y-16718344D02*
X8917110Y-16718344D01*
X8917110Y-16718344D02*
X8936158Y-16727868D01*
X8936158Y-16727868D02*
X8945682Y-16737391D01*
X8945682Y-16737391D02*
X8955205Y-16756439D01*
X8955205Y-16756439D02*
X8964729Y-16794534D01*
X8964729Y-16794534D02*
X8964729Y-16842153D01*
X8964729Y-16842153D02*
X8955205Y-16880249D01*
X8955205Y-16880249D02*
X8945682Y-16899296D01*
X8945682Y-16899296D02*
X8936158Y-16908820D01*
X8936158Y-16908820D02*
X8917110Y-16918344D01*
X8917110Y-16918344D02*
X8898063Y-16918344D01*
X8898063Y-16918344D02*
X8879015Y-16908820D01*
X8879015Y-16908820D02*
X8869491Y-16899296D01*
X8869491Y-16899296D02*
X8859967Y-16880249D01*
X8859967Y-16880249D02*
X8850444Y-16842153D01*
X8850444Y-16842153D02*
X8850444Y-16794534D01*
X8850444Y-16794534D02*
X8859967Y-16756439D01*
X8859967Y-16756439D02*
X8869491Y-16737391D01*
X8869491Y-16737391D02*
X8879015Y-16727868D01*
X8879015Y-16727868D02*
X8898063Y-16718344D01*
X9088539Y-16718344D02*
X9107586Y-16718344D01*
X9107586Y-16718344D02*
X9126634Y-16727868D01*
X9126634Y-16727868D02*
X9136158Y-16737391D01*
X9136158Y-16737391D02*
X9145682Y-16756439D01*
X9145682Y-16756439D02*
X9155205Y-16794534D01*
X9155205Y-16794534D02*
X9155205Y-16842153D01*
X9155205Y-16842153D02*
X9145682Y-16880249D01*
X9145682Y-16880249D02*
X9136158Y-16899296D01*
X9136158Y-16899296D02*
X9126634Y-16908820D01*
X9126634Y-16908820D02*
X9107586Y-16918344D01*
X9107586Y-16918344D02*
X9088539Y-16918344D01*
X9088539Y-16918344D02*
X9069491Y-16908820D01*
X9069491Y-16908820D02*
X9059967Y-16899296D01*
X9059967Y-16899296D02*
X9050444Y-16880249D01*
X9050444Y-16880249D02*
X9040920Y-16842153D01*
X9040920Y-16842153D02*
X9040920Y-16794534D01*
X9040920Y-16794534D02*
X9050444Y-16756439D01*
X9050444Y-16756439D02*
X9059967Y-16737391D01*
X9059967Y-16737391D02*
X9069491Y-16727868D01*
X9069491Y-16727868D02*
X9088539Y-16718344D01*
X9240920Y-16918344D02*
X9240920Y-16785010D01*
X9240920Y-16804058D02*
X9250444Y-16794534D01*
X9250444Y-16794534D02*
X9269491Y-16785010D01*
X9269491Y-16785010D02*
X9298063Y-16785010D01*
X9298063Y-16785010D02*
X9317110Y-16794534D01*
X9317110Y-16794534D02*
X9326634Y-16813582D01*
X9326634Y-16813582D02*
X9326634Y-16918344D01*
X9326634Y-16813582D02*
X9336158Y-16794534D01*
X9336158Y-16794534D02*
X9355205Y-16785010D01*
X9355205Y-16785010D02*
X9383777Y-16785010D01*
X9383777Y-16785010D02*
X9402825Y-16794534D01*
X9402825Y-16794534D02*
X9412348Y-16813582D01*
X9412348Y-16813582D02*
X9412348Y-16918344D01*
X9507586Y-16918344D02*
X9507586Y-16785010D01*
X9507586Y-16804058D02*
X9517110Y-16794534D01*
X9517110Y-16794534D02*
X9536158Y-16785010D01*
X9536158Y-16785010D02*
X9564729Y-16785010D01*
X9564729Y-16785010D02*
X9583777Y-16794534D01*
X9583777Y-16794534D02*
X9593301Y-16813582D01*
X9593301Y-16813582D02*
X9593301Y-16918344D01*
X9593301Y-16813582D02*
X9602825Y-16794534D01*
X9602825Y-16794534D02*
X9621872Y-16785010D01*
X9621872Y-16785010D02*
X9650444Y-16785010D01*
X9650444Y-16785010D02*
X9669491Y-16794534D01*
X9669491Y-16794534D02*
X9679015Y-16813582D01*
X9679015Y-16813582D02*
X9679015Y-16918344D01*
X10069491Y-16708820D02*
X9898063Y-16965963D01*
X10326634Y-16718344D02*
X10345682Y-16718344D01*
X10345682Y-16718344D02*
X10364729Y-16727868D01*
X10364729Y-16727868D02*
X10374253Y-16737391D01*
X10374253Y-16737391D02*
X10383777Y-16756439D01*
X10383777Y-16756439D02*
X10393301Y-16794534D01*
X10393301Y-16794534D02*
X10393301Y-16842153D01*
X10393301Y-16842153D02*
X10383777Y-16880249D01*
X10383777Y-16880249D02*
X10374253Y-16899296D01*
X10374253Y-16899296D02*
X10364729Y-16908820D01*
X10364729Y-16908820D02*
X10345682Y-16918344D01*
X10345682Y-16918344D02*
X10326634Y-16918344D01*
X10326634Y-16918344D02*
X10307587Y-16908820D01*
X10307587Y-16908820D02*
X10298063Y-16899296D01*
X10298063Y-16899296D02*
X10288539Y-16880249D01*
X10288539Y-16880249D02*
X10279015Y-16842153D01*
X10279015Y-16842153D02*
X10279015Y-16794534D01*
X10279015Y-16794534D02*
X10288539Y-16756439D01*
X10288539Y-16756439D02*
X10298063Y-16737391D01*
X10298063Y-16737391D02*
X10307587Y-16727868D01*
X10307587Y-16727868D02*
X10326634Y-16718344D01*
X10479015Y-16899296D02*
X10488539Y-16908820D01*
X10488539Y-16908820D02*
X10479015Y-16918344D01*
X10479015Y-16918344D02*
X10469491Y-16908820D01*
X10469491Y-16908820D02*
X10479015Y-16899296D01*
X10479015Y-16899296D02*
X10479015Y-16918344D01*
X10612348Y-16718344D02*
X10631396Y-16718344D01*
X10631396Y-16718344D02*
X10650444Y-16727868D01*
X10650444Y-16727868D02*
X10659968Y-16737391D01*
X10659968Y-16737391D02*
X10669491Y-16756439D01*
X10669491Y-16756439D02*
X10679015Y-16794534D01*
X10679015Y-16794534D02*
X10679015Y-16842153D01*
X10679015Y-16842153D02*
X10669491Y-16880249D01*
X10669491Y-16880249D02*
X10659968Y-16899296D01*
X10659968Y-16899296D02*
X10650444Y-16908820D01*
X10650444Y-16908820D02*
X10631396Y-16918344D01*
X10631396Y-16918344D02*
X10612348Y-16918344D01*
X10612348Y-16918344D02*
X10593301Y-16908820D01*
X10593301Y-16908820D02*
X10583777Y-16899296D01*
X10583777Y-16899296D02*
X10574253Y-16880249D01*
X10574253Y-16880249D02*
X10564729Y-16842153D01*
X10564729Y-16842153D02*
X10564729Y-16794534D01*
X10564729Y-16794534D02*
X10574253Y-16756439D01*
X10574253Y-16756439D02*
X10583777Y-16737391D01*
X10583777Y-16737391D02*
X10593301Y-16727868D01*
X10593301Y-16727868D02*
X10612348Y-16718344D01*
X10745682Y-16718344D02*
X10869491Y-16718344D01*
X10869491Y-16718344D02*
X10802825Y-16794534D01*
X10802825Y-16794534D02*
X10831396Y-16794534D01*
X10831396Y-16794534D02*
X10850444Y-16804058D01*
X10850444Y-16804058D02*
X10859968Y-16813582D01*
X10859968Y-16813582D02*
X10869491Y-16832630D01*
X10869491Y-16832630D02*
X10869491Y-16880249D01*
X10869491Y-16880249D02*
X10859968Y-16899296D01*
X10859968Y-16899296D02*
X10850444Y-16908820D01*
X10850444Y-16908820D02*
X10831396Y-16918344D01*
X10831396Y-16918344D02*
X10774253Y-16918344D01*
X10774253Y-16918344D02*
X10755206Y-16908820D01*
X10755206Y-16908820D02*
X10745682Y-16899296D01*
X11050444Y-16718344D02*
X10955206Y-16718344D01*
X10955206Y-16718344D02*
X10945682Y-16813582D01*
X10945682Y-16813582D02*
X10955206Y-16804058D01*
X10955206Y-16804058D02*
X10974253Y-16794534D01*
X10974253Y-16794534D02*
X11021872Y-16794534D01*
X11021872Y-16794534D02*
X11040920Y-16804058D01*
X11040920Y-16804058D02*
X11050444Y-16813582D01*
X11050444Y-16813582D02*
X11059968Y-16832630D01*
X11059968Y-16832630D02*
X11059968Y-16880249D01*
X11059968Y-16880249D02*
X11050444Y-16899296D01*
X11050444Y-16899296D02*
X11040920Y-16908820D01*
X11040920Y-16908820D02*
X11021872Y-16918344D01*
X11021872Y-16918344D02*
X10974253Y-16918344D01*
X10974253Y-16918344D02*
X10955206Y-16908820D01*
X10955206Y-16908820D02*
X10945682Y-16899296D01*
X11231396Y-16785010D02*
X11231396Y-16918344D01*
X11183777Y-16708820D02*
X11136158Y-16851677D01*
X11136158Y-16851677D02*
X11259967Y-16851677D01*
X11326634Y-16718344D02*
X11326634Y-16756439D01*
X11402825Y-16718344D02*
X11402825Y-16756439D01*
X11698063Y-16994534D02*
X11688539Y-16985010D01*
X11688539Y-16985010D02*
X11669491Y-16956439D01*
X11669491Y-16956439D02*
X11659968Y-16937391D01*
X11659968Y-16937391D02*
X11650444Y-16908820D01*
X11650444Y-16908820D02*
X11640920Y-16861201D01*
X11640920Y-16861201D02*
X11640920Y-16823106D01*
X11640920Y-16823106D02*
X11650444Y-16775487D01*
X11650444Y-16775487D02*
X11659968Y-16746915D01*
X11659968Y-16746915D02*
X11669491Y-16727868D01*
X11669491Y-16727868D02*
X11688539Y-16699296D01*
X11688539Y-16699296D02*
X11698063Y-16689772D01*
X11764729Y-16737391D02*
X11774253Y-16727868D01*
X11774253Y-16727868D02*
X11793301Y-16718344D01*
X11793301Y-16718344D02*
X11840920Y-16718344D01*
X11840920Y-16718344D02*
X11859968Y-16727868D01*
X11859968Y-16727868D02*
X11869491Y-16737391D01*
X11869491Y-16737391D02*
X11879015Y-16756439D01*
X11879015Y-16756439D02*
X11879015Y-16775487D01*
X11879015Y-16775487D02*
X11869491Y-16804058D01*
X11869491Y-16804058D02*
X11755206Y-16918344D01*
X11755206Y-16918344D02*
X11879015Y-16918344D01*
X12002825Y-16718344D02*
X12021872Y-16718344D01*
X12021872Y-16718344D02*
X12040920Y-16727868D01*
X12040920Y-16727868D02*
X12050444Y-16737391D01*
X12050444Y-16737391D02*
X12059968Y-16756439D01*
X12059968Y-16756439D02*
X12069491Y-16794534D01*
X12069491Y-16794534D02*
X12069491Y-16842153D01*
X12069491Y-16842153D02*
X12059968Y-16880249D01*
X12059968Y-16880249D02*
X12050444Y-16899296D01*
X12050444Y-16899296D02*
X12040920Y-16908820D01*
X12040920Y-16908820D02*
X12021872Y-16918344D01*
X12021872Y-16918344D02*
X12002825Y-16918344D01*
X12002825Y-16918344D02*
X11983777Y-16908820D01*
X11983777Y-16908820D02*
X11974253Y-16899296D01*
X11974253Y-16899296D02*
X11964729Y-16880249D01*
X11964729Y-16880249D02*
X11955206Y-16842153D01*
X11955206Y-16842153D02*
X11955206Y-16794534D01*
X11955206Y-16794534D02*
X11964729Y-16756439D01*
X11964729Y-16756439D02*
X11974253Y-16737391D01*
X11974253Y-16737391D02*
X11983777Y-16727868D01*
X11983777Y-16727868D02*
X12002825Y-16718344D01*
X12307587Y-16918344D02*
X12307587Y-16718344D01*
X12393301Y-16918344D02*
X12393301Y-16813582D01*
X12393301Y-16813582D02*
X12383777Y-16794534D01*
X12383777Y-16794534D02*
X12364730Y-16785010D01*
X12364730Y-16785010D02*
X12336158Y-16785010D01*
X12336158Y-16785010D02*
X12317110Y-16794534D01*
X12317110Y-16794534D02*
X12307587Y-16804058D01*
X12517110Y-16918344D02*
X12498063Y-16908820D01*
X12498063Y-16908820D02*
X12488539Y-16899296D01*
X12488539Y-16899296D02*
X12479015Y-16880249D01*
X12479015Y-16880249D02*
X12479015Y-16823106D01*
X12479015Y-16823106D02*
X12488539Y-16804058D01*
X12488539Y-16804058D02*
X12498063Y-16794534D01*
X12498063Y-16794534D02*
X12517110Y-16785010D01*
X12517110Y-16785010D02*
X12545682Y-16785010D01*
X12545682Y-16785010D02*
X12564730Y-16794534D01*
X12564730Y-16794534D02*
X12574253Y-16804058D01*
X12574253Y-16804058D02*
X12583777Y-16823106D01*
X12583777Y-16823106D02*
X12583777Y-16880249D01*
X12583777Y-16880249D02*
X12574253Y-16899296D01*
X12574253Y-16899296D02*
X12564730Y-16908820D01*
X12564730Y-16908820D02*
X12545682Y-16918344D01*
X12545682Y-16918344D02*
X12517110Y-16918344D01*
X12698063Y-16918344D02*
X12679015Y-16908820D01*
X12679015Y-16908820D02*
X12669491Y-16889772D01*
X12669491Y-16889772D02*
X12669491Y-16718344D01*
X12850444Y-16908820D02*
X12831396Y-16918344D01*
X12831396Y-16918344D02*
X12793301Y-16918344D01*
X12793301Y-16918344D02*
X12774253Y-16908820D01*
X12774253Y-16908820D02*
X12764730Y-16889772D01*
X12764730Y-16889772D02*
X12764730Y-16813582D01*
X12764730Y-16813582D02*
X12774253Y-16794534D01*
X12774253Y-16794534D02*
X12793301Y-16785010D01*
X12793301Y-16785010D02*
X12831396Y-16785010D01*
X12831396Y-16785010D02*
X12850444Y-16794534D01*
X12850444Y-16794534D02*
X12859968Y-16813582D01*
X12859968Y-16813582D02*
X12859968Y-16832630D01*
X12859968Y-16832630D02*
X12764730Y-16851677D01*
X12936158Y-16908820D02*
X12955206Y-16918344D01*
X12955206Y-16918344D02*
X12993301Y-16918344D01*
X12993301Y-16918344D02*
X13012349Y-16908820D01*
X13012349Y-16908820D02*
X13021872Y-16889772D01*
X13021872Y-16889772D02*
X13021872Y-16880249D01*
X13021872Y-16880249D02*
X13012349Y-16861201D01*
X13012349Y-16861201D02*
X12993301Y-16851677D01*
X12993301Y-16851677D02*
X12964730Y-16851677D01*
X12964730Y-16851677D02*
X12945682Y-16842153D01*
X12945682Y-16842153D02*
X12936158Y-16823106D01*
X12936158Y-16823106D02*
X12936158Y-16813582D01*
X12936158Y-16813582D02*
X12945682Y-16794534D01*
X12945682Y-16794534D02*
X12964730Y-16785010D01*
X12964730Y-16785010D02*
X12993301Y-16785010D01*
X12993301Y-16785010D02*
X13012349Y-16794534D01*
X13088539Y-16994534D02*
X13098063Y-16985010D01*
X13098063Y-16985010D02*
X13117111Y-16956439D01*
X13117111Y-16956439D02*
X13126634Y-16937391D01*
X13126634Y-16937391D02*
X13136158Y-16908820D01*
X13136158Y-16908820D02*
X13145682Y-16861201D01*
X13145682Y-16861201D02*
X13145682Y-16823106D01*
X13145682Y-16823106D02*
X13136158Y-16775487D01*
X13136158Y-16775487D02*
X13126634Y-16746915D01*
X13126634Y-16746915D02*
X13117111Y-16727868D01*
X13117111Y-16727868D02*
X13098063Y-16699296D01*
X13098063Y-16699296D02*
X13088539Y-16689772D01*
D10*
X8073000Y-17140860D02*
X8123000Y-17090860D01*
X8073000Y-17040860D01*
X8023000Y-17090860D01*
X8073000Y-17140860D01*
D11*
X8488539Y-17182344D02*
X8374253Y-17182344D01*
X8431396Y-17182344D02*
X8431396Y-16982344D01*
X8431396Y-16982344D02*
X8412348Y-17010915D01*
X8412348Y-17010915D02*
X8393301Y-17029963D01*
X8393301Y-17029963D02*
X8374253Y-17039487D01*
X8574253Y-17163296D02*
X8583777Y-17172820D01*
X8583777Y-17172820D02*
X8574253Y-17182344D01*
X8574253Y-17182344D02*
X8564729Y-17172820D01*
X8564729Y-17172820D02*
X8574253Y-17163296D01*
X8574253Y-17163296D02*
X8574253Y-17182344D01*
X8707586Y-16982344D02*
X8726634Y-16982344D01*
X8726634Y-16982344D02*
X8745682Y-16991868D01*
X8745682Y-16991868D02*
X8755205Y-17001391D01*
X8755205Y-17001391D02*
X8764729Y-17020439D01*
X8764729Y-17020439D02*
X8774253Y-17058534D01*
X8774253Y-17058534D02*
X8774253Y-17106153D01*
X8774253Y-17106153D02*
X8764729Y-17144249D01*
X8764729Y-17144249D02*
X8755205Y-17163296D01*
X8755205Y-17163296D02*
X8745682Y-17172820D01*
X8745682Y-17172820D02*
X8726634Y-17182344D01*
X8726634Y-17182344D02*
X8707586Y-17182344D01*
X8707586Y-17182344D02*
X8688539Y-17172820D01*
X8688539Y-17172820D02*
X8679015Y-17163296D01*
X8679015Y-17163296D02*
X8669491Y-17144249D01*
X8669491Y-17144249D02*
X8659967Y-17106153D01*
X8659967Y-17106153D02*
X8659967Y-17058534D01*
X8659967Y-17058534D02*
X8669491Y-17020439D01*
X8669491Y-17020439D02*
X8679015Y-17001391D01*
X8679015Y-17001391D02*
X8688539Y-16991868D01*
X8688539Y-16991868D02*
X8707586Y-16982344D01*
X8898063Y-16982344D02*
X8917110Y-16982344D01*
X8917110Y-16982344D02*
X8936158Y-16991868D01*
X8936158Y-16991868D02*
X8945682Y-17001391D01*
X8945682Y-17001391D02*
X8955205Y-17020439D01*
X8955205Y-17020439D02*
X8964729Y-17058534D01*
X8964729Y-17058534D02*
X8964729Y-17106153D01*
X8964729Y-17106153D02*
X8955205Y-17144249D01*
X8955205Y-17144249D02*
X8945682Y-17163296D01*
X8945682Y-17163296D02*
X8936158Y-17172820D01*
X8936158Y-17172820D02*
X8917110Y-17182344D01*
X8917110Y-17182344D02*
X8898063Y-17182344D01*
X8898063Y-17182344D02*
X8879015Y-17172820D01*
X8879015Y-17172820D02*
X8869491Y-17163296D01*
X8869491Y-17163296D02*
X8859967Y-17144249D01*
X8859967Y-17144249D02*
X8850444Y-17106153D01*
X8850444Y-17106153D02*
X8850444Y-17058534D01*
X8850444Y-17058534D02*
X8859967Y-17020439D01*
X8859967Y-17020439D02*
X8869491Y-17001391D01*
X8869491Y-17001391D02*
X8879015Y-16991868D01*
X8879015Y-16991868D02*
X8898063Y-16982344D01*
X9088539Y-16982344D02*
X9107586Y-16982344D01*
X9107586Y-16982344D02*
X9126634Y-16991868D01*
X9126634Y-16991868D02*
X9136158Y-17001391D01*
X9136158Y-17001391D02*
X9145682Y-17020439D01*
X9145682Y-17020439D02*
X9155205Y-17058534D01*
X9155205Y-17058534D02*
X9155205Y-17106153D01*
X9155205Y-17106153D02*
X9145682Y-17144249D01*
X9145682Y-17144249D02*
X9136158Y-17163296D01*
X9136158Y-17163296D02*
X9126634Y-17172820D01*
X9126634Y-17172820D02*
X9107586Y-17182344D01*
X9107586Y-17182344D02*
X9088539Y-17182344D01*
X9088539Y-17182344D02*
X9069491Y-17172820D01*
X9069491Y-17172820D02*
X9059967Y-17163296D01*
X9059967Y-17163296D02*
X9050444Y-17144249D01*
X9050444Y-17144249D02*
X9040920Y-17106153D01*
X9040920Y-17106153D02*
X9040920Y-17058534D01*
X9040920Y-17058534D02*
X9050444Y-17020439D01*
X9050444Y-17020439D02*
X9059967Y-17001391D01*
X9059967Y-17001391D02*
X9069491Y-16991868D01*
X9069491Y-16991868D02*
X9088539Y-16982344D01*
X9240920Y-17182344D02*
X9240920Y-17049010D01*
X9240920Y-17068058D02*
X9250444Y-17058534D01*
X9250444Y-17058534D02*
X9269491Y-17049010D01*
X9269491Y-17049010D02*
X9298063Y-17049010D01*
X9298063Y-17049010D02*
X9317110Y-17058534D01*
X9317110Y-17058534D02*
X9326634Y-17077582D01*
X9326634Y-17077582D02*
X9326634Y-17182344D01*
X9326634Y-17077582D02*
X9336158Y-17058534D01*
X9336158Y-17058534D02*
X9355205Y-17049010D01*
X9355205Y-17049010D02*
X9383777Y-17049010D01*
X9383777Y-17049010D02*
X9402825Y-17058534D01*
X9402825Y-17058534D02*
X9412348Y-17077582D01*
X9412348Y-17077582D02*
X9412348Y-17182344D01*
X9507586Y-17182344D02*
X9507586Y-17049010D01*
X9507586Y-17068058D02*
X9517110Y-17058534D01*
X9517110Y-17058534D02*
X9536158Y-17049010D01*
X9536158Y-17049010D02*
X9564729Y-17049010D01*
X9564729Y-17049010D02*
X9583777Y-17058534D01*
X9583777Y-17058534D02*
X9593301Y-17077582D01*
X9593301Y-17077582D02*
X9593301Y-17182344D01*
X9593301Y-17077582D02*
X9602825Y-17058534D01*
X9602825Y-17058534D02*
X9621872Y-17049010D01*
X9621872Y-17049010D02*
X9650444Y-17049010D01*
X9650444Y-17049010D02*
X9669491Y-17058534D01*
X9669491Y-17058534D02*
X9679015Y-17077582D01*
X9679015Y-17077582D02*
X9679015Y-17182344D01*
X10069491Y-16972820D02*
X9898063Y-17229963D01*
X10326634Y-16982344D02*
X10345682Y-16982344D01*
X10345682Y-16982344D02*
X10364729Y-16991868D01*
X10364729Y-16991868D02*
X10374253Y-17001391D01*
X10374253Y-17001391D02*
X10383777Y-17020439D01*
X10383777Y-17020439D02*
X10393301Y-17058534D01*
X10393301Y-17058534D02*
X10393301Y-17106153D01*
X10393301Y-17106153D02*
X10383777Y-17144249D01*
X10383777Y-17144249D02*
X10374253Y-17163296D01*
X10374253Y-17163296D02*
X10364729Y-17172820D01*
X10364729Y-17172820D02*
X10345682Y-17182344D01*
X10345682Y-17182344D02*
X10326634Y-17182344D01*
X10326634Y-17182344D02*
X10307587Y-17172820D01*
X10307587Y-17172820D02*
X10298063Y-17163296D01*
X10298063Y-17163296D02*
X10288539Y-17144249D01*
X10288539Y-17144249D02*
X10279015Y-17106153D01*
X10279015Y-17106153D02*
X10279015Y-17058534D01*
X10279015Y-17058534D02*
X10288539Y-17020439D01*
X10288539Y-17020439D02*
X10298063Y-17001391D01*
X10298063Y-17001391D02*
X10307587Y-16991868D01*
X10307587Y-16991868D02*
X10326634Y-16982344D01*
X10479015Y-17163296D02*
X10488539Y-17172820D01*
X10488539Y-17172820D02*
X10479015Y-17182344D01*
X10479015Y-17182344D02*
X10469491Y-17172820D01*
X10469491Y-17172820D02*
X10479015Y-17163296D01*
X10479015Y-17163296D02*
X10479015Y-17182344D01*
X10612348Y-16982344D02*
X10631396Y-16982344D01*
X10631396Y-16982344D02*
X10650444Y-16991868D01*
X10650444Y-16991868D02*
X10659968Y-17001391D01*
X10659968Y-17001391D02*
X10669491Y-17020439D01*
X10669491Y-17020439D02*
X10679015Y-17058534D01*
X10679015Y-17058534D02*
X10679015Y-17106153D01*
X10679015Y-17106153D02*
X10669491Y-17144249D01*
X10669491Y-17144249D02*
X10659968Y-17163296D01*
X10659968Y-17163296D02*
X10650444Y-17172820D01*
X10650444Y-17172820D02*
X10631396Y-17182344D01*
X10631396Y-17182344D02*
X10612348Y-17182344D01*
X10612348Y-17182344D02*
X10593301Y-17172820D01*
X10593301Y-17172820D02*
X10583777Y-17163296D01*
X10583777Y-17163296D02*
X10574253Y-17144249D01*
X10574253Y-17144249D02*
X10564729Y-17106153D01*
X10564729Y-17106153D02*
X10564729Y-17058534D01*
X10564729Y-17058534D02*
X10574253Y-17020439D01*
X10574253Y-17020439D02*
X10583777Y-17001391D01*
X10583777Y-17001391D02*
X10593301Y-16991868D01*
X10593301Y-16991868D02*
X10612348Y-16982344D01*
X10745682Y-16982344D02*
X10869491Y-16982344D01*
X10869491Y-16982344D02*
X10802825Y-17058534D01*
X10802825Y-17058534D02*
X10831396Y-17058534D01*
X10831396Y-17058534D02*
X10850444Y-17068058D01*
X10850444Y-17068058D02*
X10859968Y-17077582D01*
X10859968Y-17077582D02*
X10869491Y-17096630D01*
X10869491Y-17096630D02*
X10869491Y-17144249D01*
X10869491Y-17144249D02*
X10859968Y-17163296D01*
X10859968Y-17163296D02*
X10850444Y-17172820D01*
X10850444Y-17172820D02*
X10831396Y-17182344D01*
X10831396Y-17182344D02*
X10774253Y-17182344D01*
X10774253Y-17182344D02*
X10755206Y-17172820D01*
X10755206Y-17172820D02*
X10745682Y-17163296D01*
X10964729Y-17182344D02*
X11002825Y-17182344D01*
X11002825Y-17182344D02*
X11021872Y-17172820D01*
X11021872Y-17172820D02*
X11031396Y-17163296D01*
X11031396Y-17163296D02*
X11050444Y-17134725D01*
X11050444Y-17134725D02*
X11059968Y-17096630D01*
X11059968Y-17096630D02*
X11059968Y-17020439D01*
X11059968Y-17020439D02*
X11050444Y-17001391D01*
X11050444Y-17001391D02*
X11040920Y-16991868D01*
X11040920Y-16991868D02*
X11021872Y-16982344D01*
X11021872Y-16982344D02*
X10983777Y-16982344D01*
X10983777Y-16982344D02*
X10964729Y-16991868D01*
X10964729Y-16991868D02*
X10955206Y-17001391D01*
X10955206Y-17001391D02*
X10945682Y-17020439D01*
X10945682Y-17020439D02*
X10945682Y-17068058D01*
X10945682Y-17068058D02*
X10955206Y-17087106D01*
X10955206Y-17087106D02*
X10964729Y-17096630D01*
X10964729Y-17096630D02*
X10983777Y-17106153D01*
X10983777Y-17106153D02*
X11021872Y-17106153D01*
X11021872Y-17106153D02*
X11040920Y-17096630D01*
X11040920Y-17096630D02*
X11050444Y-17087106D01*
X11050444Y-17087106D02*
X11059968Y-17068058D01*
X11231396Y-17049010D02*
X11231396Y-17182344D01*
X11183777Y-16972820D02*
X11136158Y-17115677D01*
X11136158Y-17115677D02*
X11259967Y-17115677D01*
X11326634Y-16982344D02*
X11326634Y-17020439D01*
X11402825Y-16982344D02*
X11402825Y-17020439D01*
X11698063Y-17258534D02*
X11688539Y-17249010D01*
X11688539Y-17249010D02*
X11669491Y-17220439D01*
X11669491Y-17220439D02*
X11659968Y-17201391D01*
X11659968Y-17201391D02*
X11650444Y-17172820D01*
X11650444Y-17172820D02*
X11640920Y-17125201D01*
X11640920Y-17125201D02*
X11640920Y-17087106D01*
X11640920Y-17087106D02*
X11650444Y-17039487D01*
X11650444Y-17039487D02*
X11659968Y-17010915D01*
X11659968Y-17010915D02*
X11669491Y-16991868D01*
X11669491Y-16991868D02*
X11688539Y-16963296D01*
X11688539Y-16963296D02*
X11698063Y-16953772D01*
X11879015Y-17182344D02*
X11764729Y-17182344D01*
X11821872Y-17182344D02*
X11821872Y-16982344D01*
X11821872Y-16982344D02*
X11802825Y-17010915D01*
X11802825Y-17010915D02*
X11783777Y-17029963D01*
X11783777Y-17029963D02*
X11764729Y-17039487D01*
X12069491Y-17182344D02*
X11955206Y-17182344D01*
X12012348Y-17182344D02*
X12012348Y-16982344D01*
X12012348Y-16982344D02*
X11993301Y-17010915D01*
X11993301Y-17010915D02*
X11974253Y-17029963D01*
X11974253Y-17029963D02*
X11955206Y-17039487D01*
X12250444Y-16982344D02*
X12155206Y-16982344D01*
X12155206Y-16982344D02*
X12145682Y-17077582D01*
X12145682Y-17077582D02*
X12155206Y-17068058D01*
X12155206Y-17068058D02*
X12174253Y-17058534D01*
X12174253Y-17058534D02*
X12221872Y-17058534D01*
X12221872Y-17058534D02*
X12240920Y-17068058D01*
X12240920Y-17068058D02*
X12250444Y-17077582D01*
X12250444Y-17077582D02*
X12259968Y-17096630D01*
X12259968Y-17096630D02*
X12259968Y-17144249D01*
X12259968Y-17144249D02*
X12250444Y-17163296D01*
X12250444Y-17163296D02*
X12240920Y-17172820D01*
X12240920Y-17172820D02*
X12221872Y-17182344D01*
X12221872Y-17182344D02*
X12174253Y-17182344D01*
X12174253Y-17182344D02*
X12155206Y-17172820D01*
X12155206Y-17172820D02*
X12145682Y-17163296D01*
X12498063Y-17182344D02*
X12498063Y-16982344D01*
X12583777Y-17182344D02*
X12583777Y-17077582D01*
X12583777Y-17077582D02*
X12574253Y-17058534D01*
X12574253Y-17058534D02*
X12555206Y-17049010D01*
X12555206Y-17049010D02*
X12526634Y-17049010D01*
X12526634Y-17049010D02*
X12507587Y-17058534D01*
X12507587Y-17058534D02*
X12498063Y-17068058D01*
X12707587Y-17182344D02*
X12688539Y-17172820D01*
X12688539Y-17172820D02*
X12679015Y-17163296D01*
X12679015Y-17163296D02*
X12669491Y-17144249D01*
X12669491Y-17144249D02*
X12669491Y-17087106D01*
X12669491Y-17087106D02*
X12679015Y-17068058D01*
X12679015Y-17068058D02*
X12688539Y-17058534D01*
X12688539Y-17058534D02*
X12707587Y-17049010D01*
X12707587Y-17049010D02*
X12736158Y-17049010D01*
X12736158Y-17049010D02*
X12755206Y-17058534D01*
X12755206Y-17058534D02*
X12764730Y-17068058D01*
X12764730Y-17068058D02*
X12774253Y-17087106D01*
X12774253Y-17087106D02*
X12774253Y-17144249D01*
X12774253Y-17144249D02*
X12764730Y-17163296D01*
X12764730Y-17163296D02*
X12755206Y-17172820D01*
X12755206Y-17172820D02*
X12736158Y-17182344D01*
X12736158Y-17182344D02*
X12707587Y-17182344D01*
X12888539Y-17182344D02*
X12869491Y-17172820D01*
X12869491Y-17172820D02*
X12859968Y-17153772D01*
X12859968Y-17153772D02*
X12859968Y-16982344D01*
X13040920Y-17172820D02*
X13021872Y-17182344D01*
X13021872Y-17182344D02*
X12983777Y-17182344D01*
X12983777Y-17182344D02*
X12964730Y-17172820D01*
X12964730Y-17172820D02*
X12955206Y-17153772D01*
X12955206Y-17153772D02*
X12955206Y-17077582D01*
X12955206Y-17077582D02*
X12964730Y-17058534D01*
X12964730Y-17058534D02*
X12983777Y-17049010D01*
X12983777Y-17049010D02*
X13021872Y-17049010D01*
X13021872Y-17049010D02*
X13040920Y-17058534D01*
X13040920Y-17058534D02*
X13050444Y-17077582D01*
X13050444Y-17077582D02*
X13050444Y-17096630D01*
X13050444Y-17096630D02*
X12955206Y-17115677D01*
X13126634Y-17172820D02*
X13145682Y-17182344D01*
X13145682Y-17182344D02*
X13183777Y-17182344D01*
X13183777Y-17182344D02*
X13202825Y-17172820D01*
X13202825Y-17172820D02*
X13212349Y-17153772D01*
X13212349Y-17153772D02*
X13212349Y-17144249D01*
X13212349Y-17144249D02*
X13202825Y-17125201D01*
X13202825Y-17125201D02*
X13183777Y-17115677D01*
X13183777Y-17115677D02*
X13155206Y-17115677D01*
X13155206Y-17115677D02*
X13136158Y-17106153D01*
X13136158Y-17106153D02*
X13126634Y-17087106D01*
X13126634Y-17087106D02*
X13126634Y-17077582D01*
X13126634Y-17077582D02*
X13136158Y-17058534D01*
X13136158Y-17058534D02*
X13155206Y-17049010D01*
X13155206Y-17049010D02*
X13183777Y-17049010D01*
X13183777Y-17049010D02*
X13202825Y-17058534D01*
X13279015Y-17258534D02*
X13288539Y-17249010D01*
X13288539Y-17249010D02*
X13307587Y-17220439D01*
X13307587Y-17220439D02*
X13317111Y-17201391D01*
X13317111Y-17201391D02*
X13326634Y-17172820D01*
X13326634Y-17172820D02*
X13336158Y-17125201D01*
X13336158Y-17125201D02*
X13336158Y-17087106D01*
X13336158Y-17087106D02*
X13326634Y-17039487D01*
X13326634Y-17039487D02*
X13317111Y-17010915D01*
X13317111Y-17010915D02*
X13307587Y-16991868D01*
X13307587Y-16991868D02*
X13288539Y-16963296D01*
X13288539Y-16963296D02*
X13279015Y-16953772D01*
D12*
X8013000Y-17299860D02*
X8123000Y-17409860D01*
X8123000Y-17299860D02*
X8013000Y-17409860D01*
X8123000Y-17354860D02*
G75*
G03*
X8123000Y-17354860I-55000J0D01*
G01*
D11*
X8488539Y-17446344D02*
X8374253Y-17446344D01*
X8431396Y-17446344D02*
X8431396Y-17246344D01*
X8431396Y-17246344D02*
X8412348Y-17274915D01*
X8412348Y-17274915D02*
X8393301Y-17293963D01*
X8393301Y-17293963D02*
X8374253Y-17303487D01*
X8574253Y-17427296D02*
X8583777Y-17436820D01*
X8583777Y-17436820D02*
X8574253Y-17446344D01*
X8574253Y-17446344D02*
X8564729Y-17436820D01*
X8564729Y-17436820D02*
X8574253Y-17427296D01*
X8574253Y-17427296D02*
X8574253Y-17446344D01*
X8774253Y-17446344D02*
X8659967Y-17446344D01*
X8717110Y-17446344D02*
X8717110Y-17246344D01*
X8717110Y-17246344D02*
X8698063Y-17274915D01*
X8698063Y-17274915D02*
X8679015Y-17293963D01*
X8679015Y-17293963D02*
X8659967Y-17303487D01*
X8898063Y-17246344D02*
X8917110Y-17246344D01*
X8917110Y-17246344D02*
X8936158Y-17255868D01*
X8936158Y-17255868D02*
X8945682Y-17265391D01*
X8945682Y-17265391D02*
X8955205Y-17284439D01*
X8955205Y-17284439D02*
X8964729Y-17322534D01*
X8964729Y-17322534D02*
X8964729Y-17370153D01*
X8964729Y-17370153D02*
X8955205Y-17408249D01*
X8955205Y-17408249D02*
X8945682Y-17427296D01*
X8945682Y-17427296D02*
X8936158Y-17436820D01*
X8936158Y-17436820D02*
X8917110Y-17446344D01*
X8917110Y-17446344D02*
X8898063Y-17446344D01*
X8898063Y-17446344D02*
X8879015Y-17436820D01*
X8879015Y-17436820D02*
X8869491Y-17427296D01*
X8869491Y-17427296D02*
X8859967Y-17408249D01*
X8859967Y-17408249D02*
X8850444Y-17370153D01*
X8850444Y-17370153D02*
X8850444Y-17322534D01*
X8850444Y-17322534D02*
X8859967Y-17284439D01*
X8859967Y-17284439D02*
X8869491Y-17265391D01*
X8869491Y-17265391D02*
X8879015Y-17255868D01*
X8879015Y-17255868D02*
X8898063Y-17246344D01*
X9088539Y-17246344D02*
X9107586Y-17246344D01*
X9107586Y-17246344D02*
X9126634Y-17255868D01*
X9126634Y-17255868D02*
X9136158Y-17265391D01*
X9136158Y-17265391D02*
X9145682Y-17284439D01*
X9145682Y-17284439D02*
X9155205Y-17322534D01*
X9155205Y-17322534D02*
X9155205Y-17370153D01*
X9155205Y-17370153D02*
X9145682Y-17408249D01*
X9145682Y-17408249D02*
X9136158Y-17427296D01*
X9136158Y-17427296D02*
X9126634Y-17436820D01*
X9126634Y-17436820D02*
X9107586Y-17446344D01*
X9107586Y-17446344D02*
X9088539Y-17446344D01*
X9088539Y-17446344D02*
X9069491Y-17436820D01*
X9069491Y-17436820D02*
X9059967Y-17427296D01*
X9059967Y-17427296D02*
X9050444Y-17408249D01*
X9050444Y-17408249D02*
X9040920Y-17370153D01*
X9040920Y-17370153D02*
X9040920Y-17322534D01*
X9040920Y-17322534D02*
X9050444Y-17284439D01*
X9050444Y-17284439D02*
X9059967Y-17265391D01*
X9059967Y-17265391D02*
X9069491Y-17255868D01*
X9069491Y-17255868D02*
X9088539Y-17246344D01*
X9240920Y-17446344D02*
X9240920Y-17313010D01*
X9240920Y-17332058D02*
X9250444Y-17322534D01*
X9250444Y-17322534D02*
X9269491Y-17313010D01*
X9269491Y-17313010D02*
X9298063Y-17313010D01*
X9298063Y-17313010D02*
X9317110Y-17322534D01*
X9317110Y-17322534D02*
X9326634Y-17341582D01*
X9326634Y-17341582D02*
X9326634Y-17446344D01*
X9326634Y-17341582D02*
X9336158Y-17322534D01*
X9336158Y-17322534D02*
X9355205Y-17313010D01*
X9355205Y-17313010D02*
X9383777Y-17313010D01*
X9383777Y-17313010D02*
X9402825Y-17322534D01*
X9402825Y-17322534D02*
X9412348Y-17341582D01*
X9412348Y-17341582D02*
X9412348Y-17446344D01*
X9507586Y-17446344D02*
X9507586Y-17313010D01*
X9507586Y-17332058D02*
X9517110Y-17322534D01*
X9517110Y-17322534D02*
X9536158Y-17313010D01*
X9536158Y-17313010D02*
X9564729Y-17313010D01*
X9564729Y-17313010D02*
X9583777Y-17322534D01*
X9583777Y-17322534D02*
X9593301Y-17341582D01*
X9593301Y-17341582D02*
X9593301Y-17446344D01*
X9593301Y-17341582D02*
X9602825Y-17322534D01*
X9602825Y-17322534D02*
X9621872Y-17313010D01*
X9621872Y-17313010D02*
X9650444Y-17313010D01*
X9650444Y-17313010D02*
X9669491Y-17322534D01*
X9669491Y-17322534D02*
X9679015Y-17341582D01*
X9679015Y-17341582D02*
X9679015Y-17446344D01*
X10069491Y-17236820D02*
X9898063Y-17493963D01*
X10326634Y-17246344D02*
X10345682Y-17246344D01*
X10345682Y-17246344D02*
X10364729Y-17255868D01*
X10364729Y-17255868D02*
X10374253Y-17265391D01*
X10374253Y-17265391D02*
X10383777Y-17284439D01*
X10383777Y-17284439D02*
X10393301Y-17322534D01*
X10393301Y-17322534D02*
X10393301Y-17370153D01*
X10393301Y-17370153D02*
X10383777Y-17408249D01*
X10383777Y-17408249D02*
X10374253Y-17427296D01*
X10374253Y-17427296D02*
X10364729Y-17436820D01*
X10364729Y-17436820D02*
X10345682Y-17446344D01*
X10345682Y-17446344D02*
X10326634Y-17446344D01*
X10326634Y-17446344D02*
X10307587Y-17436820D01*
X10307587Y-17436820D02*
X10298063Y-17427296D01*
X10298063Y-17427296D02*
X10288539Y-17408249D01*
X10288539Y-17408249D02*
X10279015Y-17370153D01*
X10279015Y-17370153D02*
X10279015Y-17322534D01*
X10279015Y-17322534D02*
X10288539Y-17284439D01*
X10288539Y-17284439D02*
X10298063Y-17265391D01*
X10298063Y-17265391D02*
X10307587Y-17255868D01*
X10307587Y-17255868D02*
X10326634Y-17246344D01*
X10479015Y-17427296D02*
X10488539Y-17436820D01*
X10488539Y-17436820D02*
X10479015Y-17446344D01*
X10479015Y-17446344D02*
X10469491Y-17436820D01*
X10469491Y-17436820D02*
X10479015Y-17427296D01*
X10479015Y-17427296D02*
X10479015Y-17446344D01*
X10612348Y-17246344D02*
X10631396Y-17246344D01*
X10631396Y-17246344D02*
X10650444Y-17255868D01*
X10650444Y-17255868D02*
X10659968Y-17265391D01*
X10659968Y-17265391D02*
X10669491Y-17284439D01*
X10669491Y-17284439D02*
X10679015Y-17322534D01*
X10679015Y-17322534D02*
X10679015Y-17370153D01*
X10679015Y-17370153D02*
X10669491Y-17408249D01*
X10669491Y-17408249D02*
X10659968Y-17427296D01*
X10659968Y-17427296D02*
X10650444Y-17436820D01*
X10650444Y-17436820D02*
X10631396Y-17446344D01*
X10631396Y-17446344D02*
X10612348Y-17446344D01*
X10612348Y-17446344D02*
X10593301Y-17436820D01*
X10593301Y-17436820D02*
X10583777Y-17427296D01*
X10583777Y-17427296D02*
X10574253Y-17408249D01*
X10574253Y-17408249D02*
X10564729Y-17370153D01*
X10564729Y-17370153D02*
X10564729Y-17322534D01*
X10564729Y-17322534D02*
X10574253Y-17284439D01*
X10574253Y-17284439D02*
X10583777Y-17265391D01*
X10583777Y-17265391D02*
X10593301Y-17255868D01*
X10593301Y-17255868D02*
X10612348Y-17246344D01*
X10850444Y-17313010D02*
X10850444Y-17446344D01*
X10802825Y-17236820D02*
X10755206Y-17379677D01*
X10755206Y-17379677D02*
X10879015Y-17379677D01*
X10936158Y-17246344D02*
X11059968Y-17246344D01*
X11059968Y-17246344D02*
X10993301Y-17322534D01*
X10993301Y-17322534D02*
X11021872Y-17322534D01*
X11021872Y-17322534D02*
X11040920Y-17332058D01*
X11040920Y-17332058D02*
X11050444Y-17341582D01*
X11050444Y-17341582D02*
X11059968Y-17360630D01*
X11059968Y-17360630D02*
X11059968Y-17408249D01*
X11059968Y-17408249D02*
X11050444Y-17427296D01*
X11050444Y-17427296D02*
X11040920Y-17436820D01*
X11040920Y-17436820D02*
X11021872Y-17446344D01*
X11021872Y-17446344D02*
X10964729Y-17446344D01*
X10964729Y-17446344D02*
X10945682Y-17436820D01*
X10945682Y-17436820D02*
X10936158Y-17427296D01*
X11126634Y-17246344D02*
X11250444Y-17246344D01*
X11250444Y-17246344D02*
X11183777Y-17322534D01*
X11183777Y-17322534D02*
X11212348Y-17322534D01*
X11212348Y-17322534D02*
X11231396Y-17332058D01*
X11231396Y-17332058D02*
X11240920Y-17341582D01*
X11240920Y-17341582D02*
X11250444Y-17360630D01*
X11250444Y-17360630D02*
X11250444Y-17408249D01*
X11250444Y-17408249D02*
X11240920Y-17427296D01*
X11240920Y-17427296D02*
X11231396Y-17436820D01*
X11231396Y-17436820D02*
X11212348Y-17446344D01*
X11212348Y-17446344D02*
X11155206Y-17446344D01*
X11155206Y-17446344D02*
X11136158Y-17436820D01*
X11136158Y-17436820D02*
X11126634Y-17427296D01*
X11326634Y-17246344D02*
X11326634Y-17284439D01*
X11402825Y-17246344D02*
X11402825Y-17284439D01*
X11698063Y-17522534D02*
X11688539Y-17513010D01*
X11688539Y-17513010D02*
X11669491Y-17484439D01*
X11669491Y-17484439D02*
X11659968Y-17465391D01*
X11659968Y-17465391D02*
X11650444Y-17436820D01*
X11650444Y-17436820D02*
X11640920Y-17389201D01*
X11640920Y-17389201D02*
X11640920Y-17351106D01*
X11640920Y-17351106D02*
X11650444Y-17303487D01*
X11650444Y-17303487D02*
X11659968Y-17274915D01*
X11659968Y-17274915D02*
X11669491Y-17255868D01*
X11669491Y-17255868D02*
X11688539Y-17227296D01*
X11688539Y-17227296D02*
X11698063Y-17217772D01*
X11755206Y-17246344D02*
X11879015Y-17246344D01*
X11879015Y-17246344D02*
X11812348Y-17322534D01*
X11812348Y-17322534D02*
X11840920Y-17322534D01*
X11840920Y-17322534D02*
X11859968Y-17332058D01*
X11859968Y-17332058D02*
X11869491Y-17341582D01*
X11869491Y-17341582D02*
X11879015Y-17360630D01*
X11879015Y-17360630D02*
X11879015Y-17408249D01*
X11879015Y-17408249D02*
X11869491Y-17427296D01*
X11869491Y-17427296D02*
X11859968Y-17436820D01*
X11859968Y-17436820D02*
X11840920Y-17446344D01*
X11840920Y-17446344D02*
X11783777Y-17446344D01*
X11783777Y-17446344D02*
X11764729Y-17436820D01*
X11764729Y-17436820D02*
X11755206Y-17427296D01*
X12117110Y-17446344D02*
X12117110Y-17246344D01*
X12202825Y-17446344D02*
X12202825Y-17341582D01*
X12202825Y-17341582D02*
X12193301Y-17322534D01*
X12193301Y-17322534D02*
X12174253Y-17313010D01*
X12174253Y-17313010D02*
X12145682Y-17313010D01*
X12145682Y-17313010D02*
X12126634Y-17322534D01*
X12126634Y-17322534D02*
X12117110Y-17332058D01*
X12326634Y-17446344D02*
X12307587Y-17436820D01*
X12307587Y-17436820D02*
X12298063Y-17427296D01*
X12298063Y-17427296D02*
X12288539Y-17408249D01*
X12288539Y-17408249D02*
X12288539Y-17351106D01*
X12288539Y-17351106D02*
X12298063Y-17332058D01*
X12298063Y-17332058D02*
X12307587Y-17322534D01*
X12307587Y-17322534D02*
X12326634Y-17313010D01*
X12326634Y-17313010D02*
X12355206Y-17313010D01*
X12355206Y-17313010D02*
X12374253Y-17322534D01*
X12374253Y-17322534D02*
X12383777Y-17332058D01*
X12383777Y-17332058D02*
X12393301Y-17351106D01*
X12393301Y-17351106D02*
X12393301Y-17408249D01*
X12393301Y-17408249D02*
X12383777Y-17427296D01*
X12383777Y-17427296D02*
X12374253Y-17436820D01*
X12374253Y-17436820D02*
X12355206Y-17446344D01*
X12355206Y-17446344D02*
X12326634Y-17446344D01*
X12507587Y-17446344D02*
X12488539Y-17436820D01*
X12488539Y-17436820D02*
X12479015Y-17417772D01*
X12479015Y-17417772D02*
X12479015Y-17246344D01*
X12659968Y-17436820D02*
X12640920Y-17446344D01*
X12640920Y-17446344D02*
X12602825Y-17446344D01*
X12602825Y-17446344D02*
X12583777Y-17436820D01*
X12583777Y-17436820D02*
X12574253Y-17417772D01*
X12574253Y-17417772D02*
X12574253Y-17341582D01*
X12574253Y-17341582D02*
X12583777Y-17322534D01*
X12583777Y-17322534D02*
X12602825Y-17313010D01*
X12602825Y-17313010D02*
X12640920Y-17313010D01*
X12640920Y-17313010D02*
X12659968Y-17322534D01*
X12659968Y-17322534D02*
X12669491Y-17341582D01*
X12669491Y-17341582D02*
X12669491Y-17360630D01*
X12669491Y-17360630D02*
X12574253Y-17379677D01*
X12745682Y-17436820D02*
X12764730Y-17446344D01*
X12764730Y-17446344D02*
X12802825Y-17446344D01*
X12802825Y-17446344D02*
X12821872Y-17436820D01*
X12821872Y-17436820D02*
X12831396Y-17417772D01*
X12831396Y-17417772D02*
X12831396Y-17408249D01*
X12831396Y-17408249D02*
X12821872Y-17389201D01*
X12821872Y-17389201D02*
X12802825Y-17379677D01*
X12802825Y-17379677D02*
X12774253Y-17379677D01*
X12774253Y-17379677D02*
X12755206Y-17370153D01*
X12755206Y-17370153D02*
X12745682Y-17351106D01*
X12745682Y-17351106D02*
X12745682Y-17341582D01*
X12745682Y-17341582D02*
X12755206Y-17322534D01*
X12755206Y-17322534D02*
X12774253Y-17313010D01*
X12774253Y-17313010D02*
X12802825Y-17313010D01*
X12802825Y-17313010D02*
X12821872Y-17322534D01*
X12898063Y-17522534D02*
X12907587Y-17513010D01*
X12907587Y-17513010D02*
X12926634Y-17484439D01*
X12926634Y-17484439D02*
X12936158Y-17465391D01*
X12936158Y-17465391D02*
X12945682Y-17436820D01*
X12945682Y-17436820D02*
X12955206Y-17389201D01*
X12955206Y-17389201D02*
X12955206Y-17351106D01*
X12955206Y-17351106D02*
X12945682Y-17303487D01*
X12945682Y-17303487D02*
X12936158Y-17274915D01*
X12936158Y-17274915D02*
X12926634Y-17255868D01*
X12926634Y-17255868D02*
X12907587Y-17227296D01*
X12907587Y-17227296D02*
X12898063Y-17217772D01*
D13*
X8001000Y-17557860D02*
X8123000Y-17679860D01*
X8123000Y-17557860D02*
X8001000Y-17679860D01*
X8062000Y-17557860D02*
X8062000Y-17679860D01*
X8001000Y-17618860D02*
X8123000Y-17618860D01*
D11*
X8488539Y-17710344D02*
X8374253Y-17710344D01*
X8431396Y-17710344D02*
X8431396Y-17510344D01*
X8431396Y-17510344D02*
X8412348Y-17538915D01*
X8412348Y-17538915D02*
X8393301Y-17557963D01*
X8393301Y-17557963D02*
X8374253Y-17567487D01*
X8574253Y-17691296D02*
X8583777Y-17700820D01*
X8583777Y-17700820D02*
X8574253Y-17710344D01*
X8574253Y-17710344D02*
X8564729Y-17700820D01*
X8564729Y-17700820D02*
X8574253Y-17691296D01*
X8574253Y-17691296D02*
X8574253Y-17710344D01*
X8659967Y-17529391D02*
X8669491Y-17519868D01*
X8669491Y-17519868D02*
X8688539Y-17510344D01*
X8688539Y-17510344D02*
X8736158Y-17510344D01*
X8736158Y-17510344D02*
X8755205Y-17519868D01*
X8755205Y-17519868D02*
X8764729Y-17529391D01*
X8764729Y-17529391D02*
X8774253Y-17548439D01*
X8774253Y-17548439D02*
X8774253Y-17567487D01*
X8774253Y-17567487D02*
X8764729Y-17596058D01*
X8764729Y-17596058D02*
X8650444Y-17710344D01*
X8650444Y-17710344D02*
X8774253Y-17710344D01*
X8850444Y-17529391D02*
X8859967Y-17519868D01*
X8859967Y-17519868D02*
X8879015Y-17510344D01*
X8879015Y-17510344D02*
X8926634Y-17510344D01*
X8926634Y-17510344D02*
X8945682Y-17519868D01*
X8945682Y-17519868D02*
X8955205Y-17529391D01*
X8955205Y-17529391D02*
X8964729Y-17548439D01*
X8964729Y-17548439D02*
X8964729Y-17567487D01*
X8964729Y-17567487D02*
X8955205Y-17596058D01*
X8955205Y-17596058D02*
X8840920Y-17710344D01*
X8840920Y-17710344D02*
X8964729Y-17710344D01*
X9088539Y-17510344D02*
X9107586Y-17510344D01*
X9107586Y-17510344D02*
X9126634Y-17519868D01*
X9126634Y-17519868D02*
X9136158Y-17529391D01*
X9136158Y-17529391D02*
X9145682Y-17548439D01*
X9145682Y-17548439D02*
X9155205Y-17586534D01*
X9155205Y-17586534D02*
X9155205Y-17634153D01*
X9155205Y-17634153D02*
X9145682Y-17672249D01*
X9145682Y-17672249D02*
X9136158Y-17691296D01*
X9136158Y-17691296D02*
X9126634Y-17700820D01*
X9126634Y-17700820D02*
X9107586Y-17710344D01*
X9107586Y-17710344D02*
X9088539Y-17710344D01*
X9088539Y-17710344D02*
X9069491Y-17700820D01*
X9069491Y-17700820D02*
X9059967Y-17691296D01*
X9059967Y-17691296D02*
X9050444Y-17672249D01*
X9050444Y-17672249D02*
X9040920Y-17634153D01*
X9040920Y-17634153D02*
X9040920Y-17586534D01*
X9040920Y-17586534D02*
X9050444Y-17548439D01*
X9050444Y-17548439D02*
X9059967Y-17529391D01*
X9059967Y-17529391D02*
X9069491Y-17519868D01*
X9069491Y-17519868D02*
X9088539Y-17510344D01*
X9240920Y-17710344D02*
X9240920Y-17577010D01*
X9240920Y-17596058D02*
X9250444Y-17586534D01*
X9250444Y-17586534D02*
X9269491Y-17577010D01*
X9269491Y-17577010D02*
X9298063Y-17577010D01*
X9298063Y-17577010D02*
X9317110Y-17586534D01*
X9317110Y-17586534D02*
X9326634Y-17605582D01*
X9326634Y-17605582D02*
X9326634Y-17710344D01*
X9326634Y-17605582D02*
X9336158Y-17586534D01*
X9336158Y-17586534D02*
X9355205Y-17577010D01*
X9355205Y-17577010D02*
X9383777Y-17577010D01*
X9383777Y-17577010D02*
X9402825Y-17586534D01*
X9402825Y-17586534D02*
X9412348Y-17605582D01*
X9412348Y-17605582D02*
X9412348Y-17710344D01*
X9507586Y-17710344D02*
X9507586Y-17577010D01*
X9507586Y-17596058D02*
X9517110Y-17586534D01*
X9517110Y-17586534D02*
X9536158Y-17577010D01*
X9536158Y-17577010D02*
X9564729Y-17577010D01*
X9564729Y-17577010D02*
X9583777Y-17586534D01*
X9583777Y-17586534D02*
X9593301Y-17605582D01*
X9593301Y-17605582D02*
X9593301Y-17710344D01*
X9593301Y-17605582D02*
X9602825Y-17586534D01*
X9602825Y-17586534D02*
X9621872Y-17577010D01*
X9621872Y-17577010D02*
X9650444Y-17577010D01*
X9650444Y-17577010D02*
X9669491Y-17586534D01*
X9669491Y-17586534D02*
X9679015Y-17605582D01*
X9679015Y-17605582D02*
X9679015Y-17710344D01*
X10069491Y-17500820D02*
X9898063Y-17757963D01*
X10326634Y-17510344D02*
X10345682Y-17510344D01*
X10345682Y-17510344D02*
X10364729Y-17519868D01*
X10364729Y-17519868D02*
X10374253Y-17529391D01*
X10374253Y-17529391D02*
X10383777Y-17548439D01*
X10383777Y-17548439D02*
X10393301Y-17586534D01*
X10393301Y-17586534D02*
X10393301Y-17634153D01*
X10393301Y-17634153D02*
X10383777Y-17672249D01*
X10383777Y-17672249D02*
X10374253Y-17691296D01*
X10374253Y-17691296D02*
X10364729Y-17700820D01*
X10364729Y-17700820D02*
X10345682Y-17710344D01*
X10345682Y-17710344D02*
X10326634Y-17710344D01*
X10326634Y-17710344D02*
X10307587Y-17700820D01*
X10307587Y-17700820D02*
X10298063Y-17691296D01*
X10298063Y-17691296D02*
X10288539Y-17672249D01*
X10288539Y-17672249D02*
X10279015Y-17634153D01*
X10279015Y-17634153D02*
X10279015Y-17586534D01*
X10279015Y-17586534D02*
X10288539Y-17548439D01*
X10288539Y-17548439D02*
X10298063Y-17529391D01*
X10298063Y-17529391D02*
X10307587Y-17519868D01*
X10307587Y-17519868D02*
X10326634Y-17510344D01*
X10479015Y-17691296D02*
X10488539Y-17700820D01*
X10488539Y-17700820D02*
X10479015Y-17710344D01*
X10479015Y-17710344D02*
X10469491Y-17700820D01*
X10469491Y-17700820D02*
X10479015Y-17691296D01*
X10479015Y-17691296D02*
X10479015Y-17710344D01*
X10612348Y-17510344D02*
X10631396Y-17510344D01*
X10631396Y-17510344D02*
X10650444Y-17519868D01*
X10650444Y-17519868D02*
X10659968Y-17529391D01*
X10659968Y-17529391D02*
X10669491Y-17548439D01*
X10669491Y-17548439D02*
X10679015Y-17586534D01*
X10679015Y-17586534D02*
X10679015Y-17634153D01*
X10679015Y-17634153D02*
X10669491Y-17672249D01*
X10669491Y-17672249D02*
X10659968Y-17691296D01*
X10659968Y-17691296D02*
X10650444Y-17700820D01*
X10650444Y-17700820D02*
X10631396Y-17710344D01*
X10631396Y-17710344D02*
X10612348Y-17710344D01*
X10612348Y-17710344D02*
X10593301Y-17700820D01*
X10593301Y-17700820D02*
X10583777Y-17691296D01*
X10583777Y-17691296D02*
X10574253Y-17672249D01*
X10574253Y-17672249D02*
X10564729Y-17634153D01*
X10564729Y-17634153D02*
X10564729Y-17586534D01*
X10564729Y-17586534D02*
X10574253Y-17548439D01*
X10574253Y-17548439D02*
X10583777Y-17529391D01*
X10583777Y-17529391D02*
X10593301Y-17519868D01*
X10593301Y-17519868D02*
X10612348Y-17510344D01*
X10850444Y-17577010D02*
X10850444Y-17710344D01*
X10802825Y-17500820D02*
X10755206Y-17643677D01*
X10755206Y-17643677D02*
X10879015Y-17643677D01*
X10983777Y-17596058D02*
X10964729Y-17586534D01*
X10964729Y-17586534D02*
X10955206Y-17577010D01*
X10955206Y-17577010D02*
X10945682Y-17557963D01*
X10945682Y-17557963D02*
X10945682Y-17548439D01*
X10945682Y-17548439D02*
X10955206Y-17529391D01*
X10955206Y-17529391D02*
X10964729Y-17519868D01*
X10964729Y-17519868D02*
X10983777Y-17510344D01*
X10983777Y-17510344D02*
X11021872Y-17510344D01*
X11021872Y-17510344D02*
X11040920Y-17519868D01*
X11040920Y-17519868D02*
X11050444Y-17529391D01*
X11050444Y-17529391D02*
X11059968Y-17548439D01*
X11059968Y-17548439D02*
X11059968Y-17557963D01*
X11059968Y-17557963D02*
X11050444Y-17577010D01*
X11050444Y-17577010D02*
X11040920Y-17586534D01*
X11040920Y-17586534D02*
X11021872Y-17596058D01*
X11021872Y-17596058D02*
X10983777Y-17596058D01*
X10983777Y-17596058D02*
X10964729Y-17605582D01*
X10964729Y-17605582D02*
X10955206Y-17615106D01*
X10955206Y-17615106D02*
X10945682Y-17634153D01*
X10945682Y-17634153D02*
X10945682Y-17672249D01*
X10945682Y-17672249D02*
X10955206Y-17691296D01*
X10955206Y-17691296D02*
X10964729Y-17700820D01*
X10964729Y-17700820D02*
X10983777Y-17710344D01*
X10983777Y-17710344D02*
X11021872Y-17710344D01*
X11021872Y-17710344D02*
X11040920Y-17700820D01*
X11040920Y-17700820D02*
X11050444Y-17691296D01*
X11050444Y-17691296D02*
X11059968Y-17672249D01*
X11059968Y-17672249D02*
X11059968Y-17634153D01*
X11059968Y-17634153D02*
X11050444Y-17615106D01*
X11050444Y-17615106D02*
X11040920Y-17605582D01*
X11040920Y-17605582D02*
X11021872Y-17596058D01*
X11183777Y-17510344D02*
X11202825Y-17510344D01*
X11202825Y-17510344D02*
X11221872Y-17519868D01*
X11221872Y-17519868D02*
X11231396Y-17529391D01*
X11231396Y-17529391D02*
X11240920Y-17548439D01*
X11240920Y-17548439D02*
X11250444Y-17586534D01*
X11250444Y-17586534D02*
X11250444Y-17634153D01*
X11250444Y-17634153D02*
X11240920Y-17672249D01*
X11240920Y-17672249D02*
X11231396Y-17691296D01*
X11231396Y-17691296D02*
X11221872Y-17700820D01*
X11221872Y-17700820D02*
X11202825Y-17710344D01*
X11202825Y-17710344D02*
X11183777Y-17710344D01*
X11183777Y-17710344D02*
X11164729Y-17700820D01*
X11164729Y-17700820D02*
X11155206Y-17691296D01*
X11155206Y-17691296D02*
X11145682Y-17672249D01*
X11145682Y-17672249D02*
X11136158Y-17634153D01*
X11136158Y-17634153D02*
X11136158Y-17586534D01*
X11136158Y-17586534D02*
X11145682Y-17548439D01*
X11145682Y-17548439D02*
X11155206Y-17529391D01*
X11155206Y-17529391D02*
X11164729Y-17519868D01*
X11164729Y-17519868D02*
X11183777Y-17510344D01*
X11326634Y-17510344D02*
X11326634Y-17548439D01*
X11402825Y-17510344D02*
X11402825Y-17548439D01*
X11698063Y-17786534D02*
X11688539Y-17777010D01*
X11688539Y-17777010D02*
X11669491Y-17748439D01*
X11669491Y-17748439D02*
X11659968Y-17729391D01*
X11659968Y-17729391D02*
X11650444Y-17700820D01*
X11650444Y-17700820D02*
X11640920Y-17653201D01*
X11640920Y-17653201D02*
X11640920Y-17615106D01*
X11640920Y-17615106D02*
X11650444Y-17567487D01*
X11650444Y-17567487D02*
X11659968Y-17538915D01*
X11659968Y-17538915D02*
X11669491Y-17519868D01*
X11669491Y-17519868D02*
X11688539Y-17491296D01*
X11688539Y-17491296D02*
X11698063Y-17481772D01*
X11802825Y-17596058D02*
X11783777Y-17586534D01*
X11783777Y-17586534D02*
X11774253Y-17577010D01*
X11774253Y-17577010D02*
X11764729Y-17557963D01*
X11764729Y-17557963D02*
X11764729Y-17548439D01*
X11764729Y-17548439D02*
X11774253Y-17529391D01*
X11774253Y-17529391D02*
X11783777Y-17519868D01*
X11783777Y-17519868D02*
X11802825Y-17510344D01*
X11802825Y-17510344D02*
X11840920Y-17510344D01*
X11840920Y-17510344D02*
X11859968Y-17519868D01*
X11859968Y-17519868D02*
X11869491Y-17529391D01*
X11869491Y-17529391D02*
X11879015Y-17548439D01*
X11879015Y-17548439D02*
X11879015Y-17557963D01*
X11879015Y-17557963D02*
X11869491Y-17577010D01*
X11869491Y-17577010D02*
X11859968Y-17586534D01*
X11859968Y-17586534D02*
X11840920Y-17596058D01*
X11840920Y-17596058D02*
X11802825Y-17596058D01*
X11802825Y-17596058D02*
X11783777Y-17605582D01*
X11783777Y-17605582D02*
X11774253Y-17615106D01*
X11774253Y-17615106D02*
X11764729Y-17634153D01*
X11764729Y-17634153D02*
X11764729Y-17672249D01*
X11764729Y-17672249D02*
X11774253Y-17691296D01*
X11774253Y-17691296D02*
X11783777Y-17700820D01*
X11783777Y-17700820D02*
X11802825Y-17710344D01*
X11802825Y-17710344D02*
X11840920Y-17710344D01*
X11840920Y-17710344D02*
X11859968Y-17700820D01*
X11859968Y-17700820D02*
X11869491Y-17691296D01*
X11869491Y-17691296D02*
X11879015Y-17672249D01*
X11879015Y-17672249D02*
X11879015Y-17634153D01*
X11879015Y-17634153D02*
X11869491Y-17615106D01*
X11869491Y-17615106D02*
X11859968Y-17605582D01*
X11859968Y-17605582D02*
X11840920Y-17596058D01*
X12117110Y-17710344D02*
X12117110Y-17510344D01*
X12202825Y-17710344D02*
X12202825Y-17605582D01*
X12202825Y-17605582D02*
X12193301Y-17586534D01*
X12193301Y-17586534D02*
X12174253Y-17577010D01*
X12174253Y-17577010D02*
X12145682Y-17577010D01*
X12145682Y-17577010D02*
X12126634Y-17586534D01*
X12126634Y-17586534D02*
X12117110Y-17596058D01*
X12326634Y-17710344D02*
X12307587Y-17700820D01*
X12307587Y-17700820D02*
X12298063Y-17691296D01*
X12298063Y-17691296D02*
X12288539Y-17672249D01*
X12288539Y-17672249D02*
X12288539Y-17615106D01*
X12288539Y-17615106D02*
X12298063Y-17596058D01*
X12298063Y-17596058D02*
X12307587Y-17586534D01*
X12307587Y-17586534D02*
X12326634Y-17577010D01*
X12326634Y-17577010D02*
X12355206Y-17577010D01*
X12355206Y-17577010D02*
X12374253Y-17586534D01*
X12374253Y-17586534D02*
X12383777Y-17596058D01*
X12383777Y-17596058D02*
X12393301Y-17615106D01*
X12393301Y-17615106D02*
X12393301Y-17672249D01*
X12393301Y-17672249D02*
X12383777Y-17691296D01*
X12383777Y-17691296D02*
X12374253Y-17700820D01*
X12374253Y-17700820D02*
X12355206Y-17710344D01*
X12355206Y-17710344D02*
X12326634Y-17710344D01*
X12507587Y-17710344D02*
X12488539Y-17700820D01*
X12488539Y-17700820D02*
X12479015Y-17681772D01*
X12479015Y-17681772D02*
X12479015Y-17510344D01*
X12659968Y-17700820D02*
X12640920Y-17710344D01*
X12640920Y-17710344D02*
X12602825Y-17710344D01*
X12602825Y-17710344D02*
X12583777Y-17700820D01*
X12583777Y-17700820D02*
X12574253Y-17681772D01*
X12574253Y-17681772D02*
X12574253Y-17605582D01*
X12574253Y-17605582D02*
X12583777Y-17586534D01*
X12583777Y-17586534D02*
X12602825Y-17577010D01*
X12602825Y-17577010D02*
X12640920Y-17577010D01*
X12640920Y-17577010D02*
X12659968Y-17586534D01*
X12659968Y-17586534D02*
X12669491Y-17605582D01*
X12669491Y-17605582D02*
X12669491Y-17624630D01*
X12669491Y-17624630D02*
X12574253Y-17643677D01*
X12745682Y-17700820D02*
X12764730Y-17710344D01*
X12764730Y-17710344D02*
X12802825Y-17710344D01*
X12802825Y-17710344D02*
X12821872Y-17700820D01*
X12821872Y-17700820D02*
X12831396Y-17681772D01*
X12831396Y-17681772D02*
X12831396Y-17672249D01*
X12831396Y-17672249D02*
X12821872Y-17653201D01*
X12821872Y-17653201D02*
X12802825Y-17643677D01*
X12802825Y-17643677D02*
X12774253Y-17643677D01*
X12774253Y-17643677D02*
X12755206Y-17634153D01*
X12755206Y-17634153D02*
X12745682Y-17615106D01*
X12745682Y-17615106D02*
X12745682Y-17605582D01*
X12745682Y-17605582D02*
X12755206Y-17586534D01*
X12755206Y-17586534D02*
X12774253Y-17577010D01*
X12774253Y-17577010D02*
X12802825Y-17577010D01*
X12802825Y-17577010D02*
X12821872Y-17586534D01*
X12898063Y-17786534D02*
X12907587Y-17777010D01*
X12907587Y-17777010D02*
X12926634Y-17748439D01*
X12926634Y-17748439D02*
X12936158Y-17729391D01*
X12936158Y-17729391D02*
X12945682Y-17700820D01*
X12945682Y-17700820D02*
X12955206Y-17653201D01*
X12955206Y-17653201D02*
X12955206Y-17615106D01*
X12955206Y-17615106D02*
X12945682Y-17567487D01*
X12945682Y-17567487D02*
X12936158Y-17538915D01*
X12936158Y-17538915D02*
X12926634Y-17519868D01*
X12926634Y-17519868D02*
X12907587Y-17491296D01*
X12907587Y-17491296D02*
X12898063Y-17481772D01*
D14*
X7981000Y-17811860D02*
X8123000Y-17953860D01*
X8123000Y-17811860D02*
X7981000Y-17953860D01*
X8102205Y-17933065D02*
X8102205Y-17832655D01*
X8001795Y-17832655D01*
X8001795Y-17933065D01*
X8102205Y-17933065D01*
D11*
X8488539Y-17974344D02*
X8374253Y-17974344D01*
X8431396Y-17974344D02*
X8431396Y-17774344D01*
X8431396Y-17774344D02*
X8412348Y-17802915D01*
X8412348Y-17802915D02*
X8393301Y-17821963D01*
X8393301Y-17821963D02*
X8374253Y-17831487D01*
X8574253Y-17955296D02*
X8583777Y-17964820D01*
X8583777Y-17964820D02*
X8574253Y-17974344D01*
X8574253Y-17974344D02*
X8564729Y-17964820D01*
X8564729Y-17964820D02*
X8574253Y-17955296D01*
X8574253Y-17955296D02*
X8574253Y-17974344D01*
X8755205Y-17841010D02*
X8755205Y-17974344D01*
X8707586Y-17764820D02*
X8659967Y-17907677D01*
X8659967Y-17907677D02*
X8783777Y-17907677D01*
X8850444Y-17793391D02*
X8859967Y-17783868D01*
X8859967Y-17783868D02*
X8879015Y-17774344D01*
X8879015Y-17774344D02*
X8926634Y-17774344D01*
X8926634Y-17774344D02*
X8945682Y-17783868D01*
X8945682Y-17783868D02*
X8955205Y-17793391D01*
X8955205Y-17793391D02*
X8964729Y-17812439D01*
X8964729Y-17812439D02*
X8964729Y-17831487D01*
X8964729Y-17831487D02*
X8955205Y-17860058D01*
X8955205Y-17860058D02*
X8840920Y-17974344D01*
X8840920Y-17974344D02*
X8964729Y-17974344D01*
X9088539Y-17774344D02*
X9107586Y-17774344D01*
X9107586Y-17774344D02*
X9126634Y-17783868D01*
X9126634Y-17783868D02*
X9136158Y-17793391D01*
X9136158Y-17793391D02*
X9145682Y-17812439D01*
X9145682Y-17812439D02*
X9155205Y-17850534D01*
X9155205Y-17850534D02*
X9155205Y-17898153D01*
X9155205Y-17898153D02*
X9145682Y-17936249D01*
X9145682Y-17936249D02*
X9136158Y-17955296D01*
X9136158Y-17955296D02*
X9126634Y-17964820D01*
X9126634Y-17964820D02*
X9107586Y-17974344D01*
X9107586Y-17974344D02*
X9088539Y-17974344D01*
X9088539Y-17974344D02*
X9069491Y-17964820D01*
X9069491Y-17964820D02*
X9059967Y-17955296D01*
X9059967Y-17955296D02*
X9050444Y-17936249D01*
X9050444Y-17936249D02*
X9040920Y-17898153D01*
X9040920Y-17898153D02*
X9040920Y-17850534D01*
X9040920Y-17850534D02*
X9050444Y-17812439D01*
X9050444Y-17812439D02*
X9059967Y-17793391D01*
X9059967Y-17793391D02*
X9069491Y-17783868D01*
X9069491Y-17783868D02*
X9088539Y-17774344D01*
X9240920Y-17974344D02*
X9240920Y-17841010D01*
X9240920Y-17860058D02*
X9250444Y-17850534D01*
X9250444Y-17850534D02*
X9269491Y-17841010D01*
X9269491Y-17841010D02*
X9298063Y-17841010D01*
X9298063Y-17841010D02*
X9317110Y-17850534D01*
X9317110Y-17850534D02*
X9326634Y-17869582D01*
X9326634Y-17869582D02*
X9326634Y-17974344D01*
X9326634Y-17869582D02*
X9336158Y-17850534D01*
X9336158Y-17850534D02*
X9355205Y-17841010D01*
X9355205Y-17841010D02*
X9383777Y-17841010D01*
X9383777Y-17841010D02*
X9402825Y-17850534D01*
X9402825Y-17850534D02*
X9412348Y-17869582D01*
X9412348Y-17869582D02*
X9412348Y-17974344D01*
X9507586Y-17974344D02*
X9507586Y-17841010D01*
X9507586Y-17860058D02*
X9517110Y-17850534D01*
X9517110Y-17850534D02*
X9536158Y-17841010D01*
X9536158Y-17841010D02*
X9564729Y-17841010D01*
X9564729Y-17841010D02*
X9583777Y-17850534D01*
X9583777Y-17850534D02*
X9593301Y-17869582D01*
X9593301Y-17869582D02*
X9593301Y-17974344D01*
X9593301Y-17869582D02*
X9602825Y-17850534D01*
X9602825Y-17850534D02*
X9621872Y-17841010D01*
X9621872Y-17841010D02*
X9650444Y-17841010D01*
X9650444Y-17841010D02*
X9669491Y-17850534D01*
X9669491Y-17850534D02*
X9679015Y-17869582D01*
X9679015Y-17869582D02*
X9679015Y-17974344D01*
X10069491Y-17764820D02*
X9898063Y-18021963D01*
X10326634Y-17774344D02*
X10345682Y-17774344D01*
X10345682Y-17774344D02*
X10364729Y-17783868D01*
X10364729Y-17783868D02*
X10374253Y-17793391D01*
X10374253Y-17793391D02*
X10383777Y-17812439D01*
X10383777Y-17812439D02*
X10393301Y-17850534D01*
X10393301Y-17850534D02*
X10393301Y-17898153D01*
X10393301Y-17898153D02*
X10383777Y-17936249D01*
X10383777Y-17936249D02*
X10374253Y-17955296D01*
X10374253Y-17955296D02*
X10364729Y-17964820D01*
X10364729Y-17964820D02*
X10345682Y-17974344D01*
X10345682Y-17974344D02*
X10326634Y-17974344D01*
X10326634Y-17974344D02*
X10307587Y-17964820D01*
X10307587Y-17964820D02*
X10298063Y-17955296D01*
X10298063Y-17955296D02*
X10288539Y-17936249D01*
X10288539Y-17936249D02*
X10279015Y-17898153D01*
X10279015Y-17898153D02*
X10279015Y-17850534D01*
X10279015Y-17850534D02*
X10288539Y-17812439D01*
X10288539Y-17812439D02*
X10298063Y-17793391D01*
X10298063Y-17793391D02*
X10307587Y-17783868D01*
X10307587Y-17783868D02*
X10326634Y-17774344D01*
X10479015Y-17955296D02*
X10488539Y-17964820D01*
X10488539Y-17964820D02*
X10479015Y-17974344D01*
X10479015Y-17974344D02*
X10469491Y-17964820D01*
X10469491Y-17964820D02*
X10479015Y-17955296D01*
X10479015Y-17955296D02*
X10479015Y-17974344D01*
X10612348Y-17774344D02*
X10631396Y-17774344D01*
X10631396Y-17774344D02*
X10650444Y-17783868D01*
X10650444Y-17783868D02*
X10659968Y-17793391D01*
X10659968Y-17793391D02*
X10669491Y-17812439D01*
X10669491Y-17812439D02*
X10679015Y-17850534D01*
X10679015Y-17850534D02*
X10679015Y-17898153D01*
X10679015Y-17898153D02*
X10669491Y-17936249D01*
X10669491Y-17936249D02*
X10659968Y-17955296D01*
X10659968Y-17955296D02*
X10650444Y-17964820D01*
X10650444Y-17964820D02*
X10631396Y-17974344D01*
X10631396Y-17974344D02*
X10612348Y-17974344D01*
X10612348Y-17974344D02*
X10593301Y-17964820D01*
X10593301Y-17964820D02*
X10583777Y-17955296D01*
X10583777Y-17955296D02*
X10574253Y-17936249D01*
X10574253Y-17936249D02*
X10564729Y-17898153D01*
X10564729Y-17898153D02*
X10564729Y-17850534D01*
X10564729Y-17850534D02*
X10574253Y-17812439D01*
X10574253Y-17812439D02*
X10583777Y-17793391D01*
X10583777Y-17793391D02*
X10593301Y-17783868D01*
X10593301Y-17783868D02*
X10612348Y-17774344D01*
X10859968Y-17774344D02*
X10764729Y-17774344D01*
X10764729Y-17774344D02*
X10755206Y-17869582D01*
X10755206Y-17869582D02*
X10764729Y-17860058D01*
X10764729Y-17860058D02*
X10783777Y-17850534D01*
X10783777Y-17850534D02*
X10831396Y-17850534D01*
X10831396Y-17850534D02*
X10850444Y-17860058D01*
X10850444Y-17860058D02*
X10859968Y-17869582D01*
X10859968Y-17869582D02*
X10869491Y-17888630D01*
X10869491Y-17888630D02*
X10869491Y-17936249D01*
X10869491Y-17936249D02*
X10859968Y-17955296D01*
X10859968Y-17955296D02*
X10850444Y-17964820D01*
X10850444Y-17964820D02*
X10831396Y-17974344D01*
X10831396Y-17974344D02*
X10783777Y-17974344D01*
X10783777Y-17974344D02*
X10764729Y-17964820D01*
X10764729Y-17964820D02*
X10755206Y-17955296D01*
X11050444Y-17774344D02*
X10955206Y-17774344D01*
X10955206Y-17774344D02*
X10945682Y-17869582D01*
X10945682Y-17869582D02*
X10955206Y-17860058D01*
X10955206Y-17860058D02*
X10974253Y-17850534D01*
X10974253Y-17850534D02*
X11021872Y-17850534D01*
X11021872Y-17850534D02*
X11040920Y-17860058D01*
X11040920Y-17860058D02*
X11050444Y-17869582D01*
X11050444Y-17869582D02*
X11059968Y-17888630D01*
X11059968Y-17888630D02*
X11059968Y-17936249D01*
X11059968Y-17936249D02*
X11050444Y-17955296D01*
X11050444Y-17955296D02*
X11040920Y-17964820D01*
X11040920Y-17964820D02*
X11021872Y-17974344D01*
X11021872Y-17974344D02*
X10974253Y-17974344D01*
X10974253Y-17974344D02*
X10955206Y-17964820D01*
X10955206Y-17964820D02*
X10945682Y-17955296D01*
X11155206Y-17974344D02*
X11193301Y-17974344D01*
X11193301Y-17974344D02*
X11212348Y-17964820D01*
X11212348Y-17964820D02*
X11221872Y-17955296D01*
X11221872Y-17955296D02*
X11240920Y-17926725D01*
X11240920Y-17926725D02*
X11250444Y-17888630D01*
X11250444Y-17888630D02*
X11250444Y-17812439D01*
X11250444Y-17812439D02*
X11240920Y-17793391D01*
X11240920Y-17793391D02*
X11231396Y-17783868D01*
X11231396Y-17783868D02*
X11212348Y-17774344D01*
X11212348Y-17774344D02*
X11174253Y-17774344D01*
X11174253Y-17774344D02*
X11155206Y-17783868D01*
X11155206Y-17783868D02*
X11145682Y-17793391D01*
X11145682Y-17793391D02*
X11136158Y-17812439D01*
X11136158Y-17812439D02*
X11136158Y-17860058D01*
X11136158Y-17860058D02*
X11145682Y-17879106D01*
X11145682Y-17879106D02*
X11155206Y-17888630D01*
X11155206Y-17888630D02*
X11174253Y-17898153D01*
X11174253Y-17898153D02*
X11212348Y-17898153D01*
X11212348Y-17898153D02*
X11231396Y-17888630D01*
X11231396Y-17888630D02*
X11240920Y-17879106D01*
X11240920Y-17879106D02*
X11250444Y-17860058D01*
X11326634Y-17774344D02*
X11326634Y-17812439D01*
X11402825Y-17774344D02*
X11402825Y-17812439D01*
X11698063Y-18050534D02*
X11688539Y-18041010D01*
X11688539Y-18041010D02*
X11669491Y-18012439D01*
X11669491Y-18012439D02*
X11659968Y-17993391D01*
X11659968Y-17993391D02*
X11650444Y-17964820D01*
X11650444Y-17964820D02*
X11640920Y-17917201D01*
X11640920Y-17917201D02*
X11640920Y-17879106D01*
X11640920Y-17879106D02*
X11650444Y-17831487D01*
X11650444Y-17831487D02*
X11659968Y-17802915D01*
X11659968Y-17802915D02*
X11669491Y-17783868D01*
X11669491Y-17783868D02*
X11688539Y-17755296D01*
X11688539Y-17755296D02*
X11698063Y-17745772D01*
X11802825Y-17860058D02*
X11783777Y-17850534D01*
X11783777Y-17850534D02*
X11774253Y-17841010D01*
X11774253Y-17841010D02*
X11764729Y-17821963D01*
X11764729Y-17821963D02*
X11764729Y-17812439D01*
X11764729Y-17812439D02*
X11774253Y-17793391D01*
X11774253Y-17793391D02*
X11783777Y-17783868D01*
X11783777Y-17783868D02*
X11802825Y-17774344D01*
X11802825Y-17774344D02*
X11840920Y-17774344D01*
X11840920Y-17774344D02*
X11859968Y-17783868D01*
X11859968Y-17783868D02*
X11869491Y-17793391D01*
X11869491Y-17793391D02*
X11879015Y-17812439D01*
X11879015Y-17812439D02*
X11879015Y-17821963D01*
X11879015Y-17821963D02*
X11869491Y-17841010D01*
X11869491Y-17841010D02*
X11859968Y-17850534D01*
X11859968Y-17850534D02*
X11840920Y-17860058D01*
X11840920Y-17860058D02*
X11802825Y-17860058D01*
X11802825Y-17860058D02*
X11783777Y-17869582D01*
X11783777Y-17869582D02*
X11774253Y-17879106D01*
X11774253Y-17879106D02*
X11764729Y-17898153D01*
X11764729Y-17898153D02*
X11764729Y-17936249D01*
X11764729Y-17936249D02*
X11774253Y-17955296D01*
X11774253Y-17955296D02*
X11783777Y-17964820D01*
X11783777Y-17964820D02*
X11802825Y-17974344D01*
X11802825Y-17974344D02*
X11840920Y-17974344D01*
X11840920Y-17974344D02*
X11859968Y-17964820D01*
X11859968Y-17964820D02*
X11869491Y-17955296D01*
X11869491Y-17955296D02*
X11879015Y-17936249D01*
X11879015Y-17936249D02*
X11879015Y-17898153D01*
X11879015Y-17898153D02*
X11869491Y-17879106D01*
X11869491Y-17879106D02*
X11859968Y-17869582D01*
X11859968Y-17869582D02*
X11840920Y-17860058D01*
X12117110Y-17974344D02*
X12117110Y-17774344D01*
X12202825Y-17974344D02*
X12202825Y-17869582D01*
X12202825Y-17869582D02*
X12193301Y-17850534D01*
X12193301Y-17850534D02*
X12174253Y-17841010D01*
X12174253Y-17841010D02*
X12145682Y-17841010D01*
X12145682Y-17841010D02*
X12126634Y-17850534D01*
X12126634Y-17850534D02*
X12117110Y-17860058D01*
X12326634Y-17974344D02*
X12307587Y-17964820D01*
X12307587Y-17964820D02*
X12298063Y-17955296D01*
X12298063Y-17955296D02*
X12288539Y-17936249D01*
X12288539Y-17936249D02*
X12288539Y-17879106D01*
X12288539Y-17879106D02*
X12298063Y-17860058D01*
X12298063Y-17860058D02*
X12307587Y-17850534D01*
X12307587Y-17850534D02*
X12326634Y-17841010D01*
X12326634Y-17841010D02*
X12355206Y-17841010D01*
X12355206Y-17841010D02*
X12374253Y-17850534D01*
X12374253Y-17850534D02*
X12383777Y-17860058D01*
X12383777Y-17860058D02*
X12393301Y-17879106D01*
X12393301Y-17879106D02*
X12393301Y-17936249D01*
X12393301Y-17936249D02*
X12383777Y-17955296D01*
X12383777Y-17955296D02*
X12374253Y-17964820D01*
X12374253Y-17964820D02*
X12355206Y-17974344D01*
X12355206Y-17974344D02*
X12326634Y-17974344D01*
X12507587Y-17974344D02*
X12488539Y-17964820D01*
X12488539Y-17964820D02*
X12479015Y-17945772D01*
X12479015Y-17945772D02*
X12479015Y-17774344D01*
X12659968Y-17964820D02*
X12640920Y-17974344D01*
X12640920Y-17974344D02*
X12602825Y-17974344D01*
X12602825Y-17974344D02*
X12583777Y-17964820D01*
X12583777Y-17964820D02*
X12574253Y-17945772D01*
X12574253Y-17945772D02*
X12574253Y-17869582D01*
X12574253Y-17869582D02*
X12583777Y-17850534D01*
X12583777Y-17850534D02*
X12602825Y-17841010D01*
X12602825Y-17841010D02*
X12640920Y-17841010D01*
X12640920Y-17841010D02*
X12659968Y-17850534D01*
X12659968Y-17850534D02*
X12669491Y-17869582D01*
X12669491Y-17869582D02*
X12669491Y-17888630D01*
X12669491Y-17888630D02*
X12574253Y-17907677D01*
X12745682Y-17964820D02*
X12764730Y-17974344D01*
X12764730Y-17974344D02*
X12802825Y-17974344D01*
X12802825Y-17974344D02*
X12821872Y-17964820D01*
X12821872Y-17964820D02*
X12831396Y-17945772D01*
X12831396Y-17945772D02*
X12831396Y-17936249D01*
X12831396Y-17936249D02*
X12821872Y-17917201D01*
X12821872Y-17917201D02*
X12802825Y-17907677D01*
X12802825Y-17907677D02*
X12774253Y-17907677D01*
X12774253Y-17907677D02*
X12755206Y-17898153D01*
X12755206Y-17898153D02*
X12745682Y-17879106D01*
X12745682Y-17879106D02*
X12745682Y-17869582D01*
X12745682Y-17869582D02*
X12755206Y-17850534D01*
X12755206Y-17850534D02*
X12774253Y-17841010D01*
X12774253Y-17841010D02*
X12802825Y-17841010D01*
X12802825Y-17841010D02*
X12821872Y-17850534D01*
X12898063Y-18050534D02*
X12907587Y-18041010D01*
X12907587Y-18041010D02*
X12926634Y-18012439D01*
X12926634Y-18012439D02*
X12936158Y-17993391D01*
X12936158Y-17993391D02*
X12945682Y-17964820D01*
X12945682Y-17964820D02*
X12955206Y-17917201D01*
X12955206Y-17917201D02*
X12955206Y-17879106D01*
X12955206Y-17879106D02*
X12945682Y-17831487D01*
X12945682Y-17831487D02*
X12936158Y-17802915D01*
X12936158Y-17802915D02*
X12926634Y-17783868D01*
X12926634Y-17783868D02*
X12907587Y-17755296D01*
X12907587Y-17755296D02*
X12898063Y-17745772D01*
D15*
X7980000Y-18075360D02*
X8123000Y-18218360D01*
X8123000Y-18075360D02*
X7980000Y-18218360D01*
X8051500Y-18218360D02*
X8123000Y-18146860D01*
X8051500Y-18075360D01*
X7980000Y-18146860D01*
X8051500Y-18218360D01*
D11*
X8488539Y-18238344D02*
X8374253Y-18238344D01*
X8431396Y-18238344D02*
X8431396Y-18038344D01*
X8431396Y-18038344D02*
X8412348Y-18066915D01*
X8412348Y-18066915D02*
X8393301Y-18085963D01*
X8393301Y-18085963D02*
X8374253Y-18095487D01*
X8574253Y-18219296D02*
X8583777Y-18228820D01*
X8583777Y-18228820D02*
X8574253Y-18238344D01*
X8574253Y-18238344D02*
X8564729Y-18228820D01*
X8564729Y-18228820D02*
X8574253Y-18219296D01*
X8574253Y-18219296D02*
X8574253Y-18238344D01*
X8755205Y-18105010D02*
X8755205Y-18238344D01*
X8707586Y-18028820D02*
X8659967Y-18171677D01*
X8659967Y-18171677D02*
X8783777Y-18171677D01*
X8840920Y-18038344D02*
X8964729Y-18038344D01*
X8964729Y-18038344D02*
X8898063Y-18114534D01*
X8898063Y-18114534D02*
X8926634Y-18114534D01*
X8926634Y-18114534D02*
X8945682Y-18124058D01*
X8945682Y-18124058D02*
X8955205Y-18133582D01*
X8955205Y-18133582D02*
X8964729Y-18152630D01*
X8964729Y-18152630D02*
X8964729Y-18200249D01*
X8964729Y-18200249D02*
X8955205Y-18219296D01*
X8955205Y-18219296D02*
X8945682Y-18228820D01*
X8945682Y-18228820D02*
X8926634Y-18238344D01*
X8926634Y-18238344D02*
X8869491Y-18238344D01*
X8869491Y-18238344D02*
X8850444Y-18228820D01*
X8850444Y-18228820D02*
X8840920Y-18219296D01*
X9088539Y-18038344D02*
X9107586Y-18038344D01*
X9107586Y-18038344D02*
X9126634Y-18047868D01*
X9126634Y-18047868D02*
X9136158Y-18057391D01*
X9136158Y-18057391D02*
X9145682Y-18076439D01*
X9145682Y-18076439D02*
X9155205Y-18114534D01*
X9155205Y-18114534D02*
X9155205Y-18162153D01*
X9155205Y-18162153D02*
X9145682Y-18200249D01*
X9145682Y-18200249D02*
X9136158Y-18219296D01*
X9136158Y-18219296D02*
X9126634Y-18228820D01*
X9126634Y-18228820D02*
X9107586Y-18238344D01*
X9107586Y-18238344D02*
X9088539Y-18238344D01*
X9088539Y-18238344D02*
X9069491Y-18228820D01*
X9069491Y-18228820D02*
X9059967Y-18219296D01*
X9059967Y-18219296D02*
X9050444Y-18200249D01*
X9050444Y-18200249D02*
X9040920Y-18162153D01*
X9040920Y-18162153D02*
X9040920Y-18114534D01*
X9040920Y-18114534D02*
X9050444Y-18076439D01*
X9050444Y-18076439D02*
X9059967Y-18057391D01*
X9059967Y-18057391D02*
X9069491Y-18047868D01*
X9069491Y-18047868D02*
X9088539Y-18038344D01*
X9240920Y-18238344D02*
X9240920Y-18105010D01*
X9240920Y-18124058D02*
X9250444Y-18114534D01*
X9250444Y-18114534D02*
X9269491Y-18105010D01*
X9269491Y-18105010D02*
X9298063Y-18105010D01*
X9298063Y-18105010D02*
X9317110Y-18114534D01*
X9317110Y-18114534D02*
X9326634Y-18133582D01*
X9326634Y-18133582D02*
X9326634Y-18238344D01*
X9326634Y-18133582D02*
X9336158Y-18114534D01*
X9336158Y-18114534D02*
X9355205Y-18105010D01*
X9355205Y-18105010D02*
X9383777Y-18105010D01*
X9383777Y-18105010D02*
X9402825Y-18114534D01*
X9402825Y-18114534D02*
X9412348Y-18133582D01*
X9412348Y-18133582D02*
X9412348Y-18238344D01*
X9507586Y-18238344D02*
X9507586Y-18105010D01*
X9507586Y-18124058D02*
X9517110Y-18114534D01*
X9517110Y-18114534D02*
X9536158Y-18105010D01*
X9536158Y-18105010D02*
X9564729Y-18105010D01*
X9564729Y-18105010D02*
X9583777Y-18114534D01*
X9583777Y-18114534D02*
X9593301Y-18133582D01*
X9593301Y-18133582D02*
X9593301Y-18238344D01*
X9593301Y-18133582D02*
X9602825Y-18114534D01*
X9602825Y-18114534D02*
X9621872Y-18105010D01*
X9621872Y-18105010D02*
X9650444Y-18105010D01*
X9650444Y-18105010D02*
X9669491Y-18114534D01*
X9669491Y-18114534D02*
X9679015Y-18133582D01*
X9679015Y-18133582D02*
X9679015Y-18238344D01*
X10069491Y-18028820D02*
X9898063Y-18285963D01*
X10326634Y-18038344D02*
X10345682Y-18038344D01*
X10345682Y-18038344D02*
X10364729Y-18047868D01*
X10364729Y-18047868D02*
X10374253Y-18057391D01*
X10374253Y-18057391D02*
X10383777Y-18076439D01*
X10383777Y-18076439D02*
X10393301Y-18114534D01*
X10393301Y-18114534D02*
X10393301Y-18162153D01*
X10393301Y-18162153D02*
X10383777Y-18200249D01*
X10383777Y-18200249D02*
X10374253Y-18219296D01*
X10374253Y-18219296D02*
X10364729Y-18228820D01*
X10364729Y-18228820D02*
X10345682Y-18238344D01*
X10345682Y-18238344D02*
X10326634Y-18238344D01*
X10326634Y-18238344D02*
X10307587Y-18228820D01*
X10307587Y-18228820D02*
X10298063Y-18219296D01*
X10298063Y-18219296D02*
X10288539Y-18200249D01*
X10288539Y-18200249D02*
X10279015Y-18162153D01*
X10279015Y-18162153D02*
X10279015Y-18114534D01*
X10279015Y-18114534D02*
X10288539Y-18076439D01*
X10288539Y-18076439D02*
X10298063Y-18057391D01*
X10298063Y-18057391D02*
X10307587Y-18047868D01*
X10307587Y-18047868D02*
X10326634Y-18038344D01*
X10479015Y-18219296D02*
X10488539Y-18228820D01*
X10488539Y-18228820D02*
X10479015Y-18238344D01*
X10479015Y-18238344D02*
X10469491Y-18228820D01*
X10469491Y-18228820D02*
X10479015Y-18219296D01*
X10479015Y-18219296D02*
X10479015Y-18238344D01*
X10612348Y-18038344D02*
X10631396Y-18038344D01*
X10631396Y-18038344D02*
X10650444Y-18047868D01*
X10650444Y-18047868D02*
X10659968Y-18057391D01*
X10659968Y-18057391D02*
X10669491Y-18076439D01*
X10669491Y-18076439D02*
X10679015Y-18114534D01*
X10679015Y-18114534D02*
X10679015Y-18162153D01*
X10679015Y-18162153D02*
X10669491Y-18200249D01*
X10669491Y-18200249D02*
X10659968Y-18219296D01*
X10659968Y-18219296D02*
X10650444Y-18228820D01*
X10650444Y-18228820D02*
X10631396Y-18238344D01*
X10631396Y-18238344D02*
X10612348Y-18238344D01*
X10612348Y-18238344D02*
X10593301Y-18228820D01*
X10593301Y-18228820D02*
X10583777Y-18219296D01*
X10583777Y-18219296D02*
X10574253Y-18200249D01*
X10574253Y-18200249D02*
X10564729Y-18162153D01*
X10564729Y-18162153D02*
X10564729Y-18114534D01*
X10564729Y-18114534D02*
X10574253Y-18076439D01*
X10574253Y-18076439D02*
X10583777Y-18057391D01*
X10583777Y-18057391D02*
X10593301Y-18047868D01*
X10593301Y-18047868D02*
X10612348Y-18038344D01*
X10859968Y-18038344D02*
X10764729Y-18038344D01*
X10764729Y-18038344D02*
X10755206Y-18133582D01*
X10755206Y-18133582D02*
X10764729Y-18124058D01*
X10764729Y-18124058D02*
X10783777Y-18114534D01*
X10783777Y-18114534D02*
X10831396Y-18114534D01*
X10831396Y-18114534D02*
X10850444Y-18124058D01*
X10850444Y-18124058D02*
X10859968Y-18133582D01*
X10859968Y-18133582D02*
X10869491Y-18152630D01*
X10869491Y-18152630D02*
X10869491Y-18200249D01*
X10869491Y-18200249D02*
X10859968Y-18219296D01*
X10859968Y-18219296D02*
X10850444Y-18228820D01*
X10850444Y-18228820D02*
X10831396Y-18238344D01*
X10831396Y-18238344D02*
X10783777Y-18238344D01*
X10783777Y-18238344D02*
X10764729Y-18228820D01*
X10764729Y-18228820D02*
X10755206Y-18219296D01*
X11040920Y-18038344D02*
X11002825Y-18038344D01*
X11002825Y-18038344D02*
X10983777Y-18047868D01*
X10983777Y-18047868D02*
X10974253Y-18057391D01*
X10974253Y-18057391D02*
X10955206Y-18085963D01*
X10955206Y-18085963D02*
X10945682Y-18124058D01*
X10945682Y-18124058D02*
X10945682Y-18200249D01*
X10945682Y-18200249D02*
X10955206Y-18219296D01*
X10955206Y-18219296D02*
X10964729Y-18228820D01*
X10964729Y-18228820D02*
X10983777Y-18238344D01*
X10983777Y-18238344D02*
X11021872Y-18238344D01*
X11021872Y-18238344D02*
X11040920Y-18228820D01*
X11040920Y-18228820D02*
X11050444Y-18219296D01*
X11050444Y-18219296D02*
X11059968Y-18200249D01*
X11059968Y-18200249D02*
X11059968Y-18152630D01*
X11059968Y-18152630D02*
X11050444Y-18133582D01*
X11050444Y-18133582D02*
X11040920Y-18124058D01*
X11040920Y-18124058D02*
X11021872Y-18114534D01*
X11021872Y-18114534D02*
X10983777Y-18114534D01*
X10983777Y-18114534D02*
X10964729Y-18124058D01*
X10964729Y-18124058D02*
X10955206Y-18133582D01*
X10955206Y-18133582D02*
X10945682Y-18152630D01*
X11126634Y-18038344D02*
X11250444Y-18038344D01*
X11250444Y-18038344D02*
X11183777Y-18114534D01*
X11183777Y-18114534D02*
X11212348Y-18114534D01*
X11212348Y-18114534D02*
X11231396Y-18124058D01*
X11231396Y-18124058D02*
X11240920Y-18133582D01*
X11240920Y-18133582D02*
X11250444Y-18152630D01*
X11250444Y-18152630D02*
X11250444Y-18200249D01*
X11250444Y-18200249D02*
X11240920Y-18219296D01*
X11240920Y-18219296D02*
X11231396Y-18228820D01*
X11231396Y-18228820D02*
X11212348Y-18238344D01*
X11212348Y-18238344D02*
X11155206Y-18238344D01*
X11155206Y-18238344D02*
X11136158Y-18228820D01*
X11136158Y-18228820D02*
X11126634Y-18219296D01*
X11326634Y-18038344D02*
X11326634Y-18076439D01*
X11402825Y-18038344D02*
X11402825Y-18076439D01*
X11698063Y-18314534D02*
X11688539Y-18305010D01*
X11688539Y-18305010D02*
X11669491Y-18276439D01*
X11669491Y-18276439D02*
X11659968Y-18257391D01*
X11659968Y-18257391D02*
X11650444Y-18228820D01*
X11650444Y-18228820D02*
X11640920Y-18181201D01*
X11640920Y-18181201D02*
X11640920Y-18143106D01*
X11640920Y-18143106D02*
X11650444Y-18095487D01*
X11650444Y-18095487D02*
X11659968Y-18066915D01*
X11659968Y-18066915D02*
X11669491Y-18047868D01*
X11669491Y-18047868D02*
X11688539Y-18019296D01*
X11688539Y-18019296D02*
X11698063Y-18009772D01*
X11802825Y-18124058D02*
X11783777Y-18114534D01*
X11783777Y-18114534D02*
X11774253Y-18105010D01*
X11774253Y-18105010D02*
X11764729Y-18085963D01*
X11764729Y-18085963D02*
X11764729Y-18076439D01*
X11764729Y-18076439D02*
X11774253Y-18057391D01*
X11774253Y-18057391D02*
X11783777Y-18047868D01*
X11783777Y-18047868D02*
X11802825Y-18038344D01*
X11802825Y-18038344D02*
X11840920Y-18038344D01*
X11840920Y-18038344D02*
X11859968Y-18047868D01*
X11859968Y-18047868D02*
X11869491Y-18057391D01*
X11869491Y-18057391D02*
X11879015Y-18076439D01*
X11879015Y-18076439D02*
X11879015Y-18085963D01*
X11879015Y-18085963D02*
X11869491Y-18105010D01*
X11869491Y-18105010D02*
X11859968Y-18114534D01*
X11859968Y-18114534D02*
X11840920Y-18124058D01*
X11840920Y-18124058D02*
X11802825Y-18124058D01*
X11802825Y-18124058D02*
X11783777Y-18133582D01*
X11783777Y-18133582D02*
X11774253Y-18143106D01*
X11774253Y-18143106D02*
X11764729Y-18162153D01*
X11764729Y-18162153D02*
X11764729Y-18200249D01*
X11764729Y-18200249D02*
X11774253Y-18219296D01*
X11774253Y-18219296D02*
X11783777Y-18228820D01*
X11783777Y-18228820D02*
X11802825Y-18238344D01*
X11802825Y-18238344D02*
X11840920Y-18238344D01*
X11840920Y-18238344D02*
X11859968Y-18228820D01*
X11859968Y-18228820D02*
X11869491Y-18219296D01*
X11869491Y-18219296D02*
X11879015Y-18200249D01*
X11879015Y-18200249D02*
X11879015Y-18162153D01*
X11879015Y-18162153D02*
X11869491Y-18143106D01*
X11869491Y-18143106D02*
X11859968Y-18133582D01*
X11859968Y-18133582D02*
X11840920Y-18124058D01*
X12117110Y-18238344D02*
X12117110Y-18038344D01*
X12202825Y-18238344D02*
X12202825Y-18133582D01*
X12202825Y-18133582D02*
X12193301Y-18114534D01*
X12193301Y-18114534D02*
X12174253Y-18105010D01*
X12174253Y-18105010D02*
X12145682Y-18105010D01*
X12145682Y-18105010D02*
X12126634Y-18114534D01*
X12126634Y-18114534D02*
X12117110Y-18124058D01*
X12326634Y-18238344D02*
X12307587Y-18228820D01*
X12307587Y-18228820D02*
X12298063Y-18219296D01*
X12298063Y-18219296D02*
X12288539Y-18200249D01*
X12288539Y-18200249D02*
X12288539Y-18143106D01*
X12288539Y-18143106D02*
X12298063Y-18124058D01*
X12298063Y-18124058D02*
X12307587Y-18114534D01*
X12307587Y-18114534D02*
X12326634Y-18105010D01*
X12326634Y-18105010D02*
X12355206Y-18105010D01*
X12355206Y-18105010D02*
X12374253Y-18114534D01*
X12374253Y-18114534D02*
X12383777Y-18124058D01*
X12383777Y-18124058D02*
X12393301Y-18143106D01*
X12393301Y-18143106D02*
X12393301Y-18200249D01*
X12393301Y-18200249D02*
X12383777Y-18219296D01*
X12383777Y-18219296D02*
X12374253Y-18228820D01*
X12374253Y-18228820D02*
X12355206Y-18238344D01*
X12355206Y-18238344D02*
X12326634Y-18238344D01*
X12507587Y-18238344D02*
X12488539Y-18228820D01*
X12488539Y-18228820D02*
X12479015Y-18209772D01*
X12479015Y-18209772D02*
X12479015Y-18038344D01*
X12659968Y-18228820D02*
X12640920Y-18238344D01*
X12640920Y-18238344D02*
X12602825Y-18238344D01*
X12602825Y-18238344D02*
X12583777Y-18228820D01*
X12583777Y-18228820D02*
X12574253Y-18209772D01*
X12574253Y-18209772D02*
X12574253Y-18133582D01*
X12574253Y-18133582D02*
X12583777Y-18114534D01*
X12583777Y-18114534D02*
X12602825Y-18105010D01*
X12602825Y-18105010D02*
X12640920Y-18105010D01*
X12640920Y-18105010D02*
X12659968Y-18114534D01*
X12659968Y-18114534D02*
X12669491Y-18133582D01*
X12669491Y-18133582D02*
X12669491Y-18152630D01*
X12669491Y-18152630D02*
X12574253Y-18171677D01*
X12745682Y-18228820D02*
X12764730Y-18238344D01*
X12764730Y-18238344D02*
X12802825Y-18238344D01*
X12802825Y-18238344D02*
X12821872Y-18228820D01*
X12821872Y-18228820D02*
X12831396Y-18209772D01*
X12831396Y-18209772D02*
X12831396Y-18200249D01*
X12831396Y-18200249D02*
X12821872Y-18181201D01*
X12821872Y-18181201D02*
X12802825Y-18171677D01*
X12802825Y-18171677D02*
X12774253Y-18171677D01*
X12774253Y-18171677D02*
X12755206Y-18162153D01*
X12755206Y-18162153D02*
X12745682Y-18143106D01*
X12745682Y-18143106D02*
X12745682Y-18133582D01*
X12745682Y-18133582D02*
X12755206Y-18114534D01*
X12755206Y-18114534D02*
X12774253Y-18105010D01*
X12774253Y-18105010D02*
X12802825Y-18105010D01*
X12802825Y-18105010D02*
X12821872Y-18114534D01*
X12898063Y-18314534D02*
X12907587Y-18305010D01*
X12907587Y-18305010D02*
X12926634Y-18276439D01*
X12926634Y-18276439D02*
X12936158Y-18257391D01*
X12936158Y-18257391D02*
X12945682Y-18228820D01*
X12945682Y-18228820D02*
X12955206Y-18181201D01*
X12955206Y-18181201D02*
X12955206Y-18143106D01*
X12955206Y-18143106D02*
X12945682Y-18095487D01*
X12945682Y-18095487D02*
X12936158Y-18066915D01*
X12936158Y-18066915D02*
X12926634Y-18047868D01*
X12926634Y-18047868D02*
X12907587Y-18019296D01*
X12907587Y-18019296D02*
X12898063Y-18009772D01*
D16*
X8048000Y-18335860D02*
X8048000Y-18485860D01*
X7973000Y-18410860D02*
X8123000Y-18410860D01*
X8123000Y-18410860D02*
G75*
G03*
X8123000Y-18410860I-75000J0D01*
G01*
D11*
X8488539Y-18502344D02*
X8374253Y-18502344D01*
X8431396Y-18502344D02*
X8431396Y-18302344D01*
X8431396Y-18302344D02*
X8412348Y-18330915D01*
X8412348Y-18330915D02*
X8393301Y-18349963D01*
X8393301Y-18349963D02*
X8374253Y-18359487D01*
X8574253Y-18483296D02*
X8583777Y-18492820D01*
X8583777Y-18492820D02*
X8574253Y-18502344D01*
X8574253Y-18502344D02*
X8564729Y-18492820D01*
X8564729Y-18492820D02*
X8574253Y-18483296D01*
X8574253Y-18483296D02*
X8574253Y-18502344D01*
X8764729Y-18302344D02*
X8669491Y-18302344D01*
X8669491Y-18302344D02*
X8659967Y-18397582D01*
X8659967Y-18397582D02*
X8669491Y-18388058D01*
X8669491Y-18388058D02*
X8688539Y-18378534D01*
X8688539Y-18378534D02*
X8736158Y-18378534D01*
X8736158Y-18378534D02*
X8755205Y-18388058D01*
X8755205Y-18388058D02*
X8764729Y-18397582D01*
X8764729Y-18397582D02*
X8774253Y-18416630D01*
X8774253Y-18416630D02*
X8774253Y-18464249D01*
X8774253Y-18464249D02*
X8764729Y-18483296D01*
X8764729Y-18483296D02*
X8755205Y-18492820D01*
X8755205Y-18492820D02*
X8736158Y-18502344D01*
X8736158Y-18502344D02*
X8688539Y-18502344D01*
X8688539Y-18502344D02*
X8669491Y-18492820D01*
X8669491Y-18492820D02*
X8659967Y-18483296D01*
X8898063Y-18302344D02*
X8917110Y-18302344D01*
X8917110Y-18302344D02*
X8936158Y-18311868D01*
X8936158Y-18311868D02*
X8945682Y-18321391D01*
X8945682Y-18321391D02*
X8955205Y-18340439D01*
X8955205Y-18340439D02*
X8964729Y-18378534D01*
X8964729Y-18378534D02*
X8964729Y-18426153D01*
X8964729Y-18426153D02*
X8955205Y-18464249D01*
X8955205Y-18464249D02*
X8945682Y-18483296D01*
X8945682Y-18483296D02*
X8936158Y-18492820D01*
X8936158Y-18492820D02*
X8917110Y-18502344D01*
X8917110Y-18502344D02*
X8898063Y-18502344D01*
X8898063Y-18502344D02*
X8879015Y-18492820D01*
X8879015Y-18492820D02*
X8869491Y-18483296D01*
X8869491Y-18483296D02*
X8859967Y-18464249D01*
X8859967Y-18464249D02*
X8850444Y-18426153D01*
X8850444Y-18426153D02*
X8850444Y-18378534D01*
X8850444Y-18378534D02*
X8859967Y-18340439D01*
X8859967Y-18340439D02*
X8869491Y-18321391D01*
X8869491Y-18321391D02*
X8879015Y-18311868D01*
X8879015Y-18311868D02*
X8898063Y-18302344D01*
X9088539Y-18302344D02*
X9107586Y-18302344D01*
X9107586Y-18302344D02*
X9126634Y-18311868D01*
X9126634Y-18311868D02*
X9136158Y-18321391D01*
X9136158Y-18321391D02*
X9145682Y-18340439D01*
X9145682Y-18340439D02*
X9155205Y-18378534D01*
X9155205Y-18378534D02*
X9155205Y-18426153D01*
X9155205Y-18426153D02*
X9145682Y-18464249D01*
X9145682Y-18464249D02*
X9136158Y-18483296D01*
X9136158Y-18483296D02*
X9126634Y-18492820D01*
X9126634Y-18492820D02*
X9107586Y-18502344D01*
X9107586Y-18502344D02*
X9088539Y-18502344D01*
X9088539Y-18502344D02*
X9069491Y-18492820D01*
X9069491Y-18492820D02*
X9059967Y-18483296D01*
X9059967Y-18483296D02*
X9050444Y-18464249D01*
X9050444Y-18464249D02*
X9040920Y-18426153D01*
X9040920Y-18426153D02*
X9040920Y-18378534D01*
X9040920Y-18378534D02*
X9050444Y-18340439D01*
X9050444Y-18340439D02*
X9059967Y-18321391D01*
X9059967Y-18321391D02*
X9069491Y-18311868D01*
X9069491Y-18311868D02*
X9088539Y-18302344D01*
X9240920Y-18502344D02*
X9240920Y-18369010D01*
X9240920Y-18388058D02*
X9250444Y-18378534D01*
X9250444Y-18378534D02*
X9269491Y-18369010D01*
X9269491Y-18369010D02*
X9298063Y-18369010D01*
X9298063Y-18369010D02*
X9317110Y-18378534D01*
X9317110Y-18378534D02*
X9326634Y-18397582D01*
X9326634Y-18397582D02*
X9326634Y-18502344D01*
X9326634Y-18397582D02*
X9336158Y-18378534D01*
X9336158Y-18378534D02*
X9355205Y-18369010D01*
X9355205Y-18369010D02*
X9383777Y-18369010D01*
X9383777Y-18369010D02*
X9402825Y-18378534D01*
X9402825Y-18378534D02*
X9412348Y-18397582D01*
X9412348Y-18397582D02*
X9412348Y-18502344D01*
X9507586Y-18502344D02*
X9507586Y-18369010D01*
X9507586Y-18388058D02*
X9517110Y-18378534D01*
X9517110Y-18378534D02*
X9536158Y-18369010D01*
X9536158Y-18369010D02*
X9564729Y-18369010D01*
X9564729Y-18369010D02*
X9583777Y-18378534D01*
X9583777Y-18378534D02*
X9593301Y-18397582D01*
X9593301Y-18397582D02*
X9593301Y-18502344D01*
X9593301Y-18397582D02*
X9602825Y-18378534D01*
X9602825Y-18378534D02*
X9621872Y-18369010D01*
X9621872Y-18369010D02*
X9650444Y-18369010D01*
X9650444Y-18369010D02*
X9669491Y-18378534D01*
X9669491Y-18378534D02*
X9679015Y-18397582D01*
X9679015Y-18397582D02*
X9679015Y-18502344D01*
X10069491Y-18292820D02*
X9898063Y-18549963D01*
X10326634Y-18302344D02*
X10345682Y-18302344D01*
X10345682Y-18302344D02*
X10364729Y-18311868D01*
X10364729Y-18311868D02*
X10374253Y-18321391D01*
X10374253Y-18321391D02*
X10383777Y-18340439D01*
X10383777Y-18340439D02*
X10393301Y-18378534D01*
X10393301Y-18378534D02*
X10393301Y-18426153D01*
X10393301Y-18426153D02*
X10383777Y-18464249D01*
X10383777Y-18464249D02*
X10374253Y-18483296D01*
X10374253Y-18483296D02*
X10364729Y-18492820D01*
X10364729Y-18492820D02*
X10345682Y-18502344D01*
X10345682Y-18502344D02*
X10326634Y-18502344D01*
X10326634Y-18502344D02*
X10307587Y-18492820D01*
X10307587Y-18492820D02*
X10298063Y-18483296D01*
X10298063Y-18483296D02*
X10288539Y-18464249D01*
X10288539Y-18464249D02*
X10279015Y-18426153D01*
X10279015Y-18426153D02*
X10279015Y-18378534D01*
X10279015Y-18378534D02*
X10288539Y-18340439D01*
X10288539Y-18340439D02*
X10298063Y-18321391D01*
X10298063Y-18321391D02*
X10307587Y-18311868D01*
X10307587Y-18311868D02*
X10326634Y-18302344D01*
X10479015Y-18483296D02*
X10488539Y-18492820D01*
X10488539Y-18492820D02*
X10479015Y-18502344D01*
X10479015Y-18502344D02*
X10469491Y-18492820D01*
X10469491Y-18492820D02*
X10479015Y-18483296D01*
X10479015Y-18483296D02*
X10479015Y-18502344D01*
X10612348Y-18302344D02*
X10631396Y-18302344D01*
X10631396Y-18302344D02*
X10650444Y-18311868D01*
X10650444Y-18311868D02*
X10659968Y-18321391D01*
X10659968Y-18321391D02*
X10669491Y-18340439D01*
X10669491Y-18340439D02*
X10679015Y-18378534D01*
X10679015Y-18378534D02*
X10679015Y-18426153D01*
X10679015Y-18426153D02*
X10669491Y-18464249D01*
X10669491Y-18464249D02*
X10659968Y-18483296D01*
X10659968Y-18483296D02*
X10650444Y-18492820D01*
X10650444Y-18492820D02*
X10631396Y-18502344D01*
X10631396Y-18502344D02*
X10612348Y-18502344D01*
X10612348Y-18502344D02*
X10593301Y-18492820D01*
X10593301Y-18492820D02*
X10583777Y-18483296D01*
X10583777Y-18483296D02*
X10574253Y-18464249D01*
X10574253Y-18464249D02*
X10564729Y-18426153D01*
X10564729Y-18426153D02*
X10564729Y-18378534D01*
X10564729Y-18378534D02*
X10574253Y-18340439D01*
X10574253Y-18340439D02*
X10583777Y-18321391D01*
X10583777Y-18321391D02*
X10593301Y-18311868D01*
X10593301Y-18311868D02*
X10612348Y-18302344D01*
X10859968Y-18302344D02*
X10764729Y-18302344D01*
X10764729Y-18302344D02*
X10755206Y-18397582D01*
X10755206Y-18397582D02*
X10764729Y-18388058D01*
X10764729Y-18388058D02*
X10783777Y-18378534D01*
X10783777Y-18378534D02*
X10831396Y-18378534D01*
X10831396Y-18378534D02*
X10850444Y-18388058D01*
X10850444Y-18388058D02*
X10859968Y-18397582D01*
X10859968Y-18397582D02*
X10869491Y-18416630D01*
X10869491Y-18416630D02*
X10869491Y-18464249D01*
X10869491Y-18464249D02*
X10859968Y-18483296D01*
X10859968Y-18483296D02*
X10850444Y-18492820D01*
X10850444Y-18492820D02*
X10831396Y-18502344D01*
X10831396Y-18502344D02*
X10783777Y-18502344D01*
X10783777Y-18502344D02*
X10764729Y-18492820D01*
X10764729Y-18492820D02*
X10755206Y-18483296D01*
X10964729Y-18502344D02*
X11002825Y-18502344D01*
X11002825Y-18502344D02*
X11021872Y-18492820D01*
X11021872Y-18492820D02*
X11031396Y-18483296D01*
X11031396Y-18483296D02*
X11050444Y-18454725D01*
X11050444Y-18454725D02*
X11059968Y-18416630D01*
X11059968Y-18416630D02*
X11059968Y-18340439D01*
X11059968Y-18340439D02*
X11050444Y-18321391D01*
X11050444Y-18321391D02*
X11040920Y-18311868D01*
X11040920Y-18311868D02*
X11021872Y-18302344D01*
X11021872Y-18302344D02*
X10983777Y-18302344D01*
X10983777Y-18302344D02*
X10964729Y-18311868D01*
X10964729Y-18311868D02*
X10955206Y-18321391D01*
X10955206Y-18321391D02*
X10945682Y-18340439D01*
X10945682Y-18340439D02*
X10945682Y-18388058D01*
X10945682Y-18388058D02*
X10955206Y-18407106D01*
X10955206Y-18407106D02*
X10964729Y-18416630D01*
X10964729Y-18416630D02*
X10983777Y-18426153D01*
X10983777Y-18426153D02*
X11021872Y-18426153D01*
X11021872Y-18426153D02*
X11040920Y-18416630D01*
X11040920Y-18416630D02*
X11050444Y-18407106D01*
X11050444Y-18407106D02*
X11059968Y-18388058D01*
X11250444Y-18502344D02*
X11136158Y-18502344D01*
X11193301Y-18502344D02*
X11193301Y-18302344D01*
X11193301Y-18302344D02*
X11174253Y-18330915D01*
X11174253Y-18330915D02*
X11155206Y-18349963D01*
X11155206Y-18349963D02*
X11136158Y-18359487D01*
X11326634Y-18302344D02*
X11326634Y-18340439D01*
X11402825Y-18302344D02*
X11402825Y-18340439D01*
X11698063Y-18578534D02*
X11688539Y-18569010D01*
X11688539Y-18569010D02*
X11669491Y-18540439D01*
X11669491Y-18540439D02*
X11659968Y-18521391D01*
X11659968Y-18521391D02*
X11650444Y-18492820D01*
X11650444Y-18492820D02*
X11640920Y-18445201D01*
X11640920Y-18445201D02*
X11640920Y-18407106D01*
X11640920Y-18407106D02*
X11650444Y-18359487D01*
X11650444Y-18359487D02*
X11659968Y-18330915D01*
X11659968Y-18330915D02*
X11669491Y-18311868D01*
X11669491Y-18311868D02*
X11688539Y-18283296D01*
X11688539Y-18283296D02*
X11698063Y-18273772D01*
X11859968Y-18369010D02*
X11859968Y-18502344D01*
X11812348Y-18292820D02*
X11764729Y-18435677D01*
X11764729Y-18435677D02*
X11888539Y-18435677D01*
X12117110Y-18502344D02*
X12117110Y-18302344D01*
X12202825Y-18502344D02*
X12202825Y-18397582D01*
X12202825Y-18397582D02*
X12193301Y-18378534D01*
X12193301Y-18378534D02*
X12174253Y-18369010D01*
X12174253Y-18369010D02*
X12145682Y-18369010D01*
X12145682Y-18369010D02*
X12126634Y-18378534D01*
X12126634Y-18378534D02*
X12117110Y-18388058D01*
X12326634Y-18502344D02*
X12307587Y-18492820D01*
X12307587Y-18492820D02*
X12298063Y-18483296D01*
X12298063Y-18483296D02*
X12288539Y-18464249D01*
X12288539Y-18464249D02*
X12288539Y-18407106D01*
X12288539Y-18407106D02*
X12298063Y-18388058D01*
X12298063Y-18388058D02*
X12307587Y-18378534D01*
X12307587Y-18378534D02*
X12326634Y-18369010D01*
X12326634Y-18369010D02*
X12355206Y-18369010D01*
X12355206Y-18369010D02*
X12374253Y-18378534D01*
X12374253Y-18378534D02*
X12383777Y-18388058D01*
X12383777Y-18388058D02*
X12393301Y-18407106D01*
X12393301Y-18407106D02*
X12393301Y-18464249D01*
X12393301Y-18464249D02*
X12383777Y-18483296D01*
X12383777Y-18483296D02*
X12374253Y-18492820D01*
X12374253Y-18492820D02*
X12355206Y-18502344D01*
X12355206Y-18502344D02*
X12326634Y-18502344D01*
X12507587Y-18502344D02*
X12488539Y-18492820D01*
X12488539Y-18492820D02*
X12479015Y-18473772D01*
X12479015Y-18473772D02*
X12479015Y-18302344D01*
X12659968Y-18492820D02*
X12640920Y-18502344D01*
X12640920Y-18502344D02*
X12602825Y-18502344D01*
X12602825Y-18502344D02*
X12583777Y-18492820D01*
X12583777Y-18492820D02*
X12574253Y-18473772D01*
X12574253Y-18473772D02*
X12574253Y-18397582D01*
X12574253Y-18397582D02*
X12583777Y-18378534D01*
X12583777Y-18378534D02*
X12602825Y-18369010D01*
X12602825Y-18369010D02*
X12640920Y-18369010D01*
X12640920Y-18369010D02*
X12659968Y-18378534D01*
X12659968Y-18378534D02*
X12669491Y-18397582D01*
X12669491Y-18397582D02*
X12669491Y-18416630D01*
X12669491Y-18416630D02*
X12574253Y-18435677D01*
X12745682Y-18492820D02*
X12764730Y-18502344D01*
X12764730Y-18502344D02*
X12802825Y-18502344D01*
X12802825Y-18502344D02*
X12821872Y-18492820D01*
X12821872Y-18492820D02*
X12831396Y-18473772D01*
X12831396Y-18473772D02*
X12831396Y-18464249D01*
X12831396Y-18464249D02*
X12821872Y-18445201D01*
X12821872Y-18445201D02*
X12802825Y-18435677D01*
X12802825Y-18435677D02*
X12774253Y-18435677D01*
X12774253Y-18435677D02*
X12755206Y-18426153D01*
X12755206Y-18426153D02*
X12745682Y-18407106D01*
X12745682Y-18407106D02*
X12745682Y-18397582D01*
X12745682Y-18397582D02*
X12755206Y-18378534D01*
X12755206Y-18378534D02*
X12774253Y-18369010D01*
X12774253Y-18369010D02*
X12802825Y-18369010D01*
X12802825Y-18369010D02*
X12821872Y-18378534D01*
X12898063Y-18578534D02*
X12907587Y-18569010D01*
X12907587Y-18569010D02*
X12926634Y-18540439D01*
X12926634Y-18540439D02*
X12936158Y-18521391D01*
X12936158Y-18521391D02*
X12945682Y-18492820D01*
X12945682Y-18492820D02*
X12955206Y-18445201D01*
X12955206Y-18445201D02*
X12955206Y-18407106D01*
X12955206Y-18407106D02*
X12945682Y-18359487D01*
X12945682Y-18359487D02*
X12936158Y-18330915D01*
X12936158Y-18330915D02*
X12926634Y-18311868D01*
X12926634Y-18311868D02*
X12907587Y-18283296D01*
X12907587Y-18283296D02*
X12898063Y-18273772D01*
M02*
