%TF.GenerationSoftware,KiCad,Pcbnew,7.0.9*%
%TF.CreationDate,2023-11-28T21:36:15+01:00*%
%TF.ProjectId,euroPi-kicad,6575726f-5069-42d6-9b69-6361642e6b69,rev?*%
%TF.SameCoordinates,Original*%
%TF.FileFunction,Copper,L1,Top*%
%TF.FilePolarity,Positive*%
%FSLAX46Y46*%
G04 Gerber Fmt 4.6, Leading zero omitted, Abs format (unit mm)*
G04 Created by KiCad (PCBNEW 7.0.9) date 2023-11-28 21:36:15*
%MOMM*%
%LPD*%
G01*
G04 APERTURE LIST*
G04 Aperture macros list*
%AMRoundRect*
0 Rectangle with rounded corners*
0 $1 Rounding radius*
0 $2 $3 $4 $5 $6 $7 $8 $9 X,Y pos of 4 corners*
0 Add a 4 corners polygon primitive as box body*
4,1,4,$2,$3,$4,$5,$6,$7,$8,$9,$2,$3,0*
0 Add four circle primitives for the rounded corners*
1,1,$1+$1,$2,$3*
1,1,$1+$1,$4,$5*
1,1,$1+$1,$6,$7*
1,1,$1+$1,$8,$9*
0 Add four rect primitives between the rounded corners*
20,1,$1+$1,$2,$3,$4,$5,0*
20,1,$1+$1,$4,$5,$6,$7,0*
20,1,$1+$1,$6,$7,$8,$9,0*
20,1,$1+$1,$8,$9,$2,$3,0*%
%AMFreePoly0*
4,1,28,0.605014,0.794986,0.644504,0.794986,0.724698,0.756366,0.780194,0.686777,0.800000,0.600000,0.800000,-0.600000,0.780194,-0.686777,0.724698,-0.756366,0.644504,-0.794986,0.605014,-0.794986,0.600000,-0.800000,0.000000,-0.800000,-0.178017,-0.779942,-0.347107,-0.720775,-0.498792,-0.625465,-0.625465,-0.498792,-0.720775,-0.347107,-0.779942,-0.178017,-0.800000,0.000000,-0.779942,0.178017,
-0.720775,0.347107,-0.625465,0.498792,-0.498792,0.625465,-0.347107,0.720775,-0.178017,0.779942,0.000000,0.800000,0.600000,0.800000,0.605014,0.794986,0.605014,0.794986,$1*%
%AMFreePoly1*
4,1,28,0.178017,0.779942,0.347107,0.720775,0.498792,0.625465,0.625465,0.498792,0.720775,0.347107,0.779942,0.178017,0.800000,0.000000,0.779942,-0.178017,0.720775,-0.347107,0.625465,-0.498792,0.498792,-0.625465,0.347107,-0.720775,0.178017,-0.779942,0.000000,-0.800000,-0.600000,-0.800000,-0.605014,-0.794986,-0.644504,-0.794986,-0.724698,-0.756366,-0.780194,-0.686777,-0.800000,-0.600000,
-0.800000,0.600000,-0.780194,0.686777,-0.724698,0.756366,-0.644504,0.794986,-0.605014,0.794986,-0.600000,0.800000,0.000000,0.800000,0.178017,0.779942,0.178017,0.779942,$1*%
G04 Aperture macros list end*
%TA.AperFunction,ComponentPad*%
%ADD10R,1.600000X1.600000*%
%TD*%
%TA.AperFunction,ComponentPad*%
%ADD11O,1.600000X1.600000*%
%TD*%
%TA.AperFunction,ComponentPad*%
%ADD12C,1.600000*%
%TD*%
%TA.AperFunction,ComponentPad*%
%ADD13R,1.700000X1.700000*%
%TD*%
%TA.AperFunction,ComponentPad*%
%ADD14O,1.700000X1.700000*%
%TD*%
%TA.AperFunction,ComponentPad*%
%ADD15R,1.830000X1.930000*%
%TD*%
%TA.AperFunction,ComponentPad*%
%ADD16C,2.130000*%
%TD*%
%TA.AperFunction,ComponentPad*%
%ADD17R,1.930000X1.830000*%
%TD*%
%TA.AperFunction,ComponentPad*%
%ADD18R,1.800000X1.800000*%
%TD*%
%TA.AperFunction,ComponentPad*%
%ADD19C,1.800000*%
%TD*%
%TA.AperFunction,ComponentPad*%
%ADD20O,1.800000X1.800000*%
%TD*%
%TA.AperFunction,ComponentPad*%
%ADD21C,2.200000*%
%TD*%
%TA.AperFunction,ComponentPad*%
%ADD22R,1.300000X1.300000*%
%TD*%
%TA.AperFunction,ComponentPad*%
%ADD23C,1.300000*%
%TD*%
%TA.AperFunction,WasherPad*%
%ADD24C,4.000000*%
%TD*%
%TA.AperFunction,ComponentPad*%
%ADD25RoundRect,0.200000X0.600000X0.600000X-0.600000X0.600000X-0.600000X-0.600000X0.600000X-0.600000X0*%
%TD*%
%TA.AperFunction,ComponentPad*%
%ADD26FreePoly0,180.000000*%
%TD*%
%TA.AperFunction,ComponentPad*%
%ADD27FreePoly1,180.000000*%
%TD*%
%TA.AperFunction,ComponentPad*%
%ADD28RoundRect,0.250000X-0.600000X-0.600000X0.600000X-0.600000X0.600000X0.600000X-0.600000X0.600000X0*%
%TD*%
%TA.AperFunction,ComponentPad*%
%ADD29C,1.700000*%
%TD*%
%TA.AperFunction,ComponentPad*%
%ADD30R,1.905000X2.000000*%
%TD*%
%TA.AperFunction,ComponentPad*%
%ADD31O,1.905000X2.000000*%
%TD*%
%TA.AperFunction,ViaPad*%
%ADD32C,1.000000*%
%TD*%
%TA.AperFunction,Conductor*%
%ADD33C,1.000000*%
%TD*%
%TA.AperFunction,Conductor*%
%ADD34C,1.500000*%
%TD*%
%TA.AperFunction,Conductor*%
%ADD35C,0.500000*%
%TD*%
%TA.AperFunction,Conductor*%
%ADD36C,0.400000*%
%TD*%
G04 APERTURE END LIST*
D10*
%TO.P,O3,1*%
%TO.N,CJ1*%
X197104000Y-127787400D03*
D11*
%TO.P,O3,2,-*%
%TO.N,Net-(O3A--)*%
X197104000Y-125247400D03*
%TO.P,O3,3,+*%
%TO.N,Net-(O3A-+)*%
X197104000Y-122707400D03*
%TO.P,O3,4,V+*%
%TO.N,~*%
X197104000Y-120167400D03*
%TO.P,O3,5,+*%
%TO.N,Net-(O3B-+)*%
X197104000Y-117627400D03*
%TO.P,O3,6,-*%
%TO.N,Net-(O3B--)*%
X197104000Y-115087400D03*
%TO.P,O3,7*%
%TO.N,CJ2*%
X197104000Y-112547400D03*
%TO.P,O3,8*%
%TO.N,CJ5*%
X189484000Y-112547400D03*
%TO.P,O3,9,-*%
%TO.N,Net-(O3C--)*%
X189484000Y-115087400D03*
%TO.P,O3,10,+*%
%TO.N,Net-(O3C-+)*%
X189484000Y-117627400D03*
%TO.P,O3,11,V-*%
%TO.N,-12V*%
X189484000Y-120167400D03*
%TO.P,O3,12,+*%
%TO.N,Net-(O3D-+)*%
X189484000Y-122707400D03*
%TO.P,O3,13,-*%
%TO.N,Net-(O3D--)*%
X189484000Y-125247400D03*
%TO.P,O3,14*%
%TO.N,CJ4*%
X189484000Y-127787400D03*
%TD*%
D12*
%TO.P,R21,1*%
%TO.N,CJA*%
X200382352Y-139444600D03*
D11*
%TO.P,R21,2*%
%TO.N,Net-(O5-Pad7)*%
X195302352Y-139444600D03*
%TD*%
D12*
%TO.P,R16,1*%
%TO.N,Net-(LED4-A)*%
X93472000Y-120621000D03*
D11*
%TO.P,R16,2*%
%TO.N,CJ4*%
X93472000Y-125701000D03*
%TD*%
D12*
%TO.P,R24,1*%
%TO.N,CS1*%
X193069000Y-61747400D03*
D11*
%TO.P,R24,2*%
%TO.N,I2C_VCC*%
X187989000Y-61747400D03*
%TD*%
D12*
%TO.P,R6,1*%
%TO.N,Net-(O5D-+)*%
X177239352Y-127760600D03*
D11*
%TO.P,R6,2*%
%TO.N,GP19*%
X182319352Y-127760600D03*
%TD*%
D13*
%TO.P,J14,1,Pin_1*%
%TO.N,TPH VCC {slash} CPC SDA*%
X108204000Y-49784000D03*
D14*
%TO.P,J14,2,Pin_2*%
%TO.N,I2C_VCC*%
X108204000Y-52324000D03*
%TO.P,J14,3,Pin_3*%
%TO.N,TPH SDA {slash} CPC VCC*%
X108204000Y-54864000D03*
%TD*%
D12*
%TO.P,R17,1*%
%TO.N,Net-(LED5-A)*%
X108458000Y-112493000D03*
D11*
%TO.P,R17,2*%
%TO.N,CJ5*%
X108458000Y-117573000D03*
%TD*%
D12*
%TO.P,R20,1*%
%TO.N,CS1*%
X102235000Y-70612000D03*
D11*
%TO.P,R20,2*%
%TO.N,Net-(R20-Pad2)*%
X102235000Y-75692000D03*
%TD*%
D12*
%TO.P,C1,1*%
%TO.N,I2C_VCC*%
X194580000Y-68580000D03*
%TO.P,C1,2*%
%TO.N,I2C_GND*%
X196580000Y-68580000D03*
%TD*%
D15*
%TO.P,J8,S*%
%TO.N,I2C_GND*%
X84720648Y-40640000D03*
D16*
%TO.P,J8,T*%
%TO.N,Net-(J8-PadT)*%
X96120648Y-40640000D03*
%TO.P,J8,TN*%
%TO.N,unconnected-(J8-PadTN)*%
X87820648Y-40640000D03*
%TD*%
D12*
%TO.P,R30,1*%
%TO.N,Net-(O3B--)*%
X193548000Y-131343400D03*
D11*
%TO.P,R30,2*%
%TO.N,I2C_GND*%
X193548000Y-136423400D03*
%TD*%
D17*
%TO.P,J4,S*%
%TO.N,I2C_GND*%
X86614000Y-123474000D03*
D16*
%TO.P,J4,T*%
%TO.N,Net-(J4-PadT)*%
X86614000Y-134874000D03*
%TO.P,J4,TN*%
%TO.N,unconnected-(J4-PadTN)*%
X86614000Y-126574000D03*
%TD*%
D18*
%TO.P,LED6,1,K*%
%TO.N,I2C_GND*%
X117872648Y-120396000D03*
D19*
%TO.P,LED6,2,A*%
%TO.N,Net-(LED6-A)*%
X115332648Y-120396000D03*
%TD*%
D12*
%TO.P,R26,1*%
%TO.N,I2C_VCC*%
X186915000Y-86131400D03*
D11*
%TO.P,R26,2*%
%TO.N,GP22*%
X186915000Y-91211400D03*
%TD*%
D12*
%TO.P,R22,1*%
%TO.N,Net-(O5-Pad7)*%
X168066352Y-102868600D03*
D11*
%TO.P,R22,2*%
%TO.N,Net-(O1A--)*%
X173146352Y-102868600D03*
%TD*%
D12*
%TO.P,R13,1*%
%TO.N,Net-(LED1-A)*%
X90903000Y-102616000D03*
D11*
%TO.P,R13,2*%
%TO.N,CJ1*%
X95983000Y-102616000D03*
%TD*%
D12*
%TO.P,R31,1*%
%TO.N,Net-(O5C--)*%
X164539352Y-127702600D03*
D11*
%TO.P,R31,2*%
%TO.N,I2C_GND*%
X164539352Y-132782600D03*
%TD*%
D18*
%TO.P,D2,1,A*%
%TO.N,+5V*%
X175598000Y-73939400D03*
D20*
%TO.P,D2,2,K*%
%TO.N,Net-(D2-K)*%
X178138000Y-73939400D03*
%TD*%
D12*
%TO.P,C16,1*%
%TO.N,I2C_GND*%
X179372000Y-56413400D03*
%TO.P,C16,2*%
%TO.N,-12V*%
X181372000Y-56413400D03*
%TD*%
%TO.P,R11,1*%
%TO.N,CJ5*%
X110773000Y-120396000D03*
D11*
%TO.P,R11,2*%
%TO.N,Net-(J5-PadT)*%
X105693000Y-120396000D03*
%TD*%
D12*
%TO.P,C3,1*%
%TO.N,~*%
X185399352Y-42416600D03*
%TO.P,C3,2*%
%TO.N,I2C_GND*%
X187399352Y-42416600D03*
%TD*%
%TO.P,R23,1*%
%TO.N,Net-(O1A--)*%
X177038000Y-104194400D03*
D11*
%TO.P,R23,2*%
%TO.N,GP26*%
X177038000Y-99114400D03*
%TD*%
D17*
%TO.P,J2,S*%
%TO.N,I2C_GND*%
X101605824Y-105694000D03*
D16*
%TO.P,J2,T*%
%TO.N,Net-(J2-PadT)*%
X101605824Y-117094000D03*
%TO.P,J2,TN*%
%TO.N,unconnected-(J2-PadTN)*%
X101605824Y-108794000D03*
%TD*%
D10*
%TO.P,O1,1*%
%TO.N,GP26*%
X184658000Y-70383400D03*
D11*
%TO.P,O1,2,-*%
%TO.N,Net-(O1A--)*%
X184658000Y-67843400D03*
%TO.P,O1,3,+*%
%TO.N,I2C_GND*%
X184658000Y-65303400D03*
%TO.P,O1,4,V-*%
X184658000Y-62763400D03*
%TO.P,O1,5,+*%
%TO.N,unconnected-(O1B-+-Pad5)*%
X177038000Y-62763400D03*
%TO.P,O1,6,-*%
%TO.N,unconnected-(O1B---Pad6)*%
X177038000Y-65303400D03*
%TO.P,O1,7*%
%TO.N,unconnected-(O1-Pad7)*%
X177038000Y-67843400D03*
%TO.P,O1,8,V+*%
%TO.N,I2C_VCC*%
X177038000Y-70383400D03*
%TD*%
D12*
%TO.P,R18,1*%
%TO.N,Net-(LED6-A)*%
X109739648Y-123640000D03*
D11*
%TO.P,R18,2*%
%TO.N,CJ6*%
X109739648Y-128720000D03*
%TD*%
D12*
%TO.P,R29,1*%
%TO.N,Net-(O3A--)*%
X190246000Y-131372400D03*
D11*
%TO.P,R29,2*%
%TO.N,I2C_GND*%
X190246000Y-136452400D03*
%TD*%
D12*
%TO.P,C11,1*%
%TO.N,Net-(O5C-+)*%
X165809352Y-118870600D03*
%TO.P,C11,2*%
%TO.N,I2C_GND*%
X167809352Y-118870600D03*
%TD*%
D21*
%TO.P,SW2,1,1*%
%TO.N,I2C_GND*%
X94234000Y-81280000D03*
%TO.P,SW2,2,2*%
%TO.N,Net-(R19-Pad2)*%
X87884000Y-83820000D03*
%TD*%
D12*
%TO.P,C14,1*%
%TO.N,Net-(O5D-+)*%
X173651352Y-118870600D03*
%TO.P,C14,2*%
%TO.N,I2C_GND*%
X171651352Y-118870600D03*
%TD*%
D18*
%TO.P,D3,1,A*%
%TO.N,-12V*%
X176022000Y-57404000D03*
D20*
%TO.P,D3,2,K*%
%TO.N,Net-(D3-K)*%
X176022000Y-54864000D03*
%TD*%
D12*
%TO.P,R37,1*%
%TO.N,CJ3*%
X192479352Y-139444600D03*
D11*
%TO.P,R37,2*%
%TO.N,Net-(O5C--)*%
X187399352Y-139444600D03*
%TD*%
D18*
%TO.P,D1,1,A*%
%TO.N,I2C_GND*%
X170180000Y-79527400D03*
D20*
%TO.P,D1,2,K*%
%TO.N,CJD*%
X170180000Y-76987400D03*
%TD*%
D12*
%TO.P,R1,1*%
%TO.N,Net-(O3A-+)*%
X186915000Y-94230400D03*
D11*
%TO.P,R1,2*%
%TO.N,GP21*%
X186915000Y-99310400D03*
%TD*%
D12*
%TO.P,R19,1*%
%TO.N,CS2*%
X102119648Y-61214000D03*
D11*
%TO.P,R19,2*%
%TO.N,Net-(R19-Pad2)*%
X102119648Y-66294000D03*
%TD*%
D15*
%TO.P,J7,S*%
%TO.N,I2C_GND*%
X118461000Y-40690800D03*
D16*
%TO.P,J7,T*%
%TO.N,Net-(J7-PadT)*%
X107061000Y-40690800D03*
%TO.P,J7,TN*%
%TO.N,unconnected-(J7-PadTN)*%
X115361000Y-40690800D03*
%TD*%
D18*
%TO.P,D4,1,A*%
%TO.N,Net-(D4-A)*%
X175913352Y-39069000D03*
D20*
%TO.P,D4,2,K*%
%TO.N,~*%
X175913352Y-36529000D03*
%TD*%
D12*
%TO.P,C2,1*%
%TO.N,+5V*%
X171450000Y-68589400D03*
%TO.P,C2,2*%
%TO.N,I2C_GND*%
X171450000Y-66589400D03*
%TD*%
D17*
%TO.P,J1,S*%
%TO.N,I2C_GND*%
X86614000Y-105694000D03*
D16*
%TO.P,J1,T*%
%TO.N,Net-(J1-PadT)*%
X86614000Y-117094000D03*
%TO.P,J1,TN*%
%TO.N,unconnected-(J1-PadTN)*%
X86614000Y-108794000D03*
%TD*%
D12*
%TO.P,C5,1*%
%TO.N,~*%
X185399352Y-48004600D03*
%TO.P,C5,2*%
%TO.N,I2C_GND*%
X187399352Y-48004600D03*
%TD*%
%TO.P,R5,1*%
%TO.N,Net-(O3C-+)*%
X178255352Y-110713600D03*
D11*
%TO.P,R5,2*%
%TO.N,GP18*%
X178255352Y-115793600D03*
%TD*%
D13*
%TO.P,J11,1,Pin_1*%
%TO.N,CJD*%
X164338000Y-68580000D03*
D14*
%TO.P,J11,2,Pin_2*%
%TO.N,CJA*%
X164338000Y-71120000D03*
%TO.P,J11,3,Pin_3*%
%TO.N,CK1*%
X164338000Y-73660000D03*
%TO.P,J11,4,Pin_4*%
%TO.N,CK2*%
X164338000Y-76200000D03*
%TO.P,J11,5,Pin_5*%
%TO.N,CS1*%
X164338000Y-78740000D03*
%TO.P,J11,6,Pin_6*%
%TO.N,CS2*%
X164338000Y-81280000D03*
%TO.P,J11,7,Pin_7*%
%TO.N,CJ6*%
X164338000Y-83820000D03*
%TO.P,J11,8,Pin_8*%
%TO.N,CJ5*%
X164338000Y-86360000D03*
%TO.P,J11,9,Pin_9*%
%TO.N,CJ4*%
X164338000Y-88900000D03*
%TO.P,J11,10,Pin_10*%
%TO.N,CJ3*%
X164338000Y-91440000D03*
%TO.P,J11,11,Pin_11*%
%TO.N,CJ2*%
X164338000Y-93980000D03*
%TO.P,J11,12,Pin_12*%
%TO.N,CJ1*%
X164338000Y-96520000D03*
%TO.P,J11,13,Pin_13*%
%TO.N,I2C_GND*%
X164338000Y-99060000D03*
%TD*%
D18*
%TO.P,LED5,1,K*%
%TO.N,I2C_GND*%
X100330824Y-120396000D03*
D19*
%TO.P,LED5,2,A*%
%TO.N,Net-(LED5-A)*%
X102870824Y-120396000D03*
%TD*%
D12*
%TO.P,C12,1*%
%TO.N,Net-(O3D-+)*%
X165793352Y-112266600D03*
%TO.P,C12,2*%
%TO.N,I2C_GND*%
X167793352Y-112266600D03*
%TD*%
D17*
%TO.P,J3,S*%
%TO.N,I2C_GND*%
X116597648Y-105694000D03*
D16*
%TO.P,J3,T*%
%TO.N,Net-(J3-PadT)*%
X116597648Y-117094000D03*
%TO.P,J3,TN*%
%TO.N,unconnected-(J3-PadTN)*%
X116597648Y-108794000D03*
%TD*%
D12*
%TO.P,R32,1*%
%TO.N,Net-(O3D--)*%
X186436000Y-125247400D03*
D11*
%TO.P,R32,2*%
%TO.N,I2C_GND*%
X186436000Y-120167400D03*
%TD*%
D12*
%TO.P,R8,1*%
%TO.N,CJ2*%
X105918000Y-98015000D03*
D11*
%TO.P,R8,2*%
%TO.N,Net-(J2-PadT)*%
X105918000Y-103095000D03*
%TD*%
D12*
%TO.P,R28,1*%
%TO.N,Net-(J8-PadT)*%
X103516648Y-39642000D03*
D11*
%TO.P,R28,2*%
%TO.N,CJA*%
X103516648Y-44722000D03*
%TD*%
D12*
%TO.P,R10,1*%
%TO.N,CJ4*%
X93472000Y-128778000D03*
D11*
%TO.P,R10,2*%
%TO.N,Net-(J4-PadT)*%
X93472000Y-133858000D03*
%TD*%
D10*
%TO.P,O5,1*%
%TO.N,N/C*%
X167841352Y-139698600D03*
D11*
%TO.P,O5,2*%
X170381352Y-139698600D03*
%TO.P,O5,3*%
X172921352Y-139698600D03*
%TO.P,O5,4,V+*%
%TO.N,~*%
X175461352Y-139698600D03*
%TO.P,O5,5,+*%
%TO.N,I2C_GND*%
X178001352Y-139698600D03*
%TO.P,O5,6,-*%
%TO.N,CJA*%
X180541352Y-139698600D03*
%TO.P,O5,7*%
%TO.N,Net-(O5-Pad7)*%
X183081352Y-139698600D03*
%TO.P,O5,8*%
%TO.N,CJ3*%
X183081352Y-132078600D03*
%TO.P,O5,9,-*%
%TO.N,Net-(O5C--)*%
X180541352Y-132078600D03*
%TO.P,O5,10,+*%
%TO.N,Net-(O5C-+)*%
X178001352Y-132078600D03*
%TO.P,O5,11,V-*%
%TO.N,-12V*%
X175461352Y-132078600D03*
%TO.P,O5,12,+*%
%TO.N,Net-(O5D-+)*%
X172921352Y-132078600D03*
%TO.P,O5,13,-*%
%TO.N,Net-(O5D--)*%
X170381352Y-132078600D03*
%TO.P,O5,14*%
%TO.N,CJ6*%
X167841352Y-132078600D03*
%TD*%
D12*
%TO.P,R2,1*%
%TO.N,Net-(O3B-+)*%
X191545000Y-102133400D03*
D11*
%TO.P,R2,2*%
%TO.N,GP20*%
X186465000Y-102133400D03*
%TD*%
D12*
%TO.P,C4,1*%
%TO.N,I2C_GND*%
X179372000Y-50825400D03*
%TO.P,C4,2*%
%TO.N,-12V*%
X181372000Y-50825400D03*
%TD*%
D13*
%TO.P,J18,1,Pin_1*%
%TO.N,TPH SCL {slash} CPC GND*%
X195516500Y-56642000D03*
D14*
%TO.P,J18,2,Pin_2*%
%TO.N,TPH SDA {slash} CPC VCC*%
X195516500Y-54102000D03*
%TO.P,J18,3,Pin_3*%
%TO.N,TPH GND {slash} CPC SCL*%
X195516500Y-51562000D03*
%TO.P,J18,4,Pin_4*%
%TO.N,TPH VCC {slash} CPC SDA*%
X195516500Y-49022000D03*
%TD*%
D22*
%TO.P,Q1,1,E*%
%TO.N,I2C_GND*%
X175748000Y-78765400D03*
D23*
%TO.P,Q1,2,B*%
%TO.N,CJD*%
X177018000Y-77495400D03*
%TO.P,Q1,3,C*%
%TO.N,GP22*%
X178288000Y-78765400D03*
%TD*%
D21*
%TO.P,SW1,1,1*%
%TO.N,I2C_GND*%
X114071400Y-81305400D03*
%TO.P,SW1,2,2*%
%TO.N,Net-(R20-Pad2)*%
X107721400Y-83845400D03*
%TD*%
D12*
%TO.P,R27,1*%
%TO.N,Net-(J7-PadT)*%
X99579648Y-36928000D03*
D11*
%TO.P,R27,2*%
%TO.N,CJD*%
X99579648Y-42008000D03*
%TD*%
D17*
%TO.P,J5,S*%
%TO.N,I2C_GND*%
X101605824Y-123474000D03*
D16*
%TO.P,J5,T*%
%TO.N,Net-(J5-PadT)*%
X101605824Y-134874000D03*
%TO.P,J5,TN*%
%TO.N,unconnected-(J5-PadTN)*%
X101605824Y-126574000D03*
%TD*%
D12*
%TO.P,R36,1*%
%TO.N,CJ2*%
X196342000Y-108766400D03*
D11*
%TO.P,R36,2*%
%TO.N,Net-(O3B--)*%
X196342000Y-103686400D03*
%TD*%
D12*
%TO.P,R25,1*%
%TO.N,CS2*%
X191291000Y-71174400D03*
D11*
%TO.P,R25,2*%
%TO.N,I2C_VCC*%
X191291000Y-66094400D03*
%TD*%
D12*
%TO.P,C10,1*%
%TO.N,Net-(O3B-+)*%
X191516000Y-97090701D03*
%TO.P,C10,2*%
%TO.N,I2C_GND*%
X193516000Y-97090701D03*
%TD*%
%TO.P,R9,1*%
%TO.N,CJ3*%
X109982000Y-102362000D03*
D11*
%TO.P,R9,2*%
%TO.N,Net-(J3-PadT)*%
X109982000Y-107442000D03*
%TD*%
D12*
%TO.P,C13,1*%
%TO.N,Net-(O3C-+)*%
X173635352Y-112266600D03*
%TO.P,C13,2*%
%TO.N,I2C_GND*%
X171635352Y-112266600D03*
%TD*%
%TO.P,R7,1*%
%TO.N,CJ1*%
X93218000Y-110236000D03*
D11*
%TO.P,R7,2*%
%TO.N,Net-(J1-PadT)*%
X93218000Y-115316000D03*
%TD*%
D12*
%TO.P,C7,1*%
%TO.N,CS2*%
X195580000Y-81280000D03*
%TO.P,C7,2*%
%TO.N,I2C_GND*%
X195580000Y-79280000D03*
%TD*%
%TO.P,R34,1*%
%TO.N,Net-(O5D--)*%
X164539352Y-140206600D03*
D11*
%TO.P,R34,2*%
%TO.N,I2C_GND*%
X164539352Y-135126600D03*
%TD*%
D24*
%TO.P,VR1,*%
%TO.N,*%
X115759400Y-68097400D03*
X106959400Y-68097400D03*
D19*
%TO.P,VR1,1,1*%
%TO.N,I2C_VCC*%
X108859400Y-61097400D03*
%TO.P,VR1,2,2*%
%TO.N,CK1*%
X111359400Y-61097400D03*
%TO.P,VR1,3,3*%
%TO.N,I2C_GND*%
X113859400Y-61097400D03*
%TD*%
D12*
%TO.P,C15,1*%
%TO.N,~*%
X185399352Y-53592600D03*
%TO.P,C15,2*%
%TO.N,I2C_GND*%
X187399352Y-53592600D03*
%TD*%
D18*
%TO.P,LED2,1,K*%
%TO.N,I2C_GND*%
X102880824Y-102616000D03*
D19*
%TO.P,LED2,2,A*%
%TO.N,Net-(LED2-A)*%
X100340824Y-102616000D03*
%TD*%
D24*
%TO.P,VR2,*%
%TO.N,*%
X96232648Y-68087000D03*
X87432648Y-68087000D03*
D19*
%TO.P,VR2,1,1*%
%TO.N,I2C_VCC*%
X89332648Y-61087000D03*
%TO.P,VR2,2,2*%
%TO.N,CK2*%
X91832648Y-61087000D03*
%TO.P,VR2,3,3*%
%TO.N,I2C_GND*%
X94332648Y-61087000D03*
%TD*%
D12*
%TO.P,R3,1*%
%TO.N,Net-(O5C-+)*%
X168857352Y-124966600D03*
D11*
%TO.P,R3,2*%
%TO.N,GP16*%
X173937352Y-124966600D03*
%TD*%
D12*
%TO.P,R4,1*%
%TO.N,Net-(O3D-+)*%
X168603352Y-106932600D03*
D11*
%TO.P,R4,2*%
%TO.N,GP17*%
X173683352Y-106932600D03*
%TD*%
D12*
%TO.P,R39,1*%
%TO.N,CJ5*%
X191320000Y-108708400D03*
D11*
%TO.P,R39,2*%
%TO.N,Net-(O3C--)*%
X186240000Y-108708400D03*
%TD*%
D18*
%TO.P,LED4,1,K*%
%TO.N,I2C_GND*%
X85339000Y-120396000D03*
D19*
%TO.P,LED4,2,A*%
%TO.N,Net-(LED4-A)*%
X87879000Y-120396000D03*
%TD*%
D13*
%TO.P,J12,1,Pin_1*%
%TO.N,TPH SCL {slash} CPC GND*%
X117957600Y-56642000D03*
D14*
%TO.P,J12,2,Pin_2*%
%TO.N,TPH SDA {slash} CPC VCC*%
X117957600Y-54102000D03*
%TO.P,J12,3,Pin_3*%
%TO.N,TPH GND {slash} CPC SCL*%
X117957600Y-51562000D03*
%TO.P,J12,4,Pin_4*%
%TO.N,TPH VCC {slash} CPC SDA*%
X117957600Y-49022000D03*
%TD*%
D12*
%TO.P,C9,1*%
%TO.N,Net-(O3A-+)*%
X191516000Y-90994701D03*
%TO.P,C9,2*%
%TO.N,I2C_GND*%
X193516000Y-90994701D03*
%TD*%
%TO.P,R40,1*%
%TO.N,CJ6*%
X168603352Y-128551600D03*
D11*
%TO.P,R40,2*%
%TO.N,Net-(O5D--)*%
X173683352Y-128551600D03*
%TD*%
D17*
%TO.P,J6,S*%
%TO.N,I2C_GND*%
X116597648Y-123474000D03*
D16*
%TO.P,J6,T*%
%TO.N,Net-(J6-PadT)*%
X116597648Y-134874000D03*
%TO.P,J6,TN*%
%TO.N,unconnected-(J6-PadTN)*%
X116597648Y-126574000D03*
%TD*%
D18*
%TO.P,LED3,1,K*%
%TO.N,I2C_GND*%
X117872648Y-102616000D03*
D19*
%TO.P,LED3,2,A*%
%TO.N,Net-(LED3-A)*%
X115332648Y-102616000D03*
%TD*%
D12*
%TO.P,R12,1*%
%TO.N,CJ6*%
X109739648Y-131289000D03*
D11*
%TO.P,R12,2*%
%TO.N,Net-(J6-PadT)*%
X109739648Y-136369000D03*
%TD*%
D12*
%TO.P,R38,1*%
%TO.N,CJ4*%
X186436000Y-133375400D03*
D11*
%TO.P,R38,2*%
%TO.N,Net-(O3D--)*%
X186436000Y-128295400D03*
%TD*%
D12*
%TO.P,R35,1*%
%TO.N,CJ1*%
X196850000Y-131314400D03*
D11*
%TO.P,R35,2*%
%TO.N,Net-(O3A--)*%
X196850000Y-136394400D03*
%TD*%
D12*
%TO.P,R14,1*%
%TO.N,Net-(LED2-A)*%
X96266000Y-98552000D03*
D11*
%TO.P,R14,2*%
%TO.N,CJ2*%
X101346000Y-98552000D03*
%TD*%
D12*
%TO.P,C8,1*%
%TO.N,CS1*%
X195580000Y-73438000D03*
%TO.P,C8,2*%
%TO.N,I2C_GND*%
X195580000Y-75438000D03*
%TD*%
D18*
%TO.P,LED1,1,K*%
%TO.N,I2C_GND*%
X87889000Y-102616000D03*
D19*
%TO.P,LED1,2,A*%
%TO.N,Net-(LED1-A)*%
X85349000Y-102616000D03*
%TD*%
D12*
%TO.P,R15,1*%
%TO.N,Net-(LED3-A)*%
X115581648Y-98806000D03*
D11*
%TO.P,R15,2*%
%TO.N,CJ3*%
X110501648Y-98806000D03*
%TD*%
D12*
%TO.P,C6,1*%
%TO.N,I2C_GND*%
X179372000Y-45237400D03*
%TO.P,C6,2*%
%TO.N,-12V*%
X181372000Y-45237400D03*
%TD*%
%TO.P,R33,1*%
%TO.N,Net-(O3C--)*%
X186436000Y-112235400D03*
D11*
%TO.P,R33,2*%
%TO.N,I2C_GND*%
X186436000Y-117315400D03*
%TD*%
D13*
%TO.P,J16,1,Pin_1*%
%TO.N,GP1*%
X200406000Y-39649400D03*
D14*
%TO.P,J16,2,Pin_2*%
%TO.N,TPH GND {slash} CPC SCL*%
X197866000Y-39649400D03*
%TO.P,J16,3,Pin_3*%
%TO.N,TPH SDA {slash} CPC VCC*%
X195326000Y-39649400D03*
%TO.P,J16,4,Pin_4*%
%TO.N,I2C_VCC*%
X192786000Y-39649400D03*
%TO.P,J16,5,Pin_5*%
%TO.N,TPH VCC {slash} CPC SDA*%
X200406000Y-37109400D03*
%TO.P,J16,6,Pin_6*%
%TO.N,GP0*%
X197866000Y-37109400D03*
%TO.P,J16,7,Pin_7*%
%TO.N,I2C_GND*%
X195326000Y-37109400D03*
%TO.P,J16,8,Pin_8*%
%TO.N,TPH SCL {slash} CPC GND*%
X192786000Y-37109400D03*
%TD*%
D13*
%TO.P,J15,1,Pin_1*%
%TO.N,I2C_GND*%
X199390000Y-64770000D03*
D14*
%TO.P,J15,2,Pin_2*%
%TO.N,I2C_VCC*%
X199390000Y-62230000D03*
%TO.P,J15,3,Pin_3*%
%TO.N,GP3*%
X199390000Y-59690000D03*
%TO.P,J15,4,Pin_4*%
%TO.N,GP2*%
X199390000Y-57150000D03*
%TD*%
D25*
%TO.P,U2,1,GP0*%
%TO.N,GP0*%
X200246000Y-75841400D03*
D12*
%TO.P,U2,2,GP1*%
%TO.N,GP1*%
X200246000Y-78381400D03*
D26*
%TO.P,U2,3,GND*%
%TO.N,I2C_GND*%
X200246000Y-80921400D03*
D12*
%TO.P,U2,4,GP2*%
%TO.N,GP2*%
X200246000Y-83461400D03*
%TO.P,U2,5,GP3*%
%TO.N,GP3*%
X200246000Y-86001400D03*
%TO.P,U2,6,GP4*%
%TO.N,CS1*%
X200246000Y-88541400D03*
%TO.P,U2,7,GP5*%
%TO.N,CS2*%
X200246000Y-91081400D03*
D26*
%TO.P,U2,8,GND*%
%TO.N,I2C_GND*%
X200246000Y-93621400D03*
D12*
%TO.P,U2,9,GP6*%
%TO.N,unconnected-(U2-GP6-Pad9)*%
X200246000Y-96161400D03*
%TO.P,U2,10,GP7*%
%TO.N,unconnected-(U2-GP7-Pad10)*%
X200246000Y-98701400D03*
%TO.P,U2,11,GP8*%
%TO.N,unconnected-(U2-GP8-Pad11)*%
X200246000Y-101241400D03*
%TO.P,U2,12,GP9*%
%TO.N,unconnected-(U2-GP9-Pad12)*%
X200246000Y-103781400D03*
D26*
%TO.P,U2,13,GND*%
%TO.N,I2C_GND*%
X200246000Y-106321400D03*
D12*
%TO.P,U2,14,GP10*%
%TO.N,unconnected-(U2-GP10-Pad14)*%
X200246000Y-108861400D03*
%TO.P,U2,15,GP11*%
%TO.N,unconnected-(U2-GP11-Pad15)*%
X200246000Y-111401400D03*
%TO.P,U2,16,GP12*%
%TO.N,unconnected-(U2-GP12-Pad16)*%
X200246000Y-113941400D03*
%TO.P,U2,17,GP13*%
%TO.N,unconnected-(U2-GP13-Pad17)*%
X200246000Y-116481400D03*
D26*
%TO.P,U2,18,GND*%
%TO.N,I2C_GND*%
X200246000Y-119021400D03*
D12*
%TO.P,U2,19,GP14*%
%TO.N,unconnected-(U2-GP14-Pad19)*%
X200246000Y-121561400D03*
%TO.P,U2,20,GP15*%
%TO.N,unconnected-(U2-GP15-Pad20)*%
X200246000Y-124101400D03*
%TO.P,U2,21,GP16*%
%TO.N,GP16*%
X182466000Y-124101400D03*
%TO.P,U2,22,GP17*%
%TO.N,GP17*%
X182466000Y-121561400D03*
D27*
%TO.P,U2,23,GND*%
%TO.N,I2C_GND*%
X182466000Y-119021400D03*
D12*
%TO.P,U2,24,GP18*%
%TO.N,GP18*%
X182466000Y-116481400D03*
%TO.P,U2,25,GP19*%
%TO.N,GP19*%
X182466000Y-113941400D03*
%TO.P,U2,26,GP20*%
%TO.N,GP20*%
X182466000Y-111401400D03*
%TO.P,U2,27,GP21*%
%TO.N,GP21*%
X182466000Y-108861400D03*
D27*
%TO.P,U2,28,GND*%
%TO.N,I2C_GND*%
X182466000Y-106321400D03*
D12*
%TO.P,U2,29,GP22*%
%TO.N,GP22*%
X182466000Y-103781400D03*
%TO.P,U2,30,RUN*%
%TO.N,unconnected-(U2-RUN-Pad30)*%
X182466000Y-101241400D03*
%TO.P,U2,31,GP26*%
%TO.N,GP26*%
X182466000Y-98701400D03*
%TO.P,U2,32,GP27*%
%TO.N,CK1*%
X182466000Y-96161400D03*
D27*
%TO.P,U2,33,GND*%
%TO.N,I2C_GND*%
X182466000Y-93621400D03*
D12*
%TO.P,U2,34,GP28*%
%TO.N,CK2*%
X182466000Y-91081400D03*
%TO.P,U2,35,ADC_VREF*%
%TO.N,unconnected-(U2-ADC_VREF-Pad35)*%
X182466000Y-88541400D03*
%TO.P,U2,36,3V3*%
%TO.N,I2C_VCC*%
X182466000Y-86001400D03*
%TO.P,U2,37,3V3_EN*%
%TO.N,unconnected-(U2-3V3_EN-Pad37)*%
X182466000Y-83461400D03*
D27*
%TO.P,U2,38,GND*%
%TO.N,I2C_GND*%
X182466000Y-80921400D03*
D12*
%TO.P,U2,39,VSYS*%
%TO.N,Net-(D2-K)*%
X182466000Y-78381400D03*
%TO.P,U2,40,VBUS*%
%TO.N,unconnected-(U2-VBUS-Pad40)*%
X182466000Y-75841400D03*
%TD*%
D13*
%TO.P,J19,1,Pin_1*%
%TO.N,TPH SCL {slash} CPC GND*%
X114211500Y-56642000D03*
D14*
%TO.P,J19,2,Pin_2*%
%TO.N,TPH SDA {slash} CPC VCC*%
X114211500Y-54102000D03*
%TO.P,J19,3,Pin_3*%
%TO.N,TPH GND {slash} CPC SCL*%
X114211500Y-51562000D03*
%TO.P,J19,4,Pin_4*%
%TO.N,TPH VCC {slash} CPC SDA*%
X114211500Y-49022000D03*
%TD*%
D13*
%TO.P,J17,1,Pin_1*%
%TO.N,CJD*%
X83058000Y-68580000D03*
D14*
%TO.P,J17,2,Pin_2*%
%TO.N,CJA*%
X83058000Y-71120000D03*
%TO.P,J17,3,Pin_3*%
%TO.N,CK1*%
X83058000Y-73660000D03*
%TO.P,J17,4,Pin_4*%
%TO.N,CK2*%
X83058000Y-76200000D03*
%TO.P,J17,5,Pin_5*%
%TO.N,CS1*%
X83058000Y-78740000D03*
%TO.P,J17,6,Pin_6*%
%TO.N,CS2*%
X83058000Y-81280000D03*
%TO.P,J17,7,Pin_7*%
%TO.N,CJ6*%
X83058000Y-83820000D03*
%TO.P,J17,8,Pin_8*%
%TO.N,CJ5*%
X83058000Y-86360000D03*
%TO.P,J17,9,Pin_9*%
%TO.N,CJ4*%
X83058000Y-88900000D03*
%TO.P,J17,10,Pin_10*%
%TO.N,CJ3*%
X83058000Y-91440000D03*
%TO.P,J17,11,Pin_11*%
%TO.N,CJ2*%
X83058000Y-93980000D03*
%TO.P,J17,12,Pin_12*%
%TO.N,CJ1*%
X83058000Y-96520000D03*
%TO.P,J17,13,Pin_13*%
%TO.N,I2C_GND*%
X83058000Y-99060000D03*
%TD*%
D28*
%TO.P,J10,1,Pin_1*%
%TO.N,Net-(D3-K)*%
X167132000Y-58166000D03*
D29*
%TO.P,J10,2,Pin_2*%
X169672000Y-58166000D03*
%TO.P,J10,3,Pin_3*%
%TO.N,I2C_GND*%
X167132000Y-55626000D03*
%TO.P,J10,4,Pin_4*%
X169672000Y-55626000D03*
%TO.P,J10,5,Pin_5*%
X167132000Y-53086000D03*
%TO.P,J10,6,Pin_6*%
X169672000Y-53086000D03*
%TO.P,J10,7,Pin_7*%
X167132000Y-50546000D03*
%TO.P,J10,8,Pin_8*%
X169672000Y-50546000D03*
%TO.P,J10,9,Pin_9*%
%TO.N,Net-(D4-A)*%
X167132000Y-48006000D03*
%TO.P,J10,10,Pin_10*%
X169672000Y-48006000D03*
%TO.P,J10,11,Pin_11*%
%TO.N,+5V*%
X167132000Y-45466000D03*
%TO.P,J10,12,Pin_12*%
X169672000Y-45466000D03*
%TO.P,J10,13,Pin_13*%
%TO.N,Net-(J10-Pin_13)*%
X167132000Y-42926000D03*
%TO.P,J10,14,Pin_14*%
X169672000Y-42926000D03*
%TO.P,J10,15,Pin_15*%
%TO.N,Net-(J10-Pin_15)*%
X167132000Y-40386000D03*
%TO.P,J10,16,Pin_16*%
X169672000Y-40386000D03*
%TD*%
D30*
%TO.P,U1,1,IN*%
%TO.N,~*%
X181303352Y-37773600D03*
D31*
%TO.P,U1,2,GND*%
%TO.N,I2C_GND*%
X183843352Y-37773600D03*
%TO.P,U1,3,OUT*%
%TO.N,+5V*%
X186383352Y-37773600D03*
%TD*%
D32*
%TO.N,-12V*%
X186690000Y-68351400D03*
X192404377Y-120037635D03*
X197104000Y-95806177D03*
X197104000Y-90424000D03*
%TO.N,Net-(O3D-+)*%
X184969585Y-122757775D03*
X180085992Y-122682000D03*
%TO.N,GP26*%
X184658000Y-84719900D03*
X184746262Y-81226462D03*
%TO.N,Net-(O1A--)*%
X184912000Y-98298000D03*
X189044146Y-79884267D03*
X188976000Y-88392000D03*
%TO.N,Net-(O5C--)*%
X168603352Y-134110600D03*
%TO.N,Net-(R19-Pad2)*%
X99296000Y-81044000D03*
%TO.N,CK1*%
X166823370Y-82003610D03*
%TO.N,CJ2*%
X192532000Y-104394000D03*
X179894723Y-101991229D03*
%TO.N,CJ4*%
X93218000Y-92456000D03*
%TO.N,CJ6*%
X99568000Y-87630000D03*
X166825352Y-100328600D03*
X99568000Y-91948000D03*
X169365352Y-97788600D03*
%TO.N,CJA*%
X185758575Y-89831407D03*
X193040000Y-100584000D03*
%TO.N,CS2*%
X190754000Y-87376000D03*
X94804634Y-76930000D03*
%TO.N,~*%
X191516000Y-64008000D03*
X199136000Y-69596000D03*
%TD*%
D33*
%TO.N,-12V*%
X189484000Y-120167400D02*
X192274612Y-120167400D01*
X181372000Y-50825400D02*
X181372000Y-55651400D01*
X192274612Y-120167400D02*
X192404377Y-120037635D01*
X197104000Y-90424000D02*
X197104000Y-95806177D01*
X181372000Y-50825400D02*
X181372000Y-45237400D01*
D34*
X176831400Y-58213400D02*
X180292600Y-58213400D01*
X176022000Y-57404000D02*
X176831400Y-58213400D01*
D33*
X181372000Y-55651400D02*
X181372000Y-56605432D01*
D34*
X181372000Y-57134000D02*
X181372000Y-56413400D01*
D35*
X181418000Y-56221400D02*
X181610000Y-56413400D01*
D33*
X181372000Y-55651400D02*
X181372000Y-56413400D01*
D35*
X181372000Y-56221400D02*
X181418000Y-56221400D01*
D33*
X186208000Y-61249400D02*
X186208000Y-67869400D01*
X186208000Y-67869400D02*
X186690000Y-68351400D01*
D34*
X180292600Y-58213400D02*
X181372000Y-57134000D01*
D33*
X181372000Y-56413400D02*
X186208000Y-61249400D01*
D36*
%TO.N,Net-(O3A-+)*%
X197104000Y-121935167D02*
X192570000Y-117401167D01*
X190150699Y-90994701D02*
X186915000Y-94230400D01*
X191516000Y-90994701D02*
X190150699Y-90994701D01*
X188214000Y-95529400D02*
X186915000Y-94230400D01*
X188214000Y-103834632D02*
X188214000Y-95529400D01*
X192570000Y-108190632D02*
X188214000Y-103834632D01*
X197104000Y-122707400D02*
X197104000Y-121935167D01*
X192570000Y-117401167D02*
X192570000Y-108190632D01*
%TO.N,Net-(O5C-+)*%
X176101352Y-130178600D02*
X178001352Y-132078600D01*
X168857352Y-125825362D02*
X173210590Y-130178600D01*
X165809352Y-121918600D02*
X168857352Y-124966600D01*
X173210590Y-130178600D02*
X176101352Y-130178600D01*
X168857352Y-124966600D02*
X168857352Y-125825362D01*
X165809352Y-118870600D02*
X165809352Y-121918600D01*
%TO.N,Net-(O3D-+)*%
X170198600Y-117620600D02*
X175024592Y-117620600D01*
X165793352Y-112266600D02*
X165793352Y-113215352D01*
X165793352Y-113215352D02*
X170198600Y-117620600D01*
X168603352Y-106932600D02*
X168603352Y-108256648D01*
X185019960Y-122707400D02*
X184969585Y-122757775D01*
X175024592Y-117620600D02*
X180085992Y-122682000D01*
X168603352Y-108256648D02*
X165793352Y-111066648D01*
X189484000Y-122707400D02*
X185019960Y-122707400D01*
X165793352Y-111066648D02*
X165793352Y-112266600D01*
%TO.N,Net-(O3C-+)*%
X173635352Y-112266600D02*
X176702352Y-112266600D01*
X176702352Y-112266600D02*
X178255352Y-110713600D01*
%TO.N,Net-(O5D-+)*%
X174953352Y-127760600D02*
X177239352Y-127760600D01*
X172687352Y-119834600D02*
X172687352Y-125494600D01*
X172687352Y-125494600D02*
X174953352Y-127760600D01*
X173651352Y-118870600D02*
X172687352Y-119834600D01*
D33*
%TO.N,Net-(D2-K)*%
X178138000Y-73939400D02*
X178138000Y-74053400D01*
X178138000Y-74053400D02*
X182466000Y-78381400D01*
D34*
%TO.N,Net-(D3-K)*%
X171651352Y-58164600D02*
X169619352Y-58164600D01*
X169619352Y-58164600D02*
X167079352Y-58164600D01*
X176022000Y-54864000D02*
X174951952Y-54864000D01*
X174951952Y-54864000D02*
X171651352Y-58164600D01*
%TO.N,Net-(D4-A)*%
X175913352Y-43488600D02*
X171397352Y-48004600D01*
X175913352Y-39069000D02*
X175913352Y-43488600D01*
X171397352Y-48004600D02*
X167143661Y-48004600D01*
%TO.N,Net-(J1-PadT)*%
X91440000Y-117094000D02*
X86614000Y-117094000D01*
X93218000Y-115316000D02*
X91440000Y-117094000D01*
%TO.N,Net-(J2-PadT)*%
X105918000Y-103095000D02*
X105918000Y-113030000D01*
X105918000Y-113030000D02*
X101854000Y-117094000D01*
%TO.N,Net-(J3-PadT)*%
X109982000Y-110478352D02*
X109982000Y-107442000D01*
X116597648Y-117094000D02*
X109982000Y-110478352D01*
%TO.N,Net-(J4-PadT)*%
X93472000Y-133858000D02*
X92456000Y-134874000D01*
X92456000Y-134874000D02*
X86614000Y-134874000D01*
%TO.N,Net-(J5-PadT)*%
X105693000Y-120396000D02*
X105693000Y-131035000D01*
D33*
X101605824Y-134874000D02*
X101854000Y-134874000D01*
D34*
X105693000Y-131035000D02*
X101854000Y-134874000D01*
%TO.N,Net-(J6-PadT)*%
X110980648Y-135128000D02*
X111517648Y-135128000D01*
X109739648Y-136369000D02*
X110980648Y-135128000D01*
X111517648Y-135128000D02*
X111771648Y-134874000D01*
X111771648Y-134874000D02*
X116597648Y-134874000D01*
%TO.N,Net-(J7-PadT)*%
X107061000Y-40690800D02*
X107061000Y-39285215D01*
X107061000Y-39285215D02*
X104703785Y-36928000D01*
X104703785Y-36928000D02*
X99579648Y-36928000D01*
%TO.N,Net-(J8-PadT)*%
X97118648Y-39642000D02*
X96120648Y-40640000D01*
X103516648Y-39642000D02*
X97118648Y-39642000D01*
%TO.N,Net-(LED1-A)*%
X90039000Y-100466000D02*
X85739000Y-100466000D01*
X90903000Y-102616000D02*
X90903000Y-101330000D01*
X90903000Y-101330000D02*
X90039000Y-100466000D01*
X85349000Y-100856000D02*
X85349000Y-102616000D01*
X85739000Y-100466000D02*
X85349000Y-100856000D01*
%TO.N,Net-(LED2-A)*%
X100340824Y-102118824D02*
X100340824Y-102616000D01*
X96774000Y-98552000D02*
X100340824Y-102118824D01*
X96266000Y-98552000D02*
X96774000Y-98552000D01*
%TO.N,Net-(LED3-A)*%
X115581648Y-102367000D02*
X115332648Y-102616000D01*
X115581648Y-98806000D02*
X115581648Y-102367000D01*
%TO.N,Net-(LED4-A)*%
X88138000Y-120396000D02*
X88363000Y-120621000D01*
X87879000Y-120396000D02*
X88138000Y-120396000D01*
X93472000Y-120621000D02*
X88363000Y-120621000D01*
%TO.N,Net-(LED5-A)*%
X102870824Y-119351081D02*
X108458000Y-113763905D01*
X102870824Y-120396000D02*
X102870824Y-119351081D01*
X108458000Y-113763905D02*
X108458000Y-112493000D01*
%TO.N,Net-(LED6-A)*%
X115332648Y-120396000D02*
X115332648Y-120650000D01*
X112342648Y-123640000D02*
X109739648Y-123640000D01*
X115332648Y-120650000D02*
X112342648Y-123640000D01*
D36*
%TO.N,GP26*%
X184658000Y-81314724D02*
X184746262Y-81226462D01*
X184658000Y-84719900D02*
X184658000Y-81314724D01*
%TO.N,Net-(O1A--)*%
X184366000Y-103670000D02*
X183004600Y-105031400D01*
X180285233Y-104194400D02*
X177038000Y-104194400D01*
X189044146Y-88323854D02*
X188976000Y-88392000D01*
X174472152Y-104194400D02*
X173146352Y-102868600D01*
X184366000Y-98844000D02*
X184366000Y-103670000D01*
X189044146Y-79884267D02*
X189044146Y-88323854D01*
X177038000Y-104194400D02*
X174472152Y-104194400D01*
X184912000Y-98298000D02*
X184366000Y-98844000D01*
X181122233Y-105031400D02*
X180285233Y-104194400D01*
X183004600Y-105031400D02*
X181122233Y-105031400D01*
%TO.N,Net-(O3A--)*%
X190246000Y-131372400D02*
X191377370Y-131372400D01*
X196399370Y-136394400D02*
X196850000Y-136394400D01*
X191377370Y-131372400D02*
X196399370Y-136394400D01*
%TO.N,Net-(O3B--)*%
X198354000Y-105698400D02*
X198354000Y-113837400D01*
X198354000Y-131578167D02*
X197344167Y-132588000D01*
X194792600Y-132588000D02*
X193548000Y-131343400D01*
X198354000Y-116337400D02*
X198354000Y-131578167D01*
X198354000Y-113837400D02*
X197104000Y-115087400D01*
X196342000Y-103686400D02*
X198354000Y-105698400D01*
X197344167Y-132588000D02*
X194792600Y-132588000D01*
X197104000Y-115087400D02*
X198354000Y-116337400D01*
%TO.N,Net-(O3C--)*%
X189288000Y-115087400D02*
X189484000Y-115087400D01*
X186240000Y-108708400D02*
X186240000Y-112039400D01*
X186240000Y-112039400D02*
X189288000Y-115087400D01*
%TO.N,Net-(O5-Pad7)*%
X164543352Y-112784367D02*
X164592000Y-112833015D01*
X181831352Y-138448600D02*
X183081352Y-139698600D01*
X164559352Y-118352833D02*
X164559352Y-119388367D01*
X164592000Y-119421015D02*
X164592000Y-124257248D01*
X194052352Y-140694600D02*
X195302352Y-139444600D01*
X183081352Y-139698600D02*
X184077352Y-140694600D01*
X164543352Y-106391600D02*
X164543352Y-112784367D01*
X168066352Y-102868600D02*
X164543352Y-106391600D01*
X180063585Y-138448600D02*
X181831352Y-138448600D01*
X174191352Y-131570600D02*
X174191352Y-132576367D01*
X164592000Y-112833015D02*
X164592000Y-118320185D01*
X174191352Y-132576367D02*
X180063585Y-138448600D01*
X167079352Y-126744600D02*
X168857352Y-126744600D01*
X164592000Y-118320185D02*
X164559352Y-118352833D01*
X172941352Y-130828600D02*
X173449352Y-130828600D01*
X164592000Y-124257248D02*
X167079352Y-126744600D01*
X168857352Y-126744600D02*
X172941352Y-130828600D01*
X184077352Y-140694600D02*
X194052352Y-140694600D01*
X164559352Y-119388367D02*
X164592000Y-119421015D01*
X173449352Y-130828600D02*
X174191352Y-131570600D01*
%TO.N,Net-(O5C--)*%
X180541352Y-132586600D02*
X180541352Y-132078600D01*
X168105585Y-134110600D02*
X168603352Y-134110600D01*
X187399352Y-139444600D02*
X180541352Y-132586600D01*
X164539352Y-130544367D02*
X168105585Y-134110600D01*
X164539352Y-127702600D02*
X164539352Y-130544367D01*
%TO.N,Net-(O5D--)*%
X170381352Y-134364600D02*
X164539352Y-140206600D01*
X170381352Y-132078600D02*
X170381352Y-134364600D01*
%TO.N,GP22*%
X187714999Y-90411401D02*
X186915000Y-91211400D01*
X181948233Y-87251400D02*
X185802903Y-87251400D01*
X185802903Y-87251400D02*
X187714999Y-89163496D01*
X187714999Y-89163496D02*
X187714999Y-90411401D01*
X178288000Y-83591167D02*
X181948233Y-87251400D01*
X182466000Y-103781400D02*
X183716000Y-102531400D01*
X178288000Y-78765400D02*
X178288000Y-83591167D01*
X183716000Y-102531400D02*
X183716000Y-94410400D01*
X183716000Y-94410400D02*
X186915000Y-91211400D01*
%TO.N,GP21*%
X185215000Y-106112400D02*
X185215000Y-101010400D01*
X185215000Y-101010400D02*
X186915000Y-99310400D01*
X182466000Y-108861400D02*
X185215000Y-106112400D01*
%TO.N,GP20*%
X182466000Y-111401400D02*
X184658000Y-109209400D01*
X184658000Y-109209400D02*
X184658000Y-107696000D01*
X184658000Y-107696000D02*
X186465000Y-105889000D01*
X186465000Y-105889000D02*
X186465000Y-102133400D01*
%TO.N,GP16*%
X182466000Y-124101400D02*
X174802552Y-124101400D01*
X174802552Y-124101400D02*
X173937352Y-124966600D01*
%TO.N,GP17*%
X181210938Y-120306338D02*
X181210938Y-118472938D01*
X179505352Y-116767352D02*
X181210938Y-118472938D01*
X179505352Y-110195833D02*
X179505352Y-116767352D01*
X182466000Y-121561400D02*
X181210938Y-120306338D01*
X176214352Y-109463600D02*
X178773119Y-109463600D01*
X173683352Y-106932600D02*
X176214352Y-109463600D01*
X178773119Y-109463600D02*
X179505352Y-110195833D01*
%TO.N,GP19*%
X184019585Y-115494985D02*
X182466000Y-113941400D01*
X182319352Y-127760600D02*
X184019585Y-126060367D01*
X184019585Y-126060367D02*
X184019585Y-115494985D01*
D34*
%TO.N,Net-(R19-Pad2)*%
X87884000Y-83820000D02*
X88983999Y-82720001D01*
X92296642Y-82720001D02*
X93206641Y-83630000D01*
X93206641Y-83630000D02*
X96710000Y-83630000D01*
X88983999Y-82720001D02*
X92296642Y-82720001D01*
X96710000Y-83630000D02*
X99296000Y-81044000D01*
%TO.N,Net-(R20-Pad2)*%
X102235000Y-78486000D02*
X102235000Y-75692000D01*
X107721400Y-83845400D02*
X107594400Y-83845400D01*
X107594400Y-83845400D02*
X102235000Y-78486000D01*
D36*
%TO.N,Net-(O3B-+)*%
X191545000Y-102133400D02*
X191545000Y-106246394D01*
X195580000Y-110281394D02*
X195580000Y-116103400D01*
X191545000Y-106246394D02*
X195580000Y-110281394D01*
X191516000Y-102104400D02*
X191545000Y-102133400D01*
X195580000Y-116103400D02*
X197104000Y-117627400D01*
X191516000Y-97090701D02*
X191516000Y-102104400D01*
D34*
%TO.N,CJD*%
X99579648Y-42037000D02*
X83058000Y-58558648D01*
D33*
X170180000Y-73840497D02*
X164919503Y-68580000D01*
X170180000Y-76987400D02*
X170180000Y-73840497D01*
X170180000Y-76987400D02*
X176510000Y-76987400D01*
D34*
X83058000Y-58558648D02*
X83058000Y-68580000D01*
D33*
X164919503Y-68580000D02*
X164109000Y-68580000D01*
X176510000Y-76987400D02*
X177018000Y-77495400D01*
D34*
X99579648Y-42008000D02*
X99579648Y-42037000D01*
%TO.N,CK1*%
X90228271Y-72930000D02*
X96199843Y-72930000D01*
X108928208Y-63881000D02*
X111359400Y-61449808D01*
X111359400Y-61449808D02*
X111359400Y-61097400D01*
X86403648Y-73755000D02*
X86498648Y-73660000D01*
X89498271Y-73660000D02*
X90228271Y-72930000D01*
X101633510Y-63881000D02*
X108928208Y-63881000D01*
D36*
X180981160Y-96161400D02*
X166823370Y-82003610D01*
D34*
X96199843Y-72930000D02*
X99706648Y-69423195D01*
X83058000Y-73660000D02*
X83153000Y-73755000D01*
D36*
X182466000Y-96161400D02*
X180981160Y-96161400D01*
D34*
X86498648Y-73660000D02*
X89498271Y-73660000D01*
X99706648Y-69423195D02*
X99706648Y-65807862D01*
X83153000Y-73755000D02*
X86403648Y-73755000D01*
X99706648Y-65807862D02*
X101633510Y-63881000D01*
D36*
%TO.N,CK2*%
X182466000Y-91081400D02*
X177390152Y-91081400D01*
X177390152Y-91081400D02*
X165638000Y-79329248D01*
X165638000Y-79329248D02*
X165638000Y-77500000D01*
X165638000Y-77500000D02*
X164338000Y-76200000D01*
%TO.N,CJ1*%
X197104000Y-127787400D02*
X196596000Y-128295400D01*
D34*
X91833000Y-98466000D02*
X95983000Y-102616000D01*
D36*
X185186000Y-117833167D02*
X185186000Y-114574000D01*
X197104000Y-127787400D02*
X196621400Y-127787400D01*
X186270233Y-118917400D02*
X185186000Y-117833167D01*
D34*
X83058000Y-96520000D02*
X83906000Y-96520000D01*
D36*
X188966233Y-121417400D02*
X188234000Y-120685167D01*
X190251400Y-121417400D02*
X188966233Y-121417400D01*
D34*
X93218000Y-104140000D02*
X93218000Y-110236000D01*
D36*
X185186000Y-114574000D02*
X183303400Y-112691400D01*
X178123119Y-108813600D02*
X174465519Y-105156000D01*
X188234000Y-120685167D02*
X188234000Y-119908000D01*
X196596000Y-131060400D02*
X196850000Y-131314400D01*
D34*
X85852000Y-98466000D02*
X91833000Y-98466000D01*
D36*
X181948233Y-112691400D02*
X180155352Y-110898519D01*
X187243400Y-118917400D02*
X186270233Y-118917400D01*
X183303400Y-112691400D02*
X181948233Y-112691400D01*
X164794752Y-96520000D02*
X164338000Y-96520000D01*
X180155352Y-109926594D02*
X179042357Y-108813600D01*
D34*
X95983000Y-102616000D02*
X94742000Y-102616000D01*
D36*
X196596000Y-128295400D02*
X196596000Y-131060400D01*
X180155352Y-110898519D02*
X180155352Y-109926594D01*
D34*
X83906000Y-96520000D02*
X85852000Y-98466000D01*
X94742000Y-102616000D02*
X93218000Y-104140000D01*
D36*
X179042357Y-108813600D02*
X178123119Y-108813600D01*
X173430752Y-105156000D02*
X164794752Y-96520000D01*
X196621400Y-127787400D02*
X190251400Y-121417400D01*
X188234000Y-119908000D02*
X187243400Y-118917400D01*
X174465519Y-105156000D02*
X173430752Y-105156000D01*
D34*
%TO.N,CJ2*%
X86680428Y-96466000D02*
X99260000Y-96466000D01*
X105381000Y-98552000D02*
X105918000Y-98015000D01*
D36*
X166878000Y-96520000D02*
X166878000Y-97355503D01*
X196342000Y-108766400D02*
X192532000Y-104956400D01*
X197104000Y-109528400D02*
X196342000Y-108766400D01*
X171121097Y-101598600D02*
X179502094Y-101598600D01*
D34*
X84194428Y-93980000D02*
X86680428Y-96466000D01*
X83058000Y-93980000D02*
X84194428Y-93980000D01*
D36*
X197104000Y-112547400D02*
X197104000Y-109528400D01*
X164338000Y-93980000D02*
X166878000Y-96520000D01*
D34*
X101346000Y-98552000D02*
X105381000Y-98552000D01*
D36*
X192532000Y-104956400D02*
X192532000Y-104394000D01*
D34*
X99260000Y-96466000D02*
X101346000Y-98552000D01*
D36*
X166878000Y-97355503D02*
X171121097Y-101598600D01*
X179502094Y-101598600D02*
X179894723Y-101991229D01*
D34*
%TO.N,CJ3*%
X110501648Y-98806000D02*
X110501648Y-101842352D01*
D36*
X192479352Y-139444600D02*
X190447352Y-139444600D01*
X190447352Y-139444600D02*
X183081352Y-132078600D01*
D34*
X83058000Y-91440000D02*
X84482856Y-91440000D01*
X106150000Y-94466000D02*
X110490000Y-98806000D01*
X84482856Y-91440000D02*
X87508856Y-94466000D01*
X110490000Y-98806000D02*
X110501648Y-98806000D01*
X110501648Y-101842352D02*
X109982000Y-102362000D01*
X87508856Y-94466000D02*
X106150000Y-94466000D01*
D36*
%TO.N,CJ4*%
X186436000Y-130835400D02*
X186436000Y-133375400D01*
D34*
X93472000Y-125701000D02*
X93472000Y-128778000D01*
X88327284Y-92456000D02*
X84771284Y-88900000D01*
D36*
X189484000Y-127787400D02*
X186436000Y-130835400D01*
D34*
X84771284Y-88900000D02*
X83058000Y-88900000D01*
X93218000Y-92456000D02*
X88327284Y-92456000D01*
%TO.N,CJ5*%
X108458000Y-118081000D02*
X110773000Y-120396000D01*
X108458000Y-117573000D02*
X108458000Y-118081000D01*
D36*
X189484000Y-110544400D02*
X191320000Y-108708400D01*
X189484000Y-112547400D02*
X189484000Y-110544400D01*
%TO.N,CJ6*%
X171196000Y-90678000D02*
X164338000Y-83820000D01*
X167841352Y-129313600D02*
X167841352Y-132078600D01*
D34*
X99568000Y-87630000D02*
X99568000Y-91948000D01*
D36*
X169365352Y-97788600D02*
X171196000Y-95957952D01*
D34*
X109739648Y-128720000D02*
X109739648Y-131289000D01*
D36*
X163893352Y-124972970D02*
X167471982Y-128551600D01*
X163893352Y-103260600D02*
X163893352Y-124972970D01*
X166825352Y-100328600D02*
X163893352Y-103260600D01*
X171196000Y-95957952D02*
X171196000Y-90678000D01*
X167471982Y-128551600D02*
X168603352Y-128551600D01*
X168603352Y-128551600D02*
X167841352Y-129313600D01*
%TO.N,CJA*%
X166288000Y-78455248D02*
X177664159Y-89831407D01*
X201676000Y-100903633D02*
X201676000Y-138150952D01*
X201676000Y-138150952D02*
X200382352Y-139444600D01*
D34*
X83275000Y-71337000D02*
X88992843Y-71337000D01*
D36*
X200763767Y-99991400D02*
X201676000Y-100903633D01*
X166288000Y-73070000D02*
X166288000Y-78455248D01*
D34*
X90896648Y-69433195D02*
X90896648Y-65477560D01*
D36*
X164338000Y-71120000D02*
X166288000Y-73070000D01*
X193632600Y-99991400D02*
X200763767Y-99991400D01*
D34*
X99942648Y-44722000D02*
X85158000Y-59506648D01*
X88992843Y-71337000D02*
X90896648Y-69433195D01*
X90896648Y-65477560D02*
X85158000Y-59738912D01*
D36*
X193040000Y-100584000D02*
X193632600Y-99991400D01*
D34*
X85158000Y-59738912D02*
X85158000Y-59506648D01*
X83058000Y-71120000D02*
X83275000Y-71337000D01*
D36*
X177664159Y-89831407D02*
X185758575Y-89831407D01*
D34*
X103516648Y-44722000D02*
X99942648Y-44722000D01*
D33*
%TO.N,CS2*%
X195580000Y-81280000D02*
X195580000Y-83929786D01*
D36*
X195580000Y-82550000D02*
X195580000Y-81280000D01*
D33*
X195580000Y-81280000D02*
X195387968Y-81280000D01*
D36*
X190754000Y-87376000D02*
X195580000Y-82550000D01*
D33*
X192563266Y-72446666D02*
X191291000Y-71174400D01*
X195387968Y-81280000D02*
X192563266Y-78455298D01*
D34*
X91885124Y-76930000D02*
X94804634Y-76930000D01*
X87535125Y-81280000D02*
X91885124Y-76930000D01*
D33*
X195580000Y-83929786D02*
X197358000Y-85707786D01*
X192563266Y-78455298D02*
X192563266Y-72446666D01*
X197358000Y-85707786D02*
X197358000Y-88193400D01*
D34*
X83058000Y-81280000D02*
X87535125Y-81280000D01*
D33*
X197358000Y-88193400D02*
X200246000Y-91081400D01*
D34*
%TO.N,CS1*%
X83058000Y-78740000D02*
X87246697Y-78740000D01*
X87246697Y-78740000D02*
X91056697Y-74930000D01*
X91056697Y-74930000D02*
X97917000Y-74930000D01*
X97917000Y-74930000D02*
X102235000Y-70612000D01*
%TO.N,I2C_VCC*%
X89333582Y-59395066D02*
X89918648Y-58810000D01*
D33*
X189738000Y-61711000D02*
X189701600Y-61747400D01*
D34*
X108440000Y-58810000D02*
X108859400Y-59229400D01*
D33*
X192786000Y-39649400D02*
X189738000Y-42697400D01*
X186814000Y-75339400D02*
X186814000Y-86001400D01*
X189738000Y-72415400D02*
X189738000Y-67647400D01*
X189738000Y-61711000D02*
X189738000Y-64541400D01*
X189738000Y-58420000D02*
X189738000Y-61711000D01*
X189738000Y-72415400D02*
X186814000Y-75339400D01*
X186814000Y-86001400D02*
X182466000Y-86001400D01*
D34*
X108204000Y-52324000D02*
X107001919Y-52324000D01*
X106104000Y-58742000D02*
X106172000Y-58810000D01*
D33*
X189738000Y-67647400D02*
X191291000Y-66094400D01*
D34*
X89333582Y-61086066D02*
X89333582Y-59395066D01*
D33*
X195580000Y-58420000D02*
X199390000Y-62230000D01*
X189738000Y-42697400D02*
X189738000Y-58420000D01*
X192094400Y-66094400D02*
X194580000Y-68580000D01*
D34*
X106104000Y-53221919D02*
X106104000Y-58742000D01*
D33*
X191291000Y-66094400D02*
X192094400Y-66094400D01*
X189738000Y-64541400D02*
X191291000Y-66094400D01*
D34*
X89918648Y-58810000D02*
X106172000Y-58810000D01*
D33*
X179578000Y-72923400D02*
X189738000Y-72923400D01*
X189738000Y-72923400D02*
X189738000Y-72415400D01*
D34*
X108859400Y-59229400D02*
X108859400Y-61097400D01*
X106172000Y-58810000D02*
X108440000Y-58810000D01*
D33*
X189701600Y-61747400D02*
X187989000Y-61747400D01*
D34*
X107001919Y-52324000D02*
X106104000Y-53221919D01*
D33*
X177038000Y-70383400D02*
X179578000Y-72923400D01*
X189738000Y-58420000D02*
X195580000Y-58420000D01*
D34*
%TO.N,TPH VCC {slash} CPC SDA*%
X108966000Y-49022000D02*
X117838500Y-49022000D01*
X108204000Y-49784000D02*
X108966000Y-49022000D01*
X117838500Y-49022000D02*
X117869500Y-49053000D01*
D36*
%TO.N,TPH GND {slash} CPC SCL*%
X197866000Y-39649400D02*
X197866000Y-49212500D01*
X197866000Y-49212500D02*
X195516500Y-51562000D01*
D34*
X114211500Y-51562000D02*
X117838500Y-51562000D01*
X117838500Y-51562000D02*
X117869500Y-51593000D01*
D36*
%TO.N,TPH SDA {slash} CPC VCC*%
X193966500Y-47955556D02*
X193966500Y-52552000D01*
D34*
X108204000Y-54864000D02*
X112081919Y-54864000D01*
D36*
X193966500Y-52552000D02*
X195516500Y-54102000D01*
D34*
X112081919Y-54864000D02*
X112812919Y-54133000D01*
X112812919Y-54133000D02*
X117926600Y-54133000D01*
D36*
X195326000Y-46596056D02*
X193966500Y-47955556D01*
X195326000Y-39649400D02*
X195326000Y-46596056D01*
D34*
X117926600Y-54133000D02*
X117957600Y-54102000D01*
%TO.N,TPH SCL {slash} CPC GND*%
X114211500Y-56642000D02*
X117838500Y-56642000D01*
X117838500Y-56642000D02*
X117869500Y-56673000D01*
D36*
%TO.N,GP3*%
X197696000Y-74428144D02*
X197696000Y-83451400D01*
X197696000Y-83451400D02*
X200246000Y-86001400D01*
X199390000Y-59690000D02*
X200690000Y-60990000D01*
X200690000Y-60990000D02*
X200690000Y-71434144D01*
X200690000Y-71434144D02*
X197696000Y-74428144D01*
D33*
%TO.N,+5V*%
X175598000Y-73939400D02*
X175598000Y-72737400D01*
X167143661Y-45298000D02*
X165479352Y-46962309D01*
D34*
X167143661Y-45464600D02*
X169683661Y-45464600D01*
D33*
X175598000Y-72737400D02*
X171450000Y-68589400D01*
X170318630Y-68589400D02*
X171450000Y-68589400D01*
X165479352Y-63750122D02*
X170318630Y-68589400D01*
X165479352Y-46962309D02*
X165479352Y-63750122D01*
%TO.N,~*%
X198806000Y-69266000D02*
X199136000Y-69596000D01*
D34*
X181303352Y-37773600D02*
X181303352Y-38320600D01*
D35*
X199136000Y-69342000D02*
X199136000Y-69596000D01*
D34*
X175913352Y-36529000D02*
X180058752Y-36529000D01*
X181303352Y-38320600D02*
X185399352Y-42416600D01*
D33*
X198806000Y-68480741D02*
X198806000Y-69266000D01*
D34*
X180058752Y-36529000D02*
X181303352Y-37773600D01*
X185399352Y-42416600D02*
X185399352Y-48004600D01*
D33*
X194333259Y-64008000D02*
X198806000Y-68480741D01*
D34*
X185399352Y-48004600D02*
X185399352Y-53592600D01*
D33*
X191516000Y-64008000D02*
X194333259Y-64008000D01*
D36*
%TO.N,GP1*%
X200406000Y-39649400D02*
X201656000Y-39649400D01*
X201990000Y-71972620D02*
X198996000Y-74966620D01*
X198996000Y-74966620D02*
X198996000Y-77131400D01*
X198996000Y-77131400D02*
X200246000Y-78381400D01*
X201990000Y-39983400D02*
X201990000Y-71972620D01*
X201656000Y-39649400D02*
X201990000Y-39983400D01*
%TO.N,GP0*%
X201048032Y-35559400D02*
X202640000Y-37151368D01*
X202640000Y-73447400D02*
X200246000Y-75841400D01*
X199416000Y-35559400D02*
X201048032Y-35559400D01*
X202640000Y-37151368D02*
X202640000Y-73447400D01*
X197866000Y-37109400D02*
X199416000Y-35559400D01*
%TO.N,GP2*%
X201340000Y-59100000D02*
X201340000Y-71703382D01*
X198346000Y-74697382D02*
X198346000Y-81561400D01*
X201340000Y-71703382D02*
X198346000Y-74697382D01*
X198346000Y-81561400D02*
X200246000Y-83461400D01*
X199390000Y-57150000D02*
X201340000Y-59100000D01*
D34*
%TO.N,Net-(J10-Pin_13)*%
X167143661Y-42924600D02*
X169683661Y-42924600D01*
%TO.N,Net-(J10-Pin_15)*%
X167143661Y-40384600D02*
X169683661Y-40384600D01*
%TD*%
%TA.AperFunction,Conductor*%
%TO.N,-12V*%
G36*
X189497831Y-119369993D02*
G01*
X191074457Y-119665610D01*
X191081956Y-119670503D01*
X191084000Y-119677110D01*
X191084000Y-120657689D01*
X191080573Y-120665962D01*
X191074456Y-120669189D01*
X189497838Y-120964805D01*
X189489075Y-120962961D01*
X189484182Y-120955461D01*
X189483982Y-120953320D01*
X189483000Y-120167400D01*
X189483982Y-119381479D01*
X189487419Y-119373211D01*
X189495697Y-119369794D01*
X189497831Y-119369993D01*
G37*
%TD.AperFunction*%
%TD*%
%TA.AperFunction,Conductor*%
%TO.N,-12V*%
G36*
X181870563Y-54816827D02*
G01*
X181873790Y-54822944D01*
X182169405Y-56399561D01*
X182167561Y-56408324D01*
X182160061Y-56413217D01*
X182157920Y-56413417D01*
X181372000Y-56414400D01*
X180586079Y-56413417D01*
X180577811Y-56409980D01*
X180574394Y-56401702D01*
X180574593Y-56399569D01*
X180870210Y-54822942D01*
X180875103Y-54815444D01*
X180881710Y-54813400D01*
X181862290Y-54813400D01*
X181870563Y-54816827D01*
G37*
%TD.AperFunction*%
%TD*%
%TA.AperFunction,Conductor*%
%TO.N,-12V*%
G36*
X182157920Y-50825382D02*
G01*
X182166188Y-50828819D01*
X182169605Y-50837097D01*
X182169405Y-50839238D01*
X181873790Y-52415856D01*
X181868897Y-52423356D01*
X181862290Y-52425400D01*
X180881710Y-52425400D01*
X180873437Y-52421973D01*
X180870210Y-52415856D01*
X180574594Y-50839236D01*
X180576438Y-50830475D01*
X180583938Y-50825582D01*
X180586074Y-50825382D01*
X181372000Y-50824400D01*
X182157920Y-50825382D01*
G37*
%TD.AperFunction*%
%TD*%
%TA.AperFunction,Conductor*%
%TO.N,-12V*%
G36*
X181870563Y-49228827D02*
G01*
X181873790Y-49234944D01*
X182169405Y-50811561D01*
X182167561Y-50820324D01*
X182160061Y-50825217D01*
X182157920Y-50825417D01*
X181372000Y-50826400D01*
X180586079Y-50825417D01*
X180577811Y-50821980D01*
X180574394Y-50813702D01*
X180574593Y-50811569D01*
X180870210Y-49234942D01*
X180875103Y-49227444D01*
X180881710Y-49225400D01*
X181862290Y-49225400D01*
X181870563Y-49228827D01*
G37*
%TD.AperFunction*%
%TD*%
%TA.AperFunction,Conductor*%
%TO.N,-12V*%
G36*
X182157920Y-45237382D02*
G01*
X182166188Y-45240819D01*
X182169605Y-45249097D01*
X182169405Y-45251238D01*
X181873790Y-46827856D01*
X181868897Y-46835356D01*
X181862290Y-46837400D01*
X180881710Y-46837400D01*
X180873437Y-46833973D01*
X180870210Y-46827856D01*
X180574594Y-45251236D01*
X180576438Y-45242475D01*
X180583938Y-45237582D01*
X180586074Y-45237382D01*
X181372000Y-45236400D01*
X182157920Y-45237382D01*
G37*
%TD.AperFunction*%
%TD*%
%TA.AperFunction,Conductor*%
%TO.N,-12V*%
G36*
X176928463Y-56826818D02*
G01*
X177817089Y-57459901D01*
X177821838Y-57467492D01*
X177822000Y-57469430D01*
X177822000Y-58947207D01*
X177818573Y-58955480D01*
X177810300Y-58958907D01*
X177806626Y-58958315D01*
X175838024Y-58307295D01*
X175831246Y-58301444D01*
X175830258Y-58293736D01*
X176019983Y-57408741D01*
X176025065Y-57401374D01*
X176915331Y-56826518D01*
X176924139Y-56824910D01*
X176928463Y-56826818D01*
G37*
%TD.AperFunction*%
%TD*%
%TA.AperFunction,Conductor*%
%TO.N,-12V*%
G36*
X181944262Y-55857678D02*
G01*
X181945635Y-55859334D01*
X182851439Y-57183203D01*
X182853283Y-57191966D01*
X182850056Y-57198083D01*
X182156683Y-57891456D01*
X182148410Y-57894883D01*
X182141803Y-57892839D01*
X180817934Y-56987035D01*
X180813041Y-56979535D01*
X180814885Y-56970772D01*
X180816252Y-56969122D01*
X181371293Y-56412693D01*
X181927717Y-55857657D01*
X181935994Y-55854241D01*
X181944262Y-55857678D01*
G37*
%TD.AperFunction*%
%TD*%
%TA.AperFunction,Conductor*%
%TO.N,Net-(O3A-+)*%
G36*
X196664836Y-121212539D02*
G01*
X197660763Y-122133465D01*
X197664511Y-122141598D01*
X197661410Y-122149998D01*
X197661103Y-122150318D01*
X197108139Y-122704665D01*
X197099871Y-122708102D01*
X197099846Y-122708102D01*
X196316377Y-122707410D01*
X196308107Y-122703976D01*
X196304687Y-122695700D01*
X196304705Y-122695062D01*
X196373479Y-121492192D01*
X196376886Y-121484590D01*
X196648621Y-121212855D01*
X196656893Y-121209429D01*
X196664836Y-121212539D01*
G37*
%TD.AperFunction*%
%TD*%
%TA.AperFunction,Conductor*%
%TO.N,Net-(O3A-+)*%
G36*
X187906691Y-92960597D02*
G01*
X187910464Y-92963124D01*
X188182275Y-93234935D01*
X188185702Y-93243208D01*
X188184821Y-93247663D01*
X187658563Y-94525717D01*
X187652244Y-94532062D01*
X187643289Y-94532081D01*
X187643279Y-94532077D01*
X186918787Y-94232962D01*
X186912448Y-94226637D01*
X186912437Y-94226612D01*
X186613322Y-93502120D01*
X186613333Y-93493165D01*
X186619670Y-93486841D01*
X187897738Y-92960578D01*
X187906691Y-92960597D01*
G37*
%TD.AperFunction*%
%TD*%
%TA.AperFunction,Conductor*%
%TO.N,Net-(O3A-+)*%
G36*
X191214303Y-90266512D02*
G01*
X191214894Y-90267729D01*
X191514842Y-90989508D01*
X191514853Y-90998463D01*
X191514845Y-90998481D01*
X191214272Y-91723149D01*
X191207937Y-91729478D01*
X191199135Y-91729535D01*
X190128402Y-91302970D01*
X190124459Y-91300374D01*
X189854260Y-91030175D01*
X189850833Y-91021902D01*
X189854260Y-91013629D01*
X189856826Y-91011689D01*
X189880494Y-90998463D01*
X191198384Y-90262005D01*
X191207276Y-90260961D01*
X191214303Y-90266512D01*
G37*
%TD.AperFunction*%
%TD*%
%TA.AperFunction,Conductor*%
%TO.N,Net-(O3A-+)*%
G36*
X187652234Y-93928733D02*
G01*
X187658559Y-93935072D01*
X187658563Y-93935082D01*
X188184821Y-95213136D01*
X188184802Y-95222091D01*
X188182275Y-95225864D01*
X187910464Y-95497675D01*
X187902191Y-95501102D01*
X187897736Y-95500221D01*
X187218047Y-95220349D01*
X186619682Y-94973963D01*
X186613337Y-94967644D01*
X186613318Y-94958689D01*
X186613322Y-94958679D01*
X186912438Y-94234185D01*
X186918762Y-94227848D01*
X186918764Y-94227846D01*
X187643279Y-93928722D01*
X187652234Y-93928733D01*
G37*
%TD.AperFunction*%
%TD*%
%TA.AperFunction,Conductor*%
%TO.N,Net-(O5C-+)*%
G36*
X177018611Y-130808777D02*
G01*
X178296670Y-131335036D01*
X178303014Y-131341355D01*
X178303033Y-131350310D01*
X178303029Y-131350320D01*
X178003914Y-132074812D01*
X177997589Y-132081151D01*
X177997564Y-132081162D01*
X177273072Y-132380277D01*
X177264117Y-132380266D01*
X177257793Y-132373928D01*
X176731530Y-131095861D01*
X176731549Y-131086908D01*
X176734073Y-131083138D01*
X177005888Y-130811323D01*
X177014160Y-130807897D01*
X177018611Y-130808777D01*
G37*
%TD.AperFunction*%
%TD*%
%TA.AperFunction,Conductor*%
%TO.N,Net-(O5C-+)*%
G36*
X167874611Y-123696777D02*
G01*
X169152670Y-124223036D01*
X169159014Y-124229355D01*
X169159033Y-124238310D01*
X169159029Y-124238320D01*
X168859914Y-124962812D01*
X168853589Y-124969151D01*
X168853564Y-124969162D01*
X168129072Y-125268277D01*
X168120117Y-125268266D01*
X168113793Y-125261928D01*
X167587530Y-123983861D01*
X167587549Y-123974908D01*
X167590073Y-123971138D01*
X167861888Y-123699323D01*
X167870160Y-123695897D01*
X167874611Y-123696777D01*
G37*
%TD.AperFunction*%
%TD*%
%TA.AperFunction,Conductor*%
%TO.N,Net-(O5C-+)*%
G36*
X169644328Y-124966588D02*
G01*
X169652597Y-124970022D01*
X169656017Y-124978298D01*
X169655949Y-124979548D01*
X169523350Y-126203977D01*
X169519991Y-126210990D01*
X169248691Y-126482290D01*
X169240418Y-126485717D01*
X169232145Y-126482290D01*
X169194026Y-126444171D01*
X169193588Y-126443681D01*
X169167232Y-126410631D01*
X169147898Y-126397448D01*
X169146172Y-126396010D01*
X168299841Y-125540547D01*
X168296458Y-125532255D01*
X168299873Y-125524057D01*
X168853213Y-124969333D01*
X168861479Y-124965897D01*
X169644328Y-124966588D01*
G37*
%TD.AperFunction*%
%TD*%
%TA.AperFunction,Conductor*%
%TO.N,Net-(O5C-+)*%
G36*
X166537642Y-119172253D02*
G01*
X166543966Y-119178591D01*
X166543955Y-119187546D01*
X166543951Y-119187556D01*
X166012352Y-120463400D01*
X166006007Y-120469719D01*
X166001552Y-120470600D01*
X165617152Y-120470600D01*
X165608879Y-120467173D01*
X165606352Y-120463400D01*
X165074752Y-119187556D01*
X165074733Y-119178601D01*
X165081049Y-119172258D01*
X165804864Y-118871464D01*
X165813813Y-118871454D01*
X166537642Y-119172253D01*
G37*
%TD.AperFunction*%
%TD*%
%TA.AperFunction,Conductor*%
%TO.N,Net-(O3D-+)*%
G36*
X166579695Y-112266587D02*
G01*
X166587963Y-112270021D01*
X166591383Y-112278297D01*
X166591243Y-112280093D01*
X166395863Y-113530663D01*
X166392576Y-113537130D01*
X166121160Y-113808546D01*
X166112887Y-113811973D01*
X166104614Y-113808546D01*
X166104183Y-113808091D01*
X165235068Y-112840524D01*
X165232089Y-112832080D01*
X165235489Y-112824443D01*
X165778480Y-112280093D01*
X165789213Y-112269333D01*
X165797479Y-112265897D01*
X166579695Y-112266587D01*
G37*
%TD.AperFunction*%
%TD*%
%TA.AperFunction,Conductor*%
%TO.N,Net-(O3D-+)*%
G36*
X169330076Y-107233602D02*
G01*
X169336401Y-107239941D01*
X169336390Y-107248896D01*
X169335683Y-107250316D01*
X168557301Y-108580118D01*
X168550165Y-108585527D01*
X168541294Y-108584305D01*
X168538931Y-108582481D01*
X168268594Y-108312144D01*
X168265914Y-108307985D01*
X167868225Y-107249334D01*
X167868524Y-107240385D01*
X167874693Y-107234414D01*
X168599572Y-106933753D01*
X168608525Y-106933749D01*
X169330076Y-107233602D01*
G37*
%TD.AperFunction*%
%TD*%
%TA.AperFunction,Conductor*%
%TO.N,Net-(O3D-+)*%
G36*
X179527882Y-121837341D02*
G01*
X180267728Y-122215154D01*
X180273538Y-122221969D01*
X180273225Y-122230031D01*
X180088555Y-122678202D01*
X180082234Y-122684546D01*
X180082194Y-122684563D01*
X179634023Y-122869233D01*
X179625069Y-122869216D01*
X179619147Y-122863736D01*
X179241333Y-122123891D01*
X179240623Y-122114966D01*
X179243479Y-122110300D01*
X179514291Y-121839488D01*
X179522563Y-121836062D01*
X179527882Y-121837341D01*
G37*
%TD.AperFunction*%
%TD*%
%TA.AperFunction,Conductor*%
%TO.N,Net-(O3D-+)*%
G36*
X185396216Y-122358164D02*
G01*
X185950861Y-122505094D01*
X185957981Y-122510525D01*
X185959565Y-122516404D01*
X185959565Y-122899413D01*
X185956138Y-122907686D01*
X185952126Y-122910309D01*
X185171588Y-123215545D01*
X185162635Y-123215367D01*
X185156526Y-123209146D01*
X185032097Y-122910309D01*
X184970456Y-122762270D01*
X184970440Y-122753319D01*
X185157001Y-122305262D01*
X185163345Y-122298942D01*
X185170798Y-122298450D01*
X185396216Y-122358164D01*
G37*
%TD.AperFunction*%
%TD*%
%TA.AperFunction,Conductor*%
%TO.N,Net-(O3D-+)*%
G36*
X189182343Y-121979100D02*
G01*
X189182347Y-121979110D01*
X189483134Y-122702910D01*
X189483144Y-122711863D01*
X189483135Y-122711885D01*
X189483134Y-122711890D01*
X189182347Y-123435689D01*
X189176008Y-123442014D01*
X189167053Y-123442003D01*
X189167043Y-123441999D01*
X187891200Y-122910399D01*
X187884881Y-122904054D01*
X187884000Y-122899599D01*
X187884000Y-122515200D01*
X187887427Y-122506927D01*
X187891200Y-122504400D01*
X189167043Y-121972800D01*
X189175998Y-121972781D01*
X189182343Y-121979100D01*
G37*
%TD.AperFunction*%
%TD*%
%TA.AperFunction,Conductor*%
%TO.N,Net-(O3D-+)*%
G36*
X165943114Y-110650975D02*
G01*
X165944888Y-110652431D01*
X166215580Y-110923123D01*
X166218501Y-110927992D01*
X166529370Y-111950305D01*
X166528498Y-111959217D01*
X166522659Y-111964516D01*
X165797132Y-112265445D01*
X165788177Y-112265450D01*
X165788159Y-112265442D01*
X165067396Y-111965916D01*
X165061071Y-111959577D01*
X165061082Y-111950622D01*
X165062154Y-111948618D01*
X165926888Y-110654203D01*
X165934331Y-110649229D01*
X165943114Y-110650975D01*
G37*
%TD.AperFunction*%
%TD*%
%TA.AperFunction,Conductor*%
%TO.N,Net-(O3C-+)*%
G36*
X173952298Y-111531996D02*
G01*
X173952308Y-111532000D01*
X175228152Y-112063600D01*
X175234471Y-112069945D01*
X175235352Y-112074400D01*
X175235352Y-112458799D01*
X175231925Y-112467072D01*
X175228152Y-112469599D01*
X173952308Y-113001199D01*
X173943353Y-113001218D01*
X173937009Y-112994900D01*
X173636216Y-112271087D01*
X173636206Y-112262138D01*
X173937005Y-111538308D01*
X173943343Y-111531985D01*
X173952298Y-111531996D01*
G37*
%TD.AperFunction*%
%TD*%
%TA.AperFunction,Conductor*%
%TO.N,Net-(O3C-+)*%
G36*
X177527072Y-110411922D02*
G01*
X178251564Y-110711037D01*
X178257903Y-110717362D01*
X178257914Y-110717387D01*
X178557029Y-111441879D01*
X178557018Y-111450834D01*
X178550679Y-111457159D01*
X178550669Y-111457163D01*
X177272615Y-111983421D01*
X177263660Y-111983402D01*
X177259887Y-111980875D01*
X176988076Y-111709064D01*
X176984649Y-111700791D01*
X176985529Y-111696340D01*
X177511789Y-110418280D01*
X177518107Y-110411937D01*
X177527062Y-110411918D01*
X177527072Y-110411922D01*
G37*
%TD.AperFunction*%
%TD*%
%TA.AperFunction,Conductor*%
%TO.N,Net-(O5D-+)*%
G36*
X176937695Y-127032300D02*
G01*
X176937699Y-127032310D01*
X177238486Y-127756110D01*
X177238496Y-127765063D01*
X177238487Y-127765085D01*
X177238486Y-127765090D01*
X176937699Y-128488889D01*
X176931360Y-128495214D01*
X176922405Y-128495203D01*
X176922395Y-128495199D01*
X175646552Y-127963599D01*
X175640233Y-127957254D01*
X175639352Y-127952799D01*
X175639352Y-127568400D01*
X175642779Y-127560127D01*
X175646552Y-127557600D01*
X176922395Y-127026000D01*
X176931350Y-127025981D01*
X176937695Y-127032300D01*
G37*
%TD.AperFunction*%
%TD*%
%TA.AperFunction,Conductor*%
%TO.N,Net-(O5D-+)*%
G36*
X172924393Y-118569467D02*
G01*
X173519376Y-118815112D01*
X173646861Y-118867746D01*
X173653200Y-118874071D01*
X173653208Y-118874089D01*
X173953093Y-119599054D01*
X173953088Y-119608009D01*
X173946915Y-119614269D01*
X172889571Y-120070341D01*
X172884937Y-120071298D01*
X172502807Y-120071298D01*
X172494534Y-120067871D01*
X172491107Y-120059598D01*
X172491546Y-120056423D01*
X172908679Y-118577109D01*
X172914222Y-118570078D01*
X172923114Y-118569025D01*
X172924393Y-118569467D01*
G37*
%TD.AperFunction*%
%TD*%
%TA.AperFunction,Conductor*%
%TO.N,Net-(D2-K)*%
G36*
X178968808Y-73598974D02*
G01*
X178974551Y-73604102D01*
X179691727Y-74896587D01*
X179692744Y-74905484D01*
X179689769Y-74910537D01*
X178995823Y-75604483D01*
X178987550Y-75607910D01*
X178980865Y-75605812D01*
X178340361Y-75159826D01*
X177513064Y-74583775D01*
X177508233Y-74576235D01*
X177510148Y-74567487D01*
X177511462Y-74565915D01*
X178135642Y-73940347D01*
X178139453Y-73937800D01*
X178959855Y-73598965D01*
X178968808Y-73598974D01*
G37*
%TD.AperFunction*%
%TD*%
%TA.AperFunction,Conductor*%
%TO.N,Net-(D2-K)*%
G36*
X181696196Y-76901960D02*
G01*
X182318909Y-77328026D01*
X183020065Y-77807764D01*
X183024958Y-77815264D01*
X183023114Y-77824027D01*
X183021741Y-77825683D01*
X182466707Y-78382107D01*
X181910283Y-78937141D01*
X181902005Y-78940558D01*
X181893737Y-78937121D01*
X181892364Y-78935465D01*
X180986560Y-77611596D01*
X180984716Y-77602833D01*
X180987941Y-77596718D01*
X181681317Y-76903342D01*
X181689589Y-76899916D01*
X181696196Y-76901960D01*
G37*
%TD.AperFunction*%
%TD*%
%TA.AperFunction,Conductor*%
%TO.N,Net-(D3-K)*%
G36*
X169684356Y-57316716D02*
G01*
X171360701Y-57413960D01*
X171368760Y-57417860D01*
X171371722Y-57425640D01*
X171371722Y-58903577D01*
X171368295Y-58911850D01*
X171360719Y-58915256D01*
X169684382Y-59015261D01*
X169675919Y-59012333D01*
X169672006Y-59004279D01*
X169671985Y-59003596D01*
X169671880Y-58914600D01*
X169671000Y-58166000D01*
X169671985Y-57328381D01*
X169675422Y-57320114D01*
X169683699Y-57316697D01*
X169684356Y-57316716D01*
G37*
%TD.AperFunction*%
%TD*%
%TA.AperFunction,Conductor*%
%TO.N,Net-(D3-K)*%
G36*
X168821347Y-57413645D02*
G01*
X168829279Y-57417795D01*
X168832000Y-57425297D01*
X168832000Y-58903926D01*
X168828573Y-58912199D01*
X168821371Y-58915577D01*
X167741201Y-59014886D01*
X167732649Y-59012231D01*
X167730592Y-59010011D01*
X167663505Y-58915577D01*
X167135801Y-58172759D01*
X167133804Y-58164031D01*
X167135787Y-58159229D01*
X167728112Y-57321497D01*
X167735685Y-57316723D01*
X167738706Y-57316601D01*
X168821347Y-57413645D01*
G37*
%TD.AperFunction*%
%TD*%
%TA.AperFunction,Conductor*%
%TO.N,Net-(D3-K)*%
G36*
X169668094Y-57319659D02*
G01*
X169671994Y-57327719D01*
X169672014Y-57328383D01*
X169673000Y-58166000D01*
X169672014Y-59003596D01*
X169668577Y-59011865D01*
X169660300Y-59015282D01*
X169659617Y-59015261D01*
X167983281Y-58915256D01*
X167975227Y-58911343D01*
X167972278Y-58903577D01*
X167972278Y-57425640D01*
X167975705Y-57417367D01*
X167983298Y-57413960D01*
X169659636Y-57316717D01*
X169668094Y-57319659D01*
G37*
%TD.AperFunction*%
%TD*%
%TA.AperFunction,Conductor*%
%TO.N,Net-(D3-K)*%
G36*
X175682068Y-54043324D02*
G01*
X175682249Y-54043736D01*
X176021810Y-54861134D01*
X176022705Y-54865631D01*
X176022007Y-55753818D01*
X176018574Y-55762089D01*
X176011915Y-55765398D01*
X174971893Y-55909684D01*
X174963227Y-55907427D01*
X174962012Y-55906368D01*
X173917335Y-54861691D01*
X173913908Y-54853418D01*
X173917335Y-54845145D01*
X173920703Y-54842797D01*
X175666544Y-54037599D01*
X175675492Y-54037246D01*
X175682068Y-54043324D01*
G37*
%TD.AperFunction*%
%TD*%
%TA.AperFunction,Conductor*%
%TO.N,Net-(D4-A)*%
G36*
X175921621Y-39076278D02*
G01*
X175921630Y-39076287D01*
X176809099Y-39964743D01*
X176812521Y-39973019D01*
X176812362Y-39974935D01*
X176664982Y-40859223D01*
X176660242Y-40866821D01*
X176653441Y-40869000D01*
X175173263Y-40869000D01*
X175164990Y-40865573D01*
X175161722Y-40859223D01*
X175014341Y-39974935D01*
X175016361Y-39966212D01*
X175017604Y-39964743D01*
X175905074Y-39076287D01*
X175913346Y-39072856D01*
X175921621Y-39076278D01*
G37*
%TD.AperFunction*%
%TD*%
%TA.AperFunction,Conductor*%
%TO.N,Net-(D4-A)*%
G36*
X167144356Y-47156716D02*
G01*
X168820701Y-47253960D01*
X168828760Y-47257860D01*
X168831722Y-47265640D01*
X168831722Y-48743577D01*
X168828295Y-48751850D01*
X168820719Y-48755256D01*
X167144382Y-48855261D01*
X167135919Y-48852333D01*
X167132006Y-48844279D01*
X167131985Y-48843596D01*
X167131880Y-48754600D01*
X167131000Y-48006000D01*
X167131985Y-47168381D01*
X167135422Y-47160114D01*
X167143699Y-47156697D01*
X167144356Y-47156716D01*
G37*
%TD.AperFunction*%
%TD*%
%TA.AperFunction,Conductor*%
%TO.N,Net-(J1-PadT)*%
G36*
X88668967Y-116342557D02*
G01*
X88676667Y-116347126D01*
X88679000Y-116354137D01*
X88679000Y-117833862D01*
X88675573Y-117842135D01*
X88668966Y-117845443D01*
X86950502Y-118092601D01*
X86941825Y-118090387D01*
X86937718Y-118084664D01*
X86859271Y-117845335D01*
X86614194Y-117097642D01*
X86614194Y-117090356D01*
X86858834Y-116344000D01*
X86937718Y-116103334D01*
X86943551Y-116096541D01*
X86950500Y-116095398D01*
X88668967Y-116342557D01*
G37*
%TD.AperFunction*%
%TD*%
%TA.AperFunction,Conductor*%
%TO.N,Net-(J2-PadT)*%
G36*
X102641562Y-115258754D02*
G01*
X103687890Y-116305082D01*
X103691317Y-116313355D01*
X103688319Y-116321176D01*
X102487071Y-117657807D01*
X102478992Y-117661669D01*
X102471980Y-117659787D01*
X101608316Y-117096792D01*
X101603764Y-117091136D01*
X101309091Y-116313355D01*
X101233153Y-116112917D01*
X101233426Y-116103969D01*
X101238030Y-116098769D01*
X102627226Y-115257020D01*
X102636077Y-115255664D01*
X102641562Y-115258754D01*
G37*
%TD.AperFunction*%
%TD*%
%TA.AperFunction,Conductor*%
%TO.N,Net-(J3-PadT)*%
G36*
X115675917Y-115109568D02*
G01*
X116646878Y-115836350D01*
X117065823Y-116149939D01*
X117070393Y-116157640D01*
X117069250Y-116164591D01*
X116600086Y-117091285D01*
X116594933Y-117096438D01*
X115668239Y-117565602D01*
X115659310Y-117566282D01*
X115653587Y-117562175D01*
X114613217Y-116172270D01*
X114611003Y-116163593D01*
X114614309Y-116156988D01*
X115660635Y-115110662D01*
X115668907Y-115107236D01*
X115675917Y-115109568D01*
G37*
%TD.AperFunction*%
%TD*%
%TA.AperFunction,Conductor*%
%TO.N,Net-(J4-PadT)*%
G36*
X88668967Y-134122557D02*
G01*
X88676667Y-134127126D01*
X88679000Y-134134137D01*
X88679000Y-135613862D01*
X88675573Y-135622135D01*
X88668966Y-135625443D01*
X86950502Y-135872601D01*
X86941825Y-135870387D01*
X86937718Y-135864664D01*
X86859271Y-135625335D01*
X86614194Y-134877642D01*
X86614194Y-134870356D01*
X86858834Y-134124000D01*
X86937718Y-133883334D01*
X86943551Y-133876541D01*
X86950500Y-133875398D01*
X88668967Y-134122557D01*
G37*
%TD.AperFunction*%
%TD*%
%TA.AperFunction,Conductor*%
%TO.N,Net-(J5-PadT)*%
G36*
X102641562Y-133038754D02*
G01*
X103687890Y-134085082D01*
X103691317Y-134093355D01*
X103688319Y-134101176D01*
X102487071Y-135437807D01*
X102478992Y-135441669D01*
X102471980Y-135439787D01*
X101608316Y-134876792D01*
X101603764Y-134871136D01*
X101309091Y-134093355D01*
X101233153Y-133892917D01*
X101233426Y-133883969D01*
X101238030Y-133878769D01*
X102627226Y-133037020D01*
X102636077Y-133035664D01*
X102641562Y-133038754D01*
G37*
%TD.AperFunction*%
%TD*%
%TA.AperFunction,Conductor*%
%TO.N,Net-(J6-PadT)*%
G36*
X116269822Y-133877612D02*
G01*
X116273929Y-133883335D01*
X116597453Y-134870356D01*
X116597453Y-134877644D01*
X116273929Y-135864664D01*
X116268096Y-135871458D01*
X116261145Y-135872601D01*
X114542682Y-135625443D01*
X114534981Y-135620873D01*
X114532648Y-135613862D01*
X114532648Y-134134137D01*
X114536075Y-134125864D01*
X114542679Y-134122557D01*
X116261146Y-133875398D01*
X116269822Y-133877612D01*
G37*
%TD.AperFunction*%
%TD*%
%TA.AperFunction,Conductor*%
%TO.N,Net-(J7-PadT)*%
G36*
X107129578Y-38300629D02*
G01*
X107131987Y-38304130D01*
X107953889Y-40143851D01*
X107954135Y-40152802D01*
X107949229Y-40158654D01*
X107064893Y-40689593D01*
X107057998Y-40691229D01*
X106022777Y-40613784D01*
X106014783Y-40609750D01*
X106011960Y-40601629D01*
X106064203Y-39353824D01*
X106067619Y-39346042D01*
X107113033Y-38300628D01*
X107121305Y-38297202D01*
X107129578Y-38300629D01*
G37*
%TD.AperFunction*%
%TD*%
%TA.AperFunction,Conductor*%
%TO.N,Net-(J8-PadT)*%
G36*
X97765315Y-38898345D02*
G01*
X97771484Y-38904836D01*
X97772264Y-38909037D01*
X97772264Y-40387458D01*
X97769199Y-40395352D01*
X96926450Y-41317227D01*
X96918339Y-41321021D01*
X96910197Y-41318213D01*
X96122468Y-40642419D01*
X96118740Y-40636397D01*
X95866866Y-39636035D01*
X95868169Y-39627177D01*
X95874009Y-39622261D01*
X97756363Y-38898117D01*
X97765315Y-38898345D01*
G37*
%TD.AperFunction*%
%TD*%
%TA.AperFunction,Conductor*%
%TO.N,Net-(LED1-A)*%
G36*
X84862935Y-100313366D02*
G01*
X85905521Y-101355952D01*
X85908459Y-101360876D01*
X86177471Y-102261472D01*
X86176555Y-102270380D01*
X86170742Y-102275628D01*
X85350450Y-102615812D01*
X85345959Y-102616705D01*
X84462867Y-102616010D01*
X84454596Y-102612577D01*
X84451176Y-102604301D01*
X84451343Y-102602343D01*
X84843132Y-100319657D01*
X84847908Y-100312086D01*
X84856641Y-100310108D01*
X84862935Y-100313366D01*
G37*
%TD.AperFunction*%
%TD*%
%TA.AperFunction,Conductor*%
%TO.N,Net-(LED2-A)*%
G36*
X99906016Y-100625401D02*
G01*
X99906920Y-100626416D01*
X100970767Y-101971445D01*
X100973211Y-101980060D01*
X100969872Y-101986967D01*
X100343183Y-102615050D01*
X100339367Y-102617600D01*
X99519212Y-102956334D01*
X99510258Y-102956325D01*
X99504379Y-102950942D01*
X98842087Y-101684380D01*
X98841291Y-101675463D01*
X98844181Y-101670690D01*
X99889471Y-100625400D01*
X99897743Y-100621974D01*
X99906016Y-100625401D01*
G37*
%TD.AperFunction*%
%TD*%
%TA.AperFunction,Conductor*%
%TO.N,Net-(LED3-A)*%
G36*
X116327541Y-100868956D02*
G01*
X116330968Y-100877229D01*
X116330949Y-100877890D01*
X116233271Y-102604973D01*
X116229383Y-102613039D01*
X116221603Y-102616012D01*
X115334988Y-102616997D01*
X115330487Y-102616102D01*
X114510331Y-102275396D01*
X114504005Y-102269057D01*
X114503429Y-102261914D01*
X114828743Y-100877890D01*
X114829527Y-100874551D01*
X114834756Y-100867282D01*
X114840917Y-100865529D01*
X116319268Y-100865529D01*
X116327541Y-100868956D01*
G37*
%TD.AperFunction*%
%TD*%
%TA.AperFunction,Conductor*%
%TO.N,Net-(LED4-A)*%
G36*
X88264926Y-119573526D02*
G01*
X89625030Y-119868998D01*
X89632386Y-119874102D01*
X89634245Y-119880430D01*
X89634245Y-121358789D01*
X89630818Y-121367062D01*
X89622545Y-121370489D01*
X89622046Y-121370478D01*
X87890188Y-121296478D01*
X87882068Y-121292701D01*
X87878987Y-121284803D01*
X87878002Y-120398336D01*
X87878896Y-120393842D01*
X88219669Y-119573524D01*
X88226007Y-119567200D01*
X88232957Y-119566581D01*
X88264926Y-119573526D01*
G37*
%TD.AperFunction*%
%TD*%
%TA.AperFunction,Conductor*%
%TO.N,Net-(LED5-A)*%
G36*
X102882891Y-118296270D02*
G01*
X102886160Y-118298573D01*
X103930869Y-119343282D01*
X103934296Y-119351555D01*
X103934155Y-119353366D01*
X103772371Y-120386118D01*
X103767705Y-120393761D01*
X103760821Y-120396007D01*
X102872455Y-120396705D01*
X102867958Y-120395810D01*
X102050671Y-120056295D01*
X102044345Y-120049956D01*
X102044354Y-120041002D01*
X102044567Y-120040521D01*
X102867312Y-118301840D01*
X102873948Y-118295829D01*
X102882891Y-118296270D01*
G37*
%TD.AperFunction*%
%TD*%
%TA.AperFunction,Conductor*%
%TO.N,Net-(LED6-A)*%
G36*
X114704562Y-119768173D02*
G01*
X114706213Y-119769543D01*
X115333355Y-120395293D01*
X115960926Y-121024260D01*
X115964344Y-121032537D01*
X115961055Y-121040657D01*
X114750718Y-122292306D01*
X114742503Y-122295871D01*
X114734174Y-122292584D01*
X114734034Y-122292446D01*
X113688658Y-121247070D01*
X113685231Y-121238797D01*
X113687277Y-121232187D01*
X114688299Y-119771210D01*
X114695800Y-119766324D01*
X114704562Y-119768173D01*
G37*
%TD.AperFunction*%
%TD*%
%TA.AperFunction,Conductor*%
%TO.N,GP26*%
G36*
X184857764Y-83723327D02*
G01*
X184860622Y-83727995D01*
X185116616Y-84518298D01*
X185115905Y-84527224D01*
X185109982Y-84532704D01*
X184662497Y-84719027D01*
X184653543Y-84719044D01*
X184653503Y-84719027D01*
X184206017Y-84532704D01*
X184199696Y-84526360D01*
X184199383Y-84518298D01*
X184455378Y-83727995D01*
X184461188Y-83721180D01*
X184466509Y-83719900D01*
X184849491Y-83719900D01*
X184857764Y-83723327D01*
G37*
%TD.AperFunction*%
%TD*%
%TA.AperFunction,Conductor*%
%TO.N,GP26*%
G36*
X185197157Y-81413205D02*
G01*
X185203478Y-81419549D01*
X185203461Y-81428503D01*
X185203359Y-81428742D01*
X184861083Y-82201942D01*
X184854600Y-82208120D01*
X184850384Y-82208906D01*
X184467410Y-82208906D01*
X184459137Y-82205479D01*
X184455982Y-82199715D01*
X184286723Y-81428742D01*
X184286418Y-81427352D01*
X184287991Y-81418539D01*
X184293348Y-81414045D01*
X184741766Y-81227333D01*
X184750717Y-81227317D01*
X185197157Y-81413205D01*
G37*
%TD.AperFunction*%
%TD*%
%TA.AperFunction,Conductor*%
%TO.N,Net-(O1A--)*%
G36*
X177354946Y-103459796D02*
G01*
X177354956Y-103459800D01*
X178630800Y-103991400D01*
X178637119Y-103997745D01*
X178638000Y-104002200D01*
X178638000Y-104386599D01*
X178634573Y-104394872D01*
X178630800Y-104397399D01*
X177354956Y-104928999D01*
X177346001Y-104929018D01*
X177339657Y-104922700D01*
X177038864Y-104198887D01*
X177038854Y-104189938D01*
X177339653Y-103466108D01*
X177345991Y-103459785D01*
X177354946Y-103459796D01*
G37*
%TD.AperFunction*%
%TD*%
%TA.AperFunction,Conductor*%
%TO.N,Net-(O1A--)*%
G36*
X173883586Y-102566933D02*
G01*
X173889911Y-102573272D01*
X173889915Y-102573282D01*
X174416173Y-103851336D01*
X174416154Y-103860291D01*
X174413627Y-103864064D01*
X174141816Y-104135875D01*
X174133543Y-104139302D01*
X174129088Y-104138421D01*
X173449399Y-103858549D01*
X172851034Y-103612163D01*
X172844689Y-103605844D01*
X172844670Y-103596889D01*
X172844674Y-103596879D01*
X173143790Y-102872385D01*
X173150114Y-102866048D01*
X173150116Y-102866046D01*
X173874631Y-102566922D01*
X173883586Y-102566933D01*
G37*
%TD.AperFunction*%
%TD*%
%TA.AperFunction,Conductor*%
%TO.N,Net-(O1A--)*%
G36*
X189496129Y-80071463D02*
G01*
X189502449Y-80077806D01*
X189502762Y-80085868D01*
X189246768Y-80876172D01*
X189240958Y-80882987D01*
X189235637Y-80884267D01*
X188852655Y-80884267D01*
X188844382Y-80880840D01*
X188841524Y-80876172D01*
X188585529Y-80085868D01*
X188586240Y-80076942D01*
X188592160Y-80071464D01*
X189039650Y-79885138D01*
X189048601Y-79885122D01*
X189496129Y-80071463D01*
G37*
%TD.AperFunction*%
%TD*%
%TA.AperFunction,Conductor*%
%TO.N,Net-(O1A--)*%
G36*
X189243228Y-87408982D02*
G01*
X189246322Y-87414484D01*
X189435569Y-88190933D01*
X189434199Y-88199783D01*
X189428699Y-88204505D01*
X188980497Y-88391127D01*
X188971543Y-88391144D01*
X188971503Y-88391127D01*
X188524850Y-88205150D01*
X188518529Y-88198806D01*
X188518540Y-88189864D01*
X188841151Y-87412768D01*
X188847488Y-87406442D01*
X188851957Y-87405555D01*
X189234955Y-87405555D01*
X189243228Y-87408982D01*
G37*
%TD.AperFunction*%
%TD*%
%TA.AperFunction,Conductor*%
%TO.N,Net-(O1A--)*%
G36*
X176736343Y-103466100D02*
G01*
X176736347Y-103466110D01*
X177037134Y-104189910D01*
X177037144Y-104198863D01*
X177037135Y-104198885D01*
X177037134Y-104198890D01*
X176736347Y-104922689D01*
X176730008Y-104929014D01*
X176721053Y-104929003D01*
X176721043Y-104928999D01*
X175445200Y-104397399D01*
X175438881Y-104391054D01*
X175438000Y-104386599D01*
X175438000Y-104002200D01*
X175441427Y-103993927D01*
X175445200Y-103991400D01*
X176721043Y-103459800D01*
X176729998Y-103459781D01*
X176736343Y-103466100D01*
G37*
%TD.AperFunction*%
%TD*%
%TA.AperFunction,Conductor*%
%TO.N,Net-(O1A--)*%
G36*
X184462063Y-98111603D02*
G01*
X184907503Y-98295147D01*
X184913846Y-98301467D01*
X184913858Y-98301495D01*
X185099434Y-98750487D01*
X185099427Y-98759442D01*
X185094494Y-98765075D01*
X184568722Y-99070258D01*
X184562851Y-99071839D01*
X184181639Y-99071839D01*
X184173366Y-99068412D01*
X184169939Y-99060139D01*
X184170415Y-99056836D01*
X184446392Y-98119120D01*
X184452014Y-98112153D01*
X184460918Y-98111201D01*
X184462063Y-98111603D01*
G37*
%TD.AperFunction*%
%TD*%
%TA.AperFunction,Conductor*%
%TO.N,Net-(O3A--)*%
G36*
X190819758Y-130812589D02*
G01*
X191839093Y-131554296D01*
X191843766Y-131561934D01*
X191841670Y-131570640D01*
X191840482Y-131572029D01*
X191569560Y-131842951D01*
X191564256Y-131845995D01*
X190562014Y-132108915D01*
X190553142Y-132107700D01*
X190548239Y-132102082D01*
X190248292Y-131378925D01*
X190248288Y-131369972D01*
X190250833Y-131366166D01*
X190804615Y-130813767D01*
X190812891Y-130810351D01*
X190819758Y-130812589D01*
G37*
%TD.AperFunction*%
%TD*%
%TA.AperFunction,Conductor*%
%TO.N,Net-(O3A--)*%
G36*
X195689654Y-135396901D02*
G01*
X196840271Y-135592744D01*
X196847852Y-135597510D01*
X196850008Y-135604268D01*
X196850702Y-136390246D01*
X196847282Y-136398522D01*
X196847265Y-136398539D01*
X196294247Y-136950177D01*
X196285969Y-136953594D01*
X196277701Y-136950157D01*
X196276352Y-136948535D01*
X195891428Y-136390246D01*
X195406388Y-135686751D01*
X195404514Y-135677997D01*
X195407746Y-135671841D01*
X195679425Y-135400162D01*
X195687697Y-135396736D01*
X195689654Y-135396901D01*
G37*
%TD.AperFunction*%
%TD*%
%TA.AperFunction,Conductor*%
%TO.N,Net-(O3B--)*%
G36*
X194285234Y-131041733D02*
G01*
X194291559Y-131048072D01*
X194291563Y-131048082D01*
X194817821Y-132326136D01*
X194817802Y-132335091D01*
X194815275Y-132338864D01*
X194543464Y-132610675D01*
X194535191Y-132614102D01*
X194530736Y-132613221D01*
X193851047Y-132333349D01*
X193252682Y-132086963D01*
X193246337Y-132080644D01*
X193246318Y-132071689D01*
X193246322Y-132071679D01*
X193545438Y-131347185D01*
X193551762Y-131340848D01*
X193551764Y-131340846D01*
X194276279Y-131041722D01*
X194285234Y-131041733D01*
G37*
%TD.AperFunction*%
%TD*%
%TA.AperFunction,Conductor*%
%TO.N,Net-(O3B--)*%
G36*
X198095691Y-113817597D02*
G01*
X198099464Y-113820124D01*
X198371275Y-114091935D01*
X198374702Y-114100208D01*
X198373821Y-114104663D01*
X197847563Y-115382717D01*
X197841244Y-115389062D01*
X197832289Y-115389081D01*
X197832279Y-115389077D01*
X197107787Y-115089962D01*
X197101448Y-115083637D01*
X197101437Y-115083612D01*
X196802322Y-114359120D01*
X196802333Y-114350165D01*
X196808670Y-114343841D01*
X198086738Y-113817578D01*
X198095691Y-113817597D01*
G37*
%TD.AperFunction*%
%TD*%
%TA.AperFunction,Conductor*%
%TO.N,Net-(O3B--)*%
G36*
X197079234Y-103384733D02*
G01*
X197085559Y-103391072D01*
X197085563Y-103391082D01*
X197611821Y-104669136D01*
X197611802Y-104678091D01*
X197609275Y-104681864D01*
X197337464Y-104953675D01*
X197329191Y-104957102D01*
X197324736Y-104956221D01*
X196645047Y-104676349D01*
X196046682Y-104429963D01*
X196040337Y-104423644D01*
X196040318Y-104414689D01*
X196040322Y-104414679D01*
X196339438Y-103690185D01*
X196345762Y-103683848D01*
X196345764Y-103683846D01*
X197070279Y-103384722D01*
X197079234Y-103384733D01*
G37*
%TD.AperFunction*%
%TD*%
%TA.AperFunction,Conductor*%
%TO.N,Net-(O3B--)*%
G36*
X197841234Y-114785733D02*
G01*
X197847559Y-114792072D01*
X197847563Y-114792082D01*
X198373821Y-116070136D01*
X198373802Y-116079091D01*
X198371275Y-116082864D01*
X198099464Y-116354675D01*
X198091191Y-116358102D01*
X198086736Y-116357221D01*
X197407047Y-116077349D01*
X196808682Y-115830963D01*
X196802337Y-115824644D01*
X196802318Y-115815689D01*
X196802322Y-115815679D01*
X197101438Y-115091185D01*
X197107762Y-115084848D01*
X197107764Y-115084846D01*
X197832279Y-114785722D01*
X197841234Y-114785733D01*
G37*
%TD.AperFunction*%
%TD*%
%TA.AperFunction,Conductor*%
%TO.N,Net-(O3C--)*%
G36*
X186968290Y-109010053D02*
G01*
X186974614Y-109016391D01*
X186974603Y-109025346D01*
X186974599Y-109025356D01*
X186443000Y-110301200D01*
X186436655Y-110307519D01*
X186432200Y-110308400D01*
X186047800Y-110308400D01*
X186039527Y-110304973D01*
X186037000Y-110301200D01*
X185505400Y-109025356D01*
X185505381Y-109016401D01*
X185511697Y-109010058D01*
X186235512Y-108709264D01*
X186244461Y-108709254D01*
X186968290Y-109010053D01*
G37*
%TD.AperFunction*%
%TD*%
%TA.AperFunction,Conductor*%
%TO.N,Net-(O3C--)*%
G36*
X186441567Y-110677814D02*
G01*
X186443389Y-110680173D01*
X187168325Y-111917681D01*
X187169550Y-111926552D01*
X187164144Y-111933690D01*
X187162720Y-111934399D01*
X186440490Y-112234534D01*
X186431536Y-112234544D01*
X185706407Y-111933205D01*
X185700083Y-111926867D01*
X185699612Y-111919318D01*
X186037645Y-110683001D01*
X186043133Y-110675925D01*
X186048931Y-110674387D01*
X186433294Y-110674387D01*
X186441567Y-110677814D01*
G37*
%TD.AperFunction*%
%TD*%
%TA.AperFunction,Conductor*%
%TO.N,Net-(O3C--)*%
G36*
X188422246Y-113934131D02*
G01*
X189374831Y-114222549D01*
X189777798Y-114344557D01*
X189784724Y-114350234D01*
X189785606Y-114359145D01*
X189785223Y-114360220D01*
X189486562Y-115083612D01*
X189480237Y-115089951D01*
X189480212Y-115089962D01*
X188754803Y-115389456D01*
X188745848Y-115389445D01*
X188739955Y-115384034D01*
X188136652Y-114222549D01*
X188135880Y-114213628D01*
X188138760Y-114208885D01*
X188410589Y-113937056D01*
X188418861Y-113933630D01*
X188422246Y-113934131D01*
G37*
%TD.AperFunction*%
%TD*%
%TA.AperFunction,Conductor*%
%TO.N,Net-(O3C--)*%
G36*
X187173234Y-111933733D02*
G01*
X187179559Y-111940072D01*
X187179563Y-111940082D01*
X187705821Y-113218136D01*
X187705802Y-113227091D01*
X187703275Y-113230864D01*
X187431464Y-113502675D01*
X187423191Y-113506102D01*
X187418736Y-113505221D01*
X186739047Y-113225349D01*
X186140682Y-112978963D01*
X186134337Y-112972644D01*
X186134318Y-112963689D01*
X186134322Y-112963679D01*
X186433438Y-112239185D01*
X186439762Y-112232848D01*
X186439764Y-112232846D01*
X187164279Y-111933722D01*
X187173234Y-111933733D01*
G37*
%TD.AperFunction*%
%TD*%
%TA.AperFunction,Conductor*%
%TO.N,Net-(O5-Pad7)*%
G36*
X182098611Y-138428777D02*
G01*
X183376670Y-138955036D01*
X183383014Y-138961355D01*
X183383033Y-138970310D01*
X183383029Y-138970320D01*
X183083914Y-139694812D01*
X183077589Y-139701151D01*
X183077564Y-139701162D01*
X182353072Y-140000277D01*
X182344117Y-140000266D01*
X182337793Y-139993928D01*
X181811530Y-138715861D01*
X181811549Y-138706908D01*
X181814073Y-138703138D01*
X182085888Y-138431323D01*
X182094160Y-138427897D01*
X182098611Y-138428777D01*
G37*
%TD.AperFunction*%
%TD*%
%TA.AperFunction,Conductor*%
%TO.N,Net-(O5-Pad7)*%
G36*
X194574072Y-139142922D02*
G01*
X195298564Y-139442037D01*
X195304903Y-139448362D01*
X195304914Y-139448387D01*
X195604029Y-140172879D01*
X195604018Y-140181834D01*
X195597679Y-140188159D01*
X195597669Y-140188163D01*
X194319615Y-140714421D01*
X194310660Y-140714402D01*
X194306887Y-140711875D01*
X194035076Y-140440064D01*
X194031649Y-140431791D01*
X194032529Y-140427340D01*
X194558789Y-139149280D01*
X194565107Y-139142937D01*
X194574062Y-139142918D01*
X194574072Y-139142922D01*
G37*
%TD.AperFunction*%
%TD*%
%TA.AperFunction,Conductor*%
%TO.N,Net-(O5-Pad7)*%
G36*
X183818535Y-139396956D02*
G01*
X183824864Y-139403291D01*
X183824890Y-139403354D01*
X183946819Y-139703090D01*
X184245650Y-140437704D01*
X184267933Y-140492480D01*
X184268795Y-140496889D01*
X184268795Y-140878785D01*
X184265368Y-140887058D01*
X184257095Y-140890485D01*
X184253672Y-140889973D01*
X182787505Y-140441466D01*
X182780597Y-140435769D01*
X182779740Y-140426855D01*
X182780104Y-140425837D01*
X183078498Y-139703089D01*
X183084823Y-139696751D01*
X183084841Y-139696743D01*
X183809582Y-139396951D01*
X183818535Y-139396956D01*
G37*
%TD.AperFunction*%
%TD*%
%TA.AperFunction,Conductor*%
%TO.N,Net-(O5-Pad7)*%
G36*
X167338072Y-102566922D02*
G01*
X168062564Y-102866037D01*
X168068903Y-102872362D01*
X168068914Y-102872387D01*
X168368029Y-103596879D01*
X168368018Y-103605834D01*
X168361679Y-103612159D01*
X168361669Y-103612163D01*
X167083615Y-104138421D01*
X167074660Y-104138402D01*
X167070887Y-104135875D01*
X166799076Y-103864064D01*
X166795649Y-103855791D01*
X166796529Y-103851340D01*
X167322789Y-102573280D01*
X167329107Y-102566937D01*
X167338062Y-102566918D01*
X167338072Y-102566922D01*
G37*
%TD.AperFunction*%
%TD*%
%TA.AperFunction,Conductor*%
%TO.N,Net-(O5C--)*%
G36*
X186416611Y-138174777D02*
G01*
X187694670Y-138701036D01*
X187701014Y-138707355D01*
X187701033Y-138716310D01*
X187701029Y-138716320D01*
X187401914Y-139440812D01*
X187395589Y-139447151D01*
X187395564Y-139447162D01*
X186671072Y-139746277D01*
X186662117Y-139746266D01*
X186655793Y-139739928D01*
X186129530Y-138461861D01*
X186129549Y-138452908D01*
X186132073Y-138449138D01*
X186403888Y-138177323D01*
X186412160Y-138173897D01*
X186416611Y-138174777D01*
G37*
%TD.AperFunction*%
%TD*%
%TA.AperFunction,Conductor*%
%TO.N,Net-(O5C--)*%
G36*
X181331066Y-132078590D02*
G01*
X181339334Y-132082024D01*
X181342659Y-132088803D01*
X181491281Y-133248720D01*
X181488934Y-133257362D01*
X181487949Y-133258480D01*
X181216223Y-133530206D01*
X181207950Y-133533633D01*
X181201089Y-133531410D01*
X179986768Y-132652321D01*
X179982076Y-132644694D01*
X179984152Y-132635983D01*
X179985341Y-132634586D01*
X180537213Y-132081333D01*
X180545479Y-132077897D01*
X181331066Y-132078590D01*
G37*
%TD.AperFunction*%
%TD*%
%TA.AperFunction,Conductor*%
%TO.N,Net-(O5C--)*%
G36*
X168599904Y-133614042D02*
G01*
X168603368Y-133622300D01*
X168603368Y-133622335D01*
X168604052Y-134106436D01*
X168600637Y-134114714D01*
X168600609Y-134114743D01*
X168257584Y-134456398D01*
X168249304Y-134459808D01*
X168241571Y-134456868D01*
X167618056Y-133904846D01*
X167614134Y-133896796D01*
X167617052Y-133888330D01*
X167617522Y-133887830D01*
X167888185Y-133617167D01*
X167896403Y-133613741D01*
X168591616Y-133610652D01*
X168599904Y-133614042D01*
G37*
%TD.AperFunction*%
%TD*%
%TA.AperFunction,Conductor*%
%TO.N,Net-(O5C--)*%
G36*
X165267642Y-128004253D02*
G01*
X165273966Y-128010591D01*
X165273955Y-128019546D01*
X165273951Y-128019556D01*
X164742352Y-129295400D01*
X164736007Y-129301719D01*
X164731552Y-129302600D01*
X164347152Y-129302600D01*
X164338879Y-129299173D01*
X164336352Y-129295400D01*
X163804752Y-128019556D01*
X163804733Y-128010601D01*
X163811049Y-128004258D01*
X164534864Y-127703464D01*
X164543813Y-127703454D01*
X165267642Y-128004253D01*
G37*
%TD.AperFunction*%
%TD*%
%TA.AperFunction,Conductor*%
%TO.N,Net-(O5D--)*%
G36*
X165531043Y-138936797D02*
G01*
X165534816Y-138939324D01*
X165806627Y-139211135D01*
X165810054Y-139219408D01*
X165809173Y-139223863D01*
X165282915Y-140501917D01*
X165276596Y-140508262D01*
X165267641Y-140508281D01*
X165267631Y-140508277D01*
X164543139Y-140209162D01*
X164536800Y-140202837D01*
X164536789Y-140202812D01*
X164237674Y-139478320D01*
X164237685Y-139469365D01*
X164244022Y-139463041D01*
X165522090Y-138936778D01*
X165531043Y-138936797D01*
G37*
%TD.AperFunction*%
%TD*%
%TA.AperFunction,Conductor*%
%TO.N,Net-(O5D--)*%
G36*
X171109642Y-132380253D02*
G01*
X171115966Y-132386591D01*
X171115955Y-132395546D01*
X171115951Y-132395556D01*
X170584352Y-133671400D01*
X170578007Y-133677719D01*
X170573552Y-133678600D01*
X170189152Y-133678600D01*
X170180879Y-133675173D01*
X170178352Y-133671400D01*
X169646752Y-132395556D01*
X169646733Y-132386601D01*
X169653049Y-132380258D01*
X170376864Y-132079464D01*
X170385813Y-132079454D01*
X171109642Y-132380253D01*
G37*
%TD.AperFunction*%
%TD*%
%TA.AperFunction,Conductor*%
%TO.N,GP22*%
G36*
X187909583Y-89946198D02*
G01*
X187913010Y-89954471D01*
X187912867Y-89956293D01*
X187716555Y-91201534D01*
X187711882Y-91209173D01*
X187705013Y-91211412D01*
X186922833Y-91212390D01*
X186914555Y-91208973D01*
X186912006Y-91205162D01*
X186612752Y-90481722D01*
X186612757Y-90472767D01*
X186617659Y-90467149D01*
X187512264Y-89944368D01*
X187518167Y-89942771D01*
X187901310Y-89942771D01*
X187909583Y-89946198D01*
G37*
%TD.AperFunction*%
%TD*%
%TA.AperFunction,Conductor*%
%TO.N,GP22*%
G36*
X183457691Y-102511597D02*
G01*
X183461464Y-102514124D01*
X183733275Y-102785935D01*
X183736702Y-102794208D01*
X183735821Y-102798663D01*
X183209563Y-104076717D01*
X183203244Y-104083062D01*
X183194289Y-104083081D01*
X183194279Y-104083077D01*
X182469787Y-103783962D01*
X182463448Y-103777637D01*
X182463437Y-103777612D01*
X182164322Y-103053120D01*
X182164333Y-103044165D01*
X182170670Y-103037841D01*
X183448738Y-102511578D01*
X183457691Y-102511597D01*
G37*
%TD.AperFunction*%
%TD*%
%TA.AperFunction,Conductor*%
%TO.N,GP22*%
G36*
X178878039Y-79009784D02*
G01*
X178884362Y-79016125D01*
X178884479Y-79024753D01*
X178490870Y-80057866D01*
X178484723Y-80064377D01*
X178479937Y-80065400D01*
X178096063Y-80065400D01*
X178087790Y-80061973D01*
X178085130Y-80057866D01*
X177691520Y-79024753D01*
X177691776Y-79015801D01*
X177697958Y-79009785D01*
X178283508Y-78766267D01*
X178292460Y-78766255D01*
X178878039Y-79009784D01*
G37*
%TD.AperFunction*%
%TD*%
%TA.AperFunction,Conductor*%
%TO.N,GP22*%
G36*
X186186720Y-90909722D02*
G01*
X186911212Y-91208837D01*
X186917551Y-91215162D01*
X186917562Y-91215187D01*
X187216677Y-91939679D01*
X187216666Y-91948634D01*
X187210327Y-91954959D01*
X187210317Y-91954963D01*
X185932263Y-92481221D01*
X185923308Y-92481202D01*
X185919535Y-92478675D01*
X185647724Y-92206864D01*
X185644297Y-92198591D01*
X185645177Y-92194140D01*
X186171437Y-90916080D01*
X186177755Y-90909737D01*
X186186710Y-90909718D01*
X186186720Y-90909722D01*
G37*
%TD.AperFunction*%
%TD*%
%TA.AperFunction,Conductor*%
%TO.N,GP21*%
G36*
X186186720Y-99008722D02*
G01*
X186911212Y-99307837D01*
X186917551Y-99314162D01*
X186917562Y-99314187D01*
X187216677Y-100038679D01*
X187216666Y-100047634D01*
X187210327Y-100053959D01*
X187210317Y-100053963D01*
X185932263Y-100580221D01*
X185923308Y-100580202D01*
X185919535Y-100577675D01*
X185647724Y-100305864D01*
X185644297Y-100297591D01*
X185645177Y-100293140D01*
X186171437Y-99015080D01*
X186177755Y-99008737D01*
X186186710Y-99008718D01*
X186186720Y-99008722D01*
G37*
%TD.AperFunction*%
%TD*%
%TA.AperFunction,Conductor*%
%TO.N,GP21*%
G36*
X183457691Y-107591597D02*
G01*
X183461464Y-107594124D01*
X183733275Y-107865935D01*
X183736702Y-107874208D01*
X183735821Y-107878663D01*
X183209563Y-109156717D01*
X183203244Y-109163062D01*
X183194289Y-109163081D01*
X183194279Y-109163077D01*
X182469787Y-108863962D01*
X182463448Y-108857637D01*
X182463437Y-108857612D01*
X182164322Y-108133120D01*
X182164333Y-108124165D01*
X182170670Y-108117841D01*
X183448738Y-107591578D01*
X183457691Y-107591597D01*
G37*
%TD.AperFunction*%
%TD*%
%TA.AperFunction,Conductor*%
%TO.N,GP20*%
G36*
X183457691Y-110131597D02*
G01*
X183461464Y-110134124D01*
X183733275Y-110405935D01*
X183736702Y-110414208D01*
X183735821Y-110418663D01*
X183209563Y-111696717D01*
X183203244Y-111703062D01*
X183194289Y-111703081D01*
X183194279Y-111703077D01*
X182469787Y-111403962D01*
X182463448Y-111397637D01*
X182463437Y-111397612D01*
X182164322Y-110673120D01*
X182164333Y-110664165D01*
X182170670Y-110657841D01*
X183448738Y-110131578D01*
X183457691Y-110131597D01*
G37*
%TD.AperFunction*%
%TD*%
%TA.AperFunction,Conductor*%
%TO.N,GP20*%
G36*
X187193290Y-102435053D02*
G01*
X187199614Y-102441391D01*
X187199603Y-102450346D01*
X187199599Y-102450356D01*
X186668000Y-103726200D01*
X186661655Y-103732519D01*
X186657200Y-103733400D01*
X186272800Y-103733400D01*
X186264527Y-103729973D01*
X186262000Y-103726200D01*
X185730400Y-102450356D01*
X185730381Y-102441401D01*
X185736697Y-102435058D01*
X186460512Y-102134264D01*
X186469461Y-102134254D01*
X187193290Y-102435053D01*
G37*
%TD.AperFunction*%
%TD*%
%TA.AperFunction,Conductor*%
%TO.N,GP16*%
G36*
X182164343Y-123373100D02*
G01*
X182164347Y-123373110D01*
X182465134Y-124096910D01*
X182465144Y-124105863D01*
X182465135Y-124105885D01*
X182465134Y-124105890D01*
X182164347Y-124829689D01*
X182158008Y-124836014D01*
X182149053Y-124836003D01*
X182149043Y-124835999D01*
X180873200Y-124304399D01*
X180866881Y-124298054D01*
X180866000Y-124293599D01*
X180866000Y-123909200D01*
X180869427Y-123900927D01*
X180873200Y-123898400D01*
X182149043Y-123366800D01*
X182157998Y-123366781D01*
X182164343Y-123373100D01*
G37*
%TD.AperFunction*%
%TD*%
%TA.AperFunction,Conductor*%
%TO.N,GP16*%
G36*
X175173664Y-123906021D02*
G01*
X175178723Y-123913410D01*
X175178974Y-123915822D01*
X175178974Y-124298552D01*
X175177666Y-124303928D01*
X174681392Y-125263204D01*
X174674547Y-125268978D01*
X174666528Y-125268640D01*
X173940841Y-124968456D01*
X173934506Y-124962127D01*
X173934498Y-124962109D01*
X173636577Y-124240507D01*
X173636588Y-124231552D01*
X173642927Y-124225227D01*
X173644972Y-124224595D01*
X175164862Y-123904373D01*
X175173664Y-123906021D01*
G37*
%TD.AperFunction*%
%TD*%
%TA.AperFunction,Conductor*%
%TO.N,GP17*%
G36*
X181483259Y-120291577D02*
G01*
X182761318Y-120817836D01*
X182767662Y-120824155D01*
X182767681Y-120833110D01*
X182767677Y-120833120D01*
X182468562Y-121557612D01*
X182462237Y-121563951D01*
X182462212Y-121563962D01*
X181737720Y-121863077D01*
X181728765Y-121863066D01*
X181722441Y-121856728D01*
X181196178Y-120578661D01*
X181196197Y-120569708D01*
X181198721Y-120565938D01*
X181470536Y-120294123D01*
X181478808Y-120290697D01*
X181483259Y-120291577D01*
G37*
%TD.AperFunction*%
%TD*%
%TA.AperFunction,Conductor*%
%TO.N,GP17*%
G36*
X174420586Y-106630933D02*
G01*
X174426911Y-106637272D01*
X174426915Y-106637282D01*
X174953173Y-107915336D01*
X174953154Y-107924291D01*
X174950627Y-107928064D01*
X174678816Y-108199875D01*
X174670543Y-108203302D01*
X174666088Y-108202421D01*
X173986399Y-107922549D01*
X173388034Y-107676163D01*
X173381689Y-107669844D01*
X173381670Y-107660889D01*
X173381674Y-107660879D01*
X173680790Y-106936385D01*
X173687114Y-106930048D01*
X173687116Y-106930046D01*
X174411631Y-106630922D01*
X174420586Y-106630933D01*
G37*
%TD.AperFunction*%
%TD*%
%TA.AperFunction,Conductor*%
%TO.N,GP19*%
G36*
X183203234Y-113639733D02*
G01*
X183209559Y-113646072D01*
X183209563Y-113646082D01*
X183735821Y-114924136D01*
X183735802Y-114933091D01*
X183733275Y-114936864D01*
X183461464Y-115208675D01*
X183453191Y-115212102D01*
X183448736Y-115211221D01*
X182769047Y-114931349D01*
X182170682Y-114684963D01*
X182164337Y-114678644D01*
X182164318Y-114669689D01*
X182164322Y-114669679D01*
X182463438Y-113945185D01*
X182469762Y-113938848D01*
X182469764Y-113938846D01*
X183194279Y-113639722D01*
X183203234Y-113639733D01*
G37*
%TD.AperFunction*%
%TD*%
%TA.AperFunction,Conductor*%
%TO.N,GP19*%
G36*
X183311043Y-126490797D02*
G01*
X183314816Y-126493324D01*
X183586627Y-126765135D01*
X183590054Y-126773408D01*
X183589173Y-126777863D01*
X183062915Y-128055917D01*
X183056596Y-128062262D01*
X183047641Y-128062281D01*
X183047631Y-128062277D01*
X182323139Y-127763162D01*
X182316800Y-127756837D01*
X182316789Y-127756812D01*
X182017674Y-127032320D01*
X182017685Y-127023365D01*
X182024022Y-127017041D01*
X183302090Y-126490778D01*
X183311043Y-126490797D01*
G37*
%TD.AperFunction*%
%TD*%
%TA.AperFunction,Conductor*%
%TO.N,Net-(R19-Pad2)*%
G36*
X89527430Y-81983114D02*
G01*
X89528365Y-81987697D01*
X89528365Y-83465950D01*
X89525862Y-83473183D01*
X88783996Y-84416476D01*
X88776188Y-84420860D01*
X88768243Y-84418933D01*
X87886932Y-83822660D01*
X87882034Y-83815352D01*
X87665433Y-82773250D01*
X87667104Y-82764455D01*
X87672302Y-82760108D01*
X89512083Y-81976931D01*
X89521037Y-81976844D01*
X89527430Y-81983114D01*
G37*
%TD.AperFunction*%
%TD*%
%TA.AperFunction,Conductor*%
%TO.N,Net-(R20-Pad2)*%
G36*
X106723920Y-81911608D02*
G01*
X108071560Y-82811526D01*
X108076538Y-82818970D01*
X108076117Y-82825089D01*
X107723806Y-83841206D01*
X107717858Y-83847900D01*
X107717336Y-83848138D01*
X106719943Y-84272876D01*
X106710989Y-84272964D01*
X106706253Y-84269458D01*
X105661881Y-82975121D01*
X105659353Y-82966531D01*
X105662713Y-82959502D01*
X106709151Y-81913064D01*
X106717423Y-81909638D01*
X106723920Y-81911608D01*
G37*
%TD.AperFunction*%
%TD*%
%TA.AperFunction,Conductor*%
%TO.N,Net-(O3B-+)*%
G36*
X192273290Y-102435053D02*
G01*
X192279614Y-102441391D01*
X192279603Y-102450346D01*
X192279599Y-102450356D01*
X191748000Y-103726200D01*
X191741655Y-103732519D01*
X191737200Y-103733400D01*
X191352800Y-103733400D01*
X191344527Y-103729973D01*
X191342000Y-103726200D01*
X190810400Y-102450356D01*
X190810381Y-102441401D01*
X190816697Y-102435058D01*
X191540512Y-102134264D01*
X191549461Y-102134254D01*
X192273290Y-102435053D01*
G37*
%TD.AperFunction*%
%TD*%
%TA.AperFunction,Conductor*%
%TO.N,Net-(O3B-+)*%
G36*
X196121259Y-116357577D02*
G01*
X197399318Y-116883836D01*
X197405662Y-116890155D01*
X197405681Y-116899110D01*
X197405677Y-116899120D01*
X197106562Y-117623612D01*
X197100237Y-117629951D01*
X197100212Y-117629962D01*
X196375720Y-117929077D01*
X196366765Y-117929066D01*
X196360441Y-117922728D01*
X195834178Y-116644661D01*
X195834197Y-116635708D01*
X195836721Y-116631938D01*
X196108536Y-116360123D01*
X196116808Y-116356697D01*
X196121259Y-116357577D01*
G37*
%TD.AperFunction*%
%TD*%
%TA.AperFunction,Conductor*%
%TO.N,Net-(O3B-+)*%
G36*
X191716646Y-100542595D02*
G01*
X191719078Y-100546147D01*
X192279280Y-101816315D01*
X192279483Y-101825267D01*
X192273296Y-101831741D01*
X192273065Y-101831840D01*
X191549490Y-102132534D01*
X191540536Y-102132544D01*
X190816519Y-101831667D01*
X190810195Y-101825329D01*
X190810132Y-101816556D01*
X190810228Y-101816315D01*
X191313073Y-100546560D01*
X191319305Y-100540130D01*
X191323951Y-100539168D01*
X191708373Y-100539168D01*
X191716646Y-100542595D01*
G37*
%TD.AperFunction*%
%TD*%
%TA.AperFunction,Conductor*%
%TO.N,Net-(O3B-+)*%
G36*
X192244290Y-97392354D02*
G01*
X192250614Y-97398692D01*
X192250603Y-97407647D01*
X192250599Y-97407657D01*
X191719000Y-98683501D01*
X191712655Y-98689820D01*
X191708200Y-98690701D01*
X191323800Y-98690701D01*
X191315527Y-98687274D01*
X191313000Y-98683501D01*
X190781400Y-97407657D01*
X190781381Y-97398702D01*
X190787697Y-97392359D01*
X191511512Y-97091565D01*
X191520461Y-97091555D01*
X192244290Y-97392354D01*
G37*
%TD.AperFunction*%
%TD*%
%TA.AperFunction,Conductor*%
%TO.N,CJD*%
G36*
X165194291Y-68104801D02*
G01*
X166134682Y-69087715D01*
X166137925Y-69096062D01*
X166134501Y-69104076D01*
X165440326Y-69798251D01*
X165432053Y-69801678D01*
X165428898Y-69801245D01*
X164114438Y-69433140D01*
X164107395Y-69427609D01*
X164106312Y-69418771D01*
X164336004Y-68583977D01*
X164341500Y-68576913D01*
X165180079Y-68102704D01*
X165188966Y-68101615D01*
X165194291Y-68104801D01*
G37*
%TD.AperFunction*%
%TD*%
%TA.AperFunction,Conductor*%
%TO.N,CJD*%
G36*
X170678938Y-75190827D02*
G01*
X170682073Y-75196502D01*
X171009301Y-76633366D01*
X171007797Y-76642194D01*
X171002381Y-76646769D01*
X170184488Y-76986535D01*
X170175534Y-76986544D01*
X170175512Y-76986535D01*
X169357618Y-76646769D01*
X169351292Y-76640430D01*
X169350698Y-76633367D01*
X169677927Y-75196501D01*
X169683105Y-75189196D01*
X169689335Y-75187400D01*
X170670665Y-75187400D01*
X170678938Y-75190827D01*
G37*
%TD.AperFunction*%
%TD*%
%TA.AperFunction,Conductor*%
%TO.N,CJD*%
G36*
X171970898Y-76485327D02*
G01*
X171978204Y-76490505D01*
X171980000Y-76496735D01*
X171980000Y-77478064D01*
X171976573Y-77486337D01*
X171970898Y-77489472D01*
X170534033Y-77816701D01*
X170525205Y-77815197D01*
X170520630Y-77809781D01*
X170180863Y-76991887D01*
X170180855Y-76982934D01*
X170180864Y-76982912D01*
X170385418Y-76490505D01*
X170520630Y-76165017D01*
X170526969Y-76158692D01*
X170534031Y-76158098D01*
X171970898Y-76485327D01*
G37*
%TD.AperFunction*%
%TD*%
%TA.AperFunction,Conductor*%
%TO.N,CJD*%
G36*
X83805869Y-66883427D02*
G01*
X83809216Y-66890333D01*
X83907338Y-67724373D01*
X83904901Y-67732990D01*
X83903996Y-67734008D01*
X83066278Y-68572712D01*
X83058007Y-68576144D01*
X83049732Y-68572722D01*
X83049722Y-68572712D01*
X82212003Y-67734008D01*
X82208581Y-67725733D01*
X82208660Y-67724390D01*
X82306784Y-66890332D01*
X82311154Y-66882517D01*
X82318404Y-66880000D01*
X83797596Y-66880000D01*
X83805869Y-66883427D01*
G37*
%TD.AperFunction*%
%TD*%
%TA.AperFunction,Conductor*%
%TO.N,CJD*%
G36*
X175943523Y-76491998D02*
G01*
X177174954Y-76866930D01*
X177254424Y-76891127D01*
X177261340Y-76896815D01*
X177262209Y-76905728D01*
X177261832Y-76906782D01*
X177019893Y-77493235D01*
X177017341Y-77497055D01*
X176585416Y-77928041D01*
X176577139Y-77931459D01*
X176570652Y-77929487D01*
X176495740Y-77879434D01*
X176444791Y-77869299D01*
X176440100Y-77867219D01*
X175933147Y-77490908D01*
X175928547Y-77483225D01*
X175928421Y-77481513D01*
X175928421Y-76503192D01*
X175931848Y-76494919D01*
X175940121Y-76491492D01*
X175943523Y-76491998D01*
G37*
%TD.AperFunction*%
%TD*%
%TA.AperFunction,Conductor*%
%TO.N,CK1*%
G36*
X110537089Y-60756776D02*
G01*
X111357943Y-61095799D01*
X111361759Y-61098349D01*
X111987995Y-61725978D01*
X111991413Y-61734255D01*
X111988441Y-61742034D01*
X110836436Y-63032440D01*
X110828370Y-63036329D01*
X110819916Y-63033376D01*
X110819435Y-63032921D01*
X109774083Y-61987569D01*
X109770656Y-61979296D01*
X109772408Y-61973140D01*
X110522678Y-60761431D01*
X110529945Y-60756202D01*
X110537089Y-60756776D01*
G37*
%TD.AperFunction*%
%TD*%
%TA.AperFunction,Conductor*%
%TO.N,CK1*%
G36*
X167284292Y-81816393D02*
G01*
X167290215Y-81821873D01*
X167668027Y-82561717D01*
X167668738Y-82570643D01*
X167665880Y-82575311D01*
X167395071Y-82846120D01*
X167386798Y-82849547D01*
X167381477Y-82848267D01*
X166641633Y-82470455D01*
X166635823Y-82463640D01*
X166636135Y-82455580D01*
X166820807Y-82007405D01*
X166827125Y-82001064D01*
X167275340Y-81816376D01*
X167284292Y-81816393D01*
G37*
%TD.AperFunction*%
%TD*%
%TA.AperFunction,Conductor*%
%TO.N,CK1*%
G36*
X182164330Y-95433115D02*
G01*
X182164514Y-95433534D01*
X182464845Y-96157619D01*
X182464850Y-96166574D01*
X182464842Y-96166592D01*
X182164608Y-96889061D01*
X182158269Y-96895386D01*
X182149314Y-96895375D01*
X182148702Y-96895100D01*
X180773110Y-96228561D01*
X180767159Y-96221870D01*
X180767683Y-96212930D01*
X180769936Y-96209762D01*
X181039677Y-95940021D01*
X181043042Y-95937675D01*
X182148805Y-95427393D01*
X182157752Y-95427039D01*
X182164330Y-95433115D01*
G37*
%TD.AperFunction*%
%TD*%
%TA.AperFunction,Conductor*%
%TO.N,CK1*%
G36*
X83071020Y-72811510D02*
G01*
X84728751Y-73003799D01*
X84736574Y-73008156D01*
X84739103Y-73015421D01*
X84739103Y-74493334D01*
X84735676Y-74501607D01*
X84727438Y-74505034D01*
X83069721Y-74509965D01*
X83061437Y-74506563D01*
X83057986Y-74498300D01*
X83057986Y-74498279D01*
X83057000Y-73660000D01*
X83057758Y-73015421D01*
X83057984Y-72823117D01*
X83061421Y-72814850D01*
X83069698Y-72811433D01*
X83071020Y-72811510D01*
G37*
%TD.AperFunction*%
%TD*%
%TA.AperFunction,Conductor*%
%TO.N,CK2*%
G36*
X182164343Y-90353100D02*
G01*
X182164347Y-90353110D01*
X182465134Y-91076910D01*
X182465144Y-91085863D01*
X182465135Y-91085885D01*
X182465134Y-91085890D01*
X182164347Y-91809689D01*
X182158008Y-91816014D01*
X182149053Y-91816003D01*
X182149043Y-91815999D01*
X180873200Y-91284399D01*
X180866881Y-91278054D01*
X180866000Y-91273599D01*
X180866000Y-90889200D01*
X180869427Y-90880927D01*
X180873200Y-90878400D01*
X182149043Y-90346800D01*
X182157998Y-90346781D01*
X182164343Y-90353100D01*
G37*
%TD.AperFunction*%
%TD*%
%TA.AperFunction,Conductor*%
%TO.N,CK2*%
G36*
X165121343Y-75879233D02*
G01*
X165127668Y-75885572D01*
X165127707Y-75885667D01*
X165678613Y-77253485D01*
X165678525Y-77262439D01*
X165676033Y-77266129D01*
X165404129Y-77538033D01*
X165395856Y-77541460D01*
X165391485Y-77540613D01*
X164023667Y-76989707D01*
X164017273Y-76983437D01*
X164017185Y-76974483D01*
X164017224Y-76974388D01*
X164335438Y-76203783D01*
X164341759Y-76197448D01*
X165112388Y-75879224D01*
X165121343Y-75879233D01*
G37*
%TD.AperFunction*%
%TD*%
%TA.AperFunction,Conductor*%
%TO.N,CJ1*%
G36*
X197110884Y-127796063D02*
G01*
X197112064Y-127797439D01*
X197682901Y-128578848D01*
X197685014Y-128587550D01*
X197681259Y-128594465D01*
X196799333Y-129384415D01*
X196791527Y-129387400D01*
X196406431Y-129387400D01*
X196398158Y-129383973D01*
X196394808Y-129377037D01*
X196304645Y-128593009D01*
X196307104Y-128584398D01*
X196307981Y-128583413D01*
X197094339Y-127796072D01*
X197102609Y-127792641D01*
X197110884Y-127796063D01*
G37*
%TD.AperFunction*%
%TD*%
%TA.AperFunction,Conductor*%
%TO.N,CJ1*%
G36*
X196797859Y-129768350D02*
G01*
X196799448Y-129770329D01*
X197110246Y-130257560D01*
X197581609Y-130996504D01*
X197583169Y-131005322D01*
X197578037Y-131012660D01*
X197576235Y-131013600D01*
X196854490Y-131313534D01*
X196845536Y-131313544D01*
X196845510Y-131313534D01*
X196120017Y-131012043D01*
X196113692Y-131005704D01*
X196113103Y-130998627D01*
X196393917Y-129774008D01*
X196399106Y-129766710D01*
X196405321Y-129764923D01*
X196789586Y-129764923D01*
X196797859Y-129768350D01*
G37*
%TD.AperFunction*%
%TD*%
%TA.AperFunction,Conductor*%
%TO.N,CJ1*%
G36*
X83393691Y-95740140D02*
G01*
X83394575Y-95740552D01*
X85024840Y-96585023D01*
X85030609Y-96591870D01*
X85029847Y-96600792D01*
X85027731Y-96603684D01*
X83983212Y-97648203D01*
X83974939Y-97651630D01*
X83971793Y-97651199D01*
X82745420Y-97308843D01*
X82738373Y-97303318D01*
X82737297Y-97294428D01*
X82737748Y-97293119D01*
X83057293Y-96519293D01*
X83378397Y-95746455D01*
X83384736Y-95740131D01*
X83393691Y-95740140D01*
G37*
%TD.AperFunction*%
%TD*%
%TA.AperFunction,Conductor*%
%TO.N,CJ1*%
G36*
X165123376Y-96198393D02*
G01*
X165128623Y-96202710D01*
X165859133Y-97298877D01*
X165860869Y-97307662D01*
X165857670Y-97313638D01*
X165585917Y-97585391D01*
X165577644Y-97588818D01*
X165575609Y-97588640D01*
X165418243Y-97560839D01*
X164347655Y-97371705D01*
X164340105Y-97366892D01*
X164337991Y-97360196D01*
X164337299Y-96527125D01*
X164340719Y-96518851D01*
X164344531Y-96516303D01*
X165114422Y-96198384D01*
X165123376Y-96198393D01*
G37*
%TD.AperFunction*%
%TD*%
%TA.AperFunction,Conductor*%
%TO.N,CJ1*%
G36*
X195885583Y-126763793D02*
G01*
X197304106Y-126981913D01*
X197326573Y-126985368D01*
X197334229Y-126990012D01*
X197336359Y-126998710D01*
X197336021Y-127000228D01*
X197106076Y-127783441D01*
X197100458Y-127790414D01*
X197100434Y-127790427D01*
X196313844Y-128217616D01*
X196304938Y-128218553D01*
X196298231Y-128213359D01*
X195601598Y-127053568D01*
X195600277Y-127044714D01*
X195603354Y-127039275D01*
X195875545Y-126767084D01*
X195883817Y-126763658D01*
X195885583Y-126763793D01*
G37*
%TD.AperFunction*%
%TD*%
%TA.AperFunction,Conductor*%
%TO.N,CJ2*%
G36*
X195359259Y-107496577D02*
G01*
X196637318Y-108022836D01*
X196643662Y-108029155D01*
X196643681Y-108038110D01*
X196643677Y-108038120D01*
X196344562Y-108762612D01*
X196338237Y-108768951D01*
X196338212Y-108768962D01*
X195613720Y-109068077D01*
X195604765Y-109068066D01*
X195598441Y-109061728D01*
X195072178Y-107783661D01*
X195072197Y-107774708D01*
X195074721Y-107770938D01*
X195346536Y-107499123D01*
X195354808Y-107495697D01*
X195359259Y-107496577D01*
G37*
%TD.AperFunction*%
%TD*%
%TA.AperFunction,Conductor*%
%TO.N,CJ2*%
G36*
X197131696Y-108766387D02*
G01*
X197139964Y-108769824D01*
X197143289Y-108776623D01*
X197302340Y-110037605D01*
X197299975Y-110046242D01*
X197292196Y-110050677D01*
X197290732Y-110050769D01*
X196907370Y-110050769D01*
X196901147Y-110048977D01*
X196044217Y-109510757D01*
X196039034Y-109503455D01*
X196039628Y-109496377D01*
X196337358Y-108776623D01*
X196339006Y-108772636D01*
X196345335Y-108766302D01*
X196349829Y-108765409D01*
X197131696Y-108766387D01*
G37*
%TD.AperFunction*%
%TD*%
%TA.AperFunction,Conductor*%
%TO.N,CJ2*%
G36*
X83394233Y-93198815D02*
G01*
X85106262Y-93841791D01*
X85112802Y-93847908D01*
X85113101Y-93856858D01*
X85110421Y-93861017D01*
X84066416Y-94905022D01*
X84058143Y-94908449D01*
X84057228Y-94908413D01*
X83068776Y-94830845D01*
X83060796Y-94826782D01*
X83057991Y-94819191D01*
X83057294Y-93981628D01*
X83058188Y-93977138D01*
X83378944Y-93205139D01*
X83385283Y-93198815D01*
X83393862Y-93198676D01*
X83394233Y-93198815D01*
G37*
%TD.AperFunction*%
%TD*%
%TA.AperFunction,Conductor*%
%TO.N,CJ2*%
G36*
X197304473Y-110950827D02*
G01*
X197307000Y-110954600D01*
X197838599Y-112230443D01*
X197838618Y-112239398D01*
X197832299Y-112245743D01*
X197832289Y-112245747D01*
X197108490Y-112546534D01*
X197099536Y-112546544D01*
X196375709Y-112245746D01*
X196369385Y-112239408D01*
X196369396Y-112230453D01*
X196369400Y-112230443D01*
X196901000Y-110954600D01*
X196907345Y-110948281D01*
X196911800Y-110947400D01*
X197296200Y-110947400D01*
X197304473Y-110950827D01*
G37*
%TD.AperFunction*%
%TD*%
%TA.AperFunction,Conductor*%
%TO.N,CJ2*%
G36*
X165121343Y-93659233D02*
G01*
X165127668Y-93665572D01*
X165127707Y-93665667D01*
X165678613Y-95033485D01*
X165678525Y-95042439D01*
X165676033Y-95046129D01*
X165404129Y-95318033D01*
X165395856Y-95321460D01*
X165391485Y-95320613D01*
X164023667Y-94769707D01*
X164017273Y-94763437D01*
X164017185Y-94754483D01*
X164017224Y-94754388D01*
X164335438Y-93983783D01*
X164341759Y-93977448D01*
X165112388Y-93659224D01*
X165121343Y-93659233D01*
G37*
%TD.AperFunction*%
%TD*%
%TA.AperFunction,Conductor*%
%TO.N,CJ2*%
G36*
X193019504Y-104393982D02*
G01*
X193027772Y-104397421D01*
X193031187Y-104405699D01*
X193031161Y-104406468D01*
X192983145Y-105120027D01*
X192979744Y-105127514D01*
X192709304Y-105397954D01*
X192701031Y-105401381D01*
X192692758Y-105397954D01*
X192691859Y-105396943D01*
X192184890Y-104755703D01*
X192182448Y-104747089D01*
X192185778Y-104740192D01*
X192527859Y-104396740D01*
X192536121Y-104393299D01*
X193019504Y-104393982D01*
G37*
%TD.AperFunction*%
%TD*%
%TA.AperFunction,Conductor*%
%TO.N,CJ2*%
G36*
X179070331Y-101400035D02*
G01*
X179884329Y-101490079D01*
X179892176Y-101494395D01*
X179894743Y-101501685D01*
X179895713Y-101986360D01*
X179892303Y-101994638D01*
X179892282Y-101994659D01*
X179892274Y-101994668D01*
X179549958Y-102336017D01*
X179541680Y-102339432D01*
X179533412Y-102335993D01*
X179532939Y-102335490D01*
X179060297Y-101801921D01*
X179057355Y-101794163D01*
X179057355Y-101411665D01*
X179060782Y-101403392D01*
X179069055Y-101399965D01*
X179070331Y-101400035D01*
G37*
%TD.AperFunction*%
%TD*%
%TA.AperFunction,Conductor*%
%TO.N,CJ3*%
G36*
X192177695Y-138716300D02*
G01*
X192177699Y-138716310D01*
X192478486Y-139440110D01*
X192478496Y-139449063D01*
X192478487Y-139449085D01*
X192478486Y-139449090D01*
X192177699Y-140172889D01*
X192171360Y-140179214D01*
X192162405Y-140179203D01*
X192162395Y-140179199D01*
X190886552Y-139647599D01*
X190880233Y-139641254D01*
X190879352Y-139636799D01*
X190879352Y-139252400D01*
X190882779Y-139244127D01*
X190886552Y-139241600D01*
X192162395Y-138710000D01*
X192171350Y-138709981D01*
X192177695Y-138716300D01*
G37*
%TD.AperFunction*%
%TD*%
%TA.AperFunction,Conductor*%
%TO.N,CJ3*%
G36*
X183818586Y-131776933D02*
G01*
X183824911Y-131783272D01*
X183824915Y-131783282D01*
X184351173Y-133061336D01*
X184351154Y-133070291D01*
X184348627Y-133074064D01*
X184076816Y-133345875D01*
X184068543Y-133349302D01*
X184064088Y-133348421D01*
X183384399Y-133068549D01*
X182786034Y-132822163D01*
X182779689Y-132815844D01*
X182779670Y-132806889D01*
X182779674Y-132806879D01*
X183078790Y-132082385D01*
X183085114Y-132076048D01*
X183085116Y-132076046D01*
X183809631Y-131776922D01*
X183818586Y-131776933D01*
G37*
%TD.AperFunction*%
%TD*%
%TA.AperFunction,Conductor*%
%TO.N,CJ3*%
G36*
X85187599Y-91099264D02*
G01*
X85194811Y-91104569D01*
X85196159Y-91113422D01*
X85193072Y-91118896D01*
X84149968Y-92162000D01*
X84143030Y-92165351D01*
X83071024Y-92288503D01*
X83062414Y-92286042D01*
X83058065Y-92278214D01*
X83057989Y-92276889D01*
X83057896Y-92164886D01*
X83057294Y-91441628D01*
X83058188Y-91437138D01*
X83379429Y-90663972D01*
X83385766Y-90657650D01*
X83393030Y-90657104D01*
X85187599Y-91099264D01*
G37*
%TD.AperFunction*%
%TD*%
%TA.AperFunction,Conductor*%
%TO.N,CJ4*%
G36*
X186636473Y-131778827D02*
G01*
X186639000Y-131782600D01*
X187170599Y-133058443D01*
X187170618Y-133067398D01*
X187164299Y-133073743D01*
X187164289Y-133073747D01*
X186440490Y-133374534D01*
X186431536Y-133374544D01*
X185707709Y-133073746D01*
X185701385Y-133067408D01*
X185701396Y-133058453D01*
X185701400Y-133058443D01*
X186233000Y-131782600D01*
X186239345Y-131776281D01*
X186243800Y-131775400D01*
X186628200Y-131775400D01*
X186636473Y-131778827D01*
G37*
%TD.AperFunction*%
%TD*%
%TA.AperFunction,Conductor*%
%TO.N,CJ4*%
G36*
X188755720Y-127485722D02*
G01*
X189480212Y-127784837D01*
X189486551Y-127791162D01*
X189486562Y-127791187D01*
X189785677Y-128515679D01*
X189785666Y-128524634D01*
X189779327Y-128530959D01*
X189779317Y-128530963D01*
X188501263Y-129057221D01*
X188492308Y-129057202D01*
X188488535Y-129054675D01*
X188216724Y-128782864D01*
X188213297Y-128774591D01*
X188214177Y-128770140D01*
X188740437Y-127492080D01*
X188746755Y-127485737D01*
X188755710Y-127485718D01*
X188755720Y-127485722D01*
G37*
%TD.AperFunction*%
%TD*%
%TA.AperFunction,Conductor*%
%TO.N,CJ4*%
G36*
X83070345Y-88050726D02*
G01*
X84746987Y-88149352D01*
X84755045Y-88153259D01*
X84758000Y-88161032D01*
X84758000Y-89638967D01*
X84754573Y-89647240D01*
X84746987Y-89650647D01*
X83070372Y-89749272D01*
X83061912Y-89746337D01*
X83058005Y-89738279D01*
X83057985Y-89737606D01*
X83057000Y-88900000D01*
X83057869Y-88161032D01*
X83057985Y-88062391D01*
X83061422Y-88054124D01*
X83069699Y-88050707D01*
X83070345Y-88050726D01*
G37*
%TD.AperFunction*%
%TD*%
%TA.AperFunction,Conductor*%
%TO.N,CJ5*%
G36*
X190591720Y-108406722D02*
G01*
X191316212Y-108705837D01*
X191322551Y-108712162D01*
X191322562Y-108712187D01*
X191621677Y-109436679D01*
X191621666Y-109445634D01*
X191615327Y-109451959D01*
X191615317Y-109451963D01*
X190337263Y-109978221D01*
X190328308Y-109978202D01*
X190324535Y-109975675D01*
X190052724Y-109703864D01*
X190049297Y-109695591D01*
X190050177Y-109691140D01*
X190576437Y-108413080D01*
X190582755Y-108406737D01*
X190591710Y-108406718D01*
X190591720Y-108406722D01*
G37*
%TD.AperFunction*%
%TD*%
%TA.AperFunction,Conductor*%
%TO.N,CJ5*%
G36*
X189684473Y-110950827D02*
G01*
X189687000Y-110954600D01*
X190218599Y-112230443D01*
X190218618Y-112239398D01*
X190212299Y-112245743D01*
X190212289Y-112245747D01*
X189488490Y-112546534D01*
X189479536Y-112546544D01*
X188755709Y-112245746D01*
X188749385Y-112239408D01*
X188749396Y-112230453D01*
X188749400Y-112230443D01*
X189281000Y-110954600D01*
X189287345Y-110948281D01*
X189291800Y-110947400D01*
X189676200Y-110947400D01*
X189684473Y-110950827D01*
G37*
%TD.AperFunction*%
%TD*%
%TA.AperFunction,Conductor*%
%TO.N,CJ6*%
G36*
X165121343Y-83499233D02*
G01*
X165127668Y-83505572D01*
X165127707Y-83505667D01*
X165678613Y-84873485D01*
X165678525Y-84882439D01*
X165676033Y-84886129D01*
X165404129Y-85158033D01*
X165395856Y-85161460D01*
X165391485Y-85160613D01*
X164023667Y-84609707D01*
X164017273Y-84603437D01*
X164017185Y-84594483D01*
X164017224Y-84594388D01*
X164335438Y-83823783D01*
X164341759Y-83817448D01*
X165112388Y-83499224D01*
X165121343Y-83499233D01*
G37*
%TD.AperFunction*%
%TD*%
%TA.AperFunction,Conductor*%
%TO.N,CJ6*%
G36*
X168041825Y-130482027D02*
G01*
X168044352Y-130485800D01*
X168575951Y-131761643D01*
X168575970Y-131770598D01*
X168569651Y-131776943D01*
X168569641Y-131776947D01*
X167845842Y-132077734D01*
X167836888Y-132077744D01*
X167113061Y-131776946D01*
X167106737Y-131770608D01*
X167106748Y-131761653D01*
X167106752Y-131761643D01*
X167638352Y-130485800D01*
X167644697Y-130479481D01*
X167649152Y-130478600D01*
X168033552Y-130478600D01*
X168041825Y-130482027D01*
G37*
%TD.AperFunction*%
%TD*%
%TA.AperFunction,Conductor*%
%TO.N,CJ6*%
G36*
X169937053Y-96946089D02*
G01*
X170207862Y-97216898D01*
X170211289Y-97225171D01*
X170210009Y-97230492D01*
X169832197Y-97970336D01*
X169825382Y-97976146D01*
X169817320Y-97975833D01*
X169369149Y-97791163D01*
X169362805Y-97784842D01*
X169178118Y-97336629D01*
X169178135Y-97327677D01*
X169183613Y-97321756D01*
X169923460Y-96943941D01*
X169932385Y-96943231D01*
X169937053Y-96946089D01*
G37*
%TD.AperFunction*%
%TD*%
%TA.AperFunction,Conductor*%
%TO.N,CJ6*%
G36*
X166373381Y-100141365D02*
G01*
X166821555Y-100326037D01*
X166827898Y-100332357D01*
X166827915Y-100332397D01*
X167012585Y-100780568D01*
X167012568Y-100789522D01*
X167007088Y-100795445D01*
X166267244Y-101173257D01*
X166258318Y-101173968D01*
X166253650Y-101171110D01*
X165982841Y-100900301D01*
X165979414Y-100892028D01*
X165980693Y-100886710D01*
X166358507Y-100146861D01*
X166365321Y-100141053D01*
X166373381Y-100141365D01*
G37*
%TD.AperFunction*%
%TD*%
%TA.AperFunction,Conductor*%
%TO.N,CJ6*%
G36*
X168296209Y-127816299D02*
G01*
X168301113Y-127821918D01*
X168601058Y-128545072D01*
X168601063Y-128554027D01*
X168598514Y-128557838D01*
X168044738Y-129110231D01*
X168036460Y-129113648D01*
X168029592Y-129111409D01*
X167010257Y-128369703D01*
X167005585Y-128362065D01*
X167007681Y-128353359D01*
X167008863Y-128351976D01*
X167279793Y-128081046D01*
X167285093Y-128078004D01*
X168287338Y-127815084D01*
X168296209Y-127816299D01*
G37*
%TD.AperFunction*%
%TD*%
%TA.AperFunction,Conductor*%
%TO.N,CJ6*%
G36*
X168603796Y-128554026D02*
G01*
X168606345Y-128557837D01*
X168905723Y-129281577D01*
X168905718Y-129290532D01*
X168901134Y-129295957D01*
X168044205Y-129834177D01*
X168037982Y-129835969D01*
X167654620Y-129835969D01*
X167646347Y-129832542D01*
X167642920Y-129824269D01*
X167643012Y-129822805D01*
X167802062Y-128561821D01*
X167806497Y-128554044D01*
X167813654Y-128551587D01*
X168595519Y-128550609D01*
X168603796Y-128554026D01*
G37*
%TD.AperFunction*%
%TD*%
%TA.AperFunction,Conductor*%
%TO.N,CJA*%
G36*
X201374043Y-138174797D02*
G01*
X201377816Y-138177324D01*
X201649627Y-138449135D01*
X201653054Y-138457408D01*
X201652173Y-138461863D01*
X201125915Y-139739917D01*
X201119596Y-139746262D01*
X201110641Y-139746281D01*
X201110631Y-139746277D01*
X200386139Y-139447162D01*
X200379800Y-139440837D01*
X200379789Y-139440812D01*
X200080674Y-138716320D01*
X200080685Y-138707365D01*
X200087022Y-138701041D01*
X201365090Y-138174778D01*
X201374043Y-138174797D01*
G37*
%TD.AperFunction*%
%TD*%
%TA.AperFunction,Conductor*%
%TO.N,CJA*%
G36*
X83071881Y-70272655D02*
G01*
X84705335Y-70585182D01*
X84712816Y-70590103D01*
X84714836Y-70596674D01*
X84714836Y-72074444D01*
X84711409Y-72082717D01*
X84703136Y-72086144D01*
X84702312Y-72086115D01*
X83068863Y-71970767D01*
X83060852Y-71966766D01*
X83057987Y-71959110D01*
X83057000Y-71120000D01*
X83057983Y-70284133D01*
X83061420Y-70275865D01*
X83069697Y-70272448D01*
X83071881Y-70272655D01*
G37*
%TD.AperFunction*%
%TD*%
%TA.AperFunction,Conductor*%
%TO.N,CJA*%
G36*
X165121343Y-70799233D02*
G01*
X165127668Y-70805572D01*
X165127707Y-70805667D01*
X165678613Y-72173485D01*
X165678525Y-72182439D01*
X165676033Y-72186129D01*
X165404129Y-72458033D01*
X165395856Y-72461460D01*
X165391485Y-72460613D01*
X164023667Y-71909707D01*
X164017273Y-71903437D01*
X164017185Y-71894483D01*
X164017224Y-71894388D01*
X164335438Y-71123783D01*
X164341759Y-71117448D01*
X165112388Y-70799224D01*
X165121343Y-70799233D01*
G37*
%TD.AperFunction*%
%TD*%
%TA.AperFunction,Conductor*%
%TO.N,CJA*%
G36*
X193787917Y-99797344D02*
G01*
X193793882Y-99804023D01*
X193794537Y-99807884D01*
X193794537Y-100188633D01*
X193793297Y-100193874D01*
X193506814Y-100765614D01*
X193500044Y-100771476D01*
X193491885Y-100771186D01*
X193043495Y-100585858D01*
X193037158Y-100579531D01*
X192853365Y-100133483D01*
X192853382Y-100124530D01*
X192859726Y-100118209D01*
X192860305Y-100117988D01*
X193778977Y-99796839D01*
X193787917Y-99797344D01*
G37*
%TD.AperFunction*%
%TD*%
%TA.AperFunction,Conductor*%
%TO.N,CJA*%
G36*
X185565899Y-89373501D02*
G01*
X185571379Y-89379424D01*
X185757702Y-89826910D01*
X185757719Y-89835864D01*
X185757702Y-89835904D01*
X185571379Y-90283389D01*
X185565035Y-90289710D01*
X185556973Y-90290023D01*
X184766670Y-90034029D01*
X184759855Y-90028219D01*
X184758575Y-90022898D01*
X184758575Y-89639915D01*
X184762002Y-89631642D01*
X184766666Y-89628785D01*
X185556974Y-89372790D01*
X185565899Y-89373501D01*
G37*
%TD.AperFunction*%
%TD*%
%TA.AperFunction,Conductor*%
%TO.N,CS2*%
G36*
X196365920Y-81279982D02*
G01*
X196374188Y-81283419D01*
X196377605Y-81291697D01*
X196377405Y-81293838D01*
X196081790Y-82870456D01*
X196076897Y-82877956D01*
X196070290Y-82880000D01*
X195089710Y-82880000D01*
X195081437Y-82876573D01*
X195078210Y-82870456D01*
X194782594Y-81293836D01*
X194784438Y-81285075D01*
X194791938Y-81280182D01*
X194794074Y-81279982D01*
X195580000Y-81279000D01*
X196365920Y-81279982D01*
G37*
%TD.AperFunction*%
%TD*%
%TA.AperFunction,Conductor*%
%TO.N,CS2*%
G36*
X195585185Y-81281154D02*
G01*
X195585192Y-81281157D01*
X196306394Y-81580865D01*
X196312719Y-81587204D01*
X196312708Y-81596159D01*
X196311844Y-81597840D01*
X195495858Y-82912232D01*
X195488583Y-82917453D01*
X195479747Y-82916001D01*
X195477645Y-82914334D01*
X195207141Y-82643830D01*
X195204354Y-82639374D01*
X194844487Y-81596553D01*
X194845028Y-81587614D01*
X194851062Y-81581930D01*
X195576220Y-81281153D01*
X195585173Y-81281149D01*
X195585185Y-81281154D01*
G37*
%TD.AperFunction*%
%TD*%
%TA.AperFunction,Conductor*%
%TO.N,CS2*%
G36*
X191325701Y-86533489D02*
G01*
X191596510Y-86804298D01*
X191599937Y-86812571D01*
X191598657Y-86817892D01*
X191220845Y-87557736D01*
X191214030Y-87563546D01*
X191205968Y-87563233D01*
X190757797Y-87378563D01*
X190751453Y-87372242D01*
X190566766Y-86924029D01*
X190566783Y-86915077D01*
X190572261Y-86909156D01*
X191312108Y-86531341D01*
X191321033Y-86530631D01*
X191325701Y-86533489D01*
G37*
%TD.AperFunction*%
%TD*%
%TA.AperFunction,Conductor*%
%TO.N,CS2*%
G36*
X191863262Y-70618678D02*
G01*
X191864635Y-70620334D01*
X192770439Y-71944203D01*
X192772283Y-71952966D01*
X192769056Y-71959083D01*
X192075683Y-72652456D01*
X192067410Y-72655883D01*
X192060803Y-72653839D01*
X190736934Y-71748035D01*
X190732041Y-71740535D01*
X190733885Y-71731772D01*
X190735252Y-71730122D01*
X191290293Y-71173693D01*
X191846717Y-70618657D01*
X191854994Y-70615241D01*
X191863262Y-70618678D01*
G37*
%TD.AperFunction*%
%TD*%
%TA.AperFunction,Conductor*%
%TO.N,CS2*%
G36*
X194732942Y-79914363D02*
G01*
X194746621Y-79921794D01*
X194750080Y-79924653D01*
X194833587Y-80026408D01*
X194833591Y-80026412D01*
X194993546Y-80157683D01*
X194993556Y-80157689D01*
X195176042Y-80255230D01*
X195176046Y-80255232D01*
X195374066Y-80315300D01*
X195490007Y-80326719D01*
X195494432Y-80328078D01*
X195876902Y-80535873D01*
X195882536Y-80542834D01*
X195882132Y-80550619D01*
X195581600Y-81278543D01*
X195579048Y-81282361D01*
X195023496Y-81836526D01*
X195015218Y-81839943D01*
X195006950Y-81836506D01*
X195006146Y-81835612D01*
X194024799Y-80625484D01*
X194022249Y-80616900D01*
X194025612Y-80609843D01*
X194719085Y-79916370D01*
X194727357Y-79912944D01*
X194732942Y-79914363D01*
G37*
%TD.AperFunction*%
%TD*%
%TA.AperFunction,Conductor*%
%TO.N,CS2*%
G36*
X83070345Y-80430726D02*
G01*
X84746987Y-80529352D01*
X84755045Y-80533259D01*
X84758000Y-80541032D01*
X84758000Y-82018967D01*
X84754573Y-82027240D01*
X84746987Y-82030647D01*
X83070372Y-82129272D01*
X83061912Y-82126337D01*
X83058005Y-82118279D01*
X83057985Y-82117606D01*
X83057000Y-81280000D01*
X83057869Y-80541032D01*
X83057985Y-80442391D01*
X83061422Y-80434124D01*
X83069699Y-80430707D01*
X83070345Y-80430726D01*
G37*
%TD.AperFunction*%
%TD*%
%TA.AperFunction,Conductor*%
%TO.N,CS2*%
G36*
X199476196Y-89601960D02*
G01*
X200098909Y-90028026D01*
X200800065Y-90507764D01*
X200804958Y-90515264D01*
X200803114Y-90524027D01*
X200801741Y-90525683D01*
X200246707Y-91082107D01*
X199690283Y-91637141D01*
X199682005Y-91640558D01*
X199673737Y-91637121D01*
X199672364Y-91635465D01*
X198766560Y-90311596D01*
X198764716Y-90302833D01*
X198767941Y-90296718D01*
X199461317Y-89603342D01*
X199469589Y-89599916D01*
X199476196Y-89601960D01*
G37*
%TD.AperFunction*%
%TD*%
%TA.AperFunction,Conductor*%
%TO.N,CS1*%
G36*
X83070345Y-77890726D02*
G01*
X84746987Y-77989352D01*
X84755045Y-77993259D01*
X84758000Y-78001032D01*
X84758000Y-79478967D01*
X84754573Y-79487240D01*
X84746987Y-79490647D01*
X83070372Y-79589272D01*
X83061912Y-79586337D01*
X83058005Y-79578279D01*
X83057985Y-79577606D01*
X83057000Y-78740000D01*
X83057869Y-78001032D01*
X83057985Y-77902391D01*
X83061422Y-77894124D01*
X83069699Y-77890707D01*
X83070345Y-77890726D01*
G37*
%TD.AperFunction*%
%TD*%
%TA.AperFunction,Conductor*%
%TO.N,I2C_VCC*%
G36*
X192009639Y-39327809D02*
G01*
X192782215Y-39646838D01*
X192788552Y-39653161D01*
X192788562Y-39653185D01*
X193107589Y-40425757D01*
X193107580Y-40434712D01*
X193103194Y-40440005D01*
X191945431Y-41199811D01*
X191936635Y-41201485D01*
X191930739Y-41198302D01*
X191237097Y-40504660D01*
X191233670Y-40496387D01*
X191235587Y-40489970D01*
X191995396Y-39332203D01*
X192002799Y-39327168D01*
X192009639Y-39327809D01*
G37*
%TD.AperFunction*%
%TD*%
%TA.AperFunction,Conductor*%
%TO.N,I2C_VCC*%
G36*
X187313287Y-84554917D02*
G01*
X187316318Y-84560172D01*
X187651462Y-85815360D01*
X187650285Y-85824237D01*
X187644648Y-85829182D01*
X186917163Y-86131501D01*
X186912658Y-86132397D01*
X186128248Y-86131416D01*
X186119980Y-86127979D01*
X186116563Y-86119701D01*
X186116654Y-86118267D01*
X186312710Y-84561726D01*
X186317144Y-84553948D01*
X186324318Y-84551490D01*
X187305014Y-84551490D01*
X187313287Y-84554917D01*
G37*
%TD.AperFunction*%
%TD*%
%TA.AperFunction,Conductor*%
%TO.N,I2C_VCC*%
G36*
X186910653Y-85335315D02*
G01*
X186914948Y-85343173D01*
X186915016Y-85344414D01*
X186915997Y-86129058D01*
X186915101Y-86133563D01*
X186612871Y-86860833D01*
X186606532Y-86867158D01*
X186598797Y-86867576D01*
X186349094Y-86794890D01*
X185349288Y-86503853D01*
X185342302Y-86498250D01*
X185340858Y-86492619D01*
X185340858Y-85511904D01*
X185344285Y-85503631D01*
X185351301Y-85500272D01*
X186902061Y-85332797D01*
X186910653Y-85335315D01*
G37*
%TD.AperFunction*%
%TD*%
%TA.AperFunction,Conductor*%
%TO.N,I2C_VCC*%
G36*
X182479831Y-85203993D02*
G01*
X184056457Y-85499610D01*
X184063956Y-85504503D01*
X184066000Y-85511110D01*
X184066000Y-86491689D01*
X184062573Y-86499962D01*
X184056456Y-86503189D01*
X182479838Y-86798805D01*
X182471075Y-86796961D01*
X182466182Y-86789461D01*
X182465982Y-86787320D01*
X182465000Y-86001400D01*
X182465982Y-85215479D01*
X182469419Y-85207211D01*
X182477697Y-85203794D01*
X182479831Y-85203993D01*
G37*
%TD.AperFunction*%
%TD*%
%TA.AperFunction,Conductor*%
%TO.N,I2C_VCC*%
G36*
X107877257Y-51542831D02*
G01*
X107882940Y-51548861D01*
X108203810Y-52321134D01*
X108204705Y-52325633D01*
X108204009Y-53162674D01*
X108200575Y-53170944D01*
X108192679Y-53174358D01*
X107185228Y-53206250D01*
X107176851Y-53203087D01*
X107176585Y-53202829D01*
X106132737Y-52158981D01*
X106129310Y-52150708D01*
X106132737Y-52142435D01*
X106137190Y-52139650D01*
X107868320Y-51542290D01*
X107877257Y-51542831D01*
G37*
%TD.AperFunction*%
%TD*%
%TA.AperFunction,Conductor*%
%TO.N,I2C_VCC*%
G36*
X190733627Y-65537285D02*
G01*
X190735283Y-65538658D01*
X191291707Y-66093693D01*
X191846741Y-66650116D01*
X191850158Y-66658394D01*
X191846721Y-66666662D01*
X191845065Y-66668035D01*
X190521196Y-67573839D01*
X190512433Y-67575683D01*
X190506316Y-67572456D01*
X189812943Y-66879083D01*
X189809516Y-66870810D01*
X189811560Y-66864203D01*
X189945780Y-66668035D01*
X190717366Y-65540332D01*
X190724864Y-65535441D01*
X190733627Y-65537285D01*
G37*
%TD.AperFunction*%
%TD*%
%TA.AperFunction,Conductor*%
%TO.N,I2C_VCC*%
G36*
X88895093Y-58804012D02*
G01*
X89937904Y-59846823D01*
X89940980Y-59852251D01*
X90161686Y-60732798D01*
X90160373Y-60741656D01*
X90154819Y-60746450D01*
X89334098Y-61086812D01*
X89329607Y-61087705D01*
X88446830Y-61087011D01*
X88438559Y-61083578D01*
X88435139Y-61075302D01*
X88435353Y-61073085D01*
X88875336Y-58810050D01*
X88880278Y-58802585D01*
X88889053Y-58800800D01*
X88895093Y-58804012D01*
G37*
%TD.AperFunction*%
%TD*%
%TA.AperFunction,Conductor*%
%TO.N,I2C_VCC*%
G36*
X198549430Y-60679587D02*
G01*
X199707194Y-61439395D01*
X199712231Y-61446799D01*
X199711589Y-61453642D01*
X199392562Y-62226214D01*
X199386237Y-62232553D01*
X199386214Y-62232562D01*
X198613642Y-62551589D01*
X198604687Y-62551580D01*
X198599395Y-62547195D01*
X197839587Y-61389430D01*
X197837914Y-61380635D01*
X197841095Y-61374741D01*
X198534740Y-60681096D01*
X198543012Y-60677670D01*
X198549430Y-60679587D01*
G37*
%TD.AperFunction*%
%TD*%
%TA.AperFunction,Conductor*%
%TO.N,I2C_VCC*%
G36*
X193810196Y-67100560D02*
G01*
X194432909Y-67526626D01*
X195134065Y-68006364D01*
X195138958Y-68013864D01*
X195137114Y-68022627D01*
X195135741Y-68024283D01*
X194580707Y-68580707D01*
X194024283Y-69135741D01*
X194016005Y-69139158D01*
X194007737Y-69135721D01*
X194006364Y-69134065D01*
X193100560Y-67810196D01*
X193098716Y-67801433D01*
X193101941Y-67795318D01*
X193795317Y-67101942D01*
X193803589Y-67098516D01*
X193810196Y-67100560D01*
G37*
%TD.AperFunction*%
%TD*%
%TA.AperFunction,Conductor*%
%TO.N,I2C_VCC*%
G36*
X191864664Y-65534074D02*
G01*
X192697908Y-66093693D01*
X192999427Y-66296197D01*
X193004385Y-66303655D01*
X193002617Y-66312433D01*
X193001177Y-66314183D01*
X192308124Y-67007236D01*
X192299851Y-67010663D01*
X192298511Y-67010586D01*
X191301350Y-66895593D01*
X191293524Y-66891241D01*
X191290990Y-66883982D01*
X191290297Y-66098552D01*
X191293716Y-66090277D01*
X191849879Y-65535503D01*
X191858156Y-65532087D01*
X191864664Y-65534074D01*
G37*
%TD.AperFunction*%
%TD*%
%TA.AperFunction,Conductor*%
%TO.N,I2C_VCC*%
G36*
X190521196Y-64614960D02*
G01*
X191143909Y-65041026D01*
X191845065Y-65520764D01*
X191849958Y-65528264D01*
X191848114Y-65537027D01*
X191846741Y-65538683D01*
X191291707Y-66095107D01*
X190735283Y-66650141D01*
X190727005Y-66653558D01*
X190718737Y-66650121D01*
X190717364Y-66648465D01*
X189811560Y-65324596D01*
X189809716Y-65315833D01*
X189812941Y-65309718D01*
X190506317Y-64616342D01*
X190514589Y-64612916D01*
X190521196Y-64614960D01*
G37*
%TD.AperFunction*%
%TD*%
%TA.AperFunction,Conductor*%
%TO.N,I2C_VCC*%
G36*
X109606907Y-59300827D02*
G01*
X109610294Y-59308128D01*
X109758345Y-61084742D01*
X109755617Y-61093272D01*
X109747657Y-61097374D01*
X109746698Y-61097414D01*
X108859400Y-61098400D01*
X107972101Y-61097414D01*
X107963832Y-61093978D01*
X107960414Y-61085701D01*
X107960453Y-61084762D01*
X108108506Y-59308128D01*
X108112608Y-59300168D01*
X108120166Y-59297400D01*
X109598634Y-59297400D01*
X109606907Y-59300827D01*
G37*
%TD.AperFunction*%
%TD*%
%TA.AperFunction,Conductor*%
%TO.N,I2C_VCC*%
G36*
X188002831Y-60949993D02*
G01*
X189579457Y-61245610D01*
X189586956Y-61250503D01*
X189589000Y-61257110D01*
X189589000Y-62237689D01*
X189585573Y-62245962D01*
X189579456Y-62249189D01*
X188002838Y-62544805D01*
X187994075Y-62542961D01*
X187989182Y-62535461D01*
X187988982Y-62533320D01*
X187988000Y-61747400D01*
X187988982Y-60961479D01*
X187992419Y-60953211D01*
X188000697Y-60949794D01*
X188002831Y-60949993D01*
G37*
%TD.AperFunction*%
%TD*%
%TA.AperFunction,Conductor*%
%TO.N,I2C_VCC*%
G36*
X177610262Y-69827678D02*
G01*
X177611635Y-69829334D01*
X178517439Y-71153203D01*
X178519283Y-71161966D01*
X178516056Y-71168083D01*
X177822683Y-71861456D01*
X177814410Y-71864883D01*
X177807803Y-71862839D01*
X176483934Y-70957035D01*
X176479041Y-70949535D01*
X176480885Y-70940772D01*
X176482252Y-70939122D01*
X177037293Y-70382693D01*
X177593717Y-69827657D01*
X177601994Y-69824241D01*
X177610262Y-69827678D01*
G37*
%TD.AperFunction*%
%TD*%
%TA.AperFunction,Conductor*%
%TO.N,TPH VCC {slash} CPC SDA*%
G36*
X109897360Y-48277967D02*
G01*
X109903338Y-48284635D01*
X109904000Y-48288516D01*
X109904000Y-49765710D01*
X109900573Y-49773983D01*
X109898754Y-49775469D01*
X109060380Y-50329947D01*
X109051589Y-50331652D01*
X109047575Y-50330013D01*
X108207074Y-49786634D01*
X108201988Y-49779266D01*
X108023463Y-48944067D01*
X108025085Y-48935261D01*
X108031022Y-48930585D01*
X109888420Y-48277478D01*
X109897360Y-48277967D01*
G37*
%TD.AperFunction*%
%TD*%
%TA.AperFunction,Conductor*%
%TO.N,TPH VCC {slash} CPC SDA*%
G36*
X117953687Y-48175662D02*
G01*
X117957594Y-48183720D01*
X117957614Y-48184393D01*
X117958600Y-49022000D01*
X117957614Y-49859606D01*
X117954177Y-49867875D01*
X117945900Y-49871292D01*
X117945227Y-49871272D01*
X116268613Y-49772647D01*
X116260555Y-49768740D01*
X116257600Y-49760967D01*
X116257600Y-48283032D01*
X116261027Y-48274759D01*
X116268612Y-48271352D01*
X117945229Y-48172727D01*
X117953687Y-48175662D01*
G37*
%TD.AperFunction*%
%TD*%
%TA.AperFunction,Conductor*%
%TO.N,TPH GND {slash} CPC SCL*%
G36*
X197870489Y-39650265D02*
G01*
X198640398Y-39970152D01*
X198646723Y-39976491D01*
X198646714Y-39985446D01*
X198646674Y-39985540D01*
X198069030Y-41342283D01*
X198062636Y-41348553D01*
X198058265Y-41349400D01*
X197673735Y-41349400D01*
X197665462Y-41345973D01*
X197662970Y-41342283D01*
X197085325Y-39985540D01*
X197085237Y-39976586D01*
X197091507Y-39970192D01*
X197091540Y-39970177D01*
X197861511Y-39650264D01*
X197870466Y-39650256D01*
X197870489Y-39650265D01*
G37*
%TD.AperFunction*%
%TD*%
%TA.AperFunction,Conductor*%
%TO.N,TPH GND {slash} CPC SCL*%
G36*
X196578939Y-50221474D02*
G01*
X196582629Y-50223966D01*
X196854533Y-50495870D01*
X196857960Y-50504143D01*
X196857113Y-50508514D01*
X196306207Y-51876332D01*
X196299937Y-51882726D01*
X196290983Y-51882814D01*
X196290888Y-51882775D01*
X195520285Y-51564562D01*
X195513947Y-51558238D01*
X195195724Y-50787611D01*
X195195733Y-50778656D01*
X195202072Y-50772331D01*
X195202095Y-50772321D01*
X196569986Y-50221386D01*
X196578939Y-50221474D01*
G37*
%TD.AperFunction*%
%TD*%
%TA.AperFunction,Conductor*%
%TO.N,TPH GND {slash} CPC SCL*%
G36*
X117953687Y-50715662D02*
G01*
X117957594Y-50723720D01*
X117957614Y-50724393D01*
X117958600Y-51562000D01*
X117957614Y-52399606D01*
X117954177Y-52407875D01*
X117945900Y-52411292D01*
X117945227Y-52411272D01*
X116268613Y-52312647D01*
X116260555Y-52308740D01*
X116257600Y-52300967D01*
X116257600Y-50823032D01*
X116261027Y-50814759D01*
X116268612Y-50811352D01*
X117945229Y-50712727D01*
X117953687Y-50715662D01*
G37*
%TD.AperFunction*%
%TD*%
%TA.AperFunction,Conductor*%
%TO.N,TPH GND {slash} CPC SCL*%
G36*
X114223845Y-50712726D02*
G01*
X115900487Y-50811352D01*
X115908545Y-50815259D01*
X115911500Y-50823032D01*
X115911500Y-52300967D01*
X115908073Y-52309240D01*
X115900487Y-52312647D01*
X114223872Y-52411272D01*
X114215412Y-52408337D01*
X114211505Y-52400279D01*
X114211485Y-52399606D01*
X114210500Y-51562000D01*
X114211369Y-50823032D01*
X114211485Y-50724391D01*
X114214922Y-50716124D01*
X114223199Y-50712707D01*
X114223845Y-50712726D01*
G37*
%TD.AperFunction*%
%TD*%
%TA.AperFunction,Conductor*%
%TO.N,TPH SDA {slash} CPC VCC*%
G36*
X108216345Y-54014726D02*
G01*
X109892987Y-54113352D01*
X109901045Y-54117259D01*
X109904000Y-54125032D01*
X109904000Y-55602967D01*
X109900573Y-55611240D01*
X109892987Y-55614647D01*
X108216372Y-55713272D01*
X108207912Y-55710337D01*
X108204005Y-55702279D01*
X108203985Y-55701606D01*
X108203000Y-54864000D01*
X108203869Y-54125032D01*
X108203985Y-54026391D01*
X108207422Y-54018124D01*
X108215699Y-54014707D01*
X108216345Y-54014726D01*
G37*
%TD.AperFunction*%
%TD*%
%TA.AperFunction,Conductor*%
%TO.N,TPH SDA {slash} CPC VCC*%
G36*
X194463012Y-52761385D02*
G01*
X195158098Y-53041340D01*
X195830832Y-53312292D01*
X195837226Y-53318562D01*
X195837314Y-53327516D01*
X195837275Y-53327611D01*
X195519062Y-54098214D01*
X195512737Y-54104553D01*
X195512714Y-54104562D01*
X194742111Y-54422775D01*
X194733156Y-54422766D01*
X194726831Y-54416427D01*
X194726792Y-54416332D01*
X194288258Y-53327516D01*
X194175886Y-53048512D01*
X194175974Y-53039560D01*
X194178463Y-53035873D01*
X194450371Y-52763965D01*
X194458643Y-52760539D01*
X194463012Y-52761385D01*
G37*
%TD.AperFunction*%
%TD*%
%TA.AperFunction,Conductor*%
%TO.N,TPH SDA {slash} CPC VCC*%
G36*
X117953525Y-53255752D02*
G01*
X117957579Y-53263736D01*
X117957614Y-53264624D01*
X117958600Y-54102000D01*
X117957614Y-54939828D01*
X117954177Y-54948097D01*
X117945900Y-54951514D01*
X117945438Y-54951504D01*
X116274990Y-54883457D01*
X116266863Y-54879697D01*
X116263766Y-54871767D01*
X116263766Y-53393829D01*
X116267193Y-53385556D01*
X116274561Y-53382165D01*
X117945013Y-53252973D01*
X117953525Y-53255752D01*
G37*
%TD.AperFunction*%
%TD*%
%TA.AperFunction,Conductor*%
%TO.N,TPH SDA {slash} CPC VCC*%
G36*
X195330489Y-39650265D02*
G01*
X196100398Y-39970152D01*
X196106723Y-39976491D01*
X196106714Y-39985446D01*
X196106674Y-39985540D01*
X195529030Y-41342283D01*
X195522636Y-41348553D01*
X195518265Y-41349400D01*
X195133735Y-41349400D01*
X195125462Y-41345973D01*
X195122970Y-41342283D01*
X194545325Y-39985540D01*
X194545237Y-39976586D01*
X194551507Y-39970192D01*
X194551540Y-39970177D01*
X195321511Y-39650264D01*
X195330466Y-39650256D01*
X195330489Y-39650265D01*
G37*
%TD.AperFunction*%
%TD*%
%TA.AperFunction,Conductor*%
%TO.N,TPH SCL {slash} CPC GND*%
G36*
X117110590Y-55795098D02*
G01*
X117111608Y-55796003D01*
X117950312Y-56633722D01*
X117953744Y-56641993D01*
X117950322Y-56650268D01*
X117950312Y-56650278D01*
X117111608Y-57487996D01*
X117103333Y-57491418D01*
X117101973Y-57491338D01*
X116267933Y-57393215D01*
X116260117Y-57388845D01*
X116257600Y-57381595D01*
X116257600Y-55902404D01*
X116261027Y-55894131D01*
X116267932Y-55890784D01*
X117101975Y-55792661D01*
X117110590Y-55795098D01*
G37*
%TD.AperFunction*%
%TD*%
%TA.AperFunction,Conductor*%
%TO.N,TPH SCL {slash} CPC GND*%
G36*
X115067111Y-55792660D02*
G01*
X115901167Y-55890784D01*
X115908983Y-55895154D01*
X115911500Y-55902404D01*
X115911500Y-57381595D01*
X115908073Y-57389868D01*
X115901167Y-57393215D01*
X115067126Y-57491338D01*
X115058509Y-57488901D01*
X115057491Y-57487996D01*
X114218786Y-56650276D01*
X114215355Y-56642007D01*
X114218776Y-56633733D01*
X115057493Y-55796002D01*
X115065766Y-55792581D01*
X115067111Y-55792660D01*
G37*
%TD.AperFunction*%
%TD*%
%TA.AperFunction,Conductor*%
%TO.N,GP3*%
G36*
X199263259Y-84731577D02*
G01*
X200541318Y-85257836D01*
X200547662Y-85264155D01*
X200547681Y-85273110D01*
X200547677Y-85273120D01*
X200248562Y-85997612D01*
X200242237Y-86003951D01*
X200242212Y-86003962D01*
X199517720Y-86303077D01*
X199508765Y-86303066D01*
X199502441Y-86296728D01*
X198976178Y-85018661D01*
X198976197Y-85009708D01*
X198978721Y-85005938D01*
X199250536Y-84734123D01*
X199258808Y-84730697D01*
X199263259Y-84731577D01*
G37*
%TD.AperFunction*%
%TD*%
%TA.AperFunction,Conductor*%
%TO.N,GP3*%
G36*
X200173343Y-59369233D02*
G01*
X200179668Y-59375572D01*
X200179707Y-59375667D01*
X200730613Y-60743485D01*
X200730525Y-60752439D01*
X200728033Y-60756129D01*
X200456129Y-61028033D01*
X200447856Y-61031460D01*
X200443485Y-61030613D01*
X199075667Y-60479707D01*
X199069273Y-60473437D01*
X199069185Y-60464483D01*
X199069224Y-60464388D01*
X199387438Y-59693783D01*
X199393759Y-59687448D01*
X200164388Y-59369224D01*
X200173343Y-59369233D01*
G37*
%TD.AperFunction*%
%TD*%
%TA.AperFunction,Conductor*%
%TO.N,+5V*%
G36*
X175535453Y-71970793D02*
G01*
X175536721Y-71972294D01*
X176289054Y-73032335D01*
X176291048Y-73041065D01*
X176288774Y-73046257D01*
X175606835Y-73929578D01*
X175599067Y-73934032D01*
X175590424Y-73931689D01*
X175589301Y-73930701D01*
X174703110Y-73044510D01*
X174699683Y-73036237D01*
X174700281Y-73032547D01*
X174820724Y-72670723D01*
X174823549Y-72666151D01*
X175518908Y-71970792D01*
X175527180Y-71967366D01*
X175535453Y-71970793D01*
G37*
%TD.AperFunction*%
%TD*%
%TA.AperFunction,Conductor*%
%TO.N,+5V*%
G36*
X166539253Y-44873397D02*
G01*
X166540495Y-44874473D01*
X167131049Y-45463639D01*
X167133600Y-45467456D01*
X167453277Y-46241602D01*
X167453268Y-46250557D01*
X167448080Y-46256332D01*
X166228541Y-46923708D01*
X166219638Y-46924673D01*
X166214651Y-46921717D01*
X165520920Y-46227986D01*
X165517493Y-46219713D01*
X165519834Y-46212692D01*
X166522875Y-44875733D01*
X166530579Y-44871173D01*
X166539253Y-44873397D01*
G37*
%TD.AperFunction*%
%TD*%
%TA.AperFunction,Conductor*%
%TO.N,+5V*%
G36*
X167144356Y-44616716D02*
G01*
X168820701Y-44713960D01*
X168828760Y-44717860D01*
X168831722Y-44725640D01*
X168831722Y-46203577D01*
X168828295Y-46211850D01*
X168820719Y-46215256D01*
X167144382Y-46315261D01*
X167135919Y-46312333D01*
X167132006Y-46304279D01*
X167131985Y-46303596D01*
X167131880Y-46214600D01*
X167131000Y-45466000D01*
X167131985Y-44628381D01*
X167135422Y-44620114D01*
X167143699Y-44616697D01*
X167144356Y-44616716D01*
G37*
%TD.AperFunction*%
%TD*%
%TA.AperFunction,Conductor*%
%TO.N,+5V*%
G36*
X169668094Y-44619659D02*
G01*
X169671994Y-44627719D01*
X169672014Y-44628383D01*
X169673000Y-45466000D01*
X169672014Y-46303596D01*
X169668577Y-46311865D01*
X169660300Y-46315282D01*
X169659617Y-46315261D01*
X167983281Y-46215256D01*
X167975227Y-46211343D01*
X167972278Y-46203577D01*
X167972278Y-44725640D01*
X167975705Y-44717367D01*
X167983298Y-44713960D01*
X169659636Y-44616717D01*
X169668094Y-44619659D01*
G37*
%TD.AperFunction*%
%TD*%
%TA.AperFunction,Conductor*%
%TO.N,+5V*%
G36*
X172022262Y-68033678D02*
G01*
X172023635Y-68035334D01*
X172929439Y-69359203D01*
X172931283Y-69367966D01*
X172928056Y-69374083D01*
X172234683Y-70067456D01*
X172226410Y-70070883D01*
X172219803Y-70068839D01*
X170895934Y-69163035D01*
X170891041Y-69155535D01*
X170892885Y-69146772D01*
X170894252Y-69145122D01*
X171449293Y-68588693D01*
X172005717Y-68033657D01*
X172013994Y-68030241D01*
X172022262Y-68033678D01*
G37*
%TD.AperFunction*%
%TD*%
%TA.AperFunction,Conductor*%
%TO.N,+5V*%
G36*
X171445686Y-67793292D02*
G01*
X171449949Y-67801168D01*
X171450011Y-67802365D01*
X171450704Y-68587768D01*
X171449808Y-68592268D01*
X171148570Y-69317153D01*
X171142231Y-69323478D01*
X171133276Y-69323467D01*
X171132748Y-69323232D01*
X169648689Y-68618694D01*
X169642685Y-68612051D01*
X169643138Y-68603107D01*
X169645431Y-68599855D01*
X170337875Y-67907411D01*
X170344938Y-67904047D01*
X171437106Y-67790737D01*
X171445686Y-67793292D01*
G37*
%TD.AperFunction*%
%TD*%
%TA.AperFunction,Conductor*%
%TO.N,~*%
G36*
X175925990Y-35630053D02*
G01*
X177702624Y-35778106D01*
X177710584Y-35782208D01*
X177713352Y-35789766D01*
X177713352Y-37268234D01*
X177709925Y-37276507D01*
X177702624Y-37279894D01*
X175926009Y-37427945D01*
X175917479Y-37425217D01*
X175913377Y-37417257D01*
X175913337Y-37416319D01*
X175912352Y-36529000D01*
X175913337Y-35641698D01*
X175916773Y-35633432D01*
X175925050Y-35630014D01*
X175925990Y-35630053D01*
G37*
%TD.AperFunction*%
%TD*%
%TA.AperFunction,Conductor*%
%TO.N,~*%
G36*
X182255247Y-37486938D02*
G01*
X182260238Y-37492100D01*
X182956509Y-38909276D01*
X182957082Y-38918212D01*
X182954281Y-38922708D01*
X181908309Y-39968680D01*
X181900036Y-39972107D01*
X181891763Y-39968680D01*
X181891296Y-39968185D01*
X180956835Y-38918212D01*
X180833284Y-38779388D01*
X180830345Y-38770931D01*
X180831453Y-38766598D01*
X181300429Y-37777566D01*
X181307068Y-37771561D01*
X181307561Y-37771398D01*
X182246336Y-37486065D01*
X182255247Y-37486938D01*
G37*
%TD.AperFunction*%
%TD*%
%TA.AperFunction,Conductor*%
%TO.N,~*%
G36*
X179536219Y-35787325D02*
G01*
X181527198Y-36769500D01*
X181533102Y-36776234D01*
X181533421Y-36782628D01*
X181305566Y-37768346D01*
X181300364Y-37775635D01*
X181299569Y-37776089D01*
X180359181Y-38265610D01*
X180350261Y-38266390D01*
X180344816Y-38262753D01*
X179522080Y-37282261D01*
X179519343Y-37274740D01*
X179519343Y-35797818D01*
X179522770Y-35789545D01*
X179531043Y-35786118D01*
X179536219Y-35787325D01*
G37*
%TD.AperFunction*%
%TD*%
%TA.AperFunction,Conductor*%
%TO.N,GP1*%
G36*
X201263477Y-38961815D02*
G01*
X201940645Y-39648693D01*
X202107463Y-39817903D01*
X202110831Y-39826200D01*
X202107404Y-39834390D01*
X201833565Y-40108229D01*
X201831850Y-40109645D01*
X201264000Y-40493985D01*
X201255228Y-40495785D01*
X201249169Y-40492569D01*
X200414444Y-39657844D01*
X200411017Y-39649571D01*
X200414444Y-39641298D01*
X200415303Y-39640520D01*
X201247749Y-38960966D01*
X201256323Y-38958389D01*
X201263477Y-38961815D01*
G37*
%TD.AperFunction*%
%TD*%
%TA.AperFunction,Conductor*%
%TO.N,GP1*%
G36*
X199263259Y-77111577D02*
G01*
X200541318Y-77637836D01*
X200547662Y-77644155D01*
X200547681Y-77653110D01*
X200547677Y-77653120D01*
X200248562Y-78377612D01*
X200242237Y-78383951D01*
X200242212Y-78383962D01*
X199517720Y-78683077D01*
X199508765Y-78683066D01*
X199502441Y-78676728D01*
X198976178Y-77398661D01*
X198976197Y-77389708D01*
X198978721Y-77385938D01*
X199250536Y-77114123D01*
X199258808Y-77110697D01*
X199263259Y-77111577D01*
G37*
%TD.AperFunction*%
%TD*%
%TA.AperFunction,Conductor*%
%TO.N,GP0*%
G36*
X201417309Y-74398497D02*
G01*
X201688902Y-74670090D01*
X201692329Y-74678363D01*
X201691365Y-74683014D01*
X201050571Y-76162217D01*
X201044138Y-76168446D01*
X201035369Y-76168380D01*
X200249785Y-75843962D01*
X200243447Y-75837638D01*
X199919018Y-75052028D01*
X199919027Y-75043075D01*
X199925179Y-75036829D01*
X201404388Y-74396033D01*
X201413339Y-74395890D01*
X201417309Y-74398497D01*
G37*
%TD.AperFunction*%
%TD*%
%TA.AperFunction,Conductor*%
%TO.N,GP0*%
G36*
X198928439Y-35768874D02*
G01*
X198932129Y-35771366D01*
X199204033Y-36043270D01*
X199207460Y-36051543D01*
X199206613Y-36055914D01*
X198655707Y-37423732D01*
X198649437Y-37430126D01*
X198640483Y-37430214D01*
X198640388Y-37430175D01*
X197869785Y-37111962D01*
X197863447Y-37105638D01*
X197545224Y-36335011D01*
X197545233Y-36326056D01*
X197551572Y-36319731D01*
X197551595Y-36319721D01*
X198919486Y-35768786D01*
X198928439Y-35768874D01*
G37*
%TD.AperFunction*%
%TD*%
%TA.AperFunction,Conductor*%
%TO.N,GP2*%
G36*
X199263259Y-82191577D02*
G01*
X200541318Y-82717836D01*
X200547662Y-82724155D01*
X200547681Y-82733110D01*
X200547677Y-82733120D01*
X200248562Y-83457612D01*
X200242237Y-83463951D01*
X200242212Y-83463962D01*
X199517720Y-83763077D01*
X199508765Y-83763066D01*
X199502441Y-83756728D01*
X198976178Y-82478661D01*
X198976197Y-82469708D01*
X198978721Y-82465938D01*
X199250536Y-82194123D01*
X199258808Y-82190697D01*
X199263259Y-82191577D01*
G37*
%TD.AperFunction*%
%TD*%
%TA.AperFunction,Conductor*%
%TO.N,GP2*%
G36*
X200173343Y-56829233D02*
G01*
X200179668Y-56835572D01*
X200179707Y-56835667D01*
X200730613Y-58203485D01*
X200730525Y-58212439D01*
X200728033Y-58216129D01*
X200456129Y-58488033D01*
X200447856Y-58491460D01*
X200443485Y-58490613D01*
X199075667Y-57939707D01*
X199069273Y-57933437D01*
X199069185Y-57924483D01*
X199069224Y-57924388D01*
X199387438Y-57153783D01*
X199393759Y-57147448D01*
X200164388Y-56829224D01*
X200173343Y-56829233D01*
G37*
%TD.AperFunction*%
%TD*%
%TA.AperFunction,Conductor*%
%TO.N,Net-(J10-Pin_13)*%
G36*
X167144356Y-42076716D02*
G01*
X168820701Y-42173960D01*
X168828760Y-42177860D01*
X168831722Y-42185640D01*
X168831722Y-43663577D01*
X168828295Y-43671850D01*
X168820719Y-43675256D01*
X167144382Y-43775261D01*
X167135919Y-43772333D01*
X167132006Y-43764279D01*
X167131985Y-43763596D01*
X167131880Y-43674600D01*
X167131000Y-42926000D01*
X167131985Y-42088381D01*
X167135422Y-42080114D01*
X167143699Y-42076697D01*
X167144356Y-42076716D01*
G37*
%TD.AperFunction*%
%TD*%
%TA.AperFunction,Conductor*%
%TO.N,Net-(J10-Pin_13)*%
G36*
X169668094Y-42079659D02*
G01*
X169671994Y-42087719D01*
X169672014Y-42088383D01*
X169673000Y-42926000D01*
X169672014Y-43763596D01*
X169668577Y-43771865D01*
X169660300Y-43775282D01*
X169659617Y-43775261D01*
X167983281Y-43675256D01*
X167975227Y-43671343D01*
X167972278Y-43663577D01*
X167972278Y-42185640D01*
X167975705Y-42177367D01*
X167983298Y-42173960D01*
X169659636Y-42076717D01*
X169668094Y-42079659D01*
G37*
%TD.AperFunction*%
%TD*%
%TA.AperFunction,Conductor*%
%TO.N,Net-(J10-Pin_15)*%
G36*
X167144356Y-39536716D02*
G01*
X168820701Y-39633960D01*
X168828760Y-39637860D01*
X168831722Y-39645640D01*
X168831722Y-41123577D01*
X168828295Y-41131850D01*
X168820719Y-41135256D01*
X167144382Y-41235261D01*
X167135919Y-41232333D01*
X167132006Y-41224279D01*
X167131985Y-41223596D01*
X167131880Y-41134600D01*
X167131000Y-40386000D01*
X167131985Y-39548381D01*
X167135422Y-39540114D01*
X167143699Y-39536697D01*
X167144356Y-39536716D01*
G37*
%TD.AperFunction*%
%TD*%
%TA.AperFunction,Conductor*%
%TO.N,Net-(J10-Pin_15)*%
G36*
X169668094Y-39539659D02*
G01*
X169671994Y-39547719D01*
X169672014Y-39548383D01*
X169673000Y-40386000D01*
X169672014Y-41223596D01*
X169668577Y-41231865D01*
X169660300Y-41235282D01*
X169659617Y-41235261D01*
X167983281Y-41135256D01*
X167975227Y-41131343D01*
X167972278Y-41123577D01*
X167972278Y-39645640D01*
X167975705Y-39637367D01*
X167983298Y-39633960D01*
X169659636Y-39536717D01*
X169668094Y-39539659D01*
G37*
%TD.AperFunction*%
%TD*%
M02*
