M48
; DRILL file {KiCad 7.0.9} date Sun Dec  3 16:54:14 2023
; FORMAT={-:-/ absolute / inch / decimal}
; #@! TF.CreationDate,2023-12-03T16:54:14+01:00
; #@! TF.GenerationSoftware,Kicad,Pcbnew,7.0.9
; #@! TF.FileFunction,Plated,1,2,PTH
FMAT,2
INCH
; #@! TA.AperFunction,Plated,PTH,ViaDrill
T1C0.0157
; #@! TA.AperFunction,Plated,PTH,ViaDrill
T2C0.0197
; #@! TA.AperFunction,Plated,PTH,ComponentDrill
T3C0.0295
; #@! TA.AperFunction,Plated,PTH,ComponentDrill
T4C0.0315
; #@! TA.AperFunction,Plated,PTH,ComponentDrill
T5C0.0354
; #@! TA.AperFunction,Plated,PTH,ComponentDrill
T6C0.0394
; #@! TA.AperFunction,Plated,PTH,ComponentDrill
T7C0.0433
; #@! TA.AperFunction,Plated,PTH,ComponentDrill
T8C0.0480
; #@! TA.AperFunction,Plated,PTH,ComponentDrill
T9C0.0559
; #@! TA.AperFunction,Plated,PTH,ComponentDrill
T10C0.0563
; #@! TA.AperFunction,Plated,PTH,ComponentDrill
T11C0.0591
; #@! TA.AperFunction,Plated,PTH,ComponentDrill
T12C0.1063
%
G90
G05
T1
X3.82Y-2.75
X4.05Y-4.18
X4.27Y-3.59
X6.543Y-3.46
X6.6Y-4.57
X6.6205Y-3.1293
X6.6513Y-2.6937
X6.6631Y-3.5531
X6.6724Y-2.64
X6.699Y-3.0799
X6.76Y-4.24
X6.78Y-3.69
X6.78Y-4.37
X6.8252Y-3.4561
X6.8724Y-2.692
X6.89Y-3.67
X6.9024Y-2.78
X6.9157Y-3.4707
X6.9324Y-2.91
X6.9372Y-4.21
X6.9824Y-3.12
X7.0124Y-3.75
X7.03Y-4.22
X7.0498Y-3.5225
X7.0624Y-3.43
X7.0803Y-3.2353
X7.081Y-3.1313
X7.2424Y-2.7
X7.2424Y-2.8004
X7.2533Y-3.5513
X7.2664Y-4.63
X7.3413Y-2.9851
X7.3584Y-3.0682
X7.3624Y-3.35
X7.3624Y-3.4513
X7.4124Y-2.64
X7.4553Y-3.9579
X7.4645Y-3.3243
X7.498Y-4.8211
X7.5645Y-3.6158
X7.6019Y-4.1586
X7.6332Y-4.1861
X7.641Y-4.8739
X7.6459Y-4.915
X7.6695Y-3.1427
X7.68Y-4.89
X7.7006Y-3.9629
X7.7424Y-2.83
X7.75Y-4.17
X7.7704Y-2.8604
X7.7924Y-2.49
X7.8048Y-2.8832
X7.8158Y-2.5284
X7.8492Y-2.5528
T2
X3.67Y-3.3054
X3.7325Y-2.6941
X3.9093Y-2.8561
X3.92Y-3.1154
X3.92Y-3.2854
T3
X6.87Y-2.35
X6.92Y-2.3
X6.97Y-2.35
T4
X3.5789Y-3.7054
X3.68Y-4.8
X3.68Y-5.0
X3.7Y-3.83
X3.7Y-4.03
X3.7Y-4.15
X3.7Y-4.35
X3.71Y-4.47
X3.71Y-4.67
X3.7789Y-3.7054
X3.79Y-3.5454
X3.9205Y-1.1192
X3.9205Y-1.3192
X3.99Y-3.5454
X4.0205Y-2.0754
X4.0205Y-2.2754
X4.025Y-2.4454
X4.025Y-2.6454
X4.0755Y-1.2261
X4.0755Y-1.4261
X4.17Y-3.5242
X4.17Y-3.7242
X4.28Y-3.9911
X4.28Y-4.1911
X4.3205Y-4.5331
X4.3205Y-4.7331
X4.3205Y-4.8342
X4.3205Y-5.0342
X4.33Y-3.6954
X4.33Y-3.8954
X4.3505Y-3.5554
X4.5505Y-3.5554
X6.59Y-4.63
X6.59Y-4.83
X6.6089Y-2.9
X6.6089Y-3.37
X6.61Y-2.76
X6.71Y-4.84
X6.71Y-4.94
X6.71Y-5.04
X6.71Y-5.14
X6.8089Y-2.9
X6.8089Y-3.37
X6.81Y-2.76
X6.83Y-3.07
X6.8577Y-4.04
X6.8589Y-4.72
X6.86Y-3.8
X6.86Y-4.17
X6.86Y-4.3
X6.86Y-4.43
X6.86Y-4.56
X6.9376Y-4.72
X6.97Y-3.3213
X6.97Y-3.4
X6.97Y-3.5413
X6.97Y-3.62
X6.9824Y-1.9
X7.0Y-2.6113
X7.0Y-2.69
X7.0Y-2.8413
X7.0Y-2.92
X7.01Y-4.84
X7.01Y-4.94
X7.01Y-5.04
X7.01Y-5.14
X7.03Y-3.07
X7.0577Y-4.04
X7.06Y-3.8
X7.06Y-4.17
X7.06Y-4.3
X7.06Y-4.43
X7.06Y-4.56
X7.0611Y-1.9
X7.1954Y-4.7711
X7.1954Y-4.8498
X7.2054Y-5.0198
X7.2054Y-5.0985
X7.2463Y-1.125
X7.3022Y-3.17
X7.31Y-4.35
X7.31Y-4.55
X7.3104Y-4.6698
X7.3104Y-4.8698
X7.3104Y-4.9759
X7.3104Y-5.1759
X7.32Y-3.3021
X7.32Y-3.4021
X7.32Y-3.5021
X7.32Y-3.6021
X7.32Y-3.7021
X7.32Y-3.8021
X7.32Y-3.9021
X7.325Y-1.125
X7.325Y-1.9
X7.34Y-4.04
X7.34Y-4.24
X7.4037Y-1.9
X7.42Y-2.915
X7.42Y-3.04
X7.4211Y-2.785
X7.44Y-4.58
X7.44Y-4.68
X7.44Y-4.78
X7.44Y-4.88
X7.44Y-4.98
X7.44Y-5.08
X7.44Y-5.18
X7.47Y-3.6913
X7.47Y-3.77
X7.48Y-3.4306
X7.48Y-3.5094
X7.4911Y-4.06
X7.5022Y-3.17
X7.59Y-4.6813
X7.59Y-4.76
X7.59Y-5.0013
X7.59Y-5.08
X7.62Y-2.915
X7.62Y-3.04
X7.62Y-3.3021
X7.62Y-3.4021
X7.62Y-3.5021
X7.62Y-3.6021
X7.62Y-3.7021
X7.62Y-3.8021
X7.62Y-3.9021
X7.6211Y-2.785
X7.6911Y-4.06
X7.74Y-4.26
X7.74Y-4.46
X7.74Y-4.58
X7.74Y-4.68
X7.74Y-4.78
X7.74Y-4.88
X7.74Y-4.98
X7.74Y-5.08
X7.74Y-5.18
X7.75Y-2.99
X7.75Y-3.19
X7.75Y-3.3
X7.75Y-3.5
X7.75Y-3.62
X7.75Y-3.82
X7.8608Y-4.7207
X7.8608Y-4.7994
X7.8608Y-4.9407
X7.8608Y-5.0194
T5
X3.3598Y-4.4054
X3.3602Y-3.7054
X3.4598Y-4.4054
X3.4602Y-3.7054
X3.95Y-4.4054
X3.9504Y-3.7054
X4.05Y-4.4054
X4.0504Y-3.7054
X4.5407Y-3.7054
X4.5407Y-4.4054
X4.6407Y-3.7054
X4.6407Y-4.4054
T6
X3.27Y-2.3654
X3.27Y-2.4654
X3.27Y-2.5654
X3.27Y-2.6654
X3.27Y-2.7654
X3.27Y-2.8654
X3.27Y-2.9654
X3.27Y-3.0654
X3.27Y-3.1654
X3.27Y-3.2654
X3.27Y-3.3654
X3.27Y-3.4654
X3.517Y-2.0704
X3.6155Y-2.0704
X3.7139Y-2.0704
X4.26Y-1.6254
X4.26Y-1.7254
X4.26Y-1.8254
X4.2858Y-2.0708
X4.3842Y-2.0708
X4.4827Y-2.0708
X4.4965Y-1.5954
X4.4965Y-1.6954
X4.4965Y-1.7954
X4.4965Y-1.8954
X4.644Y-1.5954
X4.644Y-1.6954
X4.644Y-1.7954
X4.644Y-1.8954
X6.47Y-2.3654
X6.47Y-2.4654
X6.47Y-2.5654
X6.47Y-2.6654
X6.47Y-2.7654
X6.47Y-2.8654
X6.47Y-2.9654
X6.47Y-3.0654
X6.47Y-3.1654
X6.47Y-3.2654
X6.47Y-3.3654
X6.47Y-3.4654
X6.58Y-1.2554
X6.58Y-1.3554
X6.58Y-1.4554
X6.58Y-1.5554
X6.58Y-1.6554
X6.58Y-1.7554
X6.58Y-1.8554
X6.58Y-1.9554
X6.68Y-1.2554
X6.68Y-1.3554
X6.68Y-1.4554
X6.68Y-1.5554
X6.68Y-1.6554
X6.68Y-1.7554
X6.68Y-1.8554
X6.68Y-1.9554
X7.1837Y-2.6512
X7.1837Y-2.7512
X7.1837Y-2.8512
X7.1837Y-2.9512
X7.1837Y-3.0512
X7.1837Y-3.1512
X7.1837Y-3.2512
X7.1837Y-3.3512
X7.1837Y-3.4512
X7.1837Y-3.5512
X7.1837Y-3.6512
X7.1837Y-3.7512
X7.1837Y-3.8512
X7.1837Y-3.9512
X7.1837Y-4.0512
X7.1837Y-4.1512
X7.1837Y-4.2512
X7.1837Y-4.3512
X7.1837Y-4.4512
X7.1837Y-4.5512
X7.59Y-1.21
X7.59Y-1.31
X7.69Y-1.21
X7.69Y-1.31
X7.6975Y-1.5954
X7.6975Y-1.6954
X7.6975Y-1.7954
X7.6975Y-1.8954
X7.7724Y-2.06
X7.7724Y-2.16
X7.7724Y-2.26
X7.7724Y-2.36
X7.79Y-1.21
X7.79Y-1.31
X7.8837Y-2.6512
X7.8837Y-2.7512
X7.8837Y-2.8512
X7.8837Y-2.9512
X7.8837Y-3.0512
X7.8837Y-3.1512
X7.8837Y-3.2512
X7.8837Y-3.3512
X7.8837Y-3.4512
X7.8837Y-3.5512
X7.8837Y-3.6512
X7.8837Y-3.7512
X7.8837Y-3.8512
X7.8837Y-3.9512
X7.8837Y-4.0512
X7.8837Y-4.1512
X7.8837Y-4.2512
X7.8837Y-4.3512
X7.8837Y-4.4512
X7.8837Y-4.5512
X7.89Y-1.21
X7.89Y-1.31
T7
X6.71Y-2.28
X6.71Y-2.38
X6.925Y-1.4
X6.925Y-1.5
X6.9257Y-1.17
X6.9257Y-1.27
X7.1379Y-1.25
X7.2379Y-1.25
X7.2624Y-2.48
X7.3379Y-1.25
X7.3624Y-2.48
T8
X3.3355Y-1.2654
X3.41Y-3.8265
X3.41Y-4.5265
X4.0002Y-3.8265
X4.0002Y-4.5265
X4.5905Y-3.8265
X4.5905Y-4.5265
X4.6638Y-1.2674
T9
X3.41Y-3.9486
X3.41Y-4.6486
X3.4575Y-1.2654
X4.0002Y-3.9486
X4.0002Y-4.6486
X4.5418Y-1.2674
X4.5905Y-3.9486
X4.5905Y-4.6486
T10
X3.41Y-4.2754
X3.41Y-4.9754
X3.7843Y-1.2654
X4.0002Y-4.2754
X4.0002Y-4.9754
X4.215Y-1.2674
X4.5905Y-4.2754
X4.5905Y-4.9754
T11
X3.46Y-2.9654
X3.71Y-2.8654
X4.241Y-2.9664
X4.491Y-2.8664
T12
X4.0004Y-1.74
X4.3Y-4.37
X7.2004Y-1.74
X7.5Y-4.37
T0
M30
