M48
; DRILL file {KiCad 7.0.9} date Tue Nov 28 16:59:57 2023
; FORMAT={-:-/ absolute / inch / decimal}
; #@! TF.CreationDate,2023-11-28T16:59:57+01:00
; #@! TF.GenerationSoftware,Kicad,Pcbnew,7.0.9
; #@! TF.FileFunction,Plated,1,2,PTH
FMAT,2
INCH
; #@! TA.AperFunction,Plated,PTH,ViaDrill
T1C0.0197
; #@! TA.AperFunction,Plated,PTH,ComponentDrill
T2C0.0295
; #@! TA.AperFunction,Plated,PTH,ComponentDrill
T3C0.0315
; #@! TA.AperFunction,Plated,PTH,ComponentDrill
T4C0.0354
; #@! TA.AperFunction,Plated,PTH,ComponentDrill
T5C0.0394
; #@! TA.AperFunction,Plated,PTH,ComponentDrill
T6C0.0433
; #@! TA.AperFunction,Plated,PTH,ComponentDrill
T7C0.0480
; #@! TA.AperFunction,Plated,PTH,ComponentDrill
T8C0.0559
; #@! TA.AperFunction,Plated,PTH,ComponentDrill
T9C0.0563
; #@! TA.AperFunction,Plated,PTH,ComponentDrill
T10C0.0591
%
G90
G05
T1
X1.7678Y-3.2285
X1.7679Y-3.9499
X1.8379Y-5.2799
X1.8679Y-3.8499
X2.2825Y-4.0154
X2.29Y-4.83
X2.47Y-3.3354
X2.4735Y-3.1979
X2.48Y-3.87
X2.4823Y-4.833
X2.5133Y-3.5367
X2.55Y-2.691
X2.64Y-3.48
X2.6427Y-3.145
X2.71Y-3.44
X2.74Y-2.52
X2.775Y-4.7259
X2.78Y-4.11
X2.8Y-3.96
X2.96Y-3.56
X2.96Y-3.7719
X3.04Y-2.74
X3.67Y-3.64
X3.7325Y-3.0287
X3.9093Y-3.1907
X3.92Y-3.45
X3.92Y-3.62
T2
X2.1192Y-3.101
X2.1692Y-3.051
X2.2192Y-3.101
T3
X1.6779Y-5.0277
X1.6779Y-5.2277
X1.6779Y-5.3199
X1.6779Y-5.5199
X1.7273Y-4.4199
X1.7279Y-4.6799
X1.806Y-4.4199
X1.8067Y-4.6799
X1.8079Y-5.1999
X1.8079Y-5.4999
X1.8168Y-4.0499
X1.8379Y-4.2099
X1.8379Y-5.0611
X1.8479Y-4.9199
X1.9079Y-5.1999
X1.9079Y-5.4999
X1.95Y-2.6216
X1.95Y-2.7004
X1.9573Y-4.4199
X1.9579Y-4.6799
X2.0079Y-5.1999
X2.0079Y-5.4999
X2.0168Y-4.0499
X2.036Y-4.4199
X2.0367Y-4.6799
X2.0379Y-4.2099
X2.0379Y-5.0611
X2.0479Y-4.9199
X2.1079Y-5.1999
X2.1079Y-5.4999
X2.17Y-2.471
X2.17Y-2.571
X2.17Y-2.671
X2.17Y-2.771
X2.17Y-3.9021
X2.17Y-4.1021
X2.1779Y-5.0299
X2.2079Y-5.1999
X2.2079Y-5.4999
X2.2179Y-4.3588
X2.2179Y-4.5588
X2.2619Y-1.781
X2.2619Y-2.001
X2.2619Y-2.221
X2.3079Y-5.1999
X2.3079Y-5.4999
X2.3406Y-1.781
X2.3406Y-2.001
X2.3406Y-2.221
X2.3779Y-5.0299
X2.4079Y-5.1999
X2.4079Y-5.4999
X2.47Y-2.471
X2.47Y-2.571
X2.47Y-2.671
X2.47Y-2.771
X2.4992Y-1.6699
X2.4992Y-1.8899
X2.4992Y-2.1099
X2.5323Y-4.2799
X2.54Y-4.4187
X2.54Y-4.6187
X2.54Y-4.731
X2.54Y-4.931
X2.54Y-5.051
X2.54Y-5.251
X2.5411Y-4.021
X2.5589Y-3.391
X2.5589Y-3.591
X2.5589Y-3.7099
X2.5589Y-3.9099
X2.5779Y-1.6699
X2.5779Y-1.8899
X2.5779Y-2.1099
X2.5779Y-5.4899
X2.6011Y-2.431
X2.66Y-4.431
X2.66Y-4.531
X2.66Y-4.631
X2.66Y-4.731
X2.66Y-4.831
X2.66Y-4.931
X2.66Y-5.031
X2.69Y-5.1721
X2.69Y-5.3721
X2.7311Y-2.6021
X2.7311Y-2.8021
X2.7323Y-4.2799
X2.74Y-3.5825
X2.74Y-3.8225
X2.7411Y-4.021
X2.7779Y-5.4899
X2.8011Y-2.431
X2.8187Y-3.5825
X2.8187Y-3.8225
X2.82Y-5.171
X2.82Y-5.371
X2.8606Y-2.7
X2.8891Y-5.4899
X2.9Y-2.8913
X2.9Y-2.97
X2.9Y-3.1213
X2.9Y-3.2
X2.93Y-4.0821
X2.93Y-4.2821
X2.9394Y-2.7
X2.95Y-5.1699
X2.95Y-5.3699
X2.96Y-4.431
X2.96Y-4.531
X2.96Y-4.631
X2.96Y-4.731
X2.96Y-4.831
X2.96Y-4.931
X2.96Y-5.031
X3.0891Y-5.4899
X3.5789Y-4.04
X3.67Y-4.34
X3.67Y-4.54
X3.68Y-4.7489
X3.68Y-4.9489
X3.68Y-5.07
X3.68Y-5.27
X3.7789Y-4.04
X3.79Y-3.88
X3.9205Y-1.4539
X3.9205Y-1.6539
X3.99Y-3.88
X4.0205Y-2.41
X4.0205Y-2.61
X4.025Y-2.78
X4.025Y-2.98
X4.0755Y-1.5607
X4.0755Y-1.7607
X4.1611Y-4.74
X4.17Y-3.8589
X4.17Y-4.0589
X4.27Y-4.4289
X4.27Y-4.6289
X4.3205Y-4.8677
X4.3205Y-5.0677
X4.3205Y-5.1689
X4.3205Y-5.3689
X4.33Y-4.03
X4.33Y-4.23
X4.3505Y-3.89
X4.3611Y-4.74
X4.5505Y-3.89
T4
X1.9Y-3.031
X1.9Y-3.131
X2.1133Y-2.911
X2.1257Y-1.4381
X2.1257Y-1.5381
X2.13Y-2.16
X2.13Y-2.26
X2.2133Y-2.911
X3.3598Y-4.74
X3.3602Y-4.04
X3.4598Y-4.74
X3.4602Y-4.04
X3.95Y-4.74
X3.9504Y-4.04
X4.05Y-4.74
X4.0504Y-4.04
X4.5407Y-4.04
X4.5407Y-4.74
X4.6407Y-4.04
X4.6407Y-4.74
T5
X1.67Y-2.7
X1.67Y-2.8
X1.67Y-2.9
X1.67Y-3.0
X1.67Y-3.1
X1.67Y-3.2
X1.67Y-3.3
X1.67Y-3.4
X1.67Y-3.5
X1.67Y-3.6
X1.67Y-3.7
X1.67Y-3.8
X1.67Y-3.9
X1.78Y-1.59
X1.78Y-1.69
X1.78Y-1.79
X1.78Y-1.89
X1.78Y-1.99
X1.78Y-2.09
X1.78Y-2.19
X1.78Y-2.29
X1.88Y-1.59
X1.88Y-1.69
X1.88Y-1.79
X1.88Y-1.89
X1.88Y-1.99
X1.88Y-2.09
X1.88Y-2.19
X1.88Y-2.29
X2.3837Y-2.9859
X2.3837Y-3.0859
X2.3837Y-3.1859
X2.3837Y-3.2859
X2.3837Y-3.3859
X2.3837Y-3.4859
X2.3837Y-3.5859
X2.3837Y-3.6859
X2.3837Y-3.7859
X2.3837Y-3.8859
X2.3837Y-3.9859
X2.3837Y-4.0859
X2.3837Y-4.1859
X2.3837Y-4.2859
X2.3837Y-4.3859
X2.3837Y-4.4859
X2.3837Y-4.5859
X2.3837Y-4.6859
X2.3837Y-4.7859
X2.3837Y-4.8859
X2.79Y-1.461
X2.79Y-1.561
X2.89Y-1.461
X2.89Y-1.561
X2.8975Y-1.93
X2.8975Y-2.03
X2.8975Y-2.13
X2.8975Y-2.23
X2.99Y-1.461
X2.99Y-1.561
X3.05Y-2.25
X3.05Y-2.35
X3.05Y-2.45
X3.05Y-2.55
X3.0837Y-2.9859
X3.0837Y-3.0859
X3.0837Y-3.1859
X3.0837Y-3.2859
X3.0837Y-3.3859
X3.0837Y-3.4859
X3.0837Y-3.5859
X3.0837Y-3.6859
X3.0837Y-3.7859
X3.0837Y-3.8859
X3.0837Y-3.9859
X3.0837Y-4.0859
X3.0837Y-4.1859
X3.0837Y-4.2859
X3.0837Y-4.3859
X3.0837Y-4.4859
X3.0837Y-4.5859
X3.0837Y-4.6859
X3.0837Y-4.7859
X3.0837Y-4.8859
X3.09Y-1.461
X3.09Y-1.561
X3.27Y-2.7
X3.27Y-2.8
X3.27Y-2.9
X3.27Y-3.0
X3.27Y-3.1
X3.27Y-3.2
X3.27Y-3.3
X3.27Y-3.4
X3.27Y-3.5
X3.27Y-3.6
X3.27Y-3.7
X3.27Y-3.8
X3.27Y-3.9
X3.517Y-2.405
X3.6155Y-2.405
X3.7139Y-2.405
X4.26Y-1.96
X4.26Y-2.06
X4.26Y-2.16
X4.2858Y-2.4054
X4.3842Y-2.4054
X4.4827Y-2.4054
X4.4965Y-1.93
X4.4965Y-2.03
X4.4965Y-2.13
X4.4965Y-2.23
X4.644Y-1.93
X4.644Y-2.03
X4.644Y-2.13
X4.644Y-2.23
T6
X2.3379Y-1.4871
X2.4379Y-1.4871
X2.5379Y-1.4871
T7
X3.3355Y-1.6
X3.41Y-4.1612
X3.41Y-4.8612
X4.0002Y-4.1612
X4.0002Y-4.8612
X4.5905Y-4.1612
X4.5905Y-4.8612
X4.6638Y-1.602
T8
X3.41Y-4.2832
X3.41Y-4.9832
X3.4575Y-1.6
X4.0002Y-4.2832
X4.0002Y-4.9832
X4.5418Y-1.602
X4.5905Y-4.2832
X4.5905Y-4.9832
T9
X3.41Y-4.61
X3.41Y-5.31
X3.7843Y-1.6
X4.0002Y-4.61
X4.0002Y-5.31
X4.215Y-1.602
X4.5905Y-4.61
X4.5905Y-5.31
T10
X3.46Y-3.3
X3.71Y-3.2
X4.241Y-3.301
X4.491Y-3.201
T0
M30
