%TF.GenerationSoftware,KiCad,Pcbnew,7.0.9*%
%TF.CreationDate,2023-11-28T17:55:55+01:00*%
%TF.ProjectId,euroPi-kicad,6575726f-5069-42d6-9b69-6361642e6b69,rev?*%
%TF.SameCoordinates,Original*%
%TF.FileFunction,Copper,L2,Bot*%
%TF.FilePolarity,Positive*%
%FSLAX46Y46*%
G04 Gerber Fmt 4.6, Leading zero omitted, Abs format (unit mm)*
G04 Created by KiCad (PCBNEW 7.0.9) date 2023-11-28 17:55:55*
%MOMM*%
%LPD*%
G01*
G04 APERTURE LIST*
G04 Aperture macros list*
%AMRoundRect*
0 Rectangle with rounded corners*
0 $1 Rounding radius*
0 $2 $3 $4 $5 $6 $7 $8 $9 X,Y pos of 4 corners*
0 Add a 4 corners polygon primitive as box body*
4,1,4,$2,$3,$4,$5,$6,$7,$8,$9,$2,$3,0*
0 Add four circle primitives for the rounded corners*
1,1,$1+$1,$2,$3*
1,1,$1+$1,$4,$5*
1,1,$1+$1,$6,$7*
1,1,$1+$1,$8,$9*
0 Add four rect primitives between the rounded corners*
20,1,$1+$1,$2,$3,$4,$5,0*
20,1,$1+$1,$4,$5,$6,$7,0*
20,1,$1+$1,$6,$7,$8,$9,0*
20,1,$1+$1,$8,$9,$2,$3,0*%
%AMFreePoly0*
4,1,28,0.605014,0.794986,0.644504,0.794986,0.724698,0.756366,0.780194,0.686777,0.800000,0.600000,0.800000,-0.600000,0.780194,-0.686777,0.724698,-0.756366,0.644504,-0.794986,0.605014,-0.794986,0.600000,-0.800000,0.000000,-0.800000,-0.178017,-0.779942,-0.347107,-0.720775,-0.498792,-0.625465,-0.625465,-0.498792,-0.720775,-0.347107,-0.779942,-0.178017,-0.800000,0.000000,-0.779942,0.178017,
-0.720775,0.347107,-0.625465,0.498792,-0.498792,0.625465,-0.347107,0.720775,-0.178017,0.779942,0.000000,0.800000,0.600000,0.800000,0.605014,0.794986,0.605014,0.794986,$1*%
%AMFreePoly1*
4,1,28,0.178017,0.779942,0.347107,0.720775,0.498792,0.625465,0.625465,0.498792,0.720775,0.347107,0.779942,0.178017,0.800000,0.000000,0.779942,-0.178017,0.720775,-0.347107,0.625465,-0.498792,0.498792,-0.625465,0.347107,-0.720775,0.178017,-0.779942,0.000000,-0.800000,-0.600000,-0.800000,-0.605014,-0.794986,-0.644504,-0.794986,-0.724698,-0.756366,-0.780194,-0.686777,-0.800000,-0.600000,
-0.800000,0.600000,-0.780194,0.686777,-0.724698,0.756366,-0.644504,0.794986,-0.605014,0.794986,-0.600000,0.800000,0.000000,0.800000,0.178017,0.779942,0.178017,0.779942,$1*%
G04 Aperture macros list end*
%TA.AperFunction,ComponentPad*%
%ADD10R,1.600000X1.600000*%
%TD*%
%TA.AperFunction,ComponentPad*%
%ADD11O,1.600000X1.600000*%
%TD*%
%TA.AperFunction,ComponentPad*%
%ADD12C,1.600000*%
%TD*%
%TA.AperFunction,ComponentPad*%
%ADD13R,1.700000X1.700000*%
%TD*%
%TA.AperFunction,ComponentPad*%
%ADD14O,1.700000X1.700000*%
%TD*%
%TA.AperFunction,ComponentPad*%
%ADD15R,1.830000X1.930000*%
%TD*%
%TA.AperFunction,ComponentPad*%
%ADD16C,2.130000*%
%TD*%
%TA.AperFunction,ComponentPad*%
%ADD17R,1.930000X1.830000*%
%TD*%
%TA.AperFunction,ComponentPad*%
%ADD18R,1.800000X1.800000*%
%TD*%
%TA.AperFunction,ComponentPad*%
%ADD19C,1.800000*%
%TD*%
%TA.AperFunction,ComponentPad*%
%ADD20O,1.800000X1.800000*%
%TD*%
%TA.AperFunction,ComponentPad*%
%ADD21C,2.200000*%
%TD*%
%TA.AperFunction,ComponentPad*%
%ADD22R,1.300000X1.300000*%
%TD*%
%TA.AperFunction,ComponentPad*%
%ADD23C,1.300000*%
%TD*%
%TA.AperFunction,WasherPad*%
%ADD24C,4.000000*%
%TD*%
%TA.AperFunction,ComponentPad*%
%ADD25RoundRect,0.200000X0.600000X0.600000X-0.600000X0.600000X-0.600000X-0.600000X0.600000X-0.600000X0*%
%TD*%
%TA.AperFunction,ComponentPad*%
%ADD26FreePoly0,180.000000*%
%TD*%
%TA.AperFunction,ComponentPad*%
%ADD27FreePoly1,180.000000*%
%TD*%
%TA.AperFunction,ComponentPad*%
%ADD28RoundRect,0.250000X-0.600000X-0.600000X0.600000X-0.600000X0.600000X0.600000X-0.600000X0.600000X0*%
%TD*%
%TA.AperFunction,ComponentPad*%
%ADD29C,1.700000*%
%TD*%
%TA.AperFunction,ComponentPad*%
%ADD30R,1.905000X2.000000*%
%TD*%
%TA.AperFunction,ComponentPad*%
%ADD31O,1.905000X2.000000*%
%TD*%
%TA.AperFunction,ViaPad*%
%ADD32C,1.000000*%
%TD*%
%TA.AperFunction,Conductor*%
%ADD33C,1.000000*%
%TD*%
%TA.AperFunction,Conductor*%
%ADD34C,0.400000*%
%TD*%
%TA.AperFunction,Conductor*%
%ADD35C,1.500000*%
%TD*%
%TA.AperFunction,Conductor*%
%ADD36C,0.500000*%
%TD*%
G04 APERTURE END LIST*
D10*
%TO.P,O3,1*%
%TO.N,CJ1*%
X75184000Y-127787400D03*
D11*
%TO.P,O3,2,-*%
%TO.N,Net-(O3A--)*%
X75184000Y-125247400D03*
%TO.P,O3,3,+*%
%TO.N,Net-(O3A-+)*%
X75184000Y-122707400D03*
%TO.P,O3,4,V+*%
%TO.N,~*%
X75184000Y-120167400D03*
%TO.P,O3,5,+*%
%TO.N,Net-(O3B-+)*%
X75184000Y-117627400D03*
%TO.P,O3,6,-*%
%TO.N,Net-(O3B--)*%
X75184000Y-115087400D03*
%TO.P,O3,7*%
%TO.N,CJ2*%
X75184000Y-112547400D03*
%TO.P,O3,8*%
%TO.N,CJ5*%
X67564000Y-112547400D03*
%TO.P,O3,9,-*%
%TO.N,Net-(O3C--)*%
X67564000Y-115087400D03*
%TO.P,O3,10,+*%
%TO.N,Net-(O3C-+)*%
X67564000Y-117627400D03*
%TO.P,O3,11,V-*%
%TO.N,-12V*%
X67564000Y-120167400D03*
%TO.P,O3,12,+*%
%TO.N,Net-(O3D-+)*%
X67564000Y-122707400D03*
%TO.P,O3,13,-*%
%TO.N,Net-(O3D--)*%
X67564000Y-125247400D03*
%TO.P,O3,14*%
%TO.N,CJ4*%
X67564000Y-127787400D03*
%TD*%
D12*
%TO.P,R21,1*%
%TO.N,CJA*%
X78462352Y-139444600D03*
D11*
%TO.P,R21,2*%
%TO.N,Net-(O5-Pad7)*%
X73382352Y-139444600D03*
%TD*%
D12*
%TO.P,R16,1*%
%TO.N,Net-(LED4-A)*%
X93472000Y-120621000D03*
D11*
%TO.P,R16,2*%
%TO.N,CJ4*%
X93472000Y-125701000D03*
%TD*%
D12*
%TO.P,R24,1*%
%TO.N,CS1*%
X71149000Y-61747400D03*
D11*
%TO.P,R24,2*%
%TO.N,I2C_VCC*%
X66069000Y-61747400D03*
%TD*%
D12*
%TO.P,R6,1*%
%TO.N,Net-(O5D-+)*%
X55319352Y-127760600D03*
D11*
%TO.P,R6,2*%
%TO.N,GP19*%
X60399352Y-127760600D03*
%TD*%
D13*
%TO.P,J14,1,Pin_1*%
%TO.N,TPH VCC {slash} CPC SDA*%
X108204000Y-49784000D03*
D14*
%TO.P,J14,2,Pin_2*%
%TO.N,I2C_VCC*%
X108204000Y-52324000D03*
%TO.P,J14,3,Pin_3*%
%TO.N,TPH SDA {slash} CPC VCC*%
X108204000Y-54864000D03*
%TD*%
D12*
%TO.P,R17,1*%
%TO.N,Net-(LED5-A)*%
X108458000Y-112493000D03*
D11*
%TO.P,R17,2*%
%TO.N,CJ5*%
X108458000Y-117573000D03*
%TD*%
D12*
%TO.P,R20,1*%
%TO.N,CS1*%
X102235000Y-70612000D03*
D11*
%TO.P,R20,2*%
%TO.N,Net-(R20-Pad2)*%
X102235000Y-75692000D03*
%TD*%
D12*
%TO.P,C1,1*%
%TO.N,I2C_VCC*%
X72660000Y-68580000D03*
%TO.P,C1,2*%
%TO.N,I2C_GND*%
X74660000Y-68580000D03*
%TD*%
D15*
%TO.P,J8,S*%
%TO.N,I2C_GND*%
X84720648Y-40640000D03*
D16*
%TO.P,J8,T*%
%TO.N,Net-(J8-PadT)*%
X96120648Y-40640000D03*
%TO.P,J8,TN*%
%TO.N,unconnected-(J8-PadTN)*%
X87820648Y-40640000D03*
%TD*%
D12*
%TO.P,R30,1*%
%TO.N,Net-(O3B--)*%
X71628000Y-131343400D03*
D11*
%TO.P,R30,2*%
%TO.N,I2C_GND*%
X71628000Y-136423400D03*
%TD*%
D17*
%TO.P,J4,S*%
%TO.N,I2C_GND*%
X86614000Y-123474000D03*
D16*
%TO.P,J4,T*%
%TO.N,Net-(J4-PadT)*%
X86614000Y-134874000D03*
%TO.P,J4,TN*%
%TO.N,unconnected-(J4-PadTN)*%
X86614000Y-126574000D03*
%TD*%
D18*
%TO.P,LED6,1,K*%
%TO.N,I2C_GND*%
X117872648Y-120396000D03*
D19*
%TO.P,LED6,2,A*%
%TO.N,Net-(LED6-A)*%
X115332648Y-120396000D03*
%TD*%
D12*
%TO.P,R26,1*%
%TO.N,I2C_VCC*%
X64995000Y-86131400D03*
D11*
%TO.P,R26,2*%
%TO.N,GP22*%
X64995000Y-91211400D03*
%TD*%
D12*
%TO.P,R22,1*%
%TO.N,Net-(O5-Pad7)*%
X46146352Y-102868600D03*
D11*
%TO.P,R22,2*%
%TO.N,Net-(O1A--)*%
X51226352Y-102868600D03*
%TD*%
D12*
%TO.P,R13,1*%
%TO.N,Net-(LED1-A)*%
X90903000Y-102616000D03*
D11*
%TO.P,R13,2*%
%TO.N,CJ1*%
X95983000Y-102616000D03*
%TD*%
D12*
%TO.P,R31,1*%
%TO.N,Net-(O5C--)*%
X42619352Y-127702600D03*
D11*
%TO.P,R31,2*%
%TO.N,I2C_GND*%
X42619352Y-132782600D03*
%TD*%
D18*
%TO.P,D2,1,A*%
%TO.N,+5V*%
X53678000Y-73939400D03*
D20*
%TO.P,D2,2,K*%
%TO.N,Net-(D2-K)*%
X56218000Y-73939400D03*
%TD*%
D12*
%TO.P,C16,1*%
%TO.N,I2C_GND*%
X57452000Y-56413400D03*
%TO.P,C16,2*%
%TO.N,-12V*%
X59452000Y-56413400D03*
%TD*%
%TO.P,R11,1*%
%TO.N,CJ5*%
X110773000Y-120396000D03*
D11*
%TO.P,R11,2*%
%TO.N,Net-(J5-PadT)*%
X105693000Y-120396000D03*
%TD*%
D12*
%TO.P,C3,1*%
%TO.N,~*%
X63479352Y-42416600D03*
%TO.P,C3,2*%
%TO.N,I2C_GND*%
X65479352Y-42416600D03*
%TD*%
%TO.P,R23,1*%
%TO.N,Net-(O1A--)*%
X55118000Y-104194400D03*
D11*
%TO.P,R23,2*%
%TO.N,GP26*%
X55118000Y-99114400D03*
%TD*%
D17*
%TO.P,J2,S*%
%TO.N,I2C_GND*%
X101605824Y-105694000D03*
D16*
%TO.P,J2,T*%
%TO.N,Net-(J2-PadT)*%
X101605824Y-117094000D03*
%TO.P,J2,TN*%
%TO.N,unconnected-(J2-PadTN)*%
X101605824Y-108794000D03*
%TD*%
D10*
%TO.P,O1,1*%
%TO.N,GP26*%
X62738000Y-70383400D03*
D11*
%TO.P,O1,2,-*%
%TO.N,Net-(O1A--)*%
X62738000Y-67843400D03*
%TO.P,O1,3,+*%
%TO.N,I2C_GND*%
X62738000Y-65303400D03*
%TO.P,O1,4,V-*%
X62738000Y-62763400D03*
%TO.P,O1,5,+*%
%TO.N,unconnected-(O1B-+-Pad5)*%
X55118000Y-62763400D03*
%TO.P,O1,6,-*%
%TO.N,unconnected-(O1B---Pad6)*%
X55118000Y-65303400D03*
%TO.P,O1,7*%
%TO.N,unconnected-(O1-Pad7)*%
X55118000Y-67843400D03*
%TO.P,O1,8,V+*%
%TO.N,I2C_VCC*%
X55118000Y-70383400D03*
%TD*%
D12*
%TO.P,R18,1*%
%TO.N,Net-(LED6-A)*%
X109739648Y-123640000D03*
D11*
%TO.P,R18,2*%
%TO.N,CJ6*%
X109739648Y-128720000D03*
%TD*%
D12*
%TO.P,R29,1*%
%TO.N,Net-(O3A--)*%
X68326000Y-131372400D03*
D11*
%TO.P,R29,2*%
%TO.N,I2C_GND*%
X68326000Y-136452400D03*
%TD*%
D12*
%TO.P,C11,1*%
%TO.N,Net-(O5C-+)*%
X43889352Y-118870600D03*
%TO.P,C11,2*%
%TO.N,I2C_GND*%
X45889352Y-118870600D03*
%TD*%
D21*
%TO.P,SW2,1,1*%
%TO.N,I2C_GND*%
X94234000Y-81280000D03*
%TO.P,SW2,2,2*%
%TO.N,Net-(R19-Pad2)*%
X87884000Y-83820000D03*
%TD*%
D12*
%TO.P,C14,1*%
%TO.N,Net-(O5D-+)*%
X51731352Y-118870600D03*
%TO.P,C14,2*%
%TO.N,I2C_GND*%
X49731352Y-118870600D03*
%TD*%
D18*
%TO.P,D3,1,A*%
%TO.N,-12V*%
X54102000Y-57404000D03*
D20*
%TO.P,D3,2,K*%
%TO.N,Net-(D3-K)*%
X54102000Y-54864000D03*
%TD*%
D12*
%TO.P,R37,1*%
%TO.N,CJ3*%
X70559352Y-139444600D03*
D11*
%TO.P,R37,2*%
%TO.N,Net-(O5C--)*%
X65479352Y-139444600D03*
%TD*%
D18*
%TO.P,D1,1,A*%
%TO.N,I2C_GND*%
X48260000Y-79527400D03*
D20*
%TO.P,D1,2,K*%
%TO.N,CJD*%
X48260000Y-76987400D03*
%TD*%
D12*
%TO.P,R1,1*%
%TO.N,Net-(O3A-+)*%
X64995000Y-94230400D03*
D11*
%TO.P,R1,2*%
%TO.N,GP21*%
X64995000Y-99310400D03*
%TD*%
D12*
%TO.P,R19,1*%
%TO.N,CS2*%
X102119648Y-61214000D03*
D11*
%TO.P,R19,2*%
%TO.N,Net-(R19-Pad2)*%
X102119648Y-66294000D03*
%TD*%
D15*
%TO.P,J7,S*%
%TO.N,I2C_GND*%
X118461000Y-40690800D03*
D16*
%TO.P,J7,T*%
%TO.N,Net-(J7-PadT)*%
X107061000Y-40690800D03*
%TO.P,J7,TN*%
%TO.N,unconnected-(J7-PadTN)*%
X115361000Y-40690800D03*
%TD*%
D18*
%TO.P,D4,1,A*%
%TO.N,Net-(D4-A)*%
X53993352Y-39069000D03*
D20*
%TO.P,D4,2,K*%
%TO.N,~*%
X53993352Y-36529000D03*
%TD*%
D12*
%TO.P,C2,1*%
%TO.N,+5V*%
X49530000Y-68589400D03*
%TO.P,C2,2*%
%TO.N,I2C_GND*%
X49530000Y-66589400D03*
%TD*%
D17*
%TO.P,J1,S*%
%TO.N,I2C_GND*%
X86614000Y-105694000D03*
D16*
%TO.P,J1,T*%
%TO.N,Net-(J1-PadT)*%
X86614000Y-117094000D03*
%TO.P,J1,TN*%
%TO.N,unconnected-(J1-PadTN)*%
X86614000Y-108794000D03*
%TD*%
D12*
%TO.P,C5,1*%
%TO.N,~*%
X63479352Y-48004600D03*
%TO.P,C5,2*%
%TO.N,I2C_GND*%
X65479352Y-48004600D03*
%TD*%
%TO.P,R5,1*%
%TO.N,Net-(O3C-+)*%
X56335352Y-110713600D03*
D11*
%TO.P,R5,2*%
%TO.N,GP18*%
X56335352Y-115793600D03*
%TD*%
D13*
%TO.P,J11,1,Pin_1*%
%TO.N,CJD*%
X42418000Y-68580000D03*
D14*
%TO.P,J11,2,Pin_2*%
%TO.N,CJA*%
X42418000Y-71120000D03*
%TO.P,J11,3,Pin_3*%
%TO.N,CK1*%
X42418000Y-73660000D03*
%TO.P,J11,4,Pin_4*%
%TO.N,CK2*%
X42418000Y-76200000D03*
%TO.P,J11,5,Pin_5*%
%TO.N,CS1*%
X42418000Y-78740000D03*
%TO.P,J11,6,Pin_6*%
%TO.N,CS2*%
X42418000Y-81280000D03*
%TO.P,J11,7,Pin_7*%
%TO.N,CJ6*%
X42418000Y-83820000D03*
%TO.P,J11,8,Pin_8*%
%TO.N,CJ5*%
X42418000Y-86360000D03*
%TO.P,J11,9,Pin_9*%
%TO.N,CJ4*%
X42418000Y-88900000D03*
%TO.P,J11,10,Pin_10*%
%TO.N,CJ3*%
X42418000Y-91440000D03*
%TO.P,J11,11,Pin_11*%
%TO.N,CJ2*%
X42418000Y-93980000D03*
%TO.P,J11,12,Pin_12*%
%TO.N,CJ1*%
X42418000Y-96520000D03*
%TO.P,J11,13,Pin_13*%
%TO.N,I2C_GND*%
X42418000Y-99060000D03*
%TD*%
D18*
%TO.P,LED5,1,K*%
%TO.N,I2C_GND*%
X100330824Y-120396000D03*
D19*
%TO.P,LED5,2,A*%
%TO.N,Net-(LED5-A)*%
X102870824Y-120396000D03*
%TD*%
D12*
%TO.P,C12,1*%
%TO.N,Net-(O3D-+)*%
X43873352Y-112266600D03*
%TO.P,C12,2*%
%TO.N,I2C_GND*%
X45873352Y-112266600D03*
%TD*%
D17*
%TO.P,J3,S*%
%TO.N,I2C_GND*%
X116597648Y-105694000D03*
D16*
%TO.P,J3,T*%
%TO.N,Net-(J3-PadT)*%
X116597648Y-117094000D03*
%TO.P,J3,TN*%
%TO.N,unconnected-(J3-PadTN)*%
X116597648Y-108794000D03*
%TD*%
D12*
%TO.P,R32,1*%
%TO.N,Net-(O3D--)*%
X64516000Y-125247400D03*
D11*
%TO.P,R32,2*%
%TO.N,I2C_GND*%
X64516000Y-120167400D03*
%TD*%
D12*
%TO.P,R8,1*%
%TO.N,CJ2*%
X105918000Y-98015000D03*
D11*
%TO.P,R8,2*%
%TO.N,Net-(J2-PadT)*%
X105918000Y-103095000D03*
%TD*%
D12*
%TO.P,R28,1*%
%TO.N,Net-(J8-PadT)*%
X103516648Y-39642000D03*
D11*
%TO.P,R28,2*%
%TO.N,CJA*%
X103516648Y-44722000D03*
%TD*%
D12*
%TO.P,R10,1*%
%TO.N,CJ4*%
X93472000Y-128778000D03*
D11*
%TO.P,R10,2*%
%TO.N,Net-(J4-PadT)*%
X93472000Y-133858000D03*
%TD*%
D10*
%TO.P,O5,1*%
%TO.N,N/C*%
X45921352Y-139698600D03*
D11*
%TO.P,O5,2*%
X48461352Y-139698600D03*
%TO.P,O5,3*%
X51001352Y-139698600D03*
%TO.P,O5,4,V+*%
%TO.N,~*%
X53541352Y-139698600D03*
%TO.P,O5,5,+*%
%TO.N,I2C_GND*%
X56081352Y-139698600D03*
%TO.P,O5,6,-*%
%TO.N,CJA*%
X58621352Y-139698600D03*
%TO.P,O5,7*%
%TO.N,Net-(O5-Pad7)*%
X61161352Y-139698600D03*
%TO.P,O5,8*%
%TO.N,CJ3*%
X61161352Y-132078600D03*
%TO.P,O5,9,-*%
%TO.N,Net-(O5C--)*%
X58621352Y-132078600D03*
%TO.P,O5,10,+*%
%TO.N,Net-(O5C-+)*%
X56081352Y-132078600D03*
%TO.P,O5,11,V-*%
%TO.N,-12V*%
X53541352Y-132078600D03*
%TO.P,O5,12,+*%
%TO.N,Net-(O5D-+)*%
X51001352Y-132078600D03*
%TO.P,O5,13,-*%
%TO.N,Net-(O5D--)*%
X48461352Y-132078600D03*
%TO.P,O5,14*%
%TO.N,CJ6*%
X45921352Y-132078600D03*
%TD*%
D12*
%TO.P,R2,1*%
%TO.N,Net-(O3B-+)*%
X69625000Y-102133400D03*
D11*
%TO.P,R2,2*%
%TO.N,GP20*%
X64545000Y-102133400D03*
%TD*%
D12*
%TO.P,C4,1*%
%TO.N,I2C_GND*%
X57452000Y-50825400D03*
%TO.P,C4,2*%
%TO.N,-12V*%
X59452000Y-50825400D03*
%TD*%
D13*
%TO.P,J18,1,Pin_1*%
%TO.N,TPH SCL {slash} CPC GND*%
X73596500Y-56642000D03*
D14*
%TO.P,J18,2,Pin_2*%
%TO.N,TPH SDA {slash} CPC VCC*%
X73596500Y-54102000D03*
%TO.P,J18,3,Pin_3*%
%TO.N,TPH GND {slash} CPC SCL*%
X73596500Y-51562000D03*
%TO.P,J18,4,Pin_4*%
%TO.N,TPH VCC {slash} CPC SDA*%
X73596500Y-49022000D03*
%TD*%
D22*
%TO.P,Q1,1,E*%
%TO.N,I2C_GND*%
X53828000Y-78765400D03*
D23*
%TO.P,Q1,2,B*%
%TO.N,CJD*%
X55098000Y-77495400D03*
%TO.P,Q1,3,C*%
%TO.N,GP22*%
X56368000Y-78765400D03*
%TD*%
D21*
%TO.P,SW1,1,1*%
%TO.N,I2C_GND*%
X114071400Y-81305400D03*
%TO.P,SW1,2,2*%
%TO.N,Net-(R20-Pad2)*%
X107721400Y-83845400D03*
%TD*%
D12*
%TO.P,R27,1*%
%TO.N,Net-(J7-PadT)*%
X99579648Y-36928000D03*
D11*
%TO.P,R27,2*%
%TO.N,CJD*%
X99579648Y-42008000D03*
%TD*%
D17*
%TO.P,J5,S*%
%TO.N,I2C_GND*%
X101605824Y-123474000D03*
D16*
%TO.P,J5,T*%
%TO.N,Net-(J5-PadT)*%
X101605824Y-134874000D03*
%TO.P,J5,TN*%
%TO.N,unconnected-(J5-PadTN)*%
X101605824Y-126574000D03*
%TD*%
D12*
%TO.P,R36,1*%
%TO.N,CJ2*%
X74422000Y-108766400D03*
D11*
%TO.P,R36,2*%
%TO.N,Net-(O3B--)*%
X74422000Y-103686400D03*
%TD*%
D12*
%TO.P,R25,1*%
%TO.N,CS2*%
X69371000Y-71174400D03*
D11*
%TO.P,R25,2*%
%TO.N,I2C_VCC*%
X69371000Y-66094400D03*
%TD*%
D12*
%TO.P,C10,1*%
%TO.N,Net-(O3B-+)*%
X69596000Y-97090701D03*
%TO.P,C10,2*%
%TO.N,I2C_GND*%
X71596000Y-97090701D03*
%TD*%
%TO.P,R9,1*%
%TO.N,CJ3*%
X109982000Y-102362000D03*
D11*
%TO.P,R9,2*%
%TO.N,Net-(J3-PadT)*%
X109982000Y-107442000D03*
%TD*%
D12*
%TO.P,C13,1*%
%TO.N,Net-(O3C-+)*%
X51715352Y-112266600D03*
%TO.P,C13,2*%
%TO.N,I2C_GND*%
X49715352Y-112266600D03*
%TD*%
%TO.P,R7,1*%
%TO.N,CJ1*%
X93218000Y-110236000D03*
D11*
%TO.P,R7,2*%
%TO.N,Net-(J1-PadT)*%
X93218000Y-115316000D03*
%TD*%
D12*
%TO.P,C7,1*%
%TO.N,CS2*%
X73660000Y-81280000D03*
%TO.P,C7,2*%
%TO.N,I2C_GND*%
X73660000Y-79280000D03*
%TD*%
%TO.P,R34,1*%
%TO.N,Net-(O5D--)*%
X42619352Y-140206600D03*
D11*
%TO.P,R34,2*%
%TO.N,I2C_GND*%
X42619352Y-135126600D03*
%TD*%
D24*
%TO.P,VR1,*%
%TO.N,*%
X115759400Y-68097400D03*
X106959400Y-68097400D03*
D19*
%TO.P,VR1,1,1*%
%TO.N,I2C_VCC*%
X108859400Y-61097400D03*
%TO.P,VR1,2,2*%
%TO.N,CK1*%
X111359400Y-61097400D03*
%TO.P,VR1,3,3*%
%TO.N,I2C_GND*%
X113859400Y-61097400D03*
%TD*%
D12*
%TO.P,C15,1*%
%TO.N,~*%
X63479352Y-53592600D03*
%TO.P,C15,2*%
%TO.N,I2C_GND*%
X65479352Y-53592600D03*
%TD*%
D18*
%TO.P,LED2,1,K*%
%TO.N,I2C_GND*%
X102880824Y-102616000D03*
D19*
%TO.P,LED2,2,A*%
%TO.N,Net-(LED2-A)*%
X100340824Y-102616000D03*
%TD*%
D24*
%TO.P,VR2,*%
%TO.N,*%
X96232648Y-68087000D03*
X87432648Y-68087000D03*
D19*
%TO.P,VR2,1,1*%
%TO.N,I2C_VCC*%
X89332648Y-61087000D03*
%TO.P,VR2,2,2*%
%TO.N,CK2*%
X91832648Y-61087000D03*
%TO.P,VR2,3,3*%
%TO.N,I2C_GND*%
X94332648Y-61087000D03*
%TD*%
D12*
%TO.P,R3,1*%
%TO.N,Net-(O5C-+)*%
X46937352Y-124966600D03*
D11*
%TO.P,R3,2*%
%TO.N,GP16*%
X52017352Y-124966600D03*
%TD*%
D12*
%TO.P,R4,1*%
%TO.N,Net-(O3D-+)*%
X46683352Y-106932600D03*
D11*
%TO.P,R4,2*%
%TO.N,GP17*%
X51763352Y-106932600D03*
%TD*%
D12*
%TO.P,R39,1*%
%TO.N,CJ5*%
X69400000Y-108708400D03*
D11*
%TO.P,R39,2*%
%TO.N,Net-(O3C--)*%
X64320000Y-108708400D03*
%TD*%
D18*
%TO.P,LED4,1,K*%
%TO.N,I2C_GND*%
X85339000Y-120396000D03*
D19*
%TO.P,LED4,2,A*%
%TO.N,Net-(LED4-A)*%
X87879000Y-120396000D03*
%TD*%
D13*
%TO.P,J12,1,Pin_1*%
%TO.N,TPH SCL {slash} CPC GND*%
X117957600Y-56642000D03*
D14*
%TO.P,J12,2,Pin_2*%
%TO.N,TPH SDA {slash} CPC VCC*%
X117957600Y-54102000D03*
%TO.P,J12,3,Pin_3*%
%TO.N,TPH GND {slash} CPC SCL*%
X117957600Y-51562000D03*
%TO.P,J12,4,Pin_4*%
%TO.N,TPH VCC {slash} CPC SDA*%
X117957600Y-49022000D03*
%TD*%
D12*
%TO.P,C9,1*%
%TO.N,Net-(O3A-+)*%
X69596000Y-90994701D03*
%TO.P,C9,2*%
%TO.N,I2C_GND*%
X71596000Y-90994701D03*
%TD*%
%TO.P,R40,1*%
%TO.N,CJ6*%
X46683352Y-128551600D03*
D11*
%TO.P,R40,2*%
%TO.N,Net-(O5D--)*%
X51763352Y-128551600D03*
%TD*%
D17*
%TO.P,J6,S*%
%TO.N,I2C_GND*%
X116597648Y-123474000D03*
D16*
%TO.P,J6,T*%
%TO.N,Net-(J6-PadT)*%
X116597648Y-134874000D03*
%TO.P,J6,TN*%
%TO.N,unconnected-(J6-PadTN)*%
X116597648Y-126574000D03*
%TD*%
D18*
%TO.P,LED3,1,K*%
%TO.N,I2C_GND*%
X117872648Y-102616000D03*
D19*
%TO.P,LED3,2,A*%
%TO.N,Net-(LED3-A)*%
X115332648Y-102616000D03*
%TD*%
D12*
%TO.P,R12,1*%
%TO.N,CJ6*%
X109739648Y-131289000D03*
D11*
%TO.P,R12,2*%
%TO.N,Net-(J6-PadT)*%
X109739648Y-136369000D03*
%TD*%
D12*
%TO.P,R38,1*%
%TO.N,CJ4*%
X64516000Y-133375400D03*
D11*
%TO.P,R38,2*%
%TO.N,Net-(O3D--)*%
X64516000Y-128295400D03*
%TD*%
D12*
%TO.P,R35,1*%
%TO.N,CJ1*%
X74930000Y-131314400D03*
D11*
%TO.P,R35,2*%
%TO.N,Net-(O3A--)*%
X74930000Y-136394400D03*
%TD*%
D12*
%TO.P,R14,1*%
%TO.N,Net-(LED2-A)*%
X96266000Y-98552000D03*
D11*
%TO.P,R14,2*%
%TO.N,CJ2*%
X101346000Y-98552000D03*
%TD*%
D12*
%TO.P,C8,1*%
%TO.N,CS1*%
X73660000Y-73438000D03*
%TO.P,C8,2*%
%TO.N,I2C_GND*%
X73660000Y-75438000D03*
%TD*%
D18*
%TO.P,LED1,1,K*%
%TO.N,I2C_GND*%
X87889000Y-102616000D03*
D19*
%TO.P,LED1,2,A*%
%TO.N,Net-(LED1-A)*%
X85349000Y-102616000D03*
%TD*%
D12*
%TO.P,R15,1*%
%TO.N,Net-(LED3-A)*%
X115581648Y-98806000D03*
D11*
%TO.P,R15,2*%
%TO.N,CJ3*%
X110501648Y-98806000D03*
%TD*%
D12*
%TO.P,C6,1*%
%TO.N,I2C_GND*%
X57452000Y-45237400D03*
%TO.P,C6,2*%
%TO.N,-12V*%
X59452000Y-45237400D03*
%TD*%
%TO.P,R33,1*%
%TO.N,Net-(O3C--)*%
X64516000Y-112235400D03*
D11*
%TO.P,R33,2*%
%TO.N,I2C_GND*%
X64516000Y-117315400D03*
%TD*%
D13*
%TO.P,J16,1,Pin_1*%
%TO.N,GP1*%
X78486000Y-39649400D03*
D14*
%TO.P,J16,2,Pin_2*%
%TO.N,TPH GND {slash} CPC SCL*%
X75946000Y-39649400D03*
%TO.P,J16,3,Pin_3*%
%TO.N,TPH SDA {slash} CPC VCC*%
X73406000Y-39649400D03*
%TO.P,J16,4,Pin_4*%
%TO.N,I2C_VCC*%
X70866000Y-39649400D03*
%TO.P,J16,5,Pin_5*%
%TO.N,TPH VCC {slash} CPC SDA*%
X78486000Y-37109400D03*
%TO.P,J16,6,Pin_6*%
%TO.N,GP0*%
X75946000Y-37109400D03*
%TO.P,J16,7,Pin_7*%
%TO.N,I2C_GND*%
X73406000Y-37109400D03*
%TO.P,J16,8,Pin_8*%
%TO.N,TPH SCL {slash} CPC GND*%
X70866000Y-37109400D03*
%TD*%
D13*
%TO.P,J15,1,Pin_1*%
%TO.N,I2C_GND*%
X77470000Y-64770000D03*
D14*
%TO.P,J15,2,Pin_2*%
%TO.N,I2C_VCC*%
X77470000Y-62230000D03*
%TO.P,J15,3,Pin_3*%
%TO.N,GP3*%
X77470000Y-59690000D03*
%TO.P,J15,4,Pin_4*%
%TO.N,GP2*%
X77470000Y-57150000D03*
%TD*%
D25*
%TO.P,U2,1,GP0*%
%TO.N,GP0*%
X78326000Y-75841400D03*
D12*
%TO.P,U2,2,GP1*%
%TO.N,GP1*%
X78326000Y-78381400D03*
D26*
%TO.P,U2,3,GND*%
%TO.N,I2C_GND*%
X78326000Y-80921400D03*
D12*
%TO.P,U2,4,GP2*%
%TO.N,GP2*%
X78326000Y-83461400D03*
%TO.P,U2,5,GP3*%
%TO.N,GP3*%
X78326000Y-86001400D03*
%TO.P,U2,6,GP4*%
%TO.N,CS1*%
X78326000Y-88541400D03*
%TO.P,U2,7,GP5*%
%TO.N,CS2*%
X78326000Y-91081400D03*
D26*
%TO.P,U2,8,GND*%
%TO.N,I2C_GND*%
X78326000Y-93621400D03*
D12*
%TO.P,U2,9,GP6*%
%TO.N,unconnected-(U2-GP6-Pad9)*%
X78326000Y-96161400D03*
%TO.P,U2,10,GP7*%
%TO.N,unconnected-(U2-GP7-Pad10)*%
X78326000Y-98701400D03*
%TO.P,U2,11,GP8*%
%TO.N,unconnected-(U2-GP8-Pad11)*%
X78326000Y-101241400D03*
%TO.P,U2,12,GP9*%
%TO.N,unconnected-(U2-GP9-Pad12)*%
X78326000Y-103781400D03*
D26*
%TO.P,U2,13,GND*%
%TO.N,I2C_GND*%
X78326000Y-106321400D03*
D12*
%TO.P,U2,14,GP10*%
%TO.N,unconnected-(U2-GP10-Pad14)*%
X78326000Y-108861400D03*
%TO.P,U2,15,GP11*%
%TO.N,unconnected-(U2-GP11-Pad15)*%
X78326000Y-111401400D03*
%TO.P,U2,16,GP12*%
%TO.N,unconnected-(U2-GP12-Pad16)*%
X78326000Y-113941400D03*
%TO.P,U2,17,GP13*%
%TO.N,unconnected-(U2-GP13-Pad17)*%
X78326000Y-116481400D03*
D26*
%TO.P,U2,18,GND*%
%TO.N,I2C_GND*%
X78326000Y-119021400D03*
D12*
%TO.P,U2,19,GP14*%
%TO.N,unconnected-(U2-GP14-Pad19)*%
X78326000Y-121561400D03*
%TO.P,U2,20,GP15*%
%TO.N,unconnected-(U2-GP15-Pad20)*%
X78326000Y-124101400D03*
%TO.P,U2,21,GP16*%
%TO.N,GP16*%
X60546000Y-124101400D03*
%TO.P,U2,22,GP17*%
%TO.N,GP17*%
X60546000Y-121561400D03*
D27*
%TO.P,U2,23,GND*%
%TO.N,I2C_GND*%
X60546000Y-119021400D03*
D12*
%TO.P,U2,24,GP18*%
%TO.N,GP18*%
X60546000Y-116481400D03*
%TO.P,U2,25,GP19*%
%TO.N,GP19*%
X60546000Y-113941400D03*
%TO.P,U2,26,GP20*%
%TO.N,GP20*%
X60546000Y-111401400D03*
%TO.P,U2,27,GP21*%
%TO.N,GP21*%
X60546000Y-108861400D03*
D27*
%TO.P,U2,28,GND*%
%TO.N,I2C_GND*%
X60546000Y-106321400D03*
D12*
%TO.P,U2,29,GP22*%
%TO.N,GP22*%
X60546000Y-103781400D03*
%TO.P,U2,30,RUN*%
%TO.N,unconnected-(U2-RUN-Pad30)*%
X60546000Y-101241400D03*
%TO.P,U2,31,GP26*%
%TO.N,GP26*%
X60546000Y-98701400D03*
%TO.P,U2,32,GP27*%
%TO.N,CK1*%
X60546000Y-96161400D03*
D27*
%TO.P,U2,33,GND*%
%TO.N,I2C_GND*%
X60546000Y-93621400D03*
D12*
%TO.P,U2,34,GP28*%
%TO.N,CK2*%
X60546000Y-91081400D03*
%TO.P,U2,35,ADC_VREF*%
%TO.N,unconnected-(U2-ADC_VREF-Pad35)*%
X60546000Y-88541400D03*
%TO.P,U2,36,3V3*%
%TO.N,I2C_VCC*%
X60546000Y-86001400D03*
%TO.P,U2,37,3V3_EN*%
%TO.N,unconnected-(U2-3V3_EN-Pad37)*%
X60546000Y-83461400D03*
D27*
%TO.P,U2,38,GND*%
%TO.N,I2C_GND*%
X60546000Y-80921400D03*
D12*
%TO.P,U2,39,VSYS*%
%TO.N,Net-(D2-K)*%
X60546000Y-78381400D03*
%TO.P,U2,40,VBUS*%
%TO.N,unconnected-(U2-VBUS-Pad40)*%
X60546000Y-75841400D03*
%TD*%
D13*
%TO.P,J19,1,Pin_1*%
%TO.N,TPH SCL {slash} CPC GND*%
X114211500Y-56642000D03*
D14*
%TO.P,J19,2,Pin_2*%
%TO.N,TPH SDA {slash} CPC VCC*%
X114211500Y-54102000D03*
%TO.P,J19,3,Pin_3*%
%TO.N,TPH GND {slash} CPC SCL*%
X114211500Y-51562000D03*
%TO.P,J19,4,Pin_4*%
%TO.N,TPH VCC {slash} CPC SDA*%
X114211500Y-49022000D03*
%TD*%
D13*
%TO.P,J17,1,Pin_1*%
%TO.N,CJD*%
X83058000Y-68580000D03*
D14*
%TO.P,J17,2,Pin_2*%
%TO.N,CJA*%
X83058000Y-71120000D03*
%TO.P,J17,3,Pin_3*%
%TO.N,CK1*%
X83058000Y-73660000D03*
%TO.P,J17,4,Pin_4*%
%TO.N,CK2*%
X83058000Y-76200000D03*
%TO.P,J17,5,Pin_5*%
%TO.N,CS1*%
X83058000Y-78740000D03*
%TO.P,J17,6,Pin_6*%
%TO.N,CS2*%
X83058000Y-81280000D03*
%TO.P,J17,7,Pin_7*%
%TO.N,CJ6*%
X83058000Y-83820000D03*
%TO.P,J17,8,Pin_8*%
%TO.N,CJ5*%
X83058000Y-86360000D03*
%TO.P,J17,9,Pin_9*%
%TO.N,CJ4*%
X83058000Y-88900000D03*
%TO.P,J17,10,Pin_10*%
%TO.N,CJ3*%
X83058000Y-91440000D03*
%TO.P,J17,11,Pin_11*%
%TO.N,CJ2*%
X83058000Y-93980000D03*
%TO.P,J17,12,Pin_12*%
%TO.N,CJ1*%
X83058000Y-96520000D03*
%TO.P,J17,13,Pin_13*%
%TO.N,I2C_GND*%
X83058000Y-99060000D03*
%TD*%
D28*
%TO.P,J10,1,Pin_1*%
%TO.N,Net-(D3-K)*%
X45212000Y-58166000D03*
D29*
%TO.P,J10,2,Pin_2*%
X47752000Y-58166000D03*
%TO.P,J10,3,Pin_3*%
%TO.N,I2C_GND*%
X45212000Y-55626000D03*
%TO.P,J10,4,Pin_4*%
X47752000Y-55626000D03*
%TO.P,J10,5,Pin_5*%
X45212000Y-53086000D03*
%TO.P,J10,6,Pin_6*%
X47752000Y-53086000D03*
%TO.P,J10,7,Pin_7*%
X45212000Y-50546000D03*
%TO.P,J10,8,Pin_8*%
X47752000Y-50546000D03*
%TO.P,J10,9,Pin_9*%
%TO.N,Net-(D4-A)*%
X45212000Y-48006000D03*
%TO.P,J10,10,Pin_10*%
X47752000Y-48006000D03*
%TO.P,J10,11,Pin_11*%
%TO.N,+5V*%
X45212000Y-45466000D03*
%TO.P,J10,12,Pin_12*%
X47752000Y-45466000D03*
%TO.P,J10,13,Pin_13*%
%TO.N,Net-(J10-Pin_13)*%
X45212000Y-42926000D03*
%TO.P,J10,14,Pin_14*%
X47752000Y-42926000D03*
%TO.P,J10,15,Pin_15*%
%TO.N,Net-(J10-Pin_15)*%
X45212000Y-40386000D03*
%TO.P,J10,16,Pin_16*%
X47752000Y-40386000D03*
%TD*%
D30*
%TO.P,U1,1,IN*%
%TO.N,~*%
X59383352Y-37773600D03*
D31*
%TO.P,U1,2,GND*%
%TO.N,I2C_GND*%
X61923352Y-37773600D03*
%TO.P,U1,3,OUT*%
%TO.N,+5V*%
X64463352Y-37773600D03*
%TD*%
D32*
%TO.N,-12V*%
X64770000Y-68351400D03*
X70484377Y-120037635D03*
X75184000Y-95806177D03*
X75184000Y-90424000D03*
%TO.N,Net-(O3D-+)*%
X63049585Y-122757775D03*
X58165992Y-122682000D03*
%TO.N,GP26*%
X62738000Y-84719900D03*
X62826262Y-81226462D03*
%TO.N,Net-(O1A--)*%
X62992000Y-98298000D03*
X67124146Y-79884267D03*
X67056000Y-88392000D03*
%TO.N,Net-(O5C--)*%
X46683352Y-134110600D03*
%TO.N,Net-(R19-Pad2)*%
X99296000Y-81044000D03*
%TO.N,CK1*%
X44903370Y-82003610D03*
%TO.N,CJ2*%
X70612000Y-104394000D03*
X57974723Y-101991229D03*
%TO.N,CJ4*%
X93218000Y-92456000D03*
%TO.N,CJ6*%
X99568000Y-87630000D03*
X44905352Y-100328600D03*
X99568000Y-91948000D03*
X47445352Y-97788600D03*
%TO.N,CJA*%
X63838575Y-89831407D03*
X71120000Y-100584000D03*
%TO.N,CS2*%
X68834000Y-87376000D03*
X94804634Y-76930000D03*
%TO.N,~*%
X69596000Y-64008000D03*
X77216000Y-69596000D03*
%TD*%
D33*
%TO.N,-12V*%
X67564000Y-120167400D02*
X64034000Y-123697400D01*
X64938000Y-68519400D02*
X64938000Y-71034000D01*
X72644000Y-115643503D02*
X70484377Y-117803126D01*
X60473384Y-129878600D02*
X55741352Y-129878600D01*
X75184000Y-95806177D02*
X75184000Y-97779767D01*
X55741352Y-129878600D02*
X53541352Y-132078600D01*
X68580000Y-74676000D02*
X68580000Y-83820000D01*
X68580000Y-83820000D02*
X75184000Y-90424000D01*
X64938000Y-71034000D02*
X68580000Y-74676000D01*
X72644000Y-100319767D02*
X72644000Y-115643503D01*
X62966000Y-127385984D02*
X60473384Y-129878600D01*
X62966000Y-124605368D02*
X62966000Y-127385984D01*
X64770000Y-68351400D02*
X64938000Y-68519400D01*
X75184000Y-97779767D02*
X72644000Y-100319767D01*
X63873968Y-123697400D02*
X62966000Y-124605368D01*
X64034000Y-123697400D02*
X63873968Y-123697400D01*
X70484377Y-117803126D02*
X70484377Y-120037635D01*
D34*
%TO.N,Net-(O3D-+)*%
X62995960Y-122811400D02*
X63049585Y-122757775D01*
X58295392Y-122811400D02*
X62995960Y-122811400D01*
X58165992Y-122682000D02*
X58295392Y-122811400D01*
%TO.N,Net-(O3C-+)*%
X60175239Y-115191400D02*
X60127438Y-115143600D01*
X67564000Y-117627400D02*
X65128000Y-115191400D01*
X60127438Y-115143600D02*
X59633982Y-115143600D01*
X56335352Y-111844970D02*
X56335352Y-110713600D01*
X65128000Y-115191400D02*
X60175239Y-115191400D01*
X59633982Y-115143600D02*
X56335352Y-111844970D01*
%TO.N,Net-(O5D-+)*%
X55319352Y-127760600D02*
X51001352Y-132078600D01*
%TO.N,GP26*%
X62738000Y-81138200D02*
X62826262Y-81226462D01*
X62238581Y-97008819D02*
X60546000Y-98701400D01*
X62738000Y-70383400D02*
X62738000Y-81138200D01*
X62238581Y-85219319D02*
X62238581Y-97008819D01*
X60546000Y-98701400D02*
X55531000Y-98701400D01*
X55531000Y-98701400D02*
X55118000Y-99114400D01*
X62738000Y-84719900D02*
X62238581Y-85219319D01*
%TO.N,Net-(O1A--)*%
X63988000Y-76748121D02*
X67124146Y-79884267D01*
X62992000Y-98298000D02*
X62888581Y-98194581D01*
X62888581Y-89437898D02*
X63934479Y-88392000D01*
X63988000Y-69093400D02*
X63988000Y-76748121D01*
X63934479Y-88392000D02*
X67056000Y-88392000D01*
X62888581Y-98194581D02*
X62888581Y-89437898D01*
X62738000Y-67843400D02*
X63988000Y-69093400D01*
%TO.N,Net-(O3A--)*%
X68326000Y-130048000D02*
X68326000Y-131372400D01*
X75184000Y-125247400D02*
X73126600Y-125247400D01*
X73126600Y-125247400D02*
X68326000Y-130048000D01*
%TO.N,Net-(O3D--)*%
X67564000Y-125247400D02*
X64516000Y-125247400D01*
X64516000Y-125247400D02*
X64516000Y-128295400D01*
%TO.N,Net-(O5C--)*%
X46683352Y-134110600D02*
X56589352Y-134110600D01*
X56589352Y-134110600D02*
X58621352Y-132078600D01*
%TO.N,Net-(O5D--)*%
X48461352Y-131853600D02*
X48461352Y-132078600D01*
X51763352Y-128551600D02*
X48461352Y-131853600D01*
%TO.N,GP18*%
X56335352Y-115793600D02*
X59858200Y-115793600D01*
X59858200Y-115793600D02*
X60546000Y-116481400D01*
D35*
%TO.N,Net-(R19-Pad2)*%
X102119648Y-67500289D02*
X105613176Y-70993817D01*
X105664000Y-78486000D02*
X101854000Y-78486000D01*
X101854000Y-78486000D02*
X99296000Y-81044000D01*
X102119648Y-66294000D02*
X102119648Y-67500289D01*
X105664000Y-71044641D02*
X105613176Y-70993817D01*
X105664000Y-78486000D02*
X105664000Y-71044641D01*
D34*
%TO.N,CK1*%
X44903370Y-76145370D02*
X44903370Y-82003610D01*
X42418000Y-73660000D02*
X44903370Y-76145370D01*
D35*
%TO.N,CK2*%
X91832648Y-61087000D02*
X91832648Y-68283195D01*
X91832648Y-68283195D02*
X83915843Y-76200000D01*
X83915843Y-76200000D02*
X83058000Y-76200000D01*
D34*
%TO.N,CJ2*%
X62926367Y-104394000D02*
X61063767Y-102531400D01*
X70612000Y-104394000D02*
X62926367Y-104394000D01*
X58514894Y-102531400D02*
X57974723Y-101991229D01*
X61063767Y-102531400D02*
X58514894Y-102531400D01*
%TO.N,CJ3*%
X57500919Y-110111400D02*
X64159767Y-110111400D01*
X68814000Y-125765167D02*
X68081767Y-126497400D01*
X67086233Y-126497400D02*
X65766000Y-127817633D01*
X42418000Y-91440000D02*
X43890752Y-91440000D01*
X68081767Y-113837400D02*
X68814000Y-114569633D01*
X62685352Y-132078600D02*
X61161352Y-132078600D01*
X67050152Y-113837400D02*
X68081767Y-113837400D01*
X64159767Y-110111400D02*
X66314000Y-112265633D01*
X52568000Y-100117248D02*
X52568000Y-105178481D01*
X65766000Y-127817633D02*
X65766000Y-128997952D01*
X66314000Y-113101248D02*
X67050152Y-113837400D01*
X68081767Y-126497400D02*
X67086233Y-126497400D01*
X65766000Y-128997952D02*
X62685352Y-132078600D01*
X68814000Y-114569633D02*
X68814000Y-125765167D01*
X52568000Y-105178481D02*
X57500919Y-110111400D01*
X43890752Y-91440000D02*
X52568000Y-100117248D01*
X66314000Y-112265633D02*
X66314000Y-113101248D01*
%TO.N,CJ4*%
X60033294Y-107576462D02*
X61934462Y-107576462D01*
D35*
X93218000Y-92710000D02*
X93218000Y-92456000D01*
D34*
X42418000Y-89101406D02*
X44106594Y-90790000D01*
X62052524Y-107458400D02*
X65040400Y-107458400D01*
D35*
X93472000Y-125701000D02*
X91168000Y-123397000D01*
D34*
X61934462Y-107576462D02*
X62052524Y-107458400D01*
X58093469Y-104776875D02*
X58093469Y-105636637D01*
D35*
X91168000Y-105250138D02*
X93218000Y-103200138D01*
D34*
X68695370Y-127787400D02*
X67564000Y-127787400D01*
X44106594Y-90790000D02*
X44159990Y-90790000D01*
X69464000Y-111882000D02*
X69464000Y-127018770D01*
X53218000Y-99901406D02*
X58093469Y-104776875D01*
X69464000Y-127018770D02*
X68695370Y-127787400D01*
X58093469Y-105636637D02*
X60033294Y-107576462D01*
D35*
X91168000Y-123397000D02*
X91168000Y-105250138D01*
D34*
X65040400Y-107458400D02*
X69464000Y-111882000D01*
X44159990Y-90790000D02*
X53218000Y-99848010D01*
X42418000Y-88900000D02*
X42418000Y-89101406D01*
X53218000Y-99848010D02*
X53218000Y-99901406D01*
D35*
X93218000Y-103200138D02*
X93218000Y-92710000D01*
D34*
%TO.N,CJ5*%
X53868000Y-99578771D02*
X44429228Y-90140000D01*
X59302171Y-105066338D02*
X53868000Y-99632167D01*
D35*
X103396000Y-97702862D02*
X103396000Y-98570000D01*
X83487849Y-86360000D02*
X86487849Y-89360000D01*
X104902000Y-100076000D02*
X105798138Y-100076000D01*
D34*
X43718000Y-89438478D02*
X43718000Y-87660000D01*
D35*
X100838000Y-96046428D02*
X101739566Y-96046428D01*
D34*
X44375833Y-90140000D02*
X43696155Y-89460322D01*
X43718000Y-87660000D02*
X42418000Y-86360000D01*
X65757938Y-105066338D02*
X59302171Y-105066338D01*
D35*
X105798138Y-100076000D02*
X107968000Y-102245862D01*
D34*
X53868000Y-99632167D02*
X53868000Y-99578771D01*
D35*
X101739566Y-96046428D02*
X103396000Y-97702862D01*
D34*
X69400000Y-108708400D02*
X65757938Y-105066338D01*
D35*
X86487849Y-89360000D02*
X94151572Y-89360000D01*
X110508000Y-110613138D02*
X110508000Y-115523000D01*
X83058000Y-86360000D02*
X83487849Y-86360000D01*
X110508000Y-115523000D02*
X108458000Y-117573000D01*
X94151572Y-89360000D02*
X100838000Y-96046428D01*
D34*
X44429228Y-90140000D02*
X44375833Y-90140000D01*
X43696155Y-89460322D02*
X43718000Y-89438478D01*
D35*
X107968000Y-102245862D02*
X107968000Y-108073138D01*
X107968000Y-108073138D02*
X110508000Y-110613138D01*
X103396000Y-98570000D02*
X104902000Y-100076000D01*
%TO.N,CJ6*%
X113030000Y-98435214D02*
X113030000Y-125429648D01*
X99568000Y-91948000D02*
X106542786Y-91948000D01*
X95440000Y-78930000D02*
X97296000Y-80786000D01*
X83058000Y-83820000D02*
X84560598Y-83820000D01*
X97296000Y-80786000D02*
X97296000Y-84088000D01*
D34*
X47445352Y-97788600D02*
X44905352Y-100328600D01*
D35*
X113030000Y-125429648D02*
X109739648Y-128720000D01*
X113030000Y-98435214D02*
X113048000Y-98417214D01*
X97296000Y-84088000D02*
X99568000Y-86360000D01*
X89450598Y-78930000D02*
X95440000Y-78930000D01*
X99568000Y-86360000D02*
X99568000Y-87630000D01*
X106542786Y-91948000D02*
X113030000Y-98435214D01*
X84560598Y-83820000D02*
X89450598Y-78930000D01*
D34*
%TO.N,CJA*%
X68346000Y-92309265D02*
X65868142Y-89831407D01*
X65868142Y-89831407D02*
X63838575Y-89831407D01*
X71120000Y-100584000D02*
X68346000Y-97810000D01*
X68346000Y-97810000D02*
X68346000Y-92309265D01*
%TO.N,CS2*%
X61362997Y-84751400D02*
X45388419Y-84751400D01*
X42418000Y-81780981D02*
X42418000Y-81280000D01*
D35*
X102119648Y-61214000D02*
X100069648Y-63264000D01*
X100069648Y-63264000D02*
X100069648Y-71664986D01*
D34*
X62344497Y-83769900D02*
X61362997Y-84751400D01*
X45388419Y-84751400D02*
X42418000Y-81780981D01*
X68834000Y-87376000D02*
X65227900Y-83769900D01*
X65227900Y-83769900D02*
X62344497Y-83769900D01*
D35*
X100069648Y-71664986D02*
X94804634Y-76930000D01*
D34*
%TO.N,CS1*%
X75577503Y-91374000D02*
X74536498Y-91374000D01*
X74536498Y-91374000D02*
X65338960Y-82176462D01*
D33*
X72110000Y-73856630D02*
X72110000Y-84048000D01*
D34*
X65338960Y-82176462D02*
X46074021Y-82176462D01*
D33*
X71110000Y-61991400D02*
X71110000Y-62981000D01*
X72528630Y-73438000D02*
X72110000Y-73856630D01*
D34*
X44509867Y-82953610D02*
X43953370Y-82397113D01*
D33*
X71149000Y-62942000D02*
X71149000Y-61747400D01*
X71110000Y-62981000D02*
X71110000Y-70888000D01*
D34*
X78326000Y-88541400D02*
X78326000Y-88625503D01*
D33*
X71110000Y-70888000D02*
X73660000Y-73438000D01*
D34*
X46074021Y-82176462D02*
X45296873Y-82953610D01*
D33*
X73660000Y-73438000D02*
X72528630Y-73438000D01*
D34*
X43953370Y-82397113D02*
X43953370Y-80275370D01*
X45296873Y-82953610D02*
X44509867Y-82953610D01*
X78326000Y-88625503D02*
X75577503Y-91374000D01*
D33*
X76603400Y-88541400D02*
X78326000Y-88541400D01*
X71110000Y-62981000D02*
X71149000Y-62942000D01*
D34*
X43953370Y-80275370D02*
X42418000Y-78740000D01*
D33*
X72110000Y-84048000D02*
X76603400Y-88541400D01*
D34*
%TO.N,TPH VCC {slash} CPC SDA*%
X80036000Y-38099400D02*
X80036000Y-41199400D01*
X79786000Y-42832500D02*
X73596500Y-49022000D01*
X80036000Y-41199400D02*
X79786000Y-41199400D01*
X78486000Y-37109400D02*
X79476000Y-38099400D01*
X79786000Y-41199400D02*
X79786000Y-42832500D01*
X79476000Y-38099400D02*
X80036000Y-38099400D01*
%TO.N,TPH SCL {slash} CPC GND*%
X69566000Y-38409400D02*
X69566000Y-52611500D01*
X74422000Y-56631000D02*
X74422000Y-56642000D01*
X69566000Y-52611500D02*
X73596500Y-56642000D01*
X70866000Y-37109400D02*
X69566000Y-38409400D01*
D35*
%TO.N,I2C_GND*%
X94694000Y-81740000D02*
X94694000Y-87074000D01*
X42418000Y-108265663D02*
X45873352Y-111721015D01*
X101680095Y-105694000D02*
X98944648Y-108429447D01*
X61926167Y-48997000D02*
X62965767Y-50036600D01*
X45159352Y-50544600D02*
X56601430Y-50544600D01*
X85339000Y-120396000D02*
X85339000Y-122199000D01*
X118126648Y-120396000D02*
X119276296Y-119246352D01*
X86614000Y-105694000D02*
X87889000Y-104419000D01*
X84720648Y-45125000D02*
X84720648Y-40640000D01*
X83704648Y-118761648D02*
X83704648Y-108429447D01*
X119276296Y-119246352D02*
X119276296Y-108372648D01*
X45873352Y-112266600D02*
X49715352Y-112266600D01*
X63624000Y-119021400D02*
X64516000Y-119913400D01*
X42418000Y-99060000D02*
X42418000Y-108265663D01*
X45223661Y-50544600D02*
X45223661Y-55624600D01*
X112522000Y-63119000D02*
X108026642Y-63119000D01*
X65423352Y-41609000D02*
X65423352Y-39678600D01*
X64516000Y-119913400D02*
X64516000Y-120167400D01*
X73406000Y-36074048D02*
X73406000Y-37109400D01*
X105167648Y-132809000D02*
X105697648Y-133339000D01*
X117867648Y-102611000D02*
X117872648Y-102616000D01*
X45873352Y-112266600D02*
X45873352Y-118854600D01*
X52741767Y-122426600D02*
X49731352Y-119416185D01*
X45889352Y-118870600D02*
X45889352Y-122458600D01*
X74660000Y-68580000D02*
X74660000Y-63246000D01*
X69842552Y-35259400D02*
X72591352Y-35259400D01*
X86614000Y-123474000D02*
X86787905Y-123474000D01*
X118126648Y-120396000D02*
X118126648Y-124974648D01*
X107689648Y-131347000D02*
X107689648Y-129135743D01*
X83058000Y-106594095D02*
X84299000Y-107835095D01*
X112851944Y-133339000D02*
X119657296Y-126533648D01*
X42619352Y-135126600D02*
X43419351Y-135926599D01*
X60198000Y-60223400D02*
X62738000Y-62763400D01*
X68326000Y-136452400D02*
X71599000Y-136452400D01*
X78320415Y-80921400D02*
X78326000Y-80921400D01*
X85339000Y-120396000D02*
X83704648Y-118761648D01*
X43419351Y-135926599D02*
X53440721Y-135926599D01*
X55112415Y-60223400D02*
X49530000Y-65805815D01*
X84299000Y-107835095D02*
X86440095Y-105694000D01*
X85339000Y-122199000D02*
X86614000Y-123474000D01*
X117872648Y-120396000D02*
X118126648Y-120396000D01*
X74660000Y-63246000D02*
X74660000Y-60182000D01*
X100247648Y-132058000D02*
X100998648Y-132809000D01*
X58149030Y-48997000D02*
X61926167Y-48997000D01*
X119276296Y-108372648D02*
X116597648Y-105694000D01*
X83058000Y-99060000D02*
X83058000Y-106594095D01*
X113869800Y-61087000D02*
X113859400Y-61097400D01*
X118650000Y-89948000D02*
X118872000Y-90170000D01*
X118872000Y-90170000D02*
X118872000Y-84804366D01*
X45889352Y-122458600D02*
X44419352Y-123928600D01*
X117867648Y-90678000D02*
X117867648Y-102611000D01*
X118375648Y-90170000D02*
X117867648Y-90678000D01*
X52779352Y-122426600D02*
X52741767Y-122426600D01*
X74222699Y-93621400D02*
X78326000Y-93621400D01*
X118872000Y-84804366D02*
X118872000Y-62432000D01*
X94206415Y-132058000D02*
X100247648Y-132058000D01*
X57452000Y-49694030D02*
X58149030Y-48997000D01*
X45873352Y-118854600D02*
X45889352Y-118870600D01*
X57452000Y-56413400D02*
X57452000Y-57477400D01*
X51778000Y-67706030D02*
X50661370Y-66589400D01*
X120897648Y-43228000D02*
X118327648Y-40658000D01*
X57452000Y-50825400D02*
X57452000Y-49694030D01*
X71599000Y-136452400D02*
X71628000Y-136423400D01*
X65479352Y-48004600D02*
X65479352Y-53592600D01*
X76184000Y-64770000D02*
X77470000Y-64770000D01*
X118872000Y-62432000D02*
X120897648Y-60406352D01*
X97507648Y-57912000D02*
X94332648Y-61087000D01*
X101854000Y-105694000D02*
X102880824Y-104667176D01*
X49530000Y-65805815D02*
X49530000Y-66589400D01*
X62633600Y-39773600D02*
X61923352Y-39063352D01*
X56081352Y-138567230D02*
X58196182Y-136452400D01*
X65423352Y-39678600D02*
X69842552Y-35259400D01*
X62738000Y-62763400D02*
X62738000Y-65303400D01*
X75460000Y-69380000D02*
X75460000Y-74769370D01*
X101605824Y-123474000D02*
X102027905Y-123474000D01*
X68070600Y-53592600D02*
X65479352Y-53592600D01*
X105167648Y-132809000D02*
X100998648Y-132809000D01*
X45889352Y-118870600D02*
X49731352Y-118870600D01*
X57452000Y-50825400D02*
X57452000Y-56413400D01*
X74660000Y-68580000D02*
X75460000Y-69380000D01*
X115373034Y-81305400D02*
X114071400Y-81305400D01*
X62965767Y-50036600D02*
X65479352Y-50036600D01*
X105697648Y-133339000D02*
X112851944Y-133339000D01*
X60466600Y-80842000D02*
X55904600Y-80842000D01*
X73660000Y-75438000D02*
X73660000Y-79280000D01*
X94694000Y-87074000D02*
X97568000Y-89948000D01*
X53828000Y-78765400D02*
X51778000Y-76715400D01*
X55904600Y-80842000D02*
X53828000Y-78765400D01*
X75460000Y-74769370D02*
X74791370Y-75438000D01*
X86787905Y-123474000D02*
X91422000Y-128108095D01*
X60546000Y-119021400D02*
X63624000Y-119021400D01*
X108026642Y-63119000D02*
X102819642Y-57912000D01*
X53440721Y-135926599D02*
X56081352Y-138567230D01*
X50661370Y-66589400D02*
X49530000Y-66589400D01*
X102027905Y-123474000D02*
X107689648Y-129135743D01*
X86440095Y-105694000D02*
X86614000Y-105694000D01*
X94234000Y-81280000D02*
X94694000Y-81740000D01*
X97568000Y-89948000D02*
X118650000Y-89948000D01*
X65328352Y-39773600D02*
X62633600Y-39773600D01*
X53066000Y-79527400D02*
X53828000Y-78765400D01*
X105697648Y-133339000D02*
X107689648Y-131347000D01*
X48260000Y-79527400D02*
X53066000Y-79527400D01*
X56184552Y-119021400D02*
X52779352Y-122426600D01*
X120897648Y-60406352D02*
X120897648Y-43228000D01*
X74660000Y-63246000D02*
X76184000Y-64770000D01*
X98944648Y-119009824D02*
X100330824Y-120396000D01*
X113681648Y-61959352D02*
X112522000Y-63119000D01*
X73660000Y-79280000D02*
X76679015Y-79280000D01*
X91422000Y-129273585D02*
X94206415Y-132058000D01*
X69033352Y-56210852D02*
X69033352Y-54417726D01*
X44419352Y-123928600D02*
X44419352Y-130982600D01*
X73004500Y-60182000D02*
X69033352Y-56210852D01*
X100330824Y-122199000D02*
X101605824Y-123474000D01*
X120217000Y-61087000D02*
X113869800Y-61087000D01*
X117872648Y-102616000D02*
X117872648Y-104419000D01*
X57452000Y-57477400D02*
X60198000Y-60223400D01*
X42619352Y-132782600D02*
X42619352Y-135126600D01*
X102880824Y-104667176D02*
X102880824Y-102616000D01*
X51778000Y-76715400D02*
X51778000Y-67706030D01*
X117872648Y-104419000D02*
X116597648Y-105694000D01*
X119657296Y-126533648D02*
X118112472Y-124988824D01*
X45873352Y-111721015D02*
X45873352Y-112266600D01*
X47763661Y-55624600D02*
X47763661Y-50544600D01*
X83704648Y-108429447D02*
X84299000Y-107835095D01*
X58196182Y-136452400D02*
X68326000Y-136452400D01*
X56601430Y-50544600D02*
X57452000Y-49694030D01*
X74791370Y-75438000D02*
X73660000Y-75438000D01*
X63624000Y-118207400D02*
X64516000Y-117315400D01*
X69033352Y-54417726D02*
X68139413Y-53523787D01*
X118112472Y-124988824D02*
X116597648Y-123474000D01*
X65423352Y-39678600D02*
X65328352Y-39773600D01*
X76679015Y-79280000D02*
X78320415Y-80921400D01*
X65479352Y-48004600D02*
X65479352Y-42416600D01*
X97507648Y-57912000D02*
X84720648Y-45125000D01*
X44419352Y-130982600D02*
X42619352Y-132782600D01*
X102819642Y-57912000D02*
X97507648Y-57912000D01*
X100330824Y-120396000D02*
X100330824Y-122199000D01*
X61923352Y-39063352D02*
X61923352Y-37773600D01*
X71596000Y-90994701D02*
X74222699Y-93621400D01*
X118126648Y-124974648D02*
X118112472Y-124988824D01*
X113681648Y-61274006D02*
X113681648Y-61959352D01*
X56081352Y-139698600D02*
X56081352Y-138567230D01*
X72591352Y-35259400D02*
X73406000Y-36074048D01*
X74660000Y-60182000D02*
X73004500Y-60182000D01*
X60546000Y-80921400D02*
X60466600Y-80842000D01*
X60198000Y-60223400D02*
X55112415Y-60223400D01*
X63624000Y-119021400D02*
X63624000Y-118207400D01*
X49731352Y-119416185D02*
X49731352Y-118870600D01*
X120897648Y-60406352D02*
X120217000Y-61087000D01*
X91422000Y-128108095D02*
X91422000Y-129273585D01*
X87889000Y-104419000D02*
X87889000Y-102616000D01*
X71596000Y-90994701D02*
X71596000Y-97090701D01*
X57452000Y-50825400D02*
X57452000Y-45237400D01*
X98944648Y-108429447D02*
X98944648Y-119009824D01*
X118872000Y-84804366D02*
X115373034Y-81305400D01*
X60546000Y-119021400D02*
X56184552Y-119021400D01*
D33*
%TO.N,+5V*%
X57680852Y-38681500D02*
X50908752Y-45453600D01*
X64463352Y-37773600D02*
X62713352Y-36023600D01*
X57680852Y-36023600D02*
X57680852Y-38681500D01*
X50908752Y-45453600D02*
X47699352Y-45453600D01*
X62713352Y-36023600D02*
X57680852Y-36023600D01*
%TO.N,~*%
X55319352Y-141476600D02*
X74238320Y-141476600D01*
X69596000Y-62728815D02*
X69596000Y-64008000D01*
X63479352Y-56612167D02*
X69596000Y-62728815D01*
X80211352Y-77109682D02*
X80203352Y-77117682D01*
D34*
X75184000Y-120038711D02*
X77456373Y-117766338D01*
D33*
X80211352Y-74420600D02*
X80280753Y-74351199D01*
X80203352Y-119948648D02*
X79875538Y-120276462D01*
X80211352Y-74573118D02*
X80211352Y-77109682D01*
X63479352Y-53592600D02*
X63479352Y-56612167D01*
D34*
X75184000Y-120167400D02*
X75293062Y-120276462D01*
D33*
X79957352Y-120194648D02*
X79875538Y-120276462D01*
D34*
X75184000Y-120167400D02*
X75184000Y-120038711D01*
X75293062Y-120276462D02*
X79875538Y-120276462D01*
D33*
X53541352Y-139698600D02*
X55319352Y-141476600D01*
X74238320Y-141476600D02*
X79957352Y-135757568D01*
X80203352Y-77117682D02*
X80203352Y-119948648D01*
D36*
X77216000Y-69342000D02*
X77216000Y-69596000D01*
D33*
X79957352Y-135757568D02*
X79957352Y-120194648D01*
X80280753Y-74351199D02*
X80280753Y-72660753D01*
X80280753Y-72660753D02*
X77216000Y-69596000D01*
D34*
X77456373Y-117766338D02*
X80099662Y-117766338D01*
%TD*%
%TA.AperFunction,Conductor*%
%TO.N,I2C_GND*%
G36*
X44393810Y-49319685D02*
G01*
X44439565Y-49372489D01*
X44449453Y-49429900D01*
X45079466Y-50059913D01*
X45069685Y-50061320D01*
X44938900Y-50121048D01*
X44830239Y-50215202D01*
X44752507Y-50336156D01*
X44728923Y-50416476D01*
X44097072Y-49784625D01*
X44038401Y-49868419D01*
X43938570Y-50082507D01*
X43938566Y-50082516D01*
X43877432Y-50310673D01*
X43877430Y-50310684D01*
X43856843Y-50545998D01*
X43856843Y-50546001D01*
X43877430Y-50781315D01*
X43877432Y-50781326D01*
X43938566Y-51009483D01*
X43938570Y-51009492D01*
X44038400Y-51223579D01*
X44038402Y-51223583D01*
X44097072Y-51307373D01*
X44097073Y-51307373D01*
X44728923Y-50675523D01*
X44752507Y-50755844D01*
X44830239Y-50876798D01*
X44938900Y-50970952D01*
X45069685Y-51030680D01*
X45079466Y-51032086D01*
X44450625Y-51660925D01*
X44527031Y-51714425D01*
X44570655Y-51769002D01*
X44577848Y-51838501D01*
X44546326Y-51900855D01*
X44527029Y-51917576D01*
X44450625Y-51971072D01*
X45079466Y-52599913D01*
X45069685Y-52601320D01*
X44938900Y-52661048D01*
X44830239Y-52755202D01*
X44752507Y-52876156D01*
X44728923Y-52956476D01*
X44097072Y-52324625D01*
X44038401Y-52408419D01*
X43938570Y-52622507D01*
X43938566Y-52622516D01*
X43877432Y-52850673D01*
X43877430Y-52850684D01*
X43856843Y-53085998D01*
X43856843Y-53086001D01*
X43877430Y-53321315D01*
X43877432Y-53321326D01*
X43938566Y-53549483D01*
X43938570Y-53549492D01*
X44038400Y-53763579D01*
X44038402Y-53763583D01*
X44097072Y-53847373D01*
X44097073Y-53847373D01*
X44728923Y-53215523D01*
X44752507Y-53295844D01*
X44830239Y-53416798D01*
X44938900Y-53510952D01*
X45069685Y-53570680D01*
X45079466Y-53572086D01*
X44450625Y-54200925D01*
X44527031Y-54254425D01*
X44570655Y-54309002D01*
X44577848Y-54378501D01*
X44546326Y-54440855D01*
X44527029Y-54457576D01*
X44450625Y-54511072D01*
X45079466Y-55139913D01*
X45069685Y-55141320D01*
X44938900Y-55201048D01*
X44830239Y-55295202D01*
X44752507Y-55416156D01*
X44728923Y-55496476D01*
X44097072Y-54864625D01*
X44038401Y-54948419D01*
X43938570Y-55162507D01*
X43938566Y-55162516D01*
X43877432Y-55390673D01*
X43877430Y-55390684D01*
X43856843Y-55625998D01*
X43856843Y-55626001D01*
X43877430Y-55861315D01*
X43877432Y-55861326D01*
X43938566Y-56089483D01*
X43938570Y-56089492D01*
X44038400Y-56303579D01*
X44038402Y-56303583D01*
X44097072Y-56387373D01*
X44097073Y-56387373D01*
X44728923Y-55755523D01*
X44752507Y-55835844D01*
X44830239Y-55956798D01*
X44938900Y-56050952D01*
X45069685Y-56110680D01*
X45079466Y-56112086D01*
X44446208Y-56745342D01*
X44435788Y-56797193D01*
X44387172Y-56847376D01*
X44365032Y-56857205D01*
X44292674Y-56881182D01*
X44292659Y-56881189D01*
X44259668Y-56901539D01*
X44194572Y-56920000D01*
X43251352Y-56920000D01*
X43184313Y-56900315D01*
X43138558Y-56847511D01*
X43127352Y-56796000D01*
X43127352Y-49424000D01*
X43147037Y-49356961D01*
X43199841Y-49311206D01*
X43251352Y-49300000D01*
X44326771Y-49300000D01*
X44393810Y-49319685D01*
G37*
%TD.AperFunction*%
%TA.AperFunction,Conductor*%
G36*
X47292507Y-55835844D02*
G01*
X47370239Y-55956798D01*
X47478900Y-56050952D01*
X47609685Y-56110680D01*
X47619466Y-56112086D01*
X46990625Y-56740925D01*
X46994498Y-56785193D01*
X46980731Y-56853693D01*
X46932116Y-56903876D01*
X46870970Y-56920000D01*
X46229428Y-56920000D01*
X46164332Y-56901539D01*
X46131340Y-56881189D01*
X46131335Y-56881187D01*
X46131334Y-56881186D01*
X46058966Y-56857205D01*
X46001522Y-56817433D01*
X45974699Y-56752917D01*
X45974585Y-56742137D01*
X45344533Y-56112086D01*
X45354315Y-56110680D01*
X45485100Y-56050952D01*
X45593761Y-55956798D01*
X45671493Y-55835844D01*
X45695076Y-55755524D01*
X46326925Y-56387373D01*
X46380425Y-56310968D01*
X46435002Y-56267344D01*
X46504501Y-56260151D01*
X46566855Y-56291673D01*
X46583576Y-56310969D01*
X46637073Y-56387372D01*
X47268922Y-55755523D01*
X47292507Y-55835844D01*
G37*
%TD.AperFunction*%
%TA.AperFunction,Conductor*%
G36*
X49928391Y-49319685D02*
G01*
X49974146Y-49372489D01*
X49985352Y-49424000D01*
X49985352Y-56796000D01*
X49965667Y-56863039D01*
X49912863Y-56908794D01*
X49861352Y-56920000D01*
X48633029Y-56920000D01*
X48565990Y-56900315D01*
X48520235Y-56847511D01*
X48509501Y-56785193D01*
X48513373Y-56740925D01*
X47884533Y-56112086D01*
X47894315Y-56110680D01*
X48025100Y-56050952D01*
X48133761Y-55956798D01*
X48211493Y-55835844D01*
X48235076Y-55755524D01*
X48866925Y-56387373D01*
X48866926Y-56387373D01*
X48925598Y-56303582D01*
X48925600Y-56303578D01*
X49025429Y-56089492D01*
X49025433Y-56089483D01*
X49086567Y-55861326D01*
X49086569Y-55861315D01*
X49107157Y-55626001D01*
X49107157Y-55625998D01*
X49086569Y-55390684D01*
X49086567Y-55390673D01*
X49025433Y-55162516D01*
X49025429Y-55162507D01*
X48925600Y-54948423D01*
X48925599Y-54948421D01*
X48866925Y-54864626D01*
X48866925Y-54864625D01*
X48235076Y-55496475D01*
X48211493Y-55416156D01*
X48133761Y-55295202D01*
X48025100Y-55201048D01*
X47894315Y-55141320D01*
X47884533Y-55139913D01*
X48513373Y-54511073D01*
X48436969Y-54457576D01*
X48393344Y-54402999D01*
X48386150Y-54333501D01*
X48417672Y-54271146D01*
X48436968Y-54254425D01*
X48513373Y-54200925D01*
X47884533Y-53572086D01*
X47894315Y-53570680D01*
X48025100Y-53510952D01*
X48133761Y-53416798D01*
X48211493Y-53295844D01*
X48235076Y-53215524D01*
X48866925Y-53847373D01*
X48866926Y-53847373D01*
X48925598Y-53763582D01*
X48925600Y-53763578D01*
X49025429Y-53549492D01*
X49025433Y-53549483D01*
X49086567Y-53321326D01*
X49086569Y-53321315D01*
X49107157Y-53086001D01*
X49107157Y-53085998D01*
X49086569Y-52850684D01*
X49086567Y-52850673D01*
X49025433Y-52622516D01*
X49025429Y-52622507D01*
X48925600Y-52408423D01*
X48925599Y-52408421D01*
X48866925Y-52324626D01*
X48866925Y-52324625D01*
X48235076Y-52956475D01*
X48211493Y-52876156D01*
X48133761Y-52755202D01*
X48025100Y-52661048D01*
X47894315Y-52601320D01*
X47884533Y-52599913D01*
X48513373Y-51971073D01*
X48436969Y-51917576D01*
X48393344Y-51862999D01*
X48386150Y-51793501D01*
X48417672Y-51731146D01*
X48436968Y-51714425D01*
X48513373Y-51660925D01*
X47884533Y-51032086D01*
X47894315Y-51030680D01*
X48025100Y-50970952D01*
X48133761Y-50876798D01*
X48211493Y-50755844D01*
X48235076Y-50675524D01*
X48866925Y-51307373D01*
X48866926Y-51307373D01*
X48925598Y-51223582D01*
X48925600Y-51223578D01*
X49025429Y-51009492D01*
X49025433Y-51009483D01*
X49086567Y-50781326D01*
X49086569Y-50781315D01*
X49107157Y-50546001D01*
X49107157Y-50545998D01*
X49086569Y-50310684D01*
X49086567Y-50310673D01*
X49025433Y-50082516D01*
X49025429Y-50082507D01*
X48925600Y-49868423D01*
X48925599Y-49868421D01*
X48866925Y-49784626D01*
X48866925Y-49784625D01*
X48235076Y-50416475D01*
X48211493Y-50336156D01*
X48133761Y-50215202D01*
X48025100Y-50121048D01*
X47894315Y-50061320D01*
X47884533Y-50059913D01*
X48514721Y-49429725D01*
X48527466Y-49366308D01*
X48576082Y-49316125D01*
X48637228Y-49300000D01*
X49861352Y-49300000D01*
X49928391Y-49319685D01*
G37*
%TD.AperFunction*%
%TA.AperFunction,Conductor*%
G36*
X47292507Y-53295844D02*
G01*
X47370239Y-53416798D01*
X47478900Y-53510952D01*
X47609685Y-53570680D01*
X47619466Y-53572086D01*
X46990625Y-54200925D01*
X47067031Y-54254425D01*
X47110655Y-54309002D01*
X47117848Y-54378501D01*
X47086326Y-54440855D01*
X47067029Y-54457576D01*
X46990625Y-54511072D01*
X47619466Y-55139913D01*
X47609685Y-55141320D01*
X47478900Y-55201048D01*
X47370239Y-55295202D01*
X47292507Y-55416156D01*
X47268923Y-55496476D01*
X46637072Y-54864625D01*
X46637072Y-54864626D01*
X46583574Y-54941030D01*
X46528998Y-54984655D01*
X46459499Y-54991849D01*
X46397144Y-54960326D01*
X46380424Y-54941030D01*
X46326925Y-54864626D01*
X46326925Y-54864625D01*
X45695076Y-55496475D01*
X45671493Y-55416156D01*
X45593761Y-55295202D01*
X45485100Y-55201048D01*
X45354315Y-55141320D01*
X45344533Y-55139913D01*
X45973373Y-54511073D01*
X45896969Y-54457576D01*
X45853344Y-54402999D01*
X45846150Y-54333501D01*
X45877672Y-54271146D01*
X45896968Y-54254425D01*
X45973373Y-54200925D01*
X45344533Y-53572086D01*
X45354315Y-53570680D01*
X45485100Y-53510952D01*
X45593761Y-53416798D01*
X45671493Y-53295844D01*
X45695076Y-53215524D01*
X46326925Y-53847373D01*
X46380425Y-53770968D01*
X46435002Y-53727344D01*
X46504501Y-53720151D01*
X46566855Y-53751673D01*
X46583576Y-53770969D01*
X46637073Y-53847372D01*
X47268922Y-53215523D01*
X47292507Y-53295844D01*
G37*
%TD.AperFunction*%
%TA.AperFunction,Conductor*%
G36*
X47292507Y-50755844D02*
G01*
X47370239Y-50876798D01*
X47478900Y-50970952D01*
X47609685Y-51030680D01*
X47619466Y-51032086D01*
X46990625Y-51660925D01*
X47067031Y-51714425D01*
X47110655Y-51769002D01*
X47117848Y-51838501D01*
X47086326Y-51900855D01*
X47067029Y-51917576D01*
X46990625Y-51971072D01*
X47619466Y-52599913D01*
X47609685Y-52601320D01*
X47478900Y-52661048D01*
X47370239Y-52755202D01*
X47292507Y-52876156D01*
X47268923Y-52956476D01*
X46637072Y-52324625D01*
X46637072Y-52324626D01*
X46583574Y-52401030D01*
X46528998Y-52444655D01*
X46459499Y-52451849D01*
X46397144Y-52420326D01*
X46380424Y-52401030D01*
X46326925Y-52324626D01*
X46326925Y-52324625D01*
X45695076Y-52956475D01*
X45671493Y-52876156D01*
X45593761Y-52755202D01*
X45485100Y-52661048D01*
X45354315Y-52601320D01*
X45344533Y-52599913D01*
X45973373Y-51971073D01*
X45896969Y-51917576D01*
X45853344Y-51862999D01*
X45846150Y-51793501D01*
X45877672Y-51731146D01*
X45896968Y-51714425D01*
X45973373Y-51660925D01*
X45344533Y-51032086D01*
X45354315Y-51030680D01*
X45485100Y-50970952D01*
X45593761Y-50876798D01*
X45671493Y-50755844D01*
X45695076Y-50675524D01*
X46326925Y-51307373D01*
X46380425Y-51230968D01*
X46435002Y-51187344D01*
X46504501Y-51180151D01*
X46566855Y-51211673D01*
X46583576Y-51230969D01*
X46637073Y-51307372D01*
X47268922Y-50675523D01*
X47292507Y-50755844D01*
G37*
%TD.AperFunction*%
%TA.AperFunction,Conductor*%
G36*
X46933810Y-49319685D02*
G01*
X46979565Y-49372489D01*
X46989453Y-49429900D01*
X47619466Y-50059913D01*
X47609685Y-50061320D01*
X47478900Y-50121048D01*
X47370239Y-50215202D01*
X47292507Y-50336156D01*
X47268923Y-50416476D01*
X46637072Y-49784625D01*
X46637072Y-49784626D01*
X46583574Y-49861030D01*
X46528998Y-49904655D01*
X46459499Y-49911849D01*
X46397144Y-49880326D01*
X46380424Y-49861030D01*
X46326925Y-49784626D01*
X46326925Y-49784625D01*
X45695076Y-50416475D01*
X45671493Y-50336156D01*
X45593761Y-50215202D01*
X45485100Y-50121048D01*
X45354315Y-50061320D01*
X45344533Y-50059913D01*
X45974721Y-49429725D01*
X45987466Y-49366308D01*
X46036082Y-49316125D01*
X46097228Y-49300000D01*
X46866771Y-49300000D01*
X46933810Y-49319685D01*
G37*
%TD.AperFunction*%
%TD*%
M02*
