%TF.GenerationSoftware,KiCad,Pcbnew,7.0.9*%
%TF.CreationDate,2023-11-30T22:47:02+01:00*%
%TF.ProjectId,euroPi-kicad,6575726f-5069-42d6-9b69-6361642e6b69,rev?*%
%TF.SameCoordinates,Original*%
%TF.FileFunction,Legend,Bot*%
%TF.FilePolarity,Positive*%
%FSLAX46Y46*%
G04 Gerber Fmt 4.6, Leading zero omitted, Abs format (unit mm)*
G04 Created by KiCad (PCBNEW 7.0.9) date 2023-11-30 22:47:02*
%MOMM*%
%LPD*%
G01*
G04 APERTURE LIST*
%ADD10C,0.300000*%
%ADD11C,0.150000*%
%ADD12C,0.100000*%
%ADD13C,0.120000*%
G04 APERTURE END LIST*
D10*
X81280000Y-136915000D02*
X121716800Y-136915000D01*
X162560000Y-25665000D02*
X162560000Y-153670000D01*
X121920000Y-25665000D02*
X121920000Y-153670000D01*
X81381600Y-129179000D02*
X121818400Y-129179000D01*
X122110500Y-76835000D02*
X162623500Y-76835000D01*
X121920000Y-96266000D02*
X162433000Y-96266000D01*
X162560000Y-136915000D02*
X202996800Y-136915000D01*
D11*
X148620952Y-59600866D02*
X148192381Y-59600866D01*
X148620952Y-59362771D02*
X148049524Y-59362771D01*
X147906667Y-59886580D02*
X147954286Y-59934200D01*
X147954286Y-59934200D02*
X148097143Y-59981819D01*
X148097143Y-59981819D02*
X148192381Y-59981819D01*
X148192381Y-59981819D02*
X148335238Y-59934200D01*
X148335238Y-59934200D02*
X148430476Y-59838961D01*
X148430476Y-59838961D02*
X148478095Y-59743723D01*
X148478095Y-59743723D02*
X148525714Y-59553247D01*
X148525714Y-59553247D02*
X148525714Y-59410390D01*
X148525714Y-59410390D02*
X148478095Y-59219914D01*
X148478095Y-59219914D02*
X148430476Y-59124676D01*
X148430476Y-59124676D02*
X148335238Y-59029438D01*
X148335238Y-59029438D02*
X148192381Y-58981819D01*
X148192381Y-58981819D02*
X148097143Y-58981819D01*
X148097143Y-58981819D02*
X147954286Y-59029438D01*
X147954286Y-59029438D02*
X147906667Y-59077057D01*
X146954286Y-59315152D02*
X146954286Y-59981819D01*
X147287619Y-59315152D02*
X147287619Y-59838961D01*
X147287619Y-59838961D02*
X147335238Y-59934200D01*
X147335238Y-59934200D02*
X147430476Y-59981819D01*
X146763810Y-59315152D02*
X147382857Y-59315152D01*
X147382857Y-59315152D02*
X147478095Y-59362771D01*
X147478095Y-59362771D02*
X147525714Y-59458009D01*
X145287619Y-59458009D02*
X145620952Y-59458009D01*
X145620952Y-59981819D02*
X145620952Y-58981819D01*
X145620952Y-58981819D02*
X145144762Y-58981819D01*
X144192381Y-59981819D02*
X144525714Y-59505628D01*
X144763809Y-59981819D02*
X144763809Y-58981819D01*
X144763809Y-58981819D02*
X144382857Y-58981819D01*
X144382857Y-58981819D02*
X144287619Y-59029438D01*
X144287619Y-59029438D02*
X144240000Y-59077057D01*
X144240000Y-59077057D02*
X144192381Y-59172295D01*
X144192381Y-59172295D02*
X144192381Y-59315152D01*
X144192381Y-59315152D02*
X144240000Y-59410390D01*
X144240000Y-59410390D02*
X144287619Y-59458009D01*
X144287619Y-59458009D02*
X144382857Y-59505628D01*
X144382857Y-59505628D02*
X144763809Y-59505628D01*
X143573333Y-58981819D02*
X143382857Y-58981819D01*
X143382857Y-58981819D02*
X143287619Y-59029438D01*
X143287619Y-59029438D02*
X143192381Y-59124676D01*
X143192381Y-59124676D02*
X143144762Y-59315152D01*
X143144762Y-59315152D02*
X143144762Y-59648485D01*
X143144762Y-59648485D02*
X143192381Y-59838961D01*
X143192381Y-59838961D02*
X143287619Y-59934200D01*
X143287619Y-59934200D02*
X143382857Y-59981819D01*
X143382857Y-59981819D02*
X143573333Y-59981819D01*
X143573333Y-59981819D02*
X143668571Y-59934200D01*
X143668571Y-59934200D02*
X143763809Y-59838961D01*
X143763809Y-59838961D02*
X143811428Y-59648485D01*
X143811428Y-59648485D02*
X143811428Y-59315152D01*
X143811428Y-59315152D02*
X143763809Y-59124676D01*
X143763809Y-59124676D02*
X143668571Y-59029438D01*
X143668571Y-59029438D02*
X143573333Y-58981819D01*
X142716190Y-59981819D02*
X142716190Y-58981819D01*
X142716190Y-58981819D02*
X142144762Y-59981819D01*
X142144762Y-59981819D02*
X142144762Y-58981819D01*
X141811428Y-58981819D02*
X141240000Y-58981819D01*
X141525714Y-59981819D02*
X141525714Y-58981819D01*
X140144761Y-59981819D02*
X140144761Y-58981819D01*
X140144761Y-58981819D02*
X139763809Y-58981819D01*
X139763809Y-58981819D02*
X139668571Y-59029438D01*
X139668571Y-59029438D02*
X139620952Y-59077057D01*
X139620952Y-59077057D02*
X139573333Y-59172295D01*
X139573333Y-59172295D02*
X139573333Y-59315152D01*
X139573333Y-59315152D02*
X139620952Y-59410390D01*
X139620952Y-59410390D02*
X139668571Y-59458009D01*
X139668571Y-59458009D02*
X139763809Y-59505628D01*
X139763809Y-59505628D02*
X140144761Y-59505628D01*
X139192380Y-59696104D02*
X138716190Y-59696104D01*
X139287618Y-59981819D02*
X138954285Y-58981819D01*
X138954285Y-58981819D02*
X138620952Y-59981819D01*
X138287618Y-59981819D02*
X138287618Y-58981819D01*
X138287618Y-58981819D02*
X137716190Y-59981819D01*
X137716190Y-59981819D02*
X137716190Y-58981819D01*
X137239999Y-59458009D02*
X136906666Y-59458009D01*
X136763809Y-59981819D02*
X137239999Y-59981819D01*
X137239999Y-59981819D02*
X137239999Y-58981819D01*
X137239999Y-58981819D02*
X136763809Y-58981819D01*
X135859047Y-59981819D02*
X136335237Y-59981819D01*
X136335237Y-59981819D02*
X136335237Y-58981819D01*
X145930476Y-61068009D02*
X145787619Y-61115628D01*
X145787619Y-61115628D02*
X145740000Y-61163247D01*
X145740000Y-61163247D02*
X145692381Y-61258485D01*
X145692381Y-61258485D02*
X145692381Y-61401342D01*
X145692381Y-61401342D02*
X145740000Y-61496580D01*
X145740000Y-61496580D02*
X145787619Y-61544200D01*
X145787619Y-61544200D02*
X145882857Y-61591819D01*
X145882857Y-61591819D02*
X146263809Y-61591819D01*
X146263809Y-61591819D02*
X146263809Y-60591819D01*
X146263809Y-60591819D02*
X145930476Y-60591819D01*
X145930476Y-60591819D02*
X145835238Y-60639438D01*
X145835238Y-60639438D02*
X145787619Y-60687057D01*
X145787619Y-60687057D02*
X145740000Y-60782295D01*
X145740000Y-60782295D02*
X145740000Y-60877533D01*
X145740000Y-60877533D02*
X145787619Y-60972771D01*
X145787619Y-60972771D02*
X145835238Y-61020390D01*
X145835238Y-61020390D02*
X145930476Y-61068009D01*
X145930476Y-61068009D02*
X146263809Y-61068009D01*
X145311428Y-61306104D02*
X144835238Y-61306104D01*
X145406666Y-61591819D02*
X145073333Y-60591819D01*
X145073333Y-60591819D02*
X144740000Y-61591819D01*
X143835238Y-61496580D02*
X143882857Y-61544200D01*
X143882857Y-61544200D02*
X144025714Y-61591819D01*
X144025714Y-61591819D02*
X144120952Y-61591819D01*
X144120952Y-61591819D02*
X144263809Y-61544200D01*
X144263809Y-61544200D02*
X144359047Y-61448961D01*
X144359047Y-61448961D02*
X144406666Y-61353723D01*
X144406666Y-61353723D02*
X144454285Y-61163247D01*
X144454285Y-61163247D02*
X144454285Y-61020390D01*
X144454285Y-61020390D02*
X144406666Y-60829914D01*
X144406666Y-60829914D02*
X144359047Y-60734676D01*
X144359047Y-60734676D02*
X144263809Y-60639438D01*
X144263809Y-60639438D02*
X144120952Y-60591819D01*
X144120952Y-60591819D02*
X144025714Y-60591819D01*
X144025714Y-60591819D02*
X143882857Y-60639438D01*
X143882857Y-60639438D02*
X143835238Y-60687057D01*
X143406666Y-61591819D02*
X143406666Y-60591819D01*
X142835238Y-61591819D02*
X143263809Y-61020390D01*
X142835238Y-60591819D02*
X143406666Y-61163247D01*
X140978094Y-60925152D02*
X140739999Y-61591819D01*
X140739999Y-61591819D02*
X140501904Y-60925152D01*
X139597142Y-61591819D02*
X140168570Y-61591819D01*
X139882856Y-61591819D02*
X139882856Y-60591819D01*
X139882856Y-60591819D02*
X139978094Y-60734676D01*
X139978094Y-60734676D02*
X140073332Y-60829914D01*
X140073332Y-60829914D02*
X140168570Y-60877533D01*
X139168570Y-61496580D02*
X139120951Y-61544200D01*
X139120951Y-61544200D02*
X139168570Y-61591819D01*
X139168570Y-61591819D02*
X139216189Y-61544200D01*
X139216189Y-61544200D02*
X139168570Y-61496580D01*
X139168570Y-61496580D02*
X139168570Y-61591819D01*
X138501904Y-60591819D02*
X138406666Y-60591819D01*
X138406666Y-60591819D02*
X138311428Y-60639438D01*
X138311428Y-60639438D02*
X138263809Y-60687057D01*
X138263809Y-60687057D02*
X138216190Y-60782295D01*
X138216190Y-60782295D02*
X138168571Y-60972771D01*
X138168571Y-60972771D02*
X138168571Y-61210866D01*
X138168571Y-61210866D02*
X138216190Y-61401342D01*
X138216190Y-61401342D02*
X138263809Y-61496580D01*
X138263809Y-61496580D02*
X138311428Y-61544200D01*
X138311428Y-61544200D02*
X138406666Y-61591819D01*
X138406666Y-61591819D02*
X138501904Y-61591819D01*
X138501904Y-61591819D02*
X138597142Y-61544200D01*
X138597142Y-61544200D02*
X138644761Y-61496580D01*
X138644761Y-61496580D02*
X138692380Y-61401342D01*
X138692380Y-61401342D02*
X138739999Y-61210866D01*
X138739999Y-61210866D02*
X138739999Y-60972771D01*
X138739999Y-60972771D02*
X138692380Y-60782295D01*
X138692380Y-60782295D02*
X138644761Y-60687057D01*
X138644761Y-60687057D02*
X138597142Y-60639438D01*
X138597142Y-60639438D02*
X138501904Y-60591819D01*
X106385713Y-63410866D02*
X105957142Y-63410866D01*
X106385713Y-63172771D02*
X105814285Y-63172771D01*
X105671428Y-63696580D02*
X105719047Y-63744200D01*
X105719047Y-63744200D02*
X105861904Y-63791819D01*
X105861904Y-63791819D02*
X105957142Y-63791819D01*
X105957142Y-63791819D02*
X106099999Y-63744200D01*
X106099999Y-63744200D02*
X106195237Y-63648961D01*
X106195237Y-63648961D02*
X106242856Y-63553723D01*
X106242856Y-63553723D02*
X106290475Y-63363247D01*
X106290475Y-63363247D02*
X106290475Y-63220390D01*
X106290475Y-63220390D02*
X106242856Y-63029914D01*
X106242856Y-63029914D02*
X106195237Y-62934676D01*
X106195237Y-62934676D02*
X106099999Y-62839438D01*
X106099999Y-62839438D02*
X105957142Y-62791819D01*
X105957142Y-62791819D02*
X105861904Y-62791819D01*
X105861904Y-62791819D02*
X105719047Y-62839438D01*
X105719047Y-62839438D02*
X105671428Y-62887057D01*
X104719047Y-63125152D02*
X104719047Y-63791819D01*
X105052380Y-63125152D02*
X105052380Y-63648961D01*
X105052380Y-63648961D02*
X105099999Y-63744200D01*
X105099999Y-63744200D02*
X105195237Y-63791819D01*
X104528571Y-63125152D02*
X105147618Y-63125152D01*
X105147618Y-63125152D02*
X105242856Y-63172771D01*
X105242856Y-63172771D02*
X105290475Y-63268009D01*
X103385713Y-62791819D02*
X103385713Y-63601342D01*
X103385713Y-63601342D02*
X103338094Y-63696580D01*
X103338094Y-63696580D02*
X103290475Y-63744200D01*
X103290475Y-63744200D02*
X103195237Y-63791819D01*
X103195237Y-63791819D02*
X103004761Y-63791819D01*
X103004761Y-63791819D02*
X102909523Y-63744200D01*
X102909523Y-63744200D02*
X102861904Y-63696580D01*
X102861904Y-63696580D02*
X102814285Y-63601342D01*
X102814285Y-63601342D02*
X102814285Y-62791819D01*
X102338094Y-63791819D02*
X102338094Y-62791819D01*
X101099999Y-63791819D02*
X101099999Y-62791819D01*
X101099999Y-62791819D02*
X100719047Y-62791819D01*
X100719047Y-62791819D02*
X100623809Y-62839438D01*
X100623809Y-62839438D02*
X100576190Y-62887057D01*
X100576190Y-62887057D02*
X100528571Y-62982295D01*
X100528571Y-62982295D02*
X100528571Y-63125152D01*
X100528571Y-63125152D02*
X100576190Y-63220390D01*
X100576190Y-63220390D02*
X100623809Y-63268009D01*
X100623809Y-63268009D02*
X100719047Y-63315628D01*
X100719047Y-63315628D02*
X101099999Y-63315628D01*
X100147618Y-63506104D02*
X99671428Y-63506104D01*
X100242856Y-63791819D02*
X99909523Y-62791819D01*
X99909523Y-62791819D02*
X99576190Y-63791819D01*
X99242856Y-63791819D02*
X99242856Y-62791819D01*
X99242856Y-62791819D02*
X98671428Y-63791819D01*
X98671428Y-63791819D02*
X98671428Y-62791819D01*
X98195237Y-63268009D02*
X97861904Y-63268009D01*
X97719047Y-63791819D02*
X98195237Y-63791819D01*
X98195237Y-63791819D02*
X98195237Y-62791819D01*
X98195237Y-62791819D02*
X97719047Y-62791819D01*
X96814285Y-63791819D02*
X97290475Y-63791819D01*
X97290475Y-63791819D02*
X97290475Y-62791819D01*
X105290476Y-64878009D02*
X105147619Y-64925628D01*
X105147619Y-64925628D02*
X105100000Y-64973247D01*
X105100000Y-64973247D02*
X105052381Y-65068485D01*
X105052381Y-65068485D02*
X105052381Y-65211342D01*
X105052381Y-65211342D02*
X105100000Y-65306580D01*
X105100000Y-65306580D02*
X105147619Y-65354200D01*
X105147619Y-65354200D02*
X105242857Y-65401819D01*
X105242857Y-65401819D02*
X105623809Y-65401819D01*
X105623809Y-65401819D02*
X105623809Y-64401819D01*
X105623809Y-64401819D02*
X105290476Y-64401819D01*
X105290476Y-64401819D02*
X105195238Y-64449438D01*
X105195238Y-64449438D02*
X105147619Y-64497057D01*
X105147619Y-64497057D02*
X105100000Y-64592295D01*
X105100000Y-64592295D02*
X105100000Y-64687533D01*
X105100000Y-64687533D02*
X105147619Y-64782771D01*
X105147619Y-64782771D02*
X105195238Y-64830390D01*
X105195238Y-64830390D02*
X105290476Y-64878009D01*
X105290476Y-64878009D02*
X105623809Y-64878009D01*
X104671428Y-65116104D02*
X104195238Y-65116104D01*
X104766666Y-65401819D02*
X104433333Y-64401819D01*
X104433333Y-64401819D02*
X104100000Y-65401819D01*
X103195238Y-65306580D02*
X103242857Y-65354200D01*
X103242857Y-65354200D02*
X103385714Y-65401819D01*
X103385714Y-65401819D02*
X103480952Y-65401819D01*
X103480952Y-65401819D02*
X103623809Y-65354200D01*
X103623809Y-65354200D02*
X103719047Y-65258961D01*
X103719047Y-65258961D02*
X103766666Y-65163723D01*
X103766666Y-65163723D02*
X103814285Y-64973247D01*
X103814285Y-64973247D02*
X103814285Y-64830390D01*
X103814285Y-64830390D02*
X103766666Y-64639914D01*
X103766666Y-64639914D02*
X103719047Y-64544676D01*
X103719047Y-64544676D02*
X103623809Y-64449438D01*
X103623809Y-64449438D02*
X103480952Y-64401819D01*
X103480952Y-64401819D02*
X103385714Y-64401819D01*
X103385714Y-64401819D02*
X103242857Y-64449438D01*
X103242857Y-64449438D02*
X103195238Y-64497057D01*
X102766666Y-65401819D02*
X102766666Y-64401819D01*
X102195238Y-65401819D02*
X102623809Y-64830390D01*
X102195238Y-64401819D02*
X102766666Y-64973247D01*
X100338094Y-64735152D02*
X100099999Y-65401819D01*
X100099999Y-65401819D02*
X99861904Y-64735152D01*
X98957142Y-65401819D02*
X99528570Y-65401819D01*
X99242856Y-65401819D02*
X99242856Y-64401819D01*
X99242856Y-64401819D02*
X99338094Y-64544676D01*
X99338094Y-64544676D02*
X99433332Y-64639914D01*
X99433332Y-64639914D02*
X99528570Y-64687533D01*
X98528570Y-65306580D02*
X98480951Y-65354200D01*
X98480951Y-65354200D02*
X98528570Y-65401819D01*
X98528570Y-65401819D02*
X98576189Y-65354200D01*
X98576189Y-65354200D02*
X98528570Y-65306580D01*
X98528570Y-65306580D02*
X98528570Y-65401819D01*
X97861904Y-64401819D02*
X97766666Y-64401819D01*
X97766666Y-64401819D02*
X97671428Y-64449438D01*
X97671428Y-64449438D02*
X97623809Y-64497057D01*
X97623809Y-64497057D02*
X97576190Y-64592295D01*
X97576190Y-64592295D02*
X97528571Y-64782771D01*
X97528571Y-64782771D02*
X97528571Y-65020866D01*
X97528571Y-65020866D02*
X97576190Y-65211342D01*
X97576190Y-65211342D02*
X97623809Y-65306580D01*
X97623809Y-65306580D02*
X97671428Y-65354200D01*
X97671428Y-65354200D02*
X97766666Y-65401819D01*
X97766666Y-65401819D02*
X97861904Y-65401819D01*
X97861904Y-65401819D02*
X97957142Y-65354200D01*
X97957142Y-65354200D02*
X98004761Y-65306580D01*
X98004761Y-65306580D02*
X98052380Y-65211342D01*
X98052380Y-65211342D02*
X98099999Y-65020866D01*
X98099999Y-65020866D02*
X98099999Y-64782771D01*
X98099999Y-64782771D02*
X98052380Y-64592295D01*
X98052380Y-64592295D02*
X98004761Y-64497057D01*
X98004761Y-64497057D02*
X97957142Y-64449438D01*
X97957142Y-64449438D02*
X97861904Y-64401819D01*
X193745713Y-48814866D02*
X193317142Y-48814866D01*
X193745713Y-48576771D02*
X193174285Y-48576771D01*
X193031428Y-49100580D02*
X193079047Y-49148200D01*
X193079047Y-49148200D02*
X193221904Y-49195819D01*
X193221904Y-49195819D02*
X193317142Y-49195819D01*
X193317142Y-49195819D02*
X193459999Y-49148200D01*
X193459999Y-49148200D02*
X193555237Y-49052961D01*
X193555237Y-49052961D02*
X193602856Y-48957723D01*
X193602856Y-48957723D02*
X193650475Y-48767247D01*
X193650475Y-48767247D02*
X193650475Y-48624390D01*
X193650475Y-48624390D02*
X193602856Y-48433914D01*
X193602856Y-48433914D02*
X193555237Y-48338676D01*
X193555237Y-48338676D02*
X193459999Y-48243438D01*
X193459999Y-48243438D02*
X193317142Y-48195819D01*
X193317142Y-48195819D02*
X193221904Y-48195819D01*
X193221904Y-48195819D02*
X193079047Y-48243438D01*
X193079047Y-48243438D02*
X193031428Y-48291057D01*
X192079047Y-48529152D02*
X192079047Y-49195819D01*
X192412380Y-48529152D02*
X192412380Y-49052961D01*
X192412380Y-49052961D02*
X192459999Y-49148200D01*
X192459999Y-49148200D02*
X192555237Y-49195819D01*
X191888571Y-48529152D02*
X192507618Y-48529152D01*
X192507618Y-48529152D02*
X192602856Y-48576771D01*
X192602856Y-48576771D02*
X192650475Y-48672009D01*
X190745713Y-49195819D02*
X190745713Y-48195819D01*
X190745713Y-48195819D02*
X190412380Y-48910104D01*
X190412380Y-48910104D02*
X190079047Y-48195819D01*
X190079047Y-48195819D02*
X190079047Y-49195819D01*
X189650475Y-48910104D02*
X189174285Y-48910104D01*
X189745713Y-49195819D02*
X189412380Y-48195819D01*
X189412380Y-48195819D02*
X189079047Y-49195819D01*
X188745713Y-49195819D02*
X188745713Y-48195819D01*
X188269523Y-49195819D02*
X188269523Y-48195819D01*
X188269523Y-48195819D02*
X187698095Y-49195819D01*
X187698095Y-49195819D02*
X187698095Y-48195819D01*
X186459999Y-49195819D02*
X186459999Y-48195819D01*
X186459999Y-48195819D02*
X186079047Y-48195819D01*
X186079047Y-48195819D02*
X185983809Y-48243438D01*
X185983809Y-48243438D02*
X185936190Y-48291057D01*
X185936190Y-48291057D02*
X185888571Y-48386295D01*
X185888571Y-48386295D02*
X185888571Y-48529152D01*
X185888571Y-48529152D02*
X185936190Y-48624390D01*
X185936190Y-48624390D02*
X185983809Y-48672009D01*
X185983809Y-48672009D02*
X186079047Y-48719628D01*
X186079047Y-48719628D02*
X186459999Y-48719628D01*
X185507618Y-48910104D02*
X185031428Y-48910104D01*
X185602856Y-49195819D02*
X185269523Y-48195819D01*
X185269523Y-48195819D02*
X184936190Y-49195819D01*
X184602856Y-49195819D02*
X184602856Y-48195819D01*
X184602856Y-48195819D02*
X184031428Y-49195819D01*
X184031428Y-49195819D02*
X184031428Y-48195819D01*
X183555237Y-48672009D02*
X183221904Y-48672009D01*
X183079047Y-49195819D02*
X183555237Y-49195819D01*
X183555237Y-49195819D02*
X183555237Y-48195819D01*
X183555237Y-48195819D02*
X183079047Y-48195819D01*
X182174285Y-49195819D02*
X182650475Y-49195819D01*
X182650475Y-49195819D02*
X182650475Y-48195819D01*
X191650476Y-50282009D02*
X191507619Y-50329628D01*
X191507619Y-50329628D02*
X191460000Y-50377247D01*
X191460000Y-50377247D02*
X191412381Y-50472485D01*
X191412381Y-50472485D02*
X191412381Y-50615342D01*
X191412381Y-50615342D02*
X191460000Y-50710580D01*
X191460000Y-50710580D02*
X191507619Y-50758200D01*
X191507619Y-50758200D02*
X191602857Y-50805819D01*
X191602857Y-50805819D02*
X191983809Y-50805819D01*
X191983809Y-50805819D02*
X191983809Y-49805819D01*
X191983809Y-49805819D02*
X191650476Y-49805819D01*
X191650476Y-49805819D02*
X191555238Y-49853438D01*
X191555238Y-49853438D02*
X191507619Y-49901057D01*
X191507619Y-49901057D02*
X191460000Y-49996295D01*
X191460000Y-49996295D02*
X191460000Y-50091533D01*
X191460000Y-50091533D02*
X191507619Y-50186771D01*
X191507619Y-50186771D02*
X191555238Y-50234390D01*
X191555238Y-50234390D02*
X191650476Y-50282009D01*
X191650476Y-50282009D02*
X191983809Y-50282009D01*
X191031428Y-50520104D02*
X190555238Y-50520104D01*
X191126666Y-50805819D02*
X190793333Y-49805819D01*
X190793333Y-49805819D02*
X190460000Y-50805819D01*
X189555238Y-50710580D02*
X189602857Y-50758200D01*
X189602857Y-50758200D02*
X189745714Y-50805819D01*
X189745714Y-50805819D02*
X189840952Y-50805819D01*
X189840952Y-50805819D02*
X189983809Y-50758200D01*
X189983809Y-50758200D02*
X190079047Y-50662961D01*
X190079047Y-50662961D02*
X190126666Y-50567723D01*
X190126666Y-50567723D02*
X190174285Y-50377247D01*
X190174285Y-50377247D02*
X190174285Y-50234390D01*
X190174285Y-50234390D02*
X190126666Y-50043914D01*
X190126666Y-50043914D02*
X190079047Y-49948676D01*
X190079047Y-49948676D02*
X189983809Y-49853438D01*
X189983809Y-49853438D02*
X189840952Y-49805819D01*
X189840952Y-49805819D02*
X189745714Y-49805819D01*
X189745714Y-49805819D02*
X189602857Y-49853438D01*
X189602857Y-49853438D02*
X189555238Y-49901057D01*
X189126666Y-50805819D02*
X189126666Y-49805819D01*
X188555238Y-50805819D02*
X188983809Y-50234390D01*
X188555238Y-49805819D02*
X189126666Y-50377247D01*
X186698094Y-50139152D02*
X186459999Y-50805819D01*
X186459999Y-50805819D02*
X186221904Y-50139152D01*
X185317142Y-50805819D02*
X185888570Y-50805819D01*
X185602856Y-50805819D02*
X185602856Y-49805819D01*
X185602856Y-49805819D02*
X185698094Y-49948676D01*
X185698094Y-49948676D02*
X185793332Y-50043914D01*
X185793332Y-50043914D02*
X185888570Y-50091533D01*
X184888570Y-50710580D02*
X184840951Y-50758200D01*
X184840951Y-50758200D02*
X184888570Y-50805819D01*
X184888570Y-50805819D02*
X184936189Y-50758200D01*
X184936189Y-50758200D02*
X184888570Y-50710580D01*
X184888570Y-50710580D02*
X184888570Y-50805819D01*
X184221904Y-49805819D02*
X184126666Y-49805819D01*
X184126666Y-49805819D02*
X184031428Y-49853438D01*
X184031428Y-49853438D02*
X183983809Y-49901057D01*
X183983809Y-49901057D02*
X183936190Y-49996295D01*
X183936190Y-49996295D02*
X183888571Y-50186771D01*
X183888571Y-50186771D02*
X183888571Y-50424866D01*
X183888571Y-50424866D02*
X183936190Y-50615342D01*
X183936190Y-50615342D02*
X183983809Y-50710580D01*
X183983809Y-50710580D02*
X184031428Y-50758200D01*
X184031428Y-50758200D02*
X184126666Y-50805819D01*
X184126666Y-50805819D02*
X184221904Y-50805819D01*
X184221904Y-50805819D02*
X184317142Y-50758200D01*
X184317142Y-50758200D02*
X184364761Y-50710580D01*
X184364761Y-50710580D02*
X184412380Y-50615342D01*
X184412380Y-50615342D02*
X184459999Y-50424866D01*
X184459999Y-50424866D02*
X184459999Y-50186771D01*
X184459999Y-50186771D02*
X184412380Y-49996295D01*
X184412380Y-49996295D02*
X184364761Y-49901057D01*
X184364761Y-49901057D02*
X184317142Y-49853438D01*
X184317142Y-49853438D02*
X184221904Y-49805819D01*
X108874875Y-38695819D02*
X108874875Y-39410104D01*
X108874875Y-39410104D02*
X108922494Y-39552961D01*
X108922494Y-39552961D02*
X109017732Y-39648200D01*
X109017732Y-39648200D02*
X109160589Y-39695819D01*
X109160589Y-39695819D02*
X109255827Y-39695819D01*
X107874875Y-39695819D02*
X108446303Y-39695819D01*
X108160589Y-39695819D02*
X108160589Y-38695819D01*
X108160589Y-38695819D02*
X108255827Y-38838676D01*
X108255827Y-38838676D02*
X108351065Y-38933914D01*
X108351065Y-38933914D02*
X108446303Y-38981533D01*
X107017732Y-39029152D02*
X107017732Y-39695819D01*
X107255827Y-38648200D02*
X107493922Y-39362485D01*
X107493922Y-39362485D02*
X106874875Y-39362485D01*
D12*
X111617580Y-43154972D02*
X111617580Y-42583544D01*
X110617580Y-42869258D02*
X111617580Y-42869258D01*
X110617580Y-42250210D02*
X111617580Y-42250210D01*
X111617580Y-42250210D02*
X111617580Y-41869258D01*
X111617580Y-41869258D02*
X111569961Y-41774020D01*
X111569961Y-41774020D02*
X111522342Y-41726401D01*
X111522342Y-41726401D02*
X111427104Y-41678782D01*
X111427104Y-41678782D02*
X111284247Y-41678782D01*
X111284247Y-41678782D02*
X111189009Y-41726401D01*
X111189009Y-41726401D02*
X111141390Y-41774020D01*
X111141390Y-41774020D02*
X111093771Y-41869258D01*
X111093771Y-41869258D02*
X111093771Y-42250210D01*
X110617580Y-41250210D02*
X111617580Y-41250210D01*
X111141390Y-41250210D02*
X111141390Y-40678782D01*
X110617580Y-40678782D02*
X111617580Y-40678782D01*
X114256496Y-50038228D02*
X114285068Y-50066800D01*
X114285068Y-50066800D02*
X114370782Y-50095371D01*
X114370782Y-50095371D02*
X114427925Y-50095371D01*
X114427925Y-50095371D02*
X114513639Y-50066800D01*
X114513639Y-50066800D02*
X114570782Y-50009657D01*
X114570782Y-50009657D02*
X114599353Y-49952514D01*
X114599353Y-49952514D02*
X114627925Y-49838228D01*
X114627925Y-49838228D02*
X114627925Y-49752514D01*
X114627925Y-49752514D02*
X114599353Y-49638228D01*
X114599353Y-49638228D02*
X114570782Y-49581085D01*
X114570782Y-49581085D02*
X114513639Y-49523942D01*
X114513639Y-49523942D02*
X114427925Y-49495371D01*
X114427925Y-49495371D02*
X114370782Y-49495371D01*
X114370782Y-49495371D02*
X114285068Y-49523942D01*
X114285068Y-49523942D02*
X114256496Y-49552514D01*
X113999353Y-50095371D02*
X113999353Y-49495371D01*
X113999353Y-49495371D02*
X113770782Y-49495371D01*
X113770782Y-49495371D02*
X113713639Y-49523942D01*
X113713639Y-49523942D02*
X113685068Y-49552514D01*
X113685068Y-49552514D02*
X113656496Y-49609657D01*
X113656496Y-49609657D02*
X113656496Y-49695371D01*
X113656496Y-49695371D02*
X113685068Y-49752514D01*
X113685068Y-49752514D02*
X113713639Y-49781085D01*
X113713639Y-49781085D02*
X113770782Y-49809657D01*
X113770782Y-49809657D02*
X113999353Y-49809657D01*
X113056496Y-50038228D02*
X113085068Y-50066800D01*
X113085068Y-50066800D02*
X113170782Y-50095371D01*
X113170782Y-50095371D02*
X113227925Y-50095371D01*
X113227925Y-50095371D02*
X113313639Y-50066800D01*
X113313639Y-50066800D02*
X113370782Y-50009657D01*
X113370782Y-50009657D02*
X113399353Y-49952514D01*
X113399353Y-49952514D02*
X113427925Y-49838228D01*
X113427925Y-49838228D02*
X113427925Y-49752514D01*
X113427925Y-49752514D02*
X113399353Y-49638228D01*
X113399353Y-49638228D02*
X113370782Y-49581085D01*
X113370782Y-49581085D02*
X113313639Y-49523942D01*
X113313639Y-49523942D02*
X113227925Y-49495371D01*
X113227925Y-49495371D02*
X113170782Y-49495371D01*
X113170782Y-49495371D02*
X113085068Y-49523942D01*
X113085068Y-49523942D02*
X113056496Y-49552514D01*
X112799353Y-50038228D02*
X112770782Y-50066800D01*
X112770782Y-50066800D02*
X112799353Y-50095371D01*
X112799353Y-50095371D02*
X112827925Y-50066800D01*
X112827925Y-50066800D02*
X112799353Y-50038228D01*
X112799353Y-50038228D02*
X112799353Y-50095371D01*
X112799353Y-49723942D02*
X112770782Y-49752514D01*
X112770782Y-49752514D02*
X112799353Y-49781085D01*
X112799353Y-49781085D02*
X112827925Y-49752514D01*
X112827925Y-49752514D02*
X112799353Y-49723942D01*
X112799353Y-49723942D02*
X112799353Y-49781085D01*
X112085068Y-50066800D02*
X111999354Y-50095371D01*
X111999354Y-50095371D02*
X111856496Y-50095371D01*
X111856496Y-50095371D02*
X111799354Y-50066800D01*
X111799354Y-50066800D02*
X111770782Y-50038228D01*
X111770782Y-50038228D02*
X111742211Y-49981085D01*
X111742211Y-49981085D02*
X111742211Y-49923942D01*
X111742211Y-49923942D02*
X111770782Y-49866800D01*
X111770782Y-49866800D02*
X111799354Y-49838228D01*
X111799354Y-49838228D02*
X111856496Y-49809657D01*
X111856496Y-49809657D02*
X111970782Y-49781085D01*
X111970782Y-49781085D02*
X112027925Y-49752514D01*
X112027925Y-49752514D02*
X112056496Y-49723942D01*
X112056496Y-49723942D02*
X112085068Y-49666800D01*
X112085068Y-49666800D02*
X112085068Y-49609657D01*
X112085068Y-49609657D02*
X112056496Y-49552514D01*
X112056496Y-49552514D02*
X112027925Y-49523942D01*
X112027925Y-49523942D02*
X111970782Y-49495371D01*
X111970782Y-49495371D02*
X111827925Y-49495371D01*
X111827925Y-49495371D02*
X111742211Y-49523942D01*
X111485067Y-50095371D02*
X111485067Y-49495371D01*
X111485067Y-49495371D02*
X111342210Y-49495371D01*
X111342210Y-49495371D02*
X111256496Y-49523942D01*
X111256496Y-49523942D02*
X111199353Y-49581085D01*
X111199353Y-49581085D02*
X111170782Y-49638228D01*
X111170782Y-49638228D02*
X111142210Y-49752514D01*
X111142210Y-49752514D02*
X111142210Y-49838228D01*
X111142210Y-49838228D02*
X111170782Y-49952514D01*
X111170782Y-49952514D02*
X111199353Y-50009657D01*
X111199353Y-50009657D02*
X111256496Y-50066800D01*
X111256496Y-50066800D02*
X111342210Y-50095371D01*
X111342210Y-50095371D02*
X111485067Y-50095371D01*
X110913639Y-49923942D02*
X110627925Y-49923942D01*
X110970782Y-50095371D02*
X110770782Y-49495371D01*
X110770782Y-49495371D02*
X110570782Y-50095371D01*
X110342210Y-50066800D02*
X110342210Y-50095371D01*
X110342210Y-50095371D02*
X110370781Y-50152514D01*
X110370781Y-50152514D02*
X110399353Y-50181085D01*
X109656496Y-50066800D02*
X109570782Y-50095371D01*
X109570782Y-50095371D02*
X109427924Y-50095371D01*
X109427924Y-50095371D02*
X109370782Y-50066800D01*
X109370782Y-50066800D02*
X109342210Y-50038228D01*
X109342210Y-50038228D02*
X109313639Y-49981085D01*
X109313639Y-49981085D02*
X109313639Y-49923942D01*
X109313639Y-49923942D02*
X109342210Y-49866800D01*
X109342210Y-49866800D02*
X109370782Y-49838228D01*
X109370782Y-49838228D02*
X109427924Y-49809657D01*
X109427924Y-49809657D02*
X109542210Y-49781085D01*
X109542210Y-49781085D02*
X109599353Y-49752514D01*
X109599353Y-49752514D02*
X109627924Y-49723942D01*
X109627924Y-49723942D02*
X109656496Y-49666800D01*
X109656496Y-49666800D02*
X109656496Y-49609657D01*
X109656496Y-49609657D02*
X109627924Y-49552514D01*
X109627924Y-49552514D02*
X109599353Y-49523942D01*
X109599353Y-49523942D02*
X109542210Y-49495371D01*
X109542210Y-49495371D02*
X109399353Y-49495371D01*
X109399353Y-49495371D02*
X109313639Y-49523942D01*
X108713638Y-50038228D02*
X108742210Y-50066800D01*
X108742210Y-50066800D02*
X108827924Y-50095371D01*
X108827924Y-50095371D02*
X108885067Y-50095371D01*
X108885067Y-50095371D02*
X108970781Y-50066800D01*
X108970781Y-50066800D02*
X109027924Y-50009657D01*
X109027924Y-50009657D02*
X109056495Y-49952514D01*
X109056495Y-49952514D02*
X109085067Y-49838228D01*
X109085067Y-49838228D02*
X109085067Y-49752514D01*
X109085067Y-49752514D02*
X109056495Y-49638228D01*
X109056495Y-49638228D02*
X109027924Y-49581085D01*
X109027924Y-49581085D02*
X108970781Y-49523942D01*
X108970781Y-49523942D02*
X108885067Y-49495371D01*
X108885067Y-49495371D02*
X108827924Y-49495371D01*
X108827924Y-49495371D02*
X108742210Y-49523942D01*
X108742210Y-49523942D02*
X108713638Y-49552514D01*
X108170781Y-50095371D02*
X108456495Y-50095371D01*
X108456495Y-50095371D02*
X108456495Y-49495371D01*
X107942210Y-50066800D02*
X107942210Y-50095371D01*
X107942210Y-50095371D02*
X107970781Y-50152514D01*
X107970781Y-50152514D02*
X107999353Y-50181085D01*
X107313639Y-49495371D02*
X107113639Y-50095371D01*
X107113639Y-50095371D02*
X106913639Y-49495371D01*
X106370781Y-50038228D02*
X106399353Y-50066800D01*
X106399353Y-50066800D02*
X106485067Y-50095371D01*
X106485067Y-50095371D02*
X106542210Y-50095371D01*
X106542210Y-50095371D02*
X106627924Y-50066800D01*
X106627924Y-50066800D02*
X106685067Y-50009657D01*
X106685067Y-50009657D02*
X106713638Y-49952514D01*
X106713638Y-49952514D02*
X106742210Y-49838228D01*
X106742210Y-49838228D02*
X106742210Y-49752514D01*
X106742210Y-49752514D02*
X106713638Y-49638228D01*
X106713638Y-49638228D02*
X106685067Y-49581085D01*
X106685067Y-49581085D02*
X106627924Y-49523942D01*
X106627924Y-49523942D02*
X106542210Y-49495371D01*
X106542210Y-49495371D02*
X106485067Y-49495371D01*
X106485067Y-49495371D02*
X106399353Y-49523942D01*
X106399353Y-49523942D02*
X106370781Y-49552514D01*
X105770781Y-50038228D02*
X105799353Y-50066800D01*
X105799353Y-50066800D02*
X105885067Y-50095371D01*
X105885067Y-50095371D02*
X105942210Y-50095371D01*
X105942210Y-50095371D02*
X106027924Y-50066800D01*
X106027924Y-50066800D02*
X106085067Y-50009657D01*
X106085067Y-50009657D02*
X106113638Y-49952514D01*
X106113638Y-49952514D02*
X106142210Y-49838228D01*
X106142210Y-49838228D02*
X106142210Y-49752514D01*
X106142210Y-49752514D02*
X106113638Y-49638228D01*
X106113638Y-49638228D02*
X106085067Y-49581085D01*
X106085067Y-49581085D02*
X106027924Y-49523942D01*
X106027924Y-49523942D02*
X105942210Y-49495371D01*
X105942210Y-49495371D02*
X105885067Y-49495371D01*
X105885067Y-49495371D02*
X105799353Y-49523942D01*
X105799353Y-49523942D02*
X105770781Y-49552514D01*
X105485067Y-50066800D02*
X105485067Y-50095371D01*
X105485067Y-50095371D02*
X105513638Y-50152514D01*
X105513638Y-50152514D02*
X105542210Y-50181085D01*
X104456496Y-49523942D02*
X104513639Y-49495371D01*
X104513639Y-49495371D02*
X104599353Y-49495371D01*
X104599353Y-49495371D02*
X104685067Y-49523942D01*
X104685067Y-49523942D02*
X104742210Y-49581085D01*
X104742210Y-49581085D02*
X104770781Y-49638228D01*
X104770781Y-49638228D02*
X104799353Y-49752514D01*
X104799353Y-49752514D02*
X104799353Y-49838228D01*
X104799353Y-49838228D02*
X104770781Y-49952514D01*
X104770781Y-49952514D02*
X104742210Y-50009657D01*
X104742210Y-50009657D02*
X104685067Y-50066800D01*
X104685067Y-50066800D02*
X104599353Y-50095371D01*
X104599353Y-50095371D02*
X104542210Y-50095371D01*
X104542210Y-50095371D02*
X104456496Y-50066800D01*
X104456496Y-50066800D02*
X104427924Y-50038228D01*
X104427924Y-50038228D02*
X104427924Y-49838228D01*
X104427924Y-49838228D02*
X104542210Y-49838228D01*
X104170781Y-50095371D02*
X104170781Y-49495371D01*
X104170781Y-49495371D02*
X103827924Y-50095371D01*
X103827924Y-50095371D02*
X103827924Y-49495371D01*
X103542210Y-50095371D02*
X103542210Y-49495371D01*
X103542210Y-49495371D02*
X103399353Y-49495371D01*
X103399353Y-49495371D02*
X103313639Y-49523942D01*
X103313639Y-49523942D02*
X103256496Y-49581085D01*
X103256496Y-49581085D02*
X103227925Y-49638228D01*
X103227925Y-49638228D02*
X103199353Y-49752514D01*
X103199353Y-49752514D02*
X103199353Y-49838228D01*
X103199353Y-49838228D02*
X103227925Y-49952514D01*
X103227925Y-49952514D02*
X103256496Y-50009657D01*
X103256496Y-50009657D02*
X103313639Y-50066800D01*
X103313639Y-50066800D02*
X103399353Y-50095371D01*
X103399353Y-50095371D02*
X103542210Y-50095371D01*
X115193068Y-48479371D02*
X114850211Y-48479371D01*
X115021639Y-49079371D02*
X115021639Y-48479371D01*
X114650210Y-49079371D02*
X114650210Y-48479371D01*
X114650210Y-48479371D02*
X114421639Y-48479371D01*
X114421639Y-48479371D02*
X114364496Y-48507942D01*
X114364496Y-48507942D02*
X114335925Y-48536514D01*
X114335925Y-48536514D02*
X114307353Y-48593657D01*
X114307353Y-48593657D02*
X114307353Y-48679371D01*
X114307353Y-48679371D02*
X114335925Y-48736514D01*
X114335925Y-48736514D02*
X114364496Y-48765085D01*
X114364496Y-48765085D02*
X114421639Y-48793657D01*
X114421639Y-48793657D02*
X114650210Y-48793657D01*
X114050210Y-49079371D02*
X114050210Y-48479371D01*
X114050210Y-48765085D02*
X113707353Y-48765085D01*
X113707353Y-49079371D02*
X113707353Y-48479371D01*
X113421639Y-49022228D02*
X113393068Y-49050800D01*
X113393068Y-49050800D02*
X113421639Y-49079371D01*
X113421639Y-49079371D02*
X113450211Y-49050800D01*
X113450211Y-49050800D02*
X113421639Y-49022228D01*
X113421639Y-49022228D02*
X113421639Y-49079371D01*
X113421639Y-48707942D02*
X113393068Y-48736514D01*
X113393068Y-48736514D02*
X113421639Y-48765085D01*
X113421639Y-48765085D02*
X113450211Y-48736514D01*
X113450211Y-48736514D02*
X113421639Y-48707942D01*
X113421639Y-48707942D02*
X113421639Y-48765085D01*
X112764497Y-48479371D02*
X112564497Y-49079371D01*
X112564497Y-49079371D02*
X112364497Y-48479371D01*
X111821639Y-49022228D02*
X111850211Y-49050800D01*
X111850211Y-49050800D02*
X111935925Y-49079371D01*
X111935925Y-49079371D02*
X111993068Y-49079371D01*
X111993068Y-49079371D02*
X112078782Y-49050800D01*
X112078782Y-49050800D02*
X112135925Y-48993657D01*
X112135925Y-48993657D02*
X112164496Y-48936514D01*
X112164496Y-48936514D02*
X112193068Y-48822228D01*
X112193068Y-48822228D02*
X112193068Y-48736514D01*
X112193068Y-48736514D02*
X112164496Y-48622228D01*
X112164496Y-48622228D02*
X112135925Y-48565085D01*
X112135925Y-48565085D02*
X112078782Y-48507942D01*
X112078782Y-48507942D02*
X111993068Y-48479371D01*
X111993068Y-48479371D02*
X111935925Y-48479371D01*
X111935925Y-48479371D02*
X111850211Y-48507942D01*
X111850211Y-48507942D02*
X111821639Y-48536514D01*
X111221639Y-49022228D02*
X111250211Y-49050800D01*
X111250211Y-49050800D02*
X111335925Y-49079371D01*
X111335925Y-49079371D02*
X111393068Y-49079371D01*
X111393068Y-49079371D02*
X111478782Y-49050800D01*
X111478782Y-49050800D02*
X111535925Y-48993657D01*
X111535925Y-48993657D02*
X111564496Y-48936514D01*
X111564496Y-48936514D02*
X111593068Y-48822228D01*
X111593068Y-48822228D02*
X111593068Y-48736514D01*
X111593068Y-48736514D02*
X111564496Y-48622228D01*
X111564496Y-48622228D02*
X111535925Y-48565085D01*
X111535925Y-48565085D02*
X111478782Y-48507942D01*
X111478782Y-48507942D02*
X111393068Y-48479371D01*
X111393068Y-48479371D02*
X111335925Y-48479371D01*
X111335925Y-48479371D02*
X111250211Y-48507942D01*
X111250211Y-48507942D02*
X111221639Y-48536514D01*
X110935925Y-49050800D02*
X110935925Y-49079371D01*
X110935925Y-49079371D02*
X110964496Y-49136514D01*
X110964496Y-49136514D02*
X110993068Y-49165085D01*
X109907354Y-48507942D02*
X109964497Y-48479371D01*
X109964497Y-48479371D02*
X110050211Y-48479371D01*
X110050211Y-48479371D02*
X110135925Y-48507942D01*
X110135925Y-48507942D02*
X110193068Y-48565085D01*
X110193068Y-48565085D02*
X110221639Y-48622228D01*
X110221639Y-48622228D02*
X110250211Y-48736514D01*
X110250211Y-48736514D02*
X110250211Y-48822228D01*
X110250211Y-48822228D02*
X110221639Y-48936514D01*
X110221639Y-48936514D02*
X110193068Y-48993657D01*
X110193068Y-48993657D02*
X110135925Y-49050800D01*
X110135925Y-49050800D02*
X110050211Y-49079371D01*
X110050211Y-49079371D02*
X109993068Y-49079371D01*
X109993068Y-49079371D02*
X109907354Y-49050800D01*
X109907354Y-49050800D02*
X109878782Y-49022228D01*
X109878782Y-49022228D02*
X109878782Y-48822228D01*
X109878782Y-48822228D02*
X109993068Y-48822228D01*
X109621639Y-49079371D02*
X109621639Y-48479371D01*
X109621639Y-48479371D02*
X109278782Y-49079371D01*
X109278782Y-49079371D02*
X109278782Y-48479371D01*
X108993068Y-49079371D02*
X108993068Y-48479371D01*
X108993068Y-48479371D02*
X108850211Y-48479371D01*
X108850211Y-48479371D02*
X108764497Y-48507942D01*
X108764497Y-48507942D02*
X108707354Y-48565085D01*
X108707354Y-48565085D02*
X108678783Y-48622228D01*
X108678783Y-48622228D02*
X108650211Y-48736514D01*
X108650211Y-48736514D02*
X108650211Y-48822228D01*
X108650211Y-48822228D02*
X108678783Y-48936514D01*
X108678783Y-48936514D02*
X108707354Y-48993657D01*
X108707354Y-48993657D02*
X108764497Y-49050800D01*
X108764497Y-49050800D02*
X108850211Y-49079371D01*
X108850211Y-49079371D02*
X108993068Y-49079371D01*
X108364497Y-49050800D02*
X108364497Y-49079371D01*
X108364497Y-49079371D02*
X108393068Y-49136514D01*
X108393068Y-49136514D02*
X108421640Y-49165085D01*
X107678783Y-49050800D02*
X107593069Y-49079371D01*
X107593069Y-49079371D02*
X107450211Y-49079371D01*
X107450211Y-49079371D02*
X107393069Y-49050800D01*
X107393069Y-49050800D02*
X107364497Y-49022228D01*
X107364497Y-49022228D02*
X107335926Y-48965085D01*
X107335926Y-48965085D02*
X107335926Y-48907942D01*
X107335926Y-48907942D02*
X107364497Y-48850800D01*
X107364497Y-48850800D02*
X107393069Y-48822228D01*
X107393069Y-48822228D02*
X107450211Y-48793657D01*
X107450211Y-48793657D02*
X107564497Y-48765085D01*
X107564497Y-48765085D02*
X107621640Y-48736514D01*
X107621640Y-48736514D02*
X107650211Y-48707942D01*
X107650211Y-48707942D02*
X107678783Y-48650800D01*
X107678783Y-48650800D02*
X107678783Y-48593657D01*
X107678783Y-48593657D02*
X107650211Y-48536514D01*
X107650211Y-48536514D02*
X107621640Y-48507942D01*
X107621640Y-48507942D02*
X107564497Y-48479371D01*
X107564497Y-48479371D02*
X107421640Y-48479371D01*
X107421640Y-48479371D02*
X107335926Y-48507942D01*
X107078782Y-49079371D02*
X107078782Y-48479371D01*
X107078782Y-48479371D02*
X106935925Y-48479371D01*
X106935925Y-48479371D02*
X106850211Y-48507942D01*
X106850211Y-48507942D02*
X106793068Y-48565085D01*
X106793068Y-48565085D02*
X106764497Y-48622228D01*
X106764497Y-48622228D02*
X106735925Y-48736514D01*
X106735925Y-48736514D02*
X106735925Y-48822228D01*
X106735925Y-48822228D02*
X106764497Y-48936514D01*
X106764497Y-48936514D02*
X106793068Y-48993657D01*
X106793068Y-48993657D02*
X106850211Y-49050800D01*
X106850211Y-49050800D02*
X106935925Y-49079371D01*
X106935925Y-49079371D02*
X107078782Y-49079371D01*
X106507354Y-48907942D02*
X106221640Y-48907942D01*
X106564497Y-49079371D02*
X106364497Y-48479371D01*
X106364497Y-48479371D02*
X106164497Y-49079371D01*
X105935925Y-49050800D02*
X105935925Y-49079371D01*
X105935925Y-49079371D02*
X105964496Y-49136514D01*
X105964496Y-49136514D02*
X105993068Y-49165085D01*
X105250211Y-49050800D02*
X105164497Y-49079371D01*
X105164497Y-49079371D02*
X105021639Y-49079371D01*
X105021639Y-49079371D02*
X104964497Y-49050800D01*
X104964497Y-49050800D02*
X104935925Y-49022228D01*
X104935925Y-49022228D02*
X104907354Y-48965085D01*
X104907354Y-48965085D02*
X104907354Y-48907942D01*
X104907354Y-48907942D02*
X104935925Y-48850800D01*
X104935925Y-48850800D02*
X104964497Y-48822228D01*
X104964497Y-48822228D02*
X105021639Y-48793657D01*
X105021639Y-48793657D02*
X105135925Y-48765085D01*
X105135925Y-48765085D02*
X105193068Y-48736514D01*
X105193068Y-48736514D02*
X105221639Y-48707942D01*
X105221639Y-48707942D02*
X105250211Y-48650800D01*
X105250211Y-48650800D02*
X105250211Y-48593657D01*
X105250211Y-48593657D02*
X105221639Y-48536514D01*
X105221639Y-48536514D02*
X105193068Y-48507942D01*
X105193068Y-48507942D02*
X105135925Y-48479371D01*
X105135925Y-48479371D02*
X104993068Y-48479371D01*
X104993068Y-48479371D02*
X104907354Y-48507942D01*
X104307353Y-49022228D02*
X104335925Y-49050800D01*
X104335925Y-49050800D02*
X104421639Y-49079371D01*
X104421639Y-49079371D02*
X104478782Y-49079371D01*
X104478782Y-49079371D02*
X104564496Y-49050800D01*
X104564496Y-49050800D02*
X104621639Y-48993657D01*
X104621639Y-48993657D02*
X104650210Y-48936514D01*
X104650210Y-48936514D02*
X104678782Y-48822228D01*
X104678782Y-48822228D02*
X104678782Y-48736514D01*
X104678782Y-48736514D02*
X104650210Y-48622228D01*
X104650210Y-48622228D02*
X104621639Y-48565085D01*
X104621639Y-48565085D02*
X104564496Y-48507942D01*
X104564496Y-48507942D02*
X104478782Y-48479371D01*
X104478782Y-48479371D02*
X104421639Y-48479371D01*
X104421639Y-48479371D02*
X104335925Y-48507942D01*
X104335925Y-48507942D02*
X104307353Y-48536514D01*
X103764496Y-49079371D02*
X104050210Y-49079371D01*
X104050210Y-49079371D02*
X104050210Y-48479371D01*
X102678782Y-48450800D02*
X103193068Y-49222228D01*
X107153972Y-43331419D02*
X106820639Y-44331419D01*
X106820639Y-44331419D02*
X106487306Y-43331419D01*
X105582544Y-44236180D02*
X105630163Y-44283800D01*
X105630163Y-44283800D02*
X105773020Y-44331419D01*
X105773020Y-44331419D02*
X105868258Y-44331419D01*
X105868258Y-44331419D02*
X106011115Y-44283800D01*
X106011115Y-44283800D02*
X106106353Y-44188561D01*
X106106353Y-44188561D02*
X106153972Y-44093323D01*
X106153972Y-44093323D02*
X106201591Y-43902847D01*
X106201591Y-43902847D02*
X106201591Y-43759990D01*
X106201591Y-43759990D02*
X106153972Y-43569514D01*
X106153972Y-43569514D02*
X106106353Y-43474276D01*
X106106353Y-43474276D02*
X106011115Y-43379038D01*
X106011115Y-43379038D02*
X105868258Y-43331419D01*
X105868258Y-43331419D02*
X105773020Y-43331419D01*
X105773020Y-43331419D02*
X105630163Y-43379038D01*
X105630163Y-43379038D02*
X105582544Y-43426657D01*
X104582544Y-44236180D02*
X104630163Y-44283800D01*
X104630163Y-44283800D02*
X104773020Y-44331419D01*
X104773020Y-44331419D02*
X104868258Y-44331419D01*
X104868258Y-44331419D02*
X105011115Y-44283800D01*
X105011115Y-44283800D02*
X105106353Y-44188561D01*
X105106353Y-44188561D02*
X105153972Y-44093323D01*
X105153972Y-44093323D02*
X105201591Y-43902847D01*
X105201591Y-43902847D02*
X105201591Y-43759990D01*
X105201591Y-43759990D02*
X105153972Y-43569514D01*
X105153972Y-43569514D02*
X105106353Y-43474276D01*
X105106353Y-43474276D02*
X105011115Y-43379038D01*
X105011115Y-43379038D02*
X104868258Y-43331419D01*
X104868258Y-43331419D02*
X104773020Y-43331419D01*
X104773020Y-43331419D02*
X104630163Y-43379038D01*
X104630163Y-43379038D02*
X104582544Y-43426657D01*
X110712819Y-46250687D02*
X110665200Y-46298306D01*
X110665200Y-46298306D02*
X110617580Y-46441163D01*
X110617580Y-46441163D02*
X110617580Y-46536401D01*
X110617580Y-46536401D02*
X110665200Y-46679258D01*
X110665200Y-46679258D02*
X110760438Y-46774496D01*
X110760438Y-46774496D02*
X110855676Y-46822115D01*
X110855676Y-46822115D02*
X111046152Y-46869734D01*
X111046152Y-46869734D02*
X111189009Y-46869734D01*
X111189009Y-46869734D02*
X111379485Y-46822115D01*
X111379485Y-46822115D02*
X111474723Y-46774496D01*
X111474723Y-46774496D02*
X111569961Y-46679258D01*
X111569961Y-46679258D02*
X111617580Y-46536401D01*
X111617580Y-46536401D02*
X111617580Y-46441163D01*
X111617580Y-46441163D02*
X111569961Y-46298306D01*
X111569961Y-46298306D02*
X111522342Y-46250687D01*
X110617580Y-45822115D02*
X111617580Y-45822115D01*
X111617580Y-45822115D02*
X111617580Y-45441163D01*
X111617580Y-45441163D02*
X111569961Y-45345925D01*
X111569961Y-45345925D02*
X111522342Y-45298306D01*
X111522342Y-45298306D02*
X111427104Y-45250687D01*
X111427104Y-45250687D02*
X111284247Y-45250687D01*
X111284247Y-45250687D02*
X111189009Y-45298306D01*
X111189009Y-45298306D02*
X111141390Y-45345925D01*
X111141390Y-45345925D02*
X111093771Y-45441163D01*
X111093771Y-45441163D02*
X111093771Y-45822115D01*
X110712819Y-44250687D02*
X110665200Y-44298306D01*
X110665200Y-44298306D02*
X110617580Y-44441163D01*
X110617580Y-44441163D02*
X110617580Y-44536401D01*
X110617580Y-44536401D02*
X110665200Y-44679258D01*
X110665200Y-44679258D02*
X110760438Y-44774496D01*
X110760438Y-44774496D02*
X110855676Y-44822115D01*
X110855676Y-44822115D02*
X111046152Y-44869734D01*
X111046152Y-44869734D02*
X111189009Y-44869734D01*
X111189009Y-44869734D02*
X111379485Y-44822115D01*
X111379485Y-44822115D02*
X111474723Y-44774496D01*
X111474723Y-44774496D02*
X111569961Y-44679258D01*
X111569961Y-44679258D02*
X111617580Y-44536401D01*
X111617580Y-44536401D02*
X111617580Y-44441163D01*
X111617580Y-44441163D02*
X111569961Y-44298306D01*
X111569961Y-44298306D02*
X111522342Y-44250687D01*
X138909323Y-138189719D02*
X138909323Y-138904004D01*
X138909323Y-138904004D02*
X138956942Y-139046861D01*
X138956942Y-139046861D02*
X139052180Y-139142100D01*
X139052180Y-139142100D02*
X139195037Y-139189719D01*
X139195037Y-139189719D02*
X139290275Y-139189719D01*
X137909323Y-139189719D02*
X138480751Y-139189719D01*
X138195037Y-139189719D02*
X138195037Y-138189719D01*
X138195037Y-138189719D02*
X138290275Y-138332576D01*
X138290275Y-138332576D02*
X138385513Y-138427814D01*
X138385513Y-138427814D02*
X138480751Y-138475433D01*
X137575989Y-138189719D02*
X136956942Y-138189719D01*
X136956942Y-138189719D02*
X137290275Y-138570671D01*
X137290275Y-138570671D02*
X137147418Y-138570671D01*
X137147418Y-138570671D02*
X137052180Y-138618290D01*
X137052180Y-138618290D02*
X137004561Y-138665909D01*
X137004561Y-138665909D02*
X136956942Y-138761147D01*
X136956942Y-138761147D02*
X136956942Y-138999242D01*
X136956942Y-138999242D02*
X137004561Y-139094480D01*
X137004561Y-139094480D02*
X137052180Y-139142100D01*
X137052180Y-139142100D02*
X137147418Y-139189719D01*
X137147418Y-139189719D02*
X137433132Y-139189719D01*
X137433132Y-139189719D02*
X137528370Y-139142100D01*
X137528370Y-139142100D02*
X137575989Y-139094480D01*
X191651771Y-27549896D02*
X191623200Y-27578468D01*
X191623200Y-27578468D02*
X191594628Y-27664182D01*
X191594628Y-27664182D02*
X191594628Y-27721325D01*
X191594628Y-27721325D02*
X191623200Y-27807039D01*
X191623200Y-27807039D02*
X191680342Y-27864182D01*
X191680342Y-27864182D02*
X191737485Y-27892753D01*
X191737485Y-27892753D02*
X191851771Y-27921325D01*
X191851771Y-27921325D02*
X191937485Y-27921325D01*
X191937485Y-27921325D02*
X192051771Y-27892753D01*
X192051771Y-27892753D02*
X192108914Y-27864182D01*
X192108914Y-27864182D02*
X192166057Y-27807039D01*
X192166057Y-27807039D02*
X192194628Y-27721325D01*
X192194628Y-27721325D02*
X192194628Y-27664182D01*
X192194628Y-27664182D02*
X192166057Y-27578468D01*
X192166057Y-27578468D02*
X192137485Y-27549896D01*
X191594628Y-27292753D02*
X192194628Y-27292753D01*
X192194628Y-27292753D02*
X192194628Y-27064182D01*
X192194628Y-27064182D02*
X192166057Y-27007039D01*
X192166057Y-27007039D02*
X192137485Y-26978468D01*
X192137485Y-26978468D02*
X192080342Y-26949896D01*
X192080342Y-26949896D02*
X191994628Y-26949896D01*
X191994628Y-26949896D02*
X191937485Y-26978468D01*
X191937485Y-26978468D02*
X191908914Y-27007039D01*
X191908914Y-27007039D02*
X191880342Y-27064182D01*
X191880342Y-27064182D02*
X191880342Y-27292753D01*
X191651771Y-26349896D02*
X191623200Y-26378468D01*
X191623200Y-26378468D02*
X191594628Y-26464182D01*
X191594628Y-26464182D02*
X191594628Y-26521325D01*
X191594628Y-26521325D02*
X191623200Y-26607039D01*
X191623200Y-26607039D02*
X191680342Y-26664182D01*
X191680342Y-26664182D02*
X191737485Y-26692753D01*
X191737485Y-26692753D02*
X191851771Y-26721325D01*
X191851771Y-26721325D02*
X191937485Y-26721325D01*
X191937485Y-26721325D02*
X192051771Y-26692753D01*
X192051771Y-26692753D02*
X192108914Y-26664182D01*
X192108914Y-26664182D02*
X192166057Y-26607039D01*
X192166057Y-26607039D02*
X192194628Y-26521325D01*
X192194628Y-26521325D02*
X192194628Y-26464182D01*
X192194628Y-26464182D02*
X192166057Y-26378468D01*
X192166057Y-26378468D02*
X192137485Y-26349896D01*
X192166057Y-25321325D02*
X192194628Y-25378468D01*
X192194628Y-25378468D02*
X192194628Y-25464182D01*
X192194628Y-25464182D02*
X192166057Y-25549896D01*
X192166057Y-25549896D02*
X192108914Y-25607039D01*
X192108914Y-25607039D02*
X192051771Y-25635610D01*
X192051771Y-25635610D02*
X191937485Y-25664182D01*
X191937485Y-25664182D02*
X191851771Y-25664182D01*
X191851771Y-25664182D02*
X191737485Y-25635610D01*
X191737485Y-25635610D02*
X191680342Y-25607039D01*
X191680342Y-25607039D02*
X191623200Y-25549896D01*
X191623200Y-25549896D02*
X191594628Y-25464182D01*
X191594628Y-25464182D02*
X191594628Y-25407039D01*
X191594628Y-25407039D02*
X191623200Y-25321325D01*
X191623200Y-25321325D02*
X191651771Y-25292753D01*
X191651771Y-25292753D02*
X191851771Y-25292753D01*
X191851771Y-25292753D02*
X191851771Y-25407039D01*
X191594628Y-25035610D02*
X192194628Y-25035610D01*
X192194628Y-25035610D02*
X191594628Y-24692753D01*
X191594628Y-24692753D02*
X192194628Y-24692753D01*
X191594628Y-24407039D02*
X192194628Y-24407039D01*
X192194628Y-24407039D02*
X192194628Y-24264182D01*
X192194628Y-24264182D02*
X192166057Y-24178468D01*
X192166057Y-24178468D02*
X192108914Y-24121325D01*
X192108914Y-24121325D02*
X192051771Y-24092754D01*
X192051771Y-24092754D02*
X191937485Y-24064182D01*
X191937485Y-24064182D02*
X191851771Y-24064182D01*
X191851771Y-24064182D02*
X191737485Y-24092754D01*
X191737485Y-24092754D02*
X191680342Y-24121325D01*
X191680342Y-24121325D02*
X191623200Y-24178468D01*
X191623200Y-24178468D02*
X191594628Y-24264182D01*
X191594628Y-24264182D02*
X191594628Y-24407039D01*
X197533200Y-27591134D02*
X197485580Y-27448277D01*
X197485580Y-27448277D02*
X197485580Y-27210182D01*
X197485580Y-27210182D02*
X197533200Y-27114944D01*
X197533200Y-27114944D02*
X197580819Y-27067325D01*
X197580819Y-27067325D02*
X197676057Y-27019706D01*
X197676057Y-27019706D02*
X197771295Y-27019706D01*
X197771295Y-27019706D02*
X197866533Y-27067325D01*
X197866533Y-27067325D02*
X197914152Y-27114944D01*
X197914152Y-27114944D02*
X197961771Y-27210182D01*
X197961771Y-27210182D02*
X198009390Y-27400658D01*
X198009390Y-27400658D02*
X198057009Y-27495896D01*
X198057009Y-27495896D02*
X198104628Y-27543515D01*
X198104628Y-27543515D02*
X198199866Y-27591134D01*
X198199866Y-27591134D02*
X198295104Y-27591134D01*
X198295104Y-27591134D02*
X198390342Y-27543515D01*
X198390342Y-27543515D02*
X198437961Y-27495896D01*
X198437961Y-27495896D02*
X198485580Y-27400658D01*
X198485580Y-27400658D02*
X198485580Y-27162563D01*
X198485580Y-27162563D02*
X198437961Y-27019706D01*
X197485580Y-26591134D02*
X198485580Y-26591134D01*
X198485580Y-26591134D02*
X198485580Y-26353039D01*
X198485580Y-26353039D02*
X198437961Y-26210182D01*
X198437961Y-26210182D02*
X198342723Y-26114944D01*
X198342723Y-26114944D02*
X198247485Y-26067325D01*
X198247485Y-26067325D02*
X198057009Y-26019706D01*
X198057009Y-26019706D02*
X197914152Y-26019706D01*
X197914152Y-26019706D02*
X197723676Y-26067325D01*
X197723676Y-26067325D02*
X197628438Y-26114944D01*
X197628438Y-26114944D02*
X197533200Y-26210182D01*
X197533200Y-26210182D02*
X197485580Y-26353039D01*
X197485580Y-26353039D02*
X197485580Y-26591134D01*
X197771295Y-25638753D02*
X197771295Y-25162563D01*
X197485580Y-25733991D02*
X198485580Y-25400658D01*
X198485580Y-25400658D02*
X197485580Y-25067325D01*
X197239771Y-35042896D02*
X197211200Y-35071468D01*
X197211200Y-35071468D02*
X197182628Y-35157182D01*
X197182628Y-35157182D02*
X197182628Y-35214325D01*
X197182628Y-35214325D02*
X197211200Y-35300039D01*
X197211200Y-35300039D02*
X197268342Y-35357182D01*
X197268342Y-35357182D02*
X197325485Y-35385753D01*
X197325485Y-35385753D02*
X197439771Y-35414325D01*
X197439771Y-35414325D02*
X197525485Y-35414325D01*
X197525485Y-35414325D02*
X197639771Y-35385753D01*
X197639771Y-35385753D02*
X197696914Y-35357182D01*
X197696914Y-35357182D02*
X197754057Y-35300039D01*
X197754057Y-35300039D02*
X197782628Y-35214325D01*
X197782628Y-35214325D02*
X197782628Y-35157182D01*
X197782628Y-35157182D02*
X197754057Y-35071468D01*
X197754057Y-35071468D02*
X197725485Y-35042896D01*
X197182628Y-34785753D02*
X197782628Y-34785753D01*
X197782628Y-34785753D02*
X197782628Y-34557182D01*
X197782628Y-34557182D02*
X197754057Y-34500039D01*
X197754057Y-34500039D02*
X197725485Y-34471468D01*
X197725485Y-34471468D02*
X197668342Y-34442896D01*
X197668342Y-34442896D02*
X197582628Y-34442896D01*
X197582628Y-34442896D02*
X197525485Y-34471468D01*
X197525485Y-34471468D02*
X197496914Y-34500039D01*
X197496914Y-34500039D02*
X197468342Y-34557182D01*
X197468342Y-34557182D02*
X197468342Y-34785753D01*
X197239771Y-33842896D02*
X197211200Y-33871468D01*
X197211200Y-33871468D02*
X197182628Y-33957182D01*
X197182628Y-33957182D02*
X197182628Y-34014325D01*
X197182628Y-34014325D02*
X197211200Y-34100039D01*
X197211200Y-34100039D02*
X197268342Y-34157182D01*
X197268342Y-34157182D02*
X197325485Y-34185753D01*
X197325485Y-34185753D02*
X197439771Y-34214325D01*
X197439771Y-34214325D02*
X197525485Y-34214325D01*
X197525485Y-34214325D02*
X197639771Y-34185753D01*
X197639771Y-34185753D02*
X197696914Y-34157182D01*
X197696914Y-34157182D02*
X197754057Y-34100039D01*
X197754057Y-34100039D02*
X197782628Y-34014325D01*
X197782628Y-34014325D02*
X197782628Y-33957182D01*
X197782628Y-33957182D02*
X197754057Y-33871468D01*
X197754057Y-33871468D02*
X197725485Y-33842896D01*
X197211200Y-33157182D02*
X197182628Y-33071468D01*
X197182628Y-33071468D02*
X197182628Y-32928610D01*
X197182628Y-32928610D02*
X197211200Y-32871468D01*
X197211200Y-32871468D02*
X197239771Y-32842896D01*
X197239771Y-32842896D02*
X197296914Y-32814325D01*
X197296914Y-32814325D02*
X197354057Y-32814325D01*
X197354057Y-32814325D02*
X197411200Y-32842896D01*
X197411200Y-32842896D02*
X197439771Y-32871468D01*
X197439771Y-32871468D02*
X197468342Y-32928610D01*
X197468342Y-32928610D02*
X197496914Y-33042896D01*
X197496914Y-33042896D02*
X197525485Y-33100039D01*
X197525485Y-33100039D02*
X197554057Y-33128610D01*
X197554057Y-33128610D02*
X197611200Y-33157182D01*
X197611200Y-33157182D02*
X197668342Y-33157182D01*
X197668342Y-33157182D02*
X197725485Y-33128610D01*
X197725485Y-33128610D02*
X197754057Y-33100039D01*
X197754057Y-33100039D02*
X197782628Y-33042896D01*
X197782628Y-33042896D02*
X197782628Y-32900039D01*
X197782628Y-32900039D02*
X197754057Y-32814325D01*
X197239771Y-32214324D02*
X197211200Y-32242896D01*
X197211200Y-32242896D02*
X197182628Y-32328610D01*
X197182628Y-32328610D02*
X197182628Y-32385753D01*
X197182628Y-32385753D02*
X197211200Y-32471467D01*
X197211200Y-32471467D02*
X197268342Y-32528610D01*
X197268342Y-32528610D02*
X197325485Y-32557181D01*
X197325485Y-32557181D02*
X197439771Y-32585753D01*
X197439771Y-32585753D02*
X197525485Y-32585753D01*
X197525485Y-32585753D02*
X197639771Y-32557181D01*
X197639771Y-32557181D02*
X197696914Y-32528610D01*
X197696914Y-32528610D02*
X197754057Y-32471467D01*
X197754057Y-32471467D02*
X197782628Y-32385753D01*
X197782628Y-32385753D02*
X197782628Y-32328610D01*
X197782628Y-32328610D02*
X197754057Y-32242896D01*
X197754057Y-32242896D02*
X197725485Y-32214324D01*
X197182628Y-31671467D02*
X197182628Y-31957181D01*
X197182628Y-31957181D02*
X197782628Y-31957181D01*
X196258628Y-35217468D02*
X196258628Y-34874611D01*
X195658628Y-35046039D02*
X196258628Y-35046039D01*
X195658628Y-34674610D02*
X196258628Y-34674610D01*
X196258628Y-34674610D02*
X196258628Y-34446039D01*
X196258628Y-34446039D02*
X196230057Y-34388896D01*
X196230057Y-34388896D02*
X196201485Y-34360325D01*
X196201485Y-34360325D02*
X196144342Y-34331753D01*
X196144342Y-34331753D02*
X196058628Y-34331753D01*
X196058628Y-34331753D02*
X196001485Y-34360325D01*
X196001485Y-34360325D02*
X195972914Y-34388896D01*
X195972914Y-34388896D02*
X195944342Y-34446039D01*
X195944342Y-34446039D02*
X195944342Y-34674610D01*
X195658628Y-34074610D02*
X196258628Y-34074610D01*
X195972914Y-34074610D02*
X195972914Y-33731753D01*
X195658628Y-33731753D02*
X196258628Y-33731753D01*
X195687200Y-33017468D02*
X195658628Y-32931754D01*
X195658628Y-32931754D02*
X195658628Y-32788896D01*
X195658628Y-32788896D02*
X195687200Y-32731754D01*
X195687200Y-32731754D02*
X195715771Y-32703182D01*
X195715771Y-32703182D02*
X195772914Y-32674611D01*
X195772914Y-32674611D02*
X195830057Y-32674611D01*
X195830057Y-32674611D02*
X195887200Y-32703182D01*
X195887200Y-32703182D02*
X195915771Y-32731754D01*
X195915771Y-32731754D02*
X195944342Y-32788896D01*
X195944342Y-32788896D02*
X195972914Y-32903182D01*
X195972914Y-32903182D02*
X196001485Y-32960325D01*
X196001485Y-32960325D02*
X196030057Y-32988896D01*
X196030057Y-32988896D02*
X196087200Y-33017468D01*
X196087200Y-33017468D02*
X196144342Y-33017468D01*
X196144342Y-33017468D02*
X196201485Y-32988896D01*
X196201485Y-32988896D02*
X196230057Y-32960325D01*
X196230057Y-32960325D02*
X196258628Y-32903182D01*
X196258628Y-32903182D02*
X196258628Y-32760325D01*
X196258628Y-32760325D02*
X196230057Y-32674611D01*
X195658628Y-32417467D02*
X196258628Y-32417467D01*
X196258628Y-32417467D02*
X196258628Y-32274610D01*
X196258628Y-32274610D02*
X196230057Y-32188896D01*
X196230057Y-32188896D02*
X196172914Y-32131753D01*
X196172914Y-32131753D02*
X196115771Y-32103182D01*
X196115771Y-32103182D02*
X196001485Y-32074610D01*
X196001485Y-32074610D02*
X195915771Y-32074610D01*
X195915771Y-32074610D02*
X195801485Y-32103182D01*
X195801485Y-32103182D02*
X195744342Y-32131753D01*
X195744342Y-32131753D02*
X195687200Y-32188896D01*
X195687200Y-32188896D02*
X195658628Y-32274610D01*
X195658628Y-32274610D02*
X195658628Y-32417467D01*
X195830057Y-31846039D02*
X195830057Y-31560325D01*
X195658628Y-31903182D02*
X196258628Y-31703182D01*
X196258628Y-31703182D02*
X195658628Y-31503182D01*
X194826771Y-35042896D02*
X194798200Y-35071468D01*
X194798200Y-35071468D02*
X194769628Y-35157182D01*
X194769628Y-35157182D02*
X194769628Y-35214325D01*
X194769628Y-35214325D02*
X194798200Y-35300039D01*
X194798200Y-35300039D02*
X194855342Y-35357182D01*
X194855342Y-35357182D02*
X194912485Y-35385753D01*
X194912485Y-35385753D02*
X195026771Y-35414325D01*
X195026771Y-35414325D02*
X195112485Y-35414325D01*
X195112485Y-35414325D02*
X195226771Y-35385753D01*
X195226771Y-35385753D02*
X195283914Y-35357182D01*
X195283914Y-35357182D02*
X195341057Y-35300039D01*
X195341057Y-35300039D02*
X195369628Y-35214325D01*
X195369628Y-35214325D02*
X195369628Y-35157182D01*
X195369628Y-35157182D02*
X195341057Y-35071468D01*
X195341057Y-35071468D02*
X195312485Y-35042896D01*
X194769628Y-34785753D02*
X195369628Y-34785753D01*
X195369628Y-34785753D02*
X195369628Y-34557182D01*
X195369628Y-34557182D02*
X195341057Y-34500039D01*
X195341057Y-34500039D02*
X195312485Y-34471468D01*
X195312485Y-34471468D02*
X195255342Y-34442896D01*
X195255342Y-34442896D02*
X195169628Y-34442896D01*
X195169628Y-34442896D02*
X195112485Y-34471468D01*
X195112485Y-34471468D02*
X195083914Y-34500039D01*
X195083914Y-34500039D02*
X195055342Y-34557182D01*
X195055342Y-34557182D02*
X195055342Y-34785753D01*
X194826771Y-33842896D02*
X194798200Y-33871468D01*
X194798200Y-33871468D02*
X194769628Y-33957182D01*
X194769628Y-33957182D02*
X194769628Y-34014325D01*
X194769628Y-34014325D02*
X194798200Y-34100039D01*
X194798200Y-34100039D02*
X194855342Y-34157182D01*
X194855342Y-34157182D02*
X194912485Y-34185753D01*
X194912485Y-34185753D02*
X195026771Y-34214325D01*
X195026771Y-34214325D02*
X195112485Y-34214325D01*
X195112485Y-34214325D02*
X195226771Y-34185753D01*
X195226771Y-34185753D02*
X195283914Y-34157182D01*
X195283914Y-34157182D02*
X195341057Y-34100039D01*
X195341057Y-34100039D02*
X195369628Y-34014325D01*
X195369628Y-34014325D02*
X195369628Y-33957182D01*
X195369628Y-33957182D02*
X195341057Y-33871468D01*
X195341057Y-33871468D02*
X195312485Y-33842896D01*
X195369628Y-33214325D02*
X194769628Y-33014325D01*
X194769628Y-33014325D02*
X195369628Y-32814325D01*
X194826771Y-32271467D02*
X194798200Y-32300039D01*
X194798200Y-32300039D02*
X194769628Y-32385753D01*
X194769628Y-32385753D02*
X194769628Y-32442896D01*
X194769628Y-32442896D02*
X194798200Y-32528610D01*
X194798200Y-32528610D02*
X194855342Y-32585753D01*
X194855342Y-32585753D02*
X194912485Y-32614324D01*
X194912485Y-32614324D02*
X195026771Y-32642896D01*
X195026771Y-32642896D02*
X195112485Y-32642896D01*
X195112485Y-32642896D02*
X195226771Y-32614324D01*
X195226771Y-32614324D02*
X195283914Y-32585753D01*
X195283914Y-32585753D02*
X195341057Y-32528610D01*
X195341057Y-32528610D02*
X195369628Y-32442896D01*
X195369628Y-32442896D02*
X195369628Y-32385753D01*
X195369628Y-32385753D02*
X195341057Y-32300039D01*
X195341057Y-32300039D02*
X195312485Y-32271467D01*
X194826771Y-31671467D02*
X194798200Y-31700039D01*
X194798200Y-31700039D02*
X194769628Y-31785753D01*
X194769628Y-31785753D02*
X194769628Y-31842896D01*
X194769628Y-31842896D02*
X194798200Y-31928610D01*
X194798200Y-31928610D02*
X194855342Y-31985753D01*
X194855342Y-31985753D02*
X194912485Y-32014324D01*
X194912485Y-32014324D02*
X195026771Y-32042896D01*
X195026771Y-32042896D02*
X195112485Y-32042896D01*
X195112485Y-32042896D02*
X195226771Y-32014324D01*
X195226771Y-32014324D02*
X195283914Y-31985753D01*
X195283914Y-31985753D02*
X195341057Y-31928610D01*
X195341057Y-31928610D02*
X195369628Y-31842896D01*
X195369628Y-31842896D02*
X195369628Y-31785753D01*
X195369628Y-31785753D02*
X195341057Y-31700039D01*
X195341057Y-31700039D02*
X195312485Y-31671467D01*
X199652771Y-27168896D02*
X199624200Y-27197468D01*
X199624200Y-27197468D02*
X199595628Y-27283182D01*
X199595628Y-27283182D02*
X199595628Y-27340325D01*
X199595628Y-27340325D02*
X199624200Y-27426039D01*
X199624200Y-27426039D02*
X199681342Y-27483182D01*
X199681342Y-27483182D02*
X199738485Y-27511753D01*
X199738485Y-27511753D02*
X199852771Y-27540325D01*
X199852771Y-27540325D02*
X199938485Y-27540325D01*
X199938485Y-27540325D02*
X200052771Y-27511753D01*
X200052771Y-27511753D02*
X200109914Y-27483182D01*
X200109914Y-27483182D02*
X200167057Y-27426039D01*
X200167057Y-27426039D02*
X200195628Y-27340325D01*
X200195628Y-27340325D02*
X200195628Y-27283182D01*
X200195628Y-27283182D02*
X200167057Y-27197468D01*
X200167057Y-27197468D02*
X200138485Y-27168896D01*
X199595628Y-26911753D02*
X200195628Y-26911753D01*
X200195628Y-26911753D02*
X200195628Y-26683182D01*
X200195628Y-26683182D02*
X200167057Y-26626039D01*
X200167057Y-26626039D02*
X200138485Y-26597468D01*
X200138485Y-26597468D02*
X200081342Y-26568896D01*
X200081342Y-26568896D02*
X199995628Y-26568896D01*
X199995628Y-26568896D02*
X199938485Y-26597468D01*
X199938485Y-26597468D02*
X199909914Y-26626039D01*
X199909914Y-26626039D02*
X199881342Y-26683182D01*
X199881342Y-26683182D02*
X199881342Y-26911753D01*
X199652771Y-25968896D02*
X199624200Y-25997468D01*
X199624200Y-25997468D02*
X199595628Y-26083182D01*
X199595628Y-26083182D02*
X199595628Y-26140325D01*
X199595628Y-26140325D02*
X199624200Y-26226039D01*
X199624200Y-26226039D02*
X199681342Y-26283182D01*
X199681342Y-26283182D02*
X199738485Y-26311753D01*
X199738485Y-26311753D02*
X199852771Y-26340325D01*
X199852771Y-26340325D02*
X199938485Y-26340325D01*
X199938485Y-26340325D02*
X200052771Y-26311753D01*
X200052771Y-26311753D02*
X200109914Y-26283182D01*
X200109914Y-26283182D02*
X200167057Y-26226039D01*
X200167057Y-26226039D02*
X200195628Y-26140325D01*
X200195628Y-26140325D02*
X200195628Y-26083182D01*
X200195628Y-26083182D02*
X200167057Y-25997468D01*
X200167057Y-25997468D02*
X200138485Y-25968896D01*
X199624200Y-25283182D02*
X199595628Y-25197468D01*
X199595628Y-25197468D02*
X199595628Y-25054610D01*
X199595628Y-25054610D02*
X199624200Y-24997468D01*
X199624200Y-24997468D02*
X199652771Y-24968896D01*
X199652771Y-24968896D02*
X199709914Y-24940325D01*
X199709914Y-24940325D02*
X199767057Y-24940325D01*
X199767057Y-24940325D02*
X199824200Y-24968896D01*
X199824200Y-24968896D02*
X199852771Y-24997468D01*
X199852771Y-24997468D02*
X199881342Y-25054610D01*
X199881342Y-25054610D02*
X199909914Y-25168896D01*
X199909914Y-25168896D02*
X199938485Y-25226039D01*
X199938485Y-25226039D02*
X199967057Y-25254610D01*
X199967057Y-25254610D02*
X200024200Y-25283182D01*
X200024200Y-25283182D02*
X200081342Y-25283182D01*
X200081342Y-25283182D02*
X200138485Y-25254610D01*
X200138485Y-25254610D02*
X200167057Y-25226039D01*
X200167057Y-25226039D02*
X200195628Y-25168896D01*
X200195628Y-25168896D02*
X200195628Y-25026039D01*
X200195628Y-25026039D02*
X200167057Y-24940325D01*
X199595628Y-24683181D02*
X200195628Y-24683181D01*
X200195628Y-24683181D02*
X200195628Y-24540324D01*
X200195628Y-24540324D02*
X200167057Y-24454610D01*
X200167057Y-24454610D02*
X200109914Y-24397467D01*
X200109914Y-24397467D02*
X200052771Y-24368896D01*
X200052771Y-24368896D02*
X199938485Y-24340324D01*
X199938485Y-24340324D02*
X199852771Y-24340324D01*
X199852771Y-24340324D02*
X199738485Y-24368896D01*
X199738485Y-24368896D02*
X199681342Y-24397467D01*
X199681342Y-24397467D02*
X199624200Y-24454610D01*
X199624200Y-24454610D02*
X199595628Y-24540324D01*
X199595628Y-24540324D02*
X199595628Y-24683181D01*
X199767057Y-24111753D02*
X199767057Y-23826039D01*
X199595628Y-24168896D02*
X200195628Y-23968896D01*
X200195628Y-23968896D02*
X199595628Y-23768896D01*
X198671628Y-35598468D02*
X198671628Y-35255611D01*
X198071628Y-35427039D02*
X198671628Y-35427039D01*
X198071628Y-35055610D02*
X198671628Y-35055610D01*
X198671628Y-35055610D02*
X198671628Y-34827039D01*
X198671628Y-34827039D02*
X198643057Y-34769896D01*
X198643057Y-34769896D02*
X198614485Y-34741325D01*
X198614485Y-34741325D02*
X198557342Y-34712753D01*
X198557342Y-34712753D02*
X198471628Y-34712753D01*
X198471628Y-34712753D02*
X198414485Y-34741325D01*
X198414485Y-34741325D02*
X198385914Y-34769896D01*
X198385914Y-34769896D02*
X198357342Y-34827039D01*
X198357342Y-34827039D02*
X198357342Y-35055610D01*
X198071628Y-34455610D02*
X198671628Y-34455610D01*
X198385914Y-34455610D02*
X198385914Y-34112753D01*
X198071628Y-34112753D02*
X198671628Y-34112753D01*
X198643057Y-33055611D02*
X198671628Y-33112754D01*
X198671628Y-33112754D02*
X198671628Y-33198468D01*
X198671628Y-33198468D02*
X198643057Y-33284182D01*
X198643057Y-33284182D02*
X198585914Y-33341325D01*
X198585914Y-33341325D02*
X198528771Y-33369896D01*
X198528771Y-33369896D02*
X198414485Y-33398468D01*
X198414485Y-33398468D02*
X198328771Y-33398468D01*
X198328771Y-33398468D02*
X198214485Y-33369896D01*
X198214485Y-33369896D02*
X198157342Y-33341325D01*
X198157342Y-33341325D02*
X198100200Y-33284182D01*
X198100200Y-33284182D02*
X198071628Y-33198468D01*
X198071628Y-33198468D02*
X198071628Y-33141325D01*
X198071628Y-33141325D02*
X198100200Y-33055611D01*
X198100200Y-33055611D02*
X198128771Y-33027039D01*
X198128771Y-33027039D02*
X198328771Y-33027039D01*
X198328771Y-33027039D02*
X198328771Y-33141325D01*
X198071628Y-32769896D02*
X198671628Y-32769896D01*
X198671628Y-32769896D02*
X198071628Y-32427039D01*
X198071628Y-32427039D02*
X198671628Y-32427039D01*
X198071628Y-32141325D02*
X198671628Y-32141325D01*
X198671628Y-32141325D02*
X198671628Y-31998468D01*
X198671628Y-31998468D02*
X198643057Y-31912754D01*
X198643057Y-31912754D02*
X198585914Y-31855611D01*
X198585914Y-31855611D02*
X198528771Y-31827040D01*
X198528771Y-31827040D02*
X198414485Y-31798468D01*
X198414485Y-31798468D02*
X198328771Y-31798468D01*
X198328771Y-31798468D02*
X198214485Y-31827040D01*
X198214485Y-31827040D02*
X198157342Y-31855611D01*
X198157342Y-31855611D02*
X198100200Y-31912754D01*
X198100200Y-31912754D02*
X198071628Y-31998468D01*
X198071628Y-31998468D02*
X198071628Y-32141325D01*
X200200200Y-34449134D02*
X200152580Y-34306277D01*
X200152580Y-34306277D02*
X200152580Y-34068182D01*
X200152580Y-34068182D02*
X200200200Y-33972944D01*
X200200200Y-33972944D02*
X200247819Y-33925325D01*
X200247819Y-33925325D02*
X200343057Y-33877706D01*
X200343057Y-33877706D02*
X200438295Y-33877706D01*
X200438295Y-33877706D02*
X200533533Y-33925325D01*
X200533533Y-33925325D02*
X200581152Y-33972944D01*
X200581152Y-33972944D02*
X200628771Y-34068182D01*
X200628771Y-34068182D02*
X200676390Y-34258658D01*
X200676390Y-34258658D02*
X200724009Y-34353896D01*
X200724009Y-34353896D02*
X200771628Y-34401515D01*
X200771628Y-34401515D02*
X200866866Y-34449134D01*
X200866866Y-34449134D02*
X200962104Y-34449134D01*
X200962104Y-34449134D02*
X201057342Y-34401515D01*
X201057342Y-34401515D02*
X201104961Y-34353896D01*
X201104961Y-34353896D02*
X201152580Y-34258658D01*
X201152580Y-34258658D02*
X201152580Y-34020563D01*
X201152580Y-34020563D02*
X201104961Y-33877706D01*
X200247819Y-32877706D02*
X200200200Y-32925325D01*
X200200200Y-32925325D02*
X200152580Y-33068182D01*
X200152580Y-33068182D02*
X200152580Y-33163420D01*
X200152580Y-33163420D02*
X200200200Y-33306277D01*
X200200200Y-33306277D02*
X200295438Y-33401515D01*
X200295438Y-33401515D02*
X200390676Y-33449134D01*
X200390676Y-33449134D02*
X200581152Y-33496753D01*
X200581152Y-33496753D02*
X200724009Y-33496753D01*
X200724009Y-33496753D02*
X200914485Y-33449134D01*
X200914485Y-33449134D02*
X201009723Y-33401515D01*
X201009723Y-33401515D02*
X201104961Y-33306277D01*
X201104961Y-33306277D02*
X201152580Y-33163420D01*
X201152580Y-33163420D02*
X201152580Y-33068182D01*
X201152580Y-33068182D02*
X201104961Y-32925325D01*
X201104961Y-32925325D02*
X201057342Y-32877706D01*
X200152580Y-31972944D02*
X200152580Y-32449134D01*
X200152580Y-32449134D02*
X201152580Y-32449134D01*
X189730771Y-42789896D02*
X189702200Y-42818468D01*
X189702200Y-42818468D02*
X189673628Y-42904182D01*
X189673628Y-42904182D02*
X189673628Y-42961325D01*
X189673628Y-42961325D02*
X189702200Y-43047039D01*
X189702200Y-43047039D02*
X189759342Y-43104182D01*
X189759342Y-43104182D02*
X189816485Y-43132753D01*
X189816485Y-43132753D02*
X189930771Y-43161325D01*
X189930771Y-43161325D02*
X190016485Y-43161325D01*
X190016485Y-43161325D02*
X190130771Y-43132753D01*
X190130771Y-43132753D02*
X190187914Y-43104182D01*
X190187914Y-43104182D02*
X190245057Y-43047039D01*
X190245057Y-43047039D02*
X190273628Y-42961325D01*
X190273628Y-42961325D02*
X190273628Y-42904182D01*
X190273628Y-42904182D02*
X190245057Y-42818468D01*
X190245057Y-42818468D02*
X190216485Y-42789896D01*
X189673628Y-42532753D02*
X190273628Y-42532753D01*
X190273628Y-42532753D02*
X190273628Y-42304182D01*
X190273628Y-42304182D02*
X190245057Y-42247039D01*
X190245057Y-42247039D02*
X190216485Y-42218468D01*
X190216485Y-42218468D02*
X190159342Y-42189896D01*
X190159342Y-42189896D02*
X190073628Y-42189896D01*
X190073628Y-42189896D02*
X190016485Y-42218468D01*
X190016485Y-42218468D02*
X189987914Y-42247039D01*
X189987914Y-42247039D02*
X189959342Y-42304182D01*
X189959342Y-42304182D02*
X189959342Y-42532753D01*
X189730771Y-41589896D02*
X189702200Y-41618468D01*
X189702200Y-41618468D02*
X189673628Y-41704182D01*
X189673628Y-41704182D02*
X189673628Y-41761325D01*
X189673628Y-41761325D02*
X189702200Y-41847039D01*
X189702200Y-41847039D02*
X189759342Y-41904182D01*
X189759342Y-41904182D02*
X189816485Y-41932753D01*
X189816485Y-41932753D02*
X189930771Y-41961325D01*
X189930771Y-41961325D02*
X190016485Y-41961325D01*
X190016485Y-41961325D02*
X190130771Y-41932753D01*
X190130771Y-41932753D02*
X190187914Y-41904182D01*
X190187914Y-41904182D02*
X190245057Y-41847039D01*
X190245057Y-41847039D02*
X190273628Y-41761325D01*
X190273628Y-41761325D02*
X190273628Y-41704182D01*
X190273628Y-41704182D02*
X190245057Y-41618468D01*
X190245057Y-41618468D02*
X190216485Y-41589896D01*
X189730771Y-41332753D02*
X189702200Y-41304182D01*
X189702200Y-41304182D02*
X189673628Y-41332753D01*
X189673628Y-41332753D02*
X189702200Y-41361325D01*
X189702200Y-41361325D02*
X189730771Y-41332753D01*
X189730771Y-41332753D02*
X189673628Y-41332753D01*
X190045057Y-41332753D02*
X190016485Y-41304182D01*
X190016485Y-41304182D02*
X189987914Y-41332753D01*
X189987914Y-41332753D02*
X190016485Y-41361325D01*
X190016485Y-41361325D02*
X190045057Y-41332753D01*
X190045057Y-41332753D02*
X189987914Y-41332753D01*
X189702200Y-40618468D02*
X189673628Y-40532754D01*
X189673628Y-40532754D02*
X189673628Y-40389896D01*
X189673628Y-40389896D02*
X189702200Y-40332754D01*
X189702200Y-40332754D02*
X189730771Y-40304182D01*
X189730771Y-40304182D02*
X189787914Y-40275611D01*
X189787914Y-40275611D02*
X189845057Y-40275611D01*
X189845057Y-40275611D02*
X189902200Y-40304182D01*
X189902200Y-40304182D02*
X189930771Y-40332754D01*
X189930771Y-40332754D02*
X189959342Y-40389896D01*
X189959342Y-40389896D02*
X189987914Y-40504182D01*
X189987914Y-40504182D02*
X190016485Y-40561325D01*
X190016485Y-40561325D02*
X190045057Y-40589896D01*
X190045057Y-40589896D02*
X190102200Y-40618468D01*
X190102200Y-40618468D02*
X190159342Y-40618468D01*
X190159342Y-40618468D02*
X190216485Y-40589896D01*
X190216485Y-40589896D02*
X190245057Y-40561325D01*
X190245057Y-40561325D02*
X190273628Y-40504182D01*
X190273628Y-40504182D02*
X190273628Y-40361325D01*
X190273628Y-40361325D02*
X190245057Y-40275611D01*
X189673628Y-40018467D02*
X190273628Y-40018467D01*
X190273628Y-40018467D02*
X190273628Y-39875610D01*
X190273628Y-39875610D02*
X190245057Y-39789896D01*
X190245057Y-39789896D02*
X190187914Y-39732753D01*
X190187914Y-39732753D02*
X190130771Y-39704182D01*
X190130771Y-39704182D02*
X190016485Y-39675610D01*
X190016485Y-39675610D02*
X189930771Y-39675610D01*
X189930771Y-39675610D02*
X189816485Y-39704182D01*
X189816485Y-39704182D02*
X189759342Y-39732753D01*
X189759342Y-39732753D02*
X189702200Y-39789896D01*
X189702200Y-39789896D02*
X189673628Y-39875610D01*
X189673628Y-39875610D02*
X189673628Y-40018467D01*
X189845057Y-39447039D02*
X189845057Y-39161325D01*
X189673628Y-39504182D02*
X190273628Y-39304182D01*
X190273628Y-39304182D02*
X189673628Y-39104182D01*
X189702200Y-38875610D02*
X189673628Y-38875610D01*
X189673628Y-38875610D02*
X189616485Y-38904181D01*
X189616485Y-38904181D02*
X189587914Y-38932753D01*
X189702200Y-38189896D02*
X189673628Y-38104182D01*
X189673628Y-38104182D02*
X189673628Y-37961324D01*
X189673628Y-37961324D02*
X189702200Y-37904182D01*
X189702200Y-37904182D02*
X189730771Y-37875610D01*
X189730771Y-37875610D02*
X189787914Y-37847039D01*
X189787914Y-37847039D02*
X189845057Y-37847039D01*
X189845057Y-37847039D02*
X189902200Y-37875610D01*
X189902200Y-37875610D02*
X189930771Y-37904182D01*
X189930771Y-37904182D02*
X189959342Y-37961324D01*
X189959342Y-37961324D02*
X189987914Y-38075610D01*
X189987914Y-38075610D02*
X190016485Y-38132753D01*
X190016485Y-38132753D02*
X190045057Y-38161324D01*
X190045057Y-38161324D02*
X190102200Y-38189896D01*
X190102200Y-38189896D02*
X190159342Y-38189896D01*
X190159342Y-38189896D02*
X190216485Y-38161324D01*
X190216485Y-38161324D02*
X190245057Y-38132753D01*
X190245057Y-38132753D02*
X190273628Y-38075610D01*
X190273628Y-38075610D02*
X190273628Y-37932753D01*
X190273628Y-37932753D02*
X190245057Y-37847039D01*
X189730771Y-37247038D02*
X189702200Y-37275610D01*
X189702200Y-37275610D02*
X189673628Y-37361324D01*
X189673628Y-37361324D02*
X189673628Y-37418467D01*
X189673628Y-37418467D02*
X189702200Y-37504181D01*
X189702200Y-37504181D02*
X189759342Y-37561324D01*
X189759342Y-37561324D02*
X189816485Y-37589895D01*
X189816485Y-37589895D02*
X189930771Y-37618467D01*
X189930771Y-37618467D02*
X190016485Y-37618467D01*
X190016485Y-37618467D02*
X190130771Y-37589895D01*
X190130771Y-37589895D02*
X190187914Y-37561324D01*
X190187914Y-37561324D02*
X190245057Y-37504181D01*
X190245057Y-37504181D02*
X190273628Y-37418467D01*
X190273628Y-37418467D02*
X190273628Y-37361324D01*
X190273628Y-37361324D02*
X190245057Y-37275610D01*
X190245057Y-37275610D02*
X190216485Y-37247038D01*
X189673628Y-36704181D02*
X189673628Y-36989895D01*
X189673628Y-36989895D02*
X190273628Y-36989895D01*
X189702200Y-36475610D02*
X189673628Y-36475610D01*
X189673628Y-36475610D02*
X189616485Y-36504181D01*
X189616485Y-36504181D02*
X189587914Y-36532753D01*
X190273628Y-35847039D02*
X189673628Y-35647039D01*
X189673628Y-35647039D02*
X190273628Y-35447039D01*
X189730771Y-34904181D02*
X189702200Y-34932753D01*
X189702200Y-34932753D02*
X189673628Y-35018467D01*
X189673628Y-35018467D02*
X189673628Y-35075610D01*
X189673628Y-35075610D02*
X189702200Y-35161324D01*
X189702200Y-35161324D02*
X189759342Y-35218467D01*
X189759342Y-35218467D02*
X189816485Y-35247038D01*
X189816485Y-35247038D02*
X189930771Y-35275610D01*
X189930771Y-35275610D02*
X190016485Y-35275610D01*
X190016485Y-35275610D02*
X190130771Y-35247038D01*
X190130771Y-35247038D02*
X190187914Y-35218467D01*
X190187914Y-35218467D02*
X190245057Y-35161324D01*
X190245057Y-35161324D02*
X190273628Y-35075610D01*
X190273628Y-35075610D02*
X190273628Y-35018467D01*
X190273628Y-35018467D02*
X190245057Y-34932753D01*
X190245057Y-34932753D02*
X190216485Y-34904181D01*
X189730771Y-34304181D02*
X189702200Y-34332753D01*
X189702200Y-34332753D02*
X189673628Y-34418467D01*
X189673628Y-34418467D02*
X189673628Y-34475610D01*
X189673628Y-34475610D02*
X189702200Y-34561324D01*
X189702200Y-34561324D02*
X189759342Y-34618467D01*
X189759342Y-34618467D02*
X189816485Y-34647038D01*
X189816485Y-34647038D02*
X189930771Y-34675610D01*
X189930771Y-34675610D02*
X190016485Y-34675610D01*
X190016485Y-34675610D02*
X190130771Y-34647038D01*
X190130771Y-34647038D02*
X190187914Y-34618467D01*
X190187914Y-34618467D02*
X190245057Y-34561324D01*
X190245057Y-34561324D02*
X190273628Y-34475610D01*
X190273628Y-34475610D02*
X190273628Y-34418467D01*
X190273628Y-34418467D02*
X190245057Y-34332753D01*
X190245057Y-34332753D02*
X190216485Y-34304181D01*
X189702200Y-34018467D02*
X189673628Y-34018467D01*
X189673628Y-34018467D02*
X189616485Y-34047038D01*
X189616485Y-34047038D02*
X189587914Y-34075610D01*
X190245057Y-32989896D02*
X190273628Y-33047039D01*
X190273628Y-33047039D02*
X190273628Y-33132753D01*
X190273628Y-33132753D02*
X190245057Y-33218467D01*
X190245057Y-33218467D02*
X190187914Y-33275610D01*
X190187914Y-33275610D02*
X190130771Y-33304181D01*
X190130771Y-33304181D02*
X190016485Y-33332753D01*
X190016485Y-33332753D02*
X189930771Y-33332753D01*
X189930771Y-33332753D02*
X189816485Y-33304181D01*
X189816485Y-33304181D02*
X189759342Y-33275610D01*
X189759342Y-33275610D02*
X189702200Y-33218467D01*
X189702200Y-33218467D02*
X189673628Y-33132753D01*
X189673628Y-33132753D02*
X189673628Y-33075610D01*
X189673628Y-33075610D02*
X189702200Y-32989896D01*
X189702200Y-32989896D02*
X189730771Y-32961324D01*
X189730771Y-32961324D02*
X189930771Y-32961324D01*
X189930771Y-32961324D02*
X189930771Y-33075610D01*
X189673628Y-32704181D02*
X190273628Y-32704181D01*
X190273628Y-32704181D02*
X189673628Y-32361324D01*
X189673628Y-32361324D02*
X190273628Y-32361324D01*
X189673628Y-32075610D02*
X190273628Y-32075610D01*
X190273628Y-32075610D02*
X190273628Y-31932753D01*
X190273628Y-31932753D02*
X190245057Y-31847039D01*
X190245057Y-31847039D02*
X190187914Y-31789896D01*
X190187914Y-31789896D02*
X190130771Y-31761325D01*
X190130771Y-31761325D02*
X190016485Y-31732753D01*
X190016485Y-31732753D02*
X189930771Y-31732753D01*
X189930771Y-31732753D02*
X189816485Y-31761325D01*
X189816485Y-31761325D02*
X189759342Y-31789896D01*
X189759342Y-31789896D02*
X189702200Y-31847039D01*
X189702200Y-31847039D02*
X189673628Y-31932753D01*
X189673628Y-31932753D02*
X189673628Y-32075610D01*
X201211628Y-27851468D02*
X201211628Y-27508611D01*
X200611628Y-27680039D02*
X201211628Y-27680039D01*
X200611628Y-27308610D02*
X201211628Y-27308610D01*
X201211628Y-27308610D02*
X201211628Y-27080039D01*
X201211628Y-27080039D02*
X201183057Y-27022896D01*
X201183057Y-27022896D02*
X201154485Y-26994325D01*
X201154485Y-26994325D02*
X201097342Y-26965753D01*
X201097342Y-26965753D02*
X201011628Y-26965753D01*
X201011628Y-26965753D02*
X200954485Y-26994325D01*
X200954485Y-26994325D02*
X200925914Y-27022896D01*
X200925914Y-27022896D02*
X200897342Y-27080039D01*
X200897342Y-27080039D02*
X200897342Y-27308610D01*
X200611628Y-26708610D02*
X201211628Y-26708610D01*
X200925914Y-26708610D02*
X200925914Y-26365753D01*
X200611628Y-26365753D02*
X201211628Y-26365753D01*
X201211628Y-25708611D02*
X200611628Y-25508611D01*
X200611628Y-25508611D02*
X201211628Y-25308611D01*
X200668771Y-24765753D02*
X200640200Y-24794325D01*
X200640200Y-24794325D02*
X200611628Y-24880039D01*
X200611628Y-24880039D02*
X200611628Y-24937182D01*
X200611628Y-24937182D02*
X200640200Y-25022896D01*
X200640200Y-25022896D02*
X200697342Y-25080039D01*
X200697342Y-25080039D02*
X200754485Y-25108610D01*
X200754485Y-25108610D02*
X200868771Y-25137182D01*
X200868771Y-25137182D02*
X200954485Y-25137182D01*
X200954485Y-25137182D02*
X201068771Y-25108610D01*
X201068771Y-25108610D02*
X201125914Y-25080039D01*
X201125914Y-25080039D02*
X201183057Y-25022896D01*
X201183057Y-25022896D02*
X201211628Y-24937182D01*
X201211628Y-24937182D02*
X201211628Y-24880039D01*
X201211628Y-24880039D02*
X201183057Y-24794325D01*
X201183057Y-24794325D02*
X201154485Y-24765753D01*
X200668771Y-24165753D02*
X200640200Y-24194325D01*
X200640200Y-24194325D02*
X200611628Y-24280039D01*
X200611628Y-24280039D02*
X200611628Y-24337182D01*
X200611628Y-24337182D02*
X200640200Y-24422896D01*
X200640200Y-24422896D02*
X200697342Y-24480039D01*
X200697342Y-24480039D02*
X200754485Y-24508610D01*
X200754485Y-24508610D02*
X200868771Y-24537182D01*
X200868771Y-24537182D02*
X200954485Y-24537182D01*
X200954485Y-24537182D02*
X201068771Y-24508610D01*
X201068771Y-24508610D02*
X201125914Y-24480039D01*
X201125914Y-24480039D02*
X201183057Y-24422896D01*
X201183057Y-24422896D02*
X201211628Y-24337182D01*
X201211628Y-24337182D02*
X201211628Y-24280039D01*
X201211628Y-24280039D02*
X201183057Y-24194325D01*
X201183057Y-24194325D02*
X201154485Y-24165753D01*
X195643961Y-27146706D02*
X195691580Y-27241944D01*
X195691580Y-27241944D02*
X195691580Y-27384801D01*
X195691580Y-27384801D02*
X195643961Y-27527658D01*
X195643961Y-27527658D02*
X195548723Y-27622896D01*
X195548723Y-27622896D02*
X195453485Y-27670515D01*
X195453485Y-27670515D02*
X195263009Y-27718134D01*
X195263009Y-27718134D02*
X195120152Y-27718134D01*
X195120152Y-27718134D02*
X194929676Y-27670515D01*
X194929676Y-27670515D02*
X194834438Y-27622896D01*
X194834438Y-27622896D02*
X194739200Y-27527658D01*
X194739200Y-27527658D02*
X194691580Y-27384801D01*
X194691580Y-27384801D02*
X194691580Y-27289563D01*
X194691580Y-27289563D02*
X194739200Y-27146706D01*
X194739200Y-27146706D02*
X194786819Y-27099087D01*
X194786819Y-27099087D02*
X195120152Y-27099087D01*
X195120152Y-27099087D02*
X195120152Y-27289563D01*
X194691580Y-26670515D02*
X195691580Y-26670515D01*
X195691580Y-26670515D02*
X194691580Y-26099087D01*
X194691580Y-26099087D02*
X195691580Y-26099087D01*
X194691580Y-25622896D02*
X195691580Y-25622896D01*
X195691580Y-25622896D02*
X195691580Y-25384801D01*
X195691580Y-25384801D02*
X195643961Y-25241944D01*
X195643961Y-25241944D02*
X195548723Y-25146706D01*
X195548723Y-25146706D02*
X195453485Y-25099087D01*
X195453485Y-25099087D02*
X195263009Y-25051468D01*
X195263009Y-25051468D02*
X195120152Y-25051468D01*
X195120152Y-25051468D02*
X194929676Y-25099087D01*
X194929676Y-25099087D02*
X194834438Y-25146706D01*
X194834438Y-25146706D02*
X194739200Y-25241944D01*
X194739200Y-25241944D02*
X194691580Y-25384801D01*
X194691580Y-25384801D02*
X194691580Y-25622896D01*
X201073319Y-36814587D02*
X201025700Y-36862206D01*
X201025700Y-36862206D02*
X200978080Y-37005063D01*
X200978080Y-37005063D02*
X200978080Y-37100301D01*
X200978080Y-37100301D02*
X201025700Y-37243158D01*
X201025700Y-37243158D02*
X201120938Y-37338396D01*
X201120938Y-37338396D02*
X201216176Y-37386015D01*
X201216176Y-37386015D02*
X201406652Y-37433634D01*
X201406652Y-37433634D02*
X201549509Y-37433634D01*
X201549509Y-37433634D02*
X201739985Y-37386015D01*
X201739985Y-37386015D02*
X201835223Y-37338396D01*
X201835223Y-37338396D02*
X201930461Y-37243158D01*
X201930461Y-37243158D02*
X201978080Y-37100301D01*
X201978080Y-37100301D02*
X201978080Y-37005063D01*
X201978080Y-37005063D02*
X201930461Y-36862206D01*
X201930461Y-36862206D02*
X201882842Y-36814587D01*
X200978080Y-36386015D02*
X201978080Y-36386015D01*
X201978080Y-36386015D02*
X201978080Y-36005063D01*
X201978080Y-36005063D02*
X201930461Y-35909825D01*
X201930461Y-35909825D02*
X201882842Y-35862206D01*
X201882842Y-35862206D02*
X201787604Y-35814587D01*
X201787604Y-35814587D02*
X201644747Y-35814587D01*
X201644747Y-35814587D02*
X201549509Y-35862206D01*
X201549509Y-35862206D02*
X201501890Y-35909825D01*
X201501890Y-35909825D02*
X201454271Y-36005063D01*
X201454271Y-36005063D02*
X201454271Y-36386015D01*
X201073319Y-34814587D02*
X201025700Y-34862206D01*
X201025700Y-34862206D02*
X200978080Y-35005063D01*
X200978080Y-35005063D02*
X200978080Y-35100301D01*
X200978080Y-35100301D02*
X201025700Y-35243158D01*
X201025700Y-35243158D02*
X201120938Y-35338396D01*
X201120938Y-35338396D02*
X201216176Y-35386015D01*
X201216176Y-35386015D02*
X201406652Y-35433634D01*
X201406652Y-35433634D02*
X201549509Y-35433634D01*
X201549509Y-35433634D02*
X201739985Y-35386015D01*
X201739985Y-35386015D02*
X201835223Y-35338396D01*
X201835223Y-35338396D02*
X201930461Y-35243158D01*
X201930461Y-35243158D02*
X201978080Y-35100301D01*
X201978080Y-35100301D02*
X201978080Y-35005063D01*
X201978080Y-35005063D02*
X201930461Y-34862206D01*
X201930461Y-34862206D02*
X201882842Y-34814587D01*
X193278580Y-34671372D02*
X192278580Y-34338039D01*
X192278580Y-34338039D02*
X193278580Y-34004706D01*
X192373819Y-33099944D02*
X192326200Y-33147563D01*
X192326200Y-33147563D02*
X192278580Y-33290420D01*
X192278580Y-33290420D02*
X192278580Y-33385658D01*
X192278580Y-33385658D02*
X192326200Y-33528515D01*
X192326200Y-33528515D02*
X192421438Y-33623753D01*
X192421438Y-33623753D02*
X192516676Y-33671372D01*
X192516676Y-33671372D02*
X192707152Y-33718991D01*
X192707152Y-33718991D02*
X192850009Y-33718991D01*
X192850009Y-33718991D02*
X193040485Y-33671372D01*
X193040485Y-33671372D02*
X193135723Y-33623753D01*
X193135723Y-33623753D02*
X193230961Y-33528515D01*
X193230961Y-33528515D02*
X193278580Y-33385658D01*
X193278580Y-33385658D02*
X193278580Y-33290420D01*
X193278580Y-33290420D02*
X193230961Y-33147563D01*
X193230961Y-33147563D02*
X193183342Y-33099944D01*
X192373819Y-32099944D02*
X192326200Y-32147563D01*
X192326200Y-32147563D02*
X192278580Y-32290420D01*
X192278580Y-32290420D02*
X192278580Y-32385658D01*
X192278580Y-32385658D02*
X192326200Y-32528515D01*
X192326200Y-32528515D02*
X192421438Y-32623753D01*
X192421438Y-32623753D02*
X192516676Y-32671372D01*
X192516676Y-32671372D02*
X192707152Y-32718991D01*
X192707152Y-32718991D02*
X192850009Y-32718991D01*
X192850009Y-32718991D02*
X193040485Y-32671372D01*
X193040485Y-32671372D02*
X193135723Y-32623753D01*
X193135723Y-32623753D02*
X193230961Y-32528515D01*
X193230961Y-32528515D02*
X193278580Y-32385658D01*
X193278580Y-32385658D02*
X193278580Y-32290420D01*
X193278580Y-32290420D02*
X193230961Y-32147563D01*
X193230961Y-32147563D02*
X193183342Y-32099944D01*
X202041580Y-41402372D02*
X202041580Y-40830944D01*
X201041580Y-41116658D02*
X202041580Y-41116658D01*
X201041580Y-40497610D02*
X202041580Y-40497610D01*
X202041580Y-40497610D02*
X202041580Y-40116658D01*
X202041580Y-40116658D02*
X201993961Y-40021420D01*
X201993961Y-40021420D02*
X201946342Y-39973801D01*
X201946342Y-39973801D02*
X201851104Y-39926182D01*
X201851104Y-39926182D02*
X201708247Y-39926182D01*
X201708247Y-39926182D02*
X201613009Y-39973801D01*
X201613009Y-39973801D02*
X201565390Y-40021420D01*
X201565390Y-40021420D02*
X201517771Y-40116658D01*
X201517771Y-40116658D02*
X201517771Y-40497610D01*
X201041580Y-39497610D02*
X202041580Y-39497610D01*
X201565390Y-39497610D02*
X201565390Y-38926182D01*
X201041580Y-38926182D02*
X202041580Y-38926182D01*
X193083628Y-27724468D02*
X193083628Y-27381611D01*
X192483628Y-27553039D02*
X193083628Y-27553039D01*
X192483628Y-27181610D02*
X193083628Y-27181610D01*
X193083628Y-27181610D02*
X193083628Y-26953039D01*
X193083628Y-26953039D02*
X193055057Y-26895896D01*
X193055057Y-26895896D02*
X193026485Y-26867325D01*
X193026485Y-26867325D02*
X192969342Y-26838753D01*
X192969342Y-26838753D02*
X192883628Y-26838753D01*
X192883628Y-26838753D02*
X192826485Y-26867325D01*
X192826485Y-26867325D02*
X192797914Y-26895896D01*
X192797914Y-26895896D02*
X192769342Y-26953039D01*
X192769342Y-26953039D02*
X192769342Y-27181610D01*
X192483628Y-26581610D02*
X193083628Y-26581610D01*
X192797914Y-26581610D02*
X192797914Y-26238753D01*
X192483628Y-26238753D02*
X193083628Y-26238753D01*
X192512200Y-25524468D02*
X192483628Y-25438754D01*
X192483628Y-25438754D02*
X192483628Y-25295896D01*
X192483628Y-25295896D02*
X192512200Y-25238754D01*
X192512200Y-25238754D02*
X192540771Y-25210182D01*
X192540771Y-25210182D02*
X192597914Y-25181611D01*
X192597914Y-25181611D02*
X192655057Y-25181611D01*
X192655057Y-25181611D02*
X192712200Y-25210182D01*
X192712200Y-25210182D02*
X192740771Y-25238754D01*
X192740771Y-25238754D02*
X192769342Y-25295896D01*
X192769342Y-25295896D02*
X192797914Y-25410182D01*
X192797914Y-25410182D02*
X192826485Y-25467325D01*
X192826485Y-25467325D02*
X192855057Y-25495896D01*
X192855057Y-25495896D02*
X192912200Y-25524468D01*
X192912200Y-25524468D02*
X192969342Y-25524468D01*
X192969342Y-25524468D02*
X193026485Y-25495896D01*
X193026485Y-25495896D02*
X193055057Y-25467325D01*
X193055057Y-25467325D02*
X193083628Y-25410182D01*
X193083628Y-25410182D02*
X193083628Y-25267325D01*
X193083628Y-25267325D02*
X193055057Y-25181611D01*
X192540771Y-24581610D02*
X192512200Y-24610182D01*
X192512200Y-24610182D02*
X192483628Y-24695896D01*
X192483628Y-24695896D02*
X192483628Y-24753039D01*
X192483628Y-24753039D02*
X192512200Y-24838753D01*
X192512200Y-24838753D02*
X192569342Y-24895896D01*
X192569342Y-24895896D02*
X192626485Y-24924467D01*
X192626485Y-24924467D02*
X192740771Y-24953039D01*
X192740771Y-24953039D02*
X192826485Y-24953039D01*
X192826485Y-24953039D02*
X192940771Y-24924467D01*
X192940771Y-24924467D02*
X192997914Y-24895896D01*
X192997914Y-24895896D02*
X193055057Y-24838753D01*
X193055057Y-24838753D02*
X193083628Y-24753039D01*
X193083628Y-24753039D02*
X193083628Y-24695896D01*
X193083628Y-24695896D02*
X193055057Y-24610182D01*
X193055057Y-24610182D02*
X193026485Y-24581610D01*
X192483628Y-24038753D02*
X192483628Y-24324467D01*
X192483628Y-24324467D02*
X193083628Y-24324467D01*
X190924628Y-41821468D02*
X190924628Y-41478611D01*
X190324628Y-41650039D02*
X190924628Y-41650039D01*
X190324628Y-41278610D02*
X190924628Y-41278610D01*
X190924628Y-41278610D02*
X190924628Y-41050039D01*
X190924628Y-41050039D02*
X190896057Y-40992896D01*
X190896057Y-40992896D02*
X190867485Y-40964325D01*
X190867485Y-40964325D02*
X190810342Y-40935753D01*
X190810342Y-40935753D02*
X190724628Y-40935753D01*
X190724628Y-40935753D02*
X190667485Y-40964325D01*
X190667485Y-40964325D02*
X190638914Y-40992896D01*
X190638914Y-40992896D02*
X190610342Y-41050039D01*
X190610342Y-41050039D02*
X190610342Y-41278610D01*
X190324628Y-40678610D02*
X190924628Y-40678610D01*
X190638914Y-40678610D02*
X190638914Y-40335753D01*
X190324628Y-40335753D02*
X190924628Y-40335753D01*
X190381771Y-40050039D02*
X190353200Y-40021468D01*
X190353200Y-40021468D02*
X190324628Y-40050039D01*
X190324628Y-40050039D02*
X190353200Y-40078611D01*
X190353200Y-40078611D02*
X190381771Y-40050039D01*
X190381771Y-40050039D02*
X190324628Y-40050039D01*
X190696057Y-40050039D02*
X190667485Y-40021468D01*
X190667485Y-40021468D02*
X190638914Y-40050039D01*
X190638914Y-40050039D02*
X190667485Y-40078611D01*
X190667485Y-40078611D02*
X190696057Y-40050039D01*
X190696057Y-40050039D02*
X190638914Y-40050039D01*
X190924628Y-39392897D02*
X190324628Y-39192897D01*
X190324628Y-39192897D02*
X190924628Y-38992897D01*
X190381771Y-38450039D02*
X190353200Y-38478611D01*
X190353200Y-38478611D02*
X190324628Y-38564325D01*
X190324628Y-38564325D02*
X190324628Y-38621468D01*
X190324628Y-38621468D02*
X190353200Y-38707182D01*
X190353200Y-38707182D02*
X190410342Y-38764325D01*
X190410342Y-38764325D02*
X190467485Y-38792896D01*
X190467485Y-38792896D02*
X190581771Y-38821468D01*
X190581771Y-38821468D02*
X190667485Y-38821468D01*
X190667485Y-38821468D02*
X190781771Y-38792896D01*
X190781771Y-38792896D02*
X190838914Y-38764325D01*
X190838914Y-38764325D02*
X190896057Y-38707182D01*
X190896057Y-38707182D02*
X190924628Y-38621468D01*
X190924628Y-38621468D02*
X190924628Y-38564325D01*
X190924628Y-38564325D02*
X190896057Y-38478611D01*
X190896057Y-38478611D02*
X190867485Y-38450039D01*
X190381771Y-37850039D02*
X190353200Y-37878611D01*
X190353200Y-37878611D02*
X190324628Y-37964325D01*
X190324628Y-37964325D02*
X190324628Y-38021468D01*
X190324628Y-38021468D02*
X190353200Y-38107182D01*
X190353200Y-38107182D02*
X190410342Y-38164325D01*
X190410342Y-38164325D02*
X190467485Y-38192896D01*
X190467485Y-38192896D02*
X190581771Y-38221468D01*
X190581771Y-38221468D02*
X190667485Y-38221468D01*
X190667485Y-38221468D02*
X190781771Y-38192896D01*
X190781771Y-38192896D02*
X190838914Y-38164325D01*
X190838914Y-38164325D02*
X190896057Y-38107182D01*
X190896057Y-38107182D02*
X190924628Y-38021468D01*
X190924628Y-38021468D02*
X190924628Y-37964325D01*
X190924628Y-37964325D02*
X190896057Y-37878611D01*
X190896057Y-37878611D02*
X190867485Y-37850039D01*
X190353200Y-37564325D02*
X190324628Y-37564325D01*
X190324628Y-37564325D02*
X190267485Y-37592896D01*
X190267485Y-37592896D02*
X190238914Y-37621468D01*
X190896057Y-36535754D02*
X190924628Y-36592897D01*
X190924628Y-36592897D02*
X190924628Y-36678611D01*
X190924628Y-36678611D02*
X190896057Y-36764325D01*
X190896057Y-36764325D02*
X190838914Y-36821468D01*
X190838914Y-36821468D02*
X190781771Y-36850039D01*
X190781771Y-36850039D02*
X190667485Y-36878611D01*
X190667485Y-36878611D02*
X190581771Y-36878611D01*
X190581771Y-36878611D02*
X190467485Y-36850039D01*
X190467485Y-36850039D02*
X190410342Y-36821468D01*
X190410342Y-36821468D02*
X190353200Y-36764325D01*
X190353200Y-36764325D02*
X190324628Y-36678611D01*
X190324628Y-36678611D02*
X190324628Y-36621468D01*
X190324628Y-36621468D02*
X190353200Y-36535754D01*
X190353200Y-36535754D02*
X190381771Y-36507182D01*
X190381771Y-36507182D02*
X190581771Y-36507182D01*
X190581771Y-36507182D02*
X190581771Y-36621468D01*
X190324628Y-36250039D02*
X190924628Y-36250039D01*
X190924628Y-36250039D02*
X190324628Y-35907182D01*
X190324628Y-35907182D02*
X190924628Y-35907182D01*
X190324628Y-35621468D02*
X190924628Y-35621468D01*
X190924628Y-35621468D02*
X190924628Y-35478611D01*
X190924628Y-35478611D02*
X190896057Y-35392897D01*
X190896057Y-35392897D02*
X190838914Y-35335754D01*
X190838914Y-35335754D02*
X190781771Y-35307183D01*
X190781771Y-35307183D02*
X190667485Y-35278611D01*
X190667485Y-35278611D02*
X190581771Y-35278611D01*
X190581771Y-35278611D02*
X190467485Y-35307183D01*
X190467485Y-35307183D02*
X190410342Y-35335754D01*
X190410342Y-35335754D02*
X190353200Y-35392897D01*
X190353200Y-35392897D02*
X190324628Y-35478611D01*
X190324628Y-35478611D02*
X190324628Y-35621468D01*
X190353200Y-34992897D02*
X190324628Y-34992897D01*
X190324628Y-34992897D02*
X190267485Y-35021468D01*
X190267485Y-35021468D02*
X190238914Y-35050040D01*
X190353200Y-34307183D02*
X190324628Y-34221469D01*
X190324628Y-34221469D02*
X190324628Y-34078611D01*
X190324628Y-34078611D02*
X190353200Y-34021469D01*
X190353200Y-34021469D02*
X190381771Y-33992897D01*
X190381771Y-33992897D02*
X190438914Y-33964326D01*
X190438914Y-33964326D02*
X190496057Y-33964326D01*
X190496057Y-33964326D02*
X190553200Y-33992897D01*
X190553200Y-33992897D02*
X190581771Y-34021469D01*
X190581771Y-34021469D02*
X190610342Y-34078611D01*
X190610342Y-34078611D02*
X190638914Y-34192897D01*
X190638914Y-34192897D02*
X190667485Y-34250040D01*
X190667485Y-34250040D02*
X190696057Y-34278611D01*
X190696057Y-34278611D02*
X190753200Y-34307183D01*
X190753200Y-34307183D02*
X190810342Y-34307183D01*
X190810342Y-34307183D02*
X190867485Y-34278611D01*
X190867485Y-34278611D02*
X190896057Y-34250040D01*
X190896057Y-34250040D02*
X190924628Y-34192897D01*
X190924628Y-34192897D02*
X190924628Y-34050040D01*
X190924628Y-34050040D02*
X190896057Y-33964326D01*
X190324628Y-33707182D02*
X190924628Y-33707182D01*
X190924628Y-33707182D02*
X190924628Y-33564325D01*
X190924628Y-33564325D02*
X190896057Y-33478611D01*
X190896057Y-33478611D02*
X190838914Y-33421468D01*
X190838914Y-33421468D02*
X190781771Y-33392897D01*
X190781771Y-33392897D02*
X190667485Y-33364325D01*
X190667485Y-33364325D02*
X190581771Y-33364325D01*
X190581771Y-33364325D02*
X190467485Y-33392897D01*
X190467485Y-33392897D02*
X190410342Y-33421468D01*
X190410342Y-33421468D02*
X190353200Y-33478611D01*
X190353200Y-33478611D02*
X190324628Y-33564325D01*
X190324628Y-33564325D02*
X190324628Y-33707182D01*
X190496057Y-33135754D02*
X190496057Y-32850040D01*
X190324628Y-33192897D02*
X190924628Y-32992897D01*
X190924628Y-32992897D02*
X190324628Y-32792897D01*
X190353200Y-32564325D02*
X190324628Y-32564325D01*
X190324628Y-32564325D02*
X190267485Y-32592896D01*
X190267485Y-32592896D02*
X190238914Y-32621468D01*
X190353200Y-31878611D02*
X190324628Y-31792897D01*
X190324628Y-31792897D02*
X190324628Y-31650039D01*
X190324628Y-31650039D02*
X190353200Y-31592897D01*
X190353200Y-31592897D02*
X190381771Y-31564325D01*
X190381771Y-31564325D02*
X190438914Y-31535754D01*
X190438914Y-31535754D02*
X190496057Y-31535754D01*
X190496057Y-31535754D02*
X190553200Y-31564325D01*
X190553200Y-31564325D02*
X190581771Y-31592897D01*
X190581771Y-31592897D02*
X190610342Y-31650039D01*
X190610342Y-31650039D02*
X190638914Y-31764325D01*
X190638914Y-31764325D02*
X190667485Y-31821468D01*
X190667485Y-31821468D02*
X190696057Y-31850039D01*
X190696057Y-31850039D02*
X190753200Y-31878611D01*
X190753200Y-31878611D02*
X190810342Y-31878611D01*
X190810342Y-31878611D02*
X190867485Y-31850039D01*
X190867485Y-31850039D02*
X190896057Y-31821468D01*
X190896057Y-31821468D02*
X190924628Y-31764325D01*
X190924628Y-31764325D02*
X190924628Y-31621468D01*
X190924628Y-31621468D02*
X190896057Y-31535754D01*
X190381771Y-30935753D02*
X190353200Y-30964325D01*
X190353200Y-30964325D02*
X190324628Y-31050039D01*
X190324628Y-31050039D02*
X190324628Y-31107182D01*
X190324628Y-31107182D02*
X190353200Y-31192896D01*
X190353200Y-31192896D02*
X190410342Y-31250039D01*
X190410342Y-31250039D02*
X190467485Y-31278610D01*
X190467485Y-31278610D02*
X190581771Y-31307182D01*
X190581771Y-31307182D02*
X190667485Y-31307182D01*
X190667485Y-31307182D02*
X190781771Y-31278610D01*
X190781771Y-31278610D02*
X190838914Y-31250039D01*
X190838914Y-31250039D02*
X190896057Y-31192896D01*
X190896057Y-31192896D02*
X190924628Y-31107182D01*
X190924628Y-31107182D02*
X190924628Y-31050039D01*
X190924628Y-31050039D02*
X190896057Y-30964325D01*
X190896057Y-30964325D02*
X190867485Y-30935753D01*
X190324628Y-30392896D02*
X190324628Y-30678610D01*
X190324628Y-30678610D02*
X190924628Y-30678610D01*
X190953200Y-29307182D02*
X190181771Y-29821468D01*
D11*
X200199523Y-58494819D02*
X200199523Y-59209104D01*
X200199523Y-59209104D02*
X200247142Y-59351961D01*
X200247142Y-59351961D02*
X200342380Y-59447200D01*
X200342380Y-59447200D02*
X200485237Y-59494819D01*
X200485237Y-59494819D02*
X200580475Y-59494819D01*
X199199523Y-59494819D02*
X199770951Y-59494819D01*
X199485237Y-59494819D02*
X199485237Y-58494819D01*
X199485237Y-58494819D02*
X199580475Y-58637676D01*
X199580475Y-58637676D02*
X199675713Y-58732914D01*
X199675713Y-58732914D02*
X199770951Y-58780533D01*
X198294761Y-58494819D02*
X198770951Y-58494819D01*
X198770951Y-58494819D02*
X198818570Y-58971009D01*
X198818570Y-58971009D02*
X198770951Y-58923390D01*
X198770951Y-58923390D02*
X198675713Y-58875771D01*
X198675713Y-58875771D02*
X198437618Y-58875771D01*
X198437618Y-58875771D02*
X198342380Y-58923390D01*
X198342380Y-58923390D02*
X198294761Y-58971009D01*
X198294761Y-58971009D02*
X198247142Y-59066247D01*
X198247142Y-59066247D02*
X198247142Y-59304342D01*
X198247142Y-59304342D02*
X198294761Y-59399580D01*
X198294761Y-59399580D02*
X198342380Y-59447200D01*
X198342380Y-59447200D02*
X198437618Y-59494819D01*
X198437618Y-59494819D02*
X198675713Y-59494819D01*
X198675713Y-59494819D02*
X198770951Y-59447200D01*
X198770951Y-59447200D02*
X198818570Y-59399580D01*
X191941220Y-91029419D02*
X191941220Y-91838942D01*
X191941220Y-91838942D02*
X191893601Y-91934180D01*
X191893601Y-91934180D02*
X191845982Y-91981800D01*
X191845982Y-91981800D02*
X191750744Y-92029419D01*
X191750744Y-92029419D02*
X191560268Y-92029419D01*
X191560268Y-92029419D02*
X191465030Y-91981800D01*
X191465030Y-91981800D02*
X191417411Y-91934180D01*
X191417411Y-91934180D02*
X191369792Y-91838942D01*
X191369792Y-91838942D02*
X191369792Y-91029419D01*
X190941220Y-91124657D02*
X190893601Y-91077038D01*
X190893601Y-91077038D02*
X190798363Y-91029419D01*
X190798363Y-91029419D02*
X190560268Y-91029419D01*
X190560268Y-91029419D02*
X190465030Y-91077038D01*
X190465030Y-91077038D02*
X190417411Y-91124657D01*
X190417411Y-91124657D02*
X190369792Y-91219895D01*
X190369792Y-91219895D02*
X190369792Y-91315133D01*
X190369792Y-91315133D02*
X190417411Y-91457990D01*
X190417411Y-91457990D02*
X190988839Y-92029419D01*
X190988839Y-92029419D02*
X190369792Y-92029419D01*
X115111375Y-49871819D02*
X115111375Y-50586104D01*
X115111375Y-50586104D02*
X115158994Y-50728961D01*
X115158994Y-50728961D02*
X115254232Y-50824200D01*
X115254232Y-50824200D02*
X115397089Y-50871819D01*
X115397089Y-50871819D02*
X115492327Y-50871819D01*
X114111375Y-50871819D02*
X114682803Y-50871819D01*
X114397089Y-50871819D02*
X114397089Y-49871819D01*
X114397089Y-49871819D02*
X114492327Y-50014676D01*
X114492327Y-50014676D02*
X114587565Y-50109914D01*
X114587565Y-50109914D02*
X114682803Y-50157533D01*
X113635184Y-50871819D02*
X113444708Y-50871819D01*
X113444708Y-50871819D02*
X113349470Y-50824200D01*
X113349470Y-50824200D02*
X113301851Y-50776580D01*
X113301851Y-50776580D02*
X113206613Y-50633723D01*
X113206613Y-50633723D02*
X113158994Y-50443247D01*
X113158994Y-50443247D02*
X113158994Y-50062295D01*
X113158994Y-50062295D02*
X113206613Y-49967057D01*
X113206613Y-49967057D02*
X113254232Y-49919438D01*
X113254232Y-49919438D02*
X113349470Y-49871819D01*
X113349470Y-49871819D02*
X113539946Y-49871819D01*
X113539946Y-49871819D02*
X113635184Y-49919438D01*
X113635184Y-49919438D02*
X113682803Y-49967057D01*
X113682803Y-49967057D02*
X113730422Y-50062295D01*
X113730422Y-50062295D02*
X113730422Y-50300390D01*
X113730422Y-50300390D02*
X113682803Y-50395628D01*
X113682803Y-50395628D02*
X113635184Y-50443247D01*
X113635184Y-50443247D02*
X113539946Y-50490866D01*
X113539946Y-50490866D02*
X113349470Y-50490866D01*
X113349470Y-50490866D02*
X113254232Y-50443247D01*
X113254232Y-50443247D02*
X113206613Y-50395628D01*
X113206613Y-50395628D02*
X113158994Y-50300390D01*
X83867523Y-56764819D02*
X83867523Y-57479104D01*
X83867523Y-57479104D02*
X83915142Y-57621961D01*
X83915142Y-57621961D02*
X84010380Y-57717200D01*
X84010380Y-57717200D02*
X84153237Y-57764819D01*
X84153237Y-57764819D02*
X84248475Y-57764819D01*
X82867523Y-57764819D02*
X83438951Y-57764819D01*
X83153237Y-57764819D02*
X83153237Y-56764819D01*
X83153237Y-56764819D02*
X83248475Y-56907676D01*
X83248475Y-56907676D02*
X83343713Y-57002914D01*
X83343713Y-57002914D02*
X83438951Y-57050533D01*
X82534189Y-56764819D02*
X81867523Y-56764819D01*
X81867523Y-56764819D02*
X82296094Y-57764819D01*
X165909523Y-24990819D02*
X165909523Y-25705104D01*
X165909523Y-25705104D02*
X165957142Y-25847961D01*
X165957142Y-25847961D02*
X166052380Y-25943200D01*
X166052380Y-25943200D02*
X166195237Y-25990819D01*
X166195237Y-25990819D02*
X166290475Y-25990819D01*
X164909523Y-25990819D02*
X165480951Y-25990819D01*
X165195237Y-25990819D02*
X165195237Y-24990819D01*
X165195237Y-24990819D02*
X165290475Y-25133676D01*
X165290475Y-25133676D02*
X165385713Y-25228914D01*
X165385713Y-25228914D02*
X165480951Y-25276533D01*
X164290475Y-24990819D02*
X164195237Y-24990819D01*
X164195237Y-24990819D02*
X164099999Y-25038438D01*
X164099999Y-25038438D02*
X164052380Y-25086057D01*
X164052380Y-25086057D02*
X164004761Y-25181295D01*
X164004761Y-25181295D02*
X163957142Y-25371771D01*
X163957142Y-25371771D02*
X163957142Y-25609866D01*
X163957142Y-25609866D02*
X164004761Y-25800342D01*
X164004761Y-25800342D02*
X164052380Y-25895580D01*
X164052380Y-25895580D02*
X164099999Y-25943200D01*
X164099999Y-25943200D02*
X164195237Y-25990819D01*
X164195237Y-25990819D02*
X164290475Y-25990819D01*
X164290475Y-25990819D02*
X164385713Y-25943200D01*
X164385713Y-25943200D02*
X164433332Y-25895580D01*
X164433332Y-25895580D02*
X164480951Y-25800342D01*
X164480951Y-25800342D02*
X164528570Y-25609866D01*
X164528570Y-25609866D02*
X164528570Y-25371771D01*
X164528570Y-25371771D02*
X164480951Y-25181295D01*
X164480951Y-25181295D02*
X164433332Y-25086057D01*
X164433332Y-25086057D02*
X164385713Y-25038438D01*
X164385713Y-25038438D02*
X164290475Y-24990819D01*
X184605256Y-32998419D02*
X184605256Y-33807942D01*
X184605256Y-33807942D02*
X184557637Y-33903180D01*
X184557637Y-33903180D02*
X184510018Y-33950800D01*
X184510018Y-33950800D02*
X184414780Y-33998419D01*
X184414780Y-33998419D02*
X184224304Y-33998419D01*
X184224304Y-33998419D02*
X184129066Y-33950800D01*
X184129066Y-33950800D02*
X184081447Y-33903180D01*
X184081447Y-33903180D02*
X184033828Y-33807942D01*
X184033828Y-33807942D02*
X184033828Y-32998419D01*
X183033828Y-33998419D02*
X183605256Y-33998419D01*
X183319542Y-33998419D02*
X183319542Y-32998419D01*
X183319542Y-32998419D02*
X183414780Y-33141276D01*
X183414780Y-33141276D02*
X183510018Y-33236514D01*
X183510018Y-33236514D02*
X183605256Y-33284133D01*
D12*
%TO.C,J14*%
X110426500Y-41284000D02*
X109791500Y-41284000D01*
X109791500Y-41284000D02*
X109791500Y-43697000D01*
X109791500Y-43697000D02*
X110426500Y-43697000D01*
X110426500Y-43697000D02*
X110426500Y-41284000D01*
G36*
X110426500Y-41284000D02*
G01*
X109791500Y-41284000D01*
X109791500Y-43697000D01*
X110426500Y-43697000D01*
X110426500Y-41284000D01*
G37*
X110426500Y-43951000D02*
X109791500Y-43951000D01*
X109791500Y-43951000D02*
X109791500Y-46364000D01*
X109791500Y-46364000D02*
X110426500Y-46364000D01*
X110426500Y-46364000D02*
X110426500Y-43951000D01*
G36*
X110426500Y-43951000D02*
G01*
X109791500Y-43951000D01*
X109791500Y-46364000D01*
X110426500Y-46364000D01*
X110426500Y-43951000D01*
G37*
D13*
X106934000Y-39506000D02*
X106934000Y-48142000D01*
X106934000Y-42554000D02*
X106934000Y-39954000D01*
X109534000Y-39954000D02*
X108204000Y-39954000D01*
X109534000Y-41284000D02*
X109534000Y-39954000D01*
X109534000Y-42554000D02*
X106934000Y-42554000D01*
X109534000Y-42554000D02*
X109534000Y-48142000D01*
X112014000Y-39506000D02*
X106934000Y-39506000D01*
D12*
X112014000Y-39506000D02*
X112014000Y-48142000D01*
D13*
X112014000Y-48142000D02*
X106934000Y-48142000D01*
D12*
%TO.C,J13*%
X147499500Y-139859000D02*
X136991500Y-139859000D01*
X136991500Y-139859000D02*
X136991500Y-144113000D01*
X136991500Y-144113000D02*
X147499500Y-144113000D01*
X147499500Y-144113000D02*
X147499500Y-139859000D01*
X153245500Y-141986000D02*
G75*
G03*
X153245500Y-141986000I-2000000J0D01*
G01*
X135245500Y-141986000D02*
G75*
G03*
X135245500Y-141986000I-2000000J0D01*
G01*
%TO.C,J16*%
X200596500Y-35340400D02*
X198183500Y-35340400D01*
X198183500Y-35340400D02*
X198183500Y-34705400D01*
X198183500Y-34705400D02*
X200596500Y-34705400D01*
X200596500Y-34705400D02*
X200596500Y-35340400D01*
G36*
X200596500Y-35340400D02*
G01*
X198183500Y-35340400D01*
X198183500Y-34705400D01*
X200596500Y-34705400D01*
X200596500Y-35340400D01*
G37*
X195580000Y-35340400D02*
X193167000Y-35340400D01*
X193167000Y-35340400D02*
X193167000Y-34705400D01*
X193167000Y-34705400D02*
X195580000Y-34705400D01*
X195580000Y-34705400D02*
X195580000Y-35340400D01*
G36*
X195580000Y-35340400D02*
G01*
X193167000Y-35340400D01*
X193167000Y-34705400D01*
X195580000Y-34705400D01*
X195580000Y-35340400D01*
G37*
X200596500Y-37943900D02*
X198183500Y-37943900D01*
X198183500Y-37943900D02*
X198183500Y-37308900D01*
X198183500Y-37308900D02*
X200596500Y-37308900D01*
X200596500Y-37308900D02*
X200596500Y-37943900D01*
G36*
X200596500Y-37943900D02*
G01*
X198183500Y-37943900D01*
X198183500Y-37308900D01*
X200596500Y-37308900D01*
X200596500Y-37943900D01*
G37*
X195580000Y-38007400D02*
X193167000Y-38007400D01*
X193167000Y-38007400D02*
X193167000Y-37372400D01*
X193167000Y-37372400D02*
X195580000Y-37372400D01*
X195580000Y-37372400D02*
X195580000Y-38007400D01*
G36*
X195580000Y-38007400D02*
G01*
X193167000Y-38007400D01*
X193167000Y-37372400D01*
X195580000Y-37372400D01*
X195580000Y-38007400D01*
G37*
X199898000Y-41245900D02*
X200533000Y-41245900D01*
X200533000Y-41245900D02*
X200533000Y-38832900D01*
X200533000Y-38832900D02*
X199898000Y-38832900D01*
X199898000Y-38832900D02*
X199898000Y-41245900D01*
G36*
X199898000Y-41245900D02*
G01*
X200533000Y-41245900D01*
X200533000Y-38832900D01*
X199898000Y-38832900D01*
X199898000Y-41245900D01*
G37*
X197548500Y-41245900D02*
X198183500Y-41245900D01*
X198183500Y-41245900D02*
X198183500Y-38832900D01*
X198183500Y-38832900D02*
X197548500Y-38832900D01*
X197548500Y-38832900D02*
X197548500Y-41245900D01*
G36*
X197548500Y-41245900D02*
G01*
X198183500Y-41245900D01*
X198183500Y-38832900D01*
X197548500Y-38832900D01*
X197548500Y-41245900D01*
G37*
X194754500Y-41245900D02*
X195389500Y-41245900D01*
X195389500Y-41245900D02*
X195389500Y-38832900D01*
X195389500Y-38832900D02*
X194754500Y-38832900D01*
X194754500Y-38832900D02*
X194754500Y-41245900D01*
G36*
X194754500Y-41245900D02*
G01*
X195389500Y-41245900D01*
X195389500Y-38832900D01*
X194754500Y-38832900D01*
X194754500Y-41245900D01*
G37*
X192405000Y-41245900D02*
X193040000Y-41245900D01*
X193040000Y-41245900D02*
X193040000Y-38832900D01*
X193040000Y-38832900D02*
X192405000Y-38832900D01*
X192405000Y-38832900D02*
X192405000Y-41245900D01*
G36*
X192405000Y-41245900D02*
G01*
X193040000Y-41245900D01*
X193040000Y-38832900D01*
X192405000Y-38832900D01*
X192405000Y-41245900D01*
G37*
D13*
X202184000Y-27279400D02*
X191456000Y-27279400D01*
X199136000Y-29879400D02*
X201736000Y-29879400D01*
X201736000Y-32479400D02*
X201736000Y-31149400D01*
X200406000Y-32479400D02*
X201736000Y-32479400D01*
X199136000Y-32479400D02*
X199136000Y-29879400D01*
X199136000Y-32479400D02*
X191456000Y-32479400D01*
X202184000Y-42325400D02*
X202184000Y-27279400D01*
D12*
X202184000Y-42325400D02*
X191456000Y-42325400D01*
D13*
X191456000Y-42325400D02*
X191456000Y-27279400D01*
%TO.C,J15*%
X200720000Y-57600000D02*
X200720000Y-56270000D01*
X200720000Y-55000000D02*
X200720000Y-47320000D01*
X199390000Y-57600000D02*
X200720000Y-57600000D01*
X198060000Y-55000000D02*
X200720000Y-55000000D01*
X198060000Y-55000000D02*
X198060000Y-47320000D01*
X198060000Y-47320000D02*
X200720000Y-47320000D01*
%TO.C,U2*%
X186596000Y-67971400D02*
G75*
G03*
X186596000Y-67971400I-940000J0D01*
G01*
X186596000Y-114971400D02*
G75*
G03*
X186596000Y-114971400I-940000J0D01*
G01*
X197996000Y-67971400D02*
G75*
G03*
X197996000Y-67971400I-940000J0D01*
G01*
X197996000Y-114971400D02*
G75*
G03*
X197996000Y-114971400I-940000J0D01*
G01*
X181356000Y-65861400D02*
G75*
G03*
X180746000Y-66471400I0J-610000D01*
G01*
X180746000Y-116471400D02*
G75*
G03*
X181356000Y-117081400I610000J0D01*
G01*
X201966000Y-66471400D02*
G75*
G03*
X201356000Y-65861400I-610000J0D01*
G01*
X201356000Y-117081400D02*
G75*
G03*
X201966000Y-116471400I0J610000D01*
G01*
X180746000Y-66471400D02*
X180746000Y-116471400D01*
X181086000Y-117018400D02*
X181086000Y-65924400D01*
X181356000Y-65861400D02*
X183846000Y-65861400D01*
X183846000Y-65861400D02*
X183846000Y-66774920D01*
X183846000Y-66774920D02*
X183846000Y-69167880D01*
X183846000Y-69167880D02*
X183846000Y-113774920D01*
X183846000Y-113774920D02*
X183846000Y-116167880D01*
X183846000Y-116167880D02*
X183846000Y-117081400D01*
X187121000Y-65861400D02*
X183846000Y-65861400D01*
X187246000Y-64461400D02*
X187246000Y-65381400D01*
X187246000Y-65381400D02*
X187456000Y-65381400D01*
X187456000Y-65381400D02*
X187456000Y-66777400D01*
X187456000Y-66777400D02*
X187456000Y-69165400D01*
X187456000Y-69165400D02*
X187456000Y-70381400D01*
X187456000Y-70381400D02*
X195256000Y-70381400D01*
X187756000Y-117081400D02*
X181356000Y-117081400D01*
X187756000Y-117081400D02*
X194956000Y-117081400D01*
X192602090Y-70381400D02*
X190109910Y-70381400D01*
X195256000Y-65381400D02*
X195256000Y-66777400D01*
X195256000Y-66777400D02*
X195256000Y-69165400D01*
X195256000Y-69165400D02*
X195256000Y-70381400D01*
X195466000Y-64461400D02*
X187246000Y-64461400D01*
X195466000Y-64461400D02*
X195466000Y-65381400D01*
X195466000Y-65381400D02*
X195256000Y-65381400D01*
X195591000Y-65861400D02*
X187121000Y-65861400D01*
X198866000Y-65861400D02*
X195591000Y-65861400D01*
X198866000Y-65861400D02*
X198866000Y-66774920D01*
X198866000Y-66774920D02*
X198866000Y-69167880D01*
X198866000Y-69167880D02*
X198866000Y-113774920D01*
X198866000Y-113774920D02*
X198866000Y-116167880D01*
X198866000Y-116167880D02*
X198866000Y-117081400D01*
X201356000Y-65861400D02*
X198866000Y-65861400D01*
X201356000Y-117081400D02*
X194956000Y-117081400D01*
X201626000Y-65924400D02*
X201626000Y-117018400D01*
X201966000Y-66471400D02*
X201966000Y-116471400D01*
X202286000Y-68141400D02*
X202286000Y-66541400D01*
%TO.C,J19*%
X115541500Y-49472000D02*
X115541500Y-48142000D01*
X115541500Y-46872000D02*
X115541500Y-39192000D01*
X114211500Y-49472000D02*
X115541500Y-49472000D01*
X112881500Y-46872000D02*
X115541500Y-46872000D01*
X112881500Y-46872000D02*
X112881500Y-39192000D01*
X112881500Y-39192000D02*
X115541500Y-39192000D01*
%TO.C,J17*%
X81728000Y-58750000D02*
X81728000Y-60080000D01*
X81728000Y-61350000D02*
X81728000Y-91890000D01*
X83058000Y-58750000D02*
X81728000Y-58750000D01*
X84388000Y-61350000D02*
X81728000Y-61350000D01*
X84388000Y-61350000D02*
X84388000Y-91890000D01*
X84388000Y-91890000D02*
X81728000Y-91890000D01*
%TO.C,J10*%
X172962000Y-54876000D02*
X172962000Y-26676000D01*
X172962000Y-34296000D02*
X172962000Y-34296000D01*
X172482000Y-34296000D02*
X172482000Y-34296000D01*
X172002000Y-34296000D02*
X172002000Y-34296000D01*
X171522000Y-34296000D02*
X171522000Y-34296000D01*
X171042000Y-34296000D02*
X171042000Y-34296000D01*
X170562000Y-34296000D02*
X170562000Y-34296000D01*
X170082000Y-34296000D02*
X170082000Y-34296000D01*
X169602000Y-34296000D02*
X169602000Y-34296000D01*
X169122000Y-34296000D02*
X169122000Y-34296000D01*
X168642000Y-34296000D02*
X168642000Y-34296000D01*
X168162000Y-34296000D02*
X168162000Y-34296000D01*
X167682000Y-34296000D02*
X167682000Y-34296000D01*
X167202000Y-34296000D02*
X167202000Y-34296000D01*
X166722000Y-34296000D02*
X166722000Y-34296000D01*
X166242000Y-34296000D02*
X166242000Y-34296000D01*
X165762000Y-34296000D02*
X165762000Y-34296000D01*
X165282000Y-34296000D02*
X165282000Y-34296000D01*
X164802000Y-34296000D02*
X164802000Y-34296000D01*
X164322000Y-34296000D02*
X164322000Y-34296000D01*
X163842000Y-34296000D02*
X163842000Y-34296000D01*
X172962000Y-26676000D02*
X163842000Y-26676000D01*
X171652000Y-53576000D02*
X171652000Y-27976000D01*
X171652000Y-35596000D02*
X171652000Y-35596000D01*
X171172000Y-35596000D02*
X171172000Y-35596000D01*
X170692000Y-35596000D02*
X170692000Y-35596000D01*
X170212000Y-35596000D02*
X170212000Y-35596000D01*
X169732000Y-35596000D02*
X169732000Y-35596000D01*
X169252000Y-35596000D02*
X169252000Y-35596000D01*
X168772000Y-35596000D02*
X168772000Y-35596000D01*
X168292000Y-35596000D02*
X168292000Y-35596000D01*
X167812000Y-35596000D02*
X167812000Y-35596000D01*
X167332000Y-35596000D02*
X167332000Y-35596000D01*
X166852000Y-35596000D02*
X166852000Y-35596000D01*
X166372000Y-35596000D02*
X166372000Y-35596000D01*
X165892000Y-35596000D02*
X165892000Y-35596000D01*
X165412000Y-35596000D02*
X165412000Y-35596000D01*
X171652000Y-27976000D02*
X165152000Y-27976000D01*
X165152000Y-53576000D02*
X171652000Y-53576000D01*
X165152000Y-42826000D02*
X165152000Y-53576000D01*
X165152000Y-42536000D02*
X165152000Y-42536000D01*
X165152000Y-42536000D02*
X165152000Y-42536000D01*
X164672000Y-42536000D02*
X164672000Y-42536000D01*
X164192000Y-42536000D02*
X164192000Y-42536000D01*
X165152000Y-38726000D02*
X165152000Y-38726000D01*
X165152000Y-38726000D02*
X163842000Y-38726000D01*
X165152000Y-27976000D02*
X165152000Y-38726000D01*
X163842000Y-54876000D02*
X172962000Y-54876000D01*
X163842000Y-46636000D02*
X163842000Y-46636000D01*
X164322000Y-46636000D02*
X164322000Y-46636000D01*
X164802000Y-46636000D02*
X164802000Y-46636000D01*
X163842000Y-42826000D02*
X165152000Y-42826000D01*
X163842000Y-26676000D02*
X163842000Y-54876000D01*
X163452000Y-49666000D02*
X162452000Y-50166000D01*
X162452000Y-50166000D02*
X162452000Y-49166000D01*
X162452000Y-49166000D02*
X163452000Y-49666000D01*
%TO.C,U1*%
X188963352Y-32543600D02*
X188963352Y-27902600D01*
X185694352Y-32543600D02*
X185694352Y-31033600D01*
X181993352Y-32543600D02*
X181993352Y-31033600D01*
X178723352Y-32543600D02*
X188963352Y-32543600D01*
X178723352Y-32543600D02*
X178723352Y-27902600D01*
X178723352Y-31033600D02*
X188963352Y-31033600D01*
X178723352Y-27902600D02*
X188963352Y-27902600D01*
%TD*%
M02*
