%TF.GenerationSoftware,KiCad,Pcbnew,7.0.9*%
%TF.CreationDate,2023-12-07T20:54:36+01:00*%
%TF.ProjectId,euroPI-kicad_incl_555_clock,6575726f-5049-42d6-9b69-6361645f696e,rev?*%
%TF.SameCoordinates,Original*%
%TF.FileFunction,Soldermask,Bot*%
%TF.FilePolarity,Negative*%
%FSLAX46Y46*%
G04 Gerber Fmt 4.6, Leading zero omitted, Abs format (unit mm)*
G04 Created by KiCad (PCBNEW 7.0.9) date 2023-12-07 20:54:36*
%MOMM*%
%LPD*%
G01*
G04 APERTURE LIST*
G04 Aperture macros list*
%AMRoundRect*
0 Rectangle with rounded corners*
0 $1 Rounding radius*
0 $2 $3 $4 $5 $6 $7 $8 $9 X,Y pos of 4 corners*
0 Add a 4 corners polygon primitive as box body*
4,1,4,$2,$3,$4,$5,$6,$7,$8,$9,$2,$3,0*
0 Add four circle primitives for the rounded corners*
1,1,$1+$1,$2,$3*
1,1,$1+$1,$4,$5*
1,1,$1+$1,$6,$7*
1,1,$1+$1,$8,$9*
0 Add four rect primitives between the rounded corners*
20,1,$1+$1,$2,$3,$4,$5,0*
20,1,$1+$1,$4,$5,$6,$7,0*
20,1,$1+$1,$6,$7,$8,$9,0*
20,1,$1+$1,$8,$9,$2,$3,0*%
%AMFreePoly0*
4,1,28,0.605014,0.794986,0.644504,0.794986,0.724698,0.756366,0.780194,0.686777,0.800000,0.600000,0.800000,-0.600000,0.780194,-0.686777,0.724698,-0.756366,0.644504,-0.794986,0.605014,-0.794986,0.600000,-0.800000,0.000000,-0.800000,-0.178017,-0.779942,-0.347107,-0.720775,-0.498792,-0.625465,-0.625465,-0.498792,-0.720775,-0.347107,-0.779942,-0.178017,-0.800000,0.000000,-0.779942,0.178017,
-0.720775,0.347107,-0.625465,0.498792,-0.498792,0.625465,-0.347107,0.720775,-0.178017,0.779942,0.000000,0.800000,0.600000,0.800000,0.605014,0.794986,0.605014,0.794986,$1*%
%AMFreePoly1*
4,1,28,0.178017,0.779942,0.347107,0.720775,0.498792,0.625465,0.625465,0.498792,0.720775,0.347107,0.779942,0.178017,0.800000,0.000000,0.779942,-0.178017,0.720775,-0.347107,0.625465,-0.498792,0.498792,-0.625465,0.347107,-0.720775,0.178017,-0.779942,0.000000,-0.800000,-0.600000,-0.800000,-0.605014,-0.794986,-0.644504,-0.794986,-0.724698,-0.756366,-0.780194,-0.686777,-0.800000,-0.600000,
-0.800000,0.600000,-0.780194,0.686777,-0.724698,0.756366,-0.644504,0.794986,-0.605014,0.794986,-0.600000,0.800000,0.000000,0.800000,0.178017,0.779942,0.178017,0.779942,$1*%
G04 Aperture macros list end*
%ADD10R,1.600000X1.600000*%
%ADD11O,1.600000X1.600000*%
%ADD12C,1.600000*%
%ADD13R,1.700000X1.700000*%
%ADD14O,1.700000X1.700000*%
%ADD15R,1.830000X1.930000*%
%ADD16C,2.130000*%
%ADD17R,1.930000X1.830000*%
%ADD18R,1.800000X1.800000*%
%ADD19C,1.800000*%
%ADD20C,3.100000*%
%ADD21C,4.500000*%
%ADD22R,2.200000X2.200000*%
%ADD23O,2.200000X2.200000*%
%ADD24C,4.000000*%
%ADD25C,1.700000*%
%ADD26C,2.200000*%
%ADD27R,1.300000X1.300000*%
%ADD28C,1.300000*%
%ADD29RoundRect,0.200000X0.600000X0.600000X-0.600000X0.600000X-0.600000X-0.600000X0.600000X-0.600000X0*%
%ADD30FreePoly0,180.000000*%
%ADD31FreePoly1,180.000000*%
%ADD32RoundRect,0.250000X-0.600000X-0.600000X0.600000X-0.600000X0.600000X0.600000X-0.600000X0.600000X0*%
%ADD33R,1.905000X2.000000*%
%ADD34O,1.905000X2.000000*%
G04 APERTURE END LIST*
D10*
%TO.C,O3*%
X196596000Y-131572000D03*
D11*
X196596000Y-129032000D03*
X196596000Y-126492000D03*
X196596000Y-123952000D03*
X196596000Y-121412000D03*
X196596000Y-118872000D03*
X196596000Y-116332000D03*
X188976000Y-116332000D03*
X188976000Y-118872000D03*
X188976000Y-121412000D03*
X188976000Y-123952000D03*
X188976000Y-126492000D03*
X188976000Y-129032000D03*
X188976000Y-131572000D03*
%TD*%
D12*
%TO.C,R21*%
X196850000Y-83820000D03*
D11*
X196850000Y-88900000D03*
%TD*%
D12*
%TO.C,R16*%
X93980000Y-105410000D03*
D11*
X93980000Y-110490000D03*
%TD*%
D12*
%TO.C,R24*%
X167894000Y-70104000D03*
D11*
X172974000Y-70104000D03*
%TD*%
D12*
%TO.C,R6*%
X174244000Y-105918000D03*
D11*
X179324000Y-105918000D03*
%TD*%
D13*
%TO.C,J14*%
X108204000Y-41284000D03*
D14*
X108204000Y-43824000D03*
X108204000Y-46364000D03*
%TD*%
D12*
%TO.C,R17*%
X108712000Y-106455000D03*
D11*
X108712000Y-101375000D03*
%TD*%
D12*
%TO.C,R20*%
X102235000Y-62112000D03*
D11*
X102235000Y-67192000D03*
%TD*%
D15*
%TO.C,J8*%
X84720648Y-32140000D03*
D16*
X96120648Y-32140000D03*
X87820648Y-32140000D03*
%TD*%
D12*
%TO.C,R41*%
X110744000Y-145796000D03*
D11*
X110744000Y-140716000D03*
%TD*%
D12*
%TO.C,R30*%
X188468000Y-74041000D03*
D11*
X193548000Y-74041000D03*
%TD*%
D17*
%TO.C,J4*%
X86614000Y-114974000D03*
D16*
X86614000Y-126374000D03*
X86614000Y-118074000D03*
%TD*%
D18*
%TO.C,LED6*%
X117872648Y-111896000D03*
D19*
X115332648Y-111896000D03*
%TD*%
D12*
%TO.C,R26*%
X178562000Y-77978000D03*
D11*
X173482000Y-77978000D03*
%TD*%
D20*
%TO.C,H4*%
X109220000Y-110998000D03*
D21*
X109220000Y-110998000D03*
%TD*%
D12*
%TO.C,R22*%
X196850000Y-91948000D03*
D11*
X196850000Y-97028000D03*
%TD*%
D10*
%TO.C,U3*%
X101600000Y-140462000D03*
D11*
X99060000Y-140462000D03*
X96520000Y-140462000D03*
X93980000Y-140462000D03*
X93980000Y-148082000D03*
X96520000Y-148082000D03*
X99060000Y-148082000D03*
X101600000Y-148082000D03*
%TD*%
D12*
%TO.C,R13*%
X90903000Y-94116000D03*
D11*
X95983000Y-94116000D03*
%TD*%
D12*
%TO.C,R31*%
X195355000Y-103124000D03*
D11*
X190275000Y-103124000D03*
%TD*%
D22*
%TO.C,D2*%
X187004000Y-62992000D03*
D23*
X184464000Y-62992000D03*
%TD*%
D10*
%TO.C,C16*%
X177352000Y-48260000D03*
D12*
X179352000Y-48260000D03*
%TD*%
%TO.C,R11*%
X94234000Y-113538000D03*
D11*
X94234000Y-118618000D03*
%TD*%
D12*
%TO.C,Rx1*%
X93980000Y-150876000D03*
D11*
X99060000Y-150876000D03*
%TD*%
D12*
%TO.C,R23*%
X167386000Y-122682000D03*
D11*
X167386000Y-117602000D03*
%TD*%
D20*
%TO.C,H2*%
X190500000Y-110998000D03*
D21*
X190500000Y-110998000D03*
%TD*%
D24*
%TO.C,VR3*%
X84186000Y-149728000D03*
X84186000Y-140928000D03*
D19*
X91186000Y-142828000D03*
X91186000Y-145328000D03*
X91186000Y-147828000D03*
%TD*%
D17*
%TO.C,J2*%
X101605824Y-97194000D03*
D16*
X101605824Y-108594000D03*
X101605824Y-100294000D03*
%TD*%
D10*
%TO.C,O1*%
X170434000Y-122936000D03*
D11*
X170434000Y-125476000D03*
X170434000Y-128016000D03*
X170434000Y-130556000D03*
X178054000Y-130556000D03*
X178054000Y-128016000D03*
X178054000Y-125476000D03*
X178054000Y-122936000D03*
%TD*%
D12*
%TO.C,R18*%
X109739648Y-115140000D03*
D11*
X109739648Y-120220000D03*
%TD*%
D12*
%TO.C,R29*%
X188468000Y-77216000D03*
D11*
X193548000Y-77216000D03*
%TD*%
D12*
%TO.C,C11*%
X177038000Y-84360000D03*
X177038000Y-86360000D03*
%TD*%
D25*
%TO.C,SW2*%
X86614000Y-77860000D03*
D24*
X91694000Y-77860000D03*
D25*
X96774000Y-77860000D03*
D26*
X94234000Y-72780000D03*
X87884000Y-75320000D03*
%TD*%
D12*
%TO.C,C14*%
X177038000Y-91948000D03*
X177038000Y-89948000D03*
%TD*%
D23*
%TO.C,D3*%
X176844000Y-38100000D03*
D22*
X176844000Y-35560000D03*
%TD*%
D12*
%TO.C,R37*%
X196850000Y-75946000D03*
D11*
X196850000Y-81026000D03*
%TD*%
D22*
%TO.C,D1*%
X170434000Y-60452000D03*
D23*
X170434000Y-57912000D03*
%TD*%
D12*
%TO.C,R1*%
X174244000Y-96520000D03*
D11*
X179324000Y-96520000D03*
%TD*%
D12*
%TO.C,R19*%
X102119648Y-52714000D03*
D11*
X102119648Y-57794000D03*
%TD*%
D15*
%TO.C,J7*%
X118461000Y-32190800D03*
D16*
X107061000Y-32190800D03*
X115361000Y-32190800D03*
%TD*%
D22*
%TO.C,D4*%
X176844000Y-32258000D03*
D23*
X176844000Y-29718000D03*
%TD*%
D10*
%TO.C,C2*%
X186055000Y-28575000D03*
D12*
X184055000Y-28575000D03*
%TD*%
%TO.C,C18*%
X106902000Y-140716000D03*
X104902000Y-140716000D03*
%TD*%
D17*
%TO.C,J1*%
X86614000Y-97194000D03*
D16*
X86614000Y-108594000D03*
X86614000Y-100294000D03*
%TD*%
D12*
%TO.C,R5*%
X174244000Y-109220000D03*
D11*
X179324000Y-109220000D03*
%TD*%
D17*
%TO.C,J20*%
X117348000Y-150622000D03*
D16*
X117348000Y-139222000D03*
X117348000Y-147522000D03*
%TD*%
D13*
%TO.C,J11*%
X164338000Y-60080000D03*
D14*
X164338000Y-62620000D03*
X164338000Y-65160000D03*
X164338000Y-67700000D03*
X164338000Y-70240000D03*
X164338000Y-72780000D03*
X164338000Y-75320000D03*
X164338000Y-77860000D03*
X164338000Y-80400000D03*
X164338000Y-82940000D03*
X164338000Y-85480000D03*
X164338000Y-88020000D03*
%TD*%
D18*
%TO.C,LED5*%
X100330824Y-111896000D03*
D19*
X102870824Y-111896000D03*
%TD*%
D17*
%TO.C,J3*%
X116597648Y-97194000D03*
D16*
X116597648Y-108594000D03*
X116597648Y-100294000D03*
%TD*%
D12*
%TO.C,R32*%
X185684000Y-131469000D03*
D11*
X185684000Y-126389000D03*
%TD*%
D18*
%TO.C,LED7*%
X110744000Y-148585000D03*
D19*
X110744000Y-151125000D03*
%TD*%
D12*
%TO.C,R8*%
X105918000Y-89515000D03*
D11*
X105918000Y-94595000D03*
%TD*%
D12*
%TO.C,R28*%
X103516648Y-31142000D03*
D11*
X103516648Y-36222000D03*
%TD*%
D12*
%TO.C,R10*%
X93472000Y-121920000D03*
D11*
X93472000Y-127000000D03*
%TD*%
D10*
%TO.C,O5*%
X193548000Y-99112648D03*
D11*
X193548000Y-96572648D03*
X193548000Y-94032648D03*
X193548000Y-91492648D03*
X193548000Y-88952648D03*
X193548000Y-86412648D03*
X193548000Y-83872648D03*
X185928000Y-83872648D03*
X185928000Y-86412648D03*
X185928000Y-88952648D03*
X185928000Y-91492648D03*
X185928000Y-94032648D03*
X185928000Y-96572648D03*
X185928000Y-99112648D03*
%TD*%
D12*
%TO.C,R2*%
X174186000Y-102616000D03*
D11*
X179266000Y-102616000D03*
%TD*%
D13*
%TO.C,J18*%
X195516500Y-48142000D03*
D14*
X195516500Y-45602000D03*
X195516500Y-43062000D03*
X195516500Y-40522000D03*
%TD*%
D27*
%TO.C,Q1*%
X174498000Y-59690000D03*
D28*
X175768000Y-58420000D03*
X177038000Y-59690000D03*
%TD*%
D25*
%TO.C,SW1*%
X106451400Y-77885400D03*
D24*
X111531400Y-77885400D03*
D25*
X116611400Y-77885400D03*
D26*
X114071400Y-72805400D03*
X107721400Y-75345400D03*
%TD*%
D12*
%TO.C,R27*%
X99579648Y-28428000D03*
D11*
X99579648Y-33508000D03*
%TD*%
D17*
%TO.C,J5*%
X101605824Y-114974000D03*
D16*
X101605824Y-126374000D03*
X101605824Y-118074000D03*
%TD*%
D12*
%TO.C,R36*%
X167865000Y-85598000D03*
D11*
X172945000Y-85598000D03*
%TD*%
D12*
%TO.C,R25*%
X167865000Y-73660000D03*
D11*
X172945000Y-73660000D03*
%TD*%
D20*
%TO.C,H1*%
X182889200Y-44196000D03*
D21*
X182889200Y-44196000D03*
%TD*%
D12*
%TO.C,R9*%
X109982000Y-93862000D03*
D11*
X109982000Y-98942000D03*
%TD*%
D12*
%TO.C,R7*%
X93980000Y-97282000D03*
D11*
X93980000Y-102362000D03*
%TD*%
D12*
%TO.C,C7*%
X177800000Y-74168000D03*
X177800000Y-72168000D03*
%TD*%
%TO.C,R34*%
X196596000Y-108204000D03*
D11*
X196596000Y-113284000D03*
%TD*%
D24*
%TO.C,VR1*%
X115759400Y-59597400D03*
X106959400Y-59597400D03*
D19*
X108859400Y-52597400D03*
X111359400Y-52597400D03*
X113859400Y-52597400D03*
%TD*%
D10*
%TO.C,C15*%
X186055000Y-48260000D03*
D12*
X188055000Y-48260000D03*
%TD*%
D18*
%TO.C,LED2*%
X102880824Y-94116000D03*
D19*
X100340824Y-94116000D03*
%TD*%
D24*
%TO.C,VR2*%
X96232648Y-59587000D03*
X87432648Y-59587000D03*
D19*
X89332648Y-52587000D03*
X91832648Y-52587000D03*
X94332648Y-52587000D03*
%TD*%
D20*
%TO.C,H3*%
X101609200Y-44196000D03*
D21*
X101609200Y-44196000D03*
%TD*%
D12*
%TO.C,R3*%
X174244000Y-115824000D03*
D11*
X179324000Y-115824000D03*
%TD*%
D12*
%TO.C,R4*%
X174244000Y-112522000D03*
D11*
X179324000Y-112522000D03*
%TD*%
D12*
%TO.C,R39*%
X185674000Y-110490000D03*
D11*
X185674000Y-115570000D03*
%TD*%
D18*
%TO.C,LED4*%
X85339000Y-111896000D03*
D19*
X87879000Y-111896000D03*
%TD*%
D13*
%TO.C,J12*%
X117957600Y-48142000D03*
D14*
X117957600Y-45602000D03*
X117957600Y-43062000D03*
X117957600Y-40522000D03*
%TD*%
D12*
%TO.C,C17*%
X107188000Y-146558000D03*
X105188000Y-146558000D03*
%TD*%
%TO.C,R40*%
X186436000Y-102616000D03*
D11*
X186436000Y-107696000D03*
%TD*%
D17*
%TO.C,J6*%
X116597648Y-114974000D03*
D16*
X116597648Y-126374000D03*
X116597648Y-118074000D03*
%TD*%
D18*
%TO.C,LED3*%
X117872648Y-94116000D03*
D19*
X115332648Y-94116000D03*
%TD*%
D12*
%TO.C,R12*%
X109739648Y-122789000D03*
D11*
X109739648Y-127869000D03*
%TD*%
D12*
%TO.C,R38*%
X190555800Y-80518000D03*
D11*
X185475800Y-80518000D03*
%TD*%
D12*
%TO.C,R35*%
X188494800Y-70739000D03*
D11*
X193574800Y-70739000D03*
%TD*%
D12*
%TO.C,R14*%
X96266000Y-90052000D03*
D11*
X101346000Y-90052000D03*
%TD*%
D12*
%TO.C,C8*%
X177800000Y-68326000D03*
X177800000Y-66326000D03*
%TD*%
D18*
%TO.C,LED1*%
X87889000Y-94116000D03*
D19*
X85349000Y-94116000D03*
%TD*%
D12*
%TO.C,R15*%
X115581648Y-90306000D03*
D11*
X110501648Y-90306000D03*
%TD*%
D12*
%TO.C,R33*%
X185684000Y-118613000D03*
D11*
X185684000Y-123693000D03*
%TD*%
D10*
%TO.C,C1*%
X176215113Y-119888000D03*
D12*
X174215113Y-119888000D03*
%TD*%
D13*
%TO.C,J16*%
X200406000Y-33274000D03*
D14*
X197866000Y-33274000D03*
X195326000Y-33274000D03*
X192786000Y-33274000D03*
X200406000Y-30734000D03*
X197866000Y-30734000D03*
X195326000Y-30734000D03*
X192786000Y-30734000D03*
%TD*%
D13*
%TO.C,J15*%
X197418000Y-59944000D03*
D14*
X197418000Y-57404000D03*
X197418000Y-54864000D03*
X197418000Y-52324000D03*
%TD*%
D12*
%TO.C,C3*%
X189992000Y-89138000D03*
X189992000Y-87138000D03*
%TD*%
D29*
%TO.C,U2*%
X200246000Y-67341400D03*
D12*
X200246000Y-69881400D03*
D30*
X200246000Y-72421400D03*
D12*
X200246000Y-74961400D03*
X200246000Y-77501400D03*
X200246000Y-80041400D03*
X200246000Y-82581400D03*
D30*
X200246000Y-85121400D03*
D12*
X200246000Y-87661400D03*
X200246000Y-90201400D03*
X200246000Y-92741400D03*
X200246000Y-95281400D03*
D30*
X200246000Y-97821400D03*
D12*
X200246000Y-100361400D03*
X200246000Y-102901400D03*
X200246000Y-105441400D03*
X200246000Y-107981400D03*
D30*
X200246000Y-110521400D03*
D12*
X200246000Y-113061400D03*
X200246000Y-115601400D03*
X182466000Y-115601400D03*
X182466000Y-113061400D03*
D31*
X182466000Y-110521400D03*
D12*
X182466000Y-107981400D03*
X182466000Y-105441400D03*
X182466000Y-102901400D03*
X182466000Y-100361400D03*
D31*
X182466000Y-97821400D03*
D12*
X182466000Y-95281400D03*
X182466000Y-92741400D03*
X182466000Y-90201400D03*
X182466000Y-87661400D03*
D31*
X182466000Y-85121400D03*
D12*
X182466000Y-82581400D03*
X182466000Y-80041400D03*
X182466000Y-77501400D03*
X182466000Y-74961400D03*
D31*
X182466000Y-72421400D03*
D12*
X182466000Y-69881400D03*
X182466000Y-67341400D03*
%TD*%
%TO.C,C5*%
X192786000Y-120904000D03*
X192786000Y-118904000D03*
%TD*%
D13*
%TO.C,J21*%
X107188000Y-151130000D03*
D14*
X104648000Y-151130000D03*
X102108000Y-151130000D03*
%TD*%
D13*
%TO.C,J19*%
X114211500Y-48142000D03*
D14*
X114211500Y-45602000D03*
X114211500Y-43062000D03*
X114211500Y-40522000D03*
%TD*%
D12*
%TO.C,C12*%
X183017000Y-129503000D03*
X183017000Y-127503000D03*
%TD*%
D13*
%TO.C,J17*%
X83058000Y-60080000D03*
D14*
X83058000Y-62620000D03*
X83058000Y-65160000D03*
X83058000Y-67700000D03*
X83058000Y-70240000D03*
X83058000Y-72780000D03*
X83058000Y-75320000D03*
X83058000Y-77860000D03*
X83058000Y-80400000D03*
X83058000Y-82940000D03*
X83058000Y-85480000D03*
X83058000Y-88020000D03*
%TD*%
D12*
%TO.C,C4*%
X189738000Y-95758000D03*
X189738000Y-93758000D03*
%TD*%
D32*
%TO.C,J10*%
X167132000Y-49666000D03*
D25*
X169672000Y-49666000D03*
X167132000Y-47126000D03*
X169672000Y-47126000D03*
X167132000Y-44586000D03*
X169672000Y-44586000D03*
X167132000Y-42046000D03*
X169672000Y-42046000D03*
X167132000Y-39506000D03*
X169672000Y-39506000D03*
X167132000Y-36966000D03*
X169672000Y-36966000D03*
X167132000Y-34426000D03*
X169672000Y-34426000D03*
X167132000Y-31886000D03*
X169672000Y-31886000D03*
%TD*%
D12*
%TO.C,C10*%
X199664000Y-121904600D03*
X199664000Y-119904600D03*
%TD*%
%TO.C,C13*%
X182763000Y-121185000D03*
X182763000Y-123185000D03*
%TD*%
%TO.C,C9*%
X199664000Y-127492600D03*
X199664000Y-125492600D03*
%TD*%
D33*
%TO.C,U1*%
X181924000Y-31750000D03*
D34*
X184464000Y-31750000D03*
X187004000Y-31750000D03*
%TD*%
D12*
%TO.C,C6*%
X192786000Y-129032000D03*
X192786000Y-127032000D03*
%TD*%
M02*
