M48
; DRILL file {KiCad 7.0.9} date Thu Nov 30 21:37:06 2023
; FORMAT={-:-/ absolute / inch / decimal}
; #@! TF.CreationDate,2023-11-30T21:37:06+01:00
; #@! TF.GenerationSoftware,Kicad,Pcbnew,7.0.9
; #@! TF.FileFunction,Plated,1,2,PTH
FMAT,2
INCH
; #@! TA.AperFunction,Plated,PTH,ViaDrill
T1C0.0157
; #@! TA.AperFunction,Plated,PTH,ViaDrill
T2C0.0197
; #@! TA.AperFunction,Plated,PTH,ComponentDrill
T3C0.0295
; #@! TA.AperFunction,Plated,PTH,ComponentDrill
T4C0.0315
; #@! TA.AperFunction,Plated,PTH,ComponentDrill
T5C0.0354
; #@! TA.AperFunction,Plated,PTH,ComponentDrill
T6C0.0394
; #@! TA.AperFunction,Plated,PTH,ComponentDrill
T7C0.0433
; #@! TA.AperFunction,Plated,PTH,ComponentDrill
T8C0.0480
; #@! TA.AperFunction,Plated,PTH,ComponentDrill
T9C0.0559
; #@! TA.AperFunction,Plated,PTH,ComponentDrill
T10C0.0563
; #@! TA.AperFunction,Plated,PTH,ComponentDrill
T11C0.0591
%
G90
G05
T1
X3.82Y-2.75
X4.27Y-3.59
X7.049Y-3.8602
X7.27Y-4.7854
X7.33Y-4.1654
X7.38Y-2.9754
X7.39Y-4.6454
X7.4Y-4.5554
X7.45Y-3.3854
X7.57Y-1.3554
X7.57Y-4.1854
X7.63Y-4.4354
T2
X3.67Y-3.3054
X3.7325Y-2.6941
X3.9093Y-2.8561
X3.92Y-3.1154
X3.92Y-3.2854
X6.5678Y-2.877
X6.5679Y-3.6153
X6.654Y-3.5293
X6.6589Y-4.9243
X7.0825Y-3.7254
X7.09Y-4.4954
X7.27Y-3.0008
X7.2735Y-2.8632
X7.28Y-3.5354
X7.2823Y-4.4983
X7.35Y-2.3564
X7.3526Y-3.1855
X7.3962Y-2.8611
X7.51Y-3.1054
X7.54Y-2.1854
X7.5731Y-4.3916
X7.58Y-3.7754
X7.63Y-3.5654
X7.76Y-3.2254
X7.76Y-3.4373
X7.84Y-2.4054
T3
X6.9192Y-2.7664
X6.9692Y-2.7164
X7.0192Y-2.7664
T4
X3.5789Y-3.7054
X3.67Y-4.0054
X3.67Y-4.2054
X3.68Y-4.4142
X3.68Y-4.6142
X3.68Y-4.7354
X3.68Y-4.9354
X3.7Y-5.53
X3.7Y-5.83
X3.7Y-5.94
X3.7789Y-3.7054
X3.79Y-3.5454
X3.8Y-5.53
X3.8Y-5.83
X3.9Y-5.53
X3.9Y-5.83
X3.9Y-5.94
X3.9205Y-1.1192
X3.9205Y-1.3192
X3.99Y-3.5454
X4.0Y-5.53
X4.0Y-5.83
X4.0205Y-2.0754
X4.0205Y-2.2754
X4.025Y-2.4454
X4.025Y-2.6454
X4.0755Y-1.2261
X4.0755Y-1.4261
X4.13Y-5.54
X4.1413Y-5.77
X4.1611Y-4.4054
X4.17Y-3.5242
X4.17Y-3.7242
X4.2087Y-5.54
X4.22Y-5.77
X4.27Y-4.0942
X4.27Y-4.2942
X4.3205Y-4.5331
X4.3205Y-4.7331
X4.3205Y-4.8342
X4.3205Y-5.0342
X4.33Y-3.6954
X4.33Y-3.8954
X4.3505Y-3.5554
X4.36Y-5.54
X4.36Y-5.74
X4.3611Y-4.4054
X4.5505Y-3.5554
X6.4779Y-4.693
X6.4779Y-4.893
X6.4779Y-4.9853
X6.4779Y-5.1853
X6.5273Y-4.0853
X6.5279Y-4.3453
X6.606Y-4.0853
X6.6067Y-4.3453
X6.6079Y-4.8653
X6.6079Y-5.1653
X6.6168Y-3.7153
X6.6379Y-3.8753
X6.6379Y-4.7264
X6.6479Y-4.5853
X6.7079Y-4.8653
X6.7079Y-5.1653
X6.75Y-2.287
X6.75Y-2.3657
X6.7573Y-4.0853
X6.7579Y-4.3453
X6.8079Y-4.8653
X6.8079Y-5.1653
X6.8168Y-3.7153
X6.836Y-4.0853
X6.8367Y-4.3453
X6.8379Y-3.8753
X6.8379Y-4.7264
X6.8479Y-4.5853
X6.9079Y-4.8653
X6.9079Y-5.1653
X6.97Y-2.1364
X6.97Y-2.2364
X6.97Y-2.3364
X6.97Y-2.4364
X6.97Y-3.5675
X6.97Y-3.7675
X6.9779Y-4.6953
X7.0079Y-4.8653
X7.0079Y-5.1653
X7.0179Y-4.0242
X7.0179Y-4.2242
X7.0619Y-1.4464
X7.0619Y-1.6664
X7.0619Y-1.8864
X7.1079Y-4.8653
X7.1079Y-5.1653
X7.1406Y-1.4464
X7.1406Y-1.6664
X7.1406Y-1.8864
X7.1779Y-4.6953
X7.2079Y-4.8653
X7.2079Y-5.1653
X7.27Y-2.1364
X7.27Y-2.2364
X7.27Y-2.3364
X7.27Y-2.4364
X7.2992Y-1.3353
X7.2992Y-1.5553
X7.2992Y-1.7753
X7.3323Y-3.9452
X7.34Y-4.0841
X7.34Y-4.2841
X7.34Y-4.3964
X7.34Y-4.5964
X7.34Y-4.7164
X7.34Y-4.9164
X7.3411Y-3.6864
X7.3589Y-3.0564
X7.3589Y-3.2564
X7.3589Y-3.3752
X7.3589Y-3.5752
X7.3779Y-1.3353
X7.3779Y-1.5553
X7.3779Y-1.7753
X7.3779Y-5.1553
X7.4011Y-2.0964
X7.46Y-4.0964
X7.46Y-4.1964
X7.46Y-4.2964
X7.46Y-4.3964
X7.46Y-4.4964
X7.46Y-4.5964
X7.46Y-4.6964
X7.49Y-4.8375
X7.49Y-5.0375
X7.5311Y-2.2675
X7.5311Y-2.4675
X7.5323Y-3.9452
X7.54Y-3.2478
X7.54Y-3.4878
X7.5411Y-3.6864
X7.5779Y-5.1553
X7.6011Y-2.0964
X7.6187Y-3.2478
X7.6187Y-3.4878
X7.62Y-4.8364
X7.62Y-5.0364
X7.6606Y-2.3654
X7.6891Y-5.1553
X7.7Y-2.5566
X7.7Y-2.6354
X7.7Y-2.7866
X7.7Y-2.8654
X7.73Y-3.7475
X7.73Y-3.9475
X7.7394Y-2.3654
X7.75Y-4.8352
X7.75Y-5.0352
X7.76Y-4.0964
X7.76Y-4.1964
X7.76Y-4.2964
X7.76Y-4.3964
X7.76Y-4.4964
X7.76Y-4.5964
X7.76Y-4.6964
X7.8891Y-5.1553
T5
X3.3598Y-4.4054
X3.3602Y-3.7054
X3.4598Y-4.4054
X3.4602Y-3.7054
X3.95Y-4.4054
X3.9504Y-3.7054
X4.05Y-4.4054
X4.0504Y-3.7054
X4.36Y-5.8498
X4.36Y-5.9498
X4.5407Y-3.7054
X4.5407Y-4.4054
X4.6407Y-3.7054
X4.6407Y-4.4054
X6.7Y-2.6964
X6.7Y-2.7964
X6.9133Y-2.5764
X6.9257Y-1.1035
X6.9257Y-1.2035
X6.93Y-1.8254
X6.93Y-1.9254
X7.0133Y-2.5764
T6
X3.27Y-2.3654
X3.27Y-2.4654
X3.27Y-2.5654
X3.27Y-2.6654
X3.27Y-2.7654
X3.27Y-2.8654
X3.27Y-2.9654
X3.27Y-3.0654
X3.27Y-3.1654
X3.27Y-3.2654
X3.27Y-3.3654
X3.27Y-3.4654
X3.27Y-3.5654
X3.517Y-2.0704
X3.59Y-5.6231
X3.59Y-5.7216
X3.59Y-5.82
X3.6155Y-2.0704
X3.7139Y-2.0704
X4.02Y-5.95
X4.12Y-5.95
X4.22Y-5.95
X4.26Y-1.6254
X4.26Y-1.7254
X4.26Y-1.8254
X4.2858Y-2.0708
X4.3842Y-2.0708
X4.4827Y-2.0708
X4.4965Y-1.5954
X4.4965Y-1.6954
X4.4965Y-1.7954
X4.4965Y-1.8954
X4.644Y-1.5954
X4.644Y-1.6954
X4.644Y-1.7954
X4.644Y-1.8954
X6.47Y-2.3654
X6.47Y-2.4654
X6.47Y-2.5654
X6.47Y-2.6654
X6.47Y-2.7654
X6.47Y-2.8654
X6.47Y-2.9654
X6.47Y-3.0654
X6.47Y-3.1654
X6.47Y-3.2654
X6.47Y-3.3654
X6.47Y-3.4654
X6.47Y-3.5654
X6.58Y-1.2554
X6.58Y-1.3554
X6.58Y-1.4554
X6.58Y-1.5554
X6.58Y-1.6554
X6.58Y-1.7554
X6.58Y-1.8554
X6.58Y-1.9554
X6.68Y-1.2554
X6.68Y-1.3554
X6.68Y-1.4554
X6.68Y-1.5554
X6.68Y-1.6554
X6.68Y-1.7554
X6.68Y-1.8554
X6.68Y-1.9554
X7.1837Y-2.6512
X7.1837Y-2.7512
X7.1837Y-2.8512
X7.1837Y-2.9512
X7.1837Y-3.0512
X7.1837Y-3.1512
X7.1837Y-3.2512
X7.1837Y-3.3512
X7.1837Y-3.4512
X7.1837Y-3.5512
X7.1837Y-3.6512
X7.1837Y-3.7512
X7.1837Y-3.8512
X7.1837Y-3.9512
X7.1837Y-4.0512
X7.1837Y-4.1512
X7.1837Y-4.2512
X7.1837Y-4.3512
X7.1837Y-4.4512
X7.1837Y-4.5512
X7.59Y-1.1264
X7.59Y-1.2264
X7.69Y-1.1264
X7.69Y-1.2264
X7.6975Y-1.5954
X7.6975Y-1.6954
X7.6975Y-1.7954
X7.6975Y-1.8954
X7.79Y-1.1264
X7.79Y-1.2264
X7.85Y-1.9154
X7.85Y-2.0154
X7.85Y-2.1154
X7.85Y-2.2154
X7.8837Y-2.6512
X7.8837Y-2.7512
X7.8837Y-2.8512
X7.8837Y-2.9512
X7.8837Y-3.0512
X7.8837Y-3.1512
X7.8837Y-3.2512
X7.8837Y-3.3512
X7.8837Y-3.4512
X7.8837Y-3.5512
X7.8837Y-3.6512
X7.8837Y-3.7512
X7.8837Y-3.8512
X7.8837Y-3.9512
X7.8837Y-4.0512
X7.8837Y-4.1512
X7.8837Y-4.2512
X7.8837Y-4.3512
X7.8837Y-4.4512
X7.8837Y-4.5512
X7.89Y-1.1264
X7.89Y-1.2264
T7
X7.1379Y-1.1525
X7.2379Y-1.1525
X7.3379Y-1.1525
T8
X3.3355Y-1.2654
X3.41Y-3.8265
X3.41Y-4.5265
X4.0002Y-3.8265
X4.0002Y-4.5265
X4.5905Y-3.8265
X4.5905Y-4.5265
X4.62Y-5.93
X4.6638Y-1.2674
T9
X3.41Y-3.9486
X3.41Y-4.6486
X3.4575Y-1.2654
X4.0002Y-3.9486
X4.0002Y-4.6486
X4.5418Y-1.2674
X4.5905Y-3.9486
X4.5905Y-4.6486
X4.62Y-5.808
T10
X3.41Y-4.2754
X3.41Y-4.9754
X3.7843Y-1.2654
X4.0002Y-4.2754
X4.0002Y-4.9754
X4.215Y-1.2674
X4.5905Y-4.2754
X4.5905Y-4.9754
X4.62Y-5.4812
T11
X3.46Y-2.9654
X3.71Y-2.8654
X4.241Y-2.9664
X4.491Y-2.8664
T0
M30
