M48
; DRILL file {KiCad 7.0.9} date Tue Nov 28 21:36:28 2023
; FORMAT={-:-/ absolute / inch / decimal}
; #@! TF.CreationDate,2023-11-28T21:36:28+01:00
; #@! TF.GenerationSoftware,Kicad,Pcbnew,7.0.9
; #@! TF.FileFunction,Plated,1,2,PTH
FMAT,2
INCH
; #@! TA.AperFunction,Plated,PTH,ViaDrill
T1C0.0197
; #@! TA.AperFunction,Plated,PTH,ComponentDrill
T2C0.0295
; #@! TA.AperFunction,Plated,PTH,ComponentDrill
T3C0.0315
; #@! TA.AperFunction,Plated,PTH,ComponentDrill
T4C0.0354
; #@! TA.AperFunction,Plated,PTH,ComponentDrill
T5C0.0394
; #@! TA.AperFunction,Plated,PTH,ComponentDrill
T6C0.0433
; #@! TA.AperFunction,Plated,PTH,ComponentDrill
T7C0.0480
; #@! TA.AperFunction,Plated,PTH,ComponentDrill
T8C0.0559
; #@! TA.AperFunction,Plated,PTH,ComponentDrill
T9C0.0563
; #@! TA.AperFunction,Plated,PTH,ComponentDrill
T10C0.0591
%
G90
G05
T1
X3.67Y-3.64
X3.7325Y-3.0287
X3.9093Y-3.1907
X3.92Y-3.45
X3.92Y-3.62
X6.5678Y-3.2285
X6.5679Y-3.9499
X6.6379Y-5.2799
X6.6679Y-3.8499
X7.0825Y-4.0154
X7.09Y-4.83
X7.27Y-3.3354
X7.2735Y-3.1979
X7.28Y-3.87
X7.2823Y-4.833
X7.3133Y-3.5367
X7.35Y-2.691
X7.44Y-3.48
X7.4427Y-3.145
X7.51Y-3.44
X7.54Y-2.52
X7.575Y-4.7259
X7.58Y-4.11
X7.6Y-3.96
X7.76Y-3.56
X7.76Y-3.7719
X7.84Y-2.74
T2
X6.9192Y-3.101
X6.9692Y-3.051
X7.0192Y-3.101
T3
X3.5789Y-4.04
X3.67Y-4.34
X3.67Y-4.54
X3.68Y-4.7489
X3.68Y-4.9489
X3.68Y-5.07
X3.68Y-5.27
X3.7789Y-4.04
X3.79Y-3.88
X3.9205Y-1.4539
X3.9205Y-1.6539
X3.99Y-3.88
X4.0205Y-2.41
X4.0205Y-2.61
X4.025Y-2.78
X4.025Y-2.98
X4.0755Y-1.5607
X4.0755Y-1.7607
X4.1611Y-4.74
X4.17Y-3.8589
X4.17Y-4.0589
X4.27Y-4.4289
X4.27Y-4.6289
X4.3205Y-4.8677
X4.3205Y-5.0677
X4.3205Y-5.1689
X4.3205Y-5.3689
X4.33Y-4.03
X4.33Y-4.23
X4.3505Y-3.89
X4.3611Y-4.74
X4.5505Y-3.89
X6.4779Y-5.0277
X6.4779Y-5.2277
X6.4779Y-5.3199
X6.4779Y-5.5199
X6.5273Y-4.4199
X6.5279Y-4.6799
X6.606Y-4.4199
X6.6067Y-4.6799
X6.6079Y-5.1999
X6.6079Y-5.4999
X6.6168Y-4.0499
X6.6379Y-4.2099
X6.6379Y-5.0611
X6.6479Y-4.9199
X6.7079Y-5.1999
X6.7079Y-5.4999
X6.75Y-2.6216
X6.75Y-2.7004
X6.7573Y-4.4199
X6.7579Y-4.6799
X6.8079Y-5.1999
X6.8079Y-5.4999
X6.8168Y-4.0499
X6.836Y-4.4199
X6.8367Y-4.6799
X6.8379Y-4.2099
X6.8379Y-5.0611
X6.8479Y-4.9199
X6.9079Y-5.1999
X6.9079Y-5.4999
X6.97Y-2.471
X6.97Y-2.571
X6.97Y-2.671
X6.97Y-2.771
X6.97Y-3.9021
X6.97Y-4.1021
X6.9779Y-5.0299
X7.0079Y-5.1999
X7.0079Y-5.4999
X7.0179Y-4.3588
X7.0179Y-4.5588
X7.0619Y-1.781
X7.0619Y-2.001
X7.0619Y-2.221
X7.1079Y-5.1999
X7.1079Y-5.4999
X7.1406Y-1.781
X7.1406Y-2.001
X7.1406Y-2.221
X7.1779Y-5.0299
X7.2079Y-5.1999
X7.2079Y-5.4999
X7.27Y-2.471
X7.27Y-2.571
X7.27Y-2.671
X7.27Y-2.771
X7.2992Y-1.6699
X7.2992Y-1.8899
X7.2992Y-2.1099
X7.3323Y-4.2799
X7.34Y-4.4187
X7.34Y-4.6187
X7.34Y-4.731
X7.34Y-4.931
X7.34Y-5.051
X7.34Y-5.251
X7.3411Y-4.021
X7.3589Y-3.391
X7.3589Y-3.591
X7.3589Y-3.7099
X7.3589Y-3.9099
X7.3779Y-1.6699
X7.3779Y-1.8899
X7.3779Y-2.1099
X7.3779Y-5.4899
X7.4011Y-2.431
X7.46Y-4.431
X7.46Y-4.531
X7.46Y-4.631
X7.46Y-4.731
X7.46Y-4.831
X7.46Y-4.931
X7.46Y-5.031
X7.49Y-5.1721
X7.49Y-5.3721
X7.5311Y-2.6021
X7.5311Y-2.8021
X7.5323Y-4.2799
X7.54Y-3.5825
X7.54Y-3.8225
X7.5411Y-4.021
X7.5779Y-5.4899
X7.6011Y-2.431
X7.6187Y-3.5825
X7.6187Y-3.8225
X7.62Y-5.171
X7.62Y-5.371
X7.6606Y-2.7
X7.6891Y-5.4899
X7.7Y-2.8913
X7.7Y-2.97
X7.7Y-3.1213
X7.7Y-3.2
X7.73Y-4.0821
X7.73Y-4.2821
X7.7394Y-2.7
X7.75Y-5.1699
X7.75Y-5.3699
X7.76Y-4.431
X7.76Y-4.531
X7.76Y-4.631
X7.76Y-4.731
X7.76Y-4.831
X7.76Y-4.931
X7.76Y-5.031
X7.8891Y-5.4899
T4
X3.3598Y-4.74
X3.3602Y-4.04
X3.4598Y-4.74
X3.4602Y-4.04
X3.95Y-4.74
X3.9504Y-4.04
X4.05Y-4.74
X4.0504Y-4.04
X4.5407Y-4.04
X4.5407Y-4.74
X4.6407Y-4.04
X4.6407Y-4.74
X6.7Y-3.031
X6.7Y-3.131
X6.9133Y-2.911
X6.9257Y-1.4381
X6.9257Y-1.5381
X6.93Y-2.16
X6.93Y-2.26
X7.0133Y-2.911
T5
X3.27Y-2.7
X3.27Y-2.8
X3.27Y-2.9
X3.27Y-3.0
X3.27Y-3.1
X3.27Y-3.2
X3.27Y-3.3
X3.27Y-3.4
X3.27Y-3.5
X3.27Y-3.6
X3.27Y-3.7
X3.27Y-3.8
X3.27Y-3.9
X3.517Y-2.405
X3.6155Y-2.405
X3.7139Y-2.405
X4.26Y-1.96
X4.26Y-2.06
X4.26Y-2.16
X4.2858Y-2.4054
X4.3842Y-2.4054
X4.4827Y-2.4054
X4.4965Y-1.93
X4.4965Y-2.03
X4.4965Y-2.13
X4.4965Y-2.23
X4.644Y-1.93
X4.644Y-2.03
X4.644Y-2.13
X4.644Y-2.23
X6.47Y-2.7
X6.47Y-2.8
X6.47Y-2.9
X6.47Y-3.0
X6.47Y-3.1
X6.47Y-3.2
X6.47Y-3.3
X6.47Y-3.4
X6.47Y-3.5
X6.47Y-3.6
X6.47Y-3.7
X6.47Y-3.8
X6.47Y-3.9
X6.58Y-1.59
X6.58Y-1.69
X6.58Y-1.79
X6.58Y-1.89
X6.58Y-1.99
X6.58Y-2.09
X6.58Y-2.19
X6.58Y-2.29
X6.68Y-1.59
X6.68Y-1.69
X6.68Y-1.79
X6.68Y-1.89
X6.68Y-1.99
X6.68Y-2.09
X6.68Y-2.19
X6.68Y-2.29
X7.1837Y-2.9859
X7.1837Y-3.0859
X7.1837Y-3.1859
X7.1837Y-3.2859
X7.1837Y-3.3859
X7.1837Y-3.4859
X7.1837Y-3.5859
X7.1837Y-3.6859
X7.1837Y-3.7859
X7.1837Y-3.8859
X7.1837Y-3.9859
X7.1837Y-4.0859
X7.1837Y-4.1859
X7.1837Y-4.2859
X7.1837Y-4.3859
X7.1837Y-4.4859
X7.1837Y-4.5859
X7.1837Y-4.6859
X7.1837Y-4.7859
X7.1837Y-4.8859
X7.59Y-1.461
X7.59Y-1.561
X7.69Y-1.461
X7.69Y-1.561
X7.6975Y-1.93
X7.6975Y-2.03
X7.6975Y-2.13
X7.6975Y-2.23
X7.79Y-1.461
X7.79Y-1.561
X7.85Y-2.25
X7.85Y-2.35
X7.85Y-2.45
X7.85Y-2.55
X7.8837Y-2.9859
X7.8837Y-3.0859
X7.8837Y-3.1859
X7.8837Y-3.2859
X7.8837Y-3.3859
X7.8837Y-3.4859
X7.8837Y-3.5859
X7.8837Y-3.6859
X7.8837Y-3.7859
X7.8837Y-3.8859
X7.8837Y-3.9859
X7.8837Y-4.0859
X7.8837Y-4.1859
X7.8837Y-4.2859
X7.8837Y-4.3859
X7.8837Y-4.4859
X7.8837Y-4.5859
X7.8837Y-4.6859
X7.8837Y-4.7859
X7.8837Y-4.8859
X7.89Y-1.461
X7.89Y-1.561
T6
X7.1379Y-1.4871
X7.2379Y-1.4871
X7.3379Y-1.4871
T7
X3.3355Y-1.6
X3.41Y-4.1612
X3.41Y-4.8612
X4.0002Y-4.1612
X4.0002Y-4.8612
X4.5905Y-4.1612
X4.5905Y-4.8612
X4.6638Y-1.602
T8
X3.41Y-4.2832
X3.41Y-4.9832
X3.4575Y-1.6
X4.0002Y-4.2832
X4.0002Y-4.9832
X4.5418Y-1.602
X4.5905Y-4.2832
X4.5905Y-4.9832
T9
X3.41Y-4.61
X3.41Y-5.31
X3.7843Y-1.6
X4.0002Y-4.61
X4.0002Y-5.31
X4.215Y-1.602
X4.5905Y-4.61
X4.5905Y-5.31
T10
X3.46Y-3.3
X3.71Y-3.2
X4.241Y-3.301
X4.491Y-3.201
T0
M30
