%TF.GenerationSoftware,KiCad,Pcbnew,7.0.9*%
%TF.CreationDate,2023-11-30T20:30:28+01:00*%
%TF.ProjectId,euroPI-kicad_surfacemount_discretes_and_ics,6575726f-5049-42d6-9b69-6361645f7375,rev?*%
%TF.SameCoordinates,Original*%
%TF.FileFunction,Drillmap*%
%TF.FilePolarity,Positive*%
%FSLAX45Y45*%
G04 Gerber Fmt 4.5, Leading zero omitted, Abs format (unit mm)*
G04 Created by KiCad (PCBNEW 7.0.9) date 2023-11-30 20:30:28*
%MOMM*%
%LPD*%
G01*
G04 APERTURE LIST*
%ADD10C,0.100000*%
%ADD11C,0.200000*%
%ADD12C,0.110000*%
%ADD13C,0.122000*%
%ADD14C,0.142000*%
%ADD15C,0.143000*%
%ADD16C,0.150000*%
G04 APERTURE END LIST*
D10*
X12899380Y-10261080D02*
G75*
G03*
X12899380Y-10261080I-175000J0D01*
G01*
X13024380Y-13005080D02*
G75*
G03*
X13024380Y-13005080I-300000J0D01*
G01*
X13081419Y-4858340D02*
G75*
G03*
X12974320Y-4965020I-209J-106890D01*
G01*
X16021580Y-13004800D02*
G75*
G03*
X16021580Y-13004800I-300000J0D01*
G01*
X12974320Y-5488521D02*
G75*
G03*
X13081000Y-5595620I106890J-209D01*
G01*
X16021580Y-11226800D02*
G75*
G03*
X16021580Y-11226800I-300000J0D01*
G01*
X14525520Y-11226800D02*
G75*
G03*
X14525520Y-11226800I-300000J0D01*
G01*
X14525520Y-13004800D02*
G75*
G03*
X14525520Y-13004800I-300000J0D01*
G01*
X8128000Y-2540000D02*
X20320000Y-2540000D01*
X20320000Y-15389860D01*
X8128000Y-15389860D01*
X8128000Y-2540000D01*
X13650320Y-6807200D02*
G75*
G03*
X13650320Y-6807200I-390000J0D01*
G01*
X13481580Y-4058400D02*
G75*
G03*
X13481580Y-4058400I-300000J0D01*
G01*
X15896580Y-12039600D02*
G75*
G03*
X15896580Y-12039600I-175000J0D01*
G01*
X12899380Y-12039880D02*
G75*
G03*
X12899380Y-12039880I-175000J0D01*
G01*
X15361501Y-5595830D02*
G75*
G03*
X15468600Y-5489150I209J106890D01*
G01*
X15593420Y-6807200D02*
G75*
G03*
X15593420Y-6807200I-390000J0D01*
G01*
X12974320Y-4965020D02*
X12974322Y-5488521D01*
X14400520Y-12039600D02*
G75*
G03*
X14400520Y-12039600I-175000J0D01*
G01*
X14414500Y-7835900D02*
X16014700Y-7835900D01*
X16014700Y-9423400D01*
X14414500Y-9423400D01*
X14414500Y-7835900D01*
X12433300Y-7835900D02*
X14033500Y-7835900D01*
X14033500Y-9423400D01*
X12433300Y-9423400D01*
X12433300Y-7835900D01*
X13081000Y-5595620D02*
X15361501Y-5595829D01*
X15896580Y-10260800D02*
G75*
G03*
X15896580Y-10260800I-175000J0D01*
G01*
X15468599Y-4965700D02*
G75*
G03*
X15361922Y-4858601I-106889J210D01*
G01*
X15564380Y-4069600D02*
G75*
G03*
X15564380Y-4069600I-300000J0D01*
G01*
X15468600Y-5489150D02*
X15468600Y-4965700D01*
X15361922Y-4858601D02*
X13081419Y-4858342D01*
X14400520Y-10260800D02*
G75*
G03*
X14400520Y-10260800I-175000J0D01*
G01*
X13024380Y-11227080D02*
G75*
G03*
X13024380Y-11227080I-300000J0D01*
G01*
D11*
D10*
X9327200Y-11700100D02*
X9367200Y-11740100D01*
X9367200Y-11700100D02*
X9327200Y-11740100D01*
X9986965Y-5456400D02*
X10026965Y-5496400D01*
X10026965Y-5456400D02*
X9986965Y-5496400D01*
X10190800Y-5606100D02*
X10230800Y-5646100D01*
X10230800Y-5606100D02*
X10190800Y-5646100D01*
X10776800Y-9937314D02*
X10816800Y-9977314D01*
X10816800Y-9937314D02*
X10776800Y-9977314D01*
X10953965Y-11981500D02*
X10993965Y-12021500D01*
X10993965Y-11981500D02*
X10953965Y-12021500D01*
X11030799Y-10682301D02*
X11070799Y-10722301D01*
X11070799Y-10682301D02*
X11030799Y-10722301D01*
X16635100Y-10025700D02*
X16675100Y-10065700D01*
X16675100Y-10025700D02*
X16635100Y-10065700D01*
X16665260Y-5644200D02*
X16705260Y-5684200D01*
X16705260Y-5644200D02*
X16665260Y-5684200D01*
X16680500Y-11321100D02*
X16720500Y-11361100D01*
X16720500Y-11321100D02*
X16680500Y-11361100D01*
X16759700Y-9669899D02*
X16799700Y-9709899D01*
X16799700Y-9669899D02*
X16759700Y-9709899D01*
X16825300Y-10838500D02*
X16865300Y-10878500D01*
X16865300Y-10838500D02*
X16825300Y-10878500D01*
X16858300Y-9238300D02*
X16898300Y-9278300D01*
X16898300Y-9238300D02*
X16858300Y-9278300D01*
X16899852Y-10544148D02*
X16939852Y-10584148D01*
X16939852Y-10544148D02*
X16899852Y-10584148D01*
X17036231Y-11158051D02*
X17076231Y-11198051D01*
X17076231Y-11158051D02*
X17036231Y-11198051D01*
X17053900Y-11371900D02*
X17093900Y-11411900D01*
X17093900Y-11371900D02*
X17053900Y-11411900D01*
X17085300Y-10254300D02*
X17125300Y-10294300D01*
X17125300Y-10254300D02*
X17085300Y-10294300D01*
X17086900Y-8882700D02*
X17126900Y-8922700D01*
X17126900Y-8882700D02*
X17086900Y-8922700D01*
X17127271Y-10905079D02*
X17167271Y-10945079D01*
X17167271Y-10905079D02*
X17127271Y-10945079D01*
X17342100Y-9898700D02*
X17382100Y-9938700D01*
X17382100Y-9898700D02*
X17342100Y-9938700D01*
X17351806Y-10508198D02*
X17391806Y-10548198D01*
X17391806Y-10508198D02*
X17351806Y-10548198D01*
X17439055Y-10446989D02*
X17479055Y-10486989D01*
X17479055Y-10446989D02*
X17439055Y-10486989D01*
X17439800Y-9860231D02*
X17479800Y-9900231D01*
X17479800Y-9860231D02*
X17439800Y-9900231D01*
X17546640Y-7176101D02*
X17586640Y-7216101D01*
X17586640Y-7176101D02*
X17546640Y-7216101D01*
X17548138Y-11486900D02*
X17588138Y-11526900D01*
X17588138Y-11486900D02*
X17548138Y-11526900D01*
X17556800Y-9581200D02*
X17596800Y-9621200D01*
X17596800Y-9581200D02*
X17556800Y-9621200D01*
X17559010Y-10326598D02*
X17599010Y-10366598D01*
X17599010Y-10326598D02*
X17559010Y-10366598D01*
X17620300Y-8793800D02*
X17660300Y-8833800D01*
X17660300Y-8793800D02*
X17620300Y-8833800D01*
X17632300Y-7515101D02*
X17672300Y-7555101D01*
X17672300Y-7515101D02*
X17632300Y-7555101D01*
X17632300Y-7690356D02*
X17672300Y-7730356D01*
X17672300Y-7690356D02*
X17632300Y-7730356D01*
X17641347Y-7261101D02*
X17681347Y-7301101D01*
X17681347Y-7261101D02*
X17641347Y-7301101D01*
X17641883Y-6838000D02*
X17681883Y-6878000D01*
X17681883Y-6838000D02*
X17641883Y-6878000D01*
X17843872Y-9617472D02*
X17883872Y-9657472D01*
X17883872Y-9617472D02*
X17843872Y-9657472D01*
X17892080Y-6144580D02*
X17932080Y-6184580D01*
X17932080Y-6144580D02*
X17892080Y-6184580D01*
X17925612Y-4412812D02*
X17965612Y-4452812D01*
X17965612Y-4412812D02*
X17925612Y-4452812D01*
X18002559Y-7181530D02*
X18042559Y-7221530D01*
X18042559Y-7181530D02*
X18002559Y-7221530D01*
X18141000Y-3332800D02*
X18181000Y-3372800D01*
X18181000Y-3332800D02*
X18141000Y-3372800D01*
X18168210Y-11401940D02*
X18208210Y-11441940D01*
X18208210Y-11401940D02*
X18168210Y-11441940D01*
X18171500Y-11244900D02*
X18211500Y-11284900D01*
X18211500Y-11244900D02*
X18171500Y-11284900D01*
X18251300Y-4310700D02*
X18291300Y-4350700D01*
X18291300Y-4310700D02*
X18251300Y-4350700D01*
X18272900Y-11778300D02*
X18312900Y-11818300D01*
X18312900Y-11778300D02*
X18272900Y-11818300D01*
X18339654Y-4619549D02*
X18379654Y-4659549D01*
X18379654Y-4619549D02*
X18339654Y-4659549D01*
X18398500Y-4904100D02*
X18438500Y-4944100D01*
X18438500Y-4904100D02*
X18398500Y-4944100D01*
X18437429Y-10141238D02*
X18477429Y-10181238D01*
X18477429Y-10141238D02*
X18437429Y-10181238D01*
X18543700Y-10127300D02*
X18583700Y-10167300D01*
X18583700Y-10127300D02*
X18543700Y-10167300D01*
X18628700Y-10838500D02*
X18668700Y-10878500D01*
X18668700Y-10838500D02*
X18628700Y-10878500D01*
X18644150Y-3185250D02*
X18684150Y-3225250D01*
X18684150Y-3185250D02*
X18644150Y-3225250D01*
X18822582Y-4445738D02*
X18862582Y-4485738D01*
X18862582Y-4445738D02*
X18822582Y-4485738D01*
X18843384Y-11434184D02*
X18883384Y-11474184D01*
X18883384Y-11434184D02*
X18843384Y-11474184D01*
X18844333Y-11308133D02*
X18884333Y-11348133D01*
X18884333Y-11308133D02*
X18844333Y-11348133D01*
X18987300Y-7339677D02*
X19027300Y-7379677D01*
X19027300Y-7339677D02*
X18987300Y-7379677D01*
X19085900Y-10965500D02*
X19125900Y-11005500D01*
X19125900Y-10965500D02*
X19085900Y-11005500D01*
X19111298Y-8069900D02*
X19151298Y-8109900D01*
X19151298Y-8069900D02*
X19111298Y-8109900D01*
X19182400Y-7396800D02*
X19222400Y-7436800D01*
X19222400Y-7396800D02*
X19182400Y-7436800D01*
X19677700Y-7371400D02*
X19717700Y-7411400D01*
X19717700Y-7371400D02*
X19677700Y-7411400D01*
X9346800Y-8395600D02*
G75*
G03*
X9346800Y-8395600I-25000J0D01*
G01*
X9505463Y-6843000D02*
G75*
G03*
X9505463Y-6843000I-25000J0D01*
G01*
X9981800Y-7913000D02*
G75*
G03*
X9981800Y-7913000I-25000J0D01*
G01*
X10071150Y-7137850D02*
G75*
G03*
X10071150Y-7137850I-25000J0D01*
G01*
X10337400Y-8344800D02*
G75*
G03*
X10337400Y-8344800I-25000J0D01*
G01*
X17282600Y-6185500D02*
X17282600Y-6260500D01*
X17245100Y-6223000D02*
X17320100Y-6223000D01*
X17409600Y-6058500D02*
X17409600Y-6133500D01*
X17372100Y-6096000D02*
X17447100Y-6096000D01*
X17409600Y-6312500D02*
X17409600Y-6387500D01*
X17372100Y-6350000D02*
X17447100Y-6350000D01*
X8565720Y-11221420D02*
X8565720Y-11157780D01*
X8502080Y-11157780D01*
X8502080Y-11221420D01*
X8565720Y-11221420D01*
X8566720Y-9443420D02*
X8566720Y-9379780D01*
X8503080Y-9379780D01*
X8503080Y-9443420D01*
X8566720Y-9443420D01*
X8819720Y-11221420D02*
X8819720Y-11157780D01*
X8756080Y-11157780D01*
X8756080Y-11221420D01*
X8819720Y-11221420D01*
X8820720Y-9443420D02*
X8820720Y-9379780D01*
X8757080Y-9379780D01*
X8757080Y-9443420D01*
X8820720Y-9443420D01*
X10064903Y-11221420D02*
X10064903Y-11157780D01*
X10001262Y-11157780D01*
X10001262Y-11221420D01*
X10064903Y-11221420D01*
X10065903Y-9443420D02*
X10065903Y-9379780D01*
X10002262Y-9379780D01*
X10002262Y-9443420D01*
X10065903Y-9443420D01*
X10318903Y-11221420D02*
X10318903Y-11157780D01*
X10255262Y-11157780D01*
X10255262Y-11221420D01*
X10318903Y-11221420D01*
X10319903Y-9443420D02*
X10319903Y-9379780D01*
X10256262Y-9379780D01*
X10256262Y-9443420D01*
X10319903Y-9443420D01*
X10623620Y-14484420D02*
X10623620Y-14420780D01*
X10559980Y-14420780D01*
X10559980Y-14484420D01*
X10623620Y-14484420D01*
X10623620Y-14738420D02*
X10623620Y-14674780D01*
X10559980Y-14674780D01*
X10559980Y-14738420D01*
X10623620Y-14738420D01*
X11565085Y-9443420D02*
X11565085Y-9379780D01*
X11501445Y-9379780D01*
X11501445Y-9443420D01*
X11565085Y-9443420D01*
X11565085Y-11221420D02*
X11565085Y-11157780D01*
X11501445Y-11157780D01*
X11501445Y-11221420D01*
X11565085Y-11221420D01*
X11819085Y-9443420D02*
X11819085Y-9379780D01*
X11755445Y-9379780D01*
X11755445Y-9443420D01*
X11819085Y-9443420D01*
X11819085Y-11221420D02*
X11819085Y-11157780D01*
X11755445Y-11157780D01*
X11755445Y-11221420D01*
X11819085Y-11221420D01*
X8305800Y-6058000D02*
X8355800Y-6008000D01*
X8305800Y-5958000D01*
X8255800Y-6008000D01*
X8305800Y-6058000D01*
X8305800Y-6312000D02*
X8355800Y-6262000D01*
X8305800Y-6212000D01*
X8255800Y-6262000D01*
X8305800Y-6312000D01*
X8305800Y-6566000D02*
X8355800Y-6516000D01*
X8305800Y-6466000D01*
X8255800Y-6516000D01*
X8305800Y-6566000D01*
X8305800Y-6820000D02*
X8355800Y-6770000D01*
X8305800Y-6720000D01*
X8255800Y-6770000D01*
X8305800Y-6820000D01*
X8305800Y-7074000D02*
X8355800Y-7024000D01*
X8305800Y-6974000D01*
X8255800Y-7024000D01*
X8305800Y-7074000D01*
X8305800Y-7328000D02*
X8355800Y-7278000D01*
X8305800Y-7228000D01*
X8255800Y-7278000D01*
X8305800Y-7328000D01*
X8305800Y-7582000D02*
X8355800Y-7532000D01*
X8305800Y-7482000D01*
X8255800Y-7532000D01*
X8305800Y-7582000D01*
X8305800Y-7836000D02*
X8355800Y-7786000D01*
X8305800Y-7736000D01*
X8255800Y-7786000D01*
X8305800Y-7836000D01*
X8305800Y-8090000D02*
X8355800Y-8040000D01*
X8305800Y-7990000D01*
X8255800Y-8040000D01*
X8305800Y-8090000D01*
X8305800Y-8344000D02*
X8355800Y-8294000D01*
X8305800Y-8244000D01*
X8255800Y-8294000D01*
X8305800Y-8344000D01*
X8305800Y-8598000D02*
X8355800Y-8548000D01*
X8305800Y-8498000D01*
X8255800Y-8548000D01*
X8305800Y-8598000D01*
X8305800Y-8852000D02*
X8355800Y-8802000D01*
X8305800Y-8752000D01*
X8255800Y-8802000D01*
X8305800Y-8852000D01*
X8305800Y-9106000D02*
X8355800Y-9056000D01*
X8305800Y-9006000D01*
X8255800Y-9056000D01*
X8305800Y-9106000D01*
X8933265Y-5308700D02*
X8983265Y-5258700D01*
X8933265Y-5208700D01*
X8883265Y-5258700D01*
X8933265Y-5308700D01*
X9183265Y-5308700D02*
X9233265Y-5258700D01*
X9183265Y-5208700D01*
X9133265Y-5258700D01*
X9183265Y-5308700D01*
X9433265Y-5308700D02*
X9483265Y-5258700D01*
X9433265Y-5208700D01*
X9383265Y-5258700D01*
X9433265Y-5308700D01*
X9499600Y-14387800D02*
X9549600Y-14337800D01*
X9499600Y-14287800D01*
X9449600Y-14337800D01*
X9499600Y-14387800D01*
X9499600Y-14637800D02*
X9549600Y-14587800D01*
X9499600Y-14537800D01*
X9449600Y-14587800D01*
X9499600Y-14637800D01*
X9499600Y-14887800D02*
X9549600Y-14837800D01*
X9499600Y-14787800D01*
X9449600Y-14837800D01*
X9499600Y-14887800D01*
X10058400Y-15116400D02*
X10108400Y-15066400D01*
X10058400Y-15016400D01*
X10008400Y-15066400D01*
X10058400Y-15116400D01*
X10312400Y-15116400D02*
X10362400Y-15066400D01*
X10312400Y-15016400D01*
X10262400Y-15066400D01*
X10312400Y-15116400D01*
X10566400Y-15116400D02*
X10616400Y-15066400D01*
X10566400Y-15016400D01*
X10516400Y-15066400D01*
X10566400Y-15116400D01*
X10820400Y-4178400D02*
X10870400Y-4128400D01*
X10820400Y-4078400D01*
X10770400Y-4128400D01*
X10820400Y-4178400D01*
X10820400Y-4432400D02*
X10870400Y-4382400D01*
X10820400Y-4332400D01*
X10770400Y-4382400D01*
X10820400Y-4432400D01*
X10820400Y-4686400D02*
X10870400Y-4636400D01*
X10820400Y-4586400D01*
X10770400Y-4636400D01*
X10820400Y-4686400D01*
X10885940Y-5309740D02*
X10935940Y-5259740D01*
X10885940Y-5209740D01*
X10835940Y-5259740D01*
X10885940Y-5309740D01*
X11135940Y-5309740D02*
X11185940Y-5259740D01*
X11135940Y-5209740D01*
X11085940Y-5259740D01*
X11135940Y-5309740D01*
X11385940Y-5309740D02*
X11435940Y-5259740D01*
X11385940Y-5209740D01*
X11335940Y-5259740D01*
X11385940Y-5309740D01*
X11421150Y-4102200D02*
X11471150Y-4052200D01*
X11421150Y-4002200D01*
X11371150Y-4052200D01*
X11421150Y-4102200D01*
X11421150Y-4356200D02*
X11471150Y-4306200D01*
X11421150Y-4256200D01*
X11371150Y-4306200D01*
X11421150Y-4356200D01*
X11421150Y-4610200D02*
X11471150Y-4560200D01*
X11421150Y-4510200D01*
X11371150Y-4560200D01*
X11421150Y-4610200D01*
X11421150Y-4864200D02*
X11471150Y-4814200D01*
X11421150Y-4764200D01*
X11371150Y-4814200D01*
X11421150Y-4864200D01*
X11795760Y-4102200D02*
X11845760Y-4052200D01*
X11795760Y-4002200D01*
X11745760Y-4052200D01*
X11795760Y-4102200D01*
X11795760Y-4356200D02*
X11845760Y-4306200D01*
X11795760Y-4256200D01*
X11745760Y-4306200D01*
X11795760Y-4356200D01*
X11795760Y-4610200D02*
X11845760Y-4560200D01*
X11795760Y-4510200D01*
X11745760Y-4560200D01*
X11795760Y-4610200D01*
X11795760Y-4864200D02*
X11845760Y-4814200D01*
X11795760Y-4764200D01*
X11745760Y-4814200D01*
X11795760Y-4864200D01*
X16421100Y-6057100D02*
X16471100Y-6007100D01*
X16421100Y-5957100D01*
X16371100Y-6007100D01*
X16421100Y-6057100D01*
X16421100Y-6311100D02*
X16471100Y-6261100D01*
X16421100Y-6211100D01*
X16371100Y-6261100D01*
X16421100Y-6311100D01*
X16421100Y-6565100D02*
X16471100Y-6515100D01*
X16421100Y-6465100D01*
X16371100Y-6515100D01*
X16421100Y-6565100D01*
X16421100Y-6819100D02*
X16471100Y-6769100D01*
X16421100Y-6719100D01*
X16371100Y-6769100D01*
X16421100Y-6819100D01*
X16421100Y-7073100D02*
X16471100Y-7023100D01*
X16421100Y-6973100D01*
X16371100Y-7023100D01*
X16421100Y-7073100D01*
X16421100Y-7327100D02*
X16471100Y-7277100D01*
X16421100Y-7227100D01*
X16371100Y-7277100D01*
X16421100Y-7327100D01*
X16421100Y-7581100D02*
X16471100Y-7531100D01*
X16421100Y-7481100D01*
X16371100Y-7531100D01*
X16421100Y-7581100D01*
X16421100Y-7835100D02*
X16471100Y-7785100D01*
X16421100Y-7735100D01*
X16371100Y-7785100D01*
X16421100Y-7835100D01*
X16421100Y-8089100D02*
X16471100Y-8039100D01*
X16421100Y-7989100D01*
X16371100Y-8039100D01*
X16421100Y-8089100D01*
X16421100Y-8343100D02*
X16471100Y-8293100D01*
X16421100Y-8243100D01*
X16371100Y-8293100D01*
X16421100Y-8343100D01*
X16421100Y-8597100D02*
X16471100Y-8547100D01*
X16421100Y-8497100D01*
X16371100Y-8547100D01*
X16421100Y-8597100D01*
X16421100Y-8851100D02*
X16471100Y-8801100D01*
X16421100Y-8751100D01*
X16371100Y-8801100D01*
X16421100Y-8851100D01*
X16421100Y-9105100D02*
X16471100Y-9055100D01*
X16421100Y-9005100D01*
X16371100Y-9055100D01*
X16421100Y-9105100D01*
X16700500Y-3237700D02*
X16750500Y-3187700D01*
X16700500Y-3137700D01*
X16650500Y-3187700D01*
X16700500Y-3237700D01*
X16700500Y-3491700D02*
X16750500Y-3441700D01*
X16700500Y-3391700D01*
X16650500Y-3441700D01*
X16700500Y-3491700D01*
X16700500Y-3745700D02*
X16750500Y-3695700D01*
X16700500Y-3645700D01*
X16650500Y-3695700D01*
X16700500Y-3745700D01*
X16700500Y-3999700D02*
X16750500Y-3949700D01*
X16700500Y-3899700D01*
X16650500Y-3949700D01*
X16700500Y-3999700D01*
X16700500Y-4253700D02*
X16750500Y-4203700D01*
X16700500Y-4153700D01*
X16650500Y-4203700D01*
X16700500Y-4253700D01*
X16700500Y-4507700D02*
X16750500Y-4457700D01*
X16700500Y-4407700D01*
X16650500Y-4457700D01*
X16700500Y-4507700D01*
X16700500Y-4761700D02*
X16750500Y-4711700D01*
X16700500Y-4661700D01*
X16650500Y-4711700D01*
X16700500Y-4761700D01*
X16700500Y-5015700D02*
X16750500Y-4965700D01*
X16700500Y-4915700D01*
X16650500Y-4965700D01*
X16700500Y-5015700D01*
X16954500Y-3237700D02*
X17004500Y-3187700D01*
X16954500Y-3137700D01*
X16904500Y-3187700D01*
X16954500Y-3237700D01*
X16954500Y-3491700D02*
X17004500Y-3441700D01*
X16954500Y-3391700D01*
X16904500Y-3441700D01*
X16954500Y-3491700D01*
X16954500Y-3745700D02*
X17004500Y-3695700D01*
X16954500Y-3645700D01*
X16904500Y-3695700D01*
X16954500Y-3745700D01*
X16954500Y-3999700D02*
X17004500Y-3949700D01*
X16954500Y-3899700D01*
X16904500Y-3949700D01*
X16954500Y-3999700D01*
X16954500Y-4253700D02*
X17004500Y-4203700D01*
X16954500Y-4153700D01*
X16904500Y-4203700D01*
X16954500Y-4253700D01*
X16954500Y-4507700D02*
X17004500Y-4457700D01*
X16954500Y-4407700D01*
X16904500Y-4457700D01*
X16954500Y-4507700D01*
X16954500Y-4761700D02*
X17004500Y-4711700D01*
X16954500Y-4661700D01*
X16904500Y-4711700D01*
X16954500Y-4761700D01*
X16954500Y-5015700D02*
X17004500Y-4965700D01*
X16954500Y-4915700D01*
X16904500Y-4965700D01*
X16954500Y-5015700D01*
X18233900Y-5815800D02*
X18283900Y-5765800D01*
X18233900Y-5715800D01*
X18183900Y-5765800D01*
X18233900Y-5815800D01*
X18233900Y-6069800D02*
X18283900Y-6019800D01*
X18233900Y-5969800D01*
X18183900Y-6019800D01*
X18233900Y-6069800D01*
X18233900Y-6323800D02*
X18283900Y-6273800D01*
X18233900Y-6223800D01*
X18183900Y-6273800D01*
X18233900Y-6323800D01*
X18233900Y-6577800D02*
X18283900Y-6527800D01*
X18233900Y-6477800D01*
X18183900Y-6527800D01*
X18233900Y-6577800D01*
X18233900Y-6831800D02*
X18283900Y-6781800D01*
X18233900Y-6731800D01*
X18183900Y-6781800D01*
X18233900Y-6831800D01*
X18233900Y-7085800D02*
X18283900Y-7035800D01*
X18233900Y-6985800D01*
X18183900Y-7035800D01*
X18233900Y-7085800D01*
X18233900Y-7339800D02*
X18283900Y-7289800D01*
X18233900Y-7239800D01*
X18183900Y-7289800D01*
X18233900Y-7339800D01*
X18233900Y-7593800D02*
X18283900Y-7543800D01*
X18233900Y-7493800D01*
X18183900Y-7543800D01*
X18233900Y-7593800D01*
X18233900Y-7847800D02*
X18283900Y-7797800D01*
X18233900Y-7747800D01*
X18183900Y-7797800D01*
X18233900Y-7847800D01*
X18233900Y-8101800D02*
X18283900Y-8051800D01*
X18233900Y-8001800D01*
X18183900Y-8051800D01*
X18233900Y-8101800D01*
X18233900Y-8355800D02*
X18283900Y-8305800D01*
X18233900Y-8255800D01*
X18183900Y-8305800D01*
X18233900Y-8355800D01*
X18233900Y-8609800D02*
X18283900Y-8559800D01*
X18233900Y-8509800D01*
X18183900Y-8559800D01*
X18233900Y-8609800D01*
X18233900Y-8863800D02*
X18283900Y-8813800D01*
X18233900Y-8763800D01*
X18183900Y-8813800D01*
X18233900Y-8863800D01*
X18233900Y-9117800D02*
X18283900Y-9067800D01*
X18233900Y-9017800D01*
X18183900Y-9067800D01*
X18233900Y-9117800D01*
X18233900Y-9371800D02*
X18283900Y-9321800D01*
X18233900Y-9271800D01*
X18183900Y-9321800D01*
X18233900Y-9371800D01*
X18233900Y-9625800D02*
X18283900Y-9575800D01*
X18233900Y-9525800D01*
X18183900Y-9575800D01*
X18233900Y-9625800D01*
X18233900Y-9879800D02*
X18283900Y-9829800D01*
X18233900Y-9779800D01*
X18183900Y-9829800D01*
X18233900Y-9879800D01*
X18233900Y-10133800D02*
X18283900Y-10083800D01*
X18233900Y-10033800D01*
X18183900Y-10083800D01*
X18233900Y-10133800D01*
X18233900Y-10387800D02*
X18283900Y-10337800D01*
X18233900Y-10287800D01*
X18183900Y-10337800D01*
X18233900Y-10387800D01*
X18233900Y-10641800D02*
X18283900Y-10591800D01*
X18233900Y-10541800D01*
X18183900Y-10591800D01*
X18233900Y-10641800D01*
X19265900Y-2910040D02*
X19315900Y-2860040D01*
X19265900Y-2810040D01*
X19215900Y-2860040D01*
X19265900Y-2910040D01*
X19265900Y-3164040D02*
X19315900Y-3114040D01*
X19265900Y-3064040D01*
X19215900Y-3114040D01*
X19265900Y-3164040D01*
X19519900Y-2910040D02*
X19569900Y-2860040D01*
X19519900Y-2810040D01*
X19469900Y-2860040D01*
X19519900Y-2910040D01*
X19519900Y-3164040D02*
X19569900Y-3114040D01*
X19519900Y-3064040D01*
X19469900Y-3114040D01*
X19519900Y-3164040D01*
X19538950Y-4101300D02*
X19588950Y-4051300D01*
X19538950Y-4001300D01*
X19488950Y-4051300D01*
X19538950Y-4101300D01*
X19538950Y-4355300D02*
X19588950Y-4305300D01*
X19538950Y-4255300D01*
X19488950Y-4305300D01*
X19538950Y-4355300D01*
X19538950Y-4609300D02*
X19588950Y-4559300D01*
X19538950Y-4509300D01*
X19488950Y-4559300D01*
X19538950Y-4609300D01*
X19538950Y-4863300D02*
X19588950Y-4813300D01*
X19538950Y-4763300D01*
X19488950Y-4813300D01*
X19538950Y-4863300D01*
X19773900Y-2910040D02*
X19823900Y-2860040D01*
X19773900Y-2810040D01*
X19723900Y-2860040D01*
X19773900Y-2910040D01*
X19773900Y-3164040D02*
X19823900Y-3114040D01*
X19773900Y-3064040D01*
X19723900Y-3114040D01*
X19773900Y-3164040D01*
X19926300Y-4279100D02*
X19976300Y-4229100D01*
X19926300Y-4179100D01*
X19876300Y-4229100D01*
X19926300Y-4279100D01*
X19926300Y-4533100D02*
X19976300Y-4483100D01*
X19926300Y-4433100D01*
X19876300Y-4483100D01*
X19926300Y-4533100D01*
X19926300Y-4787100D02*
X19976300Y-4737100D01*
X19926300Y-4687100D01*
X19876300Y-4737100D01*
X19926300Y-4787100D01*
X19926300Y-5041100D02*
X19976300Y-4991100D01*
X19926300Y-4941100D01*
X19876300Y-4991100D01*
X19926300Y-5041100D01*
X20011900Y-5815800D02*
X20061900Y-5765800D01*
X20011900Y-5715800D01*
X19961900Y-5765800D01*
X20011900Y-5815800D01*
X20011900Y-6069800D02*
X20061900Y-6019800D01*
X20011900Y-5969800D01*
X19961900Y-6019800D01*
X20011900Y-6069800D01*
X20011900Y-6323800D02*
X20061900Y-6273800D01*
X20011900Y-6223800D01*
X19961900Y-6273800D01*
X20011900Y-6323800D01*
X20011900Y-6577800D02*
X20061900Y-6527800D01*
X20011900Y-6477800D01*
X19961900Y-6527800D01*
X20011900Y-6577800D01*
X20011900Y-6831800D02*
X20061900Y-6781800D01*
X20011900Y-6731800D01*
X19961900Y-6781800D01*
X20011900Y-6831800D01*
X20011900Y-7085800D02*
X20061900Y-7035800D01*
X20011900Y-6985800D01*
X19961900Y-7035800D01*
X20011900Y-7085800D01*
X20011900Y-7339800D02*
X20061900Y-7289800D01*
X20011900Y-7239800D01*
X19961900Y-7289800D01*
X20011900Y-7339800D01*
X20011900Y-7593800D02*
X20061900Y-7543800D01*
X20011900Y-7493800D01*
X19961900Y-7543800D01*
X20011900Y-7593800D01*
X20011900Y-7847800D02*
X20061900Y-7797800D01*
X20011900Y-7747800D01*
X19961900Y-7797800D01*
X20011900Y-7847800D01*
X20011900Y-8101800D02*
X20061900Y-8051800D01*
X20011900Y-8001800D01*
X19961900Y-8051800D01*
X20011900Y-8101800D01*
X20011900Y-8355800D02*
X20061900Y-8305800D01*
X20011900Y-8255800D01*
X19961900Y-8305800D01*
X20011900Y-8355800D01*
X20011900Y-8609800D02*
X20061900Y-8559800D01*
X20011900Y-8509800D01*
X19961900Y-8559800D01*
X20011900Y-8609800D01*
X20011900Y-8863800D02*
X20061900Y-8813800D01*
X20011900Y-8763800D01*
X19961900Y-8813800D01*
X20011900Y-8863800D01*
X20011900Y-9117800D02*
X20061900Y-9067800D01*
X20011900Y-9017800D01*
X19961900Y-9067800D01*
X20011900Y-9117800D01*
X20011900Y-9371800D02*
X20061900Y-9321800D01*
X20011900Y-9271800D01*
X19961900Y-9321800D01*
X20011900Y-9371800D01*
X20011900Y-9625800D02*
X20061900Y-9575800D01*
X20011900Y-9525800D01*
X19961900Y-9575800D01*
X20011900Y-9625800D01*
X20011900Y-9879800D02*
X20061900Y-9829800D01*
X20011900Y-9779800D01*
X19961900Y-9829800D01*
X20011900Y-9879800D01*
X20011900Y-10133800D02*
X20061900Y-10083800D01*
X20011900Y-10033800D01*
X19961900Y-10083800D01*
X20011900Y-10133800D01*
X20011900Y-10387800D02*
X20061900Y-10337800D01*
X20011900Y-10287800D01*
X19961900Y-10337800D01*
X20011900Y-10387800D01*
X20011900Y-10641800D02*
X20061900Y-10591800D01*
X20011900Y-10541800D01*
X19961900Y-10591800D01*
X20011900Y-10641800D01*
X20027900Y-2910040D02*
X20077900Y-2860040D01*
X20027900Y-2810040D01*
X19977900Y-2860040D01*
X20027900Y-2910040D01*
X20027900Y-3164040D02*
X20077900Y-3114040D01*
X20027900Y-3064040D01*
X19977900Y-3114040D01*
X20027900Y-3164040D01*
D12*
X17979000Y-2898500D02*
X18089000Y-3008500D01*
X18089000Y-2898500D02*
X17979000Y-3008500D01*
X18089000Y-2953500D02*
G75*
G03*
X18089000Y-2953500I-55000J0D01*
G01*
X18233000Y-2898500D02*
X18343000Y-3008500D01*
X18343000Y-2898500D02*
X18233000Y-3008500D01*
X18343000Y-2953500D02*
G75*
G03*
X18343000Y-2953500I-55000J0D01*
G01*
X18487000Y-2898500D02*
X18597000Y-3008500D01*
X18597000Y-2898500D02*
X18487000Y-3008500D01*
X18597000Y-2953500D02*
G75*
G03*
X18597000Y-2953500I-55000J0D01*
G01*
D13*
X8411065Y-3153000D02*
X8533065Y-3275000D01*
X8533065Y-3153000D02*
X8411065Y-3275000D01*
X8472065Y-3153000D02*
X8472065Y-3275000D01*
X8411065Y-3214000D02*
X8533065Y-3214000D01*
X8600400Y-9658400D02*
X8722400Y-9780400D01*
X8722400Y-9658400D02*
X8600400Y-9780400D01*
X8661400Y-9658400D02*
X8661400Y-9780400D01*
X8600400Y-9719400D02*
X8722400Y-9719400D01*
X8600400Y-11436400D02*
X8722400Y-11558400D01*
X8722400Y-11436400D02*
X8600400Y-11558400D01*
X8661400Y-11436400D02*
X8661400Y-11558400D01*
X8600400Y-11497400D02*
X8722400Y-11497400D01*
X10099582Y-9658400D02*
X10221582Y-9780400D01*
X10221582Y-9658400D02*
X10099582Y-9780400D01*
X10160582Y-9658400D02*
X10160582Y-9780400D01*
X10099582Y-9719400D02*
X10221582Y-9719400D01*
X10099582Y-11436400D02*
X10221582Y-11558400D01*
X10221582Y-11436400D02*
X10099582Y-11558400D01*
X10160582Y-11436400D02*
X10160582Y-11558400D01*
X10099582Y-11497400D02*
X10221582Y-11497400D01*
X11216671Y-13916129D02*
X11338671Y-14038129D01*
X11338671Y-13916129D02*
X11216671Y-14038129D01*
X11277671Y-13916129D02*
X11277671Y-14038129D01*
X11216671Y-13977129D02*
X11338671Y-13977129D01*
X11598765Y-9658400D02*
X11720765Y-9780400D01*
X11720765Y-9658400D02*
X11598765Y-9780400D01*
X11659765Y-9658400D02*
X11659765Y-9780400D01*
X11598765Y-9719400D02*
X11720765Y-9719400D01*
X11598765Y-11436400D02*
X11720765Y-11558400D01*
X11720765Y-11436400D02*
X11598765Y-11558400D01*
X11659765Y-11436400D02*
X11659765Y-11558400D01*
X11598765Y-11497400D02*
X11720765Y-11497400D01*
X11785100Y-3158080D02*
X11907100Y-3280080D01*
X11907100Y-3158080D02*
X11785100Y-3280080D01*
X11846100Y-3158080D02*
X11846100Y-3280080D01*
X11785100Y-3219080D02*
X11907100Y-3219080D01*
D14*
X8590400Y-9958400D02*
X8732400Y-10100400D01*
X8732400Y-9958400D02*
X8590400Y-10100400D01*
X8711605Y-10079605D02*
X8711605Y-9979195D01*
X8611195Y-9979195D01*
X8611195Y-10079605D01*
X8711605Y-10079605D01*
X8590400Y-11736400D02*
X8732400Y-11878400D01*
X8732400Y-11736400D02*
X8590400Y-11878400D01*
X8711605Y-11857605D02*
X8711605Y-11757195D01*
X8611195Y-11757195D01*
X8611195Y-11857605D01*
X8711605Y-11857605D01*
X8711065Y-3143000D02*
X8853065Y-3285000D01*
X8853065Y-3143000D02*
X8711065Y-3285000D01*
X8832270Y-3264205D02*
X8832270Y-3163795D01*
X8731860Y-3163795D01*
X8731860Y-3264205D01*
X8832270Y-3264205D01*
X10089582Y-9958400D02*
X10231582Y-10100400D01*
X10231582Y-9958400D02*
X10089582Y-10100400D01*
X10210788Y-10079605D02*
X10210788Y-9979195D01*
X10110377Y-9979195D01*
X10110377Y-10079605D01*
X10210788Y-10079605D01*
X10089582Y-11736400D02*
X10231582Y-11878400D01*
X10231582Y-11736400D02*
X10089582Y-11878400D01*
X10210788Y-11857605D02*
X10210788Y-11757195D01*
X10110377Y-11757195D01*
X10110377Y-11857605D01*
X10210788Y-11857605D01*
X11206671Y-14216129D02*
X11348671Y-14358129D01*
X11348671Y-14216129D02*
X11206671Y-14358129D01*
X11327876Y-14337334D02*
X11327876Y-14236924D01*
X11227466Y-14236924D01*
X11227466Y-14337334D01*
X11327876Y-14337334D01*
X11465100Y-3148080D02*
X11607100Y-3290080D01*
X11607100Y-3148080D02*
X11465100Y-3290080D01*
X11586305Y-3269285D02*
X11586305Y-3168875D01*
X11485895Y-3168875D01*
X11485895Y-3269285D01*
X11586305Y-3269285D01*
X11588765Y-9958400D02*
X11730765Y-10100400D01*
X11730765Y-9958400D02*
X11588765Y-10100400D01*
X11709970Y-10079605D02*
X11709970Y-9979195D01*
X11609560Y-9979195D01*
X11609560Y-10079605D01*
X11709970Y-10079605D01*
X11588765Y-11736400D02*
X11730765Y-11878400D01*
X11730765Y-11736400D02*
X11588765Y-11878400D01*
X11709970Y-11857605D02*
X11709970Y-11757195D01*
X11609560Y-11757195D01*
X11609560Y-11857605D01*
X11709970Y-11857605D01*
D15*
X8589900Y-10787900D02*
X8732900Y-10930900D01*
X8732900Y-10787900D02*
X8589900Y-10930900D01*
X8661400Y-10930900D02*
X8732900Y-10859400D01*
X8661400Y-10787900D01*
X8589900Y-10859400D01*
X8661400Y-10930900D01*
X8589900Y-12565900D02*
X8732900Y-12708900D01*
X8732900Y-12565900D02*
X8589900Y-12708900D01*
X8661400Y-12708900D02*
X8732900Y-12637400D01*
X8661400Y-12565900D01*
X8589900Y-12637400D01*
X8661400Y-12708900D01*
X9540565Y-3142500D02*
X9683565Y-3285500D01*
X9683565Y-3142500D02*
X9540565Y-3285500D01*
X9612065Y-3285500D02*
X9683565Y-3214000D01*
X9612065Y-3142500D01*
X9540565Y-3214000D01*
X9612065Y-3285500D01*
X10089082Y-10787900D02*
X10232082Y-10930900D01*
X10232082Y-10787900D02*
X10089082Y-10930900D01*
X10160582Y-10930900D02*
X10232082Y-10859400D01*
X10160582Y-10787900D01*
X10089082Y-10859400D01*
X10160582Y-10930900D01*
X10089082Y-12565900D02*
X10232082Y-12708900D01*
X10232082Y-12565900D02*
X10089082Y-12708900D01*
X10160582Y-12708900D02*
X10232082Y-12637400D01*
X10160582Y-12565900D01*
X10089082Y-12637400D01*
X10160582Y-12708900D01*
X10634600Y-3147580D02*
X10777600Y-3290580D01*
X10777600Y-3147580D02*
X10634600Y-3290580D01*
X10706100Y-3290580D02*
X10777600Y-3219080D01*
X10706100Y-3147580D01*
X10634600Y-3219080D01*
X10706100Y-3290580D01*
X11206171Y-15045629D02*
X11349171Y-15188629D01*
X11349171Y-15045629D02*
X11206171Y-15188629D01*
X11277671Y-15188629D02*
X11349171Y-15117129D01*
X11277671Y-15045629D01*
X11206171Y-15117129D01*
X11277671Y-15188629D01*
X11588265Y-10787900D02*
X11731265Y-10930900D01*
X11731265Y-10787900D02*
X11588265Y-10930900D01*
X11659765Y-10930900D02*
X11731265Y-10859400D01*
X11659765Y-10787900D01*
X11588265Y-10859400D01*
X11659765Y-10930900D01*
X11588265Y-12565900D02*
X11731265Y-12708900D01*
X11731265Y-12565900D02*
X11588265Y-12708900D01*
X11659765Y-12708900D02*
X11731265Y-12637400D01*
X11659765Y-12565900D01*
X11588265Y-12637400D01*
X11659765Y-12708900D01*
D16*
X8788400Y-7457000D02*
X8788400Y-7607000D01*
X8713400Y-7532000D02*
X8863400Y-7532000D01*
X8863400Y-7532000D02*
G75*
G03*
X8863400Y-7532000I-75000J0D01*
G01*
X9423400Y-7203000D02*
X9423400Y-7353000D01*
X9348400Y-7278000D02*
X9498400Y-7278000D01*
X9498400Y-7278000D02*
G75*
G03*
X9498400Y-7278000I-75000J0D01*
G01*
X10772140Y-7459540D02*
X10772140Y-7609540D01*
X10697140Y-7534540D02*
X10847140Y-7534540D01*
X10847140Y-7534540D02*
G75*
G03*
X10847140Y-7534540I-75000J0D01*
G01*
X11407140Y-7205540D02*
X11407140Y-7355540D01*
X11332140Y-7280540D02*
X11482140Y-7280540D01*
X11482140Y-7280540D02*
G75*
G03*
X11482140Y-7280540I-75000J0D01*
G01*
D11*
X8383777Y-15706344D02*
X8383777Y-15506344D01*
X8383777Y-15506344D02*
X8431396Y-15506344D01*
X8431396Y-15506344D02*
X8459967Y-15515868D01*
X8459967Y-15515868D02*
X8479015Y-15534915D01*
X8479015Y-15534915D02*
X8488539Y-15553963D01*
X8488539Y-15553963D02*
X8498063Y-15592058D01*
X8498063Y-15592058D02*
X8498063Y-15620629D01*
X8498063Y-15620629D02*
X8488539Y-15658725D01*
X8488539Y-15658725D02*
X8479015Y-15677772D01*
X8479015Y-15677772D02*
X8459967Y-15696820D01*
X8459967Y-15696820D02*
X8431396Y-15706344D01*
X8431396Y-15706344D02*
X8383777Y-15706344D01*
X8583777Y-15706344D02*
X8583777Y-15573010D01*
X8583777Y-15611106D02*
X8593301Y-15592058D01*
X8593301Y-15592058D02*
X8602824Y-15582534D01*
X8602824Y-15582534D02*
X8621872Y-15573010D01*
X8621872Y-15573010D02*
X8640920Y-15573010D01*
X8707586Y-15706344D02*
X8707586Y-15573010D01*
X8707586Y-15506344D02*
X8698063Y-15515868D01*
X8698063Y-15515868D02*
X8707586Y-15525391D01*
X8707586Y-15525391D02*
X8717110Y-15515868D01*
X8717110Y-15515868D02*
X8707586Y-15506344D01*
X8707586Y-15506344D02*
X8707586Y-15525391D01*
X8831396Y-15706344D02*
X8812348Y-15696820D01*
X8812348Y-15696820D02*
X8802824Y-15677772D01*
X8802824Y-15677772D02*
X8802824Y-15506344D01*
X8936158Y-15706344D02*
X8917110Y-15696820D01*
X8917110Y-15696820D02*
X8907586Y-15677772D01*
X8907586Y-15677772D02*
X8907586Y-15506344D01*
X9164729Y-15706344D02*
X9164729Y-15506344D01*
X9164729Y-15506344D02*
X9231396Y-15649201D01*
X9231396Y-15649201D02*
X9298063Y-15506344D01*
X9298063Y-15506344D02*
X9298063Y-15706344D01*
X9479015Y-15706344D02*
X9479015Y-15601582D01*
X9479015Y-15601582D02*
X9469491Y-15582534D01*
X9469491Y-15582534D02*
X9450444Y-15573010D01*
X9450444Y-15573010D02*
X9412348Y-15573010D01*
X9412348Y-15573010D02*
X9393301Y-15582534D01*
X9479015Y-15696820D02*
X9459967Y-15706344D01*
X9459967Y-15706344D02*
X9412348Y-15706344D01*
X9412348Y-15706344D02*
X9393301Y-15696820D01*
X9393301Y-15696820D02*
X9383777Y-15677772D01*
X9383777Y-15677772D02*
X9383777Y-15658725D01*
X9383777Y-15658725D02*
X9393301Y-15639677D01*
X9393301Y-15639677D02*
X9412348Y-15630153D01*
X9412348Y-15630153D02*
X9459967Y-15630153D01*
X9459967Y-15630153D02*
X9479015Y-15620629D01*
X9574253Y-15573010D02*
X9574253Y-15773010D01*
X9574253Y-15582534D02*
X9593301Y-15573010D01*
X9593301Y-15573010D02*
X9631396Y-15573010D01*
X9631396Y-15573010D02*
X9650444Y-15582534D01*
X9650444Y-15582534D02*
X9659967Y-15592058D01*
X9659967Y-15592058D02*
X9669491Y-15611106D01*
X9669491Y-15611106D02*
X9669491Y-15668248D01*
X9669491Y-15668248D02*
X9659967Y-15687296D01*
X9659967Y-15687296D02*
X9650444Y-15696820D01*
X9650444Y-15696820D02*
X9631396Y-15706344D01*
X9631396Y-15706344D02*
X9593301Y-15706344D01*
X9593301Y-15706344D02*
X9574253Y-15696820D01*
X9755205Y-15687296D02*
X9764729Y-15696820D01*
X9764729Y-15696820D02*
X9755205Y-15706344D01*
X9755205Y-15706344D02*
X9745682Y-15696820D01*
X9745682Y-15696820D02*
X9755205Y-15687296D01*
X9755205Y-15687296D02*
X9755205Y-15706344D01*
X9755205Y-15582534D02*
X9764729Y-15592058D01*
X9764729Y-15592058D02*
X9755205Y-15601582D01*
X9755205Y-15601582D02*
X9745682Y-15592058D01*
X9745682Y-15592058D02*
X9755205Y-15582534D01*
X9755205Y-15582534D02*
X9755205Y-15601582D01*
D10*
X8083000Y-16014860D02*
X8123000Y-16054860D01*
X8123000Y-16014860D02*
X8083000Y-16054860D01*
D11*
X8421872Y-15926344D02*
X8440920Y-15926344D01*
X8440920Y-15926344D02*
X8459967Y-15935868D01*
X8459967Y-15935868D02*
X8469491Y-15945391D01*
X8469491Y-15945391D02*
X8479015Y-15964439D01*
X8479015Y-15964439D02*
X8488539Y-16002534D01*
X8488539Y-16002534D02*
X8488539Y-16050153D01*
X8488539Y-16050153D02*
X8479015Y-16088248D01*
X8479015Y-16088248D02*
X8469491Y-16107296D01*
X8469491Y-16107296D02*
X8459967Y-16116820D01*
X8459967Y-16116820D02*
X8440920Y-16126344D01*
X8440920Y-16126344D02*
X8421872Y-16126344D01*
X8421872Y-16126344D02*
X8402824Y-16116820D01*
X8402824Y-16116820D02*
X8393301Y-16107296D01*
X8393301Y-16107296D02*
X8383777Y-16088248D01*
X8383777Y-16088248D02*
X8374253Y-16050153D01*
X8374253Y-16050153D02*
X8374253Y-16002534D01*
X8374253Y-16002534D02*
X8383777Y-15964439D01*
X8383777Y-15964439D02*
X8393301Y-15945391D01*
X8393301Y-15945391D02*
X8402824Y-15935868D01*
X8402824Y-15935868D02*
X8421872Y-15926344D01*
X8574253Y-16107296D02*
X8583777Y-16116820D01*
X8583777Y-16116820D02*
X8574253Y-16126344D01*
X8574253Y-16126344D02*
X8564729Y-16116820D01*
X8564729Y-16116820D02*
X8574253Y-16107296D01*
X8574253Y-16107296D02*
X8574253Y-16126344D01*
X8755205Y-15993010D02*
X8755205Y-16126344D01*
X8707586Y-15916820D02*
X8659967Y-16059677D01*
X8659967Y-16059677D02*
X8783777Y-16059677D01*
X8898063Y-15926344D02*
X8917110Y-15926344D01*
X8917110Y-15926344D02*
X8936158Y-15935868D01*
X8936158Y-15935868D02*
X8945682Y-15945391D01*
X8945682Y-15945391D02*
X8955205Y-15964439D01*
X8955205Y-15964439D02*
X8964729Y-16002534D01*
X8964729Y-16002534D02*
X8964729Y-16050153D01*
X8964729Y-16050153D02*
X8955205Y-16088248D01*
X8955205Y-16088248D02*
X8945682Y-16107296D01*
X8945682Y-16107296D02*
X8936158Y-16116820D01*
X8936158Y-16116820D02*
X8917110Y-16126344D01*
X8917110Y-16126344D02*
X8898063Y-16126344D01*
X8898063Y-16126344D02*
X8879015Y-16116820D01*
X8879015Y-16116820D02*
X8869491Y-16107296D01*
X8869491Y-16107296D02*
X8859967Y-16088248D01*
X8859967Y-16088248D02*
X8850444Y-16050153D01*
X8850444Y-16050153D02*
X8850444Y-16002534D01*
X8850444Y-16002534D02*
X8859967Y-15964439D01*
X8859967Y-15964439D02*
X8869491Y-15945391D01*
X8869491Y-15945391D02*
X8879015Y-15935868D01*
X8879015Y-15935868D02*
X8898063Y-15926344D01*
X9088539Y-15926344D02*
X9107586Y-15926344D01*
X9107586Y-15926344D02*
X9126634Y-15935868D01*
X9126634Y-15935868D02*
X9136158Y-15945391D01*
X9136158Y-15945391D02*
X9145682Y-15964439D01*
X9145682Y-15964439D02*
X9155205Y-16002534D01*
X9155205Y-16002534D02*
X9155205Y-16050153D01*
X9155205Y-16050153D02*
X9145682Y-16088248D01*
X9145682Y-16088248D02*
X9136158Y-16107296D01*
X9136158Y-16107296D02*
X9126634Y-16116820D01*
X9126634Y-16116820D02*
X9107586Y-16126344D01*
X9107586Y-16126344D02*
X9088539Y-16126344D01*
X9088539Y-16126344D02*
X9069491Y-16116820D01*
X9069491Y-16116820D02*
X9059967Y-16107296D01*
X9059967Y-16107296D02*
X9050444Y-16088248D01*
X9050444Y-16088248D02*
X9040920Y-16050153D01*
X9040920Y-16050153D02*
X9040920Y-16002534D01*
X9040920Y-16002534D02*
X9050444Y-15964439D01*
X9050444Y-15964439D02*
X9059967Y-15945391D01*
X9059967Y-15945391D02*
X9069491Y-15935868D01*
X9069491Y-15935868D02*
X9088539Y-15926344D01*
X9240920Y-16126344D02*
X9240920Y-15993010D01*
X9240920Y-16012058D02*
X9250444Y-16002534D01*
X9250444Y-16002534D02*
X9269491Y-15993010D01*
X9269491Y-15993010D02*
X9298063Y-15993010D01*
X9298063Y-15993010D02*
X9317110Y-16002534D01*
X9317110Y-16002534D02*
X9326634Y-16021582D01*
X9326634Y-16021582D02*
X9326634Y-16126344D01*
X9326634Y-16021582D02*
X9336158Y-16002534D01*
X9336158Y-16002534D02*
X9355205Y-15993010D01*
X9355205Y-15993010D02*
X9383777Y-15993010D01*
X9383777Y-15993010D02*
X9402825Y-16002534D01*
X9402825Y-16002534D02*
X9412348Y-16021582D01*
X9412348Y-16021582D02*
X9412348Y-16126344D01*
X9507586Y-16126344D02*
X9507586Y-15993010D01*
X9507586Y-16012058D02*
X9517110Y-16002534D01*
X9517110Y-16002534D02*
X9536158Y-15993010D01*
X9536158Y-15993010D02*
X9564729Y-15993010D01*
X9564729Y-15993010D02*
X9583777Y-16002534D01*
X9583777Y-16002534D02*
X9593301Y-16021582D01*
X9593301Y-16021582D02*
X9593301Y-16126344D01*
X9593301Y-16021582D02*
X9602825Y-16002534D01*
X9602825Y-16002534D02*
X9621872Y-15993010D01*
X9621872Y-15993010D02*
X9650444Y-15993010D01*
X9650444Y-15993010D02*
X9669491Y-16002534D01*
X9669491Y-16002534D02*
X9679015Y-16021582D01*
X9679015Y-16021582D02*
X9679015Y-16126344D01*
X10069491Y-15916820D02*
X9898063Y-16173963D01*
X10326634Y-15926344D02*
X10345682Y-15926344D01*
X10345682Y-15926344D02*
X10364729Y-15935868D01*
X10364729Y-15935868D02*
X10374253Y-15945391D01*
X10374253Y-15945391D02*
X10383777Y-15964439D01*
X10383777Y-15964439D02*
X10393301Y-16002534D01*
X10393301Y-16002534D02*
X10393301Y-16050153D01*
X10393301Y-16050153D02*
X10383777Y-16088248D01*
X10383777Y-16088248D02*
X10374253Y-16107296D01*
X10374253Y-16107296D02*
X10364729Y-16116820D01*
X10364729Y-16116820D02*
X10345682Y-16126344D01*
X10345682Y-16126344D02*
X10326634Y-16126344D01*
X10326634Y-16126344D02*
X10307587Y-16116820D01*
X10307587Y-16116820D02*
X10298063Y-16107296D01*
X10298063Y-16107296D02*
X10288539Y-16088248D01*
X10288539Y-16088248D02*
X10279015Y-16050153D01*
X10279015Y-16050153D02*
X10279015Y-16002534D01*
X10279015Y-16002534D02*
X10288539Y-15964439D01*
X10288539Y-15964439D02*
X10298063Y-15945391D01*
X10298063Y-15945391D02*
X10307587Y-15935868D01*
X10307587Y-15935868D02*
X10326634Y-15926344D01*
X10479015Y-16107296D02*
X10488539Y-16116820D01*
X10488539Y-16116820D02*
X10479015Y-16126344D01*
X10479015Y-16126344D02*
X10469491Y-16116820D01*
X10469491Y-16116820D02*
X10479015Y-16107296D01*
X10479015Y-16107296D02*
X10479015Y-16126344D01*
X10612348Y-15926344D02*
X10631396Y-15926344D01*
X10631396Y-15926344D02*
X10650444Y-15935868D01*
X10650444Y-15935868D02*
X10659968Y-15945391D01*
X10659968Y-15945391D02*
X10669491Y-15964439D01*
X10669491Y-15964439D02*
X10679015Y-16002534D01*
X10679015Y-16002534D02*
X10679015Y-16050153D01*
X10679015Y-16050153D02*
X10669491Y-16088248D01*
X10669491Y-16088248D02*
X10659968Y-16107296D01*
X10659968Y-16107296D02*
X10650444Y-16116820D01*
X10650444Y-16116820D02*
X10631396Y-16126344D01*
X10631396Y-16126344D02*
X10612348Y-16126344D01*
X10612348Y-16126344D02*
X10593301Y-16116820D01*
X10593301Y-16116820D02*
X10583777Y-16107296D01*
X10583777Y-16107296D02*
X10574253Y-16088248D01*
X10574253Y-16088248D02*
X10564729Y-16050153D01*
X10564729Y-16050153D02*
X10564729Y-16002534D01*
X10564729Y-16002534D02*
X10574253Y-15964439D01*
X10574253Y-15964439D02*
X10583777Y-15945391D01*
X10583777Y-15945391D02*
X10593301Y-15935868D01*
X10593301Y-15935868D02*
X10612348Y-15926344D01*
X10869491Y-16126344D02*
X10755206Y-16126344D01*
X10812348Y-16126344D02*
X10812348Y-15926344D01*
X10812348Y-15926344D02*
X10793301Y-15954915D01*
X10793301Y-15954915D02*
X10774253Y-15973963D01*
X10774253Y-15973963D02*
X10755206Y-15983487D01*
X11050444Y-15926344D02*
X10955206Y-15926344D01*
X10955206Y-15926344D02*
X10945682Y-16021582D01*
X10945682Y-16021582D02*
X10955206Y-16012058D01*
X10955206Y-16012058D02*
X10974253Y-16002534D01*
X10974253Y-16002534D02*
X11021872Y-16002534D01*
X11021872Y-16002534D02*
X11040920Y-16012058D01*
X11040920Y-16012058D02*
X11050444Y-16021582D01*
X11050444Y-16021582D02*
X11059968Y-16040629D01*
X11059968Y-16040629D02*
X11059968Y-16088248D01*
X11059968Y-16088248D02*
X11050444Y-16107296D01*
X11050444Y-16107296D02*
X11040920Y-16116820D01*
X11040920Y-16116820D02*
X11021872Y-16126344D01*
X11021872Y-16126344D02*
X10974253Y-16126344D01*
X10974253Y-16126344D02*
X10955206Y-16116820D01*
X10955206Y-16116820D02*
X10945682Y-16107296D01*
X11126634Y-15926344D02*
X11259967Y-15926344D01*
X11259967Y-15926344D02*
X11174253Y-16126344D01*
X11326634Y-15926344D02*
X11326634Y-15964439D01*
X11402825Y-15926344D02*
X11402825Y-15964439D01*
X11698063Y-16202534D02*
X11688539Y-16193010D01*
X11688539Y-16193010D02*
X11669491Y-16164439D01*
X11669491Y-16164439D02*
X11659968Y-16145391D01*
X11659968Y-16145391D02*
X11650444Y-16116820D01*
X11650444Y-16116820D02*
X11640920Y-16069201D01*
X11640920Y-16069201D02*
X11640920Y-16031106D01*
X11640920Y-16031106D02*
X11650444Y-15983487D01*
X11650444Y-15983487D02*
X11659968Y-15954915D01*
X11659968Y-15954915D02*
X11669491Y-15935868D01*
X11669491Y-15935868D02*
X11688539Y-15907296D01*
X11688539Y-15907296D02*
X11698063Y-15897772D01*
X11869491Y-15926344D02*
X11774253Y-15926344D01*
X11774253Y-15926344D02*
X11764729Y-16021582D01*
X11764729Y-16021582D02*
X11774253Y-16012058D01*
X11774253Y-16012058D02*
X11793301Y-16002534D01*
X11793301Y-16002534D02*
X11840920Y-16002534D01*
X11840920Y-16002534D02*
X11859968Y-16012058D01*
X11859968Y-16012058D02*
X11869491Y-16021582D01*
X11869491Y-16021582D02*
X11879015Y-16040629D01*
X11879015Y-16040629D02*
X11879015Y-16088248D01*
X11879015Y-16088248D02*
X11869491Y-16107296D01*
X11869491Y-16107296D02*
X11859968Y-16116820D01*
X11859968Y-16116820D02*
X11840920Y-16126344D01*
X11840920Y-16126344D02*
X11793301Y-16126344D01*
X11793301Y-16126344D02*
X11774253Y-16116820D01*
X11774253Y-16116820D02*
X11764729Y-16107296D01*
X12050444Y-15993010D02*
X12050444Y-16126344D01*
X12002825Y-15916820D02*
X11955206Y-16059677D01*
X11955206Y-16059677D02*
X12079015Y-16059677D01*
X12307587Y-16126344D02*
X12307587Y-15926344D01*
X12393301Y-16126344D02*
X12393301Y-16021582D01*
X12393301Y-16021582D02*
X12383777Y-16002534D01*
X12383777Y-16002534D02*
X12364730Y-15993010D01*
X12364730Y-15993010D02*
X12336158Y-15993010D01*
X12336158Y-15993010D02*
X12317110Y-16002534D01*
X12317110Y-16002534D02*
X12307587Y-16012058D01*
X12517110Y-16126344D02*
X12498063Y-16116820D01*
X12498063Y-16116820D02*
X12488539Y-16107296D01*
X12488539Y-16107296D02*
X12479015Y-16088248D01*
X12479015Y-16088248D02*
X12479015Y-16031106D01*
X12479015Y-16031106D02*
X12488539Y-16012058D01*
X12488539Y-16012058D02*
X12498063Y-16002534D01*
X12498063Y-16002534D02*
X12517110Y-15993010D01*
X12517110Y-15993010D02*
X12545682Y-15993010D01*
X12545682Y-15993010D02*
X12564730Y-16002534D01*
X12564730Y-16002534D02*
X12574253Y-16012058D01*
X12574253Y-16012058D02*
X12583777Y-16031106D01*
X12583777Y-16031106D02*
X12583777Y-16088248D01*
X12583777Y-16088248D02*
X12574253Y-16107296D01*
X12574253Y-16107296D02*
X12564730Y-16116820D01*
X12564730Y-16116820D02*
X12545682Y-16126344D01*
X12545682Y-16126344D02*
X12517110Y-16126344D01*
X12698063Y-16126344D02*
X12679015Y-16116820D01*
X12679015Y-16116820D02*
X12669491Y-16097772D01*
X12669491Y-16097772D02*
X12669491Y-15926344D01*
X12850444Y-16116820D02*
X12831396Y-16126344D01*
X12831396Y-16126344D02*
X12793301Y-16126344D01*
X12793301Y-16126344D02*
X12774253Y-16116820D01*
X12774253Y-16116820D02*
X12764730Y-16097772D01*
X12764730Y-16097772D02*
X12764730Y-16021582D01*
X12764730Y-16021582D02*
X12774253Y-16002534D01*
X12774253Y-16002534D02*
X12793301Y-15993010D01*
X12793301Y-15993010D02*
X12831396Y-15993010D01*
X12831396Y-15993010D02*
X12850444Y-16002534D01*
X12850444Y-16002534D02*
X12859968Y-16021582D01*
X12859968Y-16021582D02*
X12859968Y-16040629D01*
X12859968Y-16040629D02*
X12764730Y-16059677D01*
X12936158Y-16116820D02*
X12955206Y-16126344D01*
X12955206Y-16126344D02*
X12993301Y-16126344D01*
X12993301Y-16126344D02*
X13012349Y-16116820D01*
X13012349Y-16116820D02*
X13021872Y-16097772D01*
X13021872Y-16097772D02*
X13021872Y-16088248D01*
X13021872Y-16088248D02*
X13012349Y-16069201D01*
X13012349Y-16069201D02*
X12993301Y-16059677D01*
X12993301Y-16059677D02*
X12964730Y-16059677D01*
X12964730Y-16059677D02*
X12945682Y-16050153D01*
X12945682Y-16050153D02*
X12936158Y-16031106D01*
X12936158Y-16031106D02*
X12936158Y-16021582D01*
X12936158Y-16021582D02*
X12945682Y-16002534D01*
X12945682Y-16002534D02*
X12964730Y-15993010D01*
X12964730Y-15993010D02*
X12993301Y-15993010D01*
X12993301Y-15993010D02*
X13012349Y-16002534D01*
X13088539Y-16202534D02*
X13098063Y-16193010D01*
X13098063Y-16193010D02*
X13117111Y-16164439D01*
X13117111Y-16164439D02*
X13126634Y-16145391D01*
X13126634Y-16145391D02*
X13136158Y-16116820D01*
X13136158Y-16116820D02*
X13145682Y-16069201D01*
X13145682Y-16069201D02*
X13145682Y-16031106D01*
X13145682Y-16031106D02*
X13136158Y-15983487D01*
X13136158Y-15983487D02*
X13126634Y-15954915D01*
X13126634Y-15954915D02*
X13117111Y-15935868D01*
X13117111Y-15935868D02*
X13098063Y-15907296D01*
X13098063Y-15907296D02*
X13088539Y-15897772D01*
D10*
X8123000Y-16298860D02*
G75*
G03*
X8123000Y-16298860I-25000J0D01*
G01*
D11*
X8421872Y-16190344D02*
X8440920Y-16190344D01*
X8440920Y-16190344D02*
X8459967Y-16199868D01*
X8459967Y-16199868D02*
X8469491Y-16209391D01*
X8469491Y-16209391D02*
X8479015Y-16228439D01*
X8479015Y-16228439D02*
X8488539Y-16266534D01*
X8488539Y-16266534D02*
X8488539Y-16314153D01*
X8488539Y-16314153D02*
X8479015Y-16352248D01*
X8479015Y-16352248D02*
X8469491Y-16371296D01*
X8469491Y-16371296D02*
X8459967Y-16380820D01*
X8459967Y-16380820D02*
X8440920Y-16390344D01*
X8440920Y-16390344D02*
X8421872Y-16390344D01*
X8421872Y-16390344D02*
X8402824Y-16380820D01*
X8402824Y-16380820D02*
X8393301Y-16371296D01*
X8393301Y-16371296D02*
X8383777Y-16352248D01*
X8383777Y-16352248D02*
X8374253Y-16314153D01*
X8374253Y-16314153D02*
X8374253Y-16266534D01*
X8374253Y-16266534D02*
X8383777Y-16228439D01*
X8383777Y-16228439D02*
X8393301Y-16209391D01*
X8393301Y-16209391D02*
X8402824Y-16199868D01*
X8402824Y-16199868D02*
X8421872Y-16190344D01*
X8574253Y-16371296D02*
X8583777Y-16380820D01*
X8583777Y-16380820D02*
X8574253Y-16390344D01*
X8574253Y-16390344D02*
X8564729Y-16380820D01*
X8564729Y-16380820D02*
X8574253Y-16371296D01*
X8574253Y-16371296D02*
X8574253Y-16390344D01*
X8764729Y-16190344D02*
X8669491Y-16190344D01*
X8669491Y-16190344D02*
X8659967Y-16285582D01*
X8659967Y-16285582D02*
X8669491Y-16276058D01*
X8669491Y-16276058D02*
X8688539Y-16266534D01*
X8688539Y-16266534D02*
X8736158Y-16266534D01*
X8736158Y-16266534D02*
X8755205Y-16276058D01*
X8755205Y-16276058D02*
X8764729Y-16285582D01*
X8764729Y-16285582D02*
X8774253Y-16304629D01*
X8774253Y-16304629D02*
X8774253Y-16352248D01*
X8774253Y-16352248D02*
X8764729Y-16371296D01*
X8764729Y-16371296D02*
X8755205Y-16380820D01*
X8755205Y-16380820D02*
X8736158Y-16390344D01*
X8736158Y-16390344D02*
X8688539Y-16390344D01*
X8688539Y-16390344D02*
X8669491Y-16380820D01*
X8669491Y-16380820D02*
X8659967Y-16371296D01*
X8898063Y-16190344D02*
X8917110Y-16190344D01*
X8917110Y-16190344D02*
X8936158Y-16199868D01*
X8936158Y-16199868D02*
X8945682Y-16209391D01*
X8945682Y-16209391D02*
X8955205Y-16228439D01*
X8955205Y-16228439D02*
X8964729Y-16266534D01*
X8964729Y-16266534D02*
X8964729Y-16314153D01*
X8964729Y-16314153D02*
X8955205Y-16352248D01*
X8955205Y-16352248D02*
X8945682Y-16371296D01*
X8945682Y-16371296D02*
X8936158Y-16380820D01*
X8936158Y-16380820D02*
X8917110Y-16390344D01*
X8917110Y-16390344D02*
X8898063Y-16390344D01*
X8898063Y-16390344D02*
X8879015Y-16380820D01*
X8879015Y-16380820D02*
X8869491Y-16371296D01*
X8869491Y-16371296D02*
X8859967Y-16352248D01*
X8859967Y-16352248D02*
X8850444Y-16314153D01*
X8850444Y-16314153D02*
X8850444Y-16266534D01*
X8850444Y-16266534D02*
X8859967Y-16228439D01*
X8859967Y-16228439D02*
X8869491Y-16209391D01*
X8869491Y-16209391D02*
X8879015Y-16199868D01*
X8879015Y-16199868D02*
X8898063Y-16190344D01*
X9088539Y-16190344D02*
X9107586Y-16190344D01*
X9107586Y-16190344D02*
X9126634Y-16199868D01*
X9126634Y-16199868D02*
X9136158Y-16209391D01*
X9136158Y-16209391D02*
X9145682Y-16228439D01*
X9145682Y-16228439D02*
X9155205Y-16266534D01*
X9155205Y-16266534D02*
X9155205Y-16314153D01*
X9155205Y-16314153D02*
X9145682Y-16352248D01*
X9145682Y-16352248D02*
X9136158Y-16371296D01*
X9136158Y-16371296D02*
X9126634Y-16380820D01*
X9126634Y-16380820D02*
X9107586Y-16390344D01*
X9107586Y-16390344D02*
X9088539Y-16390344D01*
X9088539Y-16390344D02*
X9069491Y-16380820D01*
X9069491Y-16380820D02*
X9059967Y-16371296D01*
X9059967Y-16371296D02*
X9050444Y-16352248D01*
X9050444Y-16352248D02*
X9040920Y-16314153D01*
X9040920Y-16314153D02*
X9040920Y-16266534D01*
X9040920Y-16266534D02*
X9050444Y-16228439D01*
X9050444Y-16228439D02*
X9059967Y-16209391D01*
X9059967Y-16209391D02*
X9069491Y-16199868D01*
X9069491Y-16199868D02*
X9088539Y-16190344D01*
X9240920Y-16390344D02*
X9240920Y-16257010D01*
X9240920Y-16276058D02*
X9250444Y-16266534D01*
X9250444Y-16266534D02*
X9269491Y-16257010D01*
X9269491Y-16257010D02*
X9298063Y-16257010D01*
X9298063Y-16257010D02*
X9317110Y-16266534D01*
X9317110Y-16266534D02*
X9326634Y-16285582D01*
X9326634Y-16285582D02*
X9326634Y-16390344D01*
X9326634Y-16285582D02*
X9336158Y-16266534D01*
X9336158Y-16266534D02*
X9355205Y-16257010D01*
X9355205Y-16257010D02*
X9383777Y-16257010D01*
X9383777Y-16257010D02*
X9402825Y-16266534D01*
X9402825Y-16266534D02*
X9412348Y-16285582D01*
X9412348Y-16285582D02*
X9412348Y-16390344D01*
X9507586Y-16390344D02*
X9507586Y-16257010D01*
X9507586Y-16276058D02*
X9517110Y-16266534D01*
X9517110Y-16266534D02*
X9536158Y-16257010D01*
X9536158Y-16257010D02*
X9564729Y-16257010D01*
X9564729Y-16257010D02*
X9583777Y-16266534D01*
X9583777Y-16266534D02*
X9593301Y-16285582D01*
X9593301Y-16285582D02*
X9593301Y-16390344D01*
X9593301Y-16285582D02*
X9602825Y-16266534D01*
X9602825Y-16266534D02*
X9621872Y-16257010D01*
X9621872Y-16257010D02*
X9650444Y-16257010D01*
X9650444Y-16257010D02*
X9669491Y-16266534D01*
X9669491Y-16266534D02*
X9679015Y-16285582D01*
X9679015Y-16285582D02*
X9679015Y-16390344D01*
X10069491Y-16180820D02*
X9898063Y-16437963D01*
X10326634Y-16190344D02*
X10345682Y-16190344D01*
X10345682Y-16190344D02*
X10364729Y-16199868D01*
X10364729Y-16199868D02*
X10374253Y-16209391D01*
X10374253Y-16209391D02*
X10383777Y-16228439D01*
X10383777Y-16228439D02*
X10393301Y-16266534D01*
X10393301Y-16266534D02*
X10393301Y-16314153D01*
X10393301Y-16314153D02*
X10383777Y-16352248D01*
X10383777Y-16352248D02*
X10374253Y-16371296D01*
X10374253Y-16371296D02*
X10364729Y-16380820D01*
X10364729Y-16380820D02*
X10345682Y-16390344D01*
X10345682Y-16390344D02*
X10326634Y-16390344D01*
X10326634Y-16390344D02*
X10307587Y-16380820D01*
X10307587Y-16380820D02*
X10298063Y-16371296D01*
X10298063Y-16371296D02*
X10288539Y-16352248D01*
X10288539Y-16352248D02*
X10279015Y-16314153D01*
X10279015Y-16314153D02*
X10279015Y-16266534D01*
X10279015Y-16266534D02*
X10288539Y-16228439D01*
X10288539Y-16228439D02*
X10298063Y-16209391D01*
X10298063Y-16209391D02*
X10307587Y-16199868D01*
X10307587Y-16199868D02*
X10326634Y-16190344D01*
X10479015Y-16371296D02*
X10488539Y-16380820D01*
X10488539Y-16380820D02*
X10479015Y-16390344D01*
X10479015Y-16390344D02*
X10469491Y-16380820D01*
X10469491Y-16380820D02*
X10479015Y-16371296D01*
X10479015Y-16371296D02*
X10479015Y-16390344D01*
X10612348Y-16190344D02*
X10631396Y-16190344D01*
X10631396Y-16190344D02*
X10650444Y-16199868D01*
X10650444Y-16199868D02*
X10659968Y-16209391D01*
X10659968Y-16209391D02*
X10669491Y-16228439D01*
X10669491Y-16228439D02*
X10679015Y-16266534D01*
X10679015Y-16266534D02*
X10679015Y-16314153D01*
X10679015Y-16314153D02*
X10669491Y-16352248D01*
X10669491Y-16352248D02*
X10659968Y-16371296D01*
X10659968Y-16371296D02*
X10650444Y-16380820D01*
X10650444Y-16380820D02*
X10631396Y-16390344D01*
X10631396Y-16390344D02*
X10612348Y-16390344D01*
X10612348Y-16390344D02*
X10593301Y-16380820D01*
X10593301Y-16380820D02*
X10583777Y-16371296D01*
X10583777Y-16371296D02*
X10574253Y-16352248D01*
X10574253Y-16352248D02*
X10564729Y-16314153D01*
X10564729Y-16314153D02*
X10564729Y-16266534D01*
X10564729Y-16266534D02*
X10574253Y-16228439D01*
X10574253Y-16228439D02*
X10583777Y-16209391D01*
X10583777Y-16209391D02*
X10593301Y-16199868D01*
X10593301Y-16199868D02*
X10612348Y-16190344D01*
X10869491Y-16390344D02*
X10755206Y-16390344D01*
X10812348Y-16390344D02*
X10812348Y-16190344D01*
X10812348Y-16190344D02*
X10793301Y-16218915D01*
X10793301Y-16218915D02*
X10774253Y-16237963D01*
X10774253Y-16237963D02*
X10755206Y-16247487D01*
X10964729Y-16390344D02*
X11002825Y-16390344D01*
X11002825Y-16390344D02*
X11021872Y-16380820D01*
X11021872Y-16380820D02*
X11031396Y-16371296D01*
X11031396Y-16371296D02*
X11050444Y-16342725D01*
X11050444Y-16342725D02*
X11059968Y-16304629D01*
X11059968Y-16304629D02*
X11059968Y-16228439D01*
X11059968Y-16228439D02*
X11050444Y-16209391D01*
X11050444Y-16209391D02*
X11040920Y-16199868D01*
X11040920Y-16199868D02*
X11021872Y-16190344D01*
X11021872Y-16190344D02*
X10983777Y-16190344D01*
X10983777Y-16190344D02*
X10964729Y-16199868D01*
X10964729Y-16199868D02*
X10955206Y-16209391D01*
X10955206Y-16209391D02*
X10945682Y-16228439D01*
X10945682Y-16228439D02*
X10945682Y-16276058D01*
X10945682Y-16276058D02*
X10955206Y-16295106D01*
X10955206Y-16295106D02*
X10964729Y-16304629D01*
X10964729Y-16304629D02*
X10983777Y-16314153D01*
X10983777Y-16314153D02*
X11021872Y-16314153D01*
X11021872Y-16314153D02*
X11040920Y-16304629D01*
X11040920Y-16304629D02*
X11050444Y-16295106D01*
X11050444Y-16295106D02*
X11059968Y-16276058D01*
X11126634Y-16190344D02*
X11259967Y-16190344D01*
X11259967Y-16190344D02*
X11174253Y-16390344D01*
X11326634Y-16190344D02*
X11326634Y-16228439D01*
X11402825Y-16190344D02*
X11402825Y-16228439D01*
X11698063Y-16466534D02*
X11688539Y-16457010D01*
X11688539Y-16457010D02*
X11669491Y-16428439D01*
X11669491Y-16428439D02*
X11659968Y-16409391D01*
X11659968Y-16409391D02*
X11650444Y-16380820D01*
X11650444Y-16380820D02*
X11640920Y-16333201D01*
X11640920Y-16333201D02*
X11640920Y-16295106D01*
X11640920Y-16295106D02*
X11650444Y-16247487D01*
X11650444Y-16247487D02*
X11659968Y-16218915D01*
X11659968Y-16218915D02*
X11669491Y-16199868D01*
X11669491Y-16199868D02*
X11688539Y-16171296D01*
X11688539Y-16171296D02*
X11698063Y-16161772D01*
X11869491Y-16190344D02*
X11774253Y-16190344D01*
X11774253Y-16190344D02*
X11764729Y-16285582D01*
X11764729Y-16285582D02*
X11774253Y-16276058D01*
X11774253Y-16276058D02*
X11793301Y-16266534D01*
X11793301Y-16266534D02*
X11840920Y-16266534D01*
X11840920Y-16266534D02*
X11859968Y-16276058D01*
X11859968Y-16276058D02*
X11869491Y-16285582D01*
X11869491Y-16285582D02*
X11879015Y-16304629D01*
X11879015Y-16304629D02*
X11879015Y-16352248D01*
X11879015Y-16352248D02*
X11869491Y-16371296D01*
X11869491Y-16371296D02*
X11859968Y-16380820D01*
X11859968Y-16380820D02*
X11840920Y-16390344D01*
X11840920Y-16390344D02*
X11793301Y-16390344D01*
X11793301Y-16390344D02*
X11774253Y-16380820D01*
X11774253Y-16380820D02*
X11764729Y-16371296D01*
X12117110Y-16390344D02*
X12117110Y-16190344D01*
X12202825Y-16390344D02*
X12202825Y-16285582D01*
X12202825Y-16285582D02*
X12193301Y-16266534D01*
X12193301Y-16266534D02*
X12174253Y-16257010D01*
X12174253Y-16257010D02*
X12145682Y-16257010D01*
X12145682Y-16257010D02*
X12126634Y-16266534D01*
X12126634Y-16266534D02*
X12117110Y-16276058D01*
X12326634Y-16390344D02*
X12307587Y-16380820D01*
X12307587Y-16380820D02*
X12298063Y-16371296D01*
X12298063Y-16371296D02*
X12288539Y-16352248D01*
X12288539Y-16352248D02*
X12288539Y-16295106D01*
X12288539Y-16295106D02*
X12298063Y-16276058D01*
X12298063Y-16276058D02*
X12307587Y-16266534D01*
X12307587Y-16266534D02*
X12326634Y-16257010D01*
X12326634Y-16257010D02*
X12355206Y-16257010D01*
X12355206Y-16257010D02*
X12374253Y-16266534D01*
X12374253Y-16266534D02*
X12383777Y-16276058D01*
X12383777Y-16276058D02*
X12393301Y-16295106D01*
X12393301Y-16295106D02*
X12393301Y-16352248D01*
X12393301Y-16352248D02*
X12383777Y-16371296D01*
X12383777Y-16371296D02*
X12374253Y-16380820D01*
X12374253Y-16380820D02*
X12355206Y-16390344D01*
X12355206Y-16390344D02*
X12326634Y-16390344D01*
X12507587Y-16390344D02*
X12488539Y-16380820D01*
X12488539Y-16380820D02*
X12479015Y-16361772D01*
X12479015Y-16361772D02*
X12479015Y-16190344D01*
X12659968Y-16380820D02*
X12640920Y-16390344D01*
X12640920Y-16390344D02*
X12602825Y-16390344D01*
X12602825Y-16390344D02*
X12583777Y-16380820D01*
X12583777Y-16380820D02*
X12574253Y-16361772D01*
X12574253Y-16361772D02*
X12574253Y-16285582D01*
X12574253Y-16285582D02*
X12583777Y-16266534D01*
X12583777Y-16266534D02*
X12602825Y-16257010D01*
X12602825Y-16257010D02*
X12640920Y-16257010D01*
X12640920Y-16257010D02*
X12659968Y-16266534D01*
X12659968Y-16266534D02*
X12669491Y-16285582D01*
X12669491Y-16285582D02*
X12669491Y-16304629D01*
X12669491Y-16304629D02*
X12574253Y-16323677D01*
X12745682Y-16380820D02*
X12764730Y-16390344D01*
X12764730Y-16390344D02*
X12802825Y-16390344D01*
X12802825Y-16390344D02*
X12821872Y-16380820D01*
X12821872Y-16380820D02*
X12831396Y-16361772D01*
X12831396Y-16361772D02*
X12831396Y-16352248D01*
X12831396Y-16352248D02*
X12821872Y-16333201D01*
X12821872Y-16333201D02*
X12802825Y-16323677D01*
X12802825Y-16323677D02*
X12774253Y-16323677D01*
X12774253Y-16323677D02*
X12755206Y-16314153D01*
X12755206Y-16314153D02*
X12745682Y-16295106D01*
X12745682Y-16295106D02*
X12745682Y-16285582D01*
X12745682Y-16285582D02*
X12755206Y-16266534D01*
X12755206Y-16266534D02*
X12774253Y-16257010D01*
X12774253Y-16257010D02*
X12802825Y-16257010D01*
X12802825Y-16257010D02*
X12821872Y-16266534D01*
X12898063Y-16466534D02*
X12907587Y-16457010D01*
X12907587Y-16457010D02*
X12926634Y-16428439D01*
X12926634Y-16428439D02*
X12936158Y-16409391D01*
X12936158Y-16409391D02*
X12945682Y-16380820D01*
X12945682Y-16380820D02*
X12955206Y-16333201D01*
X12955206Y-16333201D02*
X12955206Y-16295106D01*
X12955206Y-16295106D02*
X12945682Y-16247487D01*
X12945682Y-16247487D02*
X12936158Y-16218915D01*
X12936158Y-16218915D02*
X12926634Y-16199868D01*
X12926634Y-16199868D02*
X12907587Y-16171296D01*
X12907587Y-16171296D02*
X12898063Y-16161772D01*
D10*
X8085500Y-16525360D02*
X8085500Y-16600360D01*
X8048000Y-16562860D02*
X8123000Y-16562860D01*
D11*
X8421872Y-16454344D02*
X8440920Y-16454344D01*
X8440920Y-16454344D02*
X8459967Y-16463868D01*
X8459967Y-16463868D02*
X8469491Y-16473391D01*
X8469491Y-16473391D02*
X8479015Y-16492439D01*
X8479015Y-16492439D02*
X8488539Y-16530534D01*
X8488539Y-16530534D02*
X8488539Y-16578153D01*
X8488539Y-16578153D02*
X8479015Y-16616248D01*
X8479015Y-16616248D02*
X8469491Y-16635296D01*
X8469491Y-16635296D02*
X8459967Y-16644820D01*
X8459967Y-16644820D02*
X8440920Y-16654344D01*
X8440920Y-16654344D02*
X8421872Y-16654344D01*
X8421872Y-16654344D02*
X8402824Y-16644820D01*
X8402824Y-16644820D02*
X8393301Y-16635296D01*
X8393301Y-16635296D02*
X8383777Y-16616248D01*
X8383777Y-16616248D02*
X8374253Y-16578153D01*
X8374253Y-16578153D02*
X8374253Y-16530534D01*
X8374253Y-16530534D02*
X8383777Y-16492439D01*
X8383777Y-16492439D02*
X8393301Y-16473391D01*
X8393301Y-16473391D02*
X8402824Y-16463868D01*
X8402824Y-16463868D02*
X8421872Y-16454344D01*
X8574253Y-16635296D02*
X8583777Y-16644820D01*
X8583777Y-16644820D02*
X8574253Y-16654344D01*
X8574253Y-16654344D02*
X8564729Y-16644820D01*
X8564729Y-16644820D02*
X8574253Y-16635296D01*
X8574253Y-16635296D02*
X8574253Y-16654344D01*
X8650444Y-16454344D02*
X8783777Y-16454344D01*
X8783777Y-16454344D02*
X8698063Y-16654344D01*
X8955205Y-16454344D02*
X8859967Y-16454344D01*
X8859967Y-16454344D02*
X8850444Y-16549582D01*
X8850444Y-16549582D02*
X8859967Y-16540058D01*
X8859967Y-16540058D02*
X8879015Y-16530534D01*
X8879015Y-16530534D02*
X8926634Y-16530534D01*
X8926634Y-16530534D02*
X8945682Y-16540058D01*
X8945682Y-16540058D02*
X8955205Y-16549582D01*
X8955205Y-16549582D02*
X8964729Y-16568629D01*
X8964729Y-16568629D02*
X8964729Y-16616248D01*
X8964729Y-16616248D02*
X8955205Y-16635296D01*
X8955205Y-16635296D02*
X8945682Y-16644820D01*
X8945682Y-16644820D02*
X8926634Y-16654344D01*
X8926634Y-16654344D02*
X8879015Y-16654344D01*
X8879015Y-16654344D02*
X8859967Y-16644820D01*
X8859967Y-16644820D02*
X8850444Y-16635296D01*
X9088539Y-16454344D02*
X9107586Y-16454344D01*
X9107586Y-16454344D02*
X9126634Y-16463868D01*
X9126634Y-16463868D02*
X9136158Y-16473391D01*
X9136158Y-16473391D02*
X9145682Y-16492439D01*
X9145682Y-16492439D02*
X9155205Y-16530534D01*
X9155205Y-16530534D02*
X9155205Y-16578153D01*
X9155205Y-16578153D02*
X9145682Y-16616248D01*
X9145682Y-16616248D02*
X9136158Y-16635296D01*
X9136158Y-16635296D02*
X9126634Y-16644820D01*
X9126634Y-16644820D02*
X9107586Y-16654344D01*
X9107586Y-16654344D02*
X9088539Y-16654344D01*
X9088539Y-16654344D02*
X9069491Y-16644820D01*
X9069491Y-16644820D02*
X9059967Y-16635296D01*
X9059967Y-16635296D02*
X9050444Y-16616248D01*
X9050444Y-16616248D02*
X9040920Y-16578153D01*
X9040920Y-16578153D02*
X9040920Y-16530534D01*
X9040920Y-16530534D02*
X9050444Y-16492439D01*
X9050444Y-16492439D02*
X9059967Y-16473391D01*
X9059967Y-16473391D02*
X9069491Y-16463868D01*
X9069491Y-16463868D02*
X9088539Y-16454344D01*
X9240920Y-16654344D02*
X9240920Y-16521010D01*
X9240920Y-16540058D02*
X9250444Y-16530534D01*
X9250444Y-16530534D02*
X9269491Y-16521010D01*
X9269491Y-16521010D02*
X9298063Y-16521010D01*
X9298063Y-16521010D02*
X9317110Y-16530534D01*
X9317110Y-16530534D02*
X9326634Y-16549582D01*
X9326634Y-16549582D02*
X9326634Y-16654344D01*
X9326634Y-16549582D02*
X9336158Y-16530534D01*
X9336158Y-16530534D02*
X9355205Y-16521010D01*
X9355205Y-16521010D02*
X9383777Y-16521010D01*
X9383777Y-16521010D02*
X9402825Y-16530534D01*
X9402825Y-16530534D02*
X9412348Y-16549582D01*
X9412348Y-16549582D02*
X9412348Y-16654344D01*
X9507586Y-16654344D02*
X9507586Y-16521010D01*
X9507586Y-16540058D02*
X9517110Y-16530534D01*
X9517110Y-16530534D02*
X9536158Y-16521010D01*
X9536158Y-16521010D02*
X9564729Y-16521010D01*
X9564729Y-16521010D02*
X9583777Y-16530534D01*
X9583777Y-16530534D02*
X9593301Y-16549582D01*
X9593301Y-16549582D02*
X9593301Y-16654344D01*
X9593301Y-16549582D02*
X9602825Y-16530534D01*
X9602825Y-16530534D02*
X9621872Y-16521010D01*
X9621872Y-16521010D02*
X9650444Y-16521010D01*
X9650444Y-16521010D02*
X9669491Y-16530534D01*
X9669491Y-16530534D02*
X9679015Y-16549582D01*
X9679015Y-16549582D02*
X9679015Y-16654344D01*
X10069491Y-16444820D02*
X9898063Y-16701963D01*
X10326634Y-16454344D02*
X10345682Y-16454344D01*
X10345682Y-16454344D02*
X10364729Y-16463868D01*
X10364729Y-16463868D02*
X10374253Y-16473391D01*
X10374253Y-16473391D02*
X10383777Y-16492439D01*
X10383777Y-16492439D02*
X10393301Y-16530534D01*
X10393301Y-16530534D02*
X10393301Y-16578153D01*
X10393301Y-16578153D02*
X10383777Y-16616248D01*
X10383777Y-16616248D02*
X10374253Y-16635296D01*
X10374253Y-16635296D02*
X10364729Y-16644820D01*
X10364729Y-16644820D02*
X10345682Y-16654344D01*
X10345682Y-16654344D02*
X10326634Y-16654344D01*
X10326634Y-16654344D02*
X10307587Y-16644820D01*
X10307587Y-16644820D02*
X10298063Y-16635296D01*
X10298063Y-16635296D02*
X10288539Y-16616248D01*
X10288539Y-16616248D02*
X10279015Y-16578153D01*
X10279015Y-16578153D02*
X10279015Y-16530534D01*
X10279015Y-16530534D02*
X10288539Y-16492439D01*
X10288539Y-16492439D02*
X10298063Y-16473391D01*
X10298063Y-16473391D02*
X10307587Y-16463868D01*
X10307587Y-16463868D02*
X10326634Y-16454344D01*
X10479015Y-16635296D02*
X10488539Y-16644820D01*
X10488539Y-16644820D02*
X10479015Y-16654344D01*
X10479015Y-16654344D02*
X10469491Y-16644820D01*
X10469491Y-16644820D02*
X10479015Y-16635296D01*
X10479015Y-16635296D02*
X10479015Y-16654344D01*
X10612348Y-16454344D02*
X10631396Y-16454344D01*
X10631396Y-16454344D02*
X10650444Y-16463868D01*
X10650444Y-16463868D02*
X10659968Y-16473391D01*
X10659968Y-16473391D02*
X10669491Y-16492439D01*
X10669491Y-16492439D02*
X10679015Y-16530534D01*
X10679015Y-16530534D02*
X10679015Y-16578153D01*
X10679015Y-16578153D02*
X10669491Y-16616248D01*
X10669491Y-16616248D02*
X10659968Y-16635296D01*
X10659968Y-16635296D02*
X10650444Y-16644820D01*
X10650444Y-16644820D02*
X10631396Y-16654344D01*
X10631396Y-16654344D02*
X10612348Y-16654344D01*
X10612348Y-16654344D02*
X10593301Y-16644820D01*
X10593301Y-16644820D02*
X10583777Y-16635296D01*
X10583777Y-16635296D02*
X10574253Y-16616248D01*
X10574253Y-16616248D02*
X10564729Y-16578153D01*
X10564729Y-16578153D02*
X10564729Y-16530534D01*
X10564729Y-16530534D02*
X10574253Y-16492439D01*
X10574253Y-16492439D02*
X10583777Y-16473391D01*
X10583777Y-16473391D02*
X10593301Y-16463868D01*
X10593301Y-16463868D02*
X10612348Y-16454344D01*
X10755206Y-16473391D02*
X10764729Y-16463868D01*
X10764729Y-16463868D02*
X10783777Y-16454344D01*
X10783777Y-16454344D02*
X10831396Y-16454344D01*
X10831396Y-16454344D02*
X10850444Y-16463868D01*
X10850444Y-16463868D02*
X10859968Y-16473391D01*
X10859968Y-16473391D02*
X10869491Y-16492439D01*
X10869491Y-16492439D02*
X10869491Y-16511487D01*
X10869491Y-16511487D02*
X10859968Y-16540058D01*
X10859968Y-16540058D02*
X10745682Y-16654344D01*
X10745682Y-16654344D02*
X10869491Y-16654344D01*
X10964729Y-16654344D02*
X11002825Y-16654344D01*
X11002825Y-16654344D02*
X11021872Y-16644820D01*
X11021872Y-16644820D02*
X11031396Y-16635296D01*
X11031396Y-16635296D02*
X11050444Y-16606725D01*
X11050444Y-16606725D02*
X11059968Y-16568629D01*
X11059968Y-16568629D02*
X11059968Y-16492439D01*
X11059968Y-16492439D02*
X11050444Y-16473391D01*
X11050444Y-16473391D02*
X11040920Y-16463868D01*
X11040920Y-16463868D02*
X11021872Y-16454344D01*
X11021872Y-16454344D02*
X10983777Y-16454344D01*
X10983777Y-16454344D02*
X10964729Y-16463868D01*
X10964729Y-16463868D02*
X10955206Y-16473391D01*
X10955206Y-16473391D02*
X10945682Y-16492439D01*
X10945682Y-16492439D02*
X10945682Y-16540058D01*
X10945682Y-16540058D02*
X10955206Y-16559106D01*
X10955206Y-16559106D02*
X10964729Y-16568629D01*
X10964729Y-16568629D02*
X10983777Y-16578153D01*
X10983777Y-16578153D02*
X11021872Y-16578153D01*
X11021872Y-16578153D02*
X11040920Y-16568629D01*
X11040920Y-16568629D02*
X11050444Y-16559106D01*
X11050444Y-16559106D02*
X11059968Y-16540058D01*
X11240920Y-16454344D02*
X11145682Y-16454344D01*
X11145682Y-16454344D02*
X11136158Y-16549582D01*
X11136158Y-16549582D02*
X11145682Y-16540058D01*
X11145682Y-16540058D02*
X11164729Y-16530534D01*
X11164729Y-16530534D02*
X11212348Y-16530534D01*
X11212348Y-16530534D02*
X11231396Y-16540058D01*
X11231396Y-16540058D02*
X11240920Y-16549582D01*
X11240920Y-16549582D02*
X11250444Y-16568629D01*
X11250444Y-16568629D02*
X11250444Y-16616248D01*
X11250444Y-16616248D02*
X11240920Y-16635296D01*
X11240920Y-16635296D02*
X11231396Y-16644820D01*
X11231396Y-16644820D02*
X11212348Y-16654344D01*
X11212348Y-16654344D02*
X11164729Y-16654344D01*
X11164729Y-16654344D02*
X11145682Y-16644820D01*
X11145682Y-16644820D02*
X11136158Y-16635296D01*
X11326634Y-16454344D02*
X11326634Y-16492439D01*
X11402825Y-16454344D02*
X11402825Y-16492439D01*
X11698063Y-16730534D02*
X11688539Y-16721010D01*
X11688539Y-16721010D02*
X11669491Y-16692439D01*
X11669491Y-16692439D02*
X11659968Y-16673391D01*
X11659968Y-16673391D02*
X11650444Y-16644820D01*
X11650444Y-16644820D02*
X11640920Y-16597201D01*
X11640920Y-16597201D02*
X11640920Y-16559106D01*
X11640920Y-16559106D02*
X11650444Y-16511487D01*
X11650444Y-16511487D02*
X11659968Y-16482915D01*
X11659968Y-16482915D02*
X11669491Y-16463868D01*
X11669491Y-16463868D02*
X11688539Y-16435296D01*
X11688539Y-16435296D02*
X11698063Y-16425772D01*
X11755206Y-16454344D02*
X11879015Y-16454344D01*
X11879015Y-16454344D02*
X11812348Y-16530534D01*
X11812348Y-16530534D02*
X11840920Y-16530534D01*
X11840920Y-16530534D02*
X11859968Y-16540058D01*
X11859968Y-16540058D02*
X11869491Y-16549582D01*
X11869491Y-16549582D02*
X11879015Y-16568629D01*
X11879015Y-16568629D02*
X11879015Y-16616248D01*
X11879015Y-16616248D02*
X11869491Y-16635296D01*
X11869491Y-16635296D02*
X11859968Y-16644820D01*
X11859968Y-16644820D02*
X11840920Y-16654344D01*
X11840920Y-16654344D02*
X11783777Y-16654344D01*
X11783777Y-16654344D02*
X11764729Y-16644820D01*
X11764729Y-16644820D02*
X11755206Y-16635296D01*
X12117110Y-16654344D02*
X12117110Y-16454344D01*
X12202825Y-16654344D02*
X12202825Y-16549582D01*
X12202825Y-16549582D02*
X12193301Y-16530534D01*
X12193301Y-16530534D02*
X12174253Y-16521010D01*
X12174253Y-16521010D02*
X12145682Y-16521010D01*
X12145682Y-16521010D02*
X12126634Y-16530534D01*
X12126634Y-16530534D02*
X12117110Y-16540058D01*
X12326634Y-16654344D02*
X12307587Y-16644820D01*
X12307587Y-16644820D02*
X12298063Y-16635296D01*
X12298063Y-16635296D02*
X12288539Y-16616248D01*
X12288539Y-16616248D02*
X12288539Y-16559106D01*
X12288539Y-16559106D02*
X12298063Y-16540058D01*
X12298063Y-16540058D02*
X12307587Y-16530534D01*
X12307587Y-16530534D02*
X12326634Y-16521010D01*
X12326634Y-16521010D02*
X12355206Y-16521010D01*
X12355206Y-16521010D02*
X12374253Y-16530534D01*
X12374253Y-16530534D02*
X12383777Y-16540058D01*
X12383777Y-16540058D02*
X12393301Y-16559106D01*
X12393301Y-16559106D02*
X12393301Y-16616248D01*
X12393301Y-16616248D02*
X12383777Y-16635296D01*
X12383777Y-16635296D02*
X12374253Y-16644820D01*
X12374253Y-16644820D02*
X12355206Y-16654344D01*
X12355206Y-16654344D02*
X12326634Y-16654344D01*
X12507587Y-16654344D02*
X12488539Y-16644820D01*
X12488539Y-16644820D02*
X12479015Y-16625772D01*
X12479015Y-16625772D02*
X12479015Y-16454344D01*
X12659968Y-16644820D02*
X12640920Y-16654344D01*
X12640920Y-16654344D02*
X12602825Y-16654344D01*
X12602825Y-16654344D02*
X12583777Y-16644820D01*
X12583777Y-16644820D02*
X12574253Y-16625772D01*
X12574253Y-16625772D02*
X12574253Y-16549582D01*
X12574253Y-16549582D02*
X12583777Y-16530534D01*
X12583777Y-16530534D02*
X12602825Y-16521010D01*
X12602825Y-16521010D02*
X12640920Y-16521010D01*
X12640920Y-16521010D02*
X12659968Y-16530534D01*
X12659968Y-16530534D02*
X12669491Y-16549582D01*
X12669491Y-16549582D02*
X12669491Y-16568629D01*
X12669491Y-16568629D02*
X12574253Y-16587677D01*
X12745682Y-16644820D02*
X12764730Y-16654344D01*
X12764730Y-16654344D02*
X12802825Y-16654344D01*
X12802825Y-16654344D02*
X12821872Y-16644820D01*
X12821872Y-16644820D02*
X12831396Y-16625772D01*
X12831396Y-16625772D02*
X12831396Y-16616248D01*
X12831396Y-16616248D02*
X12821872Y-16597201D01*
X12821872Y-16597201D02*
X12802825Y-16587677D01*
X12802825Y-16587677D02*
X12774253Y-16587677D01*
X12774253Y-16587677D02*
X12755206Y-16578153D01*
X12755206Y-16578153D02*
X12745682Y-16559106D01*
X12745682Y-16559106D02*
X12745682Y-16549582D01*
X12745682Y-16549582D02*
X12755206Y-16530534D01*
X12755206Y-16530534D02*
X12774253Y-16521010D01*
X12774253Y-16521010D02*
X12802825Y-16521010D01*
X12802825Y-16521010D02*
X12821872Y-16530534D01*
X12898063Y-16730534D02*
X12907587Y-16721010D01*
X12907587Y-16721010D02*
X12926634Y-16692439D01*
X12926634Y-16692439D02*
X12936158Y-16673391D01*
X12936158Y-16673391D02*
X12945682Y-16644820D01*
X12945682Y-16644820D02*
X12955206Y-16597201D01*
X12955206Y-16597201D02*
X12955206Y-16559106D01*
X12955206Y-16559106D02*
X12945682Y-16511487D01*
X12945682Y-16511487D02*
X12936158Y-16482915D01*
X12936158Y-16482915D02*
X12926634Y-16463868D01*
X12926634Y-16463868D02*
X12907587Y-16435296D01*
X12907587Y-16435296D02*
X12898063Y-16425772D01*
D10*
X8109820Y-16858680D02*
X8109820Y-16795040D01*
X8046180Y-16795040D01*
X8046180Y-16858680D01*
X8109820Y-16858680D01*
D11*
X8421872Y-16718344D02*
X8440920Y-16718344D01*
X8440920Y-16718344D02*
X8459967Y-16727868D01*
X8459967Y-16727868D02*
X8469491Y-16737391D01*
X8469491Y-16737391D02*
X8479015Y-16756439D01*
X8479015Y-16756439D02*
X8488539Y-16794534D01*
X8488539Y-16794534D02*
X8488539Y-16842153D01*
X8488539Y-16842153D02*
X8479015Y-16880249D01*
X8479015Y-16880249D02*
X8469491Y-16899296D01*
X8469491Y-16899296D02*
X8459967Y-16908820D01*
X8459967Y-16908820D02*
X8440920Y-16918344D01*
X8440920Y-16918344D02*
X8421872Y-16918344D01*
X8421872Y-16918344D02*
X8402824Y-16908820D01*
X8402824Y-16908820D02*
X8393301Y-16899296D01*
X8393301Y-16899296D02*
X8383777Y-16880249D01*
X8383777Y-16880249D02*
X8374253Y-16842153D01*
X8374253Y-16842153D02*
X8374253Y-16794534D01*
X8374253Y-16794534D02*
X8383777Y-16756439D01*
X8383777Y-16756439D02*
X8393301Y-16737391D01*
X8393301Y-16737391D02*
X8402824Y-16727868D01*
X8402824Y-16727868D02*
X8421872Y-16718344D01*
X8574253Y-16899296D02*
X8583777Y-16908820D01*
X8583777Y-16908820D02*
X8574253Y-16918344D01*
X8574253Y-16918344D02*
X8564729Y-16908820D01*
X8564729Y-16908820D02*
X8574253Y-16899296D01*
X8574253Y-16899296D02*
X8574253Y-16918344D01*
X8679015Y-16918344D02*
X8717110Y-16918344D01*
X8717110Y-16918344D02*
X8736158Y-16908820D01*
X8736158Y-16908820D02*
X8745682Y-16899296D01*
X8745682Y-16899296D02*
X8764729Y-16870725D01*
X8764729Y-16870725D02*
X8774253Y-16832630D01*
X8774253Y-16832630D02*
X8774253Y-16756439D01*
X8774253Y-16756439D02*
X8764729Y-16737391D01*
X8764729Y-16737391D02*
X8755205Y-16727868D01*
X8755205Y-16727868D02*
X8736158Y-16718344D01*
X8736158Y-16718344D02*
X8698063Y-16718344D01*
X8698063Y-16718344D02*
X8679015Y-16727868D01*
X8679015Y-16727868D02*
X8669491Y-16737391D01*
X8669491Y-16737391D02*
X8659967Y-16756439D01*
X8659967Y-16756439D02*
X8659967Y-16804058D01*
X8659967Y-16804058D02*
X8669491Y-16823106D01*
X8669491Y-16823106D02*
X8679015Y-16832630D01*
X8679015Y-16832630D02*
X8698063Y-16842153D01*
X8698063Y-16842153D02*
X8736158Y-16842153D01*
X8736158Y-16842153D02*
X8755205Y-16832630D01*
X8755205Y-16832630D02*
X8764729Y-16823106D01*
X8764729Y-16823106D02*
X8774253Y-16804058D01*
X8898063Y-16718344D02*
X8917110Y-16718344D01*
X8917110Y-16718344D02*
X8936158Y-16727868D01*
X8936158Y-16727868D02*
X8945682Y-16737391D01*
X8945682Y-16737391D02*
X8955205Y-16756439D01*
X8955205Y-16756439D02*
X8964729Y-16794534D01*
X8964729Y-16794534D02*
X8964729Y-16842153D01*
X8964729Y-16842153D02*
X8955205Y-16880249D01*
X8955205Y-16880249D02*
X8945682Y-16899296D01*
X8945682Y-16899296D02*
X8936158Y-16908820D01*
X8936158Y-16908820D02*
X8917110Y-16918344D01*
X8917110Y-16918344D02*
X8898063Y-16918344D01*
X8898063Y-16918344D02*
X8879015Y-16908820D01*
X8879015Y-16908820D02*
X8869491Y-16899296D01*
X8869491Y-16899296D02*
X8859967Y-16880249D01*
X8859967Y-16880249D02*
X8850444Y-16842153D01*
X8850444Y-16842153D02*
X8850444Y-16794534D01*
X8850444Y-16794534D02*
X8859967Y-16756439D01*
X8859967Y-16756439D02*
X8869491Y-16737391D01*
X8869491Y-16737391D02*
X8879015Y-16727868D01*
X8879015Y-16727868D02*
X8898063Y-16718344D01*
X9088539Y-16718344D02*
X9107586Y-16718344D01*
X9107586Y-16718344D02*
X9126634Y-16727868D01*
X9126634Y-16727868D02*
X9136158Y-16737391D01*
X9136158Y-16737391D02*
X9145682Y-16756439D01*
X9145682Y-16756439D02*
X9155205Y-16794534D01*
X9155205Y-16794534D02*
X9155205Y-16842153D01*
X9155205Y-16842153D02*
X9145682Y-16880249D01*
X9145682Y-16880249D02*
X9136158Y-16899296D01*
X9136158Y-16899296D02*
X9126634Y-16908820D01*
X9126634Y-16908820D02*
X9107586Y-16918344D01*
X9107586Y-16918344D02*
X9088539Y-16918344D01*
X9088539Y-16918344D02*
X9069491Y-16908820D01*
X9069491Y-16908820D02*
X9059967Y-16899296D01*
X9059967Y-16899296D02*
X9050444Y-16880249D01*
X9050444Y-16880249D02*
X9040920Y-16842153D01*
X9040920Y-16842153D02*
X9040920Y-16794534D01*
X9040920Y-16794534D02*
X9050444Y-16756439D01*
X9050444Y-16756439D02*
X9059967Y-16737391D01*
X9059967Y-16737391D02*
X9069491Y-16727868D01*
X9069491Y-16727868D02*
X9088539Y-16718344D01*
X9240920Y-16918344D02*
X9240920Y-16785010D01*
X9240920Y-16804058D02*
X9250444Y-16794534D01*
X9250444Y-16794534D02*
X9269491Y-16785010D01*
X9269491Y-16785010D02*
X9298063Y-16785010D01*
X9298063Y-16785010D02*
X9317110Y-16794534D01*
X9317110Y-16794534D02*
X9326634Y-16813582D01*
X9326634Y-16813582D02*
X9326634Y-16918344D01*
X9326634Y-16813582D02*
X9336158Y-16794534D01*
X9336158Y-16794534D02*
X9355205Y-16785010D01*
X9355205Y-16785010D02*
X9383777Y-16785010D01*
X9383777Y-16785010D02*
X9402825Y-16794534D01*
X9402825Y-16794534D02*
X9412348Y-16813582D01*
X9412348Y-16813582D02*
X9412348Y-16918344D01*
X9507586Y-16918344D02*
X9507586Y-16785010D01*
X9507586Y-16804058D02*
X9517110Y-16794534D01*
X9517110Y-16794534D02*
X9536158Y-16785010D01*
X9536158Y-16785010D02*
X9564729Y-16785010D01*
X9564729Y-16785010D02*
X9583777Y-16794534D01*
X9583777Y-16794534D02*
X9593301Y-16813582D01*
X9593301Y-16813582D02*
X9593301Y-16918344D01*
X9593301Y-16813582D02*
X9602825Y-16794534D01*
X9602825Y-16794534D02*
X9621872Y-16785010D01*
X9621872Y-16785010D02*
X9650444Y-16785010D01*
X9650444Y-16785010D02*
X9669491Y-16794534D01*
X9669491Y-16794534D02*
X9679015Y-16813582D01*
X9679015Y-16813582D02*
X9679015Y-16918344D01*
X10069491Y-16708820D02*
X9898063Y-16965963D01*
X10326634Y-16718344D02*
X10345682Y-16718344D01*
X10345682Y-16718344D02*
X10364729Y-16727868D01*
X10364729Y-16727868D02*
X10374253Y-16737391D01*
X10374253Y-16737391D02*
X10383777Y-16756439D01*
X10383777Y-16756439D02*
X10393301Y-16794534D01*
X10393301Y-16794534D02*
X10393301Y-16842153D01*
X10393301Y-16842153D02*
X10383777Y-16880249D01*
X10383777Y-16880249D02*
X10374253Y-16899296D01*
X10374253Y-16899296D02*
X10364729Y-16908820D01*
X10364729Y-16908820D02*
X10345682Y-16918344D01*
X10345682Y-16918344D02*
X10326634Y-16918344D01*
X10326634Y-16918344D02*
X10307587Y-16908820D01*
X10307587Y-16908820D02*
X10298063Y-16899296D01*
X10298063Y-16899296D02*
X10288539Y-16880249D01*
X10288539Y-16880249D02*
X10279015Y-16842153D01*
X10279015Y-16842153D02*
X10279015Y-16794534D01*
X10279015Y-16794534D02*
X10288539Y-16756439D01*
X10288539Y-16756439D02*
X10298063Y-16737391D01*
X10298063Y-16737391D02*
X10307587Y-16727868D01*
X10307587Y-16727868D02*
X10326634Y-16718344D01*
X10479015Y-16899296D02*
X10488539Y-16908820D01*
X10488539Y-16908820D02*
X10479015Y-16918344D01*
X10479015Y-16918344D02*
X10469491Y-16908820D01*
X10469491Y-16908820D02*
X10479015Y-16899296D01*
X10479015Y-16899296D02*
X10479015Y-16918344D01*
X10612348Y-16718344D02*
X10631396Y-16718344D01*
X10631396Y-16718344D02*
X10650444Y-16727868D01*
X10650444Y-16727868D02*
X10659968Y-16737391D01*
X10659968Y-16737391D02*
X10669491Y-16756439D01*
X10669491Y-16756439D02*
X10679015Y-16794534D01*
X10679015Y-16794534D02*
X10679015Y-16842153D01*
X10679015Y-16842153D02*
X10669491Y-16880249D01*
X10669491Y-16880249D02*
X10659968Y-16899296D01*
X10659968Y-16899296D02*
X10650444Y-16908820D01*
X10650444Y-16908820D02*
X10631396Y-16918344D01*
X10631396Y-16918344D02*
X10612348Y-16918344D01*
X10612348Y-16918344D02*
X10593301Y-16908820D01*
X10593301Y-16908820D02*
X10583777Y-16899296D01*
X10583777Y-16899296D02*
X10574253Y-16880249D01*
X10574253Y-16880249D02*
X10564729Y-16842153D01*
X10564729Y-16842153D02*
X10564729Y-16794534D01*
X10564729Y-16794534D02*
X10574253Y-16756439D01*
X10574253Y-16756439D02*
X10583777Y-16737391D01*
X10583777Y-16737391D02*
X10593301Y-16727868D01*
X10593301Y-16727868D02*
X10612348Y-16718344D01*
X10745682Y-16718344D02*
X10869491Y-16718344D01*
X10869491Y-16718344D02*
X10802825Y-16794534D01*
X10802825Y-16794534D02*
X10831396Y-16794534D01*
X10831396Y-16794534D02*
X10850444Y-16804058D01*
X10850444Y-16804058D02*
X10859968Y-16813582D01*
X10859968Y-16813582D02*
X10869491Y-16832630D01*
X10869491Y-16832630D02*
X10869491Y-16880249D01*
X10869491Y-16880249D02*
X10859968Y-16899296D01*
X10859968Y-16899296D02*
X10850444Y-16908820D01*
X10850444Y-16908820D02*
X10831396Y-16918344D01*
X10831396Y-16918344D02*
X10774253Y-16918344D01*
X10774253Y-16918344D02*
X10755206Y-16908820D01*
X10755206Y-16908820D02*
X10745682Y-16899296D01*
X11050444Y-16718344D02*
X10955206Y-16718344D01*
X10955206Y-16718344D02*
X10945682Y-16813582D01*
X10945682Y-16813582D02*
X10955206Y-16804058D01*
X10955206Y-16804058D02*
X10974253Y-16794534D01*
X10974253Y-16794534D02*
X11021872Y-16794534D01*
X11021872Y-16794534D02*
X11040920Y-16804058D01*
X11040920Y-16804058D02*
X11050444Y-16813582D01*
X11050444Y-16813582D02*
X11059968Y-16832630D01*
X11059968Y-16832630D02*
X11059968Y-16880249D01*
X11059968Y-16880249D02*
X11050444Y-16899296D01*
X11050444Y-16899296D02*
X11040920Y-16908820D01*
X11040920Y-16908820D02*
X11021872Y-16918344D01*
X11021872Y-16918344D02*
X10974253Y-16918344D01*
X10974253Y-16918344D02*
X10955206Y-16908820D01*
X10955206Y-16908820D02*
X10945682Y-16899296D01*
X11231396Y-16785010D02*
X11231396Y-16918344D01*
X11183777Y-16708820D02*
X11136158Y-16851677D01*
X11136158Y-16851677D02*
X11259967Y-16851677D01*
X11326634Y-16718344D02*
X11326634Y-16756439D01*
X11402825Y-16718344D02*
X11402825Y-16756439D01*
X11698063Y-16994534D02*
X11688539Y-16985010D01*
X11688539Y-16985010D02*
X11669491Y-16956439D01*
X11669491Y-16956439D02*
X11659968Y-16937391D01*
X11659968Y-16937391D02*
X11650444Y-16908820D01*
X11650444Y-16908820D02*
X11640920Y-16861201D01*
X11640920Y-16861201D02*
X11640920Y-16823106D01*
X11640920Y-16823106D02*
X11650444Y-16775487D01*
X11650444Y-16775487D02*
X11659968Y-16746915D01*
X11659968Y-16746915D02*
X11669491Y-16727868D01*
X11669491Y-16727868D02*
X11688539Y-16699296D01*
X11688539Y-16699296D02*
X11698063Y-16689772D01*
X11879015Y-16918344D02*
X11764729Y-16918344D01*
X11821872Y-16918344D02*
X11821872Y-16718344D01*
X11821872Y-16718344D02*
X11802825Y-16746915D01*
X11802825Y-16746915D02*
X11783777Y-16765963D01*
X11783777Y-16765963D02*
X11764729Y-16775487D01*
X12050444Y-16785010D02*
X12050444Y-16918344D01*
X12002825Y-16708820D02*
X11955206Y-16851677D01*
X11955206Y-16851677D02*
X12079015Y-16851677D01*
X12307587Y-16918344D02*
X12307587Y-16718344D01*
X12393301Y-16918344D02*
X12393301Y-16813582D01*
X12393301Y-16813582D02*
X12383777Y-16794534D01*
X12383777Y-16794534D02*
X12364730Y-16785010D01*
X12364730Y-16785010D02*
X12336158Y-16785010D01*
X12336158Y-16785010D02*
X12317110Y-16794534D01*
X12317110Y-16794534D02*
X12307587Y-16804058D01*
X12517110Y-16918344D02*
X12498063Y-16908820D01*
X12498063Y-16908820D02*
X12488539Y-16899296D01*
X12488539Y-16899296D02*
X12479015Y-16880249D01*
X12479015Y-16880249D02*
X12479015Y-16823106D01*
X12479015Y-16823106D02*
X12488539Y-16804058D01*
X12488539Y-16804058D02*
X12498063Y-16794534D01*
X12498063Y-16794534D02*
X12517110Y-16785010D01*
X12517110Y-16785010D02*
X12545682Y-16785010D01*
X12545682Y-16785010D02*
X12564730Y-16794534D01*
X12564730Y-16794534D02*
X12574253Y-16804058D01*
X12574253Y-16804058D02*
X12583777Y-16823106D01*
X12583777Y-16823106D02*
X12583777Y-16880249D01*
X12583777Y-16880249D02*
X12574253Y-16899296D01*
X12574253Y-16899296D02*
X12564730Y-16908820D01*
X12564730Y-16908820D02*
X12545682Y-16918344D01*
X12545682Y-16918344D02*
X12517110Y-16918344D01*
X12698063Y-16918344D02*
X12679015Y-16908820D01*
X12679015Y-16908820D02*
X12669491Y-16889772D01*
X12669491Y-16889772D02*
X12669491Y-16718344D01*
X12850444Y-16908820D02*
X12831396Y-16918344D01*
X12831396Y-16918344D02*
X12793301Y-16918344D01*
X12793301Y-16918344D02*
X12774253Y-16908820D01*
X12774253Y-16908820D02*
X12764730Y-16889772D01*
X12764730Y-16889772D02*
X12764730Y-16813582D01*
X12764730Y-16813582D02*
X12774253Y-16794534D01*
X12774253Y-16794534D02*
X12793301Y-16785010D01*
X12793301Y-16785010D02*
X12831396Y-16785010D01*
X12831396Y-16785010D02*
X12850444Y-16794534D01*
X12850444Y-16794534D02*
X12859968Y-16813582D01*
X12859968Y-16813582D02*
X12859968Y-16832630D01*
X12859968Y-16832630D02*
X12764730Y-16851677D01*
X12936158Y-16908820D02*
X12955206Y-16918344D01*
X12955206Y-16918344D02*
X12993301Y-16918344D01*
X12993301Y-16918344D02*
X13012349Y-16908820D01*
X13012349Y-16908820D02*
X13021872Y-16889772D01*
X13021872Y-16889772D02*
X13021872Y-16880249D01*
X13021872Y-16880249D02*
X13012349Y-16861201D01*
X13012349Y-16861201D02*
X12993301Y-16851677D01*
X12993301Y-16851677D02*
X12964730Y-16851677D01*
X12964730Y-16851677D02*
X12945682Y-16842153D01*
X12945682Y-16842153D02*
X12936158Y-16823106D01*
X12936158Y-16823106D02*
X12936158Y-16813582D01*
X12936158Y-16813582D02*
X12945682Y-16794534D01*
X12945682Y-16794534D02*
X12964730Y-16785010D01*
X12964730Y-16785010D02*
X12993301Y-16785010D01*
X12993301Y-16785010D02*
X13012349Y-16794534D01*
X13088539Y-16994534D02*
X13098063Y-16985010D01*
X13098063Y-16985010D02*
X13117111Y-16956439D01*
X13117111Y-16956439D02*
X13126634Y-16937391D01*
X13126634Y-16937391D02*
X13136158Y-16908820D01*
X13136158Y-16908820D02*
X13145682Y-16861201D01*
X13145682Y-16861201D02*
X13145682Y-16823106D01*
X13145682Y-16823106D02*
X13136158Y-16775487D01*
X13136158Y-16775487D02*
X13126634Y-16746915D01*
X13126634Y-16746915D02*
X13117111Y-16727868D01*
X13117111Y-16727868D02*
X13098063Y-16699296D01*
X13098063Y-16699296D02*
X13088539Y-16689772D01*
D10*
X8073000Y-17140860D02*
X8123000Y-17090860D01*
X8073000Y-17040860D01*
X8023000Y-17090860D01*
X8073000Y-17140860D01*
D11*
X8488539Y-17182344D02*
X8374253Y-17182344D01*
X8431396Y-17182344D02*
X8431396Y-16982344D01*
X8431396Y-16982344D02*
X8412348Y-17010915D01*
X8412348Y-17010915D02*
X8393301Y-17029963D01*
X8393301Y-17029963D02*
X8374253Y-17039487D01*
X8574253Y-17163296D02*
X8583777Y-17172820D01*
X8583777Y-17172820D02*
X8574253Y-17182344D01*
X8574253Y-17182344D02*
X8564729Y-17172820D01*
X8564729Y-17172820D02*
X8574253Y-17163296D01*
X8574253Y-17163296D02*
X8574253Y-17182344D01*
X8707586Y-16982344D02*
X8726634Y-16982344D01*
X8726634Y-16982344D02*
X8745682Y-16991868D01*
X8745682Y-16991868D02*
X8755205Y-17001391D01*
X8755205Y-17001391D02*
X8764729Y-17020439D01*
X8764729Y-17020439D02*
X8774253Y-17058534D01*
X8774253Y-17058534D02*
X8774253Y-17106153D01*
X8774253Y-17106153D02*
X8764729Y-17144249D01*
X8764729Y-17144249D02*
X8755205Y-17163296D01*
X8755205Y-17163296D02*
X8745682Y-17172820D01*
X8745682Y-17172820D02*
X8726634Y-17182344D01*
X8726634Y-17182344D02*
X8707586Y-17182344D01*
X8707586Y-17182344D02*
X8688539Y-17172820D01*
X8688539Y-17172820D02*
X8679015Y-17163296D01*
X8679015Y-17163296D02*
X8669491Y-17144249D01*
X8669491Y-17144249D02*
X8659967Y-17106153D01*
X8659967Y-17106153D02*
X8659967Y-17058534D01*
X8659967Y-17058534D02*
X8669491Y-17020439D01*
X8669491Y-17020439D02*
X8679015Y-17001391D01*
X8679015Y-17001391D02*
X8688539Y-16991868D01*
X8688539Y-16991868D02*
X8707586Y-16982344D01*
X8898063Y-16982344D02*
X8917110Y-16982344D01*
X8917110Y-16982344D02*
X8936158Y-16991868D01*
X8936158Y-16991868D02*
X8945682Y-17001391D01*
X8945682Y-17001391D02*
X8955205Y-17020439D01*
X8955205Y-17020439D02*
X8964729Y-17058534D01*
X8964729Y-17058534D02*
X8964729Y-17106153D01*
X8964729Y-17106153D02*
X8955205Y-17144249D01*
X8955205Y-17144249D02*
X8945682Y-17163296D01*
X8945682Y-17163296D02*
X8936158Y-17172820D01*
X8936158Y-17172820D02*
X8917110Y-17182344D01*
X8917110Y-17182344D02*
X8898063Y-17182344D01*
X8898063Y-17182344D02*
X8879015Y-17172820D01*
X8879015Y-17172820D02*
X8869491Y-17163296D01*
X8869491Y-17163296D02*
X8859967Y-17144249D01*
X8859967Y-17144249D02*
X8850444Y-17106153D01*
X8850444Y-17106153D02*
X8850444Y-17058534D01*
X8850444Y-17058534D02*
X8859967Y-17020439D01*
X8859967Y-17020439D02*
X8869491Y-17001391D01*
X8869491Y-17001391D02*
X8879015Y-16991868D01*
X8879015Y-16991868D02*
X8898063Y-16982344D01*
X9088539Y-16982344D02*
X9107586Y-16982344D01*
X9107586Y-16982344D02*
X9126634Y-16991868D01*
X9126634Y-16991868D02*
X9136158Y-17001391D01*
X9136158Y-17001391D02*
X9145682Y-17020439D01*
X9145682Y-17020439D02*
X9155205Y-17058534D01*
X9155205Y-17058534D02*
X9155205Y-17106153D01*
X9155205Y-17106153D02*
X9145682Y-17144249D01*
X9145682Y-17144249D02*
X9136158Y-17163296D01*
X9136158Y-17163296D02*
X9126634Y-17172820D01*
X9126634Y-17172820D02*
X9107586Y-17182344D01*
X9107586Y-17182344D02*
X9088539Y-17182344D01*
X9088539Y-17182344D02*
X9069491Y-17172820D01*
X9069491Y-17172820D02*
X9059967Y-17163296D01*
X9059967Y-17163296D02*
X9050444Y-17144249D01*
X9050444Y-17144249D02*
X9040920Y-17106153D01*
X9040920Y-17106153D02*
X9040920Y-17058534D01*
X9040920Y-17058534D02*
X9050444Y-17020439D01*
X9050444Y-17020439D02*
X9059967Y-17001391D01*
X9059967Y-17001391D02*
X9069491Y-16991868D01*
X9069491Y-16991868D02*
X9088539Y-16982344D01*
X9240920Y-17182344D02*
X9240920Y-17049010D01*
X9240920Y-17068058D02*
X9250444Y-17058534D01*
X9250444Y-17058534D02*
X9269491Y-17049010D01*
X9269491Y-17049010D02*
X9298063Y-17049010D01*
X9298063Y-17049010D02*
X9317110Y-17058534D01*
X9317110Y-17058534D02*
X9326634Y-17077582D01*
X9326634Y-17077582D02*
X9326634Y-17182344D01*
X9326634Y-17077582D02*
X9336158Y-17058534D01*
X9336158Y-17058534D02*
X9355205Y-17049010D01*
X9355205Y-17049010D02*
X9383777Y-17049010D01*
X9383777Y-17049010D02*
X9402825Y-17058534D01*
X9402825Y-17058534D02*
X9412348Y-17077582D01*
X9412348Y-17077582D02*
X9412348Y-17182344D01*
X9507586Y-17182344D02*
X9507586Y-17049010D01*
X9507586Y-17068058D02*
X9517110Y-17058534D01*
X9517110Y-17058534D02*
X9536158Y-17049010D01*
X9536158Y-17049010D02*
X9564729Y-17049010D01*
X9564729Y-17049010D02*
X9583777Y-17058534D01*
X9583777Y-17058534D02*
X9593301Y-17077582D01*
X9593301Y-17077582D02*
X9593301Y-17182344D01*
X9593301Y-17077582D02*
X9602825Y-17058534D01*
X9602825Y-17058534D02*
X9621872Y-17049010D01*
X9621872Y-17049010D02*
X9650444Y-17049010D01*
X9650444Y-17049010D02*
X9669491Y-17058534D01*
X9669491Y-17058534D02*
X9679015Y-17077582D01*
X9679015Y-17077582D02*
X9679015Y-17182344D01*
X10069491Y-16972820D02*
X9898063Y-17229963D01*
X10326634Y-16982344D02*
X10345682Y-16982344D01*
X10345682Y-16982344D02*
X10364729Y-16991868D01*
X10364729Y-16991868D02*
X10374253Y-17001391D01*
X10374253Y-17001391D02*
X10383777Y-17020439D01*
X10383777Y-17020439D02*
X10393301Y-17058534D01*
X10393301Y-17058534D02*
X10393301Y-17106153D01*
X10393301Y-17106153D02*
X10383777Y-17144249D01*
X10383777Y-17144249D02*
X10374253Y-17163296D01*
X10374253Y-17163296D02*
X10364729Y-17172820D01*
X10364729Y-17172820D02*
X10345682Y-17182344D01*
X10345682Y-17182344D02*
X10326634Y-17182344D01*
X10326634Y-17182344D02*
X10307587Y-17172820D01*
X10307587Y-17172820D02*
X10298063Y-17163296D01*
X10298063Y-17163296D02*
X10288539Y-17144249D01*
X10288539Y-17144249D02*
X10279015Y-17106153D01*
X10279015Y-17106153D02*
X10279015Y-17058534D01*
X10279015Y-17058534D02*
X10288539Y-17020439D01*
X10288539Y-17020439D02*
X10298063Y-17001391D01*
X10298063Y-17001391D02*
X10307587Y-16991868D01*
X10307587Y-16991868D02*
X10326634Y-16982344D01*
X10479015Y-17163296D02*
X10488539Y-17172820D01*
X10488539Y-17172820D02*
X10479015Y-17182344D01*
X10479015Y-17182344D02*
X10469491Y-17172820D01*
X10469491Y-17172820D02*
X10479015Y-17163296D01*
X10479015Y-17163296D02*
X10479015Y-17182344D01*
X10612348Y-16982344D02*
X10631396Y-16982344D01*
X10631396Y-16982344D02*
X10650444Y-16991868D01*
X10650444Y-16991868D02*
X10659968Y-17001391D01*
X10659968Y-17001391D02*
X10669491Y-17020439D01*
X10669491Y-17020439D02*
X10679015Y-17058534D01*
X10679015Y-17058534D02*
X10679015Y-17106153D01*
X10679015Y-17106153D02*
X10669491Y-17144249D01*
X10669491Y-17144249D02*
X10659968Y-17163296D01*
X10659968Y-17163296D02*
X10650444Y-17172820D01*
X10650444Y-17172820D02*
X10631396Y-17182344D01*
X10631396Y-17182344D02*
X10612348Y-17182344D01*
X10612348Y-17182344D02*
X10593301Y-17172820D01*
X10593301Y-17172820D02*
X10583777Y-17163296D01*
X10583777Y-17163296D02*
X10574253Y-17144249D01*
X10574253Y-17144249D02*
X10564729Y-17106153D01*
X10564729Y-17106153D02*
X10564729Y-17058534D01*
X10564729Y-17058534D02*
X10574253Y-17020439D01*
X10574253Y-17020439D02*
X10583777Y-17001391D01*
X10583777Y-17001391D02*
X10593301Y-16991868D01*
X10593301Y-16991868D02*
X10612348Y-16982344D01*
X10745682Y-16982344D02*
X10869491Y-16982344D01*
X10869491Y-16982344D02*
X10802825Y-17058534D01*
X10802825Y-17058534D02*
X10831396Y-17058534D01*
X10831396Y-17058534D02*
X10850444Y-17068058D01*
X10850444Y-17068058D02*
X10859968Y-17077582D01*
X10859968Y-17077582D02*
X10869491Y-17096630D01*
X10869491Y-17096630D02*
X10869491Y-17144249D01*
X10869491Y-17144249D02*
X10859968Y-17163296D01*
X10859968Y-17163296D02*
X10850444Y-17172820D01*
X10850444Y-17172820D02*
X10831396Y-17182344D01*
X10831396Y-17182344D02*
X10774253Y-17182344D01*
X10774253Y-17182344D02*
X10755206Y-17172820D01*
X10755206Y-17172820D02*
X10745682Y-17163296D01*
X10964729Y-17182344D02*
X11002825Y-17182344D01*
X11002825Y-17182344D02*
X11021872Y-17172820D01*
X11021872Y-17172820D02*
X11031396Y-17163296D01*
X11031396Y-17163296D02*
X11050444Y-17134725D01*
X11050444Y-17134725D02*
X11059968Y-17096630D01*
X11059968Y-17096630D02*
X11059968Y-17020439D01*
X11059968Y-17020439D02*
X11050444Y-17001391D01*
X11050444Y-17001391D02*
X11040920Y-16991868D01*
X11040920Y-16991868D02*
X11021872Y-16982344D01*
X11021872Y-16982344D02*
X10983777Y-16982344D01*
X10983777Y-16982344D02*
X10964729Y-16991868D01*
X10964729Y-16991868D02*
X10955206Y-17001391D01*
X10955206Y-17001391D02*
X10945682Y-17020439D01*
X10945682Y-17020439D02*
X10945682Y-17068058D01*
X10945682Y-17068058D02*
X10955206Y-17087106D01*
X10955206Y-17087106D02*
X10964729Y-17096630D01*
X10964729Y-17096630D02*
X10983777Y-17106153D01*
X10983777Y-17106153D02*
X11021872Y-17106153D01*
X11021872Y-17106153D02*
X11040920Y-17096630D01*
X11040920Y-17096630D02*
X11050444Y-17087106D01*
X11050444Y-17087106D02*
X11059968Y-17068058D01*
X11231396Y-17049010D02*
X11231396Y-17182344D01*
X11183777Y-16972820D02*
X11136158Y-17115677D01*
X11136158Y-17115677D02*
X11259967Y-17115677D01*
X11326634Y-16982344D02*
X11326634Y-17020439D01*
X11402825Y-16982344D02*
X11402825Y-17020439D01*
X11698063Y-17258534D02*
X11688539Y-17249010D01*
X11688539Y-17249010D02*
X11669491Y-17220439D01*
X11669491Y-17220439D02*
X11659968Y-17201391D01*
X11659968Y-17201391D02*
X11650444Y-17172820D01*
X11650444Y-17172820D02*
X11640920Y-17125201D01*
X11640920Y-17125201D02*
X11640920Y-17087106D01*
X11640920Y-17087106D02*
X11650444Y-17039487D01*
X11650444Y-17039487D02*
X11659968Y-17010915D01*
X11659968Y-17010915D02*
X11669491Y-16991868D01*
X11669491Y-16991868D02*
X11688539Y-16963296D01*
X11688539Y-16963296D02*
X11698063Y-16953772D01*
X11879015Y-17182344D02*
X11764729Y-17182344D01*
X11821872Y-17182344D02*
X11821872Y-16982344D01*
X11821872Y-16982344D02*
X11802825Y-17010915D01*
X11802825Y-17010915D02*
X11783777Y-17029963D01*
X11783777Y-17029963D02*
X11764729Y-17039487D01*
X11955206Y-17001391D02*
X11964729Y-16991868D01*
X11964729Y-16991868D02*
X11983777Y-16982344D01*
X11983777Y-16982344D02*
X12031396Y-16982344D01*
X12031396Y-16982344D02*
X12050444Y-16991868D01*
X12050444Y-16991868D02*
X12059968Y-17001391D01*
X12059968Y-17001391D02*
X12069491Y-17020439D01*
X12069491Y-17020439D02*
X12069491Y-17039487D01*
X12069491Y-17039487D02*
X12059968Y-17068058D01*
X12059968Y-17068058D02*
X11945682Y-17182344D01*
X11945682Y-17182344D02*
X12069491Y-17182344D01*
X12259968Y-17182344D02*
X12145682Y-17182344D01*
X12202825Y-17182344D02*
X12202825Y-16982344D01*
X12202825Y-16982344D02*
X12183777Y-17010915D01*
X12183777Y-17010915D02*
X12164729Y-17029963D01*
X12164729Y-17029963D02*
X12145682Y-17039487D01*
X12498063Y-17182344D02*
X12498063Y-16982344D01*
X12583777Y-17182344D02*
X12583777Y-17077582D01*
X12583777Y-17077582D02*
X12574253Y-17058534D01*
X12574253Y-17058534D02*
X12555206Y-17049010D01*
X12555206Y-17049010D02*
X12526634Y-17049010D01*
X12526634Y-17049010D02*
X12507587Y-17058534D01*
X12507587Y-17058534D02*
X12498063Y-17068058D01*
X12707587Y-17182344D02*
X12688539Y-17172820D01*
X12688539Y-17172820D02*
X12679015Y-17163296D01*
X12679015Y-17163296D02*
X12669491Y-17144249D01*
X12669491Y-17144249D02*
X12669491Y-17087106D01*
X12669491Y-17087106D02*
X12679015Y-17068058D01*
X12679015Y-17068058D02*
X12688539Y-17058534D01*
X12688539Y-17058534D02*
X12707587Y-17049010D01*
X12707587Y-17049010D02*
X12736158Y-17049010D01*
X12736158Y-17049010D02*
X12755206Y-17058534D01*
X12755206Y-17058534D02*
X12764730Y-17068058D01*
X12764730Y-17068058D02*
X12774253Y-17087106D01*
X12774253Y-17087106D02*
X12774253Y-17144249D01*
X12774253Y-17144249D02*
X12764730Y-17163296D01*
X12764730Y-17163296D02*
X12755206Y-17172820D01*
X12755206Y-17172820D02*
X12736158Y-17182344D01*
X12736158Y-17182344D02*
X12707587Y-17182344D01*
X12888539Y-17182344D02*
X12869491Y-17172820D01*
X12869491Y-17172820D02*
X12859968Y-17153772D01*
X12859968Y-17153772D02*
X12859968Y-16982344D01*
X13040920Y-17172820D02*
X13021872Y-17182344D01*
X13021872Y-17182344D02*
X12983777Y-17182344D01*
X12983777Y-17182344D02*
X12964730Y-17172820D01*
X12964730Y-17172820D02*
X12955206Y-17153772D01*
X12955206Y-17153772D02*
X12955206Y-17077582D01*
X12955206Y-17077582D02*
X12964730Y-17058534D01*
X12964730Y-17058534D02*
X12983777Y-17049010D01*
X12983777Y-17049010D02*
X13021872Y-17049010D01*
X13021872Y-17049010D02*
X13040920Y-17058534D01*
X13040920Y-17058534D02*
X13050444Y-17077582D01*
X13050444Y-17077582D02*
X13050444Y-17096630D01*
X13050444Y-17096630D02*
X12955206Y-17115677D01*
X13126634Y-17172820D02*
X13145682Y-17182344D01*
X13145682Y-17182344D02*
X13183777Y-17182344D01*
X13183777Y-17182344D02*
X13202825Y-17172820D01*
X13202825Y-17172820D02*
X13212349Y-17153772D01*
X13212349Y-17153772D02*
X13212349Y-17144249D01*
X13212349Y-17144249D02*
X13202825Y-17125201D01*
X13202825Y-17125201D02*
X13183777Y-17115677D01*
X13183777Y-17115677D02*
X13155206Y-17115677D01*
X13155206Y-17115677D02*
X13136158Y-17106153D01*
X13136158Y-17106153D02*
X13126634Y-17087106D01*
X13126634Y-17087106D02*
X13126634Y-17077582D01*
X13126634Y-17077582D02*
X13136158Y-17058534D01*
X13136158Y-17058534D02*
X13155206Y-17049010D01*
X13155206Y-17049010D02*
X13183777Y-17049010D01*
X13183777Y-17049010D02*
X13202825Y-17058534D01*
X13279015Y-17258534D02*
X13288539Y-17249010D01*
X13288539Y-17249010D02*
X13307587Y-17220439D01*
X13307587Y-17220439D02*
X13317111Y-17201391D01*
X13317111Y-17201391D02*
X13326634Y-17172820D01*
X13326634Y-17172820D02*
X13336158Y-17125201D01*
X13336158Y-17125201D02*
X13336158Y-17087106D01*
X13336158Y-17087106D02*
X13326634Y-17039487D01*
X13326634Y-17039487D02*
X13317111Y-17010915D01*
X13317111Y-17010915D02*
X13307587Y-16991868D01*
X13307587Y-16991868D02*
X13288539Y-16963296D01*
X13288539Y-16963296D02*
X13279015Y-16953772D01*
D12*
X8013000Y-17299860D02*
X8123000Y-17409860D01*
X8123000Y-17299860D02*
X8013000Y-17409860D01*
X8123000Y-17354860D02*
G75*
G03*
X8123000Y-17354860I-55000J0D01*
G01*
D11*
X8488539Y-17446344D02*
X8374253Y-17446344D01*
X8431396Y-17446344D02*
X8431396Y-17246344D01*
X8431396Y-17246344D02*
X8412348Y-17274915D01*
X8412348Y-17274915D02*
X8393301Y-17293963D01*
X8393301Y-17293963D02*
X8374253Y-17303487D01*
X8574253Y-17427296D02*
X8583777Y-17436820D01*
X8583777Y-17436820D02*
X8574253Y-17446344D01*
X8574253Y-17446344D02*
X8564729Y-17436820D01*
X8564729Y-17436820D02*
X8574253Y-17427296D01*
X8574253Y-17427296D02*
X8574253Y-17446344D01*
X8774253Y-17446344D02*
X8659967Y-17446344D01*
X8717110Y-17446344D02*
X8717110Y-17246344D01*
X8717110Y-17246344D02*
X8698063Y-17274915D01*
X8698063Y-17274915D02*
X8679015Y-17293963D01*
X8679015Y-17293963D02*
X8659967Y-17303487D01*
X8898063Y-17246344D02*
X8917110Y-17246344D01*
X8917110Y-17246344D02*
X8936158Y-17255868D01*
X8936158Y-17255868D02*
X8945682Y-17265391D01*
X8945682Y-17265391D02*
X8955205Y-17284439D01*
X8955205Y-17284439D02*
X8964729Y-17322534D01*
X8964729Y-17322534D02*
X8964729Y-17370153D01*
X8964729Y-17370153D02*
X8955205Y-17408249D01*
X8955205Y-17408249D02*
X8945682Y-17427296D01*
X8945682Y-17427296D02*
X8936158Y-17436820D01*
X8936158Y-17436820D02*
X8917110Y-17446344D01*
X8917110Y-17446344D02*
X8898063Y-17446344D01*
X8898063Y-17446344D02*
X8879015Y-17436820D01*
X8879015Y-17436820D02*
X8869491Y-17427296D01*
X8869491Y-17427296D02*
X8859967Y-17408249D01*
X8859967Y-17408249D02*
X8850444Y-17370153D01*
X8850444Y-17370153D02*
X8850444Y-17322534D01*
X8850444Y-17322534D02*
X8859967Y-17284439D01*
X8859967Y-17284439D02*
X8869491Y-17265391D01*
X8869491Y-17265391D02*
X8879015Y-17255868D01*
X8879015Y-17255868D02*
X8898063Y-17246344D01*
X9088539Y-17246344D02*
X9107586Y-17246344D01*
X9107586Y-17246344D02*
X9126634Y-17255868D01*
X9126634Y-17255868D02*
X9136158Y-17265391D01*
X9136158Y-17265391D02*
X9145682Y-17284439D01*
X9145682Y-17284439D02*
X9155205Y-17322534D01*
X9155205Y-17322534D02*
X9155205Y-17370153D01*
X9155205Y-17370153D02*
X9145682Y-17408249D01*
X9145682Y-17408249D02*
X9136158Y-17427296D01*
X9136158Y-17427296D02*
X9126634Y-17436820D01*
X9126634Y-17436820D02*
X9107586Y-17446344D01*
X9107586Y-17446344D02*
X9088539Y-17446344D01*
X9088539Y-17446344D02*
X9069491Y-17436820D01*
X9069491Y-17436820D02*
X9059967Y-17427296D01*
X9059967Y-17427296D02*
X9050444Y-17408249D01*
X9050444Y-17408249D02*
X9040920Y-17370153D01*
X9040920Y-17370153D02*
X9040920Y-17322534D01*
X9040920Y-17322534D02*
X9050444Y-17284439D01*
X9050444Y-17284439D02*
X9059967Y-17265391D01*
X9059967Y-17265391D02*
X9069491Y-17255868D01*
X9069491Y-17255868D02*
X9088539Y-17246344D01*
X9240920Y-17446344D02*
X9240920Y-17313010D01*
X9240920Y-17332058D02*
X9250444Y-17322534D01*
X9250444Y-17322534D02*
X9269491Y-17313010D01*
X9269491Y-17313010D02*
X9298063Y-17313010D01*
X9298063Y-17313010D02*
X9317110Y-17322534D01*
X9317110Y-17322534D02*
X9326634Y-17341582D01*
X9326634Y-17341582D02*
X9326634Y-17446344D01*
X9326634Y-17341582D02*
X9336158Y-17322534D01*
X9336158Y-17322534D02*
X9355205Y-17313010D01*
X9355205Y-17313010D02*
X9383777Y-17313010D01*
X9383777Y-17313010D02*
X9402825Y-17322534D01*
X9402825Y-17322534D02*
X9412348Y-17341582D01*
X9412348Y-17341582D02*
X9412348Y-17446344D01*
X9507586Y-17446344D02*
X9507586Y-17313010D01*
X9507586Y-17332058D02*
X9517110Y-17322534D01*
X9517110Y-17322534D02*
X9536158Y-17313010D01*
X9536158Y-17313010D02*
X9564729Y-17313010D01*
X9564729Y-17313010D02*
X9583777Y-17322534D01*
X9583777Y-17322534D02*
X9593301Y-17341582D01*
X9593301Y-17341582D02*
X9593301Y-17446344D01*
X9593301Y-17341582D02*
X9602825Y-17322534D01*
X9602825Y-17322534D02*
X9621872Y-17313010D01*
X9621872Y-17313010D02*
X9650444Y-17313010D01*
X9650444Y-17313010D02*
X9669491Y-17322534D01*
X9669491Y-17322534D02*
X9679015Y-17341582D01*
X9679015Y-17341582D02*
X9679015Y-17446344D01*
X10069491Y-17236820D02*
X9898063Y-17493963D01*
X10326634Y-17246344D02*
X10345682Y-17246344D01*
X10345682Y-17246344D02*
X10364729Y-17255868D01*
X10364729Y-17255868D02*
X10374253Y-17265391D01*
X10374253Y-17265391D02*
X10383777Y-17284439D01*
X10383777Y-17284439D02*
X10393301Y-17322534D01*
X10393301Y-17322534D02*
X10393301Y-17370153D01*
X10393301Y-17370153D02*
X10383777Y-17408249D01*
X10383777Y-17408249D02*
X10374253Y-17427296D01*
X10374253Y-17427296D02*
X10364729Y-17436820D01*
X10364729Y-17436820D02*
X10345682Y-17446344D01*
X10345682Y-17446344D02*
X10326634Y-17446344D01*
X10326634Y-17446344D02*
X10307587Y-17436820D01*
X10307587Y-17436820D02*
X10298063Y-17427296D01*
X10298063Y-17427296D02*
X10288539Y-17408249D01*
X10288539Y-17408249D02*
X10279015Y-17370153D01*
X10279015Y-17370153D02*
X10279015Y-17322534D01*
X10279015Y-17322534D02*
X10288539Y-17284439D01*
X10288539Y-17284439D02*
X10298063Y-17265391D01*
X10298063Y-17265391D02*
X10307587Y-17255868D01*
X10307587Y-17255868D02*
X10326634Y-17246344D01*
X10479015Y-17427296D02*
X10488539Y-17436820D01*
X10488539Y-17436820D02*
X10479015Y-17446344D01*
X10479015Y-17446344D02*
X10469491Y-17436820D01*
X10469491Y-17436820D02*
X10479015Y-17427296D01*
X10479015Y-17427296D02*
X10479015Y-17446344D01*
X10612348Y-17246344D02*
X10631396Y-17246344D01*
X10631396Y-17246344D02*
X10650444Y-17255868D01*
X10650444Y-17255868D02*
X10659968Y-17265391D01*
X10659968Y-17265391D02*
X10669491Y-17284439D01*
X10669491Y-17284439D02*
X10679015Y-17322534D01*
X10679015Y-17322534D02*
X10679015Y-17370153D01*
X10679015Y-17370153D02*
X10669491Y-17408249D01*
X10669491Y-17408249D02*
X10659968Y-17427296D01*
X10659968Y-17427296D02*
X10650444Y-17436820D01*
X10650444Y-17436820D02*
X10631396Y-17446344D01*
X10631396Y-17446344D02*
X10612348Y-17446344D01*
X10612348Y-17446344D02*
X10593301Y-17436820D01*
X10593301Y-17436820D02*
X10583777Y-17427296D01*
X10583777Y-17427296D02*
X10574253Y-17408249D01*
X10574253Y-17408249D02*
X10564729Y-17370153D01*
X10564729Y-17370153D02*
X10564729Y-17322534D01*
X10564729Y-17322534D02*
X10574253Y-17284439D01*
X10574253Y-17284439D02*
X10583777Y-17265391D01*
X10583777Y-17265391D02*
X10593301Y-17255868D01*
X10593301Y-17255868D02*
X10612348Y-17246344D01*
X10850444Y-17313010D02*
X10850444Y-17446344D01*
X10802825Y-17236820D02*
X10755206Y-17379677D01*
X10755206Y-17379677D02*
X10879015Y-17379677D01*
X10936158Y-17246344D02*
X11059968Y-17246344D01*
X11059968Y-17246344D02*
X10993301Y-17322534D01*
X10993301Y-17322534D02*
X11021872Y-17322534D01*
X11021872Y-17322534D02*
X11040920Y-17332058D01*
X11040920Y-17332058D02*
X11050444Y-17341582D01*
X11050444Y-17341582D02*
X11059968Y-17360630D01*
X11059968Y-17360630D02*
X11059968Y-17408249D01*
X11059968Y-17408249D02*
X11050444Y-17427296D01*
X11050444Y-17427296D02*
X11040920Y-17436820D01*
X11040920Y-17436820D02*
X11021872Y-17446344D01*
X11021872Y-17446344D02*
X10964729Y-17446344D01*
X10964729Y-17446344D02*
X10945682Y-17436820D01*
X10945682Y-17436820D02*
X10936158Y-17427296D01*
X11126634Y-17246344D02*
X11250444Y-17246344D01*
X11250444Y-17246344D02*
X11183777Y-17322534D01*
X11183777Y-17322534D02*
X11212348Y-17322534D01*
X11212348Y-17322534D02*
X11231396Y-17332058D01*
X11231396Y-17332058D02*
X11240920Y-17341582D01*
X11240920Y-17341582D02*
X11250444Y-17360630D01*
X11250444Y-17360630D02*
X11250444Y-17408249D01*
X11250444Y-17408249D02*
X11240920Y-17427296D01*
X11240920Y-17427296D02*
X11231396Y-17436820D01*
X11231396Y-17436820D02*
X11212348Y-17446344D01*
X11212348Y-17446344D02*
X11155206Y-17446344D01*
X11155206Y-17446344D02*
X11136158Y-17436820D01*
X11136158Y-17436820D02*
X11126634Y-17427296D01*
X11326634Y-17246344D02*
X11326634Y-17284439D01*
X11402825Y-17246344D02*
X11402825Y-17284439D01*
X11698063Y-17522534D02*
X11688539Y-17513010D01*
X11688539Y-17513010D02*
X11669491Y-17484439D01*
X11669491Y-17484439D02*
X11659968Y-17465391D01*
X11659968Y-17465391D02*
X11650444Y-17436820D01*
X11650444Y-17436820D02*
X11640920Y-17389201D01*
X11640920Y-17389201D02*
X11640920Y-17351106D01*
X11640920Y-17351106D02*
X11650444Y-17303487D01*
X11650444Y-17303487D02*
X11659968Y-17274915D01*
X11659968Y-17274915D02*
X11669491Y-17255868D01*
X11669491Y-17255868D02*
X11688539Y-17227296D01*
X11688539Y-17227296D02*
X11698063Y-17217772D01*
X11755206Y-17246344D02*
X11879015Y-17246344D01*
X11879015Y-17246344D02*
X11812348Y-17322534D01*
X11812348Y-17322534D02*
X11840920Y-17322534D01*
X11840920Y-17322534D02*
X11859968Y-17332058D01*
X11859968Y-17332058D02*
X11869491Y-17341582D01*
X11869491Y-17341582D02*
X11879015Y-17360630D01*
X11879015Y-17360630D02*
X11879015Y-17408249D01*
X11879015Y-17408249D02*
X11869491Y-17427296D01*
X11869491Y-17427296D02*
X11859968Y-17436820D01*
X11859968Y-17436820D02*
X11840920Y-17446344D01*
X11840920Y-17446344D02*
X11783777Y-17446344D01*
X11783777Y-17446344D02*
X11764729Y-17436820D01*
X11764729Y-17436820D02*
X11755206Y-17427296D01*
X12117110Y-17446344D02*
X12117110Y-17246344D01*
X12202825Y-17446344D02*
X12202825Y-17341582D01*
X12202825Y-17341582D02*
X12193301Y-17322534D01*
X12193301Y-17322534D02*
X12174253Y-17313010D01*
X12174253Y-17313010D02*
X12145682Y-17313010D01*
X12145682Y-17313010D02*
X12126634Y-17322534D01*
X12126634Y-17322534D02*
X12117110Y-17332058D01*
X12326634Y-17446344D02*
X12307587Y-17436820D01*
X12307587Y-17436820D02*
X12298063Y-17427296D01*
X12298063Y-17427296D02*
X12288539Y-17408249D01*
X12288539Y-17408249D02*
X12288539Y-17351106D01*
X12288539Y-17351106D02*
X12298063Y-17332058D01*
X12298063Y-17332058D02*
X12307587Y-17322534D01*
X12307587Y-17322534D02*
X12326634Y-17313010D01*
X12326634Y-17313010D02*
X12355206Y-17313010D01*
X12355206Y-17313010D02*
X12374253Y-17322534D01*
X12374253Y-17322534D02*
X12383777Y-17332058D01*
X12383777Y-17332058D02*
X12393301Y-17351106D01*
X12393301Y-17351106D02*
X12393301Y-17408249D01*
X12393301Y-17408249D02*
X12383777Y-17427296D01*
X12383777Y-17427296D02*
X12374253Y-17436820D01*
X12374253Y-17436820D02*
X12355206Y-17446344D01*
X12355206Y-17446344D02*
X12326634Y-17446344D01*
X12507587Y-17446344D02*
X12488539Y-17436820D01*
X12488539Y-17436820D02*
X12479015Y-17417772D01*
X12479015Y-17417772D02*
X12479015Y-17246344D01*
X12659968Y-17436820D02*
X12640920Y-17446344D01*
X12640920Y-17446344D02*
X12602825Y-17446344D01*
X12602825Y-17446344D02*
X12583777Y-17436820D01*
X12583777Y-17436820D02*
X12574253Y-17417772D01*
X12574253Y-17417772D02*
X12574253Y-17341582D01*
X12574253Y-17341582D02*
X12583777Y-17322534D01*
X12583777Y-17322534D02*
X12602825Y-17313010D01*
X12602825Y-17313010D02*
X12640920Y-17313010D01*
X12640920Y-17313010D02*
X12659968Y-17322534D01*
X12659968Y-17322534D02*
X12669491Y-17341582D01*
X12669491Y-17341582D02*
X12669491Y-17360630D01*
X12669491Y-17360630D02*
X12574253Y-17379677D01*
X12745682Y-17436820D02*
X12764730Y-17446344D01*
X12764730Y-17446344D02*
X12802825Y-17446344D01*
X12802825Y-17446344D02*
X12821872Y-17436820D01*
X12821872Y-17436820D02*
X12831396Y-17417772D01*
X12831396Y-17417772D02*
X12831396Y-17408249D01*
X12831396Y-17408249D02*
X12821872Y-17389201D01*
X12821872Y-17389201D02*
X12802825Y-17379677D01*
X12802825Y-17379677D02*
X12774253Y-17379677D01*
X12774253Y-17379677D02*
X12755206Y-17370153D01*
X12755206Y-17370153D02*
X12745682Y-17351106D01*
X12745682Y-17351106D02*
X12745682Y-17341582D01*
X12745682Y-17341582D02*
X12755206Y-17322534D01*
X12755206Y-17322534D02*
X12774253Y-17313010D01*
X12774253Y-17313010D02*
X12802825Y-17313010D01*
X12802825Y-17313010D02*
X12821872Y-17322534D01*
X12898063Y-17522534D02*
X12907587Y-17513010D01*
X12907587Y-17513010D02*
X12926634Y-17484439D01*
X12926634Y-17484439D02*
X12936158Y-17465391D01*
X12936158Y-17465391D02*
X12945682Y-17436820D01*
X12945682Y-17436820D02*
X12955206Y-17389201D01*
X12955206Y-17389201D02*
X12955206Y-17351106D01*
X12955206Y-17351106D02*
X12945682Y-17303487D01*
X12945682Y-17303487D02*
X12936158Y-17274915D01*
X12936158Y-17274915D02*
X12926634Y-17255868D01*
X12926634Y-17255868D02*
X12907587Y-17227296D01*
X12907587Y-17227296D02*
X12898063Y-17217772D01*
D13*
X8001000Y-17557860D02*
X8123000Y-17679860D01*
X8123000Y-17557860D02*
X8001000Y-17679860D01*
X8062000Y-17557860D02*
X8062000Y-17679860D01*
X8001000Y-17618860D02*
X8123000Y-17618860D01*
D11*
X8488539Y-17710344D02*
X8374253Y-17710344D01*
X8431396Y-17710344D02*
X8431396Y-17510344D01*
X8431396Y-17510344D02*
X8412348Y-17538915D01*
X8412348Y-17538915D02*
X8393301Y-17557963D01*
X8393301Y-17557963D02*
X8374253Y-17567487D01*
X8574253Y-17691296D02*
X8583777Y-17700820D01*
X8583777Y-17700820D02*
X8574253Y-17710344D01*
X8574253Y-17710344D02*
X8564729Y-17700820D01*
X8564729Y-17700820D02*
X8574253Y-17691296D01*
X8574253Y-17691296D02*
X8574253Y-17710344D01*
X8659967Y-17529391D02*
X8669491Y-17519868D01*
X8669491Y-17519868D02*
X8688539Y-17510344D01*
X8688539Y-17510344D02*
X8736158Y-17510344D01*
X8736158Y-17510344D02*
X8755205Y-17519868D01*
X8755205Y-17519868D02*
X8764729Y-17529391D01*
X8764729Y-17529391D02*
X8774253Y-17548439D01*
X8774253Y-17548439D02*
X8774253Y-17567487D01*
X8774253Y-17567487D02*
X8764729Y-17596058D01*
X8764729Y-17596058D02*
X8650444Y-17710344D01*
X8650444Y-17710344D02*
X8774253Y-17710344D01*
X8850444Y-17529391D02*
X8859967Y-17519868D01*
X8859967Y-17519868D02*
X8879015Y-17510344D01*
X8879015Y-17510344D02*
X8926634Y-17510344D01*
X8926634Y-17510344D02*
X8945682Y-17519868D01*
X8945682Y-17519868D02*
X8955205Y-17529391D01*
X8955205Y-17529391D02*
X8964729Y-17548439D01*
X8964729Y-17548439D02*
X8964729Y-17567487D01*
X8964729Y-17567487D02*
X8955205Y-17596058D01*
X8955205Y-17596058D02*
X8840920Y-17710344D01*
X8840920Y-17710344D02*
X8964729Y-17710344D01*
X9088539Y-17510344D02*
X9107586Y-17510344D01*
X9107586Y-17510344D02*
X9126634Y-17519868D01*
X9126634Y-17519868D02*
X9136158Y-17529391D01*
X9136158Y-17529391D02*
X9145682Y-17548439D01*
X9145682Y-17548439D02*
X9155205Y-17586534D01*
X9155205Y-17586534D02*
X9155205Y-17634153D01*
X9155205Y-17634153D02*
X9145682Y-17672249D01*
X9145682Y-17672249D02*
X9136158Y-17691296D01*
X9136158Y-17691296D02*
X9126634Y-17700820D01*
X9126634Y-17700820D02*
X9107586Y-17710344D01*
X9107586Y-17710344D02*
X9088539Y-17710344D01*
X9088539Y-17710344D02*
X9069491Y-17700820D01*
X9069491Y-17700820D02*
X9059967Y-17691296D01*
X9059967Y-17691296D02*
X9050444Y-17672249D01*
X9050444Y-17672249D02*
X9040920Y-17634153D01*
X9040920Y-17634153D02*
X9040920Y-17586534D01*
X9040920Y-17586534D02*
X9050444Y-17548439D01*
X9050444Y-17548439D02*
X9059967Y-17529391D01*
X9059967Y-17529391D02*
X9069491Y-17519868D01*
X9069491Y-17519868D02*
X9088539Y-17510344D01*
X9240920Y-17710344D02*
X9240920Y-17577010D01*
X9240920Y-17596058D02*
X9250444Y-17586534D01*
X9250444Y-17586534D02*
X9269491Y-17577010D01*
X9269491Y-17577010D02*
X9298063Y-17577010D01*
X9298063Y-17577010D02*
X9317110Y-17586534D01*
X9317110Y-17586534D02*
X9326634Y-17605582D01*
X9326634Y-17605582D02*
X9326634Y-17710344D01*
X9326634Y-17605582D02*
X9336158Y-17586534D01*
X9336158Y-17586534D02*
X9355205Y-17577010D01*
X9355205Y-17577010D02*
X9383777Y-17577010D01*
X9383777Y-17577010D02*
X9402825Y-17586534D01*
X9402825Y-17586534D02*
X9412348Y-17605582D01*
X9412348Y-17605582D02*
X9412348Y-17710344D01*
X9507586Y-17710344D02*
X9507586Y-17577010D01*
X9507586Y-17596058D02*
X9517110Y-17586534D01*
X9517110Y-17586534D02*
X9536158Y-17577010D01*
X9536158Y-17577010D02*
X9564729Y-17577010D01*
X9564729Y-17577010D02*
X9583777Y-17586534D01*
X9583777Y-17586534D02*
X9593301Y-17605582D01*
X9593301Y-17605582D02*
X9593301Y-17710344D01*
X9593301Y-17605582D02*
X9602825Y-17586534D01*
X9602825Y-17586534D02*
X9621872Y-17577010D01*
X9621872Y-17577010D02*
X9650444Y-17577010D01*
X9650444Y-17577010D02*
X9669491Y-17586534D01*
X9669491Y-17586534D02*
X9679015Y-17605582D01*
X9679015Y-17605582D02*
X9679015Y-17710344D01*
X10069491Y-17500820D02*
X9898063Y-17757963D01*
X10326634Y-17510344D02*
X10345682Y-17510344D01*
X10345682Y-17510344D02*
X10364729Y-17519868D01*
X10364729Y-17519868D02*
X10374253Y-17529391D01*
X10374253Y-17529391D02*
X10383777Y-17548439D01*
X10383777Y-17548439D02*
X10393301Y-17586534D01*
X10393301Y-17586534D02*
X10393301Y-17634153D01*
X10393301Y-17634153D02*
X10383777Y-17672249D01*
X10383777Y-17672249D02*
X10374253Y-17691296D01*
X10374253Y-17691296D02*
X10364729Y-17700820D01*
X10364729Y-17700820D02*
X10345682Y-17710344D01*
X10345682Y-17710344D02*
X10326634Y-17710344D01*
X10326634Y-17710344D02*
X10307587Y-17700820D01*
X10307587Y-17700820D02*
X10298063Y-17691296D01*
X10298063Y-17691296D02*
X10288539Y-17672249D01*
X10288539Y-17672249D02*
X10279015Y-17634153D01*
X10279015Y-17634153D02*
X10279015Y-17586534D01*
X10279015Y-17586534D02*
X10288539Y-17548439D01*
X10288539Y-17548439D02*
X10298063Y-17529391D01*
X10298063Y-17529391D02*
X10307587Y-17519868D01*
X10307587Y-17519868D02*
X10326634Y-17510344D01*
X10479015Y-17691296D02*
X10488539Y-17700820D01*
X10488539Y-17700820D02*
X10479015Y-17710344D01*
X10479015Y-17710344D02*
X10469491Y-17700820D01*
X10469491Y-17700820D02*
X10479015Y-17691296D01*
X10479015Y-17691296D02*
X10479015Y-17710344D01*
X10612348Y-17510344D02*
X10631396Y-17510344D01*
X10631396Y-17510344D02*
X10650444Y-17519868D01*
X10650444Y-17519868D02*
X10659968Y-17529391D01*
X10659968Y-17529391D02*
X10669491Y-17548439D01*
X10669491Y-17548439D02*
X10679015Y-17586534D01*
X10679015Y-17586534D02*
X10679015Y-17634153D01*
X10679015Y-17634153D02*
X10669491Y-17672249D01*
X10669491Y-17672249D02*
X10659968Y-17691296D01*
X10659968Y-17691296D02*
X10650444Y-17700820D01*
X10650444Y-17700820D02*
X10631396Y-17710344D01*
X10631396Y-17710344D02*
X10612348Y-17710344D01*
X10612348Y-17710344D02*
X10593301Y-17700820D01*
X10593301Y-17700820D02*
X10583777Y-17691296D01*
X10583777Y-17691296D02*
X10574253Y-17672249D01*
X10574253Y-17672249D02*
X10564729Y-17634153D01*
X10564729Y-17634153D02*
X10564729Y-17586534D01*
X10564729Y-17586534D02*
X10574253Y-17548439D01*
X10574253Y-17548439D02*
X10583777Y-17529391D01*
X10583777Y-17529391D02*
X10593301Y-17519868D01*
X10593301Y-17519868D02*
X10612348Y-17510344D01*
X10850444Y-17577010D02*
X10850444Y-17710344D01*
X10802825Y-17500820D02*
X10755206Y-17643677D01*
X10755206Y-17643677D02*
X10879015Y-17643677D01*
X10983777Y-17596058D02*
X10964729Y-17586534D01*
X10964729Y-17586534D02*
X10955206Y-17577010D01*
X10955206Y-17577010D02*
X10945682Y-17557963D01*
X10945682Y-17557963D02*
X10945682Y-17548439D01*
X10945682Y-17548439D02*
X10955206Y-17529391D01*
X10955206Y-17529391D02*
X10964729Y-17519868D01*
X10964729Y-17519868D02*
X10983777Y-17510344D01*
X10983777Y-17510344D02*
X11021872Y-17510344D01*
X11021872Y-17510344D02*
X11040920Y-17519868D01*
X11040920Y-17519868D02*
X11050444Y-17529391D01*
X11050444Y-17529391D02*
X11059968Y-17548439D01*
X11059968Y-17548439D02*
X11059968Y-17557963D01*
X11059968Y-17557963D02*
X11050444Y-17577010D01*
X11050444Y-17577010D02*
X11040920Y-17586534D01*
X11040920Y-17586534D02*
X11021872Y-17596058D01*
X11021872Y-17596058D02*
X10983777Y-17596058D01*
X10983777Y-17596058D02*
X10964729Y-17605582D01*
X10964729Y-17605582D02*
X10955206Y-17615106D01*
X10955206Y-17615106D02*
X10945682Y-17634153D01*
X10945682Y-17634153D02*
X10945682Y-17672249D01*
X10945682Y-17672249D02*
X10955206Y-17691296D01*
X10955206Y-17691296D02*
X10964729Y-17700820D01*
X10964729Y-17700820D02*
X10983777Y-17710344D01*
X10983777Y-17710344D02*
X11021872Y-17710344D01*
X11021872Y-17710344D02*
X11040920Y-17700820D01*
X11040920Y-17700820D02*
X11050444Y-17691296D01*
X11050444Y-17691296D02*
X11059968Y-17672249D01*
X11059968Y-17672249D02*
X11059968Y-17634153D01*
X11059968Y-17634153D02*
X11050444Y-17615106D01*
X11050444Y-17615106D02*
X11040920Y-17605582D01*
X11040920Y-17605582D02*
X11021872Y-17596058D01*
X11183777Y-17510344D02*
X11202825Y-17510344D01*
X11202825Y-17510344D02*
X11221872Y-17519868D01*
X11221872Y-17519868D02*
X11231396Y-17529391D01*
X11231396Y-17529391D02*
X11240920Y-17548439D01*
X11240920Y-17548439D02*
X11250444Y-17586534D01*
X11250444Y-17586534D02*
X11250444Y-17634153D01*
X11250444Y-17634153D02*
X11240920Y-17672249D01*
X11240920Y-17672249D02*
X11231396Y-17691296D01*
X11231396Y-17691296D02*
X11221872Y-17700820D01*
X11221872Y-17700820D02*
X11202825Y-17710344D01*
X11202825Y-17710344D02*
X11183777Y-17710344D01*
X11183777Y-17710344D02*
X11164729Y-17700820D01*
X11164729Y-17700820D02*
X11155206Y-17691296D01*
X11155206Y-17691296D02*
X11145682Y-17672249D01*
X11145682Y-17672249D02*
X11136158Y-17634153D01*
X11136158Y-17634153D02*
X11136158Y-17586534D01*
X11136158Y-17586534D02*
X11145682Y-17548439D01*
X11145682Y-17548439D02*
X11155206Y-17529391D01*
X11155206Y-17529391D02*
X11164729Y-17519868D01*
X11164729Y-17519868D02*
X11183777Y-17510344D01*
X11326634Y-17510344D02*
X11326634Y-17548439D01*
X11402825Y-17510344D02*
X11402825Y-17548439D01*
X11698063Y-17786534D02*
X11688539Y-17777010D01*
X11688539Y-17777010D02*
X11669491Y-17748439D01*
X11669491Y-17748439D02*
X11659968Y-17729391D01*
X11659968Y-17729391D02*
X11650444Y-17700820D01*
X11650444Y-17700820D02*
X11640920Y-17653201D01*
X11640920Y-17653201D02*
X11640920Y-17615106D01*
X11640920Y-17615106D02*
X11650444Y-17567487D01*
X11650444Y-17567487D02*
X11659968Y-17538915D01*
X11659968Y-17538915D02*
X11669491Y-17519868D01*
X11669491Y-17519868D02*
X11688539Y-17491296D01*
X11688539Y-17491296D02*
X11698063Y-17481772D01*
X11783777Y-17710344D02*
X11821872Y-17710344D01*
X11821872Y-17710344D02*
X11840920Y-17700820D01*
X11840920Y-17700820D02*
X11850444Y-17691296D01*
X11850444Y-17691296D02*
X11869491Y-17662725D01*
X11869491Y-17662725D02*
X11879015Y-17624630D01*
X11879015Y-17624630D02*
X11879015Y-17548439D01*
X11879015Y-17548439D02*
X11869491Y-17529391D01*
X11869491Y-17529391D02*
X11859968Y-17519868D01*
X11859968Y-17519868D02*
X11840920Y-17510344D01*
X11840920Y-17510344D02*
X11802825Y-17510344D01*
X11802825Y-17510344D02*
X11783777Y-17519868D01*
X11783777Y-17519868D02*
X11774253Y-17529391D01*
X11774253Y-17529391D02*
X11764729Y-17548439D01*
X11764729Y-17548439D02*
X11764729Y-17596058D01*
X11764729Y-17596058D02*
X11774253Y-17615106D01*
X11774253Y-17615106D02*
X11783777Y-17624630D01*
X11783777Y-17624630D02*
X11802825Y-17634153D01*
X11802825Y-17634153D02*
X11840920Y-17634153D01*
X11840920Y-17634153D02*
X11859968Y-17624630D01*
X11859968Y-17624630D02*
X11869491Y-17615106D01*
X11869491Y-17615106D02*
X11879015Y-17596058D01*
X12117110Y-17710344D02*
X12117110Y-17510344D01*
X12202825Y-17710344D02*
X12202825Y-17605582D01*
X12202825Y-17605582D02*
X12193301Y-17586534D01*
X12193301Y-17586534D02*
X12174253Y-17577010D01*
X12174253Y-17577010D02*
X12145682Y-17577010D01*
X12145682Y-17577010D02*
X12126634Y-17586534D01*
X12126634Y-17586534D02*
X12117110Y-17596058D01*
X12326634Y-17710344D02*
X12307587Y-17700820D01*
X12307587Y-17700820D02*
X12298063Y-17691296D01*
X12298063Y-17691296D02*
X12288539Y-17672249D01*
X12288539Y-17672249D02*
X12288539Y-17615106D01*
X12288539Y-17615106D02*
X12298063Y-17596058D01*
X12298063Y-17596058D02*
X12307587Y-17586534D01*
X12307587Y-17586534D02*
X12326634Y-17577010D01*
X12326634Y-17577010D02*
X12355206Y-17577010D01*
X12355206Y-17577010D02*
X12374253Y-17586534D01*
X12374253Y-17586534D02*
X12383777Y-17596058D01*
X12383777Y-17596058D02*
X12393301Y-17615106D01*
X12393301Y-17615106D02*
X12393301Y-17672249D01*
X12393301Y-17672249D02*
X12383777Y-17691296D01*
X12383777Y-17691296D02*
X12374253Y-17700820D01*
X12374253Y-17700820D02*
X12355206Y-17710344D01*
X12355206Y-17710344D02*
X12326634Y-17710344D01*
X12507587Y-17710344D02*
X12488539Y-17700820D01*
X12488539Y-17700820D02*
X12479015Y-17681772D01*
X12479015Y-17681772D02*
X12479015Y-17510344D01*
X12659968Y-17700820D02*
X12640920Y-17710344D01*
X12640920Y-17710344D02*
X12602825Y-17710344D01*
X12602825Y-17710344D02*
X12583777Y-17700820D01*
X12583777Y-17700820D02*
X12574253Y-17681772D01*
X12574253Y-17681772D02*
X12574253Y-17605582D01*
X12574253Y-17605582D02*
X12583777Y-17586534D01*
X12583777Y-17586534D02*
X12602825Y-17577010D01*
X12602825Y-17577010D02*
X12640920Y-17577010D01*
X12640920Y-17577010D02*
X12659968Y-17586534D01*
X12659968Y-17586534D02*
X12669491Y-17605582D01*
X12669491Y-17605582D02*
X12669491Y-17624630D01*
X12669491Y-17624630D02*
X12574253Y-17643677D01*
X12745682Y-17700820D02*
X12764730Y-17710344D01*
X12764730Y-17710344D02*
X12802825Y-17710344D01*
X12802825Y-17710344D02*
X12821872Y-17700820D01*
X12821872Y-17700820D02*
X12831396Y-17681772D01*
X12831396Y-17681772D02*
X12831396Y-17672249D01*
X12831396Y-17672249D02*
X12821872Y-17653201D01*
X12821872Y-17653201D02*
X12802825Y-17643677D01*
X12802825Y-17643677D02*
X12774253Y-17643677D01*
X12774253Y-17643677D02*
X12755206Y-17634153D01*
X12755206Y-17634153D02*
X12745682Y-17615106D01*
X12745682Y-17615106D02*
X12745682Y-17605582D01*
X12745682Y-17605582D02*
X12755206Y-17586534D01*
X12755206Y-17586534D02*
X12774253Y-17577010D01*
X12774253Y-17577010D02*
X12802825Y-17577010D01*
X12802825Y-17577010D02*
X12821872Y-17586534D01*
X12898063Y-17786534D02*
X12907587Y-17777010D01*
X12907587Y-17777010D02*
X12926634Y-17748439D01*
X12926634Y-17748439D02*
X12936158Y-17729391D01*
X12936158Y-17729391D02*
X12945682Y-17700820D01*
X12945682Y-17700820D02*
X12955206Y-17653201D01*
X12955206Y-17653201D02*
X12955206Y-17615106D01*
X12955206Y-17615106D02*
X12945682Y-17567487D01*
X12945682Y-17567487D02*
X12936158Y-17538915D01*
X12936158Y-17538915D02*
X12926634Y-17519868D01*
X12926634Y-17519868D02*
X12907587Y-17491296D01*
X12907587Y-17491296D02*
X12898063Y-17481772D01*
D14*
X7981000Y-17811860D02*
X8123000Y-17953860D01*
X8123000Y-17811860D02*
X7981000Y-17953860D01*
X8102205Y-17933065D02*
X8102205Y-17832655D01*
X8001795Y-17832655D01*
X8001795Y-17933065D01*
X8102205Y-17933065D01*
D11*
X8488539Y-17974344D02*
X8374253Y-17974344D01*
X8431396Y-17974344D02*
X8431396Y-17774344D01*
X8431396Y-17774344D02*
X8412348Y-17802915D01*
X8412348Y-17802915D02*
X8393301Y-17821963D01*
X8393301Y-17821963D02*
X8374253Y-17831487D01*
X8574253Y-17955296D02*
X8583777Y-17964820D01*
X8583777Y-17964820D02*
X8574253Y-17974344D01*
X8574253Y-17974344D02*
X8564729Y-17964820D01*
X8564729Y-17964820D02*
X8574253Y-17955296D01*
X8574253Y-17955296D02*
X8574253Y-17974344D01*
X8755205Y-17841010D02*
X8755205Y-17974344D01*
X8707586Y-17764820D02*
X8659967Y-17907677D01*
X8659967Y-17907677D02*
X8783777Y-17907677D01*
X8850444Y-17793391D02*
X8859967Y-17783868D01*
X8859967Y-17783868D02*
X8879015Y-17774344D01*
X8879015Y-17774344D02*
X8926634Y-17774344D01*
X8926634Y-17774344D02*
X8945682Y-17783868D01*
X8945682Y-17783868D02*
X8955205Y-17793391D01*
X8955205Y-17793391D02*
X8964729Y-17812439D01*
X8964729Y-17812439D02*
X8964729Y-17831487D01*
X8964729Y-17831487D02*
X8955205Y-17860058D01*
X8955205Y-17860058D02*
X8840920Y-17974344D01*
X8840920Y-17974344D02*
X8964729Y-17974344D01*
X9088539Y-17774344D02*
X9107586Y-17774344D01*
X9107586Y-17774344D02*
X9126634Y-17783868D01*
X9126634Y-17783868D02*
X9136158Y-17793391D01*
X9136158Y-17793391D02*
X9145682Y-17812439D01*
X9145682Y-17812439D02*
X9155205Y-17850534D01*
X9155205Y-17850534D02*
X9155205Y-17898153D01*
X9155205Y-17898153D02*
X9145682Y-17936249D01*
X9145682Y-17936249D02*
X9136158Y-17955296D01*
X9136158Y-17955296D02*
X9126634Y-17964820D01*
X9126634Y-17964820D02*
X9107586Y-17974344D01*
X9107586Y-17974344D02*
X9088539Y-17974344D01*
X9088539Y-17974344D02*
X9069491Y-17964820D01*
X9069491Y-17964820D02*
X9059967Y-17955296D01*
X9059967Y-17955296D02*
X9050444Y-17936249D01*
X9050444Y-17936249D02*
X9040920Y-17898153D01*
X9040920Y-17898153D02*
X9040920Y-17850534D01*
X9040920Y-17850534D02*
X9050444Y-17812439D01*
X9050444Y-17812439D02*
X9059967Y-17793391D01*
X9059967Y-17793391D02*
X9069491Y-17783868D01*
X9069491Y-17783868D02*
X9088539Y-17774344D01*
X9240920Y-17974344D02*
X9240920Y-17841010D01*
X9240920Y-17860058D02*
X9250444Y-17850534D01*
X9250444Y-17850534D02*
X9269491Y-17841010D01*
X9269491Y-17841010D02*
X9298063Y-17841010D01*
X9298063Y-17841010D02*
X9317110Y-17850534D01*
X9317110Y-17850534D02*
X9326634Y-17869582D01*
X9326634Y-17869582D02*
X9326634Y-17974344D01*
X9326634Y-17869582D02*
X9336158Y-17850534D01*
X9336158Y-17850534D02*
X9355205Y-17841010D01*
X9355205Y-17841010D02*
X9383777Y-17841010D01*
X9383777Y-17841010D02*
X9402825Y-17850534D01*
X9402825Y-17850534D02*
X9412348Y-17869582D01*
X9412348Y-17869582D02*
X9412348Y-17974344D01*
X9507586Y-17974344D02*
X9507586Y-17841010D01*
X9507586Y-17860058D02*
X9517110Y-17850534D01*
X9517110Y-17850534D02*
X9536158Y-17841010D01*
X9536158Y-17841010D02*
X9564729Y-17841010D01*
X9564729Y-17841010D02*
X9583777Y-17850534D01*
X9583777Y-17850534D02*
X9593301Y-17869582D01*
X9593301Y-17869582D02*
X9593301Y-17974344D01*
X9593301Y-17869582D02*
X9602825Y-17850534D01*
X9602825Y-17850534D02*
X9621872Y-17841010D01*
X9621872Y-17841010D02*
X9650444Y-17841010D01*
X9650444Y-17841010D02*
X9669491Y-17850534D01*
X9669491Y-17850534D02*
X9679015Y-17869582D01*
X9679015Y-17869582D02*
X9679015Y-17974344D01*
X10069491Y-17764820D02*
X9898063Y-18021963D01*
X10326634Y-17774344D02*
X10345682Y-17774344D01*
X10345682Y-17774344D02*
X10364729Y-17783868D01*
X10364729Y-17783868D02*
X10374253Y-17793391D01*
X10374253Y-17793391D02*
X10383777Y-17812439D01*
X10383777Y-17812439D02*
X10393301Y-17850534D01*
X10393301Y-17850534D02*
X10393301Y-17898153D01*
X10393301Y-17898153D02*
X10383777Y-17936249D01*
X10383777Y-17936249D02*
X10374253Y-17955296D01*
X10374253Y-17955296D02*
X10364729Y-17964820D01*
X10364729Y-17964820D02*
X10345682Y-17974344D01*
X10345682Y-17974344D02*
X10326634Y-17974344D01*
X10326634Y-17974344D02*
X10307587Y-17964820D01*
X10307587Y-17964820D02*
X10298063Y-17955296D01*
X10298063Y-17955296D02*
X10288539Y-17936249D01*
X10288539Y-17936249D02*
X10279015Y-17898153D01*
X10279015Y-17898153D02*
X10279015Y-17850534D01*
X10279015Y-17850534D02*
X10288539Y-17812439D01*
X10288539Y-17812439D02*
X10298063Y-17793391D01*
X10298063Y-17793391D02*
X10307587Y-17783868D01*
X10307587Y-17783868D02*
X10326634Y-17774344D01*
X10479015Y-17955296D02*
X10488539Y-17964820D01*
X10488539Y-17964820D02*
X10479015Y-17974344D01*
X10479015Y-17974344D02*
X10469491Y-17964820D01*
X10469491Y-17964820D02*
X10479015Y-17955296D01*
X10479015Y-17955296D02*
X10479015Y-17974344D01*
X10612348Y-17774344D02*
X10631396Y-17774344D01*
X10631396Y-17774344D02*
X10650444Y-17783868D01*
X10650444Y-17783868D02*
X10659968Y-17793391D01*
X10659968Y-17793391D02*
X10669491Y-17812439D01*
X10669491Y-17812439D02*
X10679015Y-17850534D01*
X10679015Y-17850534D02*
X10679015Y-17898153D01*
X10679015Y-17898153D02*
X10669491Y-17936249D01*
X10669491Y-17936249D02*
X10659968Y-17955296D01*
X10659968Y-17955296D02*
X10650444Y-17964820D01*
X10650444Y-17964820D02*
X10631396Y-17974344D01*
X10631396Y-17974344D02*
X10612348Y-17974344D01*
X10612348Y-17974344D02*
X10593301Y-17964820D01*
X10593301Y-17964820D02*
X10583777Y-17955296D01*
X10583777Y-17955296D02*
X10574253Y-17936249D01*
X10574253Y-17936249D02*
X10564729Y-17898153D01*
X10564729Y-17898153D02*
X10564729Y-17850534D01*
X10564729Y-17850534D02*
X10574253Y-17812439D01*
X10574253Y-17812439D02*
X10583777Y-17793391D01*
X10583777Y-17793391D02*
X10593301Y-17783868D01*
X10593301Y-17783868D02*
X10612348Y-17774344D01*
X10859968Y-17774344D02*
X10764729Y-17774344D01*
X10764729Y-17774344D02*
X10755206Y-17869582D01*
X10755206Y-17869582D02*
X10764729Y-17860058D01*
X10764729Y-17860058D02*
X10783777Y-17850534D01*
X10783777Y-17850534D02*
X10831396Y-17850534D01*
X10831396Y-17850534D02*
X10850444Y-17860058D01*
X10850444Y-17860058D02*
X10859968Y-17869582D01*
X10859968Y-17869582D02*
X10869491Y-17888630D01*
X10869491Y-17888630D02*
X10869491Y-17936249D01*
X10869491Y-17936249D02*
X10859968Y-17955296D01*
X10859968Y-17955296D02*
X10850444Y-17964820D01*
X10850444Y-17964820D02*
X10831396Y-17974344D01*
X10831396Y-17974344D02*
X10783777Y-17974344D01*
X10783777Y-17974344D02*
X10764729Y-17964820D01*
X10764729Y-17964820D02*
X10755206Y-17955296D01*
X11050444Y-17774344D02*
X10955206Y-17774344D01*
X10955206Y-17774344D02*
X10945682Y-17869582D01*
X10945682Y-17869582D02*
X10955206Y-17860058D01*
X10955206Y-17860058D02*
X10974253Y-17850534D01*
X10974253Y-17850534D02*
X11021872Y-17850534D01*
X11021872Y-17850534D02*
X11040920Y-17860058D01*
X11040920Y-17860058D02*
X11050444Y-17869582D01*
X11050444Y-17869582D02*
X11059968Y-17888630D01*
X11059968Y-17888630D02*
X11059968Y-17936249D01*
X11059968Y-17936249D02*
X11050444Y-17955296D01*
X11050444Y-17955296D02*
X11040920Y-17964820D01*
X11040920Y-17964820D02*
X11021872Y-17974344D01*
X11021872Y-17974344D02*
X10974253Y-17974344D01*
X10974253Y-17974344D02*
X10955206Y-17964820D01*
X10955206Y-17964820D02*
X10945682Y-17955296D01*
X11155206Y-17974344D02*
X11193301Y-17974344D01*
X11193301Y-17974344D02*
X11212348Y-17964820D01*
X11212348Y-17964820D02*
X11221872Y-17955296D01*
X11221872Y-17955296D02*
X11240920Y-17926725D01*
X11240920Y-17926725D02*
X11250444Y-17888630D01*
X11250444Y-17888630D02*
X11250444Y-17812439D01*
X11250444Y-17812439D02*
X11240920Y-17793391D01*
X11240920Y-17793391D02*
X11231396Y-17783868D01*
X11231396Y-17783868D02*
X11212348Y-17774344D01*
X11212348Y-17774344D02*
X11174253Y-17774344D01*
X11174253Y-17774344D02*
X11155206Y-17783868D01*
X11155206Y-17783868D02*
X11145682Y-17793391D01*
X11145682Y-17793391D02*
X11136158Y-17812439D01*
X11136158Y-17812439D02*
X11136158Y-17860058D01*
X11136158Y-17860058D02*
X11145682Y-17879106D01*
X11145682Y-17879106D02*
X11155206Y-17888630D01*
X11155206Y-17888630D02*
X11174253Y-17898153D01*
X11174253Y-17898153D02*
X11212348Y-17898153D01*
X11212348Y-17898153D02*
X11231396Y-17888630D01*
X11231396Y-17888630D02*
X11240920Y-17879106D01*
X11240920Y-17879106D02*
X11250444Y-17860058D01*
X11326634Y-17774344D02*
X11326634Y-17812439D01*
X11402825Y-17774344D02*
X11402825Y-17812439D01*
X11698063Y-18050534D02*
X11688539Y-18041010D01*
X11688539Y-18041010D02*
X11669491Y-18012439D01*
X11669491Y-18012439D02*
X11659968Y-17993391D01*
X11659968Y-17993391D02*
X11650444Y-17964820D01*
X11650444Y-17964820D02*
X11640920Y-17917201D01*
X11640920Y-17917201D02*
X11640920Y-17879106D01*
X11640920Y-17879106D02*
X11650444Y-17831487D01*
X11650444Y-17831487D02*
X11659968Y-17802915D01*
X11659968Y-17802915D02*
X11669491Y-17783868D01*
X11669491Y-17783868D02*
X11688539Y-17755296D01*
X11688539Y-17755296D02*
X11698063Y-17745772D01*
X11783777Y-17974344D02*
X11821872Y-17974344D01*
X11821872Y-17974344D02*
X11840920Y-17964820D01*
X11840920Y-17964820D02*
X11850444Y-17955296D01*
X11850444Y-17955296D02*
X11869491Y-17926725D01*
X11869491Y-17926725D02*
X11879015Y-17888630D01*
X11879015Y-17888630D02*
X11879015Y-17812439D01*
X11879015Y-17812439D02*
X11869491Y-17793391D01*
X11869491Y-17793391D02*
X11859968Y-17783868D01*
X11859968Y-17783868D02*
X11840920Y-17774344D01*
X11840920Y-17774344D02*
X11802825Y-17774344D01*
X11802825Y-17774344D02*
X11783777Y-17783868D01*
X11783777Y-17783868D02*
X11774253Y-17793391D01*
X11774253Y-17793391D02*
X11764729Y-17812439D01*
X11764729Y-17812439D02*
X11764729Y-17860058D01*
X11764729Y-17860058D02*
X11774253Y-17879106D01*
X11774253Y-17879106D02*
X11783777Y-17888630D01*
X11783777Y-17888630D02*
X11802825Y-17898153D01*
X11802825Y-17898153D02*
X11840920Y-17898153D01*
X11840920Y-17898153D02*
X11859968Y-17888630D01*
X11859968Y-17888630D02*
X11869491Y-17879106D01*
X11869491Y-17879106D02*
X11879015Y-17860058D01*
X12117110Y-17974344D02*
X12117110Y-17774344D01*
X12202825Y-17974344D02*
X12202825Y-17869582D01*
X12202825Y-17869582D02*
X12193301Y-17850534D01*
X12193301Y-17850534D02*
X12174253Y-17841010D01*
X12174253Y-17841010D02*
X12145682Y-17841010D01*
X12145682Y-17841010D02*
X12126634Y-17850534D01*
X12126634Y-17850534D02*
X12117110Y-17860058D01*
X12326634Y-17974344D02*
X12307587Y-17964820D01*
X12307587Y-17964820D02*
X12298063Y-17955296D01*
X12298063Y-17955296D02*
X12288539Y-17936249D01*
X12288539Y-17936249D02*
X12288539Y-17879106D01*
X12288539Y-17879106D02*
X12298063Y-17860058D01*
X12298063Y-17860058D02*
X12307587Y-17850534D01*
X12307587Y-17850534D02*
X12326634Y-17841010D01*
X12326634Y-17841010D02*
X12355206Y-17841010D01*
X12355206Y-17841010D02*
X12374253Y-17850534D01*
X12374253Y-17850534D02*
X12383777Y-17860058D01*
X12383777Y-17860058D02*
X12393301Y-17879106D01*
X12393301Y-17879106D02*
X12393301Y-17936249D01*
X12393301Y-17936249D02*
X12383777Y-17955296D01*
X12383777Y-17955296D02*
X12374253Y-17964820D01*
X12374253Y-17964820D02*
X12355206Y-17974344D01*
X12355206Y-17974344D02*
X12326634Y-17974344D01*
X12507587Y-17974344D02*
X12488539Y-17964820D01*
X12488539Y-17964820D02*
X12479015Y-17945772D01*
X12479015Y-17945772D02*
X12479015Y-17774344D01*
X12659968Y-17964820D02*
X12640920Y-17974344D01*
X12640920Y-17974344D02*
X12602825Y-17974344D01*
X12602825Y-17974344D02*
X12583777Y-17964820D01*
X12583777Y-17964820D02*
X12574253Y-17945772D01*
X12574253Y-17945772D02*
X12574253Y-17869582D01*
X12574253Y-17869582D02*
X12583777Y-17850534D01*
X12583777Y-17850534D02*
X12602825Y-17841010D01*
X12602825Y-17841010D02*
X12640920Y-17841010D01*
X12640920Y-17841010D02*
X12659968Y-17850534D01*
X12659968Y-17850534D02*
X12669491Y-17869582D01*
X12669491Y-17869582D02*
X12669491Y-17888630D01*
X12669491Y-17888630D02*
X12574253Y-17907677D01*
X12745682Y-17964820D02*
X12764730Y-17974344D01*
X12764730Y-17974344D02*
X12802825Y-17974344D01*
X12802825Y-17974344D02*
X12821872Y-17964820D01*
X12821872Y-17964820D02*
X12831396Y-17945772D01*
X12831396Y-17945772D02*
X12831396Y-17936249D01*
X12831396Y-17936249D02*
X12821872Y-17917201D01*
X12821872Y-17917201D02*
X12802825Y-17907677D01*
X12802825Y-17907677D02*
X12774253Y-17907677D01*
X12774253Y-17907677D02*
X12755206Y-17898153D01*
X12755206Y-17898153D02*
X12745682Y-17879106D01*
X12745682Y-17879106D02*
X12745682Y-17869582D01*
X12745682Y-17869582D02*
X12755206Y-17850534D01*
X12755206Y-17850534D02*
X12774253Y-17841010D01*
X12774253Y-17841010D02*
X12802825Y-17841010D01*
X12802825Y-17841010D02*
X12821872Y-17850534D01*
X12898063Y-18050534D02*
X12907587Y-18041010D01*
X12907587Y-18041010D02*
X12926634Y-18012439D01*
X12926634Y-18012439D02*
X12936158Y-17993391D01*
X12936158Y-17993391D02*
X12945682Y-17964820D01*
X12945682Y-17964820D02*
X12955206Y-17917201D01*
X12955206Y-17917201D02*
X12955206Y-17879106D01*
X12955206Y-17879106D02*
X12945682Y-17831487D01*
X12945682Y-17831487D02*
X12936158Y-17802915D01*
X12936158Y-17802915D02*
X12926634Y-17783868D01*
X12926634Y-17783868D02*
X12907587Y-17755296D01*
X12907587Y-17755296D02*
X12898063Y-17745772D01*
D15*
X7980000Y-18075360D02*
X8123000Y-18218360D01*
X8123000Y-18075360D02*
X7980000Y-18218360D01*
X8051500Y-18218360D02*
X8123000Y-18146860D01*
X8051500Y-18075360D01*
X7980000Y-18146860D01*
X8051500Y-18218360D01*
D11*
X8488539Y-18238344D02*
X8374253Y-18238344D01*
X8431396Y-18238344D02*
X8431396Y-18038344D01*
X8431396Y-18038344D02*
X8412348Y-18066915D01*
X8412348Y-18066915D02*
X8393301Y-18085963D01*
X8393301Y-18085963D02*
X8374253Y-18095487D01*
X8574253Y-18219296D02*
X8583777Y-18228820D01*
X8583777Y-18228820D02*
X8574253Y-18238344D01*
X8574253Y-18238344D02*
X8564729Y-18228820D01*
X8564729Y-18228820D02*
X8574253Y-18219296D01*
X8574253Y-18219296D02*
X8574253Y-18238344D01*
X8755205Y-18105010D02*
X8755205Y-18238344D01*
X8707586Y-18028820D02*
X8659967Y-18171677D01*
X8659967Y-18171677D02*
X8783777Y-18171677D01*
X8840920Y-18038344D02*
X8964729Y-18038344D01*
X8964729Y-18038344D02*
X8898063Y-18114534D01*
X8898063Y-18114534D02*
X8926634Y-18114534D01*
X8926634Y-18114534D02*
X8945682Y-18124058D01*
X8945682Y-18124058D02*
X8955205Y-18133582D01*
X8955205Y-18133582D02*
X8964729Y-18152630D01*
X8964729Y-18152630D02*
X8964729Y-18200249D01*
X8964729Y-18200249D02*
X8955205Y-18219296D01*
X8955205Y-18219296D02*
X8945682Y-18228820D01*
X8945682Y-18228820D02*
X8926634Y-18238344D01*
X8926634Y-18238344D02*
X8869491Y-18238344D01*
X8869491Y-18238344D02*
X8850444Y-18228820D01*
X8850444Y-18228820D02*
X8840920Y-18219296D01*
X9088539Y-18038344D02*
X9107586Y-18038344D01*
X9107586Y-18038344D02*
X9126634Y-18047868D01*
X9126634Y-18047868D02*
X9136158Y-18057391D01*
X9136158Y-18057391D02*
X9145682Y-18076439D01*
X9145682Y-18076439D02*
X9155205Y-18114534D01*
X9155205Y-18114534D02*
X9155205Y-18162153D01*
X9155205Y-18162153D02*
X9145682Y-18200249D01*
X9145682Y-18200249D02*
X9136158Y-18219296D01*
X9136158Y-18219296D02*
X9126634Y-18228820D01*
X9126634Y-18228820D02*
X9107586Y-18238344D01*
X9107586Y-18238344D02*
X9088539Y-18238344D01*
X9088539Y-18238344D02*
X9069491Y-18228820D01*
X9069491Y-18228820D02*
X9059967Y-18219296D01*
X9059967Y-18219296D02*
X9050444Y-18200249D01*
X9050444Y-18200249D02*
X9040920Y-18162153D01*
X9040920Y-18162153D02*
X9040920Y-18114534D01*
X9040920Y-18114534D02*
X9050444Y-18076439D01*
X9050444Y-18076439D02*
X9059967Y-18057391D01*
X9059967Y-18057391D02*
X9069491Y-18047868D01*
X9069491Y-18047868D02*
X9088539Y-18038344D01*
X9240920Y-18238344D02*
X9240920Y-18105010D01*
X9240920Y-18124058D02*
X9250444Y-18114534D01*
X9250444Y-18114534D02*
X9269491Y-18105010D01*
X9269491Y-18105010D02*
X9298063Y-18105010D01*
X9298063Y-18105010D02*
X9317110Y-18114534D01*
X9317110Y-18114534D02*
X9326634Y-18133582D01*
X9326634Y-18133582D02*
X9326634Y-18238344D01*
X9326634Y-18133582D02*
X9336158Y-18114534D01*
X9336158Y-18114534D02*
X9355205Y-18105010D01*
X9355205Y-18105010D02*
X9383777Y-18105010D01*
X9383777Y-18105010D02*
X9402825Y-18114534D01*
X9402825Y-18114534D02*
X9412348Y-18133582D01*
X9412348Y-18133582D02*
X9412348Y-18238344D01*
X9507586Y-18238344D02*
X9507586Y-18105010D01*
X9507586Y-18124058D02*
X9517110Y-18114534D01*
X9517110Y-18114534D02*
X9536158Y-18105010D01*
X9536158Y-18105010D02*
X9564729Y-18105010D01*
X9564729Y-18105010D02*
X9583777Y-18114534D01*
X9583777Y-18114534D02*
X9593301Y-18133582D01*
X9593301Y-18133582D02*
X9593301Y-18238344D01*
X9593301Y-18133582D02*
X9602825Y-18114534D01*
X9602825Y-18114534D02*
X9621872Y-18105010D01*
X9621872Y-18105010D02*
X9650444Y-18105010D01*
X9650444Y-18105010D02*
X9669491Y-18114534D01*
X9669491Y-18114534D02*
X9679015Y-18133582D01*
X9679015Y-18133582D02*
X9679015Y-18238344D01*
X10069491Y-18028820D02*
X9898063Y-18285963D01*
X10326634Y-18038344D02*
X10345682Y-18038344D01*
X10345682Y-18038344D02*
X10364729Y-18047868D01*
X10364729Y-18047868D02*
X10374253Y-18057391D01*
X10374253Y-18057391D02*
X10383777Y-18076439D01*
X10383777Y-18076439D02*
X10393301Y-18114534D01*
X10393301Y-18114534D02*
X10393301Y-18162153D01*
X10393301Y-18162153D02*
X10383777Y-18200249D01*
X10383777Y-18200249D02*
X10374253Y-18219296D01*
X10374253Y-18219296D02*
X10364729Y-18228820D01*
X10364729Y-18228820D02*
X10345682Y-18238344D01*
X10345682Y-18238344D02*
X10326634Y-18238344D01*
X10326634Y-18238344D02*
X10307587Y-18228820D01*
X10307587Y-18228820D02*
X10298063Y-18219296D01*
X10298063Y-18219296D02*
X10288539Y-18200249D01*
X10288539Y-18200249D02*
X10279015Y-18162153D01*
X10279015Y-18162153D02*
X10279015Y-18114534D01*
X10279015Y-18114534D02*
X10288539Y-18076439D01*
X10288539Y-18076439D02*
X10298063Y-18057391D01*
X10298063Y-18057391D02*
X10307587Y-18047868D01*
X10307587Y-18047868D02*
X10326634Y-18038344D01*
X10479015Y-18219296D02*
X10488539Y-18228820D01*
X10488539Y-18228820D02*
X10479015Y-18238344D01*
X10479015Y-18238344D02*
X10469491Y-18228820D01*
X10469491Y-18228820D02*
X10479015Y-18219296D01*
X10479015Y-18219296D02*
X10479015Y-18238344D01*
X10612348Y-18038344D02*
X10631396Y-18038344D01*
X10631396Y-18038344D02*
X10650444Y-18047868D01*
X10650444Y-18047868D02*
X10659968Y-18057391D01*
X10659968Y-18057391D02*
X10669491Y-18076439D01*
X10669491Y-18076439D02*
X10679015Y-18114534D01*
X10679015Y-18114534D02*
X10679015Y-18162153D01*
X10679015Y-18162153D02*
X10669491Y-18200249D01*
X10669491Y-18200249D02*
X10659968Y-18219296D01*
X10659968Y-18219296D02*
X10650444Y-18228820D01*
X10650444Y-18228820D02*
X10631396Y-18238344D01*
X10631396Y-18238344D02*
X10612348Y-18238344D01*
X10612348Y-18238344D02*
X10593301Y-18228820D01*
X10593301Y-18228820D02*
X10583777Y-18219296D01*
X10583777Y-18219296D02*
X10574253Y-18200249D01*
X10574253Y-18200249D02*
X10564729Y-18162153D01*
X10564729Y-18162153D02*
X10564729Y-18114534D01*
X10564729Y-18114534D02*
X10574253Y-18076439D01*
X10574253Y-18076439D02*
X10583777Y-18057391D01*
X10583777Y-18057391D02*
X10593301Y-18047868D01*
X10593301Y-18047868D02*
X10612348Y-18038344D01*
X10859968Y-18038344D02*
X10764729Y-18038344D01*
X10764729Y-18038344D02*
X10755206Y-18133582D01*
X10755206Y-18133582D02*
X10764729Y-18124058D01*
X10764729Y-18124058D02*
X10783777Y-18114534D01*
X10783777Y-18114534D02*
X10831396Y-18114534D01*
X10831396Y-18114534D02*
X10850444Y-18124058D01*
X10850444Y-18124058D02*
X10859968Y-18133582D01*
X10859968Y-18133582D02*
X10869491Y-18152630D01*
X10869491Y-18152630D02*
X10869491Y-18200249D01*
X10869491Y-18200249D02*
X10859968Y-18219296D01*
X10859968Y-18219296D02*
X10850444Y-18228820D01*
X10850444Y-18228820D02*
X10831396Y-18238344D01*
X10831396Y-18238344D02*
X10783777Y-18238344D01*
X10783777Y-18238344D02*
X10764729Y-18228820D01*
X10764729Y-18228820D02*
X10755206Y-18219296D01*
X11040920Y-18038344D02*
X11002825Y-18038344D01*
X11002825Y-18038344D02*
X10983777Y-18047868D01*
X10983777Y-18047868D02*
X10974253Y-18057391D01*
X10974253Y-18057391D02*
X10955206Y-18085963D01*
X10955206Y-18085963D02*
X10945682Y-18124058D01*
X10945682Y-18124058D02*
X10945682Y-18200249D01*
X10945682Y-18200249D02*
X10955206Y-18219296D01*
X10955206Y-18219296D02*
X10964729Y-18228820D01*
X10964729Y-18228820D02*
X10983777Y-18238344D01*
X10983777Y-18238344D02*
X11021872Y-18238344D01*
X11021872Y-18238344D02*
X11040920Y-18228820D01*
X11040920Y-18228820D02*
X11050444Y-18219296D01*
X11050444Y-18219296D02*
X11059968Y-18200249D01*
X11059968Y-18200249D02*
X11059968Y-18152630D01*
X11059968Y-18152630D02*
X11050444Y-18133582D01*
X11050444Y-18133582D02*
X11040920Y-18124058D01*
X11040920Y-18124058D02*
X11021872Y-18114534D01*
X11021872Y-18114534D02*
X10983777Y-18114534D01*
X10983777Y-18114534D02*
X10964729Y-18124058D01*
X10964729Y-18124058D02*
X10955206Y-18133582D01*
X10955206Y-18133582D02*
X10945682Y-18152630D01*
X11126634Y-18038344D02*
X11250444Y-18038344D01*
X11250444Y-18038344D02*
X11183777Y-18114534D01*
X11183777Y-18114534D02*
X11212348Y-18114534D01*
X11212348Y-18114534D02*
X11231396Y-18124058D01*
X11231396Y-18124058D02*
X11240920Y-18133582D01*
X11240920Y-18133582D02*
X11250444Y-18152630D01*
X11250444Y-18152630D02*
X11250444Y-18200249D01*
X11250444Y-18200249D02*
X11240920Y-18219296D01*
X11240920Y-18219296D02*
X11231396Y-18228820D01*
X11231396Y-18228820D02*
X11212348Y-18238344D01*
X11212348Y-18238344D02*
X11155206Y-18238344D01*
X11155206Y-18238344D02*
X11136158Y-18228820D01*
X11136158Y-18228820D02*
X11126634Y-18219296D01*
X11326634Y-18038344D02*
X11326634Y-18076439D01*
X11402825Y-18038344D02*
X11402825Y-18076439D01*
X11698063Y-18314534D02*
X11688539Y-18305010D01*
X11688539Y-18305010D02*
X11669491Y-18276439D01*
X11669491Y-18276439D02*
X11659968Y-18257391D01*
X11659968Y-18257391D02*
X11650444Y-18228820D01*
X11650444Y-18228820D02*
X11640920Y-18181201D01*
X11640920Y-18181201D02*
X11640920Y-18143106D01*
X11640920Y-18143106D02*
X11650444Y-18095487D01*
X11650444Y-18095487D02*
X11659968Y-18066915D01*
X11659968Y-18066915D02*
X11669491Y-18047868D01*
X11669491Y-18047868D02*
X11688539Y-18019296D01*
X11688539Y-18019296D02*
X11698063Y-18009772D01*
X11783777Y-18238344D02*
X11821872Y-18238344D01*
X11821872Y-18238344D02*
X11840920Y-18228820D01*
X11840920Y-18228820D02*
X11850444Y-18219296D01*
X11850444Y-18219296D02*
X11869491Y-18190725D01*
X11869491Y-18190725D02*
X11879015Y-18152630D01*
X11879015Y-18152630D02*
X11879015Y-18076439D01*
X11879015Y-18076439D02*
X11869491Y-18057391D01*
X11869491Y-18057391D02*
X11859968Y-18047868D01*
X11859968Y-18047868D02*
X11840920Y-18038344D01*
X11840920Y-18038344D02*
X11802825Y-18038344D01*
X11802825Y-18038344D02*
X11783777Y-18047868D01*
X11783777Y-18047868D02*
X11774253Y-18057391D01*
X11774253Y-18057391D02*
X11764729Y-18076439D01*
X11764729Y-18076439D02*
X11764729Y-18124058D01*
X11764729Y-18124058D02*
X11774253Y-18143106D01*
X11774253Y-18143106D02*
X11783777Y-18152630D01*
X11783777Y-18152630D02*
X11802825Y-18162153D01*
X11802825Y-18162153D02*
X11840920Y-18162153D01*
X11840920Y-18162153D02*
X11859968Y-18152630D01*
X11859968Y-18152630D02*
X11869491Y-18143106D01*
X11869491Y-18143106D02*
X11879015Y-18124058D01*
X12117110Y-18238344D02*
X12117110Y-18038344D01*
X12202825Y-18238344D02*
X12202825Y-18133582D01*
X12202825Y-18133582D02*
X12193301Y-18114534D01*
X12193301Y-18114534D02*
X12174253Y-18105010D01*
X12174253Y-18105010D02*
X12145682Y-18105010D01*
X12145682Y-18105010D02*
X12126634Y-18114534D01*
X12126634Y-18114534D02*
X12117110Y-18124058D01*
X12326634Y-18238344D02*
X12307587Y-18228820D01*
X12307587Y-18228820D02*
X12298063Y-18219296D01*
X12298063Y-18219296D02*
X12288539Y-18200249D01*
X12288539Y-18200249D02*
X12288539Y-18143106D01*
X12288539Y-18143106D02*
X12298063Y-18124058D01*
X12298063Y-18124058D02*
X12307587Y-18114534D01*
X12307587Y-18114534D02*
X12326634Y-18105010D01*
X12326634Y-18105010D02*
X12355206Y-18105010D01*
X12355206Y-18105010D02*
X12374253Y-18114534D01*
X12374253Y-18114534D02*
X12383777Y-18124058D01*
X12383777Y-18124058D02*
X12393301Y-18143106D01*
X12393301Y-18143106D02*
X12393301Y-18200249D01*
X12393301Y-18200249D02*
X12383777Y-18219296D01*
X12383777Y-18219296D02*
X12374253Y-18228820D01*
X12374253Y-18228820D02*
X12355206Y-18238344D01*
X12355206Y-18238344D02*
X12326634Y-18238344D01*
X12507587Y-18238344D02*
X12488539Y-18228820D01*
X12488539Y-18228820D02*
X12479015Y-18209772D01*
X12479015Y-18209772D02*
X12479015Y-18038344D01*
X12659968Y-18228820D02*
X12640920Y-18238344D01*
X12640920Y-18238344D02*
X12602825Y-18238344D01*
X12602825Y-18238344D02*
X12583777Y-18228820D01*
X12583777Y-18228820D02*
X12574253Y-18209772D01*
X12574253Y-18209772D02*
X12574253Y-18133582D01*
X12574253Y-18133582D02*
X12583777Y-18114534D01*
X12583777Y-18114534D02*
X12602825Y-18105010D01*
X12602825Y-18105010D02*
X12640920Y-18105010D01*
X12640920Y-18105010D02*
X12659968Y-18114534D01*
X12659968Y-18114534D02*
X12669491Y-18133582D01*
X12669491Y-18133582D02*
X12669491Y-18152630D01*
X12669491Y-18152630D02*
X12574253Y-18171677D01*
X12745682Y-18228820D02*
X12764730Y-18238344D01*
X12764730Y-18238344D02*
X12802825Y-18238344D01*
X12802825Y-18238344D02*
X12821872Y-18228820D01*
X12821872Y-18228820D02*
X12831396Y-18209772D01*
X12831396Y-18209772D02*
X12831396Y-18200249D01*
X12831396Y-18200249D02*
X12821872Y-18181201D01*
X12821872Y-18181201D02*
X12802825Y-18171677D01*
X12802825Y-18171677D02*
X12774253Y-18171677D01*
X12774253Y-18171677D02*
X12755206Y-18162153D01*
X12755206Y-18162153D02*
X12745682Y-18143106D01*
X12745682Y-18143106D02*
X12745682Y-18133582D01*
X12745682Y-18133582D02*
X12755206Y-18114534D01*
X12755206Y-18114534D02*
X12774253Y-18105010D01*
X12774253Y-18105010D02*
X12802825Y-18105010D01*
X12802825Y-18105010D02*
X12821872Y-18114534D01*
X12898063Y-18314534D02*
X12907587Y-18305010D01*
X12907587Y-18305010D02*
X12926634Y-18276439D01*
X12926634Y-18276439D02*
X12936158Y-18257391D01*
X12936158Y-18257391D02*
X12945682Y-18228820D01*
X12945682Y-18228820D02*
X12955206Y-18181201D01*
X12955206Y-18181201D02*
X12955206Y-18143106D01*
X12955206Y-18143106D02*
X12945682Y-18095487D01*
X12945682Y-18095487D02*
X12936158Y-18066915D01*
X12936158Y-18066915D02*
X12926634Y-18047868D01*
X12926634Y-18047868D02*
X12907587Y-18019296D01*
X12907587Y-18019296D02*
X12898063Y-18009772D01*
D16*
X8048000Y-18335860D02*
X8048000Y-18485860D01*
X7973000Y-18410860D02*
X8123000Y-18410860D01*
X8123000Y-18410860D02*
G75*
G03*
X8123000Y-18410860I-75000J0D01*
G01*
D11*
X8488539Y-18502344D02*
X8374253Y-18502344D01*
X8431396Y-18502344D02*
X8431396Y-18302344D01*
X8431396Y-18302344D02*
X8412348Y-18330915D01*
X8412348Y-18330915D02*
X8393301Y-18349963D01*
X8393301Y-18349963D02*
X8374253Y-18359487D01*
X8574253Y-18483296D02*
X8583777Y-18492820D01*
X8583777Y-18492820D02*
X8574253Y-18502344D01*
X8574253Y-18502344D02*
X8564729Y-18492820D01*
X8564729Y-18492820D02*
X8574253Y-18483296D01*
X8574253Y-18483296D02*
X8574253Y-18502344D01*
X8764729Y-18302344D02*
X8669491Y-18302344D01*
X8669491Y-18302344D02*
X8659967Y-18397582D01*
X8659967Y-18397582D02*
X8669491Y-18388058D01*
X8669491Y-18388058D02*
X8688539Y-18378534D01*
X8688539Y-18378534D02*
X8736158Y-18378534D01*
X8736158Y-18378534D02*
X8755205Y-18388058D01*
X8755205Y-18388058D02*
X8764729Y-18397582D01*
X8764729Y-18397582D02*
X8774253Y-18416630D01*
X8774253Y-18416630D02*
X8774253Y-18464249D01*
X8774253Y-18464249D02*
X8764729Y-18483296D01*
X8764729Y-18483296D02*
X8755205Y-18492820D01*
X8755205Y-18492820D02*
X8736158Y-18502344D01*
X8736158Y-18502344D02*
X8688539Y-18502344D01*
X8688539Y-18502344D02*
X8669491Y-18492820D01*
X8669491Y-18492820D02*
X8659967Y-18483296D01*
X8898063Y-18302344D02*
X8917110Y-18302344D01*
X8917110Y-18302344D02*
X8936158Y-18311868D01*
X8936158Y-18311868D02*
X8945682Y-18321391D01*
X8945682Y-18321391D02*
X8955205Y-18340439D01*
X8955205Y-18340439D02*
X8964729Y-18378534D01*
X8964729Y-18378534D02*
X8964729Y-18426153D01*
X8964729Y-18426153D02*
X8955205Y-18464249D01*
X8955205Y-18464249D02*
X8945682Y-18483296D01*
X8945682Y-18483296D02*
X8936158Y-18492820D01*
X8936158Y-18492820D02*
X8917110Y-18502344D01*
X8917110Y-18502344D02*
X8898063Y-18502344D01*
X8898063Y-18502344D02*
X8879015Y-18492820D01*
X8879015Y-18492820D02*
X8869491Y-18483296D01*
X8869491Y-18483296D02*
X8859967Y-18464249D01*
X8859967Y-18464249D02*
X8850444Y-18426153D01*
X8850444Y-18426153D02*
X8850444Y-18378534D01*
X8850444Y-18378534D02*
X8859967Y-18340439D01*
X8859967Y-18340439D02*
X8869491Y-18321391D01*
X8869491Y-18321391D02*
X8879015Y-18311868D01*
X8879015Y-18311868D02*
X8898063Y-18302344D01*
X9088539Y-18302344D02*
X9107586Y-18302344D01*
X9107586Y-18302344D02*
X9126634Y-18311868D01*
X9126634Y-18311868D02*
X9136158Y-18321391D01*
X9136158Y-18321391D02*
X9145682Y-18340439D01*
X9145682Y-18340439D02*
X9155205Y-18378534D01*
X9155205Y-18378534D02*
X9155205Y-18426153D01*
X9155205Y-18426153D02*
X9145682Y-18464249D01*
X9145682Y-18464249D02*
X9136158Y-18483296D01*
X9136158Y-18483296D02*
X9126634Y-18492820D01*
X9126634Y-18492820D02*
X9107586Y-18502344D01*
X9107586Y-18502344D02*
X9088539Y-18502344D01*
X9088539Y-18502344D02*
X9069491Y-18492820D01*
X9069491Y-18492820D02*
X9059967Y-18483296D01*
X9059967Y-18483296D02*
X9050444Y-18464249D01*
X9050444Y-18464249D02*
X9040920Y-18426153D01*
X9040920Y-18426153D02*
X9040920Y-18378534D01*
X9040920Y-18378534D02*
X9050444Y-18340439D01*
X9050444Y-18340439D02*
X9059967Y-18321391D01*
X9059967Y-18321391D02*
X9069491Y-18311868D01*
X9069491Y-18311868D02*
X9088539Y-18302344D01*
X9240920Y-18502344D02*
X9240920Y-18369010D01*
X9240920Y-18388058D02*
X9250444Y-18378534D01*
X9250444Y-18378534D02*
X9269491Y-18369010D01*
X9269491Y-18369010D02*
X9298063Y-18369010D01*
X9298063Y-18369010D02*
X9317110Y-18378534D01*
X9317110Y-18378534D02*
X9326634Y-18397582D01*
X9326634Y-18397582D02*
X9326634Y-18502344D01*
X9326634Y-18397582D02*
X9336158Y-18378534D01*
X9336158Y-18378534D02*
X9355205Y-18369010D01*
X9355205Y-18369010D02*
X9383777Y-18369010D01*
X9383777Y-18369010D02*
X9402825Y-18378534D01*
X9402825Y-18378534D02*
X9412348Y-18397582D01*
X9412348Y-18397582D02*
X9412348Y-18502344D01*
X9507586Y-18502344D02*
X9507586Y-18369010D01*
X9507586Y-18388058D02*
X9517110Y-18378534D01*
X9517110Y-18378534D02*
X9536158Y-18369010D01*
X9536158Y-18369010D02*
X9564729Y-18369010D01*
X9564729Y-18369010D02*
X9583777Y-18378534D01*
X9583777Y-18378534D02*
X9593301Y-18397582D01*
X9593301Y-18397582D02*
X9593301Y-18502344D01*
X9593301Y-18397582D02*
X9602825Y-18378534D01*
X9602825Y-18378534D02*
X9621872Y-18369010D01*
X9621872Y-18369010D02*
X9650444Y-18369010D01*
X9650444Y-18369010D02*
X9669491Y-18378534D01*
X9669491Y-18378534D02*
X9679015Y-18397582D01*
X9679015Y-18397582D02*
X9679015Y-18502344D01*
X10069491Y-18292820D02*
X9898063Y-18549963D01*
X10326634Y-18302344D02*
X10345682Y-18302344D01*
X10345682Y-18302344D02*
X10364729Y-18311868D01*
X10364729Y-18311868D02*
X10374253Y-18321391D01*
X10374253Y-18321391D02*
X10383777Y-18340439D01*
X10383777Y-18340439D02*
X10393301Y-18378534D01*
X10393301Y-18378534D02*
X10393301Y-18426153D01*
X10393301Y-18426153D02*
X10383777Y-18464249D01*
X10383777Y-18464249D02*
X10374253Y-18483296D01*
X10374253Y-18483296D02*
X10364729Y-18492820D01*
X10364729Y-18492820D02*
X10345682Y-18502344D01*
X10345682Y-18502344D02*
X10326634Y-18502344D01*
X10326634Y-18502344D02*
X10307587Y-18492820D01*
X10307587Y-18492820D02*
X10298063Y-18483296D01*
X10298063Y-18483296D02*
X10288539Y-18464249D01*
X10288539Y-18464249D02*
X10279015Y-18426153D01*
X10279015Y-18426153D02*
X10279015Y-18378534D01*
X10279015Y-18378534D02*
X10288539Y-18340439D01*
X10288539Y-18340439D02*
X10298063Y-18321391D01*
X10298063Y-18321391D02*
X10307587Y-18311868D01*
X10307587Y-18311868D02*
X10326634Y-18302344D01*
X10479015Y-18483296D02*
X10488539Y-18492820D01*
X10488539Y-18492820D02*
X10479015Y-18502344D01*
X10479015Y-18502344D02*
X10469491Y-18492820D01*
X10469491Y-18492820D02*
X10479015Y-18483296D01*
X10479015Y-18483296D02*
X10479015Y-18502344D01*
X10612348Y-18302344D02*
X10631396Y-18302344D01*
X10631396Y-18302344D02*
X10650444Y-18311868D01*
X10650444Y-18311868D02*
X10659968Y-18321391D01*
X10659968Y-18321391D02*
X10669491Y-18340439D01*
X10669491Y-18340439D02*
X10679015Y-18378534D01*
X10679015Y-18378534D02*
X10679015Y-18426153D01*
X10679015Y-18426153D02*
X10669491Y-18464249D01*
X10669491Y-18464249D02*
X10659968Y-18483296D01*
X10659968Y-18483296D02*
X10650444Y-18492820D01*
X10650444Y-18492820D02*
X10631396Y-18502344D01*
X10631396Y-18502344D02*
X10612348Y-18502344D01*
X10612348Y-18502344D02*
X10593301Y-18492820D01*
X10593301Y-18492820D02*
X10583777Y-18483296D01*
X10583777Y-18483296D02*
X10574253Y-18464249D01*
X10574253Y-18464249D02*
X10564729Y-18426153D01*
X10564729Y-18426153D02*
X10564729Y-18378534D01*
X10564729Y-18378534D02*
X10574253Y-18340439D01*
X10574253Y-18340439D02*
X10583777Y-18321391D01*
X10583777Y-18321391D02*
X10593301Y-18311868D01*
X10593301Y-18311868D02*
X10612348Y-18302344D01*
X10859968Y-18302344D02*
X10764729Y-18302344D01*
X10764729Y-18302344D02*
X10755206Y-18397582D01*
X10755206Y-18397582D02*
X10764729Y-18388058D01*
X10764729Y-18388058D02*
X10783777Y-18378534D01*
X10783777Y-18378534D02*
X10831396Y-18378534D01*
X10831396Y-18378534D02*
X10850444Y-18388058D01*
X10850444Y-18388058D02*
X10859968Y-18397582D01*
X10859968Y-18397582D02*
X10869491Y-18416630D01*
X10869491Y-18416630D02*
X10869491Y-18464249D01*
X10869491Y-18464249D02*
X10859968Y-18483296D01*
X10859968Y-18483296D02*
X10850444Y-18492820D01*
X10850444Y-18492820D02*
X10831396Y-18502344D01*
X10831396Y-18502344D02*
X10783777Y-18502344D01*
X10783777Y-18502344D02*
X10764729Y-18492820D01*
X10764729Y-18492820D02*
X10755206Y-18483296D01*
X10964729Y-18502344D02*
X11002825Y-18502344D01*
X11002825Y-18502344D02*
X11021872Y-18492820D01*
X11021872Y-18492820D02*
X11031396Y-18483296D01*
X11031396Y-18483296D02*
X11050444Y-18454725D01*
X11050444Y-18454725D02*
X11059968Y-18416630D01*
X11059968Y-18416630D02*
X11059968Y-18340439D01*
X11059968Y-18340439D02*
X11050444Y-18321391D01*
X11050444Y-18321391D02*
X11040920Y-18311868D01*
X11040920Y-18311868D02*
X11021872Y-18302344D01*
X11021872Y-18302344D02*
X10983777Y-18302344D01*
X10983777Y-18302344D02*
X10964729Y-18311868D01*
X10964729Y-18311868D02*
X10955206Y-18321391D01*
X10955206Y-18321391D02*
X10945682Y-18340439D01*
X10945682Y-18340439D02*
X10945682Y-18388058D01*
X10945682Y-18388058D02*
X10955206Y-18407106D01*
X10955206Y-18407106D02*
X10964729Y-18416630D01*
X10964729Y-18416630D02*
X10983777Y-18426153D01*
X10983777Y-18426153D02*
X11021872Y-18426153D01*
X11021872Y-18426153D02*
X11040920Y-18416630D01*
X11040920Y-18416630D02*
X11050444Y-18407106D01*
X11050444Y-18407106D02*
X11059968Y-18388058D01*
X11250444Y-18502344D02*
X11136158Y-18502344D01*
X11193301Y-18502344D02*
X11193301Y-18302344D01*
X11193301Y-18302344D02*
X11174253Y-18330915D01*
X11174253Y-18330915D02*
X11155206Y-18349963D01*
X11155206Y-18349963D02*
X11136158Y-18359487D01*
X11326634Y-18302344D02*
X11326634Y-18340439D01*
X11402825Y-18302344D02*
X11402825Y-18340439D01*
X11698063Y-18578534D02*
X11688539Y-18569010D01*
X11688539Y-18569010D02*
X11669491Y-18540439D01*
X11669491Y-18540439D02*
X11659968Y-18521391D01*
X11659968Y-18521391D02*
X11650444Y-18492820D01*
X11650444Y-18492820D02*
X11640920Y-18445201D01*
X11640920Y-18445201D02*
X11640920Y-18407106D01*
X11640920Y-18407106D02*
X11650444Y-18359487D01*
X11650444Y-18359487D02*
X11659968Y-18330915D01*
X11659968Y-18330915D02*
X11669491Y-18311868D01*
X11669491Y-18311868D02*
X11688539Y-18283296D01*
X11688539Y-18283296D02*
X11698063Y-18273772D01*
X11859968Y-18369010D02*
X11859968Y-18502344D01*
X11812348Y-18292820D02*
X11764729Y-18435677D01*
X11764729Y-18435677D02*
X11888539Y-18435677D01*
X12117110Y-18502344D02*
X12117110Y-18302344D01*
X12202825Y-18502344D02*
X12202825Y-18397582D01*
X12202825Y-18397582D02*
X12193301Y-18378534D01*
X12193301Y-18378534D02*
X12174253Y-18369010D01*
X12174253Y-18369010D02*
X12145682Y-18369010D01*
X12145682Y-18369010D02*
X12126634Y-18378534D01*
X12126634Y-18378534D02*
X12117110Y-18388058D01*
X12326634Y-18502344D02*
X12307587Y-18492820D01*
X12307587Y-18492820D02*
X12298063Y-18483296D01*
X12298063Y-18483296D02*
X12288539Y-18464249D01*
X12288539Y-18464249D02*
X12288539Y-18407106D01*
X12288539Y-18407106D02*
X12298063Y-18388058D01*
X12298063Y-18388058D02*
X12307587Y-18378534D01*
X12307587Y-18378534D02*
X12326634Y-18369010D01*
X12326634Y-18369010D02*
X12355206Y-18369010D01*
X12355206Y-18369010D02*
X12374253Y-18378534D01*
X12374253Y-18378534D02*
X12383777Y-18388058D01*
X12383777Y-18388058D02*
X12393301Y-18407106D01*
X12393301Y-18407106D02*
X12393301Y-18464249D01*
X12393301Y-18464249D02*
X12383777Y-18483296D01*
X12383777Y-18483296D02*
X12374253Y-18492820D01*
X12374253Y-18492820D02*
X12355206Y-18502344D01*
X12355206Y-18502344D02*
X12326634Y-18502344D01*
X12507587Y-18502344D02*
X12488539Y-18492820D01*
X12488539Y-18492820D02*
X12479015Y-18473772D01*
X12479015Y-18473772D02*
X12479015Y-18302344D01*
X12659968Y-18492820D02*
X12640920Y-18502344D01*
X12640920Y-18502344D02*
X12602825Y-18502344D01*
X12602825Y-18502344D02*
X12583777Y-18492820D01*
X12583777Y-18492820D02*
X12574253Y-18473772D01*
X12574253Y-18473772D02*
X12574253Y-18397582D01*
X12574253Y-18397582D02*
X12583777Y-18378534D01*
X12583777Y-18378534D02*
X12602825Y-18369010D01*
X12602825Y-18369010D02*
X12640920Y-18369010D01*
X12640920Y-18369010D02*
X12659968Y-18378534D01*
X12659968Y-18378534D02*
X12669491Y-18397582D01*
X12669491Y-18397582D02*
X12669491Y-18416630D01*
X12669491Y-18416630D02*
X12574253Y-18435677D01*
X12745682Y-18492820D02*
X12764730Y-18502344D01*
X12764730Y-18502344D02*
X12802825Y-18502344D01*
X12802825Y-18502344D02*
X12821872Y-18492820D01*
X12821872Y-18492820D02*
X12831396Y-18473772D01*
X12831396Y-18473772D02*
X12831396Y-18464249D01*
X12831396Y-18464249D02*
X12821872Y-18445201D01*
X12821872Y-18445201D02*
X12802825Y-18435677D01*
X12802825Y-18435677D02*
X12774253Y-18435677D01*
X12774253Y-18435677D02*
X12755206Y-18426153D01*
X12755206Y-18426153D02*
X12745682Y-18407106D01*
X12745682Y-18407106D02*
X12745682Y-18397582D01*
X12745682Y-18397582D02*
X12755206Y-18378534D01*
X12755206Y-18378534D02*
X12774253Y-18369010D01*
X12774253Y-18369010D02*
X12802825Y-18369010D01*
X12802825Y-18369010D02*
X12821872Y-18378534D01*
X12898063Y-18578534D02*
X12907587Y-18569010D01*
X12907587Y-18569010D02*
X12926634Y-18540439D01*
X12926634Y-18540439D02*
X12936158Y-18521391D01*
X12936158Y-18521391D02*
X12945682Y-18492820D01*
X12945682Y-18492820D02*
X12955206Y-18445201D01*
X12955206Y-18445201D02*
X12955206Y-18407106D01*
X12955206Y-18407106D02*
X12945682Y-18359487D01*
X12945682Y-18359487D02*
X12936158Y-18330915D01*
X12936158Y-18330915D02*
X12926634Y-18311868D01*
X12926634Y-18311868D02*
X12907587Y-18283296D01*
X12907587Y-18283296D02*
X12898063Y-18273772D01*
M02*
