M48
; DRILL file {KiCad 7.0.9} date Sun Jan 14 22:47:18 2024
; FORMAT={-:-/ absolute / inch / decimal}
; #@! TF.CreationDate,2024-01-14T22:47:18+01:00
; #@! TF.GenerationSoftware,Kicad,Pcbnew,7.0.9
; #@! TF.FileFunction,Plated,1,2,PTH
FMAT,2
INCH
; #@! TA.AperFunction,Plated,PTH,ViaDrill
T1C0.0157
; #@! TA.AperFunction,Plated,PTH,ViaDrill
T2C0.0197
; #@! TA.AperFunction,Plated,PTH,ComponentDrill
T3C0.0315
; #@! TA.AperFunction,Plated,PTH,ComponentDrill
T4C0.0354
; #@! TA.AperFunction,Plated,PTH,ComponentDrill
T5C0.0394
; #@! TA.AperFunction,Plated,PTH,ComponentDrill
T6C0.0433
; #@! TA.AperFunction,Plated,PTH,ComponentDrill
T7C0.0480
; #@! TA.AperFunction,Plated,PTH,ComponentDrill
T8C0.0559
; #@! TA.AperFunction,Plated,PTH,ComponentDrill
T9C0.0563
; #@! TA.AperFunction,Plated,PTH,ComponentDrill
T10C0.0591
%
G90
G05
T1
X3.68Y-4.6142
X3.75Y-3.32
X3.93Y-3.265
X3.9397Y-2.1561
X4.02Y-2.215
X4.025Y-5.591
X4.1263Y-5.5848
X4.2507Y-3.9202
X4.3205Y-4.725
X4.3507Y-4.2135
X6.5157Y-5.1891
X6.5706Y-5.7162
X6.5808Y-5.2141
X6.5885Y-5.5341
X6.5937Y-4.5991
X6.6298Y-5.074
X6.64Y-3.5011
X6.642Y-5.29
X6.6444Y-5.7219
X6.65Y-5.42
X6.6637Y-5.9091
X6.6687Y-4.9041
X6.7357Y-5.872
X6.7437Y-5.56
X6.7457Y-5.7201
X6.7555Y-4.5991
X6.7837Y-5.4188
X6.8Y-5.69
X6.8357Y-4.7291
X6.8444Y-5.5322
X6.8524Y-5.1621
X6.8737Y-5.9199
X6.8816Y-5.1329
X6.931Y-4.0583
X6.9403Y-5.8193
X6.9437Y-5.0391
X6.9687Y-4.7291
X6.97Y-5.72
X6.9734Y-4.2946
X6.9772Y-3.9591
X6.9837Y-4.1991
X6.9837Y-4.2504
X6.99Y-5.3069
X6.9972Y-5.0172
X7.03Y-5.27
X7.0637Y-5.9159
X7.0757Y-3.6861
X7.1095Y-2.938
X7.11Y-5.19
X7.1237Y-3.1991
X7.1737Y-2.5791
X7.1845Y-3.118
X7.192Y-5.568
X7.1957Y-5.8862
X7.228Y-5.958
X7.2457Y-5.8698
X7.2587Y-2.9849
X7.26Y-3.9291
X7.2725Y-5.2651
X7.278Y-2.934
X7.2868Y-5.5483
X7.32Y-3.81
X7.3595Y-2.81
X7.36Y-4.15
X7.3718Y-2.521
X7.4189Y-5.5291
X7.4337Y-2.9591
X7.4497Y-5.8557
X7.47Y-5.37
X7.4711Y-3.1191
X7.51Y-5.52
X7.5159Y-4.7668
X7.5539Y-4.8691
X7.5539Y-4.9691
X7.5539Y-5.0741
X7.5539Y-5.2291
X7.5539Y-5.3741
X7.5539Y-5.492
X7.58Y-5.78
X7.65Y-4.41
X7.66Y-3.81
X7.74Y-4.03
X7.76Y-3.92
X7.8291Y-4.2591
X7.9227Y-2.85
T2
X3.67Y-3.3054
X3.7325Y-2.6941
X3.92Y-3.1154
X3.9552Y-2.8102
X4.06Y-3.2854
T3
X6.8778Y-3.5591
X6.8778Y-3.6591
X6.8778Y-3.7591
T4
X3.3598Y-4.4054
X3.36Y-3.7054
X3.4598Y-4.4054
X3.46Y-3.7054
X3.9498Y-3.7054
X3.95Y-4.4054
X4.0498Y-3.7054
X4.05Y-4.4054
X4.17Y-5.69
X4.17Y-5.79
X4.5398Y-4.4054
X4.54Y-3.7054
X4.6398Y-4.4054
X4.64Y-3.7054
T5
X3.27Y-2.3654
X3.27Y-2.4654
X3.27Y-2.5654
X3.27Y-2.6654
X3.27Y-2.7654
X3.27Y-2.8654
X3.27Y-2.9654
X3.27Y-3.0654
X3.27Y-3.1654
X3.27Y-3.2654
X3.27Y-3.3654
X3.27Y-3.4654
X3.27Y-3.5654
X3.517Y-2.0704
X3.6155Y-2.0704
X3.7139Y-2.0704
X3.74Y-5.6448
X3.74Y-5.7432
X3.74Y-5.8417
X3.96Y-5.9317
X4.06Y-5.9317
X4.16Y-5.9317
X4.26Y-1.6254
X4.26Y-1.7254
X4.26Y-1.8254
X4.2858Y-2.0708
X4.3842Y-2.0708
X4.4827Y-2.0708
X4.4965Y-1.5954
X4.4965Y-1.6954
X4.4965Y-1.7954
X4.4965Y-1.8954
X4.644Y-1.5954
X4.644Y-1.6954
X4.644Y-1.7954
X4.644Y-1.8954
X6.45Y-1.05
X6.45Y-1.15
X6.45Y-1.25
X6.45Y-1.35
X6.45Y-1.45
X6.45Y-1.55
X6.45Y-1.65
X6.45Y-1.75
X6.45Y-1.85
X6.45Y-1.95
X6.45Y-2.05
X6.45Y-2.15
X6.4887Y-3.6241
X6.4887Y-3.7241
X6.4887Y-3.8241
X6.4887Y-3.9241
X6.4887Y-4.0241
X6.4887Y-4.1241
X6.4887Y-4.2241
X6.4887Y-4.3241
X6.4887Y-4.4241
X6.4887Y-4.5241
X6.4887Y-4.6241
X6.4887Y-4.7241
X6.4887Y-4.8241
X6.55Y-1.05
X6.55Y-1.15
X6.55Y-1.25
X6.55Y-1.35
X6.55Y-1.45
X6.55Y-1.55
X6.55Y-1.65
X6.55Y-1.75
X6.55Y-1.85
X6.55Y-1.95
X6.55Y-2.05
X6.55Y-2.15
X6.5987Y-2.5141
X6.5987Y-2.6141
X6.5987Y-2.7141
X6.5987Y-2.8141
X6.5987Y-2.9141
X6.5987Y-3.0141
X6.5987Y-3.1141
X6.5987Y-3.2141
X6.65Y-1.05
X6.65Y-1.15
X6.65Y-1.25
X6.65Y-1.35
X6.65Y-1.45
X6.65Y-1.55
X6.65Y-1.65
X6.65Y-1.75
X6.65Y-1.85
X6.65Y-1.95
X6.65Y-2.05
X6.65Y-2.15
X6.6987Y-2.5141
X6.6987Y-2.6141
X6.6987Y-2.7141
X6.6987Y-2.8141
X6.6987Y-2.9141
X6.6987Y-3.0141
X6.6987Y-3.1141
X6.6987Y-3.2141
X6.75Y-1.05
X6.75Y-1.15
X6.75Y-1.25
X6.75Y-1.35
X6.75Y-1.45
X6.75Y-1.55
X6.75Y-1.65
X6.75Y-1.75
X6.75Y-1.85
X6.75Y-1.95
X6.75Y-2.05
X6.75Y-2.15
X6.85Y-1.05
X6.85Y-1.15
X6.85Y-1.25
X6.85Y-1.35
X6.85Y-1.45
X6.85Y-1.55
X6.85Y-1.65
X6.85Y-1.75
X6.85Y-1.85
X6.85Y-1.95
X6.85Y-2.05
X6.85Y-2.15
X6.95Y-1.05
X6.95Y-1.15
X6.95Y-1.25
X6.95Y-1.35
X6.95Y-1.45
X6.95Y-1.55
X6.95Y-1.65
X6.95Y-1.75
X6.95Y-1.85
X6.95Y-1.95
X6.95Y-2.05
X6.95Y-2.15
X7.05Y-1.05
X7.05Y-1.15
X7.05Y-1.25
X7.05Y-1.35
X7.05Y-1.45
X7.05Y-1.55
X7.05Y-1.65
X7.05Y-1.75
X7.05Y-1.85
X7.05Y-1.95
X7.05Y-2.05
X7.05Y-2.15
X7.15Y-1.05
X7.15Y-1.15
X7.15Y-1.25
X7.15Y-1.35
X7.15Y-1.45
X7.15Y-1.55
X7.15Y-1.65
X7.15Y-1.75
X7.15Y-1.85
X7.15Y-1.95
X7.15Y-2.05
X7.15Y-2.15
X7.2024Y-3.5291
X7.2024Y-3.6291
X7.2024Y-3.7291
X7.2024Y-3.8291
X7.2024Y-3.9291
X7.2024Y-4.0291
X7.2024Y-4.1291
X7.2024Y-4.2291
X7.2024Y-4.3291
X7.2024Y-4.4291
X7.2024Y-4.5291
X7.2024Y-4.6291
X7.2024Y-4.7291
X7.2024Y-4.8291
X7.2024Y-4.9291
X7.2024Y-5.0291
X7.2024Y-5.1291
X7.2024Y-5.2291
X7.2024Y-5.3291
X7.2024Y-5.4291
X7.25Y-1.05
X7.25Y-1.15
X7.25Y-1.25
X7.25Y-1.35
X7.25Y-1.45
X7.25Y-1.55
X7.25Y-1.65
X7.25Y-1.75
X7.25Y-1.85
X7.25Y-1.95
X7.25Y-2.05
X7.25Y-2.15
X7.35Y-1.05
X7.35Y-1.15
X7.35Y-1.25
X7.35Y-1.35
X7.35Y-1.45
X7.35Y-1.55
X7.35Y-1.65
X7.35Y-1.75
X7.35Y-1.85
X7.35Y-1.95
X7.35Y-2.05
X7.35Y-2.15
X7.45Y-1.05
X7.45Y-1.15
X7.45Y-1.25
X7.45Y-1.35
X7.45Y-1.45
X7.45Y-1.55
X7.45Y-1.65
X7.45Y-1.75
X7.45Y-1.85
X7.45Y-1.95
X7.45Y-2.05
X7.45Y-2.15
X7.55Y-1.05
X7.55Y-1.15
X7.55Y-1.25
X7.55Y-1.35
X7.55Y-1.45
X7.55Y-1.55
X7.55Y-1.65
X7.55Y-1.75
X7.55Y-1.85
X7.55Y-1.95
X7.55Y-2.05
X7.55Y-2.15
X7.6087Y-2.3851
X7.6087Y-2.4851
X7.65Y-1.05
X7.65Y-1.15
X7.65Y-1.25
X7.65Y-1.35
X7.65Y-1.45
X7.65Y-1.55
X7.65Y-1.65
X7.65Y-1.75
X7.65Y-1.85
X7.65Y-1.95
X7.65Y-2.05
X7.65Y-2.15
X7.7087Y-2.3851
X7.7087Y-2.4851
X7.7162Y-2.8541
X7.7162Y-2.9541
X7.7162Y-3.0541
X7.7162Y-3.1541
X7.75Y-1.05
X7.75Y-1.15
X7.75Y-1.25
X7.75Y-1.35
X7.75Y-1.45
X7.75Y-1.55
X7.75Y-1.65
X7.75Y-1.75
X7.75Y-1.85
X7.75Y-1.95
X7.75Y-2.05
X7.75Y-2.15
X7.8087Y-2.3851
X7.8087Y-2.4851
X7.85Y-1.05
X7.85Y-1.15
X7.85Y-1.25
X7.85Y-1.35
X7.85Y-1.45
X7.85Y-1.55
X7.85Y-1.65
X7.85Y-1.75
X7.85Y-1.85
X7.85Y-1.95
X7.85Y-2.05
X7.85Y-2.15
X7.8687Y-2.9241
X7.8687Y-3.0241
X7.8687Y-3.1241
X7.8687Y-3.2241
X7.9024Y-3.5291
X7.9024Y-3.6291
X7.9024Y-3.7291
X7.9024Y-3.8291
X7.9024Y-3.9291
X7.9024Y-4.0291
X7.9024Y-4.1291
X7.9024Y-4.2291
X7.9024Y-4.3291
X7.9024Y-4.4291
X7.9024Y-4.5291
X7.9024Y-4.6291
X7.9024Y-4.7291
X7.9024Y-4.8291
X7.9024Y-4.9291
X7.9024Y-5.0291
X7.9024Y-5.1291
X7.9024Y-5.2291
X7.9024Y-5.3291
X7.9024Y-5.4291
X7.9087Y-2.3851
X7.9087Y-2.4851
X7.95Y-1.05
X7.95Y-1.15
X7.95Y-1.25
X7.95Y-1.35
X7.95Y-1.45
X7.95Y-1.55
X7.95Y-1.65
X7.95Y-1.75
X7.95Y-1.85
X7.95Y-1.95
X7.95Y-2.05
X7.95Y-2.15
T6
X7.1237Y-2.4219
X7.2237Y-2.4219
X7.3237Y-2.4219
T7
X3.3355Y-1.2654
X3.41Y-3.8265
X3.41Y-4.5265
X4.0002Y-3.8265
X4.0002Y-4.5265
X4.44Y-5.475
X4.5905Y-3.8265
X4.5905Y-4.5265
X4.6638Y-1.2674
T8
X3.41Y-3.9486
X3.41Y-4.6486
X3.4575Y-1.2654
X4.0002Y-3.9486
X4.0002Y-4.6486
X4.44Y-5.597
X4.5418Y-1.2674
X4.5905Y-3.9486
X4.5905Y-4.6486
T9
X3.41Y-4.2754
X3.41Y-4.9754
X3.7843Y-1.2654
X4.0002Y-4.2754
X4.0002Y-4.9754
X4.215Y-1.2674
X4.44Y-5.9238
X4.5905Y-4.2754
X4.5905Y-4.9754
T10
X3.46Y-2.9654
X3.71Y-2.8654
X4.241Y-2.9664
X4.491Y-2.8664
T0
M30
