%TF.GenerationSoftware,KiCad,Pcbnew,7.0.9*%
%TF.CreationDate,2024-01-05T19:18:53+01:00*%
%TF.ProjectId,euroPI-kicad_surfacemount_discretes_and_ics,6575726f-5049-42d6-9b69-6361645f7375,rev?*%
%TF.SameCoordinates,Original*%
%TF.FileFunction,Profile,NP*%
%FSLAX46Y46*%
G04 Gerber Fmt 4.6, Leading zero omitted, Abs format (unit mm)*
G04 Created by KiCad (PCBNEW 7.0.9) date 2024-01-05 19:18:53*
%MOMM*%
%LPD*%
G01*
G04 APERTURE LIST*
%TA.AperFunction,Profile*%
%ADD10C,0.100000*%
%TD*%
%TA.AperFunction,Profile*%
%ADD11C,0.050000*%
%TD*%
G04 APERTURE END LIST*
D10*
X128993800Y-102610800D02*
G75*
G03*
X128993800Y-102610800I-1750000J0D01*
G01*
X130243800Y-130050800D02*
G75*
G03*
X130243800Y-130050800I-3000000J0D01*
G01*
X130814192Y-48583400D02*
G75*
G03*
X129743200Y-49650202I-2092J-1068900D01*
G01*
X160215800Y-130048000D02*
G75*
G03*
X160215800Y-130048000I-3000000J0D01*
G01*
X129743200Y-54885208D02*
G75*
G03*
X130810000Y-55956200I1068900J-2092D01*
G01*
X160215800Y-112268000D02*
G75*
G03*
X160215800Y-112268000I-3000000J0D01*
G01*
X145255200Y-112268000D02*
G75*
G03*
X145255200Y-112268000I-3000000J0D01*
G01*
X145255200Y-130048000D02*
G75*
G03*
X145255200Y-130048000I-3000000J0D01*
G01*
X81280000Y-25400000D02*
X203200000Y-25400000D01*
X203200000Y-153898600D01*
X81280000Y-153898600D01*
X81280000Y-25400000D01*
X136503200Y-68072000D02*
G75*
G03*
X136503200Y-68072000I-3900000J0D01*
G01*
X134815800Y-40584000D02*
G75*
G03*
X134815800Y-40584000I-3000000J0D01*
G01*
X158965800Y-120396000D02*
G75*
G03*
X158965800Y-120396000I-1750000J0D01*
G01*
X128993800Y-120398800D02*
G75*
G03*
X128993800Y-120398800I-1750000J0D01*
G01*
X153615008Y-55958300D02*
G75*
G03*
X154686000Y-54891503I2092J1068900D01*
G01*
X155934200Y-68072000D02*
G75*
G03*
X155934200Y-68072000I-3900000J0D01*
G01*
X129743200Y-49650202D02*
X129743216Y-54885208D01*
X144005200Y-120396000D02*
G75*
G03*
X144005200Y-120396000I-1750000J0D01*
G01*
X144145000Y-78359000D02*
X160147000Y-78359000D01*
X160147000Y-94234000D01*
X144145000Y-94234000D01*
X144145000Y-78359000D01*
X124333000Y-78359000D02*
X140335000Y-78359000D01*
X140335000Y-94234000D01*
X124333000Y-94234000D01*
X124333000Y-78359000D01*
X130810000Y-55956200D02*
X153615008Y-55958287D01*
X158965800Y-102608000D02*
G75*
G03*
X158965800Y-102608000I-1750000J0D01*
G01*
X154685992Y-49657000D02*
G75*
G03*
X153619216Y-48586008I-1068892J2100D01*
G01*
X155643800Y-40696000D02*
G75*
G03*
X155643800Y-40696000I-3000000J0D01*
G01*
X154686000Y-54891503D02*
X154686000Y-49657000D01*
X153619216Y-48586008D02*
X130814192Y-48583418D01*
X144005200Y-102608000D02*
G75*
G03*
X144005200Y-102608000I-1750000J0D01*
G01*
X130243800Y-112270800D02*
G75*
G03*
X130243800Y-112270800I-3000000J0D01*
G01*
D11*
%TO.C,REF\u002A\u002A*%
X129286000Y-149352000D02*
X132334000Y-149352000D01*
X132461000Y-152400000D02*
X129286000Y-152400000D01*
X129286000Y-149352002D02*
G75*
G03*
X129286000Y-152399998I127000J-1523998D01*
G01*
X132461000Y-152405281D02*
G75*
G03*
X132334000Y-149352002I0J1529281D01*
G01*
D10*
X156370000Y-28400000D02*
G75*
G03*
X156370000Y-28400000I-1550000J0D01*
G01*
D11*
%TO.C,J13*%
X147325500Y-142875000D02*
X147325500Y-141053420D01*
X146226080Y-139954000D02*
X138196907Y-139954000D01*
X138196907Y-143974420D02*
X146226080Y-143974420D01*
X137097487Y-141053420D02*
X137097487Y-142875000D01*
X146226080Y-143974420D02*
G75*
G03*
X147325500Y-142875000I-1J1099421D01*
G01*
X147325500Y-141053420D02*
G75*
G03*
X146226080Y-139954000I-1099421J-1D01*
G01*
X137097480Y-142875000D02*
G75*
G03*
X138196907Y-143974420I1099420J0D01*
G01*
X138196907Y-139953997D02*
G75*
G03*
X137097487Y-141053420I-27J-1099393D01*
G01*
X152795500Y-141986000D02*
G75*
G03*
X152795500Y-141986000I-1550000J0D01*
G01*
X134795500Y-141986000D02*
G75*
G03*
X134795500Y-141986000I-1550000J0D01*
G01*
%TD*%
M02*
