%TF.GenerationSoftware,KiCad,Pcbnew,7.0.9*%
%TF.CreationDate,2023-11-28T21:36:15+01:00*%
%TF.ProjectId,euroPi-kicad,6575726f-5069-42d6-9b69-6361642e6b69,rev?*%
%TF.SameCoordinates,Original*%
%TF.FileFunction,Soldermask,Top*%
%TF.FilePolarity,Negative*%
%FSLAX46Y46*%
G04 Gerber Fmt 4.6, Leading zero omitted, Abs format (unit mm)*
G04 Created by KiCad (PCBNEW 7.0.9) date 2023-11-28 21:36:15*
%MOMM*%
%LPD*%
G01*
G04 APERTURE LIST*
G04 Aperture macros list*
%AMRoundRect*
0 Rectangle with rounded corners*
0 $1 Rounding radius*
0 $2 $3 $4 $5 $6 $7 $8 $9 X,Y pos of 4 corners*
0 Add a 4 corners polygon primitive as box body*
4,1,4,$2,$3,$4,$5,$6,$7,$8,$9,$2,$3,0*
0 Add four circle primitives for the rounded corners*
1,1,$1+$1,$2,$3*
1,1,$1+$1,$4,$5*
1,1,$1+$1,$6,$7*
1,1,$1+$1,$8,$9*
0 Add four rect primitives between the rounded corners*
20,1,$1+$1,$2,$3,$4,$5,0*
20,1,$1+$1,$4,$5,$6,$7,0*
20,1,$1+$1,$6,$7,$8,$9,0*
20,1,$1+$1,$8,$9,$2,$3,0*%
%AMFreePoly0*
4,1,28,0.605014,0.794986,0.644504,0.794986,0.724698,0.756366,0.780194,0.686777,0.800000,0.600000,0.800000,-0.600000,0.780194,-0.686777,0.724698,-0.756366,0.644504,-0.794986,0.605014,-0.794986,0.600000,-0.800000,0.000000,-0.800000,-0.178017,-0.779942,-0.347107,-0.720775,-0.498792,-0.625465,-0.625465,-0.498792,-0.720775,-0.347107,-0.779942,-0.178017,-0.800000,0.000000,-0.779942,0.178017,
-0.720775,0.347107,-0.625465,0.498792,-0.498792,0.625465,-0.347107,0.720775,-0.178017,0.779942,0.000000,0.800000,0.600000,0.800000,0.605014,0.794986,0.605014,0.794986,$1*%
%AMFreePoly1*
4,1,28,0.178017,0.779942,0.347107,0.720775,0.498792,0.625465,0.625465,0.498792,0.720775,0.347107,0.779942,0.178017,0.800000,0.000000,0.779942,-0.178017,0.720775,-0.347107,0.625465,-0.498792,0.498792,-0.625465,0.347107,-0.720775,0.178017,-0.779942,0.000000,-0.800000,-0.600000,-0.800000,-0.605014,-0.794986,-0.644504,-0.794986,-0.724698,-0.756366,-0.780194,-0.686777,-0.800000,-0.600000,
-0.800000,0.600000,-0.780194,0.686777,-0.724698,0.756366,-0.644504,0.794986,-0.605014,0.794986,-0.600000,0.800000,0.000000,0.800000,0.178017,0.779942,0.178017,0.779942,$1*%
G04 Aperture macros list end*
%ADD10R,1.600000X1.600000*%
%ADD11O,1.600000X1.600000*%
%ADD12C,1.600000*%
%ADD13R,1.700000X1.700000*%
%ADD14O,1.700000X1.700000*%
%ADD15R,1.830000X1.930000*%
%ADD16C,2.130000*%
%ADD17R,1.930000X1.830000*%
%ADD18R,1.800000X1.800000*%
%ADD19C,1.800000*%
%ADD20O,1.800000X1.800000*%
%ADD21C,1.700000*%
%ADD22C,4.000000*%
%ADD23C,2.200000*%
%ADD24R,1.300000X1.300000*%
%ADD25C,1.300000*%
%ADD26RoundRect,0.200000X0.600000X0.600000X-0.600000X0.600000X-0.600000X-0.600000X0.600000X-0.600000X0*%
%ADD27FreePoly0,180.000000*%
%ADD28FreePoly1,180.000000*%
%ADD29RoundRect,0.250000X-0.600000X-0.600000X0.600000X-0.600000X0.600000X0.600000X-0.600000X0.600000X0*%
%ADD30R,1.905000X2.000000*%
%ADD31O,1.905000X2.000000*%
G04 APERTURE END LIST*
D10*
%TO.C,O3*%
X197104000Y-127787400D03*
D11*
X197104000Y-125247400D03*
X197104000Y-122707400D03*
X197104000Y-120167400D03*
X197104000Y-117627400D03*
X197104000Y-115087400D03*
X197104000Y-112547400D03*
X189484000Y-112547400D03*
X189484000Y-115087400D03*
X189484000Y-117627400D03*
X189484000Y-120167400D03*
X189484000Y-122707400D03*
X189484000Y-125247400D03*
X189484000Y-127787400D03*
%TD*%
D12*
%TO.C,R21*%
X200382352Y-139444600D03*
D11*
X195302352Y-139444600D03*
%TD*%
D12*
%TO.C,R16*%
X93472000Y-120621000D03*
D11*
X93472000Y-125701000D03*
%TD*%
D12*
%TO.C,R24*%
X193069000Y-61747400D03*
D11*
X187989000Y-61747400D03*
%TD*%
D12*
%TO.C,R6*%
X177239352Y-127760600D03*
D11*
X182319352Y-127760600D03*
%TD*%
D13*
%TO.C,J14*%
X108204000Y-49784000D03*
D14*
X108204000Y-52324000D03*
X108204000Y-54864000D03*
%TD*%
D12*
%TO.C,R17*%
X108458000Y-112493000D03*
D11*
X108458000Y-117573000D03*
%TD*%
D12*
%TO.C,R20*%
X102235000Y-70612000D03*
D11*
X102235000Y-75692000D03*
%TD*%
D12*
%TO.C,C1*%
X194580000Y-68580000D03*
X196580000Y-68580000D03*
%TD*%
D15*
%TO.C,J8*%
X84720648Y-40640000D03*
D16*
X96120648Y-40640000D03*
X87820648Y-40640000D03*
%TD*%
D12*
%TO.C,R30*%
X193548000Y-131343400D03*
D11*
X193548000Y-136423400D03*
%TD*%
D17*
%TO.C,J4*%
X86614000Y-123474000D03*
D16*
X86614000Y-134874000D03*
X86614000Y-126574000D03*
%TD*%
D18*
%TO.C,LED6*%
X117872648Y-120396000D03*
D19*
X115332648Y-120396000D03*
%TD*%
D12*
%TO.C,R26*%
X186915000Y-86131400D03*
D11*
X186915000Y-91211400D03*
%TD*%
D12*
%TO.C,R22*%
X168066352Y-102868600D03*
D11*
X173146352Y-102868600D03*
%TD*%
D12*
%TO.C,R13*%
X90903000Y-102616000D03*
D11*
X95983000Y-102616000D03*
%TD*%
D12*
%TO.C,R31*%
X164539352Y-127702600D03*
D11*
X164539352Y-132782600D03*
%TD*%
D18*
%TO.C,D2*%
X175598000Y-73939400D03*
D20*
X178138000Y-73939400D03*
%TD*%
D12*
%TO.C,C16*%
X179372000Y-56413400D03*
X181372000Y-56413400D03*
%TD*%
%TO.C,R11*%
X110773000Y-120396000D03*
D11*
X105693000Y-120396000D03*
%TD*%
D12*
%TO.C,C3*%
X185399352Y-42416600D03*
X187399352Y-42416600D03*
%TD*%
%TO.C,R23*%
X177038000Y-104194400D03*
D11*
X177038000Y-99114400D03*
%TD*%
D17*
%TO.C,J2*%
X101605824Y-105694000D03*
D16*
X101605824Y-117094000D03*
X101605824Y-108794000D03*
%TD*%
D10*
%TO.C,O1*%
X184658000Y-70383400D03*
D11*
X184658000Y-67843400D03*
X184658000Y-65303400D03*
X184658000Y-62763400D03*
X177038000Y-62763400D03*
X177038000Y-65303400D03*
X177038000Y-67843400D03*
X177038000Y-70383400D03*
%TD*%
D12*
%TO.C,R18*%
X109739648Y-123640000D03*
D11*
X109739648Y-128720000D03*
%TD*%
D12*
%TO.C,R29*%
X190246000Y-131372400D03*
D11*
X190246000Y-136452400D03*
%TD*%
D12*
%TO.C,C11*%
X165809352Y-118870600D03*
X167809352Y-118870600D03*
%TD*%
D21*
%TO.C,SW2*%
X86614000Y-86360000D03*
D22*
X91694000Y-86360000D03*
D21*
X96774000Y-86360000D03*
D23*
X94234000Y-81280000D03*
X87884000Y-83820000D03*
%TD*%
D12*
%TO.C,C14*%
X173651352Y-118870600D03*
X171651352Y-118870600D03*
%TD*%
D18*
%TO.C,D3*%
X176022000Y-57404000D03*
D20*
X176022000Y-54864000D03*
%TD*%
D12*
%TO.C,R37*%
X192479352Y-139444600D03*
D11*
X187399352Y-139444600D03*
%TD*%
D18*
%TO.C,D1*%
X170180000Y-79527400D03*
D20*
X170180000Y-76987400D03*
%TD*%
D12*
%TO.C,R1*%
X186915000Y-94230400D03*
D11*
X186915000Y-99310400D03*
%TD*%
D12*
%TO.C,R19*%
X102119648Y-61214000D03*
D11*
X102119648Y-66294000D03*
%TD*%
D15*
%TO.C,J7*%
X118461000Y-40690800D03*
D16*
X107061000Y-40690800D03*
X115361000Y-40690800D03*
%TD*%
D18*
%TO.C,D4*%
X175913352Y-39069000D03*
D20*
X175913352Y-36529000D03*
%TD*%
D12*
%TO.C,C2*%
X171450000Y-68589400D03*
X171450000Y-66589400D03*
%TD*%
D17*
%TO.C,J1*%
X86614000Y-105694000D03*
D16*
X86614000Y-117094000D03*
X86614000Y-108794000D03*
%TD*%
D12*
%TO.C,C5*%
X185399352Y-48004600D03*
X187399352Y-48004600D03*
%TD*%
%TO.C,R5*%
X178255352Y-110713600D03*
D11*
X178255352Y-115793600D03*
%TD*%
D13*
%TO.C,J11*%
X164338000Y-68580000D03*
D14*
X164338000Y-71120000D03*
X164338000Y-73660000D03*
X164338000Y-76200000D03*
X164338000Y-78740000D03*
X164338000Y-81280000D03*
X164338000Y-83820000D03*
X164338000Y-86360000D03*
X164338000Y-88900000D03*
X164338000Y-91440000D03*
X164338000Y-93980000D03*
X164338000Y-96520000D03*
X164338000Y-99060000D03*
%TD*%
D18*
%TO.C,LED5*%
X100330824Y-120396000D03*
D19*
X102870824Y-120396000D03*
%TD*%
D12*
%TO.C,C12*%
X165793352Y-112266600D03*
X167793352Y-112266600D03*
%TD*%
D17*
%TO.C,J3*%
X116597648Y-105694000D03*
D16*
X116597648Y-117094000D03*
X116597648Y-108794000D03*
%TD*%
D12*
%TO.C,R32*%
X186436000Y-125247400D03*
D11*
X186436000Y-120167400D03*
%TD*%
D12*
%TO.C,R8*%
X105918000Y-98015000D03*
D11*
X105918000Y-103095000D03*
%TD*%
D12*
%TO.C,R28*%
X103516648Y-39642000D03*
D11*
X103516648Y-44722000D03*
%TD*%
D12*
%TO.C,R10*%
X93472000Y-128778000D03*
D11*
X93472000Y-133858000D03*
%TD*%
D10*
%TO.C,O5*%
X167841352Y-139698600D03*
D11*
X170381352Y-139698600D03*
X172921352Y-139698600D03*
X175461352Y-139698600D03*
X178001352Y-139698600D03*
X180541352Y-139698600D03*
X183081352Y-139698600D03*
X183081352Y-132078600D03*
X180541352Y-132078600D03*
X178001352Y-132078600D03*
X175461352Y-132078600D03*
X172921352Y-132078600D03*
X170381352Y-132078600D03*
X167841352Y-132078600D03*
%TD*%
D12*
%TO.C,R2*%
X191545000Y-102133400D03*
D11*
X186465000Y-102133400D03*
%TD*%
D12*
%TO.C,C4*%
X179372000Y-50825400D03*
X181372000Y-50825400D03*
%TD*%
D13*
%TO.C,J18*%
X195516500Y-56642000D03*
D14*
X195516500Y-54102000D03*
X195516500Y-51562000D03*
X195516500Y-49022000D03*
%TD*%
D24*
%TO.C,Q1*%
X175748000Y-78765400D03*
D25*
X177018000Y-77495400D03*
X178288000Y-78765400D03*
%TD*%
D21*
%TO.C,SW1*%
X106451400Y-86385400D03*
D22*
X111531400Y-86385400D03*
D21*
X116611400Y-86385400D03*
D23*
X114071400Y-81305400D03*
X107721400Y-83845400D03*
%TD*%
D12*
%TO.C,R27*%
X99579648Y-36928000D03*
D11*
X99579648Y-42008000D03*
%TD*%
D17*
%TO.C,J5*%
X101605824Y-123474000D03*
D16*
X101605824Y-134874000D03*
X101605824Y-126574000D03*
%TD*%
D12*
%TO.C,R36*%
X196342000Y-108766400D03*
D11*
X196342000Y-103686400D03*
%TD*%
D12*
%TO.C,R25*%
X191291000Y-71174400D03*
D11*
X191291000Y-66094400D03*
%TD*%
D12*
%TO.C,C10*%
X191516000Y-97090701D03*
X193516000Y-97090701D03*
%TD*%
%TO.C,R9*%
X109982000Y-102362000D03*
D11*
X109982000Y-107442000D03*
%TD*%
D12*
%TO.C,C13*%
X173635352Y-112266600D03*
X171635352Y-112266600D03*
%TD*%
%TO.C,R7*%
X93218000Y-110236000D03*
D11*
X93218000Y-115316000D03*
%TD*%
D12*
%TO.C,C7*%
X195580000Y-81280000D03*
X195580000Y-79280000D03*
%TD*%
%TO.C,R34*%
X164539352Y-140206600D03*
D11*
X164539352Y-135126600D03*
%TD*%
D22*
%TO.C,VR1*%
X115759400Y-68097400D03*
X106959400Y-68097400D03*
D19*
X108859400Y-61097400D03*
X111359400Y-61097400D03*
X113859400Y-61097400D03*
%TD*%
D12*
%TO.C,C15*%
X185399352Y-53592600D03*
X187399352Y-53592600D03*
%TD*%
D18*
%TO.C,LED2*%
X102880824Y-102616000D03*
D19*
X100340824Y-102616000D03*
%TD*%
D22*
%TO.C,VR2*%
X96232648Y-68087000D03*
X87432648Y-68087000D03*
D19*
X89332648Y-61087000D03*
X91832648Y-61087000D03*
X94332648Y-61087000D03*
%TD*%
D12*
%TO.C,R3*%
X168857352Y-124966600D03*
D11*
X173937352Y-124966600D03*
%TD*%
D12*
%TO.C,R4*%
X168603352Y-106932600D03*
D11*
X173683352Y-106932600D03*
%TD*%
D12*
%TO.C,R39*%
X191320000Y-108708400D03*
D11*
X186240000Y-108708400D03*
%TD*%
D18*
%TO.C,LED4*%
X85339000Y-120396000D03*
D19*
X87879000Y-120396000D03*
%TD*%
D13*
%TO.C,J12*%
X117957600Y-56642000D03*
D14*
X117957600Y-54102000D03*
X117957600Y-51562000D03*
X117957600Y-49022000D03*
%TD*%
D12*
%TO.C,C9*%
X191516000Y-90994701D03*
X193516000Y-90994701D03*
%TD*%
%TO.C,R40*%
X168603352Y-128551600D03*
D11*
X173683352Y-128551600D03*
%TD*%
D17*
%TO.C,J6*%
X116597648Y-123474000D03*
D16*
X116597648Y-134874000D03*
X116597648Y-126574000D03*
%TD*%
D18*
%TO.C,LED3*%
X117872648Y-102616000D03*
D19*
X115332648Y-102616000D03*
%TD*%
D12*
%TO.C,R12*%
X109739648Y-131289000D03*
D11*
X109739648Y-136369000D03*
%TD*%
D12*
%TO.C,R38*%
X186436000Y-133375400D03*
D11*
X186436000Y-128295400D03*
%TD*%
D12*
%TO.C,R35*%
X196850000Y-131314400D03*
D11*
X196850000Y-136394400D03*
%TD*%
D12*
%TO.C,R14*%
X96266000Y-98552000D03*
D11*
X101346000Y-98552000D03*
%TD*%
D12*
%TO.C,C8*%
X195580000Y-73438000D03*
X195580000Y-75438000D03*
%TD*%
D18*
%TO.C,LED1*%
X87889000Y-102616000D03*
D19*
X85349000Y-102616000D03*
%TD*%
D12*
%TO.C,R15*%
X115581648Y-98806000D03*
D11*
X110501648Y-98806000D03*
%TD*%
D12*
%TO.C,C6*%
X179372000Y-45237400D03*
X181372000Y-45237400D03*
%TD*%
%TO.C,R33*%
X186436000Y-112235400D03*
D11*
X186436000Y-117315400D03*
%TD*%
D13*
%TO.C,J16*%
X200406000Y-39649400D03*
D14*
X197866000Y-39649400D03*
X195326000Y-39649400D03*
X192786000Y-39649400D03*
X200406000Y-37109400D03*
X197866000Y-37109400D03*
X195326000Y-37109400D03*
X192786000Y-37109400D03*
%TD*%
D13*
%TO.C,J15*%
X199390000Y-64770000D03*
D14*
X199390000Y-62230000D03*
X199390000Y-59690000D03*
X199390000Y-57150000D03*
%TD*%
D26*
%TO.C,U2*%
X200246000Y-75841400D03*
D12*
X200246000Y-78381400D03*
D27*
X200246000Y-80921400D03*
D12*
X200246000Y-83461400D03*
X200246000Y-86001400D03*
X200246000Y-88541400D03*
X200246000Y-91081400D03*
D27*
X200246000Y-93621400D03*
D12*
X200246000Y-96161400D03*
X200246000Y-98701400D03*
X200246000Y-101241400D03*
X200246000Y-103781400D03*
D27*
X200246000Y-106321400D03*
D12*
X200246000Y-108861400D03*
X200246000Y-111401400D03*
X200246000Y-113941400D03*
X200246000Y-116481400D03*
D27*
X200246000Y-119021400D03*
D12*
X200246000Y-121561400D03*
X200246000Y-124101400D03*
X182466000Y-124101400D03*
X182466000Y-121561400D03*
D28*
X182466000Y-119021400D03*
D12*
X182466000Y-116481400D03*
X182466000Y-113941400D03*
X182466000Y-111401400D03*
X182466000Y-108861400D03*
D28*
X182466000Y-106321400D03*
D12*
X182466000Y-103781400D03*
X182466000Y-101241400D03*
X182466000Y-98701400D03*
X182466000Y-96161400D03*
D28*
X182466000Y-93621400D03*
D12*
X182466000Y-91081400D03*
X182466000Y-88541400D03*
X182466000Y-86001400D03*
X182466000Y-83461400D03*
D28*
X182466000Y-80921400D03*
D12*
X182466000Y-78381400D03*
X182466000Y-75841400D03*
%TD*%
D13*
%TO.C,J19*%
X114211500Y-56642000D03*
D14*
X114211500Y-54102000D03*
X114211500Y-51562000D03*
X114211500Y-49022000D03*
%TD*%
D13*
%TO.C,J17*%
X83058000Y-68580000D03*
D14*
X83058000Y-71120000D03*
X83058000Y-73660000D03*
X83058000Y-76200000D03*
X83058000Y-78740000D03*
X83058000Y-81280000D03*
X83058000Y-83820000D03*
X83058000Y-86360000D03*
X83058000Y-88900000D03*
X83058000Y-91440000D03*
X83058000Y-93980000D03*
X83058000Y-96520000D03*
X83058000Y-99060000D03*
%TD*%
D29*
%TO.C,J10*%
X167132000Y-58166000D03*
D21*
X169672000Y-58166000D03*
X167132000Y-55626000D03*
X169672000Y-55626000D03*
X167132000Y-53086000D03*
X169672000Y-53086000D03*
X167132000Y-50546000D03*
X169672000Y-50546000D03*
X167132000Y-48006000D03*
X169672000Y-48006000D03*
X167132000Y-45466000D03*
X169672000Y-45466000D03*
X167132000Y-42926000D03*
X169672000Y-42926000D03*
X167132000Y-40386000D03*
X169672000Y-40386000D03*
%TD*%
D30*
%TO.C,U1*%
X181303352Y-37773600D03*
D31*
X183843352Y-37773600D03*
X186383352Y-37773600D03*
%TD*%
M02*
