%TF.GenerationSoftware,KiCad,Pcbnew,7.0.9*%
%TF.CreationDate,2023-11-30T20:57:27+01:00*%
%TF.ProjectId,euroPI-kicad_surfacemount_discretes_and_ics,6575726f-5049-42d6-9b69-6361645f7375,rev?*%
%TF.SameCoordinates,Original*%
%TF.FileFunction,Copper,L1,Top*%
%TF.FilePolarity,Positive*%
%FSLAX46Y46*%
G04 Gerber Fmt 4.6, Leading zero omitted, Abs format (unit mm)*
G04 Created by KiCad (PCBNEW 7.0.9) date 2023-11-30 20:57:27*
%MOMM*%
%LPD*%
G01*
G04 APERTURE LIST*
G04 Aperture macros list*
%AMRoundRect*
0 Rectangle with rounded corners*
0 $1 Rounding radius*
0 $2 $3 $4 $5 $6 $7 $8 $9 X,Y pos of 4 corners*
0 Add a 4 corners polygon primitive as box body*
4,1,4,$2,$3,$4,$5,$6,$7,$8,$9,$2,$3,0*
0 Add four circle primitives for the rounded corners*
1,1,$1+$1,$2,$3*
1,1,$1+$1,$4,$5*
1,1,$1+$1,$6,$7*
1,1,$1+$1,$8,$9*
0 Add four rect primitives between the rounded corners*
20,1,$1+$1,$2,$3,$4,$5,0*
20,1,$1+$1,$4,$5,$6,$7,0*
20,1,$1+$1,$6,$7,$8,$9,0*
20,1,$1+$1,$8,$9,$2,$3,0*%
%AMFreePoly0*
4,1,28,0.605014,0.794986,0.644504,0.794986,0.724698,0.756366,0.780194,0.686777,0.800000,0.600000,0.800000,-0.600000,0.780194,-0.686777,0.724698,-0.756366,0.644504,-0.794986,0.605014,-0.794986,0.600000,-0.800000,0.000000,-0.800000,-0.178017,-0.779942,-0.347107,-0.720775,-0.498792,-0.625465,-0.625465,-0.498792,-0.720775,-0.347107,-0.779942,-0.178017,-0.800000,0.000000,-0.779942,0.178017,
-0.720775,0.347107,-0.625465,0.498792,-0.498792,0.625465,-0.347107,0.720775,-0.178017,0.779942,0.000000,0.800000,0.600000,0.800000,0.605014,0.794986,0.605014,0.794986,$1*%
%AMFreePoly1*
4,1,28,0.178017,0.779942,0.347107,0.720775,0.498792,0.625465,0.625465,0.498792,0.720775,0.347107,0.779942,0.178017,0.800000,0.000000,0.779942,-0.178017,0.720775,-0.347107,0.625465,-0.498792,0.498792,-0.625465,0.347107,-0.720775,0.178017,-0.779942,0.000000,-0.800000,-0.600000,-0.800000,-0.605014,-0.794986,-0.644504,-0.794986,-0.724698,-0.756366,-0.780194,-0.686777,-0.800000,-0.600000,
-0.800000,0.600000,-0.780194,0.686777,-0.724698,0.756366,-0.644504,0.794986,-0.605014,0.794986,-0.600000,0.800000,0.000000,0.800000,0.178017,0.779942,0.178017,0.779942,$1*%
G04 Aperture macros list end*
%TA.AperFunction,SMDPad,CuDef*%
%ADD10RoundRect,0.150000X0.150000X-0.825000X0.150000X0.825000X-0.150000X0.825000X-0.150000X-0.825000X0*%
%TD*%
%TA.AperFunction,SMDPad,CuDef*%
%ADD11RoundRect,0.250000X-0.350000X-0.450000X0.350000X-0.450000X0.350000X0.450000X-0.350000X0.450000X0*%
%TD*%
%TA.AperFunction,SMDPad,CuDef*%
%ADD12RoundRect,0.250000X-0.450000X0.350000X-0.450000X-0.350000X0.450000X-0.350000X0.450000X0.350000X0*%
%TD*%
%TA.AperFunction,SMDPad,CuDef*%
%ADD13RoundRect,0.250000X0.350000X0.450000X-0.350000X0.450000X-0.350000X-0.450000X0.350000X-0.450000X0*%
%TD*%
%TA.AperFunction,SMDPad,CuDef*%
%ADD14RoundRect,0.250000X0.450000X-0.350000X0.450000X0.350000X-0.450000X0.350000X-0.450000X-0.350000X0*%
%TD*%
%TA.AperFunction,SMDPad,CuDef*%
%ADD15RoundRect,0.250000X-0.337500X-0.475000X0.337500X-0.475000X0.337500X0.475000X-0.337500X0.475000X0*%
%TD*%
%TA.AperFunction,ComponentPad*%
%ADD16R,1.830000X1.930000*%
%TD*%
%TA.AperFunction,ComponentPad*%
%ADD17C,2.130000*%
%TD*%
%TA.AperFunction,ComponentPad*%
%ADD18R,1.930000X1.830000*%
%TD*%
%TA.AperFunction,ComponentPad*%
%ADD19R,1.800000X1.800000*%
%TD*%
%TA.AperFunction,ComponentPad*%
%ADD20C,1.800000*%
%TD*%
%TA.AperFunction,SMDPad,CuDef*%
%ADD21RoundRect,0.150000X-0.150000X0.725000X-0.150000X-0.725000X0.150000X-0.725000X0.150000X0.725000X0*%
%TD*%
%TA.AperFunction,SMDPad,CuDef*%
%ADD22RoundRect,0.225000X-0.375000X0.225000X-0.375000X-0.225000X0.375000X-0.225000X0.375000X0.225000X0*%
%TD*%
%TA.AperFunction,WasherPad*%
%ADD23C,4.000000*%
%TD*%
%TA.AperFunction,SMDPad,CuDef*%
%ADD24RoundRect,0.150000X0.725000X0.150000X-0.725000X0.150000X-0.725000X-0.150000X0.725000X-0.150000X0*%
%TD*%
%TA.AperFunction,ComponentPad*%
%ADD25C,2.200000*%
%TD*%
%TA.AperFunction,SMDPad,CuDef*%
%ADD26RoundRect,0.225000X0.375000X-0.225000X0.375000X0.225000X-0.375000X0.225000X-0.375000X-0.225000X0*%
%TD*%
%TA.AperFunction,SMDPad,CuDef*%
%ADD27RoundRect,0.250000X-0.475000X0.337500X-0.475000X-0.337500X0.475000X-0.337500X0.475000X0.337500X0*%
%TD*%
%TA.AperFunction,ComponentPad*%
%ADD28R,1.700000X1.700000*%
%TD*%
%TA.AperFunction,ComponentPad*%
%ADD29O,1.700000X1.700000*%
%TD*%
%TA.AperFunction,ComponentPad*%
%ADD30R,1.300000X1.300000*%
%TD*%
%TA.AperFunction,ComponentPad*%
%ADD31C,1.300000*%
%TD*%
%TA.AperFunction,SMDPad,CuDef*%
%ADD32RoundRect,0.250000X0.475000X-0.337500X0.475000X0.337500X-0.475000X0.337500X-0.475000X-0.337500X0*%
%TD*%
%TA.AperFunction,ComponentPad*%
%ADD33RoundRect,0.200000X0.600000X0.600000X-0.600000X0.600000X-0.600000X-0.600000X0.600000X-0.600000X0*%
%TD*%
%TA.AperFunction,ComponentPad*%
%ADD34C,1.600000*%
%TD*%
%TA.AperFunction,ComponentPad*%
%ADD35FreePoly0,180.000000*%
%TD*%
%TA.AperFunction,ComponentPad*%
%ADD36FreePoly1,180.000000*%
%TD*%
%TA.AperFunction,ComponentPad*%
%ADD37RoundRect,0.250000X-0.600000X-0.600000X0.600000X-0.600000X0.600000X0.600000X-0.600000X0.600000X0*%
%TD*%
%TA.AperFunction,ComponentPad*%
%ADD38C,1.700000*%
%TD*%
%TA.AperFunction,ComponentPad*%
%ADD39R,1.905000X2.000000*%
%TD*%
%TA.AperFunction,ComponentPad*%
%ADD40O,1.905000X2.000000*%
%TD*%
%TA.AperFunction,ViaPad*%
%ADD41C,0.800000*%
%TD*%
%TA.AperFunction,ViaPad*%
%ADD42C,1.000000*%
%TD*%
%TA.AperFunction,Conductor*%
%ADD43C,1.000000*%
%TD*%
%TA.AperFunction,Conductor*%
%ADD44C,0.400000*%
%TD*%
%TA.AperFunction,Conductor*%
%ADD45C,1.500000*%
%TD*%
%TA.AperFunction,Conductor*%
%ADD46C,0.750000*%
%TD*%
G04 APERTURE END LIST*
D10*
%TO.P,O3,1*%
%TO.N,CJ1*%
X166675000Y-115886000D03*
%TO.P,O3,2,-*%
%TO.N,Net-(O3A--)*%
X167945000Y-115886000D03*
%TO.P,O3,3,+*%
%TO.N,Net-(O3A-+)*%
X169215000Y-115886000D03*
%TO.P,O3,4,V+*%
%TO.N,~*%
X170485000Y-115886000D03*
%TO.P,O3,5,+*%
%TO.N,Net-(O3B-+)*%
X171755000Y-115886000D03*
%TO.P,O3,6,-*%
%TO.N,Net-(O3B--)*%
X173025000Y-115886000D03*
%TO.P,O3,7*%
%TO.N,CJ2*%
X174295000Y-115886000D03*
%TO.P,O3,8*%
%TO.N,CJ5*%
X174295000Y-110936000D03*
%TO.P,O3,9,-*%
%TO.N,Net-(O3C--)*%
X173025000Y-110936000D03*
%TO.P,O3,10,+*%
%TO.N,Net-(O3C-+)*%
X171755000Y-110936000D03*
%TO.P,O3,11,V-*%
%TO.N,-12V*%
X170485000Y-110936000D03*
%TO.P,O3,12,+*%
%TO.N,Net-(O3D-+)*%
X169215000Y-110936000D03*
%TO.P,O3,13,-*%
%TO.N,Net-(O3D--)*%
X167945000Y-110936000D03*
%TO.P,O3,14*%
%TO.N,CJ4*%
X166675000Y-110936000D03*
%TD*%
D11*
%TO.P,R21,1*%
%TO.N,CJA*%
X183979000Y-119507000D03*
%TO.P,R21,2*%
%TO.N,Net-(O5-Pad7)*%
X185979000Y-119507000D03*
%TD*%
D12*
%TO.P,R16,1*%
%TO.N,Net-(LED4-A)*%
X93472000Y-111121000D03*
%TO.P,R16,2*%
%TO.N,CJ4*%
X93472000Y-113121000D03*
%TD*%
%TO.P,R24,1*%
%TO.N,CS1*%
X190373000Y-73168000D03*
%TO.P,R24,2*%
%TO.N,I2C_VCC*%
X190373000Y-75168000D03*
%TD*%
D13*
%TO.P,R6,1*%
%TO.N,Net-(O5D-+)*%
X186547000Y-95608600D03*
%TO.P,R6,2*%
%TO.N,GP19*%
X184547000Y-95608600D03*
%TD*%
D14*
%TO.P,R17,1*%
%TO.N,Net-(LED5-A)*%
X108458000Y-104993000D03*
%TO.P,R17,2*%
%TO.N,CJ5*%
X108458000Y-102993000D03*
%TD*%
D12*
%TO.P,R20,1*%
%TO.N,CS1*%
X102235000Y-61112000D03*
%TO.P,R20,2*%
%TO.N,Net-(R20-Pad2)*%
X102235000Y-63112000D03*
%TD*%
D15*
%TO.P,C1,1*%
%TO.N,I2C_VCC*%
X193399500Y-75819000D03*
%TO.P,C1,2*%
%TO.N,I2C_GND*%
X195474500Y-75819000D03*
%TD*%
D16*
%TO.P,J8,S*%
%TO.N,I2C_GND*%
X84720648Y-32140000D03*
D17*
%TO.P,J8,T*%
%TO.N,Net-(J8-PadT)*%
X96120648Y-32140000D03*
%TO.P,J8,TN*%
%TO.N,unconnected-(J8-PadTN)*%
X87820648Y-32140000D03*
%TD*%
D12*
%TO.P,R41,1*%
%TO.N,Net-(LED7-K)*%
X106172000Y-140012000D03*
%TO.P,R41,2*%
%TO.N,I2C_GND*%
X106172000Y-142012000D03*
%TD*%
D13*
%TO.P,R30,1*%
%TO.N,Net-(O3B--)*%
X181629000Y-119507000D03*
%TO.P,R30,2*%
%TO.N,I2C_GND*%
X179629000Y-119507000D03*
%TD*%
D18*
%TO.P,J4,S*%
%TO.N,I2C_GND*%
X86614000Y-114974000D03*
D17*
%TO.P,J4,T*%
%TO.N,Net-(J4-PadT)*%
X86614000Y-126374000D03*
%TO.P,J4,TN*%
%TO.N,unconnected-(J4-PadTN)*%
X86614000Y-118074000D03*
%TD*%
D19*
%TO.P,LED6,1,K*%
%TO.N,I2C_GND*%
X117872648Y-111896000D03*
D20*
%TO.P,LED6,2,A*%
%TO.N,Net-(LED6-A)*%
X115332648Y-111896000D03*
%TD*%
D12*
%TO.P,R26,1*%
%TO.N,I2C_VCC*%
X178308000Y-80931000D03*
%TO.P,R26,2*%
%TO.N,GP22*%
X178308000Y-82931000D03*
%TD*%
D11*
%TO.P,R22,1*%
%TO.N,Net-(O5-Pad7)*%
X188281000Y-119507000D03*
%TO.P,R22,2*%
%TO.N,Net-(O1A--)*%
X190281000Y-119507000D03*
%TD*%
D21*
%TO.P,U3,1,GND*%
%TO.N,I2C_GND*%
X100965000Y-142501000D03*
%TO.P,U3,2,TR*%
%TO.N,Net-(U3-THR)*%
X99695000Y-142501000D03*
%TO.P,U3,3,Q*%
%TO.N,Net-(LED7-A)*%
X98425000Y-142501000D03*
%TO.P,U3,4,R*%
%TO.N,~*%
X97155000Y-142501000D03*
%TO.P,U3,5,CV*%
%TO.N,unconnected-(U3-CV-Pad5)*%
X97155000Y-147651000D03*
%TO.P,U3,6,THR*%
%TO.N,Net-(U3-THR)*%
X98425000Y-147651000D03*
%TO.P,U3,7,DIS*%
%TO.N,Net-(U3-DIS)*%
X99695000Y-147651000D03*
%TO.P,U3,8,VCC*%
%TO.N,~*%
X100965000Y-147651000D03*
%TD*%
D11*
%TO.P,R13,1*%
%TO.N,Net-(LED1-A)*%
X91456000Y-94116000D03*
%TO.P,R13,2*%
%TO.N,CJ1*%
X93456000Y-94116000D03*
%TD*%
D14*
%TO.P,R31,1*%
%TO.N,Net-(O5C--)*%
X177657000Y-90849517D03*
%TO.P,R31,2*%
%TO.N,I2C_GND*%
X177657000Y-88849517D03*
%TD*%
D22*
%TO.P,D2,1,A*%
%TO.N,+5V*%
X178257200Y-56871600D03*
%TO.P,D2,2,K*%
%TO.N,Net-(D2-K)*%
X178257200Y-60171600D03*
%TD*%
D15*
%TO.P,C16,1*%
%TO.N,I2C_GND*%
X177905500Y-43053000D03*
%TO.P,C16,2*%
%TO.N,-12V*%
X179980500Y-43053000D03*
%TD*%
D13*
%TO.P,R11,1*%
%TO.N,CJ5*%
X111773000Y-111896000D03*
%TO.P,R11,2*%
%TO.N,Net-(J5-PadT)*%
X109773000Y-111896000D03*
%TD*%
D15*
%TO.P,C3,1*%
%TO.N,~*%
X184255500Y-35941000D03*
%TO.P,C3,2*%
%TO.N,I2C_GND*%
X186330500Y-35941000D03*
%TD*%
D12*
%TO.P,Rx1,1*%
%TO.N,Net-(U3-DIS)*%
X97536000Y-149680000D03*
%TO.P,Rx1,2*%
%TO.N,+5V*%
X97536000Y-151680000D03*
%TD*%
D11*
%TO.P,R23,1*%
%TO.N,Net-(O1A--)*%
X185198000Y-47371000D03*
%TO.P,R23,2*%
%TO.N,GP26*%
X187198000Y-47371000D03*
%TD*%
D23*
%TO.P,VR3,*%
%TO.N,*%
X87996000Y-150278000D03*
X87996000Y-141478000D03*
D20*
%TO.P,VR3,1,1*%
%TO.N,Net-(U3-THR)*%
X94996000Y-143378000D03*
%TO.P,VR3,2,2*%
%TO.N,Net-(U3-DIS)*%
X94996000Y-145878000D03*
%TO.P,VR3,3,3*%
X94996000Y-148378000D03*
%TD*%
D18*
%TO.P,J2,S*%
%TO.N,I2C_GND*%
X101605824Y-97194000D03*
D17*
%TO.P,J2,T*%
%TO.N,Net-(J2-PadT)*%
X101605824Y-108594000D03*
%TO.P,J2,TN*%
%TO.N,unconnected-(J2-PadTN)*%
X101605824Y-100294000D03*
%TD*%
D24*
%TO.P,O1,1*%
%TO.N,GP26*%
X185109000Y-53975000D03*
%TO.P,O1,2,-*%
%TO.N,Net-(O1A--)*%
X185109000Y-52705000D03*
%TO.P,O1,3,+*%
%TO.N,I2C_GND*%
X185109000Y-51435000D03*
%TO.P,O1,4,V-*%
X185109000Y-50165000D03*
%TO.P,O1,5,+*%
%TO.N,unconnected-(O1B-+-Pad5)*%
X179959000Y-50165000D03*
%TO.P,O1,6,-*%
%TO.N,unconnected-(O1B---Pad6)*%
X179959000Y-51435000D03*
%TO.P,O1,7*%
%TO.N,unconnected-(O1-Pad7)*%
X179959000Y-52705000D03*
%TO.P,O1,8,V+*%
%TO.N,I2C_VCC*%
X179959000Y-53975000D03*
%TD*%
D12*
%TO.P,R18,1*%
%TO.N,Net-(LED6-A)*%
X109804200Y-115271800D03*
%TO.P,R18,2*%
%TO.N,CJ6*%
X109804200Y-117271800D03*
%TD*%
D11*
%TO.P,R29,1*%
%TO.N,Net-(O3A--)*%
X170993000Y-119507000D03*
%TO.P,R29,2*%
%TO.N,I2C_GND*%
X172993000Y-119507000D03*
%TD*%
D15*
%TO.P,C11,1*%
%TO.N,Net-(O5C-+)*%
X189193000Y-106022600D03*
%TO.P,C11,2*%
%TO.N,I2C_GND*%
X191268000Y-106022600D03*
%TD*%
D25*
%TO.P,SW2,1,1*%
%TO.N,I2C_GND*%
X94234000Y-72780000D03*
%TO.P,SW2,2,2*%
%TO.N,Net-(R19-Pad2)*%
X87884000Y-75320000D03*
%TD*%
D15*
%TO.P,C14,1*%
%TO.N,Net-(O5D-+)*%
X189193000Y-95608600D03*
%TO.P,C14,2*%
%TO.N,I2C_GND*%
X191268000Y-95608600D03*
%TD*%
D26*
%TO.P,D3,1,A*%
%TO.N,-12V*%
X175158400Y-48944800D03*
%TO.P,D3,2,K*%
%TO.N,Net-(D3-K)*%
X175158400Y-45644800D03*
%TD*%
D13*
%TO.P,R37,1*%
%TO.N,CJ3*%
X178657000Y-94421517D03*
%TO.P,R37,2*%
%TO.N,Net-(O5C--)*%
X176657000Y-94421517D03*
%TD*%
D22*
%TO.P,D1,1,A*%
%TO.N,I2C_GND*%
X169138600Y-56947800D03*
%TO.P,D1,2,K*%
%TO.N,CJD*%
X169138600Y-60247800D03*
%TD*%
D13*
%TO.P,R1,1*%
%TO.N,Net-(O3A-+)*%
X186563000Y-90528600D03*
%TO.P,R1,2*%
%TO.N,GP21*%
X184563000Y-90528600D03*
%TD*%
D12*
%TO.P,R19,1*%
%TO.N,CS2*%
X102108000Y-52340000D03*
%TO.P,R19,2*%
%TO.N,Net-(R19-Pad2)*%
X102108000Y-54340000D03*
%TD*%
D16*
%TO.P,J7,S*%
%TO.N,I2C_GND*%
X118461000Y-32190800D03*
D17*
%TO.P,J7,T*%
%TO.N,Net-(J7-PadT)*%
X107061000Y-32190800D03*
%TO.P,J7,TN*%
%TO.N,unconnected-(J7-PadTN)*%
X115361000Y-32190800D03*
%TD*%
D26*
%TO.P,D4,1,A*%
%TO.N,Net-(D4-A)*%
X175082200Y-39165800D03*
%TO.P,D4,2,K*%
%TO.N,~*%
X175082200Y-35865800D03*
%TD*%
D15*
%TO.P,C2,1*%
%TO.N,+5V*%
X179810500Y-47371000D03*
%TO.P,C2,2*%
%TO.N,I2C_GND*%
X181885500Y-47371000D03*
%TD*%
D27*
%TO.P,C18,1*%
%TO.N,Net-(C18-Pad1)*%
X103124000Y-144377500D03*
%TO.P,C18,2*%
%TO.N,Net-(LED7-A)*%
X103124000Y-146452500D03*
%TD*%
D18*
%TO.P,J1,S*%
%TO.N,I2C_GND*%
X86614000Y-97194000D03*
D17*
%TO.P,J1,T*%
%TO.N,Net-(J1-PadT)*%
X86614000Y-108594000D03*
%TO.P,J1,TN*%
%TO.N,unconnected-(J1-PadTN)*%
X86614000Y-100294000D03*
%TD*%
D15*
%TO.P,C5,1*%
%TO.N,~*%
X184255500Y-39495600D03*
%TO.P,C5,2*%
%TO.N,I2C_GND*%
X186330500Y-39495600D03*
%TD*%
D13*
%TO.P,R5,1*%
%TO.N,Net-(O3C-+)*%
X186547000Y-98402600D03*
%TO.P,R5,2*%
%TO.N,GP18*%
X184547000Y-98402600D03*
%TD*%
D18*
%TO.P,J20,S*%
%TO.N,I2C_GND*%
X112776707Y-139771293D03*
D17*
%TO.P,J20,T*%
%TO.N,Net-(C18-Pad1)*%
X112776707Y-151171293D03*
%TO.P,J20,TN*%
%TO.N,unconnected-(J20-PadTN)*%
X112776707Y-142871293D03*
%TD*%
D28*
%TO.P,J11,1,Pin_1*%
%TO.N,CJD*%
X164211000Y-60071000D03*
D29*
%TO.P,J11,2,Pin_2*%
%TO.N,CJA*%
X164211000Y-62611000D03*
%TO.P,J11,3,Pin_3*%
%TO.N,CK1*%
X164211000Y-65151000D03*
%TO.P,J11,4,Pin_4*%
%TO.N,CK2*%
X164211000Y-67691000D03*
%TO.P,J11,5,Pin_5*%
%TO.N,CS1*%
X164211000Y-70231000D03*
%TO.P,J11,6,Pin_6*%
%TO.N,CS2*%
X164211000Y-72771000D03*
%TO.P,J11,7,Pin_7*%
%TO.N,CJ6*%
X164211000Y-75311000D03*
%TO.P,J11,8,Pin_8*%
%TO.N,CJ5*%
X164211000Y-77851000D03*
%TO.P,J11,9,Pin_9*%
%TO.N,CJ4*%
X164211000Y-80391000D03*
%TO.P,J11,10,Pin_10*%
%TO.N,CJ3*%
X164211000Y-82931000D03*
%TO.P,J11,11,Pin_11*%
%TO.N,CJ2*%
X164211000Y-85471000D03*
%TO.P,J11,12,Pin_12*%
%TO.N,CJ1*%
X164211000Y-88011000D03*
%TO.P,J11,13,Pin_13*%
%TO.N,I2C_GND*%
X164211000Y-90551000D03*
%TD*%
D19*
%TO.P,LED5,1,K*%
%TO.N,I2C_GND*%
X100330824Y-111896000D03*
D20*
%TO.P,LED5,2,A*%
%TO.N,Net-(LED5-A)*%
X102870824Y-111896000D03*
%TD*%
D15*
%TO.P,C12,1*%
%TO.N,Net-(O3D-+)*%
X189193000Y-103101600D03*
%TO.P,C12,2*%
%TO.N,I2C_GND*%
X191268000Y-103101600D03*
%TD*%
D18*
%TO.P,J3,S*%
%TO.N,I2C_GND*%
X116597648Y-97194000D03*
D17*
%TO.P,J3,T*%
%TO.N,Net-(J3-PadT)*%
X116597648Y-108594000D03*
%TO.P,J3,TN*%
%TO.N,unconnected-(J3-PadTN)*%
X116597648Y-100294000D03*
%TD*%
D14*
%TO.P,R32,1*%
%TO.N,Net-(O3D--)*%
X166929000Y-104251000D03*
%TO.P,R32,2*%
%TO.N,I2C_GND*%
X166929000Y-102251000D03*
%TD*%
D19*
%TO.P,LED7,1,K*%
%TO.N,Net-(LED7-K)*%
X105918000Y-147066000D03*
D20*
%TO.P,LED7,2,A*%
%TO.N,Net-(LED7-A)*%
X105918000Y-144526000D03*
%TD*%
D12*
%TO.P,R8,1*%
%TO.N,CJ2*%
X105918000Y-88515000D03*
%TO.P,R8,2*%
%TO.N,Net-(J2-PadT)*%
X105918000Y-90515000D03*
%TD*%
%TO.P,R28,1*%
%TO.N,Net-(J8-PadT)*%
X103516648Y-30142000D03*
%TO.P,R28,2*%
%TO.N,CJA*%
X103516648Y-32142000D03*
%TD*%
%TO.P,R10,1*%
%TO.N,CJ4*%
X93472000Y-119278000D03*
%TO.P,R10,2*%
%TO.N,Net-(J4-PadT)*%
X93472000Y-121278000D03*
%TD*%
D10*
%TO.P,O5,1*%
%TO.N,N/C*%
X178359000Y-115886000D03*
%TO.P,O5,2*%
X179629000Y-115886000D03*
%TO.P,O5,3*%
X180899000Y-115886000D03*
%TO.P,O5,4,V+*%
%TO.N,~*%
X182169000Y-115886000D03*
%TO.P,O5,5,+*%
%TO.N,I2C_GND*%
X183439000Y-115886000D03*
%TO.P,O5,6,-*%
%TO.N,CJA*%
X184709000Y-115886000D03*
%TO.P,O5,7*%
%TO.N,Net-(O5-Pad7)*%
X185979000Y-115886000D03*
%TO.P,O5,8*%
%TO.N,CJ3*%
X185979000Y-110936000D03*
%TO.P,O5,9,-*%
%TO.N,Net-(O5C--)*%
X184709000Y-110936000D03*
%TO.P,O5,10,+*%
%TO.N,Net-(O5C-+)*%
X183439000Y-110936000D03*
%TO.P,O5,11,V-*%
%TO.N,-12V*%
X182169000Y-110936000D03*
%TO.P,O5,12,+*%
%TO.N,Net-(O5D-+)*%
X180899000Y-110936000D03*
%TO.P,O5,13,-*%
%TO.N,Net-(O5D--)*%
X179629000Y-110936000D03*
%TO.P,O5,14*%
%TO.N,CJ6*%
X178359000Y-110936000D03*
%TD*%
D13*
%TO.P,R2,1*%
%TO.N,Net-(O3B-+)*%
X186547000Y-93068600D03*
%TO.P,R2,2*%
%TO.N,GP20*%
X184547000Y-93068600D03*
%TD*%
D15*
%TO.P,C4,1*%
%TO.N,I2C_GND*%
X177905500Y-39497000D03*
%TO.P,C4,2*%
%TO.N,-12V*%
X179980500Y-39497000D03*
%TD*%
D28*
%TO.P,J18,1,Pin_1*%
%TO.N,TPH SCL {slash} CPC GND*%
X195389500Y-48133000D03*
D29*
%TO.P,J18,2,Pin_2*%
%TO.N,TPH SDA {slash} CPC VCC*%
X195389500Y-45593000D03*
%TO.P,J18,3,Pin_3*%
%TO.N,TPH GND {slash} CPC SCL*%
X195389500Y-43053000D03*
%TO.P,J18,4,Pin_4*%
%TO.N,TPH VCC {slash} CPC SDA*%
X195389500Y-40513000D03*
%TD*%
D30*
%TO.P,Q1,1,E*%
%TO.N,I2C_GND*%
X174096000Y-63500000D03*
D31*
%TO.P,Q1,2,B*%
%TO.N,CJD*%
X172826000Y-62230000D03*
%TO.P,Q1,3,C*%
%TO.N,GP22*%
X174096000Y-60960000D03*
%TD*%
D25*
%TO.P,SW1,1,1*%
%TO.N,I2C_GND*%
X114071400Y-72805400D03*
%TO.P,SW1,2,2*%
%TO.N,Net-(R20-Pad2)*%
X107721400Y-75345400D03*
%TD*%
D12*
%TO.P,R27,1*%
%TO.N,Net-(J7-PadT)*%
X99579648Y-27428000D03*
%TO.P,R27,2*%
%TO.N,CJD*%
X99579648Y-29428000D03*
%TD*%
D18*
%TO.P,J5,S*%
%TO.N,I2C_GND*%
X101605824Y-114974000D03*
D17*
%TO.P,J5,T*%
%TO.N,Net-(J5-PadT)*%
X101605824Y-126374000D03*
%TO.P,J5,TN*%
%TO.N,unconnected-(J5-PadTN)*%
X101605824Y-118074000D03*
%TD*%
D13*
%TO.P,R36,1*%
%TO.N,CJ2*%
X177311000Y-119507000D03*
%TO.P,R36,2*%
%TO.N,Net-(O3B--)*%
X175311000Y-119507000D03*
%TD*%
D14*
%TO.P,R25,1*%
%TO.N,CS2*%
X190373000Y-79613000D03*
%TO.P,R25,2*%
%TO.N,I2C_VCC*%
X190373000Y-77613000D03*
%TD*%
D15*
%TO.P,C10,1*%
%TO.N,Net-(O3B-+)*%
X189193000Y-93068600D03*
%TO.P,C10,2*%
%TO.N,I2C_GND*%
X191268000Y-93068600D03*
%TD*%
D12*
%TO.P,R9,1*%
%TO.N,CJ3*%
X109982000Y-92862000D03*
%TO.P,R9,2*%
%TO.N,Net-(J3-PadT)*%
X109982000Y-94862000D03*
%TD*%
D15*
%TO.P,C13,1*%
%TO.N,Net-(O3C-+)*%
X189193000Y-98402600D03*
%TO.P,C13,2*%
%TO.N,I2C_GND*%
X191268000Y-98402600D03*
%TD*%
D12*
%TO.P,R7,1*%
%TO.N,CJ1*%
X93218000Y-100736000D03*
%TO.P,R7,2*%
%TO.N,Net-(J1-PadT)*%
X93218000Y-102736000D03*
%TD*%
D15*
%TO.P,C7,1*%
%TO.N,CS2*%
X193399500Y-78994000D03*
%TO.P,C7,2*%
%TO.N,I2C_GND*%
X195474500Y-78994000D03*
%TD*%
D13*
%TO.P,R34,1*%
%TO.N,Net-(O5D--)*%
X174355000Y-89849517D03*
%TO.P,R34,2*%
%TO.N,I2C_GND*%
X172355000Y-89849517D03*
%TD*%
D23*
%TO.P,VR1,*%
%TO.N,*%
X115759400Y-59597400D03*
X106959400Y-59597400D03*
D20*
%TO.P,VR1,1,1*%
%TO.N,I2C_VCC*%
X108859400Y-52597400D03*
%TO.P,VR1,2,2*%
%TO.N,CK1*%
X111359400Y-52597400D03*
%TO.P,VR1,3,3*%
%TO.N,I2C_GND*%
X113859400Y-52597400D03*
%TD*%
D15*
%TO.P,C15,1*%
%TO.N,~*%
X184255500Y-43053000D03*
%TO.P,C15,2*%
%TO.N,I2C_GND*%
X186330500Y-43053000D03*
%TD*%
D19*
%TO.P,LED2,1,K*%
%TO.N,I2C_GND*%
X102880824Y-94116000D03*
D20*
%TO.P,LED2,2,A*%
%TO.N,Net-(LED2-A)*%
X100340824Y-94116000D03*
%TD*%
D23*
%TO.P,VR2,*%
%TO.N,*%
X96232648Y-59587000D03*
X87432648Y-59587000D03*
D20*
%TO.P,VR2,1,1*%
%TO.N,I2C_VCC*%
X89332648Y-52587000D03*
%TO.P,VR2,2,2*%
%TO.N,CK2*%
X91832648Y-52587000D03*
%TO.P,VR2,3,3*%
%TO.N,I2C_GND*%
X94332648Y-52587000D03*
%TD*%
D13*
%TO.P,R3,1*%
%TO.N,Net-(O5C-+)*%
X186547000Y-106022600D03*
%TO.P,R3,2*%
%TO.N,GP16*%
X184547000Y-106022600D03*
%TD*%
%TO.P,R4,1*%
%TO.N,Net-(O3D-+)*%
X186547000Y-103101600D03*
%TO.P,R4,2*%
%TO.N,GP17*%
X184547000Y-103101600D03*
%TD*%
D12*
%TO.P,R39,1*%
%TO.N,CJ5*%
X170993000Y-98545600D03*
%TO.P,R39,2*%
%TO.N,Net-(O3C--)*%
X170993000Y-100545600D03*
%TD*%
D19*
%TO.P,LED4,1,K*%
%TO.N,I2C_GND*%
X85339000Y-111896000D03*
D20*
%TO.P,LED4,2,A*%
%TO.N,Net-(LED4-A)*%
X87879000Y-111896000D03*
%TD*%
D28*
%TO.P,J12,1,Pin_1*%
%TO.N,TPH SCL {slash} CPC GND*%
X117957600Y-48142000D03*
D29*
%TO.P,J12,2,Pin_2*%
%TO.N,TPH SDA {slash} CPC VCC*%
X117957600Y-45602000D03*
%TO.P,J12,3,Pin_3*%
%TO.N,TPH GND {slash} CPC SCL*%
X117957600Y-43062000D03*
%TO.P,J12,4,Pin_4*%
%TO.N,TPH VCC {slash} CPC SDA*%
X117957600Y-40522000D03*
%TD*%
D15*
%TO.P,C9,1*%
%TO.N,Net-(O3A-+)*%
X189193000Y-90528600D03*
%TO.P,C9,2*%
%TO.N,I2C_GND*%
X191268000Y-90528600D03*
%TD*%
D32*
%TO.P,C17,1*%
%TO.N,I2C_GND*%
X103632000Y-142079500D03*
%TO.P,C17,2*%
%TO.N,Net-(U3-THR)*%
X103632000Y-140004500D03*
%TD*%
D11*
%TO.P,R40,1*%
%TO.N,CJ6*%
X172355000Y-94421517D03*
%TO.P,R40,2*%
%TO.N,Net-(O5D--)*%
X174355000Y-94421517D03*
%TD*%
D18*
%TO.P,J6,S*%
%TO.N,I2C_GND*%
X116597648Y-114974000D03*
D17*
%TO.P,J6,T*%
%TO.N,Net-(J6-PadT)*%
X116597648Y-126374000D03*
%TO.P,J6,TN*%
%TO.N,unconnected-(J6-PadTN)*%
X116597648Y-118074000D03*
%TD*%
D19*
%TO.P,LED3,1,K*%
%TO.N,I2C_GND*%
X117872648Y-94116000D03*
D20*
%TO.P,LED3,2,A*%
%TO.N,Net-(LED3-A)*%
X115332648Y-94116000D03*
%TD*%
D12*
%TO.P,R12,1*%
%TO.N,CJ6*%
X109739648Y-121789000D03*
%TO.P,R12,2*%
%TO.N,Net-(J6-PadT)*%
X109739648Y-123789000D03*
%TD*%
D14*
%TO.P,R38,1*%
%TO.N,CJ4*%
X166929000Y-108315000D03*
%TO.P,R38,2*%
%TO.N,Net-(O3D--)*%
X166929000Y-106315000D03*
%TD*%
D11*
%TO.P,R35,1*%
%TO.N,CJ1*%
X166691000Y-119507000D03*
%TO.P,R35,2*%
%TO.N,Net-(O3A--)*%
X168691000Y-119507000D03*
%TD*%
%TO.P,R14,1*%
%TO.N,Net-(LED2-A)*%
X95266000Y-90052000D03*
%TO.P,R14,2*%
%TO.N,CJ2*%
X97266000Y-90052000D03*
%TD*%
D15*
%TO.P,C8,1*%
%TO.N,CS1*%
X193399500Y-72644000D03*
%TO.P,C8,2*%
%TO.N,I2C_GND*%
X195474500Y-72644000D03*
%TD*%
D19*
%TO.P,LED1,1,K*%
%TO.N,I2C_GND*%
X87889000Y-94116000D03*
D20*
%TO.P,LED1,2,A*%
%TO.N,Net-(LED1-A)*%
X85349000Y-94116000D03*
%TD*%
D13*
%TO.P,R15,1*%
%TO.N,Net-(LED3-A)*%
X116581648Y-90306000D03*
%TO.P,R15,2*%
%TO.N,CJ3*%
X114581648Y-90306000D03*
%TD*%
D15*
%TO.P,C6,1*%
%TO.N,I2C_GND*%
X177905500Y-35941000D03*
%TO.P,C6,2*%
%TO.N,-12V*%
X179980500Y-35941000D03*
%TD*%
D14*
%TO.P,R33,1*%
%TO.N,Net-(O3C--)*%
X169037000Y-95973600D03*
%TO.P,R33,2*%
%TO.N,I2C_GND*%
X169037000Y-93973600D03*
%TD*%
D28*
%TO.P,J14,1,Pin_1*%
%TO.N,TPH VCC {slash} CPC SDA*%
X108204000Y-41284000D03*
D29*
%TO.P,J14,2,Pin_2*%
%TO.N,I2C_VCC*%
X108204000Y-43824000D03*
%TO.P,J14,3,Pin_3*%
%TO.N,TPH SDA {slash} CPC VCC*%
X108204000Y-46364000D03*
%TD*%
D28*
%TO.P,J16,1,Pin_1*%
%TO.N,GP1*%
X200279000Y-31140400D03*
D29*
%TO.P,J16,2,Pin_2*%
%TO.N,TPH GND {slash} CPC SCL*%
X197739000Y-31140400D03*
%TO.P,J16,3,Pin_3*%
%TO.N,TPH SDA {slash} CPC VCC*%
X195199000Y-31140400D03*
%TO.P,J16,4,Pin_4*%
%TO.N,I2C_VCC*%
X192659000Y-31140400D03*
%TO.P,J16,5,Pin_5*%
%TO.N,TPH VCC {slash} CPC SDA*%
X200279000Y-28600400D03*
%TO.P,J16,6,Pin_6*%
%TO.N,GP0*%
X197739000Y-28600400D03*
%TO.P,J16,7,Pin_7*%
%TO.N,I2C_GND*%
X195199000Y-28600400D03*
%TO.P,J16,8,Pin_8*%
%TO.N,TPH SCL {slash} CPC GND*%
X192659000Y-28600400D03*
%TD*%
D28*
%TO.P,J15,1,Pin_1*%
%TO.N,I2C_GND*%
X199263000Y-49911000D03*
D29*
%TO.P,J15,2,Pin_2*%
%TO.N,I2C_VCC*%
X199263000Y-47371000D03*
%TO.P,J15,3,Pin_3*%
%TO.N,GP3*%
X199263000Y-44831000D03*
%TO.P,J15,4,Pin_4*%
%TO.N,GP2*%
X199263000Y-42291000D03*
%TD*%
D33*
%TO.P,U2,1,GP0*%
%TO.N,GP0*%
X200119000Y-57658000D03*
D34*
%TO.P,U2,2,GP1*%
%TO.N,GP1*%
X200119000Y-60198000D03*
D35*
%TO.P,U2,3,GND*%
%TO.N,I2C_GND*%
X200119000Y-62738000D03*
D34*
%TO.P,U2,4,GP2*%
%TO.N,GP2*%
X200119000Y-65278000D03*
%TO.P,U2,5,GP3*%
%TO.N,GP3*%
X200119000Y-67818000D03*
%TO.P,U2,6,GP4*%
%TO.N,CS1*%
X200119000Y-70358000D03*
%TO.P,U2,7,GP5*%
%TO.N,CS2*%
X200119000Y-72898000D03*
D35*
%TO.P,U2,8,GND*%
%TO.N,I2C_GND*%
X200119000Y-75438000D03*
D34*
%TO.P,U2,9,GP6*%
%TO.N,unconnected-(U2-GP6-Pad9)*%
X200119000Y-77978000D03*
%TO.P,U2,10,GP7*%
%TO.N,unconnected-(U2-GP7-Pad10)*%
X200119000Y-80518000D03*
%TO.P,U2,11,GP8*%
%TO.N,unconnected-(U2-GP8-Pad11)*%
X200119000Y-83058000D03*
%TO.P,U2,12,GP9*%
%TO.N,unconnected-(U2-GP9-Pad12)*%
X200119000Y-85598000D03*
D35*
%TO.P,U2,13,GND*%
%TO.N,I2C_GND*%
X200119000Y-88138000D03*
D34*
%TO.P,U2,14,GP10*%
%TO.N,unconnected-(U2-GP10-Pad14)*%
X200119000Y-90678000D03*
%TO.P,U2,15,GP11*%
%TO.N,unconnected-(U2-GP11-Pad15)*%
X200119000Y-93218000D03*
%TO.P,U2,16,GP12*%
%TO.N,unconnected-(U2-GP12-Pad16)*%
X200119000Y-95758000D03*
%TO.P,U2,17,GP13*%
%TO.N,unconnected-(U2-GP13-Pad17)*%
X200119000Y-98298000D03*
D35*
%TO.P,U2,18,GND*%
%TO.N,I2C_GND*%
X200119000Y-100838000D03*
D34*
%TO.P,U2,19,GP14*%
%TO.N,unconnected-(U2-GP14-Pad19)*%
X200119000Y-103378000D03*
%TO.P,U2,20,GP15*%
%TO.N,unconnected-(U2-GP15-Pad20)*%
X200119000Y-105918000D03*
%TO.P,U2,21,GP16*%
%TO.N,GP16*%
X182339000Y-105918000D03*
%TO.P,U2,22,GP17*%
%TO.N,GP17*%
X182339000Y-103378000D03*
D36*
%TO.P,U2,23,GND*%
%TO.N,I2C_GND*%
X182339000Y-100838000D03*
D34*
%TO.P,U2,24,GP18*%
%TO.N,GP18*%
X182339000Y-98298000D03*
%TO.P,U2,25,GP19*%
%TO.N,GP19*%
X182339000Y-95758000D03*
%TO.P,U2,26,GP20*%
%TO.N,GP20*%
X182339000Y-93218000D03*
%TO.P,U2,27,GP21*%
%TO.N,GP21*%
X182339000Y-90678000D03*
D36*
%TO.P,U2,28,GND*%
%TO.N,I2C_GND*%
X182339000Y-88138000D03*
D34*
%TO.P,U2,29,GP22*%
%TO.N,GP22*%
X182339000Y-85598000D03*
%TO.P,U2,30,RUN*%
%TO.N,unconnected-(U2-RUN-Pad30)*%
X182339000Y-83058000D03*
%TO.P,U2,31,GP26*%
%TO.N,GP26*%
X182339000Y-80518000D03*
%TO.P,U2,32,GP27*%
%TO.N,CK1*%
X182339000Y-77978000D03*
D36*
%TO.P,U2,33,GND*%
%TO.N,I2C_GND*%
X182339000Y-75438000D03*
D34*
%TO.P,U2,34,GP28*%
%TO.N,CK2*%
X182339000Y-72898000D03*
%TO.P,U2,35,ADC_VREF*%
%TO.N,unconnected-(U2-ADC_VREF-Pad35)*%
X182339000Y-70358000D03*
%TO.P,U2,36,3V3*%
%TO.N,I2C_VCC*%
X182339000Y-67818000D03*
%TO.P,U2,37,3V3_EN*%
%TO.N,unconnected-(U2-3V3_EN-Pad37)*%
X182339000Y-65278000D03*
D36*
%TO.P,U2,38,GND*%
%TO.N,I2C_GND*%
X182339000Y-62738000D03*
D34*
%TO.P,U2,39,VSYS*%
%TO.N,Net-(D2-K)*%
X182339000Y-60198000D03*
%TO.P,U2,40,VBUS*%
%TO.N,unconnected-(U2-VBUS-Pad40)*%
X182339000Y-57658000D03*
%TD*%
D28*
%TO.P,J21,1,Pin_1*%
%TO.N,~*%
X105664000Y-150664000D03*
D29*
%TO.P,J21,2,Pin_2*%
%TO.N,I2C_GND*%
X103124000Y-150664000D03*
%TO.P,J21,3,Pin_3*%
%TO.N,+5V*%
X100584000Y-150664000D03*
%TD*%
D28*
%TO.P,J19,1,Pin_1*%
%TO.N,TPH SCL {slash} CPC GND*%
X114211500Y-48142000D03*
D29*
%TO.P,J19,2,Pin_2*%
%TO.N,TPH SDA {slash} CPC VCC*%
X114211500Y-45602000D03*
%TO.P,J19,3,Pin_3*%
%TO.N,TPH GND {slash} CPC SCL*%
X114211500Y-43062000D03*
%TO.P,J19,4,Pin_4*%
%TO.N,TPH VCC {slash} CPC SDA*%
X114211500Y-40522000D03*
%TD*%
D28*
%TO.P,J17,1,Pin_1*%
%TO.N,CJD*%
X83058000Y-60080000D03*
D29*
%TO.P,J17,2,Pin_2*%
%TO.N,CJA*%
X83058000Y-62620000D03*
%TO.P,J17,3,Pin_3*%
%TO.N,CK1*%
X83058000Y-65160000D03*
%TO.P,J17,4,Pin_4*%
%TO.N,CK2*%
X83058000Y-67700000D03*
%TO.P,J17,5,Pin_5*%
%TO.N,CS1*%
X83058000Y-70240000D03*
%TO.P,J17,6,Pin_6*%
%TO.N,CS2*%
X83058000Y-72780000D03*
%TO.P,J17,7,Pin_7*%
%TO.N,CJ6*%
X83058000Y-75320000D03*
%TO.P,J17,8,Pin_8*%
%TO.N,CJ5*%
X83058000Y-77860000D03*
%TO.P,J17,9,Pin_9*%
%TO.N,CJ4*%
X83058000Y-80400000D03*
%TO.P,J17,10,Pin_10*%
%TO.N,CJ3*%
X83058000Y-82940000D03*
%TO.P,J17,11,Pin_11*%
%TO.N,CJ2*%
X83058000Y-85480000D03*
%TO.P,J17,12,Pin_12*%
%TO.N,CJ1*%
X83058000Y-88020000D03*
%TO.P,J17,13,Pin_13*%
%TO.N,I2C_GND*%
X83058000Y-90560000D03*
%TD*%
D37*
%TO.P,J10,1,Pin_1*%
%TO.N,Net-(D3-K)*%
X167005000Y-49657000D03*
D38*
%TO.P,J10,2,Pin_2*%
X169545000Y-49657000D03*
%TO.P,J10,3,Pin_3*%
%TO.N,I2C_GND*%
X167005000Y-47117000D03*
%TO.P,J10,4,Pin_4*%
X169545000Y-47117000D03*
%TO.P,J10,5,Pin_5*%
X167005000Y-44577000D03*
%TO.P,J10,6,Pin_6*%
X169545000Y-44577000D03*
%TO.P,J10,7,Pin_7*%
X167005000Y-42037000D03*
%TO.P,J10,8,Pin_8*%
X169545000Y-42037000D03*
%TO.P,J10,9,Pin_9*%
%TO.N,Net-(D4-A)*%
X167005000Y-39497000D03*
%TO.P,J10,10,Pin_10*%
X169545000Y-39497000D03*
%TO.P,J10,11,Pin_11*%
%TO.N,+5V*%
X167005000Y-36957000D03*
%TO.P,J10,12,Pin_12*%
X169545000Y-36957000D03*
%TO.P,J10,13,Pin_13*%
%TO.N,Net-(J10-Pin_13)*%
X167005000Y-34417000D03*
%TO.P,J10,14,Pin_14*%
X169545000Y-34417000D03*
%TO.P,J10,15,Pin_15*%
%TO.N,Net-(J10-Pin_15)*%
X167005000Y-31877000D03*
%TO.P,J10,16,Pin_16*%
X169545000Y-31877000D03*
%TD*%
D39*
%TO.P,U1,1,IN*%
%TO.N,~*%
X180340000Y-29535000D03*
D40*
%TO.P,U1,2,GND*%
%TO.N,I2C_GND*%
X182880000Y-29535000D03*
%TO.P,U1,3,OUT*%
%TO.N,+5V*%
X185420000Y-29535000D03*
%TD*%
D41*
%TO.N,-12V*%
X183596544Y-46395490D03*
X179456116Y-44328116D03*
X190627000Y-113281332D03*
X181915000Y-112649000D03*
X170562311Y-111780512D03*
%TO.N,Net-(O3D-+)*%
X185637000Y-101473000D03*
X171053000Y-102743000D03*
%TO.N,Net-(O3C-+)*%
X171472709Y-109250791D03*
X184574294Y-101612377D03*
%TO.N,Net-(D2-K)*%
X179120800Y-61645800D03*
%TO.N,Net-(O5C--)*%
X175790101Y-103465982D03*
X175768000Y-96012000D03*
%TO.N,Net-(O5D--)*%
X174597996Y-98802314D03*
X174590546Y-104669885D03*
%TO.N,Net-(R19-Pad2)*%
X102108000Y-56261000D03*
D42*
X100461500Y-71378500D03*
D41*
%TO.N,CK1*%
X176613473Y-72811014D03*
%TO.N,CK2*%
X175666400Y-71961014D03*
%TO.N,CJ1*%
X167005000Y-113411000D03*
X166551000Y-100457000D03*
%TO.N,CJ2*%
X175681383Y-115831000D03*
X169198522Y-105641478D03*
%TO.N,CJ3*%
X186487000Y-108585000D03*
X178638720Y-96374720D03*
%TO.N,CJ4*%
X168453000Y-108585000D03*
D42*
X93218000Y-83956000D03*
D41*
X93472000Y-117201000D03*
X167797000Y-96898985D03*
%TO.N,CJ5*%
X107968000Y-99573138D03*
X110507987Y-107023013D03*
D42*
%TO.N,CJ6*%
X99568000Y-79130000D03*
D41*
X173718057Y-105281975D03*
X109739648Y-120015000D03*
D42*
X103124000Y-83448000D03*
D41*
X173621000Y-99187000D03*
%TO.N,CJA*%
X176618826Y-68580000D03*
X180225592Y-72015296D03*
%TO.N,CS2*%
X100069648Y-54764000D03*
X191312984Y-80899000D03*
X176523000Y-77103562D03*
D42*
X94804634Y-68430000D03*
D41*
%TO.N,CS1*%
X190073000Y-73596770D03*
X176523000Y-75351014D03*
%TO.N,I2C_VCC*%
X192024000Y-74168000D03*
%TO.N,I2C_GND*%
X184185000Y-49241000D03*
X191059000Y-109855000D03*
X168783000Y-92583000D03*
X196977000Y-73914000D03*
X182929000Y-117983000D03*
X176403000Y-88138000D03*
X186641500Y-32052500D03*
X166852600Y-56642000D03*
X171069000Y-89027000D03*
%TO.N,+5V*%
X181610000Y-33528000D03*
%TO.N,~*%
X170739000Y-113919000D03*
X182713000Y-43307000D03*
X188425821Y-44657380D03*
X181604003Y-114481509D03*
X189103000Y-115316000D03*
%TD*%
D43*
%TO.N,-12V*%
X191696668Y-113281332D02*
X190627000Y-113281332D01*
X195707200Y-109270800D02*
X191696668Y-113281332D01*
X195707200Y-89195313D02*
X195707200Y-109270800D01*
X185458000Y-78946113D02*
X195707200Y-89195313D01*
X185458000Y-61440234D02*
X185458000Y-78946113D01*
X188615000Y-58283234D02*
X185458000Y-61440234D01*
X188615000Y-46566858D02*
X188615000Y-58283234D01*
X187947363Y-45899221D02*
X188615000Y-46566858D01*
X184092813Y-45899221D02*
X187947363Y-45899221D01*
X183596544Y-46395490D02*
X184092813Y-45899221D01*
D44*
%TO.N,~*%
X182169000Y-115046506D02*
X182169000Y-115886000D01*
X181604003Y-114481509D02*
X182169000Y-115046506D01*
%TO.N,CJ2*%
X175626383Y-115886000D02*
X175681383Y-115831000D01*
X174295000Y-115886000D02*
X175626383Y-115886000D01*
D43*
%TO.N,~*%
X191440000Y-115316000D02*
X189103000Y-115316000D01*
X197053400Y-109702600D02*
X191440000Y-115316000D01*
X197053400Y-88773746D02*
X197053400Y-109702600D01*
X186708000Y-78428346D02*
X197053400Y-88773746D01*
X186708000Y-69003010D02*
X186708000Y-78428346D01*
X191135000Y-64576010D02*
X186708000Y-69003010D01*
X188473288Y-44657380D02*
X191135000Y-47319092D01*
X191135000Y-47319092D02*
X191135000Y-64576010D01*
X188425821Y-44657380D02*
X188473288Y-44657380D01*
D44*
%TO.N,-12V*%
X170485000Y-111703201D02*
X170562311Y-111780512D01*
D43*
X175158400Y-48816600D02*
X178963000Y-45012000D01*
X178963000Y-45012000D02*
X178963000Y-44821234D01*
D44*
X182169000Y-110936000D02*
X182169000Y-112395000D01*
D43*
X175158400Y-48944800D02*
X175158400Y-48816600D01*
X179980500Y-35941000D02*
X179980500Y-43803732D01*
X179980500Y-43803732D02*
X179456116Y-44328116D01*
X178963000Y-44821234D02*
X179456116Y-44328116D01*
D44*
X182169000Y-112395000D02*
X181915000Y-112649000D01*
%TO.N,Net-(O3A-+)*%
X185173000Y-91918600D02*
X186563000Y-90528600D01*
X172218057Y-106491306D02*
X172218057Y-104660654D01*
X170157082Y-112720000D02*
X174338684Y-112720000D01*
X182866167Y-91918600D02*
X185173000Y-91918600D01*
X181821233Y-91968000D02*
X182816767Y-91968000D01*
X175311000Y-109584249D02*
X172218057Y-106491306D01*
X174338684Y-112720000D02*
X175311000Y-111747684D01*
X175311000Y-111747684D02*
X175311000Y-109584249D01*
X169215000Y-115886000D02*
X169215000Y-113662082D01*
X179707000Y-94082233D02*
X181821233Y-91968000D01*
X173203000Y-103675711D02*
X173203000Y-103012522D01*
X186563000Y-90528600D02*
X188595000Y-90528600D01*
X172218057Y-104660654D02*
X173203000Y-103675711D01*
X179707000Y-96508523D02*
X179707000Y-94082233D01*
X182816767Y-91968000D02*
X182866167Y-91918600D01*
X173203000Y-103012522D02*
X179707000Y-96508523D01*
X169215000Y-113662082D02*
X170157082Y-112720000D01*
%TO.N,Net-(O5C-+)*%
X186547000Y-106022600D02*
X187757000Y-106022600D01*
X183439000Y-111910999D02*
X183889001Y-112361000D01*
X183889001Y-112361000D02*
X186381684Y-112361000D01*
X186381684Y-112361000D02*
X187757000Y-110985684D01*
X187757000Y-106022600D02*
X188595000Y-106022600D01*
X187757000Y-110985684D02*
X187757000Y-106022600D01*
X183439000Y-110936000D02*
X183439000Y-111910999D01*
%TO.N,Net-(O3D-+)*%
X169215000Y-110936000D02*
X169215000Y-109025082D01*
X186547000Y-102736600D02*
X186547000Y-102383000D01*
X169215000Y-109025082D02*
X170153000Y-108087082D01*
X186547000Y-102383000D02*
X185637000Y-101473000D01*
X186547000Y-103101600D02*
X188595000Y-103101600D01*
X170153000Y-103643000D02*
X171053000Y-102743000D01*
X170153000Y-108087082D02*
X170153000Y-103643000D01*
%TO.N,Net-(O3C-+)*%
X186547000Y-98402600D02*
X188595000Y-98402600D01*
X171755000Y-110936000D02*
X171755000Y-109354286D01*
X184574294Y-100375306D02*
X184574294Y-101612377D01*
X186547000Y-98402600D02*
X184574294Y-100375306D01*
%TO.N,Net-(O5D-+)*%
X186547000Y-95608600D02*
X188595000Y-95608600D01*
X174847562Y-103206438D02*
X174847562Y-103725526D01*
X185147600Y-97008000D02*
X181046000Y-97008000D01*
X180899000Y-109776964D02*
X180899000Y-110936000D01*
X186547000Y-95608600D02*
X185147600Y-97008000D01*
X181046000Y-97008000D02*
X174847562Y-103206438D01*
X174847562Y-103725526D02*
X180899000Y-109776964D01*
%TO.N,Net-(D2-K)*%
X178257200Y-60782200D02*
X179120800Y-61645800D01*
X178257200Y-60171600D02*
X178257200Y-60782200D01*
D43*
%TO.N,Net-(D3-K)*%
X175260000Y-45644800D02*
X175260001Y-45644799D01*
D45*
X171249200Y-49655600D02*
X175260001Y-45644799D01*
D43*
X175158400Y-45644800D02*
X175260000Y-45644800D01*
D45*
X166952352Y-49655600D02*
X171249200Y-49655600D01*
%TO.N,Net-(D4-A)*%
X174752400Y-39495600D02*
X167016661Y-39495600D01*
X175082200Y-39165800D02*
X174752400Y-39495600D01*
%TO.N,Net-(J1-PadT)*%
X93218000Y-103886000D02*
X88510000Y-108594000D01*
X93218000Y-102736000D02*
X93218000Y-103886000D01*
X88510000Y-108594000D02*
X86614000Y-108594000D01*
%TO.N,Net-(J2-PadT)*%
X105918000Y-90515000D02*
X105918000Y-104530000D01*
X105918000Y-104530000D02*
X101854000Y-108594000D01*
%TO.N,Net-(J3-PadT)*%
X116597648Y-108594000D02*
X110208000Y-102204352D01*
X109982000Y-94862000D02*
X109982000Y-98942000D01*
X110208000Y-102204352D02*
X110208000Y-99168000D01*
X109982000Y-98942000D02*
X110208000Y-99168000D01*
%TO.N,Net-(J4-PadT)*%
X93472000Y-121278000D02*
X93472000Y-125358000D01*
X93472000Y-125358000D02*
X92456000Y-126374000D01*
X92456000Y-126374000D02*
X86614000Y-126374000D01*
%TO.N,Net-(J5-PadT)*%
X109773000Y-111896000D02*
X105693000Y-111896000D01*
X105693000Y-111896000D02*
X105693000Y-122535000D01*
X105693000Y-122535000D02*
X101854000Y-126374000D01*
%TO.N,Net-(J6-PadT)*%
X116597648Y-126374000D02*
X111771648Y-126374000D01*
X111771648Y-126374000D02*
X109739648Y-124342000D01*
X109739648Y-124342000D02*
X109739648Y-123789000D01*
%TO.N,Net-(J7-PadT)*%
X100154342Y-27428000D02*
X99579648Y-27428000D01*
X107061000Y-30785215D02*
X104703785Y-28428000D01*
X104703785Y-28428000D02*
X101154342Y-28428000D01*
X101154342Y-28428000D02*
X100154342Y-27428000D01*
X107061000Y-32190800D02*
X107061000Y-30785215D01*
%TO.N,Net-(J8-PadT)*%
X96120648Y-32140000D02*
X97046648Y-31214000D01*
X97046648Y-31214000D02*
X100368342Y-31214000D01*
X100368342Y-31214000D02*
X101404342Y-30178000D01*
X101404342Y-30178000D02*
X103516648Y-30178000D01*
%TO.N,Net-(LED1-A)*%
X85349000Y-92356000D02*
X85739000Y-91966000D01*
X91456000Y-93383000D02*
X91456000Y-94116000D01*
X85349000Y-94116000D02*
X85349000Y-92356000D01*
X85739000Y-91966000D02*
X90039000Y-91966000D01*
X90039000Y-91966000D02*
X91456000Y-93383000D01*
%TO.N,Net-(LED2-A)*%
X95266000Y-90626694D02*
X98755306Y-94116000D01*
X98755306Y-94116000D02*
X100340824Y-94116000D01*
X95266000Y-90052000D02*
X95266000Y-90626694D01*
%TO.N,Net-(LED3-A)*%
X116581648Y-90306000D02*
X116581648Y-90880694D01*
X115581648Y-91880694D02*
X115581648Y-93867000D01*
X115581648Y-93867000D02*
X115332648Y-94116000D01*
X116581648Y-90880694D02*
X115581648Y-91880694D01*
%TO.N,Net-(LED4-A)*%
X90190000Y-112121000D02*
X88363000Y-112121000D01*
X91190000Y-111121000D02*
X90190000Y-112121000D01*
X88138000Y-111896000D02*
X87879000Y-111896000D01*
X93472000Y-111121000D02*
X91190000Y-111121000D01*
X88363000Y-112121000D02*
X88138000Y-111896000D01*
%TO.N,Net-(LED5-A)*%
X108458000Y-106308824D02*
X102870824Y-111896000D01*
X108458000Y-104993000D02*
X108458000Y-106308824D01*
%TO.N,Net-(LED6-A)*%
X115332648Y-111896000D02*
X115332648Y-112150000D01*
X110936000Y-114140000D02*
X109804200Y-115271800D01*
X113342648Y-114140000D02*
X110936000Y-114140000D01*
X115332648Y-112150000D02*
X113342648Y-114140000D01*
D44*
%TO.N,GP26*%
X187198000Y-52760999D02*
X185983999Y-53975000D01*
X187198000Y-47371000D02*
X187198000Y-52760999D01*
X185983999Y-53975000D02*
X185109000Y-53975000D01*
%TO.N,Net-(O1A--)*%
X184234001Y-52705000D02*
X183784000Y-53155001D01*
X194564200Y-109070297D02*
X191427497Y-112207000D01*
X185109000Y-52705000D02*
X185983999Y-52705000D01*
X186434000Y-48607000D02*
X185198000Y-47371000D01*
X191427497Y-112207000D02*
X188374161Y-112207000D01*
X188374161Y-112207000D02*
X187503000Y-113078161D01*
X187503000Y-113078161D02*
X187503000Y-116729000D01*
X183784000Y-53155001D02*
X183784000Y-54498000D01*
X184244143Y-54958143D02*
X184244143Y-79735792D01*
X187503000Y-116729000D02*
X190281000Y-119507000D01*
X185983999Y-52705000D02*
X186434000Y-52254999D01*
X194564200Y-90055849D02*
X194564200Y-109070297D01*
X185109000Y-52705000D02*
X184234001Y-52705000D01*
X184244143Y-79735792D02*
X194564200Y-90055849D01*
X183784000Y-54498000D02*
X184244143Y-54958143D01*
X186434000Y-52254999D02*
X186434000Y-48607000D01*
%TO.N,Net-(O3A--)*%
X168691000Y-119507000D02*
X167945000Y-118761000D01*
X168691000Y-119507000D02*
X170993000Y-119507000D01*
X167945000Y-118761000D02*
X167945000Y-115886000D01*
%TO.N,Net-(O3B--)*%
X176095082Y-114020000D02*
X173720000Y-114020000D01*
X177267000Y-116621684D02*
X177267000Y-115191918D01*
X173025000Y-115886000D02*
X173025000Y-116860999D01*
X177267000Y-115191918D02*
X176095082Y-114020000D01*
X173720000Y-114020000D02*
X173025000Y-114715000D01*
X173025000Y-116860999D02*
X175311000Y-119146999D01*
X177956316Y-117311000D02*
X177267000Y-116621684D01*
X179433000Y-117311000D02*
X177956316Y-117311000D01*
X173025000Y-114715000D02*
X173025000Y-115886000D01*
X181629000Y-119507000D02*
X179433000Y-117311000D01*
%TO.N,Net-(O3C--)*%
X169037000Y-98589600D02*
X169037000Y-95973600D01*
X171903000Y-101455600D02*
X171903000Y-103137235D01*
X170993000Y-100545600D02*
X169037000Y-98589600D01*
X170993000Y-100545600D02*
X171903000Y-101455600D01*
X171903000Y-103137235D02*
X170918057Y-104122178D01*
X170918057Y-104122178D02*
X170918057Y-107240057D01*
X170918057Y-107240057D02*
X173025000Y-109347000D01*
X173025000Y-109347000D02*
X173025000Y-110936000D01*
%TO.N,Net-(O3D--)*%
X165779000Y-107465000D02*
X166929000Y-106315000D01*
X166272316Y-112361000D02*
X165779000Y-111867684D01*
X166929000Y-104251000D02*
X166929000Y-106315000D01*
X167945000Y-110936000D02*
X167945000Y-111493684D01*
X167077684Y-112361000D02*
X166272316Y-112361000D01*
X167945000Y-111493684D02*
X167077684Y-112361000D01*
X165779000Y-111867684D02*
X165779000Y-107465000D01*
%TO.N,Net-(O5-Pad7)*%
X185979000Y-119507000D02*
X185979000Y-115886000D01*
X185979000Y-119507000D02*
X188281000Y-119507000D01*
%TO.N,Net-(O5C--)*%
X184709000Y-110936000D02*
X184709000Y-109961001D01*
X176657000Y-94421517D02*
X176657000Y-95123000D01*
X184258999Y-109511000D02*
X181640556Y-109511000D01*
X184709000Y-110936000D02*
X184709000Y-109948152D01*
X176657000Y-94421517D02*
X176657000Y-91849517D01*
X176657000Y-95123000D02*
X175768000Y-96012000D01*
X175790101Y-103682253D02*
X175790101Y-103465982D01*
X175790101Y-103660545D02*
X175790101Y-103465982D01*
X176657000Y-91849517D02*
X177657000Y-90849517D01*
X184709000Y-109961001D02*
X184258999Y-109511000D01*
X181640556Y-109511000D02*
X175790101Y-103660545D01*
X175833068Y-103725220D02*
X175790101Y-103682253D01*
%TO.N,Net-(O5D--)*%
X174355000Y-98559318D02*
X174597996Y-98802314D01*
X174355000Y-94421517D02*
X174355000Y-98559318D01*
X174590546Y-104670592D02*
X179629000Y-109709046D01*
X174590546Y-104669885D02*
X174590546Y-104670592D01*
X174355000Y-89849517D02*
X174355000Y-94421517D01*
X179629000Y-109709046D02*
X179629000Y-110936000D01*
D43*
%TO.N,GP22*%
X179959000Y-85598000D02*
X178308000Y-83947000D01*
X178308000Y-82931000D02*
X177608000Y-82931000D01*
X176858000Y-82181000D02*
X176858000Y-78920000D01*
X177768326Y-78009674D02*
X177768326Y-64632326D01*
X177768326Y-64632326D02*
X174096000Y-60960000D01*
X176858000Y-78920000D02*
X177768326Y-78009674D01*
X177608000Y-82931000D02*
X176858000Y-82181000D01*
X178308000Y-83947000D02*
X178308000Y-82931000D01*
X182339000Y-85598000D02*
X179959000Y-85598000D01*
D44*
%TO.N,GP21*%
X182339000Y-90678000D02*
X184413600Y-90678000D01*
%TO.N,GP20*%
X182339000Y-93218000D02*
X184397600Y-93218000D01*
%TO.N,GP16*%
X184547000Y-106022600D02*
X182443600Y-106022600D01*
%TO.N,GP17*%
X182339000Y-103378000D02*
X184270600Y-103378000D01*
%TO.N,GP18*%
X182339000Y-98298000D02*
X184442400Y-98298000D01*
%TO.N,GP19*%
X182339000Y-95758000D02*
X184397600Y-95758000D01*
D45*
%TO.N,Net-(R19-Pad2)*%
X100461500Y-71378500D02*
X96710000Y-75130000D01*
X92296642Y-74220001D02*
X88983999Y-74220001D01*
X96710000Y-75130000D02*
X93206641Y-75130000D01*
X88983999Y-74220001D02*
X87884000Y-75320000D01*
X93206641Y-75130000D02*
X92296642Y-74220001D01*
X102108000Y-54340000D02*
X102108000Y-56261000D01*
%TO.N,Net-(R20-Pad2)*%
X102235000Y-69986000D02*
X107594400Y-75345400D01*
X102235000Y-63112000D02*
X102235000Y-69986000D01*
D44*
%TO.N,Net-(O3B-+)*%
X174679321Y-113370000D02*
X172369000Y-113370000D01*
X183395000Y-94458600D02*
X183385600Y-94468000D01*
X176029661Y-109383672D02*
X176029661Y-112019660D01*
X171755000Y-113984000D02*
X171755000Y-115886000D01*
X185157000Y-94458600D02*
X183395000Y-94458600D01*
X180439000Y-95890233D02*
X180439000Y-96695761D01*
X172369000Y-113370000D02*
X171755000Y-113984000D01*
X173853000Y-103281761D02*
X173853000Y-103944950D01*
X172868057Y-104929893D02*
X172868057Y-106222068D01*
X186547000Y-93068600D02*
X188595000Y-93068600D01*
X173853000Y-103944950D02*
X172868057Y-104929893D01*
X186547000Y-93068600D02*
X185157000Y-94458600D01*
X180439000Y-96695761D02*
X173853000Y-103281761D01*
X181861233Y-94468000D02*
X180439000Y-95890233D01*
X176029661Y-112019660D02*
X174679321Y-113370000D01*
X172868057Y-106222068D02*
X176029661Y-109383672D01*
X183385600Y-94468000D02*
X181861233Y-94468000D01*
D45*
%TO.N,CJD*%
X83058000Y-60080000D02*
X83058000Y-50058648D01*
D43*
X169138600Y-60247800D02*
X164387800Y-60247800D01*
D45*
X95912296Y-29428000D02*
X99579648Y-29428000D01*
D43*
X170737800Y-60247800D02*
X169138600Y-60247800D01*
D45*
X83058000Y-50058648D02*
X94055648Y-39061000D01*
X94055648Y-31284648D02*
X95912296Y-29428000D01*
X94055648Y-39061000D02*
X94055648Y-31284648D01*
D43*
X172826000Y-62230000D02*
X172720000Y-62230000D01*
X172720000Y-62230000D02*
X170737800Y-60247800D01*
X164387800Y-60247800D02*
X164211000Y-60071000D01*
D45*
%TO.N,CK1*%
X109848592Y-55381000D02*
X111359400Y-53870192D01*
D44*
X176613473Y-71706005D02*
X176613473Y-72811014D01*
D45*
X95867432Y-64430000D02*
X102286432Y-58011000D01*
X90228271Y-64430000D02*
X95867432Y-64430000D01*
D44*
X164211000Y-65151000D02*
X170058468Y-65151000D01*
D45*
X83058000Y-65160000D02*
X89498271Y-65160000D01*
X102832874Y-58011000D02*
X105462874Y-55381000D01*
X89498271Y-65160000D02*
X90228271Y-64430000D01*
X105462874Y-55381000D02*
X109848592Y-55381000D01*
X111359400Y-53870192D02*
X111359400Y-52597400D01*
X102286432Y-58011000D02*
X102832874Y-58011000D01*
D44*
X170058468Y-65151000D02*
X176613473Y-71706005D01*
%TO.N,CK2*%
X171396386Y-67691000D02*
X175666400Y-71961014D01*
X164211000Y-67691000D02*
X171396386Y-67691000D01*
D45*
%TO.N,CJ1*%
X83058000Y-88020000D02*
X83906000Y-88020000D01*
X83906000Y-88020000D02*
X85852000Y-89966000D01*
D44*
X166675000Y-115886000D02*
X166675000Y-119491000D01*
X166675000Y-113741000D02*
X166675000Y-115886000D01*
D45*
X91833000Y-89966000D02*
X94742000Y-92875000D01*
D44*
X167005000Y-113411000D02*
X166675000Y-113741000D01*
D45*
X94742000Y-94116000D02*
X93218000Y-95640000D01*
X85852000Y-89966000D02*
X91833000Y-89966000D01*
D44*
X164211000Y-88011000D02*
X166097000Y-89897000D01*
X166097000Y-89897000D02*
X166097000Y-100003000D01*
D45*
X93218000Y-95640000D02*
X93218000Y-100736000D01*
D44*
X166097000Y-100003000D02*
X166551000Y-100457000D01*
D45*
X94742000Y-94116000D02*
X93456000Y-94116000D01*
X94742000Y-92875000D02*
X94742000Y-94116000D01*
D44*
%TO.N,CJ2*%
X177311000Y-118902000D02*
X174295000Y-115886000D01*
X169103000Y-105545956D02*
X169198522Y-105641478D01*
D45*
X97266000Y-90052000D02*
X97266000Y-88458000D01*
X97266000Y-88458000D02*
X96774000Y-87966000D01*
X86680428Y-87966000D02*
X96774000Y-87966000D01*
X84194428Y-85480000D02*
X86680428Y-87966000D01*
X83058000Y-85480000D02*
X84194428Y-85480000D01*
X105369000Y-87966000D02*
X105918000Y-88515000D01*
D44*
X164211000Y-85471000D02*
X166947000Y-88207000D01*
X166947000Y-88207000D02*
X166947000Y-97691078D01*
X166947000Y-97691078D02*
X169103000Y-99847078D01*
D45*
X96774000Y-87966000D02*
X105369000Y-87966000D01*
D44*
X177311000Y-119507000D02*
X177311000Y-118902000D01*
X169103000Y-99847078D02*
X169103000Y-105545956D01*
D45*
%TO.N,CJ3*%
X110501648Y-90306000D02*
X110501648Y-92342352D01*
X87508856Y-85966000D02*
X106150000Y-85966000D01*
X110490000Y-90306000D02*
X110501648Y-90306000D01*
D44*
X185979000Y-109093000D02*
X186487000Y-108585000D01*
D45*
X83058000Y-82940000D02*
X84482856Y-82940000D01*
X106150000Y-85966000D02*
X110490000Y-90306000D01*
X84482856Y-82940000D02*
X87508856Y-85966000D01*
D44*
X178657000Y-94421517D02*
X178657000Y-96356440D01*
D45*
X114581648Y-90306000D02*
X110501648Y-90306000D01*
D44*
X178657000Y-96356440D02*
X178638720Y-96374720D01*
D45*
X110501648Y-92342352D02*
X109982000Y-92862000D01*
D44*
X185979000Y-110936000D02*
X185979000Y-109093000D01*
D45*
%TO.N,CJ4*%
X93472000Y-113121000D02*
X93472000Y-117201000D01*
D44*
X166929000Y-110682000D02*
X166929000Y-108315000D01*
D45*
X88327284Y-83956000D02*
X84771284Y-80400000D01*
D44*
X166675000Y-110936000D02*
X166929000Y-110682000D01*
D45*
X93472000Y-119278000D02*
X93472000Y-117201000D01*
D44*
X164211000Y-80391000D02*
X167797000Y-83977000D01*
X167199000Y-108585000D02*
X166929000Y-108315000D01*
X168453000Y-108585000D02*
X167199000Y-108585000D01*
X167797000Y-83977000D02*
X167797000Y-96898985D01*
D45*
X84771284Y-80400000D02*
X83058000Y-80400000D01*
X93218000Y-83956000D02*
X88327284Y-83956000D01*
D44*
%TO.N,CJ5*%
X170277000Y-98529600D02*
X170277000Y-92379944D01*
X170277000Y-92379944D02*
X168901001Y-91003945D01*
X168901001Y-91003945D02*
X168901001Y-82541001D01*
X168901001Y-82541001D02*
X164211000Y-77851000D01*
X171755000Y-98529600D02*
X172553000Y-99327600D01*
D45*
X108458000Y-102993000D02*
X108458000Y-100063138D01*
X111773000Y-108288026D02*
X110507987Y-107023013D01*
D44*
X170977000Y-98529600D02*
X170277000Y-98529600D01*
X170277000Y-98529600D02*
X171755000Y-98529600D01*
X174295000Y-109487487D02*
X174295000Y-110936000D01*
X171568057Y-104391416D02*
X171568057Y-106760544D01*
X172553000Y-103406473D02*
X171568057Y-104391416D01*
X171568057Y-106760544D02*
X174295000Y-109487487D01*
X170993000Y-98545600D02*
X170977000Y-98529600D01*
D45*
X111773000Y-111896000D02*
X111773000Y-108288026D01*
X108458000Y-100063138D02*
X107968000Y-99573138D01*
D44*
X172553000Y-99327600D02*
X172553000Y-103406473D01*
%TO.N,CJ6*%
X169551002Y-80651002D02*
X169551002Y-89824692D01*
X178359000Y-110936000D02*
X178359000Y-109922917D01*
X173621000Y-95687517D02*
X173621000Y-99187000D01*
X170927000Y-92993517D02*
X172355000Y-94421517D01*
X172355000Y-94421517D02*
X173621000Y-95687517D01*
D45*
X109739648Y-121789000D02*
X109739648Y-117336352D01*
D44*
X170951001Y-91224691D02*
X170951001Y-93111082D01*
D45*
X99568000Y-79130000D02*
X99568000Y-79892000D01*
D44*
X164211000Y-75311000D02*
X169551002Y-80651002D01*
X178359000Y-109922917D02*
X173718057Y-105281975D01*
X169551002Y-89824692D02*
X170951001Y-91224691D01*
D45*
X109739648Y-117336352D02*
X109804200Y-117271800D01*
X99568000Y-79892000D02*
X103124000Y-83448000D01*
D44*
%TO.N,CJA*%
X193776800Y-91064038D02*
X183594143Y-80881381D01*
D45*
X103516648Y-32142000D02*
X103516648Y-36222000D01*
D44*
X193776800Y-108735578D02*
X193776800Y-91064038D01*
X184709000Y-115886000D02*
X184709000Y-114952922D01*
D45*
X83275000Y-62837000D02*
X88992843Y-62837000D01*
D44*
X180592888Y-71648000D02*
X180225592Y-72015296D01*
X176618826Y-68580000D02*
X174689548Y-68580000D01*
X183594143Y-72385376D02*
X182856767Y-71648000D01*
X188104922Y-111557000D02*
X190955378Y-111557000D01*
D45*
X90896648Y-60933195D02*
X90896648Y-56977560D01*
D44*
X168720548Y-62611000D02*
X164211000Y-62611000D01*
X174689548Y-68580000D02*
X168720548Y-62611000D01*
X184709000Y-114952922D02*
X188104922Y-111557000D01*
X183979000Y-119507000D02*
X184709000Y-118777000D01*
X182856767Y-71648000D02*
X180592888Y-71648000D01*
D45*
X99942648Y-36222000D02*
X85158000Y-51006648D01*
X88992843Y-62837000D02*
X90896648Y-60933195D01*
X90896648Y-56977560D02*
X85158000Y-51238912D01*
X85158000Y-51238912D02*
X85158000Y-51006648D01*
X83058000Y-62620000D02*
X83275000Y-62837000D01*
D44*
X184709000Y-118777000D02*
X184709000Y-115886000D01*
X190955378Y-111557000D02*
X193776800Y-108735578D01*
D45*
X103516648Y-36222000D02*
X99942648Y-36222000D01*
D44*
X183594143Y-80881381D02*
X183594143Y-72385376D01*
%TO.N,CS2*%
X190373000Y-79613000D02*
X192780500Y-79613000D01*
X164211000Y-72771000D02*
X172190438Y-72771000D01*
X196977000Y-76040000D02*
X200119000Y-72898000D01*
X193399500Y-78994000D02*
X194574500Y-80169000D01*
D45*
X102108000Y-52340000D02*
X101408000Y-52340000D01*
X91885124Y-68430000D02*
X94804634Y-68430000D01*
X100069648Y-53678352D02*
X100069648Y-54764000D01*
X87535125Y-72780000D02*
X91885124Y-68430000D01*
D44*
X196977000Y-80169000D02*
X196977000Y-76040000D01*
D45*
X101408000Y-52340000D02*
X100069648Y-53678352D01*
D44*
X190373000Y-79959016D02*
X191312984Y-80899000D01*
X172190438Y-72771000D02*
X176523000Y-77103562D01*
D45*
X83058000Y-72780000D02*
X87535125Y-72780000D01*
D44*
X192780500Y-79613000D02*
X193399500Y-78994000D01*
X194574500Y-80169000D02*
X196977000Y-80169000D01*
D45*
%TO.N,CS1*%
X83058000Y-70240000D02*
X87246697Y-70240000D01*
X97155000Y-65659000D02*
X97155000Y-65617306D01*
D44*
X190373000Y-73168000D02*
X192875500Y-73168000D01*
D45*
X97155000Y-65617306D02*
X101660306Y-61112000D01*
D44*
X195685500Y-70358000D02*
X200119000Y-70358000D01*
X190073000Y-73468000D02*
X190073000Y-73596770D01*
X164211000Y-70231000D02*
X171136918Y-70231000D01*
D45*
X101660306Y-61112000D02*
X102235000Y-61112000D01*
D44*
X176256932Y-75351014D02*
X176523000Y-75351014D01*
D45*
X91056697Y-66430000D02*
X96384000Y-66430000D01*
D44*
X193399500Y-72644000D02*
X195685500Y-70358000D01*
D45*
X87246697Y-70240000D02*
X91056697Y-66430000D01*
D44*
X171136918Y-70231000D02*
X176256932Y-75351014D01*
D45*
X96384000Y-66430000D02*
X97155000Y-65659000D01*
D44*
X192875500Y-73168000D02*
X193399500Y-72644000D01*
D43*
%TO.N,I2C_VCC*%
X180783938Y-67945000D02*
X180783938Y-54799938D01*
D45*
X89333582Y-50895066D02*
X89918648Y-50310000D01*
D44*
X191024000Y-75168000D02*
X192024000Y-74168000D01*
D43*
X179018326Y-80220674D02*
X179018326Y-69710612D01*
D46*
X189048000Y-74543000D02*
X189673000Y-75168000D01*
D45*
X108440000Y-50310000D02*
X108859400Y-50729400D01*
D43*
X179018326Y-69710612D02*
X180910938Y-67818000D01*
D44*
X191024000Y-75819000D02*
X190373000Y-75168000D01*
D43*
X180783938Y-67945000D02*
X180910938Y-67818000D01*
X178308000Y-80931000D02*
X179018326Y-80220674D01*
D44*
X193399500Y-75819000D02*
X191024000Y-75819000D01*
D46*
X194691000Y-50673000D02*
X194691000Y-62611000D01*
D43*
X193918766Y-50673000D02*
X194691000Y-50673000D01*
D45*
X108204000Y-43824000D02*
X107001919Y-43824000D01*
X106104000Y-50242000D02*
X106172000Y-50310000D01*
X89333582Y-52586066D02*
X89333582Y-50895066D01*
X106104000Y-44721919D02*
X106104000Y-50242000D01*
D44*
X190373000Y-75168000D02*
X191024000Y-75168000D01*
D43*
X180910938Y-67818000D02*
X182339000Y-67818000D01*
D46*
X189673000Y-75168000D02*
X190373000Y-75168000D01*
D45*
X89918648Y-50310000D02*
X106172000Y-50310000D01*
D44*
X190373000Y-75168000D02*
X190373000Y-77613000D01*
D43*
X180783938Y-54799938D02*
X179959000Y-53975000D01*
D46*
X194691000Y-62611000D02*
X189048000Y-68254000D01*
D43*
X192659000Y-31140400D02*
X192659000Y-49413234D01*
X194691000Y-50673000D02*
X195707000Y-50673000D01*
D45*
X108859400Y-50729400D02*
X108859400Y-52597400D01*
D46*
X189048000Y-68254000D02*
X189048000Y-74543000D01*
D45*
X106172000Y-50310000D02*
X108440000Y-50310000D01*
D43*
X192659000Y-49413234D02*
X193918766Y-50673000D01*
D45*
X107001919Y-43824000D02*
X106104000Y-44721919D01*
D43*
X195707000Y-50673000D02*
X199009000Y-47371000D01*
D45*
%TO.N,TPH VCC {slash} CPC SDA*%
X108966000Y-40522000D02*
X117838500Y-40522000D01*
X108204000Y-41284000D02*
X108966000Y-40522000D01*
X117838500Y-40522000D02*
X117869500Y-40553000D01*
D44*
%TO.N,TPH GND {slash} CPC SCL*%
X197739000Y-31140400D02*
X197739000Y-40703500D01*
X197739000Y-40703500D02*
X195389500Y-43053000D01*
D45*
X114211500Y-43062000D02*
X117838500Y-43062000D01*
X117838500Y-43062000D02*
X117869500Y-43093000D01*
D44*
%TO.N,TPH SDA {slash} CPC VCC*%
X193839500Y-39446556D02*
X193839500Y-44043000D01*
D45*
X108204000Y-46364000D02*
X112081919Y-46364000D01*
D44*
X193839500Y-44043000D02*
X195389500Y-45593000D01*
D45*
X112081919Y-46364000D02*
X112812919Y-45633000D01*
X112812919Y-45633000D02*
X117926600Y-45633000D01*
D44*
X195199000Y-38087056D02*
X193839500Y-39446556D01*
X195199000Y-31140400D02*
X195199000Y-38087056D01*
D45*
%TO.N,TPH SCL {slash} CPC GND*%
X114211500Y-48142000D02*
X117838500Y-48142000D01*
X117838500Y-48142000D02*
X117869500Y-48173000D01*
D44*
%TO.N,I2C_GND*%
X180779000Y-120657000D02*
X182289000Y-120657000D01*
X172355000Y-89849517D02*
X171891517Y-89849517D01*
D43*
X186330500Y-35216000D02*
X186330500Y-43053000D01*
X181885500Y-47371000D02*
X182315000Y-47371000D01*
D44*
X101454000Y-142012000D02*
X104648000Y-142012000D01*
X174143000Y-120657000D02*
X178479000Y-120657000D01*
D43*
X177651500Y-42037000D02*
X177905500Y-41783000D01*
X182773000Y-44557000D02*
X182713000Y-44617000D01*
D44*
X182929000Y-117983000D02*
X182929000Y-117288000D01*
X179629000Y-119507000D02*
X180779000Y-120657000D01*
D43*
X185109000Y-50165000D02*
X185109000Y-51435000D01*
X182315000Y-47371000D02*
X184185000Y-49241000D01*
D44*
X169037000Y-93973600D02*
X169037000Y-92837000D01*
D43*
X186330500Y-43053000D02*
X186330500Y-43836500D01*
D45*
X182880000Y-29803752D02*
X182880000Y-29535000D01*
D44*
X182929000Y-117288000D02*
X183439000Y-116778000D01*
X177114517Y-88849517D02*
X176403000Y-88138000D01*
X172993000Y-119507000D02*
X174143000Y-120657000D01*
X177657000Y-88849517D02*
X177114517Y-88849517D01*
D43*
X164897000Y-91680205D02*
X164897000Y-101321346D01*
D45*
X186641500Y-32052500D02*
X186330500Y-32363500D01*
D44*
X171891517Y-89849517D02*
X171069000Y-89027000D01*
D43*
X177905500Y-41783000D02*
X177905500Y-35941000D01*
X169138600Y-56947800D02*
X167158400Y-56947800D01*
X177905500Y-43053000D02*
X177905500Y-41783000D01*
D44*
X104807000Y-139580122D02*
X105425122Y-138962000D01*
X169037000Y-92837000D02*
X168783000Y-92583000D01*
D43*
X191059000Y-107072000D02*
X191268000Y-106863000D01*
X163951449Y-90734654D02*
X164897000Y-91680205D01*
X195474500Y-73914000D02*
X196977000Y-73914000D01*
D44*
X104807000Y-141853000D02*
X104648000Y-142012000D01*
X182289000Y-120657000D02*
X182929000Y-120017000D01*
D43*
X167158400Y-56947800D02*
X166852600Y-56642000D01*
X165826654Y-102251000D02*
X166929000Y-102251000D01*
D44*
X104648000Y-142012000D02*
X106172000Y-142012000D01*
D43*
X186330500Y-43836500D02*
X185610000Y-44557000D01*
X191268000Y-90062740D02*
X189343260Y-88138000D01*
D44*
X105425122Y-138962000D02*
X111967414Y-138962000D01*
D43*
X191268000Y-106022600D02*
X191268000Y-90528600D01*
D44*
X104807000Y-141853000D02*
X104807000Y-139580122D01*
D43*
X164897000Y-101321346D02*
X165826654Y-102251000D01*
D44*
X100965000Y-142501000D02*
X101454000Y-142012000D01*
D45*
X186330500Y-32363500D02*
X186330500Y-35941000D01*
D43*
X191268000Y-106022600D02*
X191268000Y-106863000D01*
X191268000Y-90528600D02*
X191268000Y-90062740D01*
X182713000Y-44617000D02*
X182713000Y-45511266D01*
X195474500Y-73914000D02*
X195474500Y-78994000D01*
X169545000Y-42037000D02*
X177651500Y-42037000D01*
D44*
X111967414Y-138962000D02*
X112776707Y-139771293D01*
X183439000Y-116778000D02*
X183439000Y-115886000D01*
D43*
X191059000Y-109855000D02*
X191059000Y-107072000D01*
D44*
X178479000Y-120657000D02*
X179629000Y-119507000D01*
D43*
X181885500Y-46338766D02*
X181885500Y-47371000D01*
X182713000Y-45511266D02*
X181885500Y-46338766D01*
X185610000Y-44557000D02*
X182773000Y-44557000D01*
X184185000Y-49241000D02*
X185109000Y-50165000D01*
X189343260Y-88138000D02*
X182339000Y-88138000D01*
D44*
X182929000Y-120017000D02*
X182929000Y-117983000D01*
%TO.N,GP3*%
X200563000Y-51337082D02*
X197569000Y-54331082D01*
X197569000Y-65268000D02*
X200119000Y-67818000D01*
X199263000Y-44831000D02*
X200563000Y-46131000D01*
X197569000Y-54331082D02*
X197569000Y-65268000D01*
X200563000Y-46131000D02*
X200563000Y-51337082D01*
%TO.N,+5V*%
X100584000Y-150664000D02*
X98536000Y-150664000D01*
D43*
X166014274Y-54579200D02*
X175991200Y-54579200D01*
X181463000Y-34646142D02*
X181463000Y-33675000D01*
X179810500Y-46646000D02*
X179810500Y-47371000D01*
X181463000Y-44993500D02*
X181463000Y-34646142D01*
X176653122Y-55241122D02*
X178257200Y-56845200D01*
X178257200Y-56845200D02*
X178257200Y-56871600D01*
D44*
X98536000Y-150664000D02*
X97536000Y-151664000D01*
D43*
X175991200Y-54579200D02*
X176653122Y-55241122D01*
X181463000Y-44993500D02*
X179810500Y-46646000D01*
D45*
X167016661Y-36955600D02*
X169556661Y-36955600D01*
D43*
X179810500Y-47371000D02*
X176653122Y-50528378D01*
X165352352Y-53917278D02*
X166014274Y-54579200D01*
X176653122Y-50528378D02*
X176653122Y-55241122D01*
X165352352Y-38453309D02*
X165352352Y-53917278D01*
X181463000Y-33675000D02*
X181610000Y-33528000D01*
X167016661Y-36789000D02*
X165352352Y-38453309D01*
%TO.N,~*%
X170485000Y-114173000D02*
X170485000Y-115886000D01*
D44*
X102651000Y-147651000D02*
X105664000Y-150664000D01*
D43*
X175133000Y-35815000D02*
X175133000Y-29591000D01*
X184255500Y-35941000D02*
X184255500Y-33450500D01*
D44*
X100965000Y-147651000D02*
X102651000Y-147651000D01*
D43*
X184255500Y-33450500D02*
X180340000Y-29535000D01*
X182967000Y-43053000D02*
X182713000Y-43307000D01*
D44*
X97155000Y-142501000D02*
X97155000Y-143375999D01*
D43*
X175082200Y-35865800D02*
X175133000Y-35815000D01*
X184255500Y-43053000D02*
X182967000Y-43053000D01*
X175133000Y-29591000D02*
X176143000Y-28581000D01*
X170739000Y-113919000D02*
X170485000Y-114173000D01*
X179386000Y-28581000D02*
X180340000Y-29535000D01*
X176143000Y-28581000D02*
X179386000Y-28581000D01*
X184255500Y-35941000D02*
X184255500Y-43053000D01*
D44*
X97155000Y-143375999D02*
X100965000Y-147185999D01*
%TO.N,GP1*%
X201863000Y-51875559D02*
X201863000Y-32724400D01*
X198869000Y-58948000D02*
X198869000Y-54869559D01*
X200119000Y-60198000D02*
X198869000Y-58948000D01*
X198869000Y-54869559D02*
X201863000Y-51875559D01*
X201863000Y-32724400D02*
X200279000Y-31140400D01*
%TO.N,GP0*%
X202707000Y-55070000D02*
X202707000Y-28836368D01*
X200921032Y-27050400D02*
X199289000Y-27050400D01*
X199289000Y-27050400D02*
X197739000Y-28600400D01*
X200119000Y-57658000D02*
X202707000Y-55070000D01*
X202707000Y-28836368D02*
X200921032Y-27050400D01*
%TO.N,GP2*%
X201213000Y-51606321D02*
X201213000Y-44241000D01*
X198219000Y-54600321D02*
X201213000Y-51606321D01*
X198219000Y-63378000D02*
X198219000Y-54600321D01*
X201213000Y-44241000D02*
X199263000Y-42291000D01*
X200119000Y-65278000D02*
X198219000Y-63378000D01*
D45*
%TO.N,Net-(J10-Pin_13)*%
X167016661Y-34415600D02*
X169556661Y-34415600D01*
%TO.N,Net-(J10-Pin_15)*%
X167016661Y-31875600D02*
X169556661Y-31875600D01*
D44*
%TO.N,Net-(U3-THR)*%
X103632000Y-139974500D02*
X101346501Y-139974500D01*
X94996000Y-143378000D02*
X96374001Y-144756001D01*
X98425000Y-146776001D02*
X96405000Y-144756001D01*
X96405000Y-141969000D02*
X94996000Y-143378000D01*
X96405000Y-141523316D02*
X96752316Y-141176000D01*
X96752316Y-141176000D02*
X99244999Y-141176000D01*
X101346501Y-139974500D02*
X99695000Y-141626001D01*
X96405000Y-141523316D02*
X96405000Y-141969000D01*
X96374001Y-144756001D02*
X96405000Y-144756001D01*
X99695000Y-141626001D02*
X99695000Y-142501000D01*
X98425000Y-147651000D02*
X98425000Y-146776001D01*
X99244999Y-141176000D02*
X99695000Y-141626001D01*
%TO.N,Net-(LED7-K)*%
X107322000Y-141162000D02*
X106172000Y-140012000D01*
X105918000Y-147066000D02*
X107322000Y-145662000D01*
X107322000Y-145662000D02*
X107322000Y-141162000D01*
%TO.N,Net-(LED7-A)*%
X104509000Y-143117000D02*
X102575122Y-143117000D01*
X101918816Y-143773306D02*
X101918816Y-146452500D01*
X101918816Y-146452500D02*
X98425000Y-142958684D01*
X102575122Y-143117000D02*
X101918816Y-143773306D01*
X103124000Y-146452500D02*
X101918816Y-146452500D01*
X105918000Y-144526000D02*
X104509000Y-143117000D01*
%TO.N,Net-(U3-DIS)*%
X99695000Y-148525999D02*
X98556999Y-149664000D01*
X94996000Y-147824000D02*
X94996000Y-145624000D01*
X97536000Y-149664000D02*
X96836000Y-149664000D01*
X96836000Y-149664000D02*
X94996000Y-147824000D01*
X99695000Y-147651000D02*
X99695000Y-148525999D01*
X98556999Y-149664000D02*
X97536000Y-149664000D01*
%TO.N,Net-(C18-Pad1)*%
X104299000Y-147987000D02*
X105676000Y-149364000D01*
X104299000Y-145552500D02*
X104299000Y-147987000D01*
X110969414Y-149364000D02*
X112776707Y-151171293D01*
X103124000Y-144377500D02*
X104299000Y-145552500D01*
X105676000Y-149364000D02*
X110969414Y-149364000D01*
%TD*%
M02*
