%TF.GenerationSoftware,KiCad,Pcbnew,7.0.9*%
%TF.CreationDate,2024-01-14T22:47:39+01:00*%
%TF.ProjectId,euroPI-kicad_surfacemount_discretes_and_ics,6575726f-5049-42d6-9b69-6361645f7375,rev?*%
%TF.SameCoordinates,Original*%
%TF.FileFunction,Paste,Top*%
%TF.FilePolarity,Positive*%
%FSLAX46Y46*%
G04 Gerber Fmt 4.6, Leading zero omitted, Abs format (unit mm)*
G04 Created by KiCad (PCBNEW 7.0.9) date 2024-01-14 22:47:39*
%MOMM*%
%LPD*%
G01*
G04 APERTURE LIST*
G04 Aperture macros list*
%AMRoundRect*
0 Rectangle with rounded corners*
0 $1 Rounding radius*
0 $2 $3 $4 $5 $6 $7 $8 $9 X,Y pos of 4 corners*
0 Add a 4 corners polygon primitive as box body*
4,1,4,$2,$3,$4,$5,$6,$7,$8,$9,$2,$3,0*
0 Add four circle primitives for the rounded corners*
1,1,$1+$1,$2,$3*
1,1,$1+$1,$4,$5*
1,1,$1+$1,$6,$7*
1,1,$1+$1,$8,$9*
0 Add four rect primitives between the rounded corners*
20,1,$1+$1,$2,$3,$4,$5,0*
20,1,$1+$1,$4,$5,$6,$7,0*
20,1,$1+$1,$6,$7,$8,$9,0*
20,1,$1+$1,$8,$9,$2,$3,0*%
G04 Aperture macros list end*
%ADD10RoundRect,0.150000X0.150000X-0.825000X0.150000X0.825000X-0.150000X0.825000X-0.150000X-0.825000X0*%
%ADD11RoundRect,0.250000X-0.350000X-0.450000X0.350000X-0.450000X0.350000X0.450000X-0.350000X0.450000X0*%
%ADD12RoundRect,0.250000X-0.450000X0.350000X-0.450000X-0.350000X0.450000X-0.350000X0.450000X0.350000X0*%
%ADD13RoundRect,0.250000X0.350000X0.450000X-0.350000X0.450000X-0.350000X-0.450000X0.350000X-0.450000X0*%
%ADD14RoundRect,0.250000X0.450000X-0.350000X0.450000X0.350000X-0.450000X0.350000X-0.450000X-0.350000X0*%
%ADD15RoundRect,0.250000X0.475000X-0.337500X0.475000X0.337500X-0.475000X0.337500X-0.475000X-0.337500X0*%
%ADD16RoundRect,0.150000X-0.150000X0.725000X-0.150000X-0.725000X0.150000X-0.725000X0.150000X0.725000X0*%
%ADD17RoundRect,0.225000X-0.375000X0.225000X-0.375000X-0.225000X0.375000X-0.225000X0.375000X0.225000X0*%
%ADD18RoundRect,0.250000X-0.337500X-0.475000X0.337500X-0.475000X0.337500X0.475000X-0.337500X0.475000X0*%
%ADD19RoundRect,0.225000X0.375000X-0.225000X0.375000X0.225000X-0.375000X0.225000X-0.375000X-0.225000X0*%
%ADD20RoundRect,0.250000X-0.475000X0.337500X-0.475000X-0.337500X0.475000X-0.337500X0.475000X0.337500X0*%
%ADD21RoundRect,0.250000X0.337500X0.475000X-0.337500X0.475000X-0.337500X-0.475000X0.337500X-0.475000X0*%
G04 APERTURE END LIST*
D10*
%TO.C,O3*%
X167276000Y-147866000D03*
X168546000Y-147866000D03*
X169816000Y-147866000D03*
X171086000Y-147866000D03*
X172356000Y-147866000D03*
X173626000Y-147866000D03*
X174896000Y-147866000D03*
X174896000Y-142916000D03*
X173626000Y-142916000D03*
X172356000Y-142916000D03*
X171086000Y-142916000D03*
X169816000Y-142916000D03*
X168546000Y-142916000D03*
X167276000Y-142916000D03*
%TD*%
D11*
%TO.C,R21*%
X185029600Y-152146000D03*
X187029600Y-152146000D03*
%TD*%
D12*
%TO.C,R16*%
X93472000Y-111121000D03*
X93472000Y-113121000D03*
%TD*%
D13*
%TO.C,R24*%
X193580000Y-102362000D03*
X195580000Y-102362000D03*
%TD*%
%TO.C,R6*%
X187148000Y-127588600D03*
X185148000Y-127588600D03*
%TD*%
D14*
%TO.C,R17*%
X108458000Y-104993000D03*
X108458000Y-102993000D03*
%TD*%
D12*
%TO.C,R20*%
X102235000Y-61112000D03*
X102235000Y-63112000D03*
%TD*%
D15*
%TO.C,C1*%
X185674000Y-99314000D03*
X185674000Y-97239000D03*
%TD*%
D12*
%TO.C,R41*%
X106172000Y-140012000D03*
X106172000Y-142012000D03*
%TD*%
D13*
%TO.C,R30*%
X181746400Y-152146000D03*
X179746400Y-152146000D03*
%TD*%
D12*
%TO.C,R26*%
X178909000Y-112911000D03*
X178909000Y-114911000D03*
%TD*%
D11*
%TO.C,R22*%
X188882000Y-151487000D03*
X190882000Y-151487000D03*
%TD*%
D16*
%TO.C,U3*%
X100965000Y-142501000D03*
X99695000Y-142501000D03*
X98425000Y-142501000D03*
X97155000Y-142501000D03*
X97155000Y-147651000D03*
X98425000Y-147651000D03*
X99695000Y-147651000D03*
X100965000Y-147651000D03*
%TD*%
D11*
%TO.C,R13*%
X91456000Y-94116000D03*
X93456000Y-94116000D03*
%TD*%
D14*
%TO.C,R31*%
X178054000Y-121904000D03*
X178054000Y-119904000D03*
%TD*%
D17*
%TO.C,D2*%
X178858200Y-88851600D03*
X178858200Y-92151600D03*
%TD*%
D18*
%TO.C,C16*%
X178506500Y-73382000D03*
X180581500Y-73382000D03*
%TD*%
D13*
%TO.C,R11*%
X111773000Y-111896000D03*
X109773000Y-111896000D03*
%TD*%
D18*
%TO.C,C3*%
X171267500Y-150090000D03*
X173342500Y-150090000D03*
%TD*%
D12*
%TO.C,Rx1*%
X97536000Y-149680000D03*
X97536000Y-151680000D03*
%TD*%
D11*
%TO.C,R23*%
X185799000Y-77700000D03*
X187799000Y-77700000D03*
%TD*%
D16*
%TO.C,O1*%
X186021000Y-81002000D03*
X184751000Y-81002000D03*
X183481000Y-81002000D03*
X182211000Y-81002000D03*
X182211000Y-86152000D03*
X183481000Y-86152000D03*
X184751000Y-86152000D03*
X186021000Y-86152000D03*
%TD*%
D12*
%TO.C,R18*%
X109804200Y-115271800D03*
X109804200Y-117271800D03*
%TD*%
D11*
%TO.C,R29*%
X167241000Y-151360000D03*
X169241000Y-151360000D03*
%TD*%
D18*
%TO.C,C11*%
X189794000Y-138002600D03*
X191869000Y-138002600D03*
%TD*%
%TO.C,C14*%
X189794000Y-127588600D03*
X191869000Y-127588600D03*
%TD*%
D19*
%TO.C,D3*%
X175759400Y-80924800D03*
X175759400Y-77624800D03*
%TD*%
D13*
%TO.C,R37*%
X179258000Y-124968000D03*
X177258000Y-124968000D03*
%TD*%
D17*
%TO.C,D1*%
X169739600Y-88927800D03*
X169739600Y-92227800D03*
%TD*%
D13*
%TO.C,R1*%
X187164000Y-122508600D03*
X185164000Y-122508600D03*
%TD*%
D12*
%TO.C,R19*%
X102108000Y-52340000D03*
X102108000Y-54340000D03*
%TD*%
D19*
%TO.C,D4*%
X175683200Y-71145800D03*
X175683200Y-67845800D03*
%TD*%
D18*
%TO.C,C2*%
X180411500Y-77700000D03*
X182486500Y-77700000D03*
%TD*%
D20*
%TO.C,C18*%
X103124000Y-144377500D03*
X103124000Y-146452500D03*
%TD*%
D18*
%TO.C,C5*%
X182189500Y-150090000D03*
X184264500Y-150090000D03*
%TD*%
D13*
%TO.C,R5*%
X187148000Y-130382600D03*
X185148000Y-130382600D03*
%TD*%
D18*
%TO.C,C12*%
X189794000Y-135081600D03*
X191869000Y-135081600D03*
%TD*%
D14*
%TO.C,R32*%
X167530000Y-136231000D03*
X167530000Y-134231000D03*
%TD*%
D12*
%TO.C,R8*%
X105918000Y-88515000D03*
X105918000Y-90515000D03*
%TD*%
%TO.C,R28*%
X99568000Y-31512000D03*
X99568000Y-33512000D03*
%TD*%
%TO.C,R10*%
X93472000Y-119278000D03*
X93472000Y-121278000D03*
%TD*%
D10*
%TO.C,O5*%
X178960000Y-147866000D03*
X180230000Y-147866000D03*
X181500000Y-147866000D03*
X182770000Y-147866000D03*
X184040000Y-147866000D03*
X185310000Y-147866000D03*
X186580000Y-147866000D03*
X186580000Y-142916000D03*
X185310000Y-142916000D03*
X184040000Y-142916000D03*
X182770000Y-142916000D03*
X181500000Y-142916000D03*
X180230000Y-142916000D03*
X178960000Y-142916000D03*
%TD*%
D13*
%TO.C,R2*%
X187148000Y-125048600D03*
X185148000Y-125048600D03*
%TD*%
D21*
%TO.C,C4*%
X173364000Y-140184000D03*
X171289000Y-140184000D03*
%TD*%
D14*
%TO.C,R27*%
X103632000Y-33512000D03*
X103632000Y-31512000D03*
%TD*%
D13*
%TO.C,R36*%
X177912000Y-151487000D03*
X175912000Y-151487000D03*
%TD*%
%TO.C,R25*%
X193564000Y-104902000D03*
X195564000Y-104902000D03*
%TD*%
D18*
%TO.C,C10*%
X189794000Y-125048600D03*
X191869000Y-125048600D03*
%TD*%
D12*
%TO.C,R9*%
X109982000Y-92862000D03*
X109982000Y-94862000D03*
%TD*%
D18*
%TO.C,C13*%
X189794000Y-130382600D03*
X191869000Y-130382600D03*
%TD*%
D12*
%TO.C,R7*%
X93218000Y-100736000D03*
X93218000Y-102736000D03*
%TD*%
D20*
%TO.C,C7*%
X197866000Y-106955500D03*
X197866000Y-104880500D03*
%TD*%
D14*
%TO.C,R34*%
X175006000Y-121904000D03*
X175006000Y-119904000D03*
%TD*%
D18*
%TO.C,C15*%
X184856500Y-73382000D03*
X186931500Y-73382000D03*
%TD*%
D13*
%TO.C,R3*%
X187148000Y-138002600D03*
X185148000Y-138002600D03*
%TD*%
%TO.C,R4*%
X187148000Y-135081600D03*
X185148000Y-135081600D03*
%TD*%
D12*
%TO.C,R39*%
X171594000Y-130525600D03*
X171594000Y-132525600D03*
%TD*%
D18*
%TO.C,C9*%
X189794000Y-122508600D03*
X191869000Y-122508600D03*
%TD*%
D15*
%TO.C,C17*%
X103632000Y-142079500D03*
X103632000Y-140004500D03*
%TD*%
D11*
%TO.C,R40*%
X172990000Y-124968000D03*
X174990000Y-124968000D03*
%TD*%
D12*
%TO.C,R12*%
X109739648Y-121789000D03*
X109739648Y-123789000D03*
%TD*%
D14*
%TO.C,R38*%
X167530000Y-140295000D03*
X167530000Y-138295000D03*
%TD*%
D12*
%TO.C,R35*%
X165320000Y-149963000D03*
X165320000Y-151963000D03*
%TD*%
D11*
%TO.C,R14*%
X95266000Y-90052000D03*
X97266000Y-90052000D03*
%TD*%
D15*
%TO.C,C8*%
X197866000Y-100308500D03*
X197866000Y-102383500D03*
%TD*%
D13*
%TO.C,R15*%
X116581648Y-90306000D03*
X114581648Y-90306000D03*
%TD*%
D21*
%TO.C,C6*%
X184751000Y-140539600D03*
X182676000Y-140539600D03*
%TD*%
D14*
%TO.C,R33*%
X169638000Y-127953600D03*
X169638000Y-125953600D03*
%TD*%
M02*
