%TF.GenerationSoftware,KiCad,Pcbnew,7.0.9*%
%TF.CreationDate,2023-11-28T21:36:15+01:00*%
%TF.ProjectId,euroPi-kicad,6575726f-5069-42d6-9b69-6361642e6b69,rev?*%
%TF.SameCoordinates,Original*%
%TF.FileFunction,Legend,Bot*%
%TF.FilePolarity,Positive*%
%FSLAX46Y46*%
G04 Gerber Fmt 4.6, Leading zero omitted, Abs format (unit mm)*
G04 Created by KiCad (PCBNEW 7.0.9) date 2023-11-28 21:36:15*
%MOMM*%
%LPD*%
G01*
G04 APERTURE LIST*
%ADD10C,0.300000*%
%ADD11C,0.150000*%
%ADD12C,0.100000*%
%ADD13C,0.120000*%
G04 APERTURE END LIST*
D10*
X81280000Y-145415000D02*
X121716800Y-145415000D01*
X162560000Y-25665000D02*
X162560000Y-153670000D01*
X121920000Y-25665000D02*
X121920000Y-153670000D01*
X81381600Y-137679000D02*
X121818400Y-137679000D01*
X162560000Y-33909000D02*
X203073000Y-33909000D01*
X122110500Y-76835000D02*
X162623500Y-76835000D01*
X81280000Y-33909000D02*
X121793000Y-33909000D01*
X121920000Y-96266000D02*
X162433000Y-96266000D01*
X162560000Y-145415000D02*
X202996800Y-145415000D01*
D11*
X148620952Y-59600866D02*
X148192381Y-59600866D01*
X148620952Y-59362771D02*
X148049524Y-59362771D01*
X147906667Y-59886580D02*
X147954286Y-59934200D01*
X147954286Y-59934200D02*
X148097143Y-59981819D01*
X148097143Y-59981819D02*
X148192381Y-59981819D01*
X148192381Y-59981819D02*
X148335238Y-59934200D01*
X148335238Y-59934200D02*
X148430476Y-59838961D01*
X148430476Y-59838961D02*
X148478095Y-59743723D01*
X148478095Y-59743723D02*
X148525714Y-59553247D01*
X148525714Y-59553247D02*
X148525714Y-59410390D01*
X148525714Y-59410390D02*
X148478095Y-59219914D01*
X148478095Y-59219914D02*
X148430476Y-59124676D01*
X148430476Y-59124676D02*
X148335238Y-59029438D01*
X148335238Y-59029438D02*
X148192381Y-58981819D01*
X148192381Y-58981819D02*
X148097143Y-58981819D01*
X148097143Y-58981819D02*
X147954286Y-59029438D01*
X147954286Y-59029438D02*
X147906667Y-59077057D01*
X146954286Y-59315152D02*
X146954286Y-59981819D01*
X147287619Y-59315152D02*
X147287619Y-59838961D01*
X147287619Y-59838961D02*
X147335238Y-59934200D01*
X147335238Y-59934200D02*
X147430476Y-59981819D01*
X146763810Y-59315152D02*
X147382857Y-59315152D01*
X147382857Y-59315152D02*
X147478095Y-59362771D01*
X147478095Y-59362771D02*
X147525714Y-59458009D01*
X145287619Y-59458009D02*
X145620952Y-59458009D01*
X145620952Y-59981819D02*
X145620952Y-58981819D01*
X145620952Y-58981819D02*
X145144762Y-58981819D01*
X144192381Y-59981819D02*
X144525714Y-59505628D01*
X144763809Y-59981819D02*
X144763809Y-58981819D01*
X144763809Y-58981819D02*
X144382857Y-58981819D01*
X144382857Y-58981819D02*
X144287619Y-59029438D01*
X144287619Y-59029438D02*
X144240000Y-59077057D01*
X144240000Y-59077057D02*
X144192381Y-59172295D01*
X144192381Y-59172295D02*
X144192381Y-59315152D01*
X144192381Y-59315152D02*
X144240000Y-59410390D01*
X144240000Y-59410390D02*
X144287619Y-59458009D01*
X144287619Y-59458009D02*
X144382857Y-59505628D01*
X144382857Y-59505628D02*
X144763809Y-59505628D01*
X143573333Y-58981819D02*
X143382857Y-58981819D01*
X143382857Y-58981819D02*
X143287619Y-59029438D01*
X143287619Y-59029438D02*
X143192381Y-59124676D01*
X143192381Y-59124676D02*
X143144762Y-59315152D01*
X143144762Y-59315152D02*
X143144762Y-59648485D01*
X143144762Y-59648485D02*
X143192381Y-59838961D01*
X143192381Y-59838961D02*
X143287619Y-59934200D01*
X143287619Y-59934200D02*
X143382857Y-59981819D01*
X143382857Y-59981819D02*
X143573333Y-59981819D01*
X143573333Y-59981819D02*
X143668571Y-59934200D01*
X143668571Y-59934200D02*
X143763809Y-59838961D01*
X143763809Y-59838961D02*
X143811428Y-59648485D01*
X143811428Y-59648485D02*
X143811428Y-59315152D01*
X143811428Y-59315152D02*
X143763809Y-59124676D01*
X143763809Y-59124676D02*
X143668571Y-59029438D01*
X143668571Y-59029438D02*
X143573333Y-58981819D01*
X142716190Y-59981819D02*
X142716190Y-58981819D01*
X142716190Y-58981819D02*
X142144762Y-59981819D01*
X142144762Y-59981819D02*
X142144762Y-58981819D01*
X141811428Y-58981819D02*
X141240000Y-58981819D01*
X141525714Y-59981819D02*
X141525714Y-58981819D01*
X140144761Y-59981819D02*
X140144761Y-58981819D01*
X140144761Y-58981819D02*
X139763809Y-58981819D01*
X139763809Y-58981819D02*
X139668571Y-59029438D01*
X139668571Y-59029438D02*
X139620952Y-59077057D01*
X139620952Y-59077057D02*
X139573333Y-59172295D01*
X139573333Y-59172295D02*
X139573333Y-59315152D01*
X139573333Y-59315152D02*
X139620952Y-59410390D01*
X139620952Y-59410390D02*
X139668571Y-59458009D01*
X139668571Y-59458009D02*
X139763809Y-59505628D01*
X139763809Y-59505628D02*
X140144761Y-59505628D01*
X139192380Y-59696104D02*
X138716190Y-59696104D01*
X139287618Y-59981819D02*
X138954285Y-58981819D01*
X138954285Y-58981819D02*
X138620952Y-59981819D01*
X138287618Y-59981819D02*
X138287618Y-58981819D01*
X138287618Y-58981819D02*
X137716190Y-59981819D01*
X137716190Y-59981819D02*
X137716190Y-58981819D01*
X137239999Y-59458009D02*
X136906666Y-59458009D01*
X136763809Y-59981819D02*
X137239999Y-59981819D01*
X137239999Y-59981819D02*
X137239999Y-58981819D01*
X137239999Y-58981819D02*
X136763809Y-58981819D01*
X135859047Y-59981819D02*
X136335237Y-59981819D01*
X136335237Y-59981819D02*
X136335237Y-58981819D01*
X145930476Y-61068009D02*
X145787619Y-61115628D01*
X145787619Y-61115628D02*
X145740000Y-61163247D01*
X145740000Y-61163247D02*
X145692381Y-61258485D01*
X145692381Y-61258485D02*
X145692381Y-61401342D01*
X145692381Y-61401342D02*
X145740000Y-61496580D01*
X145740000Y-61496580D02*
X145787619Y-61544200D01*
X145787619Y-61544200D02*
X145882857Y-61591819D01*
X145882857Y-61591819D02*
X146263809Y-61591819D01*
X146263809Y-61591819D02*
X146263809Y-60591819D01*
X146263809Y-60591819D02*
X145930476Y-60591819D01*
X145930476Y-60591819D02*
X145835238Y-60639438D01*
X145835238Y-60639438D02*
X145787619Y-60687057D01*
X145787619Y-60687057D02*
X145740000Y-60782295D01*
X145740000Y-60782295D02*
X145740000Y-60877533D01*
X145740000Y-60877533D02*
X145787619Y-60972771D01*
X145787619Y-60972771D02*
X145835238Y-61020390D01*
X145835238Y-61020390D02*
X145930476Y-61068009D01*
X145930476Y-61068009D02*
X146263809Y-61068009D01*
X145311428Y-61306104D02*
X144835238Y-61306104D01*
X145406666Y-61591819D02*
X145073333Y-60591819D01*
X145073333Y-60591819D02*
X144740000Y-61591819D01*
X143835238Y-61496580D02*
X143882857Y-61544200D01*
X143882857Y-61544200D02*
X144025714Y-61591819D01*
X144025714Y-61591819D02*
X144120952Y-61591819D01*
X144120952Y-61591819D02*
X144263809Y-61544200D01*
X144263809Y-61544200D02*
X144359047Y-61448961D01*
X144359047Y-61448961D02*
X144406666Y-61353723D01*
X144406666Y-61353723D02*
X144454285Y-61163247D01*
X144454285Y-61163247D02*
X144454285Y-61020390D01*
X144454285Y-61020390D02*
X144406666Y-60829914D01*
X144406666Y-60829914D02*
X144359047Y-60734676D01*
X144359047Y-60734676D02*
X144263809Y-60639438D01*
X144263809Y-60639438D02*
X144120952Y-60591819D01*
X144120952Y-60591819D02*
X144025714Y-60591819D01*
X144025714Y-60591819D02*
X143882857Y-60639438D01*
X143882857Y-60639438D02*
X143835238Y-60687057D01*
X143406666Y-61591819D02*
X143406666Y-60591819D01*
X142835238Y-61591819D02*
X143263809Y-61020390D01*
X142835238Y-60591819D02*
X143406666Y-61163247D01*
X140978094Y-60925152D02*
X140739999Y-61591819D01*
X140739999Y-61591819D02*
X140501904Y-60925152D01*
X139597142Y-61591819D02*
X140168570Y-61591819D01*
X139882856Y-61591819D02*
X139882856Y-60591819D01*
X139882856Y-60591819D02*
X139978094Y-60734676D01*
X139978094Y-60734676D02*
X140073332Y-60829914D01*
X140073332Y-60829914D02*
X140168570Y-60877533D01*
X139168570Y-61496580D02*
X139120951Y-61544200D01*
X139120951Y-61544200D02*
X139168570Y-61591819D01*
X139168570Y-61591819D02*
X139216189Y-61544200D01*
X139216189Y-61544200D02*
X139168570Y-61496580D01*
X139168570Y-61496580D02*
X139168570Y-61591819D01*
X138501904Y-60591819D02*
X138406666Y-60591819D01*
X138406666Y-60591819D02*
X138311428Y-60639438D01*
X138311428Y-60639438D02*
X138263809Y-60687057D01*
X138263809Y-60687057D02*
X138216190Y-60782295D01*
X138216190Y-60782295D02*
X138168571Y-60972771D01*
X138168571Y-60972771D02*
X138168571Y-61210866D01*
X138168571Y-61210866D02*
X138216190Y-61401342D01*
X138216190Y-61401342D02*
X138263809Y-61496580D01*
X138263809Y-61496580D02*
X138311428Y-61544200D01*
X138311428Y-61544200D02*
X138406666Y-61591819D01*
X138406666Y-61591819D02*
X138501904Y-61591819D01*
X138501904Y-61591819D02*
X138597142Y-61544200D01*
X138597142Y-61544200D02*
X138644761Y-61496580D01*
X138644761Y-61496580D02*
X138692380Y-61401342D01*
X138692380Y-61401342D02*
X138739999Y-61210866D01*
X138739999Y-61210866D02*
X138739999Y-60972771D01*
X138739999Y-60972771D02*
X138692380Y-60782295D01*
X138692380Y-60782295D02*
X138644761Y-60687057D01*
X138644761Y-60687057D02*
X138597142Y-60639438D01*
X138597142Y-60639438D02*
X138501904Y-60591819D01*
X106385713Y-63410866D02*
X105957142Y-63410866D01*
X106385713Y-63172771D02*
X105814285Y-63172771D01*
X105671428Y-63696580D02*
X105719047Y-63744200D01*
X105719047Y-63744200D02*
X105861904Y-63791819D01*
X105861904Y-63791819D02*
X105957142Y-63791819D01*
X105957142Y-63791819D02*
X106099999Y-63744200D01*
X106099999Y-63744200D02*
X106195237Y-63648961D01*
X106195237Y-63648961D02*
X106242856Y-63553723D01*
X106242856Y-63553723D02*
X106290475Y-63363247D01*
X106290475Y-63363247D02*
X106290475Y-63220390D01*
X106290475Y-63220390D02*
X106242856Y-63029914D01*
X106242856Y-63029914D02*
X106195237Y-62934676D01*
X106195237Y-62934676D02*
X106099999Y-62839438D01*
X106099999Y-62839438D02*
X105957142Y-62791819D01*
X105957142Y-62791819D02*
X105861904Y-62791819D01*
X105861904Y-62791819D02*
X105719047Y-62839438D01*
X105719047Y-62839438D02*
X105671428Y-62887057D01*
X104719047Y-63125152D02*
X104719047Y-63791819D01*
X105052380Y-63125152D02*
X105052380Y-63648961D01*
X105052380Y-63648961D02*
X105099999Y-63744200D01*
X105099999Y-63744200D02*
X105195237Y-63791819D01*
X104528571Y-63125152D02*
X105147618Y-63125152D01*
X105147618Y-63125152D02*
X105242856Y-63172771D01*
X105242856Y-63172771D02*
X105290475Y-63268009D01*
X103385713Y-62791819D02*
X103385713Y-63601342D01*
X103385713Y-63601342D02*
X103338094Y-63696580D01*
X103338094Y-63696580D02*
X103290475Y-63744200D01*
X103290475Y-63744200D02*
X103195237Y-63791819D01*
X103195237Y-63791819D02*
X103004761Y-63791819D01*
X103004761Y-63791819D02*
X102909523Y-63744200D01*
X102909523Y-63744200D02*
X102861904Y-63696580D01*
X102861904Y-63696580D02*
X102814285Y-63601342D01*
X102814285Y-63601342D02*
X102814285Y-62791819D01*
X102338094Y-63791819D02*
X102338094Y-62791819D01*
X101099999Y-63791819D02*
X101099999Y-62791819D01*
X101099999Y-62791819D02*
X100719047Y-62791819D01*
X100719047Y-62791819D02*
X100623809Y-62839438D01*
X100623809Y-62839438D02*
X100576190Y-62887057D01*
X100576190Y-62887057D02*
X100528571Y-62982295D01*
X100528571Y-62982295D02*
X100528571Y-63125152D01*
X100528571Y-63125152D02*
X100576190Y-63220390D01*
X100576190Y-63220390D02*
X100623809Y-63268009D01*
X100623809Y-63268009D02*
X100719047Y-63315628D01*
X100719047Y-63315628D02*
X101099999Y-63315628D01*
X100147618Y-63506104D02*
X99671428Y-63506104D01*
X100242856Y-63791819D02*
X99909523Y-62791819D01*
X99909523Y-62791819D02*
X99576190Y-63791819D01*
X99242856Y-63791819D02*
X99242856Y-62791819D01*
X99242856Y-62791819D02*
X98671428Y-63791819D01*
X98671428Y-63791819D02*
X98671428Y-62791819D01*
X98195237Y-63268009D02*
X97861904Y-63268009D01*
X97719047Y-63791819D02*
X98195237Y-63791819D01*
X98195237Y-63791819D02*
X98195237Y-62791819D01*
X98195237Y-62791819D02*
X97719047Y-62791819D01*
X96814285Y-63791819D02*
X97290475Y-63791819D01*
X97290475Y-63791819D02*
X97290475Y-62791819D01*
X105290476Y-64878009D02*
X105147619Y-64925628D01*
X105147619Y-64925628D02*
X105100000Y-64973247D01*
X105100000Y-64973247D02*
X105052381Y-65068485D01*
X105052381Y-65068485D02*
X105052381Y-65211342D01*
X105052381Y-65211342D02*
X105100000Y-65306580D01*
X105100000Y-65306580D02*
X105147619Y-65354200D01*
X105147619Y-65354200D02*
X105242857Y-65401819D01*
X105242857Y-65401819D02*
X105623809Y-65401819D01*
X105623809Y-65401819D02*
X105623809Y-64401819D01*
X105623809Y-64401819D02*
X105290476Y-64401819D01*
X105290476Y-64401819D02*
X105195238Y-64449438D01*
X105195238Y-64449438D02*
X105147619Y-64497057D01*
X105147619Y-64497057D02*
X105100000Y-64592295D01*
X105100000Y-64592295D02*
X105100000Y-64687533D01*
X105100000Y-64687533D02*
X105147619Y-64782771D01*
X105147619Y-64782771D02*
X105195238Y-64830390D01*
X105195238Y-64830390D02*
X105290476Y-64878009D01*
X105290476Y-64878009D02*
X105623809Y-64878009D01*
X104671428Y-65116104D02*
X104195238Y-65116104D01*
X104766666Y-65401819D02*
X104433333Y-64401819D01*
X104433333Y-64401819D02*
X104100000Y-65401819D01*
X103195238Y-65306580D02*
X103242857Y-65354200D01*
X103242857Y-65354200D02*
X103385714Y-65401819D01*
X103385714Y-65401819D02*
X103480952Y-65401819D01*
X103480952Y-65401819D02*
X103623809Y-65354200D01*
X103623809Y-65354200D02*
X103719047Y-65258961D01*
X103719047Y-65258961D02*
X103766666Y-65163723D01*
X103766666Y-65163723D02*
X103814285Y-64973247D01*
X103814285Y-64973247D02*
X103814285Y-64830390D01*
X103814285Y-64830390D02*
X103766666Y-64639914D01*
X103766666Y-64639914D02*
X103719047Y-64544676D01*
X103719047Y-64544676D02*
X103623809Y-64449438D01*
X103623809Y-64449438D02*
X103480952Y-64401819D01*
X103480952Y-64401819D02*
X103385714Y-64401819D01*
X103385714Y-64401819D02*
X103242857Y-64449438D01*
X103242857Y-64449438D02*
X103195238Y-64497057D01*
X102766666Y-65401819D02*
X102766666Y-64401819D01*
X102195238Y-65401819D02*
X102623809Y-64830390D01*
X102195238Y-64401819D02*
X102766666Y-64973247D01*
X100338094Y-64735152D02*
X100099999Y-65401819D01*
X100099999Y-65401819D02*
X99861904Y-64735152D01*
X98957142Y-65401819D02*
X99528570Y-65401819D01*
X99242856Y-65401819D02*
X99242856Y-64401819D01*
X99242856Y-64401819D02*
X99338094Y-64544676D01*
X99338094Y-64544676D02*
X99433332Y-64639914D01*
X99433332Y-64639914D02*
X99528570Y-64687533D01*
X98528570Y-65306580D02*
X98480951Y-65354200D01*
X98480951Y-65354200D02*
X98528570Y-65401819D01*
X98528570Y-65401819D02*
X98576189Y-65354200D01*
X98576189Y-65354200D02*
X98528570Y-65306580D01*
X98528570Y-65306580D02*
X98528570Y-65401819D01*
X97861904Y-64401819D02*
X97766666Y-64401819D01*
X97766666Y-64401819D02*
X97671428Y-64449438D01*
X97671428Y-64449438D02*
X97623809Y-64497057D01*
X97623809Y-64497057D02*
X97576190Y-64592295D01*
X97576190Y-64592295D02*
X97528571Y-64782771D01*
X97528571Y-64782771D02*
X97528571Y-65020866D01*
X97528571Y-65020866D02*
X97576190Y-65211342D01*
X97576190Y-65211342D02*
X97623809Y-65306580D01*
X97623809Y-65306580D02*
X97671428Y-65354200D01*
X97671428Y-65354200D02*
X97766666Y-65401819D01*
X97766666Y-65401819D02*
X97861904Y-65401819D01*
X97861904Y-65401819D02*
X97957142Y-65354200D01*
X97957142Y-65354200D02*
X98004761Y-65306580D01*
X98004761Y-65306580D02*
X98052380Y-65211342D01*
X98052380Y-65211342D02*
X98099999Y-65020866D01*
X98099999Y-65020866D02*
X98099999Y-64782771D01*
X98099999Y-64782771D02*
X98052380Y-64592295D01*
X98052380Y-64592295D02*
X98004761Y-64497057D01*
X98004761Y-64497057D02*
X97957142Y-64449438D01*
X97957142Y-64449438D02*
X97861904Y-64401819D01*
X193745713Y-57314866D02*
X193317142Y-57314866D01*
X193745713Y-57076771D02*
X193174285Y-57076771D01*
X193031428Y-57600580D02*
X193079047Y-57648200D01*
X193079047Y-57648200D02*
X193221904Y-57695819D01*
X193221904Y-57695819D02*
X193317142Y-57695819D01*
X193317142Y-57695819D02*
X193459999Y-57648200D01*
X193459999Y-57648200D02*
X193555237Y-57552961D01*
X193555237Y-57552961D02*
X193602856Y-57457723D01*
X193602856Y-57457723D02*
X193650475Y-57267247D01*
X193650475Y-57267247D02*
X193650475Y-57124390D01*
X193650475Y-57124390D02*
X193602856Y-56933914D01*
X193602856Y-56933914D02*
X193555237Y-56838676D01*
X193555237Y-56838676D02*
X193459999Y-56743438D01*
X193459999Y-56743438D02*
X193317142Y-56695819D01*
X193317142Y-56695819D02*
X193221904Y-56695819D01*
X193221904Y-56695819D02*
X193079047Y-56743438D01*
X193079047Y-56743438D02*
X193031428Y-56791057D01*
X192079047Y-57029152D02*
X192079047Y-57695819D01*
X192412380Y-57029152D02*
X192412380Y-57552961D01*
X192412380Y-57552961D02*
X192459999Y-57648200D01*
X192459999Y-57648200D02*
X192555237Y-57695819D01*
X191888571Y-57029152D02*
X192507618Y-57029152D01*
X192507618Y-57029152D02*
X192602856Y-57076771D01*
X192602856Y-57076771D02*
X192650475Y-57172009D01*
X190745713Y-57695819D02*
X190745713Y-56695819D01*
X190745713Y-56695819D02*
X190412380Y-57410104D01*
X190412380Y-57410104D02*
X190079047Y-56695819D01*
X190079047Y-56695819D02*
X190079047Y-57695819D01*
X189650475Y-57410104D02*
X189174285Y-57410104D01*
X189745713Y-57695819D02*
X189412380Y-56695819D01*
X189412380Y-56695819D02*
X189079047Y-57695819D01*
X188745713Y-57695819D02*
X188745713Y-56695819D01*
X188269523Y-57695819D02*
X188269523Y-56695819D01*
X188269523Y-56695819D02*
X187698095Y-57695819D01*
X187698095Y-57695819D02*
X187698095Y-56695819D01*
X186459999Y-57695819D02*
X186459999Y-56695819D01*
X186459999Y-56695819D02*
X186079047Y-56695819D01*
X186079047Y-56695819D02*
X185983809Y-56743438D01*
X185983809Y-56743438D02*
X185936190Y-56791057D01*
X185936190Y-56791057D02*
X185888571Y-56886295D01*
X185888571Y-56886295D02*
X185888571Y-57029152D01*
X185888571Y-57029152D02*
X185936190Y-57124390D01*
X185936190Y-57124390D02*
X185983809Y-57172009D01*
X185983809Y-57172009D02*
X186079047Y-57219628D01*
X186079047Y-57219628D02*
X186459999Y-57219628D01*
X185507618Y-57410104D02*
X185031428Y-57410104D01*
X185602856Y-57695819D02*
X185269523Y-56695819D01*
X185269523Y-56695819D02*
X184936190Y-57695819D01*
X184602856Y-57695819D02*
X184602856Y-56695819D01*
X184602856Y-56695819D02*
X184031428Y-57695819D01*
X184031428Y-57695819D02*
X184031428Y-56695819D01*
X183555237Y-57172009D02*
X183221904Y-57172009D01*
X183079047Y-57695819D02*
X183555237Y-57695819D01*
X183555237Y-57695819D02*
X183555237Y-56695819D01*
X183555237Y-56695819D02*
X183079047Y-56695819D01*
X182174285Y-57695819D02*
X182650475Y-57695819D01*
X182650475Y-57695819D02*
X182650475Y-56695819D01*
X191650476Y-58782009D02*
X191507619Y-58829628D01*
X191507619Y-58829628D02*
X191460000Y-58877247D01*
X191460000Y-58877247D02*
X191412381Y-58972485D01*
X191412381Y-58972485D02*
X191412381Y-59115342D01*
X191412381Y-59115342D02*
X191460000Y-59210580D01*
X191460000Y-59210580D02*
X191507619Y-59258200D01*
X191507619Y-59258200D02*
X191602857Y-59305819D01*
X191602857Y-59305819D02*
X191983809Y-59305819D01*
X191983809Y-59305819D02*
X191983809Y-58305819D01*
X191983809Y-58305819D02*
X191650476Y-58305819D01*
X191650476Y-58305819D02*
X191555238Y-58353438D01*
X191555238Y-58353438D02*
X191507619Y-58401057D01*
X191507619Y-58401057D02*
X191460000Y-58496295D01*
X191460000Y-58496295D02*
X191460000Y-58591533D01*
X191460000Y-58591533D02*
X191507619Y-58686771D01*
X191507619Y-58686771D02*
X191555238Y-58734390D01*
X191555238Y-58734390D02*
X191650476Y-58782009D01*
X191650476Y-58782009D02*
X191983809Y-58782009D01*
X191031428Y-59020104D02*
X190555238Y-59020104D01*
X191126666Y-59305819D02*
X190793333Y-58305819D01*
X190793333Y-58305819D02*
X190460000Y-59305819D01*
X189555238Y-59210580D02*
X189602857Y-59258200D01*
X189602857Y-59258200D02*
X189745714Y-59305819D01*
X189745714Y-59305819D02*
X189840952Y-59305819D01*
X189840952Y-59305819D02*
X189983809Y-59258200D01*
X189983809Y-59258200D02*
X190079047Y-59162961D01*
X190079047Y-59162961D02*
X190126666Y-59067723D01*
X190126666Y-59067723D02*
X190174285Y-58877247D01*
X190174285Y-58877247D02*
X190174285Y-58734390D01*
X190174285Y-58734390D02*
X190126666Y-58543914D01*
X190126666Y-58543914D02*
X190079047Y-58448676D01*
X190079047Y-58448676D02*
X189983809Y-58353438D01*
X189983809Y-58353438D02*
X189840952Y-58305819D01*
X189840952Y-58305819D02*
X189745714Y-58305819D01*
X189745714Y-58305819D02*
X189602857Y-58353438D01*
X189602857Y-58353438D02*
X189555238Y-58401057D01*
X189126666Y-59305819D02*
X189126666Y-58305819D01*
X188555238Y-59305819D02*
X188983809Y-58734390D01*
X188555238Y-58305819D02*
X189126666Y-58877247D01*
X186698094Y-58639152D02*
X186459999Y-59305819D01*
X186459999Y-59305819D02*
X186221904Y-58639152D01*
X185317142Y-59305819D02*
X185888570Y-59305819D01*
X185602856Y-59305819D02*
X185602856Y-58305819D01*
X185602856Y-58305819D02*
X185698094Y-58448676D01*
X185698094Y-58448676D02*
X185793332Y-58543914D01*
X185793332Y-58543914D02*
X185888570Y-58591533D01*
X184888570Y-59210580D02*
X184840951Y-59258200D01*
X184840951Y-59258200D02*
X184888570Y-59305819D01*
X184888570Y-59305819D02*
X184936189Y-59258200D01*
X184936189Y-59258200D02*
X184888570Y-59210580D01*
X184888570Y-59210580D02*
X184888570Y-59305819D01*
X184221904Y-58305819D02*
X184126666Y-58305819D01*
X184126666Y-58305819D02*
X184031428Y-58353438D01*
X184031428Y-58353438D02*
X183983809Y-58401057D01*
X183983809Y-58401057D02*
X183936190Y-58496295D01*
X183936190Y-58496295D02*
X183888571Y-58686771D01*
X183888571Y-58686771D02*
X183888571Y-58924866D01*
X183888571Y-58924866D02*
X183936190Y-59115342D01*
X183936190Y-59115342D02*
X183983809Y-59210580D01*
X183983809Y-59210580D02*
X184031428Y-59258200D01*
X184031428Y-59258200D02*
X184126666Y-59305819D01*
X184126666Y-59305819D02*
X184221904Y-59305819D01*
X184221904Y-59305819D02*
X184317142Y-59258200D01*
X184317142Y-59258200D02*
X184364761Y-59210580D01*
X184364761Y-59210580D02*
X184412380Y-59115342D01*
X184412380Y-59115342D02*
X184459999Y-58924866D01*
X184459999Y-58924866D02*
X184459999Y-58686771D01*
X184459999Y-58686771D02*
X184412380Y-58496295D01*
X184412380Y-58496295D02*
X184364761Y-58401057D01*
X184364761Y-58401057D02*
X184317142Y-58353438D01*
X184317142Y-58353438D02*
X184221904Y-58305819D01*
D12*
X138909323Y-138189719D02*
X138909323Y-138904004D01*
X138909323Y-138904004D02*
X138956942Y-139046861D01*
X138956942Y-139046861D02*
X139052180Y-139142100D01*
X139052180Y-139142100D02*
X139195037Y-139189719D01*
X139195037Y-139189719D02*
X139290275Y-139189719D01*
X137909323Y-139189719D02*
X138480751Y-139189719D01*
X138195037Y-139189719D02*
X138195037Y-138189719D01*
X138195037Y-138189719D02*
X138290275Y-138332576D01*
X138290275Y-138332576D02*
X138385513Y-138427814D01*
X138385513Y-138427814D02*
X138480751Y-138475433D01*
X137575989Y-138189719D02*
X136956942Y-138189719D01*
X136956942Y-138189719D02*
X137290275Y-138570671D01*
X137290275Y-138570671D02*
X137147418Y-138570671D01*
X137147418Y-138570671D02*
X137052180Y-138618290D01*
X137052180Y-138618290D02*
X137004561Y-138665909D01*
X137004561Y-138665909D02*
X136956942Y-138761147D01*
X136956942Y-138761147D02*
X136956942Y-138999242D01*
X136956942Y-138999242D02*
X137004561Y-139094480D01*
X137004561Y-139094480D02*
X137052180Y-139142100D01*
X137052180Y-139142100D02*
X137147418Y-139189719D01*
X137147418Y-139189719D02*
X137433132Y-139189719D01*
X137433132Y-139189719D02*
X137528370Y-139142100D01*
X137528370Y-139142100D02*
X137575989Y-139094480D01*
X190924628Y-50321468D02*
X190924628Y-49978611D01*
X190324628Y-50150039D02*
X190924628Y-50150039D01*
X190324628Y-49778610D02*
X190924628Y-49778610D01*
X190924628Y-49778610D02*
X190924628Y-49550039D01*
X190924628Y-49550039D02*
X190896057Y-49492896D01*
X190896057Y-49492896D02*
X190867485Y-49464325D01*
X190867485Y-49464325D02*
X190810342Y-49435753D01*
X190810342Y-49435753D02*
X190724628Y-49435753D01*
X190724628Y-49435753D02*
X190667485Y-49464325D01*
X190667485Y-49464325D02*
X190638914Y-49492896D01*
X190638914Y-49492896D02*
X190610342Y-49550039D01*
X190610342Y-49550039D02*
X190610342Y-49778610D01*
X190324628Y-49178610D02*
X190924628Y-49178610D01*
X190638914Y-49178610D02*
X190638914Y-48835753D01*
X190324628Y-48835753D02*
X190924628Y-48835753D01*
X190381771Y-48550039D02*
X190353200Y-48521468D01*
X190353200Y-48521468D02*
X190324628Y-48550039D01*
X190324628Y-48550039D02*
X190353200Y-48578611D01*
X190353200Y-48578611D02*
X190381771Y-48550039D01*
X190381771Y-48550039D02*
X190324628Y-48550039D01*
X190696057Y-48550039D02*
X190667485Y-48521468D01*
X190667485Y-48521468D02*
X190638914Y-48550039D01*
X190638914Y-48550039D02*
X190667485Y-48578611D01*
X190667485Y-48578611D02*
X190696057Y-48550039D01*
X190696057Y-48550039D02*
X190638914Y-48550039D01*
X190924628Y-47892897D02*
X190324628Y-47692897D01*
X190324628Y-47692897D02*
X190924628Y-47492897D01*
X190381771Y-46950039D02*
X190353200Y-46978611D01*
X190353200Y-46978611D02*
X190324628Y-47064325D01*
X190324628Y-47064325D02*
X190324628Y-47121468D01*
X190324628Y-47121468D02*
X190353200Y-47207182D01*
X190353200Y-47207182D02*
X190410342Y-47264325D01*
X190410342Y-47264325D02*
X190467485Y-47292896D01*
X190467485Y-47292896D02*
X190581771Y-47321468D01*
X190581771Y-47321468D02*
X190667485Y-47321468D01*
X190667485Y-47321468D02*
X190781771Y-47292896D01*
X190781771Y-47292896D02*
X190838914Y-47264325D01*
X190838914Y-47264325D02*
X190896057Y-47207182D01*
X190896057Y-47207182D02*
X190924628Y-47121468D01*
X190924628Y-47121468D02*
X190924628Y-47064325D01*
X190924628Y-47064325D02*
X190896057Y-46978611D01*
X190896057Y-46978611D02*
X190867485Y-46950039D01*
X190381771Y-46350039D02*
X190353200Y-46378611D01*
X190353200Y-46378611D02*
X190324628Y-46464325D01*
X190324628Y-46464325D02*
X190324628Y-46521468D01*
X190324628Y-46521468D02*
X190353200Y-46607182D01*
X190353200Y-46607182D02*
X190410342Y-46664325D01*
X190410342Y-46664325D02*
X190467485Y-46692896D01*
X190467485Y-46692896D02*
X190581771Y-46721468D01*
X190581771Y-46721468D02*
X190667485Y-46721468D01*
X190667485Y-46721468D02*
X190781771Y-46692896D01*
X190781771Y-46692896D02*
X190838914Y-46664325D01*
X190838914Y-46664325D02*
X190896057Y-46607182D01*
X190896057Y-46607182D02*
X190924628Y-46521468D01*
X190924628Y-46521468D02*
X190924628Y-46464325D01*
X190924628Y-46464325D02*
X190896057Y-46378611D01*
X190896057Y-46378611D02*
X190867485Y-46350039D01*
X190353200Y-46064325D02*
X190324628Y-46064325D01*
X190324628Y-46064325D02*
X190267485Y-46092896D01*
X190267485Y-46092896D02*
X190238914Y-46121468D01*
X190896057Y-45035754D02*
X190924628Y-45092897D01*
X190924628Y-45092897D02*
X190924628Y-45178611D01*
X190924628Y-45178611D02*
X190896057Y-45264325D01*
X190896057Y-45264325D02*
X190838914Y-45321468D01*
X190838914Y-45321468D02*
X190781771Y-45350039D01*
X190781771Y-45350039D02*
X190667485Y-45378611D01*
X190667485Y-45378611D02*
X190581771Y-45378611D01*
X190581771Y-45378611D02*
X190467485Y-45350039D01*
X190467485Y-45350039D02*
X190410342Y-45321468D01*
X190410342Y-45321468D02*
X190353200Y-45264325D01*
X190353200Y-45264325D02*
X190324628Y-45178611D01*
X190324628Y-45178611D02*
X190324628Y-45121468D01*
X190324628Y-45121468D02*
X190353200Y-45035754D01*
X190353200Y-45035754D02*
X190381771Y-45007182D01*
X190381771Y-45007182D02*
X190581771Y-45007182D01*
X190581771Y-45007182D02*
X190581771Y-45121468D01*
X190324628Y-44750039D02*
X190924628Y-44750039D01*
X190924628Y-44750039D02*
X190324628Y-44407182D01*
X190324628Y-44407182D02*
X190924628Y-44407182D01*
X190324628Y-44121468D02*
X190924628Y-44121468D01*
X190924628Y-44121468D02*
X190924628Y-43978611D01*
X190924628Y-43978611D02*
X190896057Y-43892897D01*
X190896057Y-43892897D02*
X190838914Y-43835754D01*
X190838914Y-43835754D02*
X190781771Y-43807183D01*
X190781771Y-43807183D02*
X190667485Y-43778611D01*
X190667485Y-43778611D02*
X190581771Y-43778611D01*
X190581771Y-43778611D02*
X190467485Y-43807183D01*
X190467485Y-43807183D02*
X190410342Y-43835754D01*
X190410342Y-43835754D02*
X190353200Y-43892897D01*
X190353200Y-43892897D02*
X190324628Y-43978611D01*
X190324628Y-43978611D02*
X190324628Y-44121468D01*
X190353200Y-43492897D02*
X190324628Y-43492897D01*
X190324628Y-43492897D02*
X190267485Y-43521468D01*
X190267485Y-43521468D02*
X190238914Y-43550040D01*
X190353200Y-42807183D02*
X190324628Y-42721469D01*
X190324628Y-42721469D02*
X190324628Y-42578611D01*
X190324628Y-42578611D02*
X190353200Y-42521469D01*
X190353200Y-42521469D02*
X190381771Y-42492897D01*
X190381771Y-42492897D02*
X190438914Y-42464326D01*
X190438914Y-42464326D02*
X190496057Y-42464326D01*
X190496057Y-42464326D02*
X190553200Y-42492897D01*
X190553200Y-42492897D02*
X190581771Y-42521469D01*
X190581771Y-42521469D02*
X190610342Y-42578611D01*
X190610342Y-42578611D02*
X190638914Y-42692897D01*
X190638914Y-42692897D02*
X190667485Y-42750040D01*
X190667485Y-42750040D02*
X190696057Y-42778611D01*
X190696057Y-42778611D02*
X190753200Y-42807183D01*
X190753200Y-42807183D02*
X190810342Y-42807183D01*
X190810342Y-42807183D02*
X190867485Y-42778611D01*
X190867485Y-42778611D02*
X190896057Y-42750040D01*
X190896057Y-42750040D02*
X190924628Y-42692897D01*
X190924628Y-42692897D02*
X190924628Y-42550040D01*
X190924628Y-42550040D02*
X190896057Y-42464326D01*
X190324628Y-42207182D02*
X190924628Y-42207182D01*
X190924628Y-42207182D02*
X190924628Y-42064325D01*
X190924628Y-42064325D02*
X190896057Y-41978611D01*
X190896057Y-41978611D02*
X190838914Y-41921468D01*
X190838914Y-41921468D02*
X190781771Y-41892897D01*
X190781771Y-41892897D02*
X190667485Y-41864325D01*
X190667485Y-41864325D02*
X190581771Y-41864325D01*
X190581771Y-41864325D02*
X190467485Y-41892897D01*
X190467485Y-41892897D02*
X190410342Y-41921468D01*
X190410342Y-41921468D02*
X190353200Y-41978611D01*
X190353200Y-41978611D02*
X190324628Y-42064325D01*
X190324628Y-42064325D02*
X190324628Y-42207182D01*
X190496057Y-41635754D02*
X190496057Y-41350040D01*
X190324628Y-41692897D02*
X190924628Y-41492897D01*
X190924628Y-41492897D02*
X190324628Y-41292897D01*
X190353200Y-41064325D02*
X190324628Y-41064325D01*
X190324628Y-41064325D02*
X190267485Y-41092896D01*
X190267485Y-41092896D02*
X190238914Y-41121468D01*
X190353200Y-40378611D02*
X190324628Y-40292897D01*
X190324628Y-40292897D02*
X190324628Y-40150039D01*
X190324628Y-40150039D02*
X190353200Y-40092897D01*
X190353200Y-40092897D02*
X190381771Y-40064325D01*
X190381771Y-40064325D02*
X190438914Y-40035754D01*
X190438914Y-40035754D02*
X190496057Y-40035754D01*
X190496057Y-40035754D02*
X190553200Y-40064325D01*
X190553200Y-40064325D02*
X190581771Y-40092897D01*
X190581771Y-40092897D02*
X190610342Y-40150039D01*
X190610342Y-40150039D02*
X190638914Y-40264325D01*
X190638914Y-40264325D02*
X190667485Y-40321468D01*
X190667485Y-40321468D02*
X190696057Y-40350039D01*
X190696057Y-40350039D02*
X190753200Y-40378611D01*
X190753200Y-40378611D02*
X190810342Y-40378611D01*
X190810342Y-40378611D02*
X190867485Y-40350039D01*
X190867485Y-40350039D02*
X190896057Y-40321468D01*
X190896057Y-40321468D02*
X190924628Y-40264325D01*
X190924628Y-40264325D02*
X190924628Y-40121468D01*
X190924628Y-40121468D02*
X190896057Y-40035754D01*
X190381771Y-39435753D02*
X190353200Y-39464325D01*
X190353200Y-39464325D02*
X190324628Y-39550039D01*
X190324628Y-39550039D02*
X190324628Y-39607182D01*
X190324628Y-39607182D02*
X190353200Y-39692896D01*
X190353200Y-39692896D02*
X190410342Y-39750039D01*
X190410342Y-39750039D02*
X190467485Y-39778610D01*
X190467485Y-39778610D02*
X190581771Y-39807182D01*
X190581771Y-39807182D02*
X190667485Y-39807182D01*
X190667485Y-39807182D02*
X190781771Y-39778610D01*
X190781771Y-39778610D02*
X190838914Y-39750039D01*
X190838914Y-39750039D02*
X190896057Y-39692896D01*
X190896057Y-39692896D02*
X190924628Y-39607182D01*
X190924628Y-39607182D02*
X190924628Y-39550039D01*
X190924628Y-39550039D02*
X190896057Y-39464325D01*
X190896057Y-39464325D02*
X190867485Y-39435753D01*
X190324628Y-38892896D02*
X190324628Y-39178610D01*
X190324628Y-39178610D02*
X190924628Y-39178610D01*
X190953200Y-37807182D02*
X190181771Y-38321468D01*
X193083628Y-36224468D02*
X193083628Y-35881611D01*
X192483628Y-36053039D02*
X193083628Y-36053039D01*
X192483628Y-35681610D02*
X193083628Y-35681610D01*
X193083628Y-35681610D02*
X193083628Y-35453039D01*
X193083628Y-35453039D02*
X193055057Y-35395896D01*
X193055057Y-35395896D02*
X193026485Y-35367325D01*
X193026485Y-35367325D02*
X192969342Y-35338753D01*
X192969342Y-35338753D02*
X192883628Y-35338753D01*
X192883628Y-35338753D02*
X192826485Y-35367325D01*
X192826485Y-35367325D02*
X192797914Y-35395896D01*
X192797914Y-35395896D02*
X192769342Y-35453039D01*
X192769342Y-35453039D02*
X192769342Y-35681610D01*
X192483628Y-35081610D02*
X193083628Y-35081610D01*
X192797914Y-35081610D02*
X192797914Y-34738753D01*
X192483628Y-34738753D02*
X193083628Y-34738753D01*
X192512200Y-34024468D02*
X192483628Y-33938754D01*
X192483628Y-33938754D02*
X192483628Y-33795896D01*
X192483628Y-33795896D02*
X192512200Y-33738754D01*
X192512200Y-33738754D02*
X192540771Y-33710182D01*
X192540771Y-33710182D02*
X192597914Y-33681611D01*
X192597914Y-33681611D02*
X192655057Y-33681611D01*
X192655057Y-33681611D02*
X192712200Y-33710182D01*
X192712200Y-33710182D02*
X192740771Y-33738754D01*
X192740771Y-33738754D02*
X192769342Y-33795896D01*
X192769342Y-33795896D02*
X192797914Y-33910182D01*
X192797914Y-33910182D02*
X192826485Y-33967325D01*
X192826485Y-33967325D02*
X192855057Y-33995896D01*
X192855057Y-33995896D02*
X192912200Y-34024468D01*
X192912200Y-34024468D02*
X192969342Y-34024468D01*
X192969342Y-34024468D02*
X193026485Y-33995896D01*
X193026485Y-33995896D02*
X193055057Y-33967325D01*
X193055057Y-33967325D02*
X193083628Y-33910182D01*
X193083628Y-33910182D02*
X193083628Y-33767325D01*
X193083628Y-33767325D02*
X193055057Y-33681611D01*
X192540771Y-33081610D02*
X192512200Y-33110182D01*
X192512200Y-33110182D02*
X192483628Y-33195896D01*
X192483628Y-33195896D02*
X192483628Y-33253039D01*
X192483628Y-33253039D02*
X192512200Y-33338753D01*
X192512200Y-33338753D02*
X192569342Y-33395896D01*
X192569342Y-33395896D02*
X192626485Y-33424467D01*
X192626485Y-33424467D02*
X192740771Y-33453039D01*
X192740771Y-33453039D02*
X192826485Y-33453039D01*
X192826485Y-33453039D02*
X192940771Y-33424467D01*
X192940771Y-33424467D02*
X192997914Y-33395896D01*
X192997914Y-33395896D02*
X193055057Y-33338753D01*
X193055057Y-33338753D02*
X193083628Y-33253039D01*
X193083628Y-33253039D02*
X193083628Y-33195896D01*
X193083628Y-33195896D02*
X193055057Y-33110182D01*
X193055057Y-33110182D02*
X193026485Y-33081610D01*
X192483628Y-32538753D02*
X192483628Y-32824467D01*
X192483628Y-32824467D02*
X193083628Y-32824467D01*
X202041580Y-49902372D02*
X202041580Y-49330944D01*
X201041580Y-49616658D02*
X202041580Y-49616658D01*
X201041580Y-48997610D02*
X202041580Y-48997610D01*
X202041580Y-48997610D02*
X202041580Y-48616658D01*
X202041580Y-48616658D02*
X201993961Y-48521420D01*
X201993961Y-48521420D02*
X201946342Y-48473801D01*
X201946342Y-48473801D02*
X201851104Y-48426182D01*
X201851104Y-48426182D02*
X201708247Y-48426182D01*
X201708247Y-48426182D02*
X201613009Y-48473801D01*
X201613009Y-48473801D02*
X201565390Y-48521420D01*
X201565390Y-48521420D02*
X201517771Y-48616658D01*
X201517771Y-48616658D02*
X201517771Y-48997610D01*
X201041580Y-47997610D02*
X202041580Y-47997610D01*
X201565390Y-47997610D02*
X201565390Y-47426182D01*
X201041580Y-47426182D02*
X202041580Y-47426182D01*
X193278580Y-43171372D02*
X192278580Y-42838039D01*
X192278580Y-42838039D02*
X193278580Y-42504706D01*
X192373819Y-41599944D02*
X192326200Y-41647563D01*
X192326200Y-41647563D02*
X192278580Y-41790420D01*
X192278580Y-41790420D02*
X192278580Y-41885658D01*
X192278580Y-41885658D02*
X192326200Y-42028515D01*
X192326200Y-42028515D02*
X192421438Y-42123753D01*
X192421438Y-42123753D02*
X192516676Y-42171372D01*
X192516676Y-42171372D02*
X192707152Y-42218991D01*
X192707152Y-42218991D02*
X192850009Y-42218991D01*
X192850009Y-42218991D02*
X193040485Y-42171372D01*
X193040485Y-42171372D02*
X193135723Y-42123753D01*
X193135723Y-42123753D02*
X193230961Y-42028515D01*
X193230961Y-42028515D02*
X193278580Y-41885658D01*
X193278580Y-41885658D02*
X193278580Y-41790420D01*
X193278580Y-41790420D02*
X193230961Y-41647563D01*
X193230961Y-41647563D02*
X193183342Y-41599944D01*
X192373819Y-40599944D02*
X192326200Y-40647563D01*
X192326200Y-40647563D02*
X192278580Y-40790420D01*
X192278580Y-40790420D02*
X192278580Y-40885658D01*
X192278580Y-40885658D02*
X192326200Y-41028515D01*
X192326200Y-41028515D02*
X192421438Y-41123753D01*
X192421438Y-41123753D02*
X192516676Y-41171372D01*
X192516676Y-41171372D02*
X192707152Y-41218991D01*
X192707152Y-41218991D02*
X192850009Y-41218991D01*
X192850009Y-41218991D02*
X193040485Y-41171372D01*
X193040485Y-41171372D02*
X193135723Y-41123753D01*
X193135723Y-41123753D02*
X193230961Y-41028515D01*
X193230961Y-41028515D02*
X193278580Y-40885658D01*
X193278580Y-40885658D02*
X193278580Y-40790420D01*
X193278580Y-40790420D02*
X193230961Y-40647563D01*
X193230961Y-40647563D02*
X193183342Y-40599944D01*
X201073319Y-45314587D02*
X201025700Y-45362206D01*
X201025700Y-45362206D02*
X200978080Y-45505063D01*
X200978080Y-45505063D02*
X200978080Y-45600301D01*
X200978080Y-45600301D02*
X201025700Y-45743158D01*
X201025700Y-45743158D02*
X201120938Y-45838396D01*
X201120938Y-45838396D02*
X201216176Y-45886015D01*
X201216176Y-45886015D02*
X201406652Y-45933634D01*
X201406652Y-45933634D02*
X201549509Y-45933634D01*
X201549509Y-45933634D02*
X201739985Y-45886015D01*
X201739985Y-45886015D02*
X201835223Y-45838396D01*
X201835223Y-45838396D02*
X201930461Y-45743158D01*
X201930461Y-45743158D02*
X201978080Y-45600301D01*
X201978080Y-45600301D02*
X201978080Y-45505063D01*
X201978080Y-45505063D02*
X201930461Y-45362206D01*
X201930461Y-45362206D02*
X201882842Y-45314587D01*
X200978080Y-44886015D02*
X201978080Y-44886015D01*
X201978080Y-44886015D02*
X201978080Y-44505063D01*
X201978080Y-44505063D02*
X201930461Y-44409825D01*
X201930461Y-44409825D02*
X201882842Y-44362206D01*
X201882842Y-44362206D02*
X201787604Y-44314587D01*
X201787604Y-44314587D02*
X201644747Y-44314587D01*
X201644747Y-44314587D02*
X201549509Y-44362206D01*
X201549509Y-44362206D02*
X201501890Y-44409825D01*
X201501890Y-44409825D02*
X201454271Y-44505063D01*
X201454271Y-44505063D02*
X201454271Y-44886015D01*
X201073319Y-43314587D02*
X201025700Y-43362206D01*
X201025700Y-43362206D02*
X200978080Y-43505063D01*
X200978080Y-43505063D02*
X200978080Y-43600301D01*
X200978080Y-43600301D02*
X201025700Y-43743158D01*
X201025700Y-43743158D02*
X201120938Y-43838396D01*
X201120938Y-43838396D02*
X201216176Y-43886015D01*
X201216176Y-43886015D02*
X201406652Y-43933634D01*
X201406652Y-43933634D02*
X201549509Y-43933634D01*
X201549509Y-43933634D02*
X201739985Y-43886015D01*
X201739985Y-43886015D02*
X201835223Y-43838396D01*
X201835223Y-43838396D02*
X201930461Y-43743158D01*
X201930461Y-43743158D02*
X201978080Y-43600301D01*
X201978080Y-43600301D02*
X201978080Y-43505063D01*
X201978080Y-43505063D02*
X201930461Y-43362206D01*
X201930461Y-43362206D02*
X201882842Y-43314587D01*
X195643961Y-35646706D02*
X195691580Y-35741944D01*
X195691580Y-35741944D02*
X195691580Y-35884801D01*
X195691580Y-35884801D02*
X195643961Y-36027658D01*
X195643961Y-36027658D02*
X195548723Y-36122896D01*
X195548723Y-36122896D02*
X195453485Y-36170515D01*
X195453485Y-36170515D02*
X195263009Y-36218134D01*
X195263009Y-36218134D02*
X195120152Y-36218134D01*
X195120152Y-36218134D02*
X194929676Y-36170515D01*
X194929676Y-36170515D02*
X194834438Y-36122896D01*
X194834438Y-36122896D02*
X194739200Y-36027658D01*
X194739200Y-36027658D02*
X194691580Y-35884801D01*
X194691580Y-35884801D02*
X194691580Y-35789563D01*
X194691580Y-35789563D02*
X194739200Y-35646706D01*
X194739200Y-35646706D02*
X194786819Y-35599087D01*
X194786819Y-35599087D02*
X195120152Y-35599087D01*
X195120152Y-35599087D02*
X195120152Y-35789563D01*
X194691580Y-35170515D02*
X195691580Y-35170515D01*
X195691580Y-35170515D02*
X194691580Y-34599087D01*
X194691580Y-34599087D02*
X195691580Y-34599087D01*
X194691580Y-34122896D02*
X195691580Y-34122896D01*
X195691580Y-34122896D02*
X195691580Y-33884801D01*
X195691580Y-33884801D02*
X195643961Y-33741944D01*
X195643961Y-33741944D02*
X195548723Y-33646706D01*
X195548723Y-33646706D02*
X195453485Y-33599087D01*
X195453485Y-33599087D02*
X195263009Y-33551468D01*
X195263009Y-33551468D02*
X195120152Y-33551468D01*
X195120152Y-33551468D02*
X194929676Y-33599087D01*
X194929676Y-33599087D02*
X194834438Y-33646706D01*
X194834438Y-33646706D02*
X194739200Y-33741944D01*
X194739200Y-33741944D02*
X194691580Y-33884801D01*
X194691580Y-33884801D02*
X194691580Y-34122896D01*
X201211628Y-36351468D02*
X201211628Y-36008611D01*
X200611628Y-36180039D02*
X201211628Y-36180039D01*
X200611628Y-35808610D02*
X201211628Y-35808610D01*
X201211628Y-35808610D02*
X201211628Y-35580039D01*
X201211628Y-35580039D02*
X201183057Y-35522896D01*
X201183057Y-35522896D02*
X201154485Y-35494325D01*
X201154485Y-35494325D02*
X201097342Y-35465753D01*
X201097342Y-35465753D02*
X201011628Y-35465753D01*
X201011628Y-35465753D02*
X200954485Y-35494325D01*
X200954485Y-35494325D02*
X200925914Y-35522896D01*
X200925914Y-35522896D02*
X200897342Y-35580039D01*
X200897342Y-35580039D02*
X200897342Y-35808610D01*
X200611628Y-35208610D02*
X201211628Y-35208610D01*
X200925914Y-35208610D02*
X200925914Y-34865753D01*
X200611628Y-34865753D02*
X201211628Y-34865753D01*
X201211628Y-34208611D02*
X200611628Y-34008611D01*
X200611628Y-34008611D02*
X201211628Y-33808611D01*
X200668771Y-33265753D02*
X200640200Y-33294325D01*
X200640200Y-33294325D02*
X200611628Y-33380039D01*
X200611628Y-33380039D02*
X200611628Y-33437182D01*
X200611628Y-33437182D02*
X200640200Y-33522896D01*
X200640200Y-33522896D02*
X200697342Y-33580039D01*
X200697342Y-33580039D02*
X200754485Y-33608610D01*
X200754485Y-33608610D02*
X200868771Y-33637182D01*
X200868771Y-33637182D02*
X200954485Y-33637182D01*
X200954485Y-33637182D02*
X201068771Y-33608610D01*
X201068771Y-33608610D02*
X201125914Y-33580039D01*
X201125914Y-33580039D02*
X201183057Y-33522896D01*
X201183057Y-33522896D02*
X201211628Y-33437182D01*
X201211628Y-33437182D02*
X201211628Y-33380039D01*
X201211628Y-33380039D02*
X201183057Y-33294325D01*
X201183057Y-33294325D02*
X201154485Y-33265753D01*
X200668771Y-32665753D02*
X200640200Y-32694325D01*
X200640200Y-32694325D02*
X200611628Y-32780039D01*
X200611628Y-32780039D02*
X200611628Y-32837182D01*
X200611628Y-32837182D02*
X200640200Y-32922896D01*
X200640200Y-32922896D02*
X200697342Y-32980039D01*
X200697342Y-32980039D02*
X200754485Y-33008610D01*
X200754485Y-33008610D02*
X200868771Y-33037182D01*
X200868771Y-33037182D02*
X200954485Y-33037182D01*
X200954485Y-33037182D02*
X201068771Y-33008610D01*
X201068771Y-33008610D02*
X201125914Y-32980039D01*
X201125914Y-32980039D02*
X201183057Y-32922896D01*
X201183057Y-32922896D02*
X201211628Y-32837182D01*
X201211628Y-32837182D02*
X201211628Y-32780039D01*
X201211628Y-32780039D02*
X201183057Y-32694325D01*
X201183057Y-32694325D02*
X201154485Y-32665753D01*
X189730771Y-51289896D02*
X189702200Y-51318468D01*
X189702200Y-51318468D02*
X189673628Y-51404182D01*
X189673628Y-51404182D02*
X189673628Y-51461325D01*
X189673628Y-51461325D02*
X189702200Y-51547039D01*
X189702200Y-51547039D02*
X189759342Y-51604182D01*
X189759342Y-51604182D02*
X189816485Y-51632753D01*
X189816485Y-51632753D02*
X189930771Y-51661325D01*
X189930771Y-51661325D02*
X190016485Y-51661325D01*
X190016485Y-51661325D02*
X190130771Y-51632753D01*
X190130771Y-51632753D02*
X190187914Y-51604182D01*
X190187914Y-51604182D02*
X190245057Y-51547039D01*
X190245057Y-51547039D02*
X190273628Y-51461325D01*
X190273628Y-51461325D02*
X190273628Y-51404182D01*
X190273628Y-51404182D02*
X190245057Y-51318468D01*
X190245057Y-51318468D02*
X190216485Y-51289896D01*
X189673628Y-51032753D02*
X190273628Y-51032753D01*
X190273628Y-51032753D02*
X190273628Y-50804182D01*
X190273628Y-50804182D02*
X190245057Y-50747039D01*
X190245057Y-50747039D02*
X190216485Y-50718468D01*
X190216485Y-50718468D02*
X190159342Y-50689896D01*
X190159342Y-50689896D02*
X190073628Y-50689896D01*
X190073628Y-50689896D02*
X190016485Y-50718468D01*
X190016485Y-50718468D02*
X189987914Y-50747039D01*
X189987914Y-50747039D02*
X189959342Y-50804182D01*
X189959342Y-50804182D02*
X189959342Y-51032753D01*
X189730771Y-50089896D02*
X189702200Y-50118468D01*
X189702200Y-50118468D02*
X189673628Y-50204182D01*
X189673628Y-50204182D02*
X189673628Y-50261325D01*
X189673628Y-50261325D02*
X189702200Y-50347039D01*
X189702200Y-50347039D02*
X189759342Y-50404182D01*
X189759342Y-50404182D02*
X189816485Y-50432753D01*
X189816485Y-50432753D02*
X189930771Y-50461325D01*
X189930771Y-50461325D02*
X190016485Y-50461325D01*
X190016485Y-50461325D02*
X190130771Y-50432753D01*
X190130771Y-50432753D02*
X190187914Y-50404182D01*
X190187914Y-50404182D02*
X190245057Y-50347039D01*
X190245057Y-50347039D02*
X190273628Y-50261325D01*
X190273628Y-50261325D02*
X190273628Y-50204182D01*
X190273628Y-50204182D02*
X190245057Y-50118468D01*
X190245057Y-50118468D02*
X190216485Y-50089896D01*
X189730771Y-49832753D02*
X189702200Y-49804182D01*
X189702200Y-49804182D02*
X189673628Y-49832753D01*
X189673628Y-49832753D02*
X189702200Y-49861325D01*
X189702200Y-49861325D02*
X189730771Y-49832753D01*
X189730771Y-49832753D02*
X189673628Y-49832753D01*
X190045057Y-49832753D02*
X190016485Y-49804182D01*
X190016485Y-49804182D02*
X189987914Y-49832753D01*
X189987914Y-49832753D02*
X190016485Y-49861325D01*
X190016485Y-49861325D02*
X190045057Y-49832753D01*
X190045057Y-49832753D02*
X189987914Y-49832753D01*
X189702200Y-49118468D02*
X189673628Y-49032754D01*
X189673628Y-49032754D02*
X189673628Y-48889896D01*
X189673628Y-48889896D02*
X189702200Y-48832754D01*
X189702200Y-48832754D02*
X189730771Y-48804182D01*
X189730771Y-48804182D02*
X189787914Y-48775611D01*
X189787914Y-48775611D02*
X189845057Y-48775611D01*
X189845057Y-48775611D02*
X189902200Y-48804182D01*
X189902200Y-48804182D02*
X189930771Y-48832754D01*
X189930771Y-48832754D02*
X189959342Y-48889896D01*
X189959342Y-48889896D02*
X189987914Y-49004182D01*
X189987914Y-49004182D02*
X190016485Y-49061325D01*
X190016485Y-49061325D02*
X190045057Y-49089896D01*
X190045057Y-49089896D02*
X190102200Y-49118468D01*
X190102200Y-49118468D02*
X190159342Y-49118468D01*
X190159342Y-49118468D02*
X190216485Y-49089896D01*
X190216485Y-49089896D02*
X190245057Y-49061325D01*
X190245057Y-49061325D02*
X190273628Y-49004182D01*
X190273628Y-49004182D02*
X190273628Y-48861325D01*
X190273628Y-48861325D02*
X190245057Y-48775611D01*
X189673628Y-48518467D02*
X190273628Y-48518467D01*
X190273628Y-48518467D02*
X190273628Y-48375610D01*
X190273628Y-48375610D02*
X190245057Y-48289896D01*
X190245057Y-48289896D02*
X190187914Y-48232753D01*
X190187914Y-48232753D02*
X190130771Y-48204182D01*
X190130771Y-48204182D02*
X190016485Y-48175610D01*
X190016485Y-48175610D02*
X189930771Y-48175610D01*
X189930771Y-48175610D02*
X189816485Y-48204182D01*
X189816485Y-48204182D02*
X189759342Y-48232753D01*
X189759342Y-48232753D02*
X189702200Y-48289896D01*
X189702200Y-48289896D02*
X189673628Y-48375610D01*
X189673628Y-48375610D02*
X189673628Y-48518467D01*
X189845057Y-47947039D02*
X189845057Y-47661325D01*
X189673628Y-48004182D02*
X190273628Y-47804182D01*
X190273628Y-47804182D02*
X189673628Y-47604182D01*
X189702200Y-47375610D02*
X189673628Y-47375610D01*
X189673628Y-47375610D02*
X189616485Y-47404181D01*
X189616485Y-47404181D02*
X189587914Y-47432753D01*
X189702200Y-46689896D02*
X189673628Y-46604182D01*
X189673628Y-46604182D02*
X189673628Y-46461324D01*
X189673628Y-46461324D02*
X189702200Y-46404182D01*
X189702200Y-46404182D02*
X189730771Y-46375610D01*
X189730771Y-46375610D02*
X189787914Y-46347039D01*
X189787914Y-46347039D02*
X189845057Y-46347039D01*
X189845057Y-46347039D02*
X189902200Y-46375610D01*
X189902200Y-46375610D02*
X189930771Y-46404182D01*
X189930771Y-46404182D02*
X189959342Y-46461324D01*
X189959342Y-46461324D02*
X189987914Y-46575610D01*
X189987914Y-46575610D02*
X190016485Y-46632753D01*
X190016485Y-46632753D02*
X190045057Y-46661324D01*
X190045057Y-46661324D02*
X190102200Y-46689896D01*
X190102200Y-46689896D02*
X190159342Y-46689896D01*
X190159342Y-46689896D02*
X190216485Y-46661324D01*
X190216485Y-46661324D02*
X190245057Y-46632753D01*
X190245057Y-46632753D02*
X190273628Y-46575610D01*
X190273628Y-46575610D02*
X190273628Y-46432753D01*
X190273628Y-46432753D02*
X190245057Y-46347039D01*
X189730771Y-45747038D02*
X189702200Y-45775610D01*
X189702200Y-45775610D02*
X189673628Y-45861324D01*
X189673628Y-45861324D02*
X189673628Y-45918467D01*
X189673628Y-45918467D02*
X189702200Y-46004181D01*
X189702200Y-46004181D02*
X189759342Y-46061324D01*
X189759342Y-46061324D02*
X189816485Y-46089895D01*
X189816485Y-46089895D02*
X189930771Y-46118467D01*
X189930771Y-46118467D02*
X190016485Y-46118467D01*
X190016485Y-46118467D02*
X190130771Y-46089895D01*
X190130771Y-46089895D02*
X190187914Y-46061324D01*
X190187914Y-46061324D02*
X190245057Y-46004181D01*
X190245057Y-46004181D02*
X190273628Y-45918467D01*
X190273628Y-45918467D02*
X190273628Y-45861324D01*
X190273628Y-45861324D02*
X190245057Y-45775610D01*
X190245057Y-45775610D02*
X190216485Y-45747038D01*
X189673628Y-45204181D02*
X189673628Y-45489895D01*
X189673628Y-45489895D02*
X190273628Y-45489895D01*
X189702200Y-44975610D02*
X189673628Y-44975610D01*
X189673628Y-44975610D02*
X189616485Y-45004181D01*
X189616485Y-45004181D02*
X189587914Y-45032753D01*
X190273628Y-44347039D02*
X189673628Y-44147039D01*
X189673628Y-44147039D02*
X190273628Y-43947039D01*
X189730771Y-43404181D02*
X189702200Y-43432753D01*
X189702200Y-43432753D02*
X189673628Y-43518467D01*
X189673628Y-43518467D02*
X189673628Y-43575610D01*
X189673628Y-43575610D02*
X189702200Y-43661324D01*
X189702200Y-43661324D02*
X189759342Y-43718467D01*
X189759342Y-43718467D02*
X189816485Y-43747038D01*
X189816485Y-43747038D02*
X189930771Y-43775610D01*
X189930771Y-43775610D02*
X190016485Y-43775610D01*
X190016485Y-43775610D02*
X190130771Y-43747038D01*
X190130771Y-43747038D02*
X190187914Y-43718467D01*
X190187914Y-43718467D02*
X190245057Y-43661324D01*
X190245057Y-43661324D02*
X190273628Y-43575610D01*
X190273628Y-43575610D02*
X190273628Y-43518467D01*
X190273628Y-43518467D02*
X190245057Y-43432753D01*
X190245057Y-43432753D02*
X190216485Y-43404181D01*
X189730771Y-42804181D02*
X189702200Y-42832753D01*
X189702200Y-42832753D02*
X189673628Y-42918467D01*
X189673628Y-42918467D02*
X189673628Y-42975610D01*
X189673628Y-42975610D02*
X189702200Y-43061324D01*
X189702200Y-43061324D02*
X189759342Y-43118467D01*
X189759342Y-43118467D02*
X189816485Y-43147038D01*
X189816485Y-43147038D02*
X189930771Y-43175610D01*
X189930771Y-43175610D02*
X190016485Y-43175610D01*
X190016485Y-43175610D02*
X190130771Y-43147038D01*
X190130771Y-43147038D02*
X190187914Y-43118467D01*
X190187914Y-43118467D02*
X190245057Y-43061324D01*
X190245057Y-43061324D02*
X190273628Y-42975610D01*
X190273628Y-42975610D02*
X190273628Y-42918467D01*
X190273628Y-42918467D02*
X190245057Y-42832753D01*
X190245057Y-42832753D02*
X190216485Y-42804181D01*
X189702200Y-42518467D02*
X189673628Y-42518467D01*
X189673628Y-42518467D02*
X189616485Y-42547038D01*
X189616485Y-42547038D02*
X189587914Y-42575610D01*
X190245057Y-41489896D02*
X190273628Y-41547039D01*
X190273628Y-41547039D02*
X190273628Y-41632753D01*
X190273628Y-41632753D02*
X190245057Y-41718467D01*
X190245057Y-41718467D02*
X190187914Y-41775610D01*
X190187914Y-41775610D02*
X190130771Y-41804181D01*
X190130771Y-41804181D02*
X190016485Y-41832753D01*
X190016485Y-41832753D02*
X189930771Y-41832753D01*
X189930771Y-41832753D02*
X189816485Y-41804181D01*
X189816485Y-41804181D02*
X189759342Y-41775610D01*
X189759342Y-41775610D02*
X189702200Y-41718467D01*
X189702200Y-41718467D02*
X189673628Y-41632753D01*
X189673628Y-41632753D02*
X189673628Y-41575610D01*
X189673628Y-41575610D02*
X189702200Y-41489896D01*
X189702200Y-41489896D02*
X189730771Y-41461324D01*
X189730771Y-41461324D02*
X189930771Y-41461324D01*
X189930771Y-41461324D02*
X189930771Y-41575610D01*
X189673628Y-41204181D02*
X190273628Y-41204181D01*
X190273628Y-41204181D02*
X189673628Y-40861324D01*
X189673628Y-40861324D02*
X190273628Y-40861324D01*
X189673628Y-40575610D02*
X190273628Y-40575610D01*
X190273628Y-40575610D02*
X190273628Y-40432753D01*
X190273628Y-40432753D02*
X190245057Y-40347039D01*
X190245057Y-40347039D02*
X190187914Y-40289896D01*
X190187914Y-40289896D02*
X190130771Y-40261325D01*
X190130771Y-40261325D02*
X190016485Y-40232753D01*
X190016485Y-40232753D02*
X189930771Y-40232753D01*
X189930771Y-40232753D02*
X189816485Y-40261325D01*
X189816485Y-40261325D02*
X189759342Y-40289896D01*
X189759342Y-40289896D02*
X189702200Y-40347039D01*
X189702200Y-40347039D02*
X189673628Y-40432753D01*
X189673628Y-40432753D02*
X189673628Y-40575610D01*
X200200200Y-42949134D02*
X200152580Y-42806277D01*
X200152580Y-42806277D02*
X200152580Y-42568182D01*
X200152580Y-42568182D02*
X200200200Y-42472944D01*
X200200200Y-42472944D02*
X200247819Y-42425325D01*
X200247819Y-42425325D02*
X200343057Y-42377706D01*
X200343057Y-42377706D02*
X200438295Y-42377706D01*
X200438295Y-42377706D02*
X200533533Y-42425325D01*
X200533533Y-42425325D02*
X200581152Y-42472944D01*
X200581152Y-42472944D02*
X200628771Y-42568182D01*
X200628771Y-42568182D02*
X200676390Y-42758658D01*
X200676390Y-42758658D02*
X200724009Y-42853896D01*
X200724009Y-42853896D02*
X200771628Y-42901515D01*
X200771628Y-42901515D02*
X200866866Y-42949134D01*
X200866866Y-42949134D02*
X200962104Y-42949134D01*
X200962104Y-42949134D02*
X201057342Y-42901515D01*
X201057342Y-42901515D02*
X201104961Y-42853896D01*
X201104961Y-42853896D02*
X201152580Y-42758658D01*
X201152580Y-42758658D02*
X201152580Y-42520563D01*
X201152580Y-42520563D02*
X201104961Y-42377706D01*
X200247819Y-41377706D02*
X200200200Y-41425325D01*
X200200200Y-41425325D02*
X200152580Y-41568182D01*
X200152580Y-41568182D02*
X200152580Y-41663420D01*
X200152580Y-41663420D02*
X200200200Y-41806277D01*
X200200200Y-41806277D02*
X200295438Y-41901515D01*
X200295438Y-41901515D02*
X200390676Y-41949134D01*
X200390676Y-41949134D02*
X200581152Y-41996753D01*
X200581152Y-41996753D02*
X200724009Y-41996753D01*
X200724009Y-41996753D02*
X200914485Y-41949134D01*
X200914485Y-41949134D02*
X201009723Y-41901515D01*
X201009723Y-41901515D02*
X201104961Y-41806277D01*
X201104961Y-41806277D02*
X201152580Y-41663420D01*
X201152580Y-41663420D02*
X201152580Y-41568182D01*
X201152580Y-41568182D02*
X201104961Y-41425325D01*
X201104961Y-41425325D02*
X201057342Y-41377706D01*
X200152580Y-40472944D02*
X200152580Y-40949134D01*
X200152580Y-40949134D02*
X201152580Y-40949134D01*
X198671628Y-44098468D02*
X198671628Y-43755611D01*
X198071628Y-43927039D02*
X198671628Y-43927039D01*
X198071628Y-43555610D02*
X198671628Y-43555610D01*
X198671628Y-43555610D02*
X198671628Y-43327039D01*
X198671628Y-43327039D02*
X198643057Y-43269896D01*
X198643057Y-43269896D02*
X198614485Y-43241325D01*
X198614485Y-43241325D02*
X198557342Y-43212753D01*
X198557342Y-43212753D02*
X198471628Y-43212753D01*
X198471628Y-43212753D02*
X198414485Y-43241325D01*
X198414485Y-43241325D02*
X198385914Y-43269896D01*
X198385914Y-43269896D02*
X198357342Y-43327039D01*
X198357342Y-43327039D02*
X198357342Y-43555610D01*
X198071628Y-42955610D02*
X198671628Y-42955610D01*
X198385914Y-42955610D02*
X198385914Y-42612753D01*
X198071628Y-42612753D02*
X198671628Y-42612753D01*
X198643057Y-41555611D02*
X198671628Y-41612754D01*
X198671628Y-41612754D02*
X198671628Y-41698468D01*
X198671628Y-41698468D02*
X198643057Y-41784182D01*
X198643057Y-41784182D02*
X198585914Y-41841325D01*
X198585914Y-41841325D02*
X198528771Y-41869896D01*
X198528771Y-41869896D02*
X198414485Y-41898468D01*
X198414485Y-41898468D02*
X198328771Y-41898468D01*
X198328771Y-41898468D02*
X198214485Y-41869896D01*
X198214485Y-41869896D02*
X198157342Y-41841325D01*
X198157342Y-41841325D02*
X198100200Y-41784182D01*
X198100200Y-41784182D02*
X198071628Y-41698468D01*
X198071628Y-41698468D02*
X198071628Y-41641325D01*
X198071628Y-41641325D02*
X198100200Y-41555611D01*
X198100200Y-41555611D02*
X198128771Y-41527039D01*
X198128771Y-41527039D02*
X198328771Y-41527039D01*
X198328771Y-41527039D02*
X198328771Y-41641325D01*
X198071628Y-41269896D02*
X198671628Y-41269896D01*
X198671628Y-41269896D02*
X198071628Y-40927039D01*
X198071628Y-40927039D02*
X198671628Y-40927039D01*
X198071628Y-40641325D02*
X198671628Y-40641325D01*
X198671628Y-40641325D02*
X198671628Y-40498468D01*
X198671628Y-40498468D02*
X198643057Y-40412754D01*
X198643057Y-40412754D02*
X198585914Y-40355611D01*
X198585914Y-40355611D02*
X198528771Y-40327040D01*
X198528771Y-40327040D02*
X198414485Y-40298468D01*
X198414485Y-40298468D02*
X198328771Y-40298468D01*
X198328771Y-40298468D02*
X198214485Y-40327040D01*
X198214485Y-40327040D02*
X198157342Y-40355611D01*
X198157342Y-40355611D02*
X198100200Y-40412754D01*
X198100200Y-40412754D02*
X198071628Y-40498468D01*
X198071628Y-40498468D02*
X198071628Y-40641325D01*
X199652771Y-35668896D02*
X199624200Y-35697468D01*
X199624200Y-35697468D02*
X199595628Y-35783182D01*
X199595628Y-35783182D02*
X199595628Y-35840325D01*
X199595628Y-35840325D02*
X199624200Y-35926039D01*
X199624200Y-35926039D02*
X199681342Y-35983182D01*
X199681342Y-35983182D02*
X199738485Y-36011753D01*
X199738485Y-36011753D02*
X199852771Y-36040325D01*
X199852771Y-36040325D02*
X199938485Y-36040325D01*
X199938485Y-36040325D02*
X200052771Y-36011753D01*
X200052771Y-36011753D02*
X200109914Y-35983182D01*
X200109914Y-35983182D02*
X200167057Y-35926039D01*
X200167057Y-35926039D02*
X200195628Y-35840325D01*
X200195628Y-35840325D02*
X200195628Y-35783182D01*
X200195628Y-35783182D02*
X200167057Y-35697468D01*
X200167057Y-35697468D02*
X200138485Y-35668896D01*
X199595628Y-35411753D02*
X200195628Y-35411753D01*
X200195628Y-35411753D02*
X200195628Y-35183182D01*
X200195628Y-35183182D02*
X200167057Y-35126039D01*
X200167057Y-35126039D02*
X200138485Y-35097468D01*
X200138485Y-35097468D02*
X200081342Y-35068896D01*
X200081342Y-35068896D02*
X199995628Y-35068896D01*
X199995628Y-35068896D02*
X199938485Y-35097468D01*
X199938485Y-35097468D02*
X199909914Y-35126039D01*
X199909914Y-35126039D02*
X199881342Y-35183182D01*
X199881342Y-35183182D02*
X199881342Y-35411753D01*
X199652771Y-34468896D02*
X199624200Y-34497468D01*
X199624200Y-34497468D02*
X199595628Y-34583182D01*
X199595628Y-34583182D02*
X199595628Y-34640325D01*
X199595628Y-34640325D02*
X199624200Y-34726039D01*
X199624200Y-34726039D02*
X199681342Y-34783182D01*
X199681342Y-34783182D02*
X199738485Y-34811753D01*
X199738485Y-34811753D02*
X199852771Y-34840325D01*
X199852771Y-34840325D02*
X199938485Y-34840325D01*
X199938485Y-34840325D02*
X200052771Y-34811753D01*
X200052771Y-34811753D02*
X200109914Y-34783182D01*
X200109914Y-34783182D02*
X200167057Y-34726039D01*
X200167057Y-34726039D02*
X200195628Y-34640325D01*
X200195628Y-34640325D02*
X200195628Y-34583182D01*
X200195628Y-34583182D02*
X200167057Y-34497468D01*
X200167057Y-34497468D02*
X200138485Y-34468896D01*
X199624200Y-33783182D02*
X199595628Y-33697468D01*
X199595628Y-33697468D02*
X199595628Y-33554610D01*
X199595628Y-33554610D02*
X199624200Y-33497468D01*
X199624200Y-33497468D02*
X199652771Y-33468896D01*
X199652771Y-33468896D02*
X199709914Y-33440325D01*
X199709914Y-33440325D02*
X199767057Y-33440325D01*
X199767057Y-33440325D02*
X199824200Y-33468896D01*
X199824200Y-33468896D02*
X199852771Y-33497468D01*
X199852771Y-33497468D02*
X199881342Y-33554610D01*
X199881342Y-33554610D02*
X199909914Y-33668896D01*
X199909914Y-33668896D02*
X199938485Y-33726039D01*
X199938485Y-33726039D02*
X199967057Y-33754610D01*
X199967057Y-33754610D02*
X200024200Y-33783182D01*
X200024200Y-33783182D02*
X200081342Y-33783182D01*
X200081342Y-33783182D02*
X200138485Y-33754610D01*
X200138485Y-33754610D02*
X200167057Y-33726039D01*
X200167057Y-33726039D02*
X200195628Y-33668896D01*
X200195628Y-33668896D02*
X200195628Y-33526039D01*
X200195628Y-33526039D02*
X200167057Y-33440325D01*
X199595628Y-33183181D02*
X200195628Y-33183181D01*
X200195628Y-33183181D02*
X200195628Y-33040324D01*
X200195628Y-33040324D02*
X200167057Y-32954610D01*
X200167057Y-32954610D02*
X200109914Y-32897467D01*
X200109914Y-32897467D02*
X200052771Y-32868896D01*
X200052771Y-32868896D02*
X199938485Y-32840324D01*
X199938485Y-32840324D02*
X199852771Y-32840324D01*
X199852771Y-32840324D02*
X199738485Y-32868896D01*
X199738485Y-32868896D02*
X199681342Y-32897467D01*
X199681342Y-32897467D02*
X199624200Y-32954610D01*
X199624200Y-32954610D02*
X199595628Y-33040324D01*
X199595628Y-33040324D02*
X199595628Y-33183181D01*
X199767057Y-32611753D02*
X199767057Y-32326039D01*
X199595628Y-32668896D02*
X200195628Y-32468896D01*
X200195628Y-32468896D02*
X199595628Y-32268896D01*
X194826771Y-43542896D02*
X194798200Y-43571468D01*
X194798200Y-43571468D02*
X194769628Y-43657182D01*
X194769628Y-43657182D02*
X194769628Y-43714325D01*
X194769628Y-43714325D02*
X194798200Y-43800039D01*
X194798200Y-43800039D02*
X194855342Y-43857182D01*
X194855342Y-43857182D02*
X194912485Y-43885753D01*
X194912485Y-43885753D02*
X195026771Y-43914325D01*
X195026771Y-43914325D02*
X195112485Y-43914325D01*
X195112485Y-43914325D02*
X195226771Y-43885753D01*
X195226771Y-43885753D02*
X195283914Y-43857182D01*
X195283914Y-43857182D02*
X195341057Y-43800039D01*
X195341057Y-43800039D02*
X195369628Y-43714325D01*
X195369628Y-43714325D02*
X195369628Y-43657182D01*
X195369628Y-43657182D02*
X195341057Y-43571468D01*
X195341057Y-43571468D02*
X195312485Y-43542896D01*
X194769628Y-43285753D02*
X195369628Y-43285753D01*
X195369628Y-43285753D02*
X195369628Y-43057182D01*
X195369628Y-43057182D02*
X195341057Y-43000039D01*
X195341057Y-43000039D02*
X195312485Y-42971468D01*
X195312485Y-42971468D02*
X195255342Y-42942896D01*
X195255342Y-42942896D02*
X195169628Y-42942896D01*
X195169628Y-42942896D02*
X195112485Y-42971468D01*
X195112485Y-42971468D02*
X195083914Y-43000039D01*
X195083914Y-43000039D02*
X195055342Y-43057182D01*
X195055342Y-43057182D02*
X195055342Y-43285753D01*
X194826771Y-42342896D02*
X194798200Y-42371468D01*
X194798200Y-42371468D02*
X194769628Y-42457182D01*
X194769628Y-42457182D02*
X194769628Y-42514325D01*
X194769628Y-42514325D02*
X194798200Y-42600039D01*
X194798200Y-42600039D02*
X194855342Y-42657182D01*
X194855342Y-42657182D02*
X194912485Y-42685753D01*
X194912485Y-42685753D02*
X195026771Y-42714325D01*
X195026771Y-42714325D02*
X195112485Y-42714325D01*
X195112485Y-42714325D02*
X195226771Y-42685753D01*
X195226771Y-42685753D02*
X195283914Y-42657182D01*
X195283914Y-42657182D02*
X195341057Y-42600039D01*
X195341057Y-42600039D02*
X195369628Y-42514325D01*
X195369628Y-42514325D02*
X195369628Y-42457182D01*
X195369628Y-42457182D02*
X195341057Y-42371468D01*
X195341057Y-42371468D02*
X195312485Y-42342896D01*
X195369628Y-41714325D02*
X194769628Y-41514325D01*
X194769628Y-41514325D02*
X195369628Y-41314325D01*
X194826771Y-40771467D02*
X194798200Y-40800039D01*
X194798200Y-40800039D02*
X194769628Y-40885753D01*
X194769628Y-40885753D02*
X194769628Y-40942896D01*
X194769628Y-40942896D02*
X194798200Y-41028610D01*
X194798200Y-41028610D02*
X194855342Y-41085753D01*
X194855342Y-41085753D02*
X194912485Y-41114324D01*
X194912485Y-41114324D02*
X195026771Y-41142896D01*
X195026771Y-41142896D02*
X195112485Y-41142896D01*
X195112485Y-41142896D02*
X195226771Y-41114324D01*
X195226771Y-41114324D02*
X195283914Y-41085753D01*
X195283914Y-41085753D02*
X195341057Y-41028610D01*
X195341057Y-41028610D02*
X195369628Y-40942896D01*
X195369628Y-40942896D02*
X195369628Y-40885753D01*
X195369628Y-40885753D02*
X195341057Y-40800039D01*
X195341057Y-40800039D02*
X195312485Y-40771467D01*
X194826771Y-40171467D02*
X194798200Y-40200039D01*
X194798200Y-40200039D02*
X194769628Y-40285753D01*
X194769628Y-40285753D02*
X194769628Y-40342896D01*
X194769628Y-40342896D02*
X194798200Y-40428610D01*
X194798200Y-40428610D02*
X194855342Y-40485753D01*
X194855342Y-40485753D02*
X194912485Y-40514324D01*
X194912485Y-40514324D02*
X195026771Y-40542896D01*
X195026771Y-40542896D02*
X195112485Y-40542896D01*
X195112485Y-40542896D02*
X195226771Y-40514324D01*
X195226771Y-40514324D02*
X195283914Y-40485753D01*
X195283914Y-40485753D02*
X195341057Y-40428610D01*
X195341057Y-40428610D02*
X195369628Y-40342896D01*
X195369628Y-40342896D02*
X195369628Y-40285753D01*
X195369628Y-40285753D02*
X195341057Y-40200039D01*
X195341057Y-40200039D02*
X195312485Y-40171467D01*
X196258628Y-43717468D02*
X196258628Y-43374611D01*
X195658628Y-43546039D02*
X196258628Y-43546039D01*
X195658628Y-43174610D02*
X196258628Y-43174610D01*
X196258628Y-43174610D02*
X196258628Y-42946039D01*
X196258628Y-42946039D02*
X196230057Y-42888896D01*
X196230057Y-42888896D02*
X196201485Y-42860325D01*
X196201485Y-42860325D02*
X196144342Y-42831753D01*
X196144342Y-42831753D02*
X196058628Y-42831753D01*
X196058628Y-42831753D02*
X196001485Y-42860325D01*
X196001485Y-42860325D02*
X195972914Y-42888896D01*
X195972914Y-42888896D02*
X195944342Y-42946039D01*
X195944342Y-42946039D02*
X195944342Y-43174610D01*
X195658628Y-42574610D02*
X196258628Y-42574610D01*
X195972914Y-42574610D02*
X195972914Y-42231753D01*
X195658628Y-42231753D02*
X196258628Y-42231753D01*
X195687200Y-41517468D02*
X195658628Y-41431754D01*
X195658628Y-41431754D02*
X195658628Y-41288896D01*
X195658628Y-41288896D02*
X195687200Y-41231754D01*
X195687200Y-41231754D02*
X195715771Y-41203182D01*
X195715771Y-41203182D02*
X195772914Y-41174611D01*
X195772914Y-41174611D02*
X195830057Y-41174611D01*
X195830057Y-41174611D02*
X195887200Y-41203182D01*
X195887200Y-41203182D02*
X195915771Y-41231754D01*
X195915771Y-41231754D02*
X195944342Y-41288896D01*
X195944342Y-41288896D02*
X195972914Y-41403182D01*
X195972914Y-41403182D02*
X196001485Y-41460325D01*
X196001485Y-41460325D02*
X196030057Y-41488896D01*
X196030057Y-41488896D02*
X196087200Y-41517468D01*
X196087200Y-41517468D02*
X196144342Y-41517468D01*
X196144342Y-41517468D02*
X196201485Y-41488896D01*
X196201485Y-41488896D02*
X196230057Y-41460325D01*
X196230057Y-41460325D02*
X196258628Y-41403182D01*
X196258628Y-41403182D02*
X196258628Y-41260325D01*
X196258628Y-41260325D02*
X196230057Y-41174611D01*
X195658628Y-40917467D02*
X196258628Y-40917467D01*
X196258628Y-40917467D02*
X196258628Y-40774610D01*
X196258628Y-40774610D02*
X196230057Y-40688896D01*
X196230057Y-40688896D02*
X196172914Y-40631753D01*
X196172914Y-40631753D02*
X196115771Y-40603182D01*
X196115771Y-40603182D02*
X196001485Y-40574610D01*
X196001485Y-40574610D02*
X195915771Y-40574610D01*
X195915771Y-40574610D02*
X195801485Y-40603182D01*
X195801485Y-40603182D02*
X195744342Y-40631753D01*
X195744342Y-40631753D02*
X195687200Y-40688896D01*
X195687200Y-40688896D02*
X195658628Y-40774610D01*
X195658628Y-40774610D02*
X195658628Y-40917467D01*
X195830057Y-40346039D02*
X195830057Y-40060325D01*
X195658628Y-40403182D02*
X196258628Y-40203182D01*
X196258628Y-40203182D02*
X195658628Y-40003182D01*
X197239771Y-43542896D02*
X197211200Y-43571468D01*
X197211200Y-43571468D02*
X197182628Y-43657182D01*
X197182628Y-43657182D02*
X197182628Y-43714325D01*
X197182628Y-43714325D02*
X197211200Y-43800039D01*
X197211200Y-43800039D02*
X197268342Y-43857182D01*
X197268342Y-43857182D02*
X197325485Y-43885753D01*
X197325485Y-43885753D02*
X197439771Y-43914325D01*
X197439771Y-43914325D02*
X197525485Y-43914325D01*
X197525485Y-43914325D02*
X197639771Y-43885753D01*
X197639771Y-43885753D02*
X197696914Y-43857182D01*
X197696914Y-43857182D02*
X197754057Y-43800039D01*
X197754057Y-43800039D02*
X197782628Y-43714325D01*
X197782628Y-43714325D02*
X197782628Y-43657182D01*
X197782628Y-43657182D02*
X197754057Y-43571468D01*
X197754057Y-43571468D02*
X197725485Y-43542896D01*
X197182628Y-43285753D02*
X197782628Y-43285753D01*
X197782628Y-43285753D02*
X197782628Y-43057182D01*
X197782628Y-43057182D02*
X197754057Y-43000039D01*
X197754057Y-43000039D02*
X197725485Y-42971468D01*
X197725485Y-42971468D02*
X197668342Y-42942896D01*
X197668342Y-42942896D02*
X197582628Y-42942896D01*
X197582628Y-42942896D02*
X197525485Y-42971468D01*
X197525485Y-42971468D02*
X197496914Y-43000039D01*
X197496914Y-43000039D02*
X197468342Y-43057182D01*
X197468342Y-43057182D02*
X197468342Y-43285753D01*
X197239771Y-42342896D02*
X197211200Y-42371468D01*
X197211200Y-42371468D02*
X197182628Y-42457182D01*
X197182628Y-42457182D02*
X197182628Y-42514325D01*
X197182628Y-42514325D02*
X197211200Y-42600039D01*
X197211200Y-42600039D02*
X197268342Y-42657182D01*
X197268342Y-42657182D02*
X197325485Y-42685753D01*
X197325485Y-42685753D02*
X197439771Y-42714325D01*
X197439771Y-42714325D02*
X197525485Y-42714325D01*
X197525485Y-42714325D02*
X197639771Y-42685753D01*
X197639771Y-42685753D02*
X197696914Y-42657182D01*
X197696914Y-42657182D02*
X197754057Y-42600039D01*
X197754057Y-42600039D02*
X197782628Y-42514325D01*
X197782628Y-42514325D02*
X197782628Y-42457182D01*
X197782628Y-42457182D02*
X197754057Y-42371468D01*
X197754057Y-42371468D02*
X197725485Y-42342896D01*
X197211200Y-41657182D02*
X197182628Y-41571468D01*
X197182628Y-41571468D02*
X197182628Y-41428610D01*
X197182628Y-41428610D02*
X197211200Y-41371468D01*
X197211200Y-41371468D02*
X197239771Y-41342896D01*
X197239771Y-41342896D02*
X197296914Y-41314325D01*
X197296914Y-41314325D02*
X197354057Y-41314325D01*
X197354057Y-41314325D02*
X197411200Y-41342896D01*
X197411200Y-41342896D02*
X197439771Y-41371468D01*
X197439771Y-41371468D02*
X197468342Y-41428610D01*
X197468342Y-41428610D02*
X197496914Y-41542896D01*
X197496914Y-41542896D02*
X197525485Y-41600039D01*
X197525485Y-41600039D02*
X197554057Y-41628610D01*
X197554057Y-41628610D02*
X197611200Y-41657182D01*
X197611200Y-41657182D02*
X197668342Y-41657182D01*
X197668342Y-41657182D02*
X197725485Y-41628610D01*
X197725485Y-41628610D02*
X197754057Y-41600039D01*
X197754057Y-41600039D02*
X197782628Y-41542896D01*
X197782628Y-41542896D02*
X197782628Y-41400039D01*
X197782628Y-41400039D02*
X197754057Y-41314325D01*
X197239771Y-40714324D02*
X197211200Y-40742896D01*
X197211200Y-40742896D02*
X197182628Y-40828610D01*
X197182628Y-40828610D02*
X197182628Y-40885753D01*
X197182628Y-40885753D02*
X197211200Y-40971467D01*
X197211200Y-40971467D02*
X197268342Y-41028610D01*
X197268342Y-41028610D02*
X197325485Y-41057181D01*
X197325485Y-41057181D02*
X197439771Y-41085753D01*
X197439771Y-41085753D02*
X197525485Y-41085753D01*
X197525485Y-41085753D02*
X197639771Y-41057181D01*
X197639771Y-41057181D02*
X197696914Y-41028610D01*
X197696914Y-41028610D02*
X197754057Y-40971467D01*
X197754057Y-40971467D02*
X197782628Y-40885753D01*
X197782628Y-40885753D02*
X197782628Y-40828610D01*
X197782628Y-40828610D02*
X197754057Y-40742896D01*
X197754057Y-40742896D02*
X197725485Y-40714324D01*
X197182628Y-40171467D02*
X197182628Y-40457181D01*
X197182628Y-40457181D02*
X197782628Y-40457181D01*
X197533200Y-36091134D02*
X197485580Y-35948277D01*
X197485580Y-35948277D02*
X197485580Y-35710182D01*
X197485580Y-35710182D02*
X197533200Y-35614944D01*
X197533200Y-35614944D02*
X197580819Y-35567325D01*
X197580819Y-35567325D02*
X197676057Y-35519706D01*
X197676057Y-35519706D02*
X197771295Y-35519706D01*
X197771295Y-35519706D02*
X197866533Y-35567325D01*
X197866533Y-35567325D02*
X197914152Y-35614944D01*
X197914152Y-35614944D02*
X197961771Y-35710182D01*
X197961771Y-35710182D02*
X198009390Y-35900658D01*
X198009390Y-35900658D02*
X198057009Y-35995896D01*
X198057009Y-35995896D02*
X198104628Y-36043515D01*
X198104628Y-36043515D02*
X198199866Y-36091134D01*
X198199866Y-36091134D02*
X198295104Y-36091134D01*
X198295104Y-36091134D02*
X198390342Y-36043515D01*
X198390342Y-36043515D02*
X198437961Y-35995896D01*
X198437961Y-35995896D02*
X198485580Y-35900658D01*
X198485580Y-35900658D02*
X198485580Y-35662563D01*
X198485580Y-35662563D02*
X198437961Y-35519706D01*
X197485580Y-35091134D02*
X198485580Y-35091134D01*
X198485580Y-35091134D02*
X198485580Y-34853039D01*
X198485580Y-34853039D02*
X198437961Y-34710182D01*
X198437961Y-34710182D02*
X198342723Y-34614944D01*
X198342723Y-34614944D02*
X198247485Y-34567325D01*
X198247485Y-34567325D02*
X198057009Y-34519706D01*
X198057009Y-34519706D02*
X197914152Y-34519706D01*
X197914152Y-34519706D02*
X197723676Y-34567325D01*
X197723676Y-34567325D02*
X197628438Y-34614944D01*
X197628438Y-34614944D02*
X197533200Y-34710182D01*
X197533200Y-34710182D02*
X197485580Y-34853039D01*
X197485580Y-34853039D02*
X197485580Y-35091134D01*
X197771295Y-34138753D02*
X197771295Y-33662563D01*
X197485580Y-34233991D02*
X198485580Y-33900658D01*
X198485580Y-33900658D02*
X197485580Y-33567325D01*
X191651771Y-36049896D02*
X191623200Y-36078468D01*
X191623200Y-36078468D02*
X191594628Y-36164182D01*
X191594628Y-36164182D02*
X191594628Y-36221325D01*
X191594628Y-36221325D02*
X191623200Y-36307039D01*
X191623200Y-36307039D02*
X191680342Y-36364182D01*
X191680342Y-36364182D02*
X191737485Y-36392753D01*
X191737485Y-36392753D02*
X191851771Y-36421325D01*
X191851771Y-36421325D02*
X191937485Y-36421325D01*
X191937485Y-36421325D02*
X192051771Y-36392753D01*
X192051771Y-36392753D02*
X192108914Y-36364182D01*
X192108914Y-36364182D02*
X192166057Y-36307039D01*
X192166057Y-36307039D02*
X192194628Y-36221325D01*
X192194628Y-36221325D02*
X192194628Y-36164182D01*
X192194628Y-36164182D02*
X192166057Y-36078468D01*
X192166057Y-36078468D02*
X192137485Y-36049896D01*
X191594628Y-35792753D02*
X192194628Y-35792753D01*
X192194628Y-35792753D02*
X192194628Y-35564182D01*
X192194628Y-35564182D02*
X192166057Y-35507039D01*
X192166057Y-35507039D02*
X192137485Y-35478468D01*
X192137485Y-35478468D02*
X192080342Y-35449896D01*
X192080342Y-35449896D02*
X191994628Y-35449896D01*
X191994628Y-35449896D02*
X191937485Y-35478468D01*
X191937485Y-35478468D02*
X191908914Y-35507039D01*
X191908914Y-35507039D02*
X191880342Y-35564182D01*
X191880342Y-35564182D02*
X191880342Y-35792753D01*
X191651771Y-34849896D02*
X191623200Y-34878468D01*
X191623200Y-34878468D02*
X191594628Y-34964182D01*
X191594628Y-34964182D02*
X191594628Y-35021325D01*
X191594628Y-35021325D02*
X191623200Y-35107039D01*
X191623200Y-35107039D02*
X191680342Y-35164182D01*
X191680342Y-35164182D02*
X191737485Y-35192753D01*
X191737485Y-35192753D02*
X191851771Y-35221325D01*
X191851771Y-35221325D02*
X191937485Y-35221325D01*
X191937485Y-35221325D02*
X192051771Y-35192753D01*
X192051771Y-35192753D02*
X192108914Y-35164182D01*
X192108914Y-35164182D02*
X192166057Y-35107039D01*
X192166057Y-35107039D02*
X192194628Y-35021325D01*
X192194628Y-35021325D02*
X192194628Y-34964182D01*
X192194628Y-34964182D02*
X192166057Y-34878468D01*
X192166057Y-34878468D02*
X192137485Y-34849896D01*
X192166057Y-33821325D02*
X192194628Y-33878468D01*
X192194628Y-33878468D02*
X192194628Y-33964182D01*
X192194628Y-33964182D02*
X192166057Y-34049896D01*
X192166057Y-34049896D02*
X192108914Y-34107039D01*
X192108914Y-34107039D02*
X192051771Y-34135610D01*
X192051771Y-34135610D02*
X191937485Y-34164182D01*
X191937485Y-34164182D02*
X191851771Y-34164182D01*
X191851771Y-34164182D02*
X191737485Y-34135610D01*
X191737485Y-34135610D02*
X191680342Y-34107039D01*
X191680342Y-34107039D02*
X191623200Y-34049896D01*
X191623200Y-34049896D02*
X191594628Y-33964182D01*
X191594628Y-33964182D02*
X191594628Y-33907039D01*
X191594628Y-33907039D02*
X191623200Y-33821325D01*
X191623200Y-33821325D02*
X191651771Y-33792753D01*
X191651771Y-33792753D02*
X191851771Y-33792753D01*
X191851771Y-33792753D02*
X191851771Y-33907039D01*
X191594628Y-33535610D02*
X192194628Y-33535610D01*
X192194628Y-33535610D02*
X191594628Y-33192753D01*
X191594628Y-33192753D02*
X192194628Y-33192753D01*
X191594628Y-32907039D02*
X192194628Y-32907039D01*
X192194628Y-32907039D02*
X192194628Y-32764182D01*
X192194628Y-32764182D02*
X192166057Y-32678468D01*
X192166057Y-32678468D02*
X192108914Y-32621325D01*
X192108914Y-32621325D02*
X192051771Y-32592754D01*
X192051771Y-32592754D02*
X191937485Y-32564182D01*
X191937485Y-32564182D02*
X191851771Y-32564182D01*
X191851771Y-32564182D02*
X191737485Y-32592754D01*
X191737485Y-32592754D02*
X191680342Y-32621325D01*
X191680342Y-32621325D02*
X191623200Y-32678468D01*
X191623200Y-32678468D02*
X191594628Y-32764182D01*
X191594628Y-32764182D02*
X191594628Y-32907039D01*
D11*
X200199523Y-66994819D02*
X200199523Y-67709104D01*
X200199523Y-67709104D02*
X200247142Y-67851961D01*
X200247142Y-67851961D02*
X200342380Y-67947200D01*
X200342380Y-67947200D02*
X200485237Y-67994819D01*
X200485237Y-67994819D02*
X200580475Y-67994819D01*
X199199523Y-67994819D02*
X199770951Y-67994819D01*
X199485237Y-67994819D02*
X199485237Y-66994819D01*
X199485237Y-66994819D02*
X199580475Y-67137676D01*
X199580475Y-67137676D02*
X199675713Y-67232914D01*
X199675713Y-67232914D02*
X199770951Y-67280533D01*
X198294761Y-66994819D02*
X198770951Y-66994819D01*
X198770951Y-66994819D02*
X198818570Y-67471009D01*
X198818570Y-67471009D02*
X198770951Y-67423390D01*
X198770951Y-67423390D02*
X198675713Y-67375771D01*
X198675713Y-67375771D02*
X198437618Y-67375771D01*
X198437618Y-67375771D02*
X198342380Y-67423390D01*
X198342380Y-67423390D02*
X198294761Y-67471009D01*
X198294761Y-67471009D02*
X198247142Y-67566247D01*
X198247142Y-67566247D02*
X198247142Y-67804342D01*
X198247142Y-67804342D02*
X198294761Y-67899580D01*
X198294761Y-67899580D02*
X198342380Y-67947200D01*
X198342380Y-67947200D02*
X198437618Y-67994819D01*
X198437618Y-67994819D02*
X198675713Y-67994819D01*
X198675713Y-67994819D02*
X198770951Y-67947200D01*
X198770951Y-67947200D02*
X198818570Y-67899580D01*
X191941220Y-99529419D02*
X191941220Y-100338942D01*
X191941220Y-100338942D02*
X191893601Y-100434180D01*
X191893601Y-100434180D02*
X191845982Y-100481800D01*
X191845982Y-100481800D02*
X191750744Y-100529419D01*
X191750744Y-100529419D02*
X191560268Y-100529419D01*
X191560268Y-100529419D02*
X191465030Y-100481800D01*
X191465030Y-100481800D02*
X191417411Y-100434180D01*
X191417411Y-100434180D02*
X191369792Y-100338942D01*
X191369792Y-100338942D02*
X191369792Y-99529419D01*
X190941220Y-99624657D02*
X190893601Y-99577038D01*
X190893601Y-99577038D02*
X190798363Y-99529419D01*
X190798363Y-99529419D02*
X190560268Y-99529419D01*
X190560268Y-99529419D02*
X190465030Y-99577038D01*
X190465030Y-99577038D02*
X190417411Y-99624657D01*
X190417411Y-99624657D02*
X190369792Y-99719895D01*
X190369792Y-99719895D02*
X190369792Y-99815133D01*
X190369792Y-99815133D02*
X190417411Y-99957990D01*
X190417411Y-99957990D02*
X190988839Y-100529419D01*
X190988839Y-100529419D02*
X190369792Y-100529419D01*
X115111375Y-58371819D02*
X115111375Y-59086104D01*
X115111375Y-59086104D02*
X115158994Y-59228961D01*
X115158994Y-59228961D02*
X115254232Y-59324200D01*
X115254232Y-59324200D02*
X115397089Y-59371819D01*
X115397089Y-59371819D02*
X115492327Y-59371819D01*
X114111375Y-59371819D02*
X114682803Y-59371819D01*
X114397089Y-59371819D02*
X114397089Y-58371819D01*
X114397089Y-58371819D02*
X114492327Y-58514676D01*
X114492327Y-58514676D02*
X114587565Y-58609914D01*
X114587565Y-58609914D02*
X114682803Y-58657533D01*
X113635184Y-59371819D02*
X113444708Y-59371819D01*
X113444708Y-59371819D02*
X113349470Y-59324200D01*
X113349470Y-59324200D02*
X113301851Y-59276580D01*
X113301851Y-59276580D02*
X113206613Y-59133723D01*
X113206613Y-59133723D02*
X113158994Y-58943247D01*
X113158994Y-58943247D02*
X113158994Y-58562295D01*
X113158994Y-58562295D02*
X113206613Y-58467057D01*
X113206613Y-58467057D02*
X113254232Y-58419438D01*
X113254232Y-58419438D02*
X113349470Y-58371819D01*
X113349470Y-58371819D02*
X113539946Y-58371819D01*
X113539946Y-58371819D02*
X113635184Y-58419438D01*
X113635184Y-58419438D02*
X113682803Y-58467057D01*
X113682803Y-58467057D02*
X113730422Y-58562295D01*
X113730422Y-58562295D02*
X113730422Y-58800390D01*
X113730422Y-58800390D02*
X113682803Y-58895628D01*
X113682803Y-58895628D02*
X113635184Y-58943247D01*
X113635184Y-58943247D02*
X113539946Y-58990866D01*
X113539946Y-58990866D02*
X113349470Y-58990866D01*
X113349470Y-58990866D02*
X113254232Y-58943247D01*
X113254232Y-58943247D02*
X113206613Y-58895628D01*
X113206613Y-58895628D02*
X113158994Y-58800390D01*
X83867523Y-65264819D02*
X83867523Y-65979104D01*
X83867523Y-65979104D02*
X83915142Y-66121961D01*
X83915142Y-66121961D02*
X84010380Y-66217200D01*
X84010380Y-66217200D02*
X84153237Y-66264819D01*
X84153237Y-66264819D02*
X84248475Y-66264819D01*
X82867523Y-66264819D02*
X83438951Y-66264819D01*
X83153237Y-66264819D02*
X83153237Y-65264819D01*
X83153237Y-65264819D02*
X83248475Y-65407676D01*
X83248475Y-65407676D02*
X83343713Y-65502914D01*
X83343713Y-65502914D02*
X83438951Y-65550533D01*
X82534189Y-65264819D02*
X81867523Y-65264819D01*
X81867523Y-65264819D02*
X82296094Y-66264819D01*
X165909523Y-33490819D02*
X165909523Y-34205104D01*
X165909523Y-34205104D02*
X165957142Y-34347961D01*
X165957142Y-34347961D02*
X166052380Y-34443200D01*
X166052380Y-34443200D02*
X166195237Y-34490819D01*
X166195237Y-34490819D02*
X166290475Y-34490819D01*
X164909523Y-34490819D02*
X165480951Y-34490819D01*
X165195237Y-34490819D02*
X165195237Y-33490819D01*
X165195237Y-33490819D02*
X165290475Y-33633676D01*
X165290475Y-33633676D02*
X165385713Y-33728914D01*
X165385713Y-33728914D02*
X165480951Y-33776533D01*
X164290475Y-33490819D02*
X164195237Y-33490819D01*
X164195237Y-33490819D02*
X164099999Y-33538438D01*
X164099999Y-33538438D02*
X164052380Y-33586057D01*
X164052380Y-33586057D02*
X164004761Y-33681295D01*
X164004761Y-33681295D02*
X163957142Y-33871771D01*
X163957142Y-33871771D02*
X163957142Y-34109866D01*
X163957142Y-34109866D02*
X164004761Y-34300342D01*
X164004761Y-34300342D02*
X164052380Y-34395580D01*
X164052380Y-34395580D02*
X164099999Y-34443200D01*
X164099999Y-34443200D02*
X164195237Y-34490819D01*
X164195237Y-34490819D02*
X164290475Y-34490819D01*
X164290475Y-34490819D02*
X164385713Y-34443200D01*
X164385713Y-34443200D02*
X164433332Y-34395580D01*
X164433332Y-34395580D02*
X164480951Y-34300342D01*
X164480951Y-34300342D02*
X164528570Y-34109866D01*
X164528570Y-34109866D02*
X164528570Y-33871771D01*
X164528570Y-33871771D02*
X164480951Y-33681295D01*
X164480951Y-33681295D02*
X164433332Y-33586057D01*
X164433332Y-33586057D02*
X164385713Y-33538438D01*
X164385713Y-33538438D02*
X164290475Y-33490819D01*
X184605256Y-41498419D02*
X184605256Y-42307942D01*
X184605256Y-42307942D02*
X184557637Y-42403180D01*
X184557637Y-42403180D02*
X184510018Y-42450800D01*
X184510018Y-42450800D02*
X184414780Y-42498419D01*
X184414780Y-42498419D02*
X184224304Y-42498419D01*
X184224304Y-42498419D02*
X184129066Y-42450800D01*
X184129066Y-42450800D02*
X184081447Y-42403180D01*
X184081447Y-42403180D02*
X184033828Y-42307942D01*
X184033828Y-42307942D02*
X184033828Y-41498419D01*
X183033828Y-42498419D02*
X183605256Y-42498419D01*
X183319542Y-42498419D02*
X183319542Y-41498419D01*
X183319542Y-41498419D02*
X183414780Y-41641276D01*
X183414780Y-41641276D02*
X183510018Y-41736514D01*
X183510018Y-41736514D02*
X183605256Y-41784133D01*
D12*
%TO.C,J13*%
X147499500Y-139859000D02*
X136991500Y-139859000D01*
X136991500Y-139859000D02*
X136991500Y-144113000D01*
X136991500Y-144113000D02*
X147499500Y-144113000D01*
X147499500Y-144113000D02*
X147499500Y-139859000D01*
X153245500Y-141986000D02*
G75*
G03*
X153245500Y-141986000I-2000000J0D01*
G01*
X135245500Y-141986000D02*
G75*
G03*
X135245500Y-141986000I-2000000J0D01*
G01*
D13*
%TO.C,J16*%
X191456000Y-50825400D02*
X191456000Y-35779400D01*
D12*
X202184000Y-50825400D02*
X191456000Y-50825400D01*
D13*
X202184000Y-50825400D02*
X202184000Y-35779400D01*
X199136000Y-40979400D02*
X191456000Y-40979400D01*
X199136000Y-40979400D02*
X199136000Y-38379400D01*
X200406000Y-40979400D02*
X201736000Y-40979400D01*
X201736000Y-40979400D02*
X201736000Y-39649400D01*
X199136000Y-38379400D02*
X201736000Y-38379400D01*
X202184000Y-35779400D02*
X191456000Y-35779400D01*
D12*
X192405000Y-49745900D02*
X193040000Y-49745900D01*
X193040000Y-49745900D02*
X193040000Y-47332900D01*
X193040000Y-47332900D02*
X192405000Y-47332900D01*
X192405000Y-47332900D02*
X192405000Y-49745900D01*
G36*
X192405000Y-49745900D02*
G01*
X193040000Y-49745900D01*
X193040000Y-47332900D01*
X192405000Y-47332900D01*
X192405000Y-49745900D01*
G37*
X194754500Y-49745900D02*
X195389500Y-49745900D01*
X195389500Y-49745900D02*
X195389500Y-47332900D01*
X195389500Y-47332900D02*
X194754500Y-47332900D01*
X194754500Y-47332900D02*
X194754500Y-49745900D01*
G36*
X194754500Y-49745900D02*
G01*
X195389500Y-49745900D01*
X195389500Y-47332900D01*
X194754500Y-47332900D01*
X194754500Y-49745900D01*
G37*
X197548500Y-49745900D02*
X198183500Y-49745900D01*
X198183500Y-49745900D02*
X198183500Y-47332900D01*
X198183500Y-47332900D02*
X197548500Y-47332900D01*
X197548500Y-47332900D02*
X197548500Y-49745900D01*
G36*
X197548500Y-49745900D02*
G01*
X198183500Y-49745900D01*
X198183500Y-47332900D01*
X197548500Y-47332900D01*
X197548500Y-49745900D01*
G37*
X199898000Y-49745900D02*
X200533000Y-49745900D01*
X200533000Y-49745900D02*
X200533000Y-47332900D01*
X200533000Y-47332900D02*
X199898000Y-47332900D01*
X199898000Y-47332900D02*
X199898000Y-49745900D01*
G36*
X199898000Y-49745900D02*
G01*
X200533000Y-49745900D01*
X200533000Y-47332900D01*
X199898000Y-47332900D01*
X199898000Y-49745900D01*
G37*
X195580000Y-46507400D02*
X193167000Y-46507400D01*
X193167000Y-46507400D02*
X193167000Y-45872400D01*
X193167000Y-45872400D02*
X195580000Y-45872400D01*
X195580000Y-45872400D02*
X195580000Y-46507400D01*
G36*
X195580000Y-46507400D02*
G01*
X193167000Y-46507400D01*
X193167000Y-45872400D01*
X195580000Y-45872400D01*
X195580000Y-46507400D01*
G37*
X200596500Y-46443900D02*
X198183500Y-46443900D01*
X198183500Y-46443900D02*
X198183500Y-45808900D01*
X198183500Y-45808900D02*
X200596500Y-45808900D01*
X200596500Y-45808900D02*
X200596500Y-46443900D01*
G36*
X200596500Y-46443900D02*
G01*
X198183500Y-46443900D01*
X198183500Y-45808900D01*
X200596500Y-45808900D01*
X200596500Y-46443900D01*
G37*
X195580000Y-43840400D02*
X193167000Y-43840400D01*
X193167000Y-43840400D02*
X193167000Y-43205400D01*
X193167000Y-43205400D02*
X195580000Y-43205400D01*
X195580000Y-43205400D02*
X195580000Y-43840400D01*
G36*
X195580000Y-43840400D02*
G01*
X193167000Y-43840400D01*
X193167000Y-43205400D01*
X195580000Y-43205400D01*
X195580000Y-43840400D01*
G37*
X200596500Y-43840400D02*
X198183500Y-43840400D01*
X198183500Y-43840400D02*
X198183500Y-43205400D01*
X198183500Y-43205400D02*
X200596500Y-43205400D01*
X200596500Y-43205400D02*
X200596500Y-43840400D01*
G36*
X200596500Y-43840400D02*
G01*
X198183500Y-43840400D01*
X198183500Y-43205400D01*
X200596500Y-43205400D01*
X200596500Y-43840400D01*
G37*
D13*
%TO.C,J15*%
X198060000Y-55820000D02*
X200720000Y-55820000D01*
X198060000Y-63500000D02*
X198060000Y-55820000D01*
X198060000Y-63500000D02*
X200720000Y-63500000D01*
X199390000Y-66100000D02*
X200720000Y-66100000D01*
X200720000Y-63500000D02*
X200720000Y-55820000D01*
X200720000Y-66100000D02*
X200720000Y-64770000D01*
%TO.C,U2*%
X202286000Y-76641400D02*
X202286000Y-75041400D01*
X201966000Y-74971400D02*
X201966000Y-124971400D01*
X201626000Y-74424400D02*
X201626000Y-125518400D01*
X201356000Y-125581400D02*
X194956000Y-125581400D01*
X201356000Y-74361400D02*
X198866000Y-74361400D01*
X198866000Y-124667880D02*
X198866000Y-125581400D01*
X198866000Y-122274920D02*
X198866000Y-124667880D01*
X198866000Y-77667880D02*
X198866000Y-122274920D01*
X198866000Y-75274920D02*
X198866000Y-77667880D01*
X198866000Y-74361400D02*
X198866000Y-75274920D01*
X198866000Y-74361400D02*
X195591000Y-74361400D01*
X195591000Y-74361400D02*
X187121000Y-74361400D01*
X195466000Y-73881400D02*
X195256000Y-73881400D01*
X195466000Y-72961400D02*
X195466000Y-73881400D01*
X195466000Y-72961400D02*
X187246000Y-72961400D01*
X195256000Y-77665400D02*
X195256000Y-78881400D01*
X195256000Y-75277400D02*
X195256000Y-77665400D01*
X195256000Y-73881400D02*
X195256000Y-75277400D01*
X192602090Y-78881400D02*
X190109910Y-78881400D01*
X187756000Y-125581400D02*
X194956000Y-125581400D01*
X187756000Y-125581400D02*
X181356000Y-125581400D01*
X187456000Y-78881400D02*
X195256000Y-78881400D01*
X187456000Y-77665400D02*
X187456000Y-78881400D01*
X187456000Y-75277400D02*
X187456000Y-77665400D01*
X187456000Y-73881400D02*
X187456000Y-75277400D01*
X187246000Y-73881400D02*
X187456000Y-73881400D01*
X187246000Y-72961400D02*
X187246000Y-73881400D01*
X187121000Y-74361400D02*
X183846000Y-74361400D01*
X183846000Y-124667880D02*
X183846000Y-125581400D01*
X183846000Y-122274920D02*
X183846000Y-124667880D01*
X183846000Y-77667880D02*
X183846000Y-122274920D01*
X183846000Y-75274920D02*
X183846000Y-77667880D01*
X183846000Y-74361400D02*
X183846000Y-75274920D01*
X181356000Y-74361400D02*
X183846000Y-74361400D01*
X181086000Y-125518400D02*
X181086000Y-74424400D01*
X180746000Y-74971400D02*
X180746000Y-124971400D01*
X201356000Y-125581400D02*
G75*
G03*
X201966000Y-124971400I0J610000D01*
G01*
X201966000Y-74971400D02*
G75*
G03*
X201356000Y-74361400I-610000J0D01*
G01*
X180746000Y-124971400D02*
G75*
G03*
X181356000Y-125581400I610000J0D01*
G01*
X181356000Y-74361400D02*
G75*
G03*
X180746000Y-74971400I0J-610000D01*
G01*
X197996000Y-123471400D02*
G75*
G03*
X197996000Y-123471400I-940000J0D01*
G01*
X197996000Y-76471400D02*
G75*
G03*
X197996000Y-76471400I-940000J0D01*
G01*
X186596000Y-123471400D02*
G75*
G03*
X186596000Y-123471400I-940000J0D01*
G01*
X186596000Y-76471400D02*
G75*
G03*
X186596000Y-76471400I-940000J0D01*
G01*
%TO.C,J19*%
X112881500Y-47692000D02*
X115541500Y-47692000D01*
X112881500Y-55372000D02*
X112881500Y-47692000D01*
X112881500Y-55372000D02*
X115541500Y-55372000D01*
X114211500Y-57972000D02*
X115541500Y-57972000D01*
X115541500Y-55372000D02*
X115541500Y-47692000D01*
X115541500Y-57972000D02*
X115541500Y-56642000D01*
%TO.C,J17*%
X84388000Y-100390000D02*
X81728000Y-100390000D01*
X84388000Y-69850000D02*
X84388000Y-100390000D01*
X84388000Y-69850000D02*
X81728000Y-69850000D01*
X83058000Y-67250000D02*
X81728000Y-67250000D01*
X81728000Y-69850000D02*
X81728000Y-100390000D01*
X81728000Y-67250000D02*
X81728000Y-68580000D01*
%TO.C,J10*%
X162452000Y-57666000D02*
X163452000Y-58166000D01*
X162452000Y-58666000D02*
X162452000Y-57666000D01*
X163452000Y-58166000D02*
X162452000Y-58666000D01*
X163842000Y-35176000D02*
X163842000Y-63376000D01*
X163842000Y-51326000D02*
X165152000Y-51326000D01*
X163842000Y-55136000D02*
X163842000Y-55136000D01*
X164322000Y-55136000D02*
X164322000Y-55136000D01*
X164802000Y-55136000D02*
X164802000Y-55136000D01*
X163842000Y-63376000D02*
X172962000Y-63376000D01*
X165152000Y-36476000D02*
X165152000Y-47226000D01*
X165152000Y-47226000D02*
X163842000Y-47226000D01*
X165152000Y-47226000D02*
X165152000Y-47226000D01*
X165152000Y-51036000D02*
X165152000Y-51036000D01*
X164672000Y-51036000D02*
X164672000Y-51036000D01*
X164192000Y-51036000D02*
X164192000Y-51036000D01*
X165152000Y-51036000D02*
X165152000Y-51036000D01*
X165152000Y-51326000D02*
X165152000Y-62076000D01*
X165152000Y-62076000D02*
X171652000Y-62076000D01*
X171652000Y-36476000D02*
X165152000Y-36476000D01*
X171652000Y-44096000D02*
X171652000Y-44096000D01*
X171172000Y-44096000D02*
X171172000Y-44096000D01*
X170692000Y-44096000D02*
X170692000Y-44096000D01*
X170212000Y-44096000D02*
X170212000Y-44096000D01*
X169732000Y-44096000D02*
X169732000Y-44096000D01*
X169252000Y-44096000D02*
X169252000Y-44096000D01*
X168772000Y-44096000D02*
X168772000Y-44096000D01*
X168292000Y-44096000D02*
X168292000Y-44096000D01*
X167812000Y-44096000D02*
X167812000Y-44096000D01*
X167332000Y-44096000D02*
X167332000Y-44096000D01*
X166852000Y-44096000D02*
X166852000Y-44096000D01*
X166372000Y-44096000D02*
X166372000Y-44096000D01*
X165892000Y-44096000D02*
X165892000Y-44096000D01*
X165412000Y-44096000D02*
X165412000Y-44096000D01*
X171652000Y-62076000D02*
X171652000Y-36476000D01*
X172962000Y-35176000D02*
X163842000Y-35176000D01*
X172962000Y-42796000D02*
X172962000Y-42796000D01*
X172482000Y-42796000D02*
X172482000Y-42796000D01*
X172002000Y-42796000D02*
X172002000Y-42796000D01*
X171522000Y-42796000D02*
X171522000Y-42796000D01*
X171042000Y-42796000D02*
X171042000Y-42796000D01*
X170562000Y-42796000D02*
X170562000Y-42796000D01*
X170082000Y-42796000D02*
X170082000Y-42796000D01*
X169602000Y-42796000D02*
X169602000Y-42796000D01*
X169122000Y-42796000D02*
X169122000Y-42796000D01*
X168642000Y-42796000D02*
X168642000Y-42796000D01*
X168162000Y-42796000D02*
X168162000Y-42796000D01*
X167682000Y-42796000D02*
X167682000Y-42796000D01*
X167202000Y-42796000D02*
X167202000Y-42796000D01*
X166722000Y-42796000D02*
X166722000Y-42796000D01*
X166242000Y-42796000D02*
X166242000Y-42796000D01*
X165762000Y-42796000D02*
X165762000Y-42796000D01*
X165282000Y-42796000D02*
X165282000Y-42796000D01*
X164802000Y-42796000D02*
X164802000Y-42796000D01*
X164322000Y-42796000D02*
X164322000Y-42796000D01*
X163842000Y-42796000D02*
X163842000Y-42796000D01*
X172962000Y-63376000D02*
X172962000Y-35176000D01*
%TO.C,U1*%
X178723352Y-36402600D02*
X188963352Y-36402600D01*
X178723352Y-39533600D02*
X188963352Y-39533600D01*
X178723352Y-41043600D02*
X178723352Y-36402600D01*
X178723352Y-41043600D02*
X188963352Y-41043600D01*
X181993352Y-41043600D02*
X181993352Y-39533600D01*
X185694352Y-41043600D02*
X185694352Y-39533600D01*
X188963352Y-41043600D02*
X188963352Y-36402600D01*
%TD*%
M02*
