%TF.GenerationSoftware,KiCad,Pcbnew,7.0.9*%
%TF.CreationDate,2024-01-09T21:06:09+01:00*%
%TF.ProjectId,euroPI-kicad_surfacemount_discretes_and_ics,6575726f-5049-42d6-9b69-6361645f7375,rev?*%
%TF.SameCoordinates,Original*%
%TF.FileFunction,Soldermask,Top*%
%TF.FilePolarity,Negative*%
%FSLAX46Y46*%
G04 Gerber Fmt 4.6, Leading zero omitted, Abs format (unit mm)*
G04 Created by KiCad (PCBNEW 7.0.9) date 2024-01-09 21:06:09*
%MOMM*%
%LPD*%
G01*
G04 APERTURE LIST*
G04 Aperture macros list*
%AMRoundRect*
0 Rectangle with rounded corners*
0 $1 Rounding radius*
0 $2 $3 $4 $5 $6 $7 $8 $9 X,Y pos of 4 corners*
0 Add a 4 corners polygon primitive as box body*
4,1,4,$2,$3,$4,$5,$6,$7,$8,$9,$2,$3,0*
0 Add four circle primitives for the rounded corners*
1,1,$1+$1,$2,$3*
1,1,$1+$1,$4,$5*
1,1,$1+$1,$6,$7*
1,1,$1+$1,$8,$9*
0 Add four rect primitives between the rounded corners*
20,1,$1+$1,$2,$3,$4,$5,0*
20,1,$1+$1,$4,$5,$6,$7,0*
20,1,$1+$1,$6,$7,$8,$9,0*
20,1,$1+$1,$8,$9,$2,$3,0*%
%AMFreePoly0*
4,1,28,0.605014,0.794986,0.644504,0.794986,0.724698,0.756366,0.780194,0.686777,0.800000,0.600000,0.800000,-0.600000,0.780194,-0.686777,0.724698,-0.756366,0.644504,-0.794986,0.605014,-0.794986,0.600000,-0.800000,0.000000,-0.800000,-0.178017,-0.779942,-0.347107,-0.720775,-0.498792,-0.625465,-0.625465,-0.498792,-0.720775,-0.347107,-0.779942,-0.178017,-0.800000,0.000000,-0.779942,0.178017,
-0.720775,0.347107,-0.625465,0.498792,-0.498792,0.625465,-0.347107,0.720775,-0.178017,0.779942,0.000000,0.800000,0.600000,0.800000,0.605014,0.794986,0.605014,0.794986,$1*%
%AMFreePoly1*
4,1,28,0.178017,0.779942,0.347107,0.720775,0.498792,0.625465,0.625465,0.498792,0.720775,0.347107,0.779942,0.178017,0.800000,0.000000,0.779942,-0.178017,0.720775,-0.347107,0.625465,-0.498792,0.498792,-0.625465,0.347107,-0.720775,0.178017,-0.779942,0.000000,-0.800000,-0.600000,-0.800000,-0.605014,-0.794986,-0.644504,-0.794986,-0.724698,-0.756366,-0.780194,-0.686777,-0.800000,-0.600000,
-0.800000,0.600000,-0.780194,0.686777,-0.724698,0.756366,-0.644504,0.794986,-0.605014,0.794986,-0.600000,0.800000,0.000000,0.800000,0.178017,0.779942,0.178017,0.779942,$1*%
G04 Aperture macros list end*
%ADD10R,1.500000X1.500000*%
%ADD11C,1.500000*%
%ADD12C,1.800000*%
%ADD13R,1.800000X1.800000*%
%ADD14O,1.700000X1.700000*%
%ADD15RoundRect,0.250000X-0.600000X-0.600000X0.600000X-0.600000X0.600000X0.600000X-0.600000X0.600000X0*%
%ADD16C,1.700000*%
%ADD17RoundRect,0.150000X0.150000X-0.825000X0.150000X0.825000X-0.150000X0.825000X-0.150000X-0.825000X0*%
%ADD18RoundRect,0.250000X-0.350000X-0.450000X0.350000X-0.450000X0.350000X0.450000X-0.350000X0.450000X0*%
%ADD19RoundRect,0.250000X-0.450000X0.350000X-0.450000X-0.350000X0.450000X-0.350000X0.450000X0.350000X0*%
%ADD20RoundRect,0.250000X0.350000X0.450000X-0.350000X0.450000X-0.350000X-0.450000X0.350000X-0.450000X0*%
%ADD21R,1.700000X1.700000*%
%ADD22RoundRect,0.250000X0.450000X-0.350000X0.450000X0.350000X-0.450000X0.350000X-0.450000X-0.350000X0*%
%ADD23RoundRect,0.250000X-0.337500X-0.475000X0.337500X-0.475000X0.337500X0.475000X-0.337500X0.475000X0*%
%ADD24C,2.130000*%
%ADD25R,1.830000X1.930000*%
%ADD26R,1.930000X1.830000*%
%ADD27RoundRect,0.150000X-0.150000X0.725000X-0.150000X-0.725000X0.150000X-0.725000X0.150000X0.725000X0*%
%ADD28RoundRect,0.225000X-0.375000X0.225000X-0.375000X-0.225000X0.375000X-0.225000X0.375000X0.225000X0*%
%ADD29C,4.000000*%
%ADD30C,2.200000*%
%ADD31RoundRect,0.225000X0.375000X-0.225000X0.375000X0.225000X-0.375000X0.225000X-0.375000X-0.225000X0*%
%ADD32RoundRect,0.250000X-0.475000X0.337500X-0.475000X-0.337500X0.475000X-0.337500X0.475000X0.337500X0*%
%ADD33RoundRect,0.250000X0.475000X-0.337500X0.475000X0.337500X-0.475000X0.337500X-0.475000X-0.337500X0*%
%ADD34RoundRect,0.250000X0.337500X0.475000X-0.337500X0.475000X-0.337500X-0.475000X0.337500X-0.475000X0*%
%ADD35RoundRect,0.200000X0.600000X0.600000X-0.600000X0.600000X-0.600000X-0.600000X0.600000X-0.600000X0*%
%ADD36C,1.600000*%
%ADD37FreePoly0,180.000000*%
%ADD38FreePoly1,180.000000*%
%ADD39R,1.905000X2.000000*%
%ADD40O,1.905000X2.000000*%
G04 APERTURE END LIST*
D10*
%TO.C,Q1*%
X174697000Y-95480000D03*
D11*
X174697000Y-92940000D03*
X174697000Y-90400000D03*
%TD*%
D12*
%TO.C,LED2*%
X102865000Y-94116000D03*
D13*
X100325000Y-94116000D03*
%TD*%
D14*
%TO.C,REF\u002A\u002A*%
X181610000Y-54610000D03*
X181610000Y-52070000D03*
X181610000Y-49530000D03*
X181610000Y-46990000D03*
X181610000Y-44450000D03*
X181610000Y-41910000D03*
X181610000Y-39370000D03*
X181610000Y-36830000D03*
X181610000Y-34290000D03*
X181610000Y-31750000D03*
X181610000Y-29210000D03*
X181610000Y-26670000D03*
X179070000Y-54610000D03*
X179070000Y-52070000D03*
X179070000Y-49530000D03*
X179070000Y-46990000D03*
X179070000Y-44450000D03*
X179070000Y-41910000D03*
X179070000Y-39370000D03*
X179070000Y-36830000D03*
X179070000Y-34290000D03*
X179070000Y-31750000D03*
X179070000Y-29210000D03*
X179070000Y-26670000D03*
X176530000Y-54610000D03*
X176530000Y-52070000D03*
X176530000Y-49530000D03*
X176530000Y-46990000D03*
X176530000Y-44450000D03*
X176530000Y-41910000D03*
X176530000Y-39370000D03*
X176530000Y-36830000D03*
X176530000Y-34290000D03*
X176530000Y-31750000D03*
X176530000Y-29210000D03*
X176530000Y-26670000D03*
X173990000Y-54610000D03*
X173990000Y-52070000D03*
X173990000Y-49530000D03*
X173990000Y-46990000D03*
X173990000Y-44450000D03*
X173990000Y-41910000D03*
X173990000Y-39370000D03*
X173990000Y-36830000D03*
X173990000Y-34290000D03*
X173990000Y-31750000D03*
X173990000Y-29210000D03*
X173990000Y-26670000D03*
X171450000Y-54610000D03*
X171450000Y-52070000D03*
X171450000Y-49530000D03*
X171450000Y-46990000D03*
X171450000Y-44450000D03*
X171450000Y-41910000D03*
X171450000Y-39370000D03*
X171450000Y-36830000D03*
X171450000Y-34290000D03*
X171450000Y-31750000D03*
X171450000Y-29210000D03*
X171450000Y-26670000D03*
X168910000Y-54610000D03*
X168910000Y-52070000D03*
X168910000Y-49530000D03*
X168910000Y-46990000D03*
X168910000Y-44450000D03*
X168910000Y-41910000D03*
X168910000Y-39370000D03*
X168910000Y-36830000D03*
X168910000Y-34290000D03*
X168910000Y-31750000D03*
X168910000Y-29210000D03*
X168910000Y-26670000D03*
X166370000Y-54610000D03*
X166370000Y-52070000D03*
X166370000Y-49530000D03*
X166370000Y-46990000D03*
X166370000Y-44450000D03*
X166370000Y-41910000D03*
X166370000Y-39370000D03*
X166370000Y-36830000D03*
X166370000Y-34290000D03*
X166370000Y-31750000D03*
X166370000Y-29210000D03*
X166370000Y-26670000D03*
X163830000Y-54610000D03*
X163830000Y-52070000D03*
X163830000Y-49530000D03*
X163830000Y-46990000D03*
X163830000Y-44450000D03*
X163830000Y-41910000D03*
X163830000Y-39370000D03*
X163830000Y-36830000D03*
X163830000Y-34290000D03*
X163830000Y-31750000D03*
X163830000Y-29210000D03*
X163830000Y-26670000D03*
X184150000Y-54610000D03*
X184150000Y-52070000D03*
X184150000Y-49530000D03*
X184150000Y-46990000D03*
X184150000Y-44450000D03*
X184150000Y-41910000D03*
X184150000Y-39370000D03*
X184150000Y-36830000D03*
X184150000Y-34290000D03*
X184150000Y-31750000D03*
X184150000Y-29210000D03*
X184150000Y-26670000D03*
X186690000Y-54610000D03*
X186690000Y-52070000D03*
X186690000Y-49530000D03*
X186690000Y-46990000D03*
X186690000Y-44450000D03*
X186690000Y-41910000D03*
X186690000Y-39370000D03*
X186690000Y-36830000D03*
X186690000Y-34290000D03*
X186690000Y-31750000D03*
X186690000Y-29210000D03*
X186690000Y-26670000D03*
X189230000Y-54610000D03*
X189230000Y-52070000D03*
X189230000Y-49530000D03*
X189230000Y-46990000D03*
X189230000Y-44450000D03*
X189230000Y-41910000D03*
X189230000Y-39370000D03*
X189230000Y-36830000D03*
X189230000Y-34290000D03*
X189230000Y-31750000D03*
X189230000Y-29210000D03*
X189230000Y-26670000D03*
X191770000Y-54610000D03*
X191770000Y-52070000D03*
X191770000Y-49530000D03*
X191770000Y-46990000D03*
X191770000Y-44450000D03*
X191770000Y-41910000D03*
X191770000Y-39370000D03*
X191770000Y-36830000D03*
X191770000Y-34290000D03*
X191770000Y-31750000D03*
X191770000Y-29210000D03*
X191770000Y-26670000D03*
X194310000Y-54610000D03*
X194310000Y-52070000D03*
X194310000Y-49530000D03*
X194310000Y-46990000D03*
X194310000Y-44450000D03*
X194310000Y-41910000D03*
X194310000Y-39370000D03*
X194310000Y-36830000D03*
X194310000Y-34290000D03*
X194310000Y-31750000D03*
X194310000Y-29210000D03*
X194310000Y-26670000D03*
X196850000Y-54610000D03*
X196850000Y-52070000D03*
X196850000Y-49530000D03*
X196850000Y-46990000D03*
X196850000Y-44450000D03*
X196850000Y-41910000D03*
X196850000Y-39370000D03*
X196850000Y-36830000D03*
X196850000Y-34290000D03*
X196850000Y-31750000D03*
X196850000Y-29210000D03*
X196850000Y-26670000D03*
X199390000Y-54610000D03*
X199390000Y-52070000D03*
X199390000Y-49530000D03*
X199390000Y-46990000D03*
X199390000Y-44450000D03*
X199390000Y-41910000D03*
X199390000Y-39370000D03*
X199390000Y-36830000D03*
X199390000Y-34290000D03*
X199390000Y-31750000D03*
X199390000Y-29210000D03*
X199390000Y-26670000D03*
X201930000Y-54610000D03*
X201930000Y-52070000D03*
X201930000Y-49530000D03*
X201930000Y-46990000D03*
X201930000Y-44450000D03*
X201930000Y-41910000D03*
X201930000Y-39370000D03*
X201930000Y-36830000D03*
X201930000Y-34290000D03*
X201930000Y-31750000D03*
X201930000Y-29210000D03*
X201930000Y-26670000D03*
%TD*%
D15*
%TO.C,J10*%
X167606000Y-81637000D03*
D16*
X170146000Y-81637000D03*
X167606000Y-79097000D03*
X170146000Y-79097000D03*
X167606000Y-76557000D03*
X170146000Y-76557000D03*
X167606000Y-74017000D03*
X170146000Y-74017000D03*
X167606000Y-71477000D03*
X170146000Y-71477000D03*
X167606000Y-68937000D03*
X170146000Y-68937000D03*
X167606000Y-66397000D03*
X170146000Y-66397000D03*
X167606000Y-63857000D03*
X170146000Y-63857000D03*
%TD*%
D17*
%TO.C,O3*%
X167276000Y-142916000D03*
X168546000Y-142916000D03*
X169816000Y-142916000D03*
X171086000Y-142916000D03*
X172356000Y-142916000D03*
X173626000Y-142916000D03*
X174896000Y-142916000D03*
X174896000Y-147866000D03*
X173626000Y-147866000D03*
X172356000Y-147866000D03*
X171086000Y-147866000D03*
X169816000Y-147866000D03*
X168546000Y-147866000D03*
X167276000Y-147866000D03*
%TD*%
D18*
%TO.C,R21*%
X185029600Y-152146000D03*
X187029600Y-152146000D03*
%TD*%
D19*
%TO.C,R16*%
X93472000Y-113121000D03*
X93472000Y-111121000D03*
%TD*%
%TO.C,R24*%
X190974000Y-105148000D03*
X190974000Y-107148000D03*
%TD*%
D20*
%TO.C,R6*%
X187148000Y-127588600D03*
X185148000Y-127588600D03*
%TD*%
D14*
%TO.C,J14*%
X108204000Y-46364000D03*
X108204000Y-43824000D03*
D21*
X108204000Y-41284000D03*
%TD*%
D22*
%TO.C,R17*%
X108458000Y-102993000D03*
X108458000Y-104993000D03*
%TD*%
D19*
%TO.C,R20*%
X102235000Y-63112000D03*
X102235000Y-61112000D03*
%TD*%
D23*
%TO.C,C1*%
X194000500Y-107799000D03*
X196075500Y-107799000D03*
%TD*%
D24*
%TO.C,J8*%
X87820648Y-32140000D03*
X96120648Y-32140000D03*
D25*
X84720648Y-32140000D03*
%TD*%
D19*
%TO.C,R41*%
X106172000Y-142012000D03*
X106172000Y-140012000D03*
%TD*%
D20*
%TO.C,R30*%
X181746400Y-152146000D03*
X179746400Y-152146000D03*
%TD*%
D24*
%TO.C,J4*%
X86614000Y-118074000D03*
X86614000Y-126374000D03*
D26*
X86614000Y-114974000D03*
%TD*%
D12*
%TO.C,LED6*%
X117851000Y-111896000D03*
D13*
X115311000Y-111896000D03*
%TD*%
D19*
%TO.C,R26*%
X178909000Y-112911000D03*
X178909000Y-114911000D03*
%TD*%
D18*
%TO.C,R22*%
X188882000Y-151487000D03*
X190882000Y-151487000D03*
%TD*%
D27*
%TO.C,U3*%
X100965000Y-147651000D03*
X99695000Y-147651000D03*
X98425000Y-147651000D03*
X97155000Y-147651000D03*
X97155000Y-142501000D03*
X98425000Y-142501000D03*
X99695000Y-142501000D03*
X100965000Y-142501000D03*
%TD*%
D18*
%TO.C,R13*%
X93456000Y-94116000D03*
X91456000Y-94116000D03*
%TD*%
D22*
%TO.C,R31*%
X178258000Y-122829517D03*
X178258000Y-120829517D03*
%TD*%
D28*
%TO.C,D2*%
X178858200Y-88851600D03*
X178858200Y-92151600D03*
%TD*%
D23*
%TO.C,C16*%
X178506500Y-73382000D03*
X180581500Y-73382000D03*
%TD*%
D20*
%TO.C,R11*%
X109773000Y-111896000D03*
X111773000Y-111896000D03*
%TD*%
D19*
%TO.C,Rx1*%
X97536000Y-151680000D03*
X97536000Y-149680000D03*
%TD*%
D18*
%TO.C,R23*%
X185799000Y-77700000D03*
X187799000Y-77700000D03*
%TD*%
D29*
%TO.C,VR3*%
X87996000Y-150278000D03*
X87996000Y-141478000D03*
D12*
X94996000Y-143378000D03*
X94996000Y-145878000D03*
X94996000Y-148378000D03*
%TD*%
D26*
%TO.C,J2*%
X101605824Y-97194000D03*
D24*
X101605824Y-108594000D03*
X101605824Y-100294000D03*
%TD*%
D27*
%TO.C,O1*%
X186021000Y-86152000D03*
X184751000Y-86152000D03*
X183481000Y-86152000D03*
X182211000Y-86152000D03*
X182211000Y-81002000D03*
X183481000Y-81002000D03*
X184751000Y-81002000D03*
X186021000Y-81002000D03*
%TD*%
D19*
%TO.C,R18*%
X109804200Y-117271800D03*
X109804200Y-115271800D03*
%TD*%
D18*
%TO.C,R29*%
X169241000Y-151360000D03*
X167241000Y-151360000D03*
%TD*%
D23*
%TO.C,C11*%
X189794000Y-138002600D03*
X191869000Y-138002600D03*
%TD*%
D16*
%TO.C,SW2*%
X86614000Y-77860000D03*
D29*
X91694000Y-77860000D03*
D16*
X96774000Y-77860000D03*
D30*
X94234000Y-72780000D03*
X87884000Y-75320000D03*
%TD*%
D23*
%TO.C,C14*%
X189794000Y-127588600D03*
X191869000Y-127588600D03*
%TD*%
D31*
%TO.C,D3*%
X175759400Y-80924800D03*
X175759400Y-77624800D03*
%TD*%
D20*
%TO.C,R37*%
X179258000Y-126401517D03*
X177258000Y-126401517D03*
%TD*%
D28*
%TO.C,D1*%
X169739600Y-88927800D03*
X169739600Y-92227800D03*
%TD*%
D20*
%TO.C,R1*%
X187164000Y-122508600D03*
X185164000Y-122508600D03*
%TD*%
D19*
%TO.C,R19*%
X102108000Y-54340000D03*
X102108000Y-52340000D03*
%TD*%
D24*
%TO.C,J7*%
X115361000Y-32190800D03*
X107061000Y-32190800D03*
D25*
X118461000Y-32190800D03*
%TD*%
D31*
%TO.C,D4*%
X175683200Y-71145800D03*
X175683200Y-67845800D03*
%TD*%
D23*
%TO.C,C2*%
X180411500Y-77700000D03*
X182486500Y-77700000D03*
%TD*%
D32*
%TO.C,C18*%
X103124000Y-146452500D03*
X103124000Y-144377500D03*
%TD*%
D24*
%TO.C,J1*%
X86614000Y-100294000D03*
X86614000Y-108594000D03*
D26*
X86614000Y-97194000D03*
%TD*%
D23*
%TO.C,C5*%
X182189500Y-150090000D03*
X184264500Y-150090000D03*
%TD*%
D20*
%TO.C,R5*%
X187148000Y-130382600D03*
X185148000Y-130382600D03*
%TD*%
D26*
%TO.C,J20*%
X112776707Y-139065000D03*
D24*
X112776707Y-150465000D03*
X112776707Y-142165000D03*
%TD*%
D21*
%TO.C,J11*%
X164812000Y-92051000D03*
D14*
X164812000Y-94591000D03*
X164812000Y-97131000D03*
X164812000Y-99671000D03*
X164812000Y-102211000D03*
X164812000Y-104751000D03*
X164812000Y-107291000D03*
X164812000Y-109831000D03*
X164812000Y-112371000D03*
X164812000Y-114911000D03*
X164812000Y-117451000D03*
X164812000Y-119991000D03*
X164812000Y-122531000D03*
%TD*%
D12*
%TO.C,LED5*%
X102870824Y-111896000D03*
D13*
X100330824Y-111896000D03*
%TD*%
D23*
%TO.C,C12*%
X189794000Y-135081600D03*
X191869000Y-135081600D03*
%TD*%
D24*
%TO.C,J3*%
X116597648Y-100294000D03*
X116597648Y-108594000D03*
D26*
X116597648Y-97194000D03*
%TD*%
D22*
%TO.C,R32*%
X167530000Y-136231000D03*
X167530000Y-134231000D03*
%TD*%
D12*
%TO.C,LED7*%
X105918000Y-144526000D03*
D13*
X105918000Y-147066000D03*
%TD*%
D19*
%TO.C,R8*%
X105918000Y-90515000D03*
X105918000Y-88515000D03*
%TD*%
%TO.C,R28*%
X99568000Y-33512000D03*
X99568000Y-31512000D03*
%TD*%
%TO.C,R10*%
X93472000Y-121278000D03*
X93472000Y-119278000D03*
%TD*%
D17*
%TO.C,O5*%
X178960000Y-142916000D03*
X180230000Y-142916000D03*
X181500000Y-142916000D03*
X182770000Y-142916000D03*
X184040000Y-142916000D03*
X185310000Y-142916000D03*
X186580000Y-142916000D03*
X186580000Y-147866000D03*
X185310000Y-147866000D03*
X184040000Y-147866000D03*
X182770000Y-147866000D03*
X181500000Y-147866000D03*
X180230000Y-147866000D03*
X178960000Y-147866000D03*
%TD*%
D20*
%TO.C,R2*%
X187148000Y-125048600D03*
X185148000Y-125048600D03*
%TD*%
D21*
%TO.C,J18*%
X195990500Y-80113000D03*
D14*
X195990500Y-77573000D03*
X195990500Y-75033000D03*
X195990500Y-72493000D03*
%TD*%
D16*
%TO.C,SW1*%
X106451400Y-77885400D03*
D29*
X111531400Y-77885400D03*
D16*
X116611400Y-77885400D03*
D30*
X114071400Y-72805400D03*
X107721400Y-75345400D03*
%TD*%
D22*
%TO.C,R27*%
X103632000Y-31512000D03*
X103632000Y-33512000D03*
%TD*%
D24*
%TO.C,J5*%
X101605824Y-118074000D03*
X101605824Y-126374000D03*
D26*
X101605824Y-114974000D03*
%TD*%
D20*
%TO.C,R36*%
X177912000Y-151487000D03*
X175912000Y-151487000D03*
%TD*%
D22*
%TO.C,R25*%
X190974000Y-111593000D03*
X190974000Y-109593000D03*
%TD*%
D23*
%TO.C,C10*%
X189794000Y-125048600D03*
X191869000Y-125048600D03*
%TD*%
D19*
%TO.C,R9*%
X109982000Y-94862000D03*
X109982000Y-92862000D03*
%TD*%
D23*
%TO.C,C13*%
X189794000Y-130382600D03*
X191869000Y-130382600D03*
%TD*%
D19*
%TO.C,R7*%
X93218000Y-102736000D03*
X93218000Y-100736000D03*
%TD*%
D23*
%TO.C,C7*%
X194000500Y-110974000D03*
X196075500Y-110974000D03*
%TD*%
D20*
%TO.C,R34*%
X174956000Y-121829517D03*
X172956000Y-121829517D03*
%TD*%
D29*
%TO.C,VR1*%
X115759400Y-59597400D03*
X106959400Y-59597400D03*
D12*
X108859400Y-52597400D03*
X111359400Y-52597400D03*
X113859400Y-52597400D03*
%TD*%
D23*
%TO.C,C15*%
X184856500Y-73382000D03*
X186931500Y-73382000D03*
%TD*%
D29*
%TO.C,VR2*%
X96232648Y-59587000D03*
X87432648Y-59587000D03*
D12*
X89332648Y-52587000D03*
X91832648Y-52587000D03*
X94332648Y-52587000D03*
%TD*%
D20*
%TO.C,R3*%
X187148000Y-138002600D03*
X185148000Y-138002600D03*
%TD*%
%TO.C,R4*%
X187148000Y-135081600D03*
X185148000Y-135081600D03*
%TD*%
D19*
%TO.C,R39*%
X171594000Y-130525600D03*
X171594000Y-132525600D03*
%TD*%
D12*
%TO.C,LED4*%
X87879000Y-111896000D03*
D13*
X85339000Y-111896000D03*
%TD*%
D14*
%TO.C,J12*%
X117957600Y-40522000D03*
X117957600Y-43062000D03*
X117957600Y-45602000D03*
D21*
X117957600Y-48142000D03*
%TD*%
D23*
%TO.C,C9*%
X189794000Y-122508600D03*
X191869000Y-122508600D03*
%TD*%
D33*
%TO.C,C17*%
X103632000Y-140004500D03*
X103632000Y-142079500D03*
%TD*%
D18*
%TO.C,R40*%
X172956000Y-126401517D03*
X174956000Y-126401517D03*
%TD*%
D24*
%TO.C,J6*%
X116597648Y-118074000D03*
X116597648Y-126374000D03*
D26*
X116597648Y-114974000D03*
%TD*%
D12*
%TO.C,LED3*%
X117856000Y-94116000D03*
D13*
X115316000Y-94116000D03*
%TD*%
D19*
%TO.C,R12*%
X109739648Y-123789000D03*
X109739648Y-121789000D03*
%TD*%
D22*
%TO.C,R38*%
X167530000Y-140295000D03*
X167530000Y-138295000D03*
%TD*%
D19*
%TO.C,R35*%
X165320000Y-149963000D03*
X165320000Y-151963000D03*
%TD*%
D18*
%TO.C,R14*%
X97266000Y-90052000D03*
X95266000Y-90052000D03*
%TD*%
D23*
%TO.C,C8*%
X194000500Y-104624000D03*
X196075500Y-104624000D03*
%TD*%
D13*
%TO.C,LED1*%
X85344000Y-94116000D03*
D12*
X87884000Y-94116000D03*
%TD*%
D20*
%TO.C,R15*%
X114581648Y-90306000D03*
X116581648Y-90306000D03*
%TD*%
D34*
%TO.C,C6*%
X184751000Y-140539600D03*
X182676000Y-140539600D03*
%TD*%
D22*
%TO.C,R33*%
X169638000Y-127953600D03*
X169638000Y-125953600D03*
%TD*%
D14*
%TO.C,J16*%
X193260000Y-60580400D03*
X195800000Y-60580400D03*
X198340000Y-60580400D03*
X200880000Y-60580400D03*
X193260000Y-63120400D03*
X195800000Y-63120400D03*
X198340000Y-63120400D03*
D21*
X200880000Y-63120400D03*
%TD*%
%TO.C,J15*%
X199864000Y-81891000D03*
D14*
X199864000Y-79351000D03*
X199864000Y-76811000D03*
X199864000Y-74271000D03*
%TD*%
D23*
%TO.C,C3*%
X171267500Y-150090000D03*
X173342500Y-150090000D03*
%TD*%
D35*
%TO.C,U2*%
X200720000Y-89638000D03*
D36*
X200720000Y-92178000D03*
D37*
X200720000Y-94718000D03*
D36*
X200720000Y-97258000D03*
X200720000Y-99798000D03*
X200720000Y-102338000D03*
X200720000Y-104878000D03*
D37*
X200720000Y-107418000D03*
D36*
X200720000Y-109958000D03*
X200720000Y-112498000D03*
X200720000Y-115038000D03*
X200720000Y-117578000D03*
D37*
X200720000Y-120118000D03*
D36*
X200720000Y-122658000D03*
X200720000Y-125198000D03*
X200720000Y-127738000D03*
X200720000Y-130278000D03*
D37*
X200720000Y-132818000D03*
D36*
X200720000Y-135358000D03*
X200720000Y-137898000D03*
X182940000Y-137898000D03*
X182940000Y-135358000D03*
D38*
X182940000Y-132818000D03*
D36*
X182940000Y-130278000D03*
X182940000Y-127738000D03*
X182940000Y-125198000D03*
X182940000Y-122658000D03*
D38*
X182940000Y-120118000D03*
D36*
X182940000Y-117578000D03*
X182940000Y-115038000D03*
X182940000Y-112498000D03*
X182940000Y-109958000D03*
D38*
X182940000Y-107418000D03*
D36*
X182940000Y-104878000D03*
X182940000Y-102338000D03*
X182940000Y-99798000D03*
X182940000Y-97258000D03*
D38*
X182940000Y-94718000D03*
D36*
X182940000Y-92178000D03*
X182940000Y-89638000D03*
%TD*%
D14*
%TO.C,J21*%
X100584000Y-150664000D03*
X103124000Y-150664000D03*
D21*
X105664000Y-150664000D03*
%TD*%
D14*
%TO.C,J19*%
X114211500Y-40522000D03*
X114211500Y-43062000D03*
X114211500Y-45602000D03*
D21*
X114211500Y-48142000D03*
%TD*%
D14*
%TO.C,J17*%
X83058000Y-90560000D03*
X83058000Y-88020000D03*
X83058000Y-85480000D03*
X83058000Y-82940000D03*
X83058000Y-80400000D03*
X83058000Y-77860000D03*
X83058000Y-75320000D03*
X83058000Y-72780000D03*
X83058000Y-70240000D03*
X83058000Y-67700000D03*
X83058000Y-65160000D03*
X83058000Y-62620000D03*
D21*
X83058000Y-60080000D03*
%TD*%
D34*
%TO.C,C4*%
X173364000Y-140184000D03*
X171289000Y-140184000D03*
%TD*%
D39*
%TO.C,U1*%
X180941000Y-61515000D03*
D40*
X183481000Y-61515000D03*
X186021000Y-61515000D03*
%TD*%
M02*
