M48
; DRILL file {KiCad 7.0.9} date Fri Jan  5 19:18:43 2024
; FORMAT={-:-/ absolute / inch / decimal}
; #@! TF.CreationDate,2024-01-05T19:18:43+01:00
; #@! TF.GenerationSoftware,Kicad,Pcbnew,7.0.9
; #@! TF.FileFunction,Plated,1,2,PTH
FMAT,2
INCH
; #@! TA.AperFunction,Plated,PTH,ViaDrill
T1C0.0157
; #@! TA.AperFunction,Plated,PTH,ViaDrill
T2C0.0197
; #@! TA.AperFunction,Plated,PTH,ComponentDrill
T3C0.0315
; #@! TA.AperFunction,Plated,PTH,ComponentDrill
T4C0.0354
; #@! TA.AperFunction,Plated,PTH,ComponentDrill
T5C0.0394
; #@! TA.AperFunction,Plated,PTH,ComponentDrill
T6C0.0433
; #@! TA.AperFunction,Plated,PTH,ComponentDrill
T7C0.0480
; #@! TA.AperFunction,Plated,PTH,ComponentDrill
T8C0.0559
; #@! TA.AperFunction,Plated,PTH,ComponentDrill
T9C0.0563
; #@! TA.AperFunction,Plated,PTH,ComponentDrill
T10C0.0591
%
G90
G05
T1
X3.68Y-4.6142
X3.9397Y-2.1561
X4.02Y-2.215
X4.2507Y-3.9202
X4.3205Y-4.725
X4.3507Y-4.2135
X6.5571Y-3.955
X6.569Y-2.23
X6.575Y-4.465
X6.6062Y-3.8149
X6.632Y-4.275
X6.645Y-3.645
X6.6614Y-4.1591
X6.7151Y-4.4008
X6.722Y-4.485
X6.7344Y-4.045
X6.735Y-3.505
X6.7509Y-4.3012
X6.8355Y-3.905
X6.8393Y-4.145
X6.8736Y-4.1209
X6.8739Y-3.8899
X6.9166Y-4.5603
X6.92Y-3.78
X6.9209Y-4.0735
X6.9265Y-2.78
X6.945Y-3.47
X6.9497Y-3.0356
X6.9535Y-2.7
X6.96Y-2.94
X6.96Y-2.9913
X7.033Y-3.7943
X7.052Y-2.427
X7.0652Y-1.7452
X7.1154Y-2.8313
X7.1498Y-4.5071
X7.15Y-1.32
X7.162Y-4.435
X7.1934Y-1.705
X7.2019Y-4.645
X7.2282Y-1.8266
X7.2514Y-1.9386
X7.2667Y-4.0005
X7.3085Y-3.995
X7.342Y-4.275
X7.3481Y-1.2619
X7.4183Y-1.7582
X7.445Y-4.54
X7.4832Y-2.8975
X7.505Y-4.4599
X7.522Y-4.325
X7.532Y-3.185
X7.56Y-2.92
X7.755Y-2.91
T2
X3.67Y-3.3054
X3.7325Y-2.6941
X3.92Y-3.1154
X3.9552Y-2.8102
X4.06Y-3.2854
T3
X6.8542Y-2.3
X6.8542Y-2.4
X6.8542Y-2.5
T4
X3.3598Y-4.4054
X3.3602Y-3.7054
X3.4598Y-4.4054
X3.4602Y-3.7054
X3.95Y-4.4054
X3.9504Y-3.7054
X4.05Y-4.4054
X4.0504Y-3.7054
X4.17Y-5.69
X4.17Y-5.79
X4.5407Y-3.7054
X4.5407Y-4.4054
X4.6407Y-3.7054
X4.6407Y-4.4054
T5
X3.27Y-2.3654
X3.27Y-2.4654
X3.27Y-2.5654
X3.27Y-2.6654
X3.27Y-2.7654
X3.27Y-2.8654
X3.27Y-2.9654
X3.27Y-3.0654
X3.27Y-3.1654
X3.27Y-3.2654
X3.27Y-3.3654
X3.27Y-3.4654
X3.27Y-3.5654
X3.517Y-2.0704
X3.6155Y-2.0704
X3.7139Y-2.0704
X3.74Y-5.6448
X3.74Y-5.7432
X3.74Y-5.8417
X3.96Y-5.9317
X4.06Y-5.9317
X4.16Y-5.9317
X4.26Y-1.6254
X4.26Y-1.7254
X4.26Y-1.8254
X4.2858Y-2.0708
X4.3842Y-2.0708
X4.4827Y-2.0708
X4.4965Y-1.5954
X4.4965Y-1.6954
X4.4965Y-1.7954
X4.4965Y-1.8954
X4.644Y-1.5954
X4.644Y-1.6954
X4.644Y-1.7954
X4.644Y-1.8954
X6.465Y-2.365
X6.465Y-2.465
X6.465Y-2.565
X6.465Y-2.665
X6.465Y-2.765
X6.465Y-2.865
X6.465Y-2.965
X6.465Y-3.065
X6.465Y-3.165
X6.465Y-3.265
X6.465Y-3.365
X6.465Y-3.465
X6.465Y-3.565
X6.575Y-1.255
X6.575Y-1.355
X6.575Y-1.455
X6.575Y-1.555
X6.575Y-1.655
X6.575Y-1.755
X6.575Y-1.855
X6.575Y-1.955
X6.675Y-1.255
X6.675Y-1.355
X6.675Y-1.455
X6.675Y-1.555
X6.675Y-1.655
X6.675Y-1.755
X6.675Y-1.855
X6.675Y-1.955
X7.1787Y-2.27
X7.1787Y-2.37
X7.1787Y-2.47
X7.1787Y-2.57
X7.1787Y-2.67
X7.1787Y-2.77
X7.1787Y-2.87
X7.1787Y-2.97
X7.1787Y-3.07
X7.1787Y-3.17
X7.1787Y-3.27
X7.1787Y-3.37
X7.1787Y-3.47
X7.1787Y-3.57
X7.1787Y-3.67
X7.1787Y-3.77
X7.1787Y-3.87
X7.1787Y-3.97
X7.1787Y-4.07
X7.1787Y-4.17
X7.585Y-1.126
X7.585Y-1.226
X7.685Y-1.126
X7.685Y-1.226
X7.6925Y-1.595
X7.6925Y-1.695
X7.6925Y-1.795
X7.6925Y-1.895
X7.785Y-1.126
X7.785Y-1.226
X7.845Y-1.665
X7.845Y-1.765
X7.845Y-1.865
X7.845Y-1.965
X7.8787Y-2.27
X7.8787Y-2.37
X7.8787Y-2.47
X7.8787Y-2.57
X7.8787Y-2.67
X7.8787Y-2.77
X7.8787Y-2.87
X7.8787Y-2.97
X7.8787Y-3.07
X7.8787Y-3.17
X7.8787Y-3.27
X7.8787Y-3.37
X7.8787Y-3.47
X7.8787Y-3.57
X7.8787Y-3.67
X7.8787Y-3.77
X7.8787Y-3.87
X7.8787Y-3.97
X7.8787Y-4.07
X7.8787Y-4.17
X7.885Y-1.126
X7.885Y-1.226
T6
X7.1Y-1.1628
X7.2Y-1.1628
X7.3Y-1.1628
T7
X3.3355Y-1.2654
X3.41Y-3.8265
X3.41Y-4.5265
X4.0002Y-3.8265
X4.0002Y-4.5265
X4.44Y-5.5028
X4.5905Y-3.8265
X4.5905Y-4.5265
X4.6638Y-1.2674
T8
X3.41Y-3.9486
X3.41Y-4.6486
X3.4575Y-1.2654
X4.0002Y-3.9486
X4.0002Y-4.6486
X4.44Y-5.6249
X4.5418Y-1.2674
X4.5905Y-3.9486
X4.5905Y-4.6486
T9
X3.41Y-4.2754
X3.41Y-4.9754
X3.7843Y-1.2654
X4.0002Y-4.2754
X4.0002Y-4.9754
X4.215Y-1.2674
X4.44Y-5.9516
X4.5905Y-4.2754
X4.5905Y-4.9754
T10
X3.46Y-2.9654
X3.71Y-2.8654
X4.241Y-2.9664
X4.491Y-2.8664
T0
M30
