%TF.GenerationSoftware,KiCad,Pcbnew,7.0.9*%
%TF.CreationDate,2023-11-30T20:30:40+01:00*%
%TF.ProjectId,euroPI-kicad_surfacemount_discretes_and_ics,6575726f-5049-42d6-9b69-6361645f7375,rev?*%
%TF.SameCoordinates,Original*%
%TF.FileFunction,Copper,L1,Top*%
%TF.FilePolarity,Positive*%
%FSLAX46Y46*%
G04 Gerber Fmt 4.6, Leading zero omitted, Abs format (unit mm)*
G04 Created by KiCad (PCBNEW 7.0.9) date 2023-11-30 20:30:40*
%MOMM*%
%LPD*%
G01*
G04 APERTURE LIST*
G04 Aperture macros list*
%AMRoundRect*
0 Rectangle with rounded corners*
0 $1 Rounding radius*
0 $2 $3 $4 $5 $6 $7 $8 $9 X,Y pos of 4 corners*
0 Add a 4 corners polygon primitive as box body*
4,1,4,$2,$3,$4,$5,$6,$7,$8,$9,$2,$3,0*
0 Add four circle primitives for the rounded corners*
1,1,$1+$1,$2,$3*
1,1,$1+$1,$4,$5*
1,1,$1+$1,$6,$7*
1,1,$1+$1,$8,$9*
0 Add four rect primitives between the rounded corners*
20,1,$1+$1,$2,$3,$4,$5,0*
20,1,$1+$1,$4,$5,$6,$7,0*
20,1,$1+$1,$6,$7,$8,$9,0*
20,1,$1+$1,$8,$9,$2,$3,0*%
%AMFreePoly0*
4,1,28,0.178017,0.779942,0.347107,0.720775,0.498792,0.625465,0.625465,0.498792,0.720775,0.347107,0.779942,0.178017,0.800000,0.000000,0.779942,-0.178017,0.720775,-0.347107,0.625465,-0.498792,0.498792,-0.625465,0.347107,-0.720775,0.178017,-0.779942,0.000000,-0.800000,-0.600000,-0.800000,-0.605014,-0.794986,-0.644504,-0.794986,-0.724698,-0.756366,-0.780194,-0.686777,-0.800000,-0.600000,
-0.800000,0.600000,-0.780194,0.686777,-0.724698,0.756366,-0.644504,0.794986,-0.605014,0.794986,-0.600000,0.800000,0.000000,0.800000,0.178017,0.779942,0.178017,0.779942,$1*%
%AMFreePoly1*
4,1,28,0.605014,0.794986,0.644504,0.794986,0.724698,0.756366,0.780194,0.686777,0.800000,0.600000,0.800000,-0.600000,0.780194,-0.686777,0.724698,-0.756366,0.644504,-0.794986,0.605014,-0.794986,0.600000,-0.800000,0.000000,-0.800000,-0.178017,-0.779942,-0.347107,-0.720775,-0.498792,-0.625465,-0.625465,-0.498792,-0.720775,-0.347107,-0.779942,-0.178017,-0.800000,0.000000,-0.779942,0.178017,
-0.720775,0.347107,-0.625465,0.498792,-0.498792,0.625465,-0.347107,0.720775,-0.178017,0.779942,0.000000,0.800000,0.600000,0.800000,0.605014,0.794986,0.605014,0.794986,$1*%
G04 Aperture macros list end*
%TA.AperFunction,ComponentPad*%
%ADD10R,1.930000X1.830000*%
%TD*%
%TA.AperFunction,ComponentPad*%
%ADD11C,2.130000*%
%TD*%
%TA.AperFunction,ComponentPad*%
%ADD12R,1.905000X2.000000*%
%TD*%
%TA.AperFunction,ComponentPad*%
%ADD13O,1.905000X2.000000*%
%TD*%
%TA.AperFunction,SMDPad,CuDef*%
%ADD14RoundRect,0.150000X0.150000X-0.825000X0.150000X0.825000X-0.150000X0.825000X-0.150000X-0.825000X0*%
%TD*%
%TA.AperFunction,SMDPad,CuDef*%
%ADD15RoundRect,0.250000X-0.350000X-0.450000X0.350000X-0.450000X0.350000X0.450000X-0.350000X0.450000X0*%
%TD*%
%TA.AperFunction,SMDPad,CuDef*%
%ADD16RoundRect,0.250000X-0.450000X0.350000X-0.450000X-0.350000X0.450000X-0.350000X0.450000X0.350000X0*%
%TD*%
%TA.AperFunction,SMDPad,CuDef*%
%ADD17RoundRect,0.250000X0.350000X0.450000X-0.350000X0.450000X-0.350000X-0.450000X0.350000X-0.450000X0*%
%TD*%
%TA.AperFunction,SMDPad,CuDef*%
%ADD18RoundRect,0.250000X0.450000X-0.350000X0.450000X0.350000X-0.450000X0.350000X-0.450000X-0.350000X0*%
%TD*%
%TA.AperFunction,SMDPad,CuDef*%
%ADD19RoundRect,0.250000X-0.337500X-0.475000X0.337500X-0.475000X0.337500X0.475000X-0.337500X0.475000X0*%
%TD*%
%TA.AperFunction,ComponentPad*%
%ADD20R,1.830000X1.930000*%
%TD*%
%TA.AperFunction,ComponentPad*%
%ADD21R,1.800000X1.800000*%
%TD*%
%TA.AperFunction,ComponentPad*%
%ADD22C,1.800000*%
%TD*%
%TA.AperFunction,SMDPad,CuDef*%
%ADD23RoundRect,0.150000X-0.150000X0.725000X-0.150000X-0.725000X0.150000X-0.725000X0.150000X0.725000X0*%
%TD*%
%TA.AperFunction,SMDPad,CuDef*%
%ADD24RoundRect,0.225000X-0.375000X0.225000X-0.375000X-0.225000X0.375000X-0.225000X0.375000X0.225000X0*%
%TD*%
%TA.AperFunction,WasherPad*%
%ADD25C,4.000000*%
%TD*%
%TA.AperFunction,SMDPad,CuDef*%
%ADD26RoundRect,0.150000X0.725000X0.150000X-0.725000X0.150000X-0.725000X-0.150000X0.725000X-0.150000X0*%
%TD*%
%TA.AperFunction,ComponentPad*%
%ADD27C,2.200000*%
%TD*%
%TA.AperFunction,SMDPad,CuDef*%
%ADD28RoundRect,0.225000X0.375000X-0.225000X0.375000X0.225000X-0.375000X0.225000X-0.375000X-0.225000X0*%
%TD*%
%TA.AperFunction,SMDPad,CuDef*%
%ADD29RoundRect,0.250000X-0.475000X0.337500X-0.475000X-0.337500X0.475000X-0.337500X0.475000X0.337500X0*%
%TD*%
%TA.AperFunction,ComponentPad*%
%ADD30O,1.700000X1.700000*%
%TD*%
%TA.AperFunction,ComponentPad*%
%ADD31R,1.700000X1.700000*%
%TD*%
%TA.AperFunction,ComponentPad*%
%ADD32R,1.300000X1.300000*%
%TD*%
%TA.AperFunction,ComponentPad*%
%ADD33C,1.300000*%
%TD*%
%TA.AperFunction,SMDPad,CuDef*%
%ADD34RoundRect,0.250000X0.475000X-0.337500X0.475000X0.337500X-0.475000X0.337500X-0.475000X-0.337500X0*%
%TD*%
%TA.AperFunction,ComponentPad*%
%ADD35C,1.600000*%
%TD*%
%TA.AperFunction,ComponentPad*%
%ADD36FreePoly0,180.000000*%
%TD*%
%TA.AperFunction,ComponentPad*%
%ADD37FreePoly1,180.000000*%
%TD*%
%TA.AperFunction,ComponentPad*%
%ADD38RoundRect,0.200000X0.600000X0.600000X-0.600000X0.600000X-0.600000X-0.600000X0.600000X-0.600000X0*%
%TD*%
%TA.AperFunction,ComponentPad*%
%ADD39C,1.700000*%
%TD*%
%TA.AperFunction,ComponentPad*%
%ADD40RoundRect,0.250000X-0.600000X-0.600000X0.600000X-0.600000X0.600000X0.600000X-0.600000X0.600000X0*%
%TD*%
%TA.AperFunction,ViaPad*%
%ADD41C,0.800000*%
%TD*%
%TA.AperFunction,ViaPad*%
%ADD42C,1.000000*%
%TD*%
%TA.AperFunction,Conductor*%
%ADD43C,0.400000*%
%TD*%
%TA.AperFunction,Conductor*%
%ADD44C,1.500000*%
%TD*%
%TA.AperFunction,Conductor*%
%ADD45C,1.000000*%
%TD*%
%TA.AperFunction,Conductor*%
%ADD46C,0.750000*%
%TD*%
G04 APERTURE END LIST*
D10*
%TO.P,J20,S*%
%TO.N,I2C_GND*%
X112776707Y-139771293D03*
D11*
%TO.P,J20,T*%
%TO.N,Net-(C18-Pad1)*%
X112776707Y-151171293D03*
%TO.P,J20,TN*%
%TO.N,unconnected-(J20-PadTN)*%
X112776707Y-142871293D03*
%TD*%
D12*
%TO.P,U1,1,IN*%
%TO.N,~*%
X180340000Y-29535000D03*
D13*
%TO.P,U1,2,GND*%
%TO.N,I2C_GND*%
X182880000Y-29535000D03*
%TO.P,U1,3,OUT*%
%TO.N,+5V*%
X185420000Y-29535000D03*
%TD*%
D14*
%TO.P,O3,14*%
%TO.N,CJ4*%
X166675000Y-110936000D03*
%TO.P,O3,13,-*%
%TO.N,Net-(O3D--)*%
X167945000Y-110936000D03*
%TO.P,O3,12,+*%
%TO.N,Net-(O3D-+)*%
X169215000Y-110936000D03*
%TO.P,O3,11,V-*%
%TO.N,-12V*%
X170485000Y-110936000D03*
%TO.P,O3,10,+*%
%TO.N,Net-(O3C-+)*%
X171755000Y-110936000D03*
%TO.P,O3,9,-*%
%TO.N,Net-(O3C--)*%
X173025000Y-110936000D03*
%TO.P,O3,8*%
%TO.N,CJ5*%
X174295000Y-110936000D03*
%TO.P,O3,7*%
%TO.N,CJ2*%
X174295000Y-115886000D03*
%TO.P,O3,6,-*%
%TO.N,Net-(O3B--)*%
X173025000Y-115886000D03*
%TO.P,O3,5,+*%
%TO.N,Net-(O3B-+)*%
X171755000Y-115886000D03*
%TO.P,O3,4,V+*%
%TO.N,~*%
X170485000Y-115886000D03*
%TO.P,O3,3,+*%
%TO.N,Net-(O3A-+)*%
X169215000Y-115886000D03*
%TO.P,O3,2,-*%
%TO.N,Net-(O3A--)*%
X167945000Y-115886000D03*
%TO.P,O3,1*%
%TO.N,CJ1*%
X166675000Y-115886000D03*
%TD*%
D15*
%TO.P,R21,2*%
%TO.N,Net-(O5-Pad7)*%
X185979000Y-119507000D03*
%TO.P,R21,1*%
%TO.N,CJA*%
X183979000Y-119507000D03*
%TD*%
D16*
%TO.P,R16,1*%
%TO.N,Net-(LED4-A)*%
X93472000Y-111121000D03*
%TO.P,R16,2*%
%TO.N,CJ4*%
X93472000Y-113121000D03*
%TD*%
%TO.P,R24,2*%
%TO.N,I2C_VCC*%
X190373000Y-75168000D03*
%TO.P,R24,1*%
%TO.N,CS1*%
X190373000Y-73168000D03*
%TD*%
D17*
%TO.P,R6,2*%
%TO.N,GP19*%
X184547000Y-95608600D03*
%TO.P,R6,1*%
%TO.N,Net-(O5D-+)*%
X186547000Y-95608600D03*
%TD*%
D18*
%TO.P,R17,1*%
%TO.N,Net-(LED5-A)*%
X108458000Y-104993000D03*
%TO.P,R17,2*%
%TO.N,CJ5*%
X108458000Y-102993000D03*
%TD*%
D16*
%TO.P,R20,1*%
%TO.N,CS1*%
X102235000Y-61112000D03*
%TO.P,R20,2*%
%TO.N,Net-(R20-Pad2)*%
X102235000Y-63112000D03*
%TD*%
D19*
%TO.P,C1,2*%
%TO.N,I2C_GND*%
X195474500Y-75819000D03*
%TO.P,C1,1*%
%TO.N,I2C_VCC*%
X193399500Y-75819000D03*
%TD*%
D20*
%TO.P,J8,S*%
%TO.N,I2C_GND*%
X84720648Y-32140000D03*
D11*
%TO.P,J8,T*%
%TO.N,Net-(J8-PadT)*%
X96120648Y-32140000D03*
%TO.P,J8,TN*%
%TO.N,unconnected-(J8-PadTN)*%
X87820648Y-32140000D03*
%TD*%
D16*
%TO.P,R41,2*%
%TO.N,I2C_GND*%
X106172000Y-142012000D03*
%TO.P,R41,1*%
%TO.N,Net-(LED7-K)*%
X106172000Y-140012000D03*
%TD*%
D17*
%TO.P,R30,2*%
%TO.N,I2C_GND*%
X179629000Y-119507000D03*
%TO.P,R30,1*%
%TO.N,Net-(O3B--)*%
X181629000Y-119507000D03*
%TD*%
D10*
%TO.P,J4,S*%
%TO.N,I2C_GND*%
X86614000Y-114974000D03*
D11*
%TO.P,J4,T*%
%TO.N,Net-(J4-PadT)*%
X86614000Y-126374000D03*
%TO.P,J4,TN*%
%TO.N,unconnected-(J4-PadTN)*%
X86614000Y-118074000D03*
%TD*%
D21*
%TO.P,LED6,1,K*%
%TO.N,I2C_GND*%
X117872648Y-111896000D03*
D22*
%TO.P,LED6,2,A*%
%TO.N,Net-(LED6-A)*%
X115332648Y-111896000D03*
%TD*%
D16*
%TO.P,R26,2*%
%TO.N,GP22*%
X178308000Y-82931000D03*
%TO.P,R26,1*%
%TO.N,I2C_VCC*%
X178308000Y-80931000D03*
%TD*%
D15*
%TO.P,R22,2*%
%TO.N,Net-(O1A--)*%
X190281000Y-119507000D03*
%TO.P,R22,1*%
%TO.N,Net-(O5-Pad7)*%
X188281000Y-119507000D03*
%TD*%
D23*
%TO.P,U3,8,VCC*%
%TO.N,~*%
X100965000Y-147651000D03*
%TO.P,U3,7,DIS*%
%TO.N,Net-(U3-DIS)*%
X99695000Y-147651000D03*
%TO.P,U3,6,THR*%
%TO.N,Net-(U3-THR)*%
X98425000Y-147651000D03*
%TO.P,U3,5,CV*%
%TO.N,unconnected-(U3-CV-Pad5)*%
X97155000Y-147651000D03*
%TO.P,U3,4,R*%
%TO.N,~*%
X97155000Y-142501000D03*
%TO.P,U3,3,Q*%
%TO.N,Net-(LED7-A)*%
X98425000Y-142501000D03*
%TO.P,U3,2,TR*%
%TO.N,Net-(U3-THR)*%
X99695000Y-142501000D03*
%TO.P,U3,1,GND*%
%TO.N,I2C_GND*%
X100965000Y-142501000D03*
%TD*%
D15*
%TO.P,R13,1*%
%TO.N,Net-(LED1-A)*%
X91456000Y-94116000D03*
%TO.P,R13,2*%
%TO.N,CJ1*%
X93456000Y-94116000D03*
%TD*%
D18*
%TO.P,R31,2*%
%TO.N,I2C_GND*%
X177657000Y-88849517D03*
%TO.P,R31,1*%
%TO.N,Net-(O5C--)*%
X177657000Y-90849517D03*
%TD*%
D24*
%TO.P,D2,2,K*%
%TO.N,Net-(D2-K)*%
X178257200Y-60171600D03*
%TO.P,D2,1,A*%
%TO.N,+5V*%
X178257200Y-56871600D03*
%TD*%
D19*
%TO.P,C16,2*%
%TO.N,-12V*%
X179980500Y-43053000D03*
%TO.P,C16,1*%
%TO.N,I2C_GND*%
X177905500Y-43053000D03*
%TD*%
D17*
%TO.P,R11,1*%
%TO.N,CJ5*%
X111773000Y-111896000D03*
%TO.P,R11,2*%
%TO.N,Net-(J5-PadT)*%
X109773000Y-111896000D03*
%TD*%
D19*
%TO.P,C3,2*%
%TO.N,I2C_GND*%
X186330500Y-35941000D03*
%TO.P,C3,1*%
%TO.N,~*%
X184255500Y-35941000D03*
%TD*%
D16*
%TO.P,Rx1,2*%
%TO.N,+5V*%
X97536000Y-151680000D03*
%TO.P,Rx1,1*%
%TO.N,Net-(U3-DIS)*%
X97536000Y-149680000D03*
%TD*%
D15*
%TO.P,R23,2*%
%TO.N,GP26*%
X187198000Y-47371000D03*
%TO.P,R23,1*%
%TO.N,Net-(O1A--)*%
X185198000Y-47371000D03*
%TD*%
D22*
%TO.P,VR3,3,3*%
%TO.N,Net-(U3-DIS)*%
X94996000Y-148378000D03*
%TO.P,VR3,2,2*%
X94996000Y-145878000D03*
%TO.P,VR3,1,1*%
%TO.N,Net-(U3-THR)*%
X94996000Y-143378000D03*
D25*
%TO.P,VR3,*%
%TO.N,*%
X87996000Y-141478000D03*
X87996000Y-150278000D03*
%TD*%
D10*
%TO.P,J2,S*%
%TO.N,I2C_GND*%
X101605824Y-97194000D03*
D11*
%TO.P,J2,T*%
%TO.N,Net-(J2-PadT)*%
X101605824Y-108594000D03*
%TO.P,J2,TN*%
%TO.N,unconnected-(J2-PadTN)*%
X101605824Y-100294000D03*
%TD*%
D26*
%TO.P,O1,8,V+*%
%TO.N,I2C_VCC*%
X179959000Y-53975000D03*
%TO.P,O1,7*%
%TO.N,unconnected-(O1-Pad7)*%
X179959000Y-52705000D03*
%TO.P,O1,6,-*%
%TO.N,unconnected-(O1B---Pad6)*%
X179959000Y-51435000D03*
%TO.P,O1,5,+*%
%TO.N,unconnected-(O1B-+-Pad5)*%
X179959000Y-50165000D03*
%TO.P,O1,4,V-*%
%TO.N,I2C_GND*%
X185109000Y-50165000D03*
%TO.P,O1,3,+*%
X185109000Y-51435000D03*
%TO.P,O1,2,-*%
%TO.N,Net-(O1A--)*%
X185109000Y-52705000D03*
%TO.P,O1,1*%
%TO.N,GP26*%
X185109000Y-53975000D03*
%TD*%
D16*
%TO.P,R18,1*%
%TO.N,Net-(LED6-A)*%
X109804200Y-115271800D03*
%TO.P,R18,2*%
%TO.N,CJ6*%
X109804200Y-117271800D03*
%TD*%
D15*
%TO.P,R29,2*%
%TO.N,I2C_GND*%
X172993000Y-119507000D03*
%TO.P,R29,1*%
%TO.N,Net-(O3A--)*%
X170993000Y-119507000D03*
%TD*%
D19*
%TO.P,C11,2*%
%TO.N,I2C_GND*%
X191268000Y-106022600D03*
%TO.P,C11,1*%
%TO.N,Net-(O5C-+)*%
X189193000Y-106022600D03*
%TD*%
D27*
%TO.P,SW2,1,1*%
%TO.N,I2C_GND*%
X94234000Y-72780000D03*
%TO.P,SW2,2,2*%
%TO.N,Net-(R19-Pad2)*%
X87884000Y-75320000D03*
%TD*%
D19*
%TO.P,C14,2*%
%TO.N,I2C_GND*%
X191268000Y-95608600D03*
%TO.P,C14,1*%
%TO.N,Net-(O5D-+)*%
X189193000Y-95608600D03*
%TD*%
D28*
%TO.P,D3,2,K*%
%TO.N,Net-(D3-K)*%
X175158400Y-45644800D03*
%TO.P,D3,1,A*%
%TO.N,-12V*%
X175158400Y-48944800D03*
%TD*%
D17*
%TO.P,R37,2*%
%TO.N,Net-(O5C--)*%
X176657000Y-94421517D03*
%TO.P,R37,1*%
%TO.N,CJ3*%
X178657000Y-94421517D03*
%TD*%
D24*
%TO.P,D1,2,K*%
%TO.N,CJD*%
X169138600Y-60247800D03*
%TO.P,D1,1,A*%
%TO.N,I2C_GND*%
X169138600Y-56947800D03*
%TD*%
D17*
%TO.P,R1,2*%
%TO.N,GP21*%
X184563000Y-90528600D03*
%TO.P,R1,1*%
%TO.N,Net-(O3A-+)*%
X186563000Y-90528600D03*
%TD*%
D16*
%TO.P,R19,1*%
%TO.N,CS2*%
X102108000Y-52340000D03*
%TO.P,R19,2*%
%TO.N,Net-(R19-Pad2)*%
X102108000Y-54340000D03*
%TD*%
D20*
%TO.P,J7,S*%
%TO.N,I2C_GND*%
X118461000Y-32190800D03*
D11*
%TO.P,J7,T*%
%TO.N,Net-(J7-PadT)*%
X107061000Y-32190800D03*
%TO.P,J7,TN*%
%TO.N,unconnected-(J7-PadTN)*%
X115361000Y-32190800D03*
%TD*%
D28*
%TO.P,D4,2,K*%
%TO.N,~*%
X175082200Y-35865800D03*
%TO.P,D4,1,A*%
%TO.N,Net-(D4-A)*%
X175082200Y-39165800D03*
%TD*%
D19*
%TO.P,C2,2*%
%TO.N,I2C_GND*%
X181885500Y-47371000D03*
%TO.P,C2,1*%
%TO.N,+5V*%
X179810500Y-47371000D03*
%TD*%
D29*
%TO.P,C18,2*%
%TO.N,Net-(LED7-A)*%
X103124000Y-146452500D03*
%TO.P,C18,1*%
%TO.N,Net-(C18-Pad1)*%
X103124000Y-144377500D03*
%TD*%
D10*
%TO.P,J1,S*%
%TO.N,I2C_GND*%
X86614000Y-97194000D03*
D11*
%TO.P,J1,T*%
%TO.N,Net-(J1-PadT)*%
X86614000Y-108594000D03*
%TO.P,J1,TN*%
%TO.N,unconnected-(J1-PadTN)*%
X86614000Y-100294000D03*
%TD*%
D19*
%TO.P,C5,2*%
%TO.N,I2C_GND*%
X186330500Y-39495600D03*
%TO.P,C5,1*%
%TO.N,~*%
X184255500Y-39495600D03*
%TD*%
D17*
%TO.P,R5,2*%
%TO.N,GP18*%
X184547000Y-98402600D03*
%TO.P,R5,1*%
%TO.N,Net-(O3C-+)*%
X186547000Y-98402600D03*
%TD*%
D30*
%TO.P,J11,13,Pin_13*%
%TO.N,I2C_GND*%
X164211000Y-90551000D03*
%TO.P,J11,12,Pin_12*%
%TO.N,CJ1*%
X164211000Y-88011000D03*
%TO.P,J11,11,Pin_11*%
%TO.N,CJ2*%
X164211000Y-85471000D03*
%TO.P,J11,10,Pin_10*%
%TO.N,CJ3*%
X164211000Y-82931000D03*
%TO.P,J11,9,Pin_9*%
%TO.N,CJ4*%
X164211000Y-80391000D03*
%TO.P,J11,8,Pin_8*%
%TO.N,CJ5*%
X164211000Y-77851000D03*
%TO.P,J11,7,Pin_7*%
%TO.N,CJ6*%
X164211000Y-75311000D03*
%TO.P,J11,6,Pin_6*%
%TO.N,CS2*%
X164211000Y-72771000D03*
%TO.P,J11,5,Pin_5*%
%TO.N,CS1*%
X164211000Y-70231000D03*
%TO.P,J11,4,Pin_4*%
%TO.N,CK2*%
X164211000Y-67691000D03*
%TO.P,J11,3,Pin_3*%
%TO.N,CK1*%
X164211000Y-65151000D03*
%TO.P,J11,2,Pin_2*%
%TO.N,CJA*%
X164211000Y-62611000D03*
D31*
%TO.P,J11,1,Pin_1*%
%TO.N,CJD*%
X164211000Y-60071000D03*
%TD*%
D21*
%TO.P,LED5,1,K*%
%TO.N,I2C_GND*%
X100330824Y-111896000D03*
D22*
%TO.P,LED5,2,A*%
%TO.N,Net-(LED5-A)*%
X102870824Y-111896000D03*
%TD*%
D19*
%TO.P,C12,2*%
%TO.N,I2C_GND*%
X191268000Y-103101600D03*
%TO.P,C12,1*%
%TO.N,Net-(O3D-+)*%
X189193000Y-103101600D03*
%TD*%
D10*
%TO.P,J3,S*%
%TO.N,I2C_GND*%
X116597648Y-97194000D03*
D11*
%TO.P,J3,T*%
%TO.N,Net-(J3-PadT)*%
X116597648Y-108594000D03*
%TO.P,J3,TN*%
%TO.N,unconnected-(J3-PadTN)*%
X116597648Y-100294000D03*
%TD*%
D18*
%TO.P,R32,2*%
%TO.N,I2C_GND*%
X166929000Y-102251000D03*
%TO.P,R32,1*%
%TO.N,Net-(O3D--)*%
X166929000Y-104251000D03*
%TD*%
D22*
%TO.P,LED7,2,A*%
%TO.N,Net-(LED7-A)*%
X105918000Y-144526000D03*
D21*
%TO.P,LED7,1,K*%
%TO.N,Net-(LED7-K)*%
X105918000Y-147066000D03*
%TD*%
D16*
%TO.P,R8,1*%
%TO.N,CJ2*%
X105918000Y-88515000D03*
%TO.P,R8,2*%
%TO.N,Net-(J2-PadT)*%
X105918000Y-90515000D03*
%TD*%
%TO.P,R28,1*%
%TO.N,Net-(J8-PadT)*%
X103516648Y-30142000D03*
%TO.P,R28,2*%
%TO.N,CJA*%
X103516648Y-32142000D03*
%TD*%
%TO.P,R10,1*%
%TO.N,CJ4*%
X93472000Y-119278000D03*
%TO.P,R10,2*%
%TO.N,Net-(J4-PadT)*%
X93472000Y-121278000D03*
%TD*%
D14*
%TO.P,O5,14*%
%TO.N,CJ6*%
X178359000Y-110936000D03*
%TO.P,O5,13,-*%
%TO.N,Net-(O5D--)*%
X179629000Y-110936000D03*
%TO.P,O5,12,+*%
%TO.N,Net-(O5D-+)*%
X180899000Y-110936000D03*
%TO.P,O5,11,V-*%
%TO.N,-12V*%
X182169000Y-110936000D03*
%TO.P,O5,10,+*%
%TO.N,Net-(O5C-+)*%
X183439000Y-110936000D03*
%TO.P,O5,9,-*%
%TO.N,Net-(O5C--)*%
X184709000Y-110936000D03*
%TO.P,O5,8*%
%TO.N,CJ3*%
X185979000Y-110936000D03*
%TO.P,O5,7*%
%TO.N,Net-(O5-Pad7)*%
X185979000Y-115886000D03*
%TO.P,O5,6,-*%
%TO.N,CJA*%
X184709000Y-115886000D03*
%TO.P,O5,5,+*%
%TO.N,I2C_GND*%
X183439000Y-115886000D03*
%TO.P,O5,4,V+*%
%TO.N,~*%
X182169000Y-115886000D03*
%TO.P,O5,3*%
%TO.N,N/C*%
X180899000Y-115886000D03*
%TO.P,O5,2*%
X179629000Y-115886000D03*
%TO.P,O5,1*%
X178359000Y-115886000D03*
%TD*%
D17*
%TO.P,R2,2*%
%TO.N,GP20*%
X184547000Y-93068600D03*
%TO.P,R2,1*%
%TO.N,Net-(O3B-+)*%
X186547000Y-93068600D03*
%TD*%
D19*
%TO.P,C4,2*%
%TO.N,-12V*%
X179980500Y-39497000D03*
%TO.P,C4,1*%
%TO.N,I2C_GND*%
X177905500Y-39497000D03*
%TD*%
D30*
%TO.P,J18,4,Pin_4*%
%TO.N,TPH VCC {slash} CPC SDA*%
X195389500Y-40513000D03*
%TO.P,J18,3,Pin_3*%
%TO.N,TPH GND {slash} CPC SCL*%
X195389500Y-43053000D03*
%TO.P,J18,2,Pin_2*%
%TO.N,TPH SDA {slash} CPC VCC*%
X195389500Y-45593000D03*
D31*
%TO.P,J18,1,Pin_1*%
%TO.N,TPH SCL {slash} CPC GND*%
X195389500Y-48133000D03*
%TD*%
D32*
%TO.P,Q1,1,E*%
%TO.N,I2C_GND*%
X174096000Y-63500000D03*
D33*
%TO.P,Q1,2,B*%
%TO.N,CJD*%
X172826000Y-62230000D03*
%TO.P,Q1,3,C*%
%TO.N,GP22*%
X174096000Y-60960000D03*
%TD*%
D27*
%TO.P,SW1,1,1*%
%TO.N,I2C_GND*%
X114071400Y-72805400D03*
%TO.P,SW1,2,2*%
%TO.N,Net-(R20-Pad2)*%
X107721400Y-75345400D03*
%TD*%
D16*
%TO.P,R27,1*%
%TO.N,Net-(J7-PadT)*%
X99579648Y-27428000D03*
%TO.P,R27,2*%
%TO.N,CJD*%
X99579648Y-29428000D03*
%TD*%
D10*
%TO.P,J5,S*%
%TO.N,I2C_GND*%
X101605824Y-114974000D03*
D11*
%TO.P,J5,T*%
%TO.N,Net-(J5-PadT)*%
X101605824Y-126374000D03*
%TO.P,J5,TN*%
%TO.N,unconnected-(J5-PadTN)*%
X101605824Y-118074000D03*
%TD*%
D17*
%TO.P,R36,2*%
%TO.N,Net-(O3B--)*%
X175311000Y-119507000D03*
%TO.P,R36,1*%
%TO.N,CJ2*%
X177311000Y-119507000D03*
%TD*%
D18*
%TO.P,R25,2*%
%TO.N,I2C_VCC*%
X190373000Y-77613000D03*
%TO.P,R25,1*%
%TO.N,CS2*%
X190373000Y-79613000D03*
%TD*%
D19*
%TO.P,C10,2*%
%TO.N,I2C_GND*%
X191268000Y-93068600D03*
%TO.P,C10,1*%
%TO.N,Net-(O3B-+)*%
X189193000Y-93068600D03*
%TD*%
D16*
%TO.P,R9,1*%
%TO.N,CJ3*%
X109982000Y-92862000D03*
%TO.P,R9,2*%
%TO.N,Net-(J3-PadT)*%
X109982000Y-94862000D03*
%TD*%
D19*
%TO.P,C13,2*%
%TO.N,I2C_GND*%
X191268000Y-98402600D03*
%TO.P,C13,1*%
%TO.N,Net-(O3C-+)*%
X189193000Y-98402600D03*
%TD*%
D16*
%TO.P,R7,1*%
%TO.N,CJ1*%
X93218000Y-100736000D03*
%TO.P,R7,2*%
%TO.N,Net-(J1-PadT)*%
X93218000Y-102736000D03*
%TD*%
D19*
%TO.P,C7,2*%
%TO.N,I2C_GND*%
X195474500Y-78994000D03*
%TO.P,C7,1*%
%TO.N,CS2*%
X193399500Y-78994000D03*
%TD*%
D17*
%TO.P,R34,2*%
%TO.N,I2C_GND*%
X172355000Y-89849517D03*
%TO.P,R34,1*%
%TO.N,Net-(O5D--)*%
X174355000Y-89849517D03*
%TD*%
D25*
%TO.P,VR1,*%
%TO.N,*%
X115759400Y-59597400D03*
X106959400Y-59597400D03*
D22*
%TO.P,VR1,1,1*%
%TO.N,I2C_VCC*%
X108859400Y-52597400D03*
%TO.P,VR1,2,2*%
%TO.N,CK1*%
X111359400Y-52597400D03*
%TO.P,VR1,3,3*%
%TO.N,I2C_GND*%
X113859400Y-52597400D03*
%TD*%
D19*
%TO.P,C15,2*%
%TO.N,I2C_GND*%
X186330500Y-43053000D03*
%TO.P,C15,1*%
%TO.N,~*%
X184255500Y-43053000D03*
%TD*%
D21*
%TO.P,LED2,1,K*%
%TO.N,I2C_GND*%
X102880824Y-94116000D03*
D22*
%TO.P,LED2,2,A*%
%TO.N,Net-(LED2-A)*%
X100340824Y-94116000D03*
%TD*%
D25*
%TO.P,VR2,*%
%TO.N,*%
X96232648Y-59587000D03*
X87432648Y-59587000D03*
D22*
%TO.P,VR2,1,1*%
%TO.N,I2C_VCC*%
X89332648Y-52587000D03*
%TO.P,VR2,2,2*%
%TO.N,CK2*%
X91832648Y-52587000D03*
%TO.P,VR2,3,3*%
%TO.N,I2C_GND*%
X94332648Y-52587000D03*
%TD*%
D17*
%TO.P,R3,2*%
%TO.N,GP16*%
X184547000Y-106022600D03*
%TO.P,R3,1*%
%TO.N,Net-(O5C-+)*%
X186547000Y-106022600D03*
%TD*%
%TO.P,R4,2*%
%TO.N,GP17*%
X184547000Y-103101600D03*
%TO.P,R4,1*%
%TO.N,Net-(O3D-+)*%
X186547000Y-103101600D03*
%TD*%
D16*
%TO.P,R39,2*%
%TO.N,Net-(O3C--)*%
X170993000Y-100545600D03*
%TO.P,R39,1*%
%TO.N,CJ5*%
X170993000Y-98545600D03*
%TD*%
D21*
%TO.P,LED4,1,K*%
%TO.N,I2C_GND*%
X85339000Y-111896000D03*
D22*
%TO.P,LED4,2,A*%
%TO.N,Net-(LED4-A)*%
X87879000Y-111896000D03*
%TD*%
D31*
%TO.P,J12,1,Pin_1*%
%TO.N,TPH SCL {slash} CPC GND*%
X117957600Y-48142000D03*
D30*
%TO.P,J12,2,Pin_2*%
%TO.N,TPH SDA {slash} CPC VCC*%
X117957600Y-45602000D03*
%TO.P,J12,3,Pin_3*%
%TO.N,TPH GND {slash} CPC SCL*%
X117957600Y-43062000D03*
%TO.P,J12,4,Pin_4*%
%TO.N,TPH VCC {slash} CPC SDA*%
X117957600Y-40522000D03*
%TD*%
D19*
%TO.P,C9,2*%
%TO.N,I2C_GND*%
X191268000Y-90528600D03*
%TO.P,C9,1*%
%TO.N,Net-(O3A-+)*%
X189193000Y-90528600D03*
%TD*%
D34*
%TO.P,C17,2*%
%TO.N,Net-(U3-THR)*%
X103632000Y-140004500D03*
%TO.P,C17,1*%
%TO.N,I2C_GND*%
X103632000Y-142079500D03*
%TD*%
D15*
%TO.P,R40,2*%
%TO.N,Net-(O5D--)*%
X174355000Y-94421517D03*
%TO.P,R40,1*%
%TO.N,CJ6*%
X172355000Y-94421517D03*
%TD*%
D10*
%TO.P,J6,S*%
%TO.N,I2C_GND*%
X116597648Y-114974000D03*
D11*
%TO.P,J6,T*%
%TO.N,Net-(J6-PadT)*%
X116597648Y-126374000D03*
%TO.P,J6,TN*%
%TO.N,unconnected-(J6-PadTN)*%
X116597648Y-118074000D03*
%TD*%
D21*
%TO.P,LED3,1,K*%
%TO.N,I2C_GND*%
X117872648Y-94116000D03*
D22*
%TO.P,LED3,2,A*%
%TO.N,Net-(LED3-A)*%
X115332648Y-94116000D03*
%TD*%
D16*
%TO.P,R12,1*%
%TO.N,CJ6*%
X109739648Y-121789000D03*
%TO.P,R12,2*%
%TO.N,Net-(J6-PadT)*%
X109739648Y-123789000D03*
%TD*%
D18*
%TO.P,R38,2*%
%TO.N,Net-(O3D--)*%
X166929000Y-106315000D03*
%TO.P,R38,1*%
%TO.N,CJ4*%
X166929000Y-108315000D03*
%TD*%
D15*
%TO.P,R35,2*%
%TO.N,Net-(O3A--)*%
X168691000Y-119507000D03*
%TO.P,R35,1*%
%TO.N,CJ1*%
X166691000Y-119507000D03*
%TD*%
%TO.P,R14,1*%
%TO.N,Net-(LED2-A)*%
X95266000Y-90052000D03*
%TO.P,R14,2*%
%TO.N,CJ2*%
X97266000Y-90052000D03*
%TD*%
D19*
%TO.P,C8,2*%
%TO.N,I2C_GND*%
X195474500Y-72644000D03*
%TO.P,C8,1*%
%TO.N,CS1*%
X193399500Y-72644000D03*
%TD*%
D21*
%TO.P,LED1,1,K*%
%TO.N,I2C_GND*%
X87889000Y-94116000D03*
D22*
%TO.P,LED1,2,A*%
%TO.N,Net-(LED1-A)*%
X85349000Y-94116000D03*
%TD*%
D17*
%TO.P,R15,1*%
%TO.N,Net-(LED3-A)*%
X116581648Y-90306000D03*
%TO.P,R15,2*%
%TO.N,CJ3*%
X114581648Y-90306000D03*
%TD*%
D19*
%TO.P,C6,2*%
%TO.N,-12V*%
X179980500Y-35941000D03*
%TO.P,C6,1*%
%TO.N,I2C_GND*%
X177905500Y-35941000D03*
%TD*%
D18*
%TO.P,R33,2*%
%TO.N,I2C_GND*%
X169037000Y-93973600D03*
%TO.P,R33,1*%
%TO.N,Net-(O3C--)*%
X169037000Y-95973600D03*
%TD*%
D31*
%TO.P,J14,1,Pin_1*%
%TO.N,TPH VCC {slash} CPC SDA*%
X108204000Y-41284000D03*
D30*
%TO.P,J14,2,Pin_2*%
%TO.N,I2C_VCC*%
X108204000Y-43824000D03*
%TO.P,J14,3,Pin_3*%
%TO.N,TPH SDA {slash} CPC VCC*%
X108204000Y-46364000D03*
%TD*%
%TO.P,J16,8,Pin_8*%
%TO.N,TPH SCL {slash} CPC GND*%
X192659000Y-28600400D03*
%TO.P,J16,7,Pin_7*%
%TO.N,I2C_GND*%
X195199000Y-28600400D03*
%TO.P,J16,6,Pin_6*%
%TO.N,GP0*%
X197739000Y-28600400D03*
%TO.P,J16,5,Pin_5*%
%TO.N,TPH VCC {slash} CPC SDA*%
X200279000Y-28600400D03*
%TO.P,J16,4,Pin_4*%
%TO.N,I2C_VCC*%
X192659000Y-31140400D03*
%TO.P,J16,3,Pin_3*%
%TO.N,TPH SDA {slash} CPC VCC*%
X195199000Y-31140400D03*
%TO.P,J16,2,Pin_2*%
%TO.N,TPH GND {slash} CPC SCL*%
X197739000Y-31140400D03*
D31*
%TO.P,J16,1,Pin_1*%
%TO.N,GP1*%
X200279000Y-31140400D03*
%TD*%
D30*
%TO.P,J15,4,Pin_4*%
%TO.N,GP2*%
X199263000Y-42291000D03*
%TO.P,J15,3,Pin_3*%
%TO.N,GP3*%
X199263000Y-44831000D03*
%TO.P,J15,2,Pin_2*%
%TO.N,I2C_VCC*%
X199263000Y-47371000D03*
D31*
%TO.P,J15,1,Pin_1*%
%TO.N,I2C_GND*%
X199263000Y-49911000D03*
%TD*%
D35*
%TO.P,U2,40,VBUS*%
%TO.N,unconnected-(U2-VBUS-Pad40)*%
X182339000Y-57658000D03*
%TO.P,U2,39,VSYS*%
%TO.N,Net-(D2-K)*%
X182339000Y-60198000D03*
D36*
%TO.P,U2,38,GND*%
%TO.N,I2C_GND*%
X182339000Y-62738000D03*
D35*
%TO.P,U2,37,3V3_EN*%
%TO.N,unconnected-(U2-3V3_EN-Pad37)*%
X182339000Y-65278000D03*
%TO.P,U2,36,3V3*%
%TO.N,I2C_VCC*%
X182339000Y-67818000D03*
%TO.P,U2,35,ADC_VREF*%
%TO.N,unconnected-(U2-ADC_VREF-Pad35)*%
X182339000Y-70358000D03*
%TO.P,U2,34,GP28*%
%TO.N,CK2*%
X182339000Y-72898000D03*
D36*
%TO.P,U2,33,GND*%
%TO.N,I2C_GND*%
X182339000Y-75438000D03*
D35*
%TO.P,U2,32,GP27*%
%TO.N,CK1*%
X182339000Y-77978000D03*
%TO.P,U2,31,GP26*%
%TO.N,GP26*%
X182339000Y-80518000D03*
%TO.P,U2,30,RUN*%
%TO.N,unconnected-(U2-RUN-Pad30)*%
X182339000Y-83058000D03*
%TO.P,U2,29,GP22*%
%TO.N,GP22*%
X182339000Y-85598000D03*
D36*
%TO.P,U2,28,GND*%
%TO.N,I2C_GND*%
X182339000Y-88138000D03*
D35*
%TO.P,U2,27,GP21*%
%TO.N,GP21*%
X182339000Y-90678000D03*
%TO.P,U2,26,GP20*%
%TO.N,GP20*%
X182339000Y-93218000D03*
%TO.P,U2,25,GP19*%
%TO.N,GP19*%
X182339000Y-95758000D03*
%TO.P,U2,24,GP18*%
%TO.N,GP18*%
X182339000Y-98298000D03*
D36*
%TO.P,U2,23,GND*%
%TO.N,I2C_GND*%
X182339000Y-100838000D03*
D35*
%TO.P,U2,22,GP17*%
%TO.N,GP17*%
X182339000Y-103378000D03*
%TO.P,U2,21,GP16*%
%TO.N,GP16*%
X182339000Y-105918000D03*
%TO.P,U2,20,GP15*%
%TO.N,unconnected-(U2-GP15-Pad20)*%
X200119000Y-105918000D03*
%TO.P,U2,19,GP14*%
%TO.N,unconnected-(U2-GP14-Pad19)*%
X200119000Y-103378000D03*
D37*
%TO.P,U2,18,GND*%
%TO.N,I2C_GND*%
X200119000Y-100838000D03*
D35*
%TO.P,U2,17,GP13*%
%TO.N,unconnected-(U2-GP13-Pad17)*%
X200119000Y-98298000D03*
%TO.P,U2,16,GP12*%
%TO.N,unconnected-(U2-GP12-Pad16)*%
X200119000Y-95758000D03*
%TO.P,U2,15,GP11*%
%TO.N,unconnected-(U2-GP11-Pad15)*%
X200119000Y-93218000D03*
%TO.P,U2,14,GP10*%
%TO.N,unconnected-(U2-GP10-Pad14)*%
X200119000Y-90678000D03*
D37*
%TO.P,U2,13,GND*%
%TO.N,I2C_GND*%
X200119000Y-88138000D03*
D35*
%TO.P,U2,12,GP9*%
%TO.N,unconnected-(U2-GP9-Pad12)*%
X200119000Y-85598000D03*
%TO.P,U2,11,GP8*%
%TO.N,unconnected-(U2-GP8-Pad11)*%
X200119000Y-83058000D03*
%TO.P,U2,10,GP7*%
%TO.N,unconnected-(U2-GP7-Pad10)*%
X200119000Y-80518000D03*
%TO.P,U2,9,GP6*%
%TO.N,unconnected-(U2-GP6-Pad9)*%
X200119000Y-77978000D03*
D37*
%TO.P,U2,8,GND*%
%TO.N,I2C_GND*%
X200119000Y-75438000D03*
D35*
%TO.P,U2,7,GP5*%
%TO.N,CS2*%
X200119000Y-72898000D03*
%TO.P,U2,6,GP4*%
%TO.N,CS1*%
X200119000Y-70358000D03*
%TO.P,U2,5,GP3*%
%TO.N,GP3*%
X200119000Y-67818000D03*
%TO.P,U2,4,GP2*%
%TO.N,GP2*%
X200119000Y-65278000D03*
D37*
%TO.P,U2,3,GND*%
%TO.N,I2C_GND*%
X200119000Y-62738000D03*
D35*
%TO.P,U2,2,GP1*%
%TO.N,GP1*%
X200119000Y-60198000D03*
D38*
%TO.P,U2,1,GP0*%
%TO.N,GP0*%
X200119000Y-57658000D03*
%TD*%
D30*
%TO.P,J21,3,Pin_3*%
%TO.N,+5V*%
X100584000Y-150664000D03*
%TO.P,J21,2,Pin_2*%
%TO.N,I2C_GND*%
X103124000Y-150664000D03*
D31*
%TO.P,J21,1,Pin_1*%
%TO.N,~*%
X105664000Y-150664000D03*
%TD*%
%TO.P,J19,1,Pin_1*%
%TO.N,TPH SCL {slash} CPC GND*%
X114211500Y-48142000D03*
D30*
%TO.P,J19,2,Pin_2*%
%TO.N,TPH SDA {slash} CPC VCC*%
X114211500Y-45602000D03*
%TO.P,J19,3,Pin_3*%
%TO.N,TPH GND {slash} CPC SCL*%
X114211500Y-43062000D03*
%TO.P,J19,4,Pin_4*%
%TO.N,TPH VCC {slash} CPC SDA*%
X114211500Y-40522000D03*
%TD*%
D31*
%TO.P,J17,1,Pin_1*%
%TO.N,CJD*%
X83058000Y-60080000D03*
D30*
%TO.P,J17,2,Pin_2*%
%TO.N,CJA*%
X83058000Y-62620000D03*
%TO.P,J17,3,Pin_3*%
%TO.N,CK1*%
X83058000Y-65160000D03*
%TO.P,J17,4,Pin_4*%
%TO.N,CK2*%
X83058000Y-67700000D03*
%TO.P,J17,5,Pin_5*%
%TO.N,CS1*%
X83058000Y-70240000D03*
%TO.P,J17,6,Pin_6*%
%TO.N,CS2*%
X83058000Y-72780000D03*
%TO.P,J17,7,Pin_7*%
%TO.N,CJ6*%
X83058000Y-75320000D03*
%TO.P,J17,8,Pin_8*%
%TO.N,CJ5*%
X83058000Y-77860000D03*
%TO.P,J17,9,Pin_9*%
%TO.N,CJ4*%
X83058000Y-80400000D03*
%TO.P,J17,10,Pin_10*%
%TO.N,CJ3*%
X83058000Y-82940000D03*
%TO.P,J17,11,Pin_11*%
%TO.N,CJ2*%
X83058000Y-85480000D03*
%TO.P,J17,12,Pin_12*%
%TO.N,CJ1*%
X83058000Y-88020000D03*
%TO.P,J17,13,Pin_13*%
%TO.N,I2C_GND*%
X83058000Y-90560000D03*
%TD*%
D39*
%TO.P,J10,16,Pin_16*%
%TO.N,Net-(J10-Pin_15)*%
X169545000Y-31877000D03*
%TO.P,J10,15,Pin_15*%
X167005000Y-31877000D03*
%TO.P,J10,14,Pin_14*%
%TO.N,Net-(J10-Pin_13)*%
X169545000Y-34417000D03*
%TO.P,J10,13,Pin_13*%
X167005000Y-34417000D03*
%TO.P,J10,12,Pin_12*%
%TO.N,+5V*%
X169545000Y-36957000D03*
%TO.P,J10,11,Pin_11*%
X167005000Y-36957000D03*
%TO.P,J10,10,Pin_10*%
%TO.N,Net-(D4-A)*%
X169545000Y-39497000D03*
%TO.P,J10,9,Pin_9*%
X167005000Y-39497000D03*
%TO.P,J10,8,Pin_8*%
%TO.N,I2C_GND*%
X169545000Y-42037000D03*
%TO.P,J10,7,Pin_7*%
X167005000Y-42037000D03*
%TO.P,J10,6,Pin_6*%
X169545000Y-44577000D03*
%TO.P,J10,5,Pin_5*%
X167005000Y-44577000D03*
%TO.P,J10,4,Pin_4*%
X169545000Y-47117000D03*
%TO.P,J10,3,Pin_3*%
X167005000Y-47117000D03*
%TO.P,J10,2,Pin_2*%
%TO.N,Net-(D3-K)*%
X169545000Y-49657000D03*
D40*
%TO.P,J10,1,Pin_1*%
X167005000Y-49657000D03*
%TD*%
D41*
%TO.N,~*%
X182713000Y-43307000D03*
X188425821Y-44657380D03*
%TO.N,+5V*%
X181610000Y-33528000D03*
%TO.N,I2C_GND*%
X186641500Y-32052500D03*
%TO.N,-12V*%
X183596544Y-46395490D03*
X179456116Y-44328116D03*
X188643333Y-113281333D03*
X181915000Y-112649000D03*
X170562311Y-111780512D03*
%TO.N,Net-(O3D-+)*%
X185637000Y-101473000D03*
X171053000Y-102743000D03*
%TO.N,Net-(O3C-+)*%
X171472709Y-109250791D03*
X184574294Y-101612377D03*
%TO.N,Net-(D2-K)*%
X179120800Y-61645800D03*
%TO.N,Net-(O5C--)*%
X175790101Y-103465982D03*
X175768000Y-96012000D03*
%TO.N,Net-(O5D--)*%
X174597996Y-98802314D03*
X174590546Y-104669885D03*
%TO.N,Net-(R19-Pad2)*%
X102108000Y-56261000D03*
D42*
X100461500Y-71378500D03*
D41*
%TO.N,CK1*%
X176613473Y-72811014D03*
%TO.N,CK2*%
X175666400Y-71961014D03*
%TO.N,CJ1*%
X167005000Y-113411000D03*
X166551000Y-100457000D03*
%TO.N,CJ2*%
X175681383Y-115069000D03*
X169198522Y-105641478D03*
%TO.N,CJ3*%
X186487000Y-108585000D03*
X178638720Y-96374720D03*
%TO.N,CJ4*%
X168453000Y-108585000D03*
D42*
X93218000Y-83956000D03*
D41*
X93472000Y-117201000D03*
X167797000Y-96898985D03*
%TO.N,CJ5*%
X107968000Y-99573138D03*
X110507987Y-107023013D03*
D42*
%TO.N,CJ6*%
X99568000Y-79130000D03*
D41*
X173718057Y-105281975D03*
X109739648Y-120015000D03*
D42*
X103124000Y-83448000D03*
D41*
X173621000Y-99187000D03*
%TO.N,CJA*%
X176618826Y-68580000D03*
X180225592Y-72015296D03*
%TO.N,CS2*%
X100069648Y-54764000D03*
X191312984Y-80899000D03*
X176523000Y-77103562D03*
D42*
X94804634Y-68430000D03*
D41*
%TO.N,CS1*%
X190073000Y-73596770D03*
X176523000Y-75351014D03*
%TO.N,I2C_VCC*%
X192024000Y-74168000D03*
%TO.N,I2C_GND*%
X184185000Y-49241000D03*
X191059000Y-109855000D03*
X168783000Y-92583000D03*
X196977000Y-73914000D03*
X182929000Y-117983000D03*
X176403000Y-88138000D03*
X166852600Y-56642000D03*
X171069000Y-89027000D03*
%TO.N,~*%
X170739000Y-113919000D03*
X181882097Y-114219397D03*
X188633838Y-114541838D03*
%TD*%
D43*
%TO.N,CJ1*%
X166675000Y-113741000D02*
X166675000Y-115886000D01*
X167005000Y-113411000D02*
X166675000Y-113741000D01*
%TO.N,CJA*%
X168720548Y-62611000D02*
X164211000Y-62611000D01*
X176618826Y-68580000D02*
X174689548Y-68580000D01*
X174689548Y-68580000D02*
X168720548Y-62611000D01*
%TO.N,Net-(O5C--)*%
X176657000Y-94421517D02*
X176657000Y-95123000D01*
X176657000Y-95123000D02*
X175768000Y-96012000D01*
D44*
%TO.N,Net-(R19-Pad2)*%
X88983999Y-74220001D02*
X87884000Y-75320000D01*
X92296642Y-74220001D02*
X88983999Y-74220001D01*
X100461500Y-71378500D02*
X96710000Y-75130000D01*
X96710000Y-75130000D02*
X93206641Y-75130000D01*
X93206641Y-75130000D02*
X92296642Y-74220001D01*
%TO.N,CJ6*%
X99568000Y-79892000D02*
X103124000Y-83448000D01*
X99568000Y-79130000D02*
X99568000Y-79892000D01*
D43*
%TO.N,I2C_GND*%
X104807000Y-139580122D02*
X105425122Y-138962000D01*
X111967414Y-138962000D02*
X112776707Y-139771293D01*
X104807000Y-141853000D02*
X104807000Y-139580122D01*
X105425122Y-138962000D02*
X111967414Y-138962000D01*
%TO.N,Net-(LED7-A)*%
X101918816Y-143773306D02*
X101918816Y-146452500D01*
X104509000Y-143117000D02*
X102575122Y-143117000D01*
X102575122Y-143117000D02*
X101918816Y-143773306D01*
X105918000Y-144526000D02*
X104509000Y-143117000D01*
%TO.N,Net-(C18-Pad1)*%
X104299000Y-147987000D02*
X105676000Y-149364000D01*
X105676000Y-149364000D02*
X110969414Y-149364000D01*
X103124000Y-144377500D02*
X104299000Y-145552500D01*
%TO.N,Net-(LED7-A)*%
X101918816Y-146452500D02*
X98425000Y-142958684D01*
X103124000Y-146452500D02*
X101918816Y-146452500D01*
%TO.N,Net-(C18-Pad1)*%
X110969414Y-149364000D02*
X112776707Y-151171293D01*
X104299000Y-145552500D02*
X104299000Y-147987000D01*
%TO.N,Net-(LED7-K)*%
X107322000Y-145662000D02*
X107322000Y-141162000D01*
X107322000Y-141162000D02*
X106172000Y-140012000D01*
X105918000Y-147066000D02*
X107322000Y-145662000D01*
D44*
%TO.N,I2C_GND*%
X186330500Y-32363500D02*
X186330500Y-35941000D01*
X186641500Y-32052500D02*
X186330500Y-32363500D01*
D45*
%TO.N,~*%
X182967000Y-43053000D02*
X182713000Y-43307000D01*
X184255500Y-43053000D02*
X182967000Y-43053000D01*
%TO.N,+5V*%
X181463000Y-33675000D02*
X181610000Y-33528000D01*
X181463000Y-34646142D02*
X181463000Y-33675000D01*
X181463000Y-44993500D02*
X181463000Y-34646142D01*
X179810500Y-46646000D02*
X179810500Y-47371000D01*
X181463000Y-44993500D02*
X179810500Y-46646000D01*
%TO.N,~*%
X184255500Y-33450500D02*
X180340000Y-29535000D01*
X184255500Y-35941000D02*
X184255500Y-33450500D01*
D44*
%TO.N,I2C_GND*%
X182880000Y-29803752D02*
X182880000Y-29535000D01*
D45*
%TO.N,~*%
X179386000Y-28581000D02*
X180340000Y-29535000D01*
X176143000Y-28581000D02*
X179386000Y-28581000D01*
X175133000Y-29591000D02*
X176143000Y-28581000D01*
X175133000Y-35815000D02*
X175133000Y-29591000D01*
X175082200Y-35865800D02*
X175133000Y-35815000D01*
%TO.N,GP22*%
X176858000Y-78920000D02*
X177768326Y-78009674D01*
X176858000Y-82181000D02*
X176858000Y-78920000D01*
X177608000Y-82931000D02*
X176858000Y-82181000D01*
X178308000Y-82931000D02*
X177608000Y-82931000D01*
X177768326Y-78009674D02*
X177768326Y-64632326D01*
X177768326Y-64632326D02*
X174096000Y-60960000D01*
%TO.N,CJD*%
X170737800Y-60247800D02*
X169138600Y-60247800D01*
X172720000Y-62230000D02*
X170737800Y-60247800D01*
X172826000Y-62230000D02*
X172720000Y-62230000D01*
%TO.N,-12V*%
X195707200Y-109270800D02*
X191696668Y-113281332D01*
X184092813Y-45899221D02*
X187947363Y-45899221D01*
D43*
X170485000Y-111703201D02*
X170562311Y-111780512D01*
D45*
X175158400Y-48816600D02*
X178963000Y-45012000D01*
X191696668Y-113281332D02*
X188643333Y-113281333D01*
X178963000Y-45012000D02*
X178963000Y-44821234D01*
D43*
X182169000Y-110936000D02*
X182169000Y-112395000D01*
D45*
X195707200Y-89195313D02*
X195707200Y-109270800D01*
X175158400Y-48944800D02*
X175158400Y-48816600D01*
X188615000Y-46566858D02*
X188615000Y-58283234D01*
X185458000Y-78946113D02*
X195707200Y-89195313D01*
X179980500Y-35941000D02*
X179980500Y-43803732D01*
X185458000Y-61440234D02*
X185458000Y-78946113D01*
X179980500Y-43803732D02*
X179456116Y-44328116D01*
X178963000Y-44821234D02*
X179456116Y-44328116D01*
X187947363Y-45899221D02*
X188615000Y-46566858D01*
D43*
X182169000Y-112395000D02*
X181915000Y-112649000D01*
D45*
X183596544Y-46395490D02*
X184092813Y-45899221D01*
X188615000Y-58283234D02*
X185458000Y-61440234D01*
D43*
%TO.N,Net-(O3A-+)*%
X185173000Y-91918600D02*
X186563000Y-90528600D01*
X172218057Y-106491306D02*
X172218057Y-104660654D01*
X170157082Y-112720000D02*
X174338684Y-112720000D01*
X182866167Y-91918600D02*
X185173000Y-91918600D01*
X181821233Y-91968000D02*
X182816767Y-91968000D01*
X175311000Y-109584249D02*
X172218057Y-106491306D01*
X174338684Y-112720000D02*
X175311000Y-111747684D01*
X175311000Y-111747684D02*
X175311000Y-109584249D01*
X169215000Y-115886000D02*
X169215000Y-113662082D01*
X179707000Y-94082233D02*
X181821233Y-91968000D01*
X173203000Y-103675711D02*
X173203000Y-103012522D01*
X186563000Y-90528600D02*
X188595000Y-90528600D01*
X172218057Y-104660654D02*
X173203000Y-103675711D01*
X179707000Y-96508523D02*
X179707000Y-94082233D01*
X182816767Y-91968000D02*
X182866167Y-91918600D01*
X173203000Y-103012522D02*
X179707000Y-96508523D01*
X169215000Y-113662082D02*
X170157082Y-112720000D01*
%TO.N,Net-(O5C-+)*%
X186547000Y-106022600D02*
X187757000Y-106022600D01*
X183439000Y-111910999D02*
X183889001Y-112361000D01*
X183889001Y-112361000D02*
X186381684Y-112361000D01*
X186381684Y-112361000D02*
X187757000Y-110985684D01*
X187757000Y-106022600D02*
X188595000Y-106022600D01*
X187757000Y-110985684D02*
X187757000Y-106022600D01*
X183439000Y-110936000D02*
X183439000Y-111910999D01*
%TO.N,Net-(O3D-+)*%
X169215000Y-110936000D02*
X169215000Y-109025082D01*
X186547000Y-102736600D02*
X186547000Y-102383000D01*
X169215000Y-109025082D02*
X170153000Y-108087082D01*
X186547000Y-102383000D02*
X185637000Y-101473000D01*
X186547000Y-103101600D02*
X188595000Y-103101600D01*
X170153000Y-103643000D02*
X171053000Y-102743000D01*
X170153000Y-108087082D02*
X170153000Y-103643000D01*
%TO.N,Net-(O3C-+)*%
X186547000Y-98402600D02*
X188595000Y-98402600D01*
X171755000Y-110936000D02*
X171755000Y-109354286D01*
X184574294Y-100375306D02*
X184574294Y-101612377D01*
X186547000Y-98402600D02*
X184574294Y-100375306D01*
%TO.N,Net-(O5D-+)*%
X186547000Y-95608600D02*
X188595000Y-95608600D01*
X174847562Y-103206438D02*
X174847562Y-103725526D01*
X185147600Y-97008000D02*
X181046000Y-97008000D01*
X180899000Y-109776964D02*
X180899000Y-110936000D01*
X186547000Y-95608600D02*
X185147600Y-97008000D01*
X181046000Y-97008000D02*
X174847562Y-103206438D01*
X174847562Y-103725526D02*
X180899000Y-109776964D01*
%TO.N,Net-(D2-K)*%
X178257200Y-60782200D02*
X179120800Y-61645800D01*
X178257200Y-60171600D02*
X178257200Y-60782200D01*
D45*
%TO.N,Net-(D3-K)*%
X175260000Y-45644800D02*
X175260001Y-45644799D01*
D44*
X171249200Y-49655600D02*
X175260001Y-45644799D01*
D45*
X175158400Y-45644800D02*
X175260000Y-45644800D01*
D44*
X166952352Y-49655600D02*
X171249200Y-49655600D01*
%TO.N,Net-(D4-A)*%
X174752400Y-39495600D02*
X167016661Y-39495600D01*
X175082200Y-39165800D02*
X174752400Y-39495600D01*
%TO.N,Net-(J1-PadT)*%
X93218000Y-103886000D02*
X88510000Y-108594000D01*
X93218000Y-102736000D02*
X93218000Y-103886000D01*
X88510000Y-108594000D02*
X86614000Y-108594000D01*
%TO.N,Net-(J2-PadT)*%
X105918000Y-90515000D02*
X105918000Y-104530000D01*
X105918000Y-104530000D02*
X101854000Y-108594000D01*
%TO.N,Net-(J3-PadT)*%
X116597648Y-108594000D02*
X110208000Y-102204352D01*
X109982000Y-94862000D02*
X109982000Y-98942000D01*
X110208000Y-102204352D02*
X110208000Y-99168000D01*
X109982000Y-98942000D02*
X110208000Y-99168000D01*
%TO.N,Net-(J4-PadT)*%
X93472000Y-121278000D02*
X93472000Y-125358000D01*
X93472000Y-125358000D02*
X92456000Y-126374000D01*
X92456000Y-126374000D02*
X86614000Y-126374000D01*
%TO.N,Net-(J5-PadT)*%
X109773000Y-111896000D02*
X105693000Y-111896000D01*
X105693000Y-111896000D02*
X105693000Y-122535000D01*
X105693000Y-122535000D02*
X101854000Y-126374000D01*
%TO.N,Net-(J6-PadT)*%
X116597648Y-126374000D02*
X111771648Y-126374000D01*
X111771648Y-126374000D02*
X109739648Y-124342000D01*
X109739648Y-124342000D02*
X109739648Y-123789000D01*
%TO.N,Net-(J7-PadT)*%
X100154342Y-27428000D02*
X99579648Y-27428000D01*
X107061000Y-30785215D02*
X104703785Y-28428000D01*
X104703785Y-28428000D02*
X101154342Y-28428000D01*
X101154342Y-28428000D02*
X100154342Y-27428000D01*
X107061000Y-32190800D02*
X107061000Y-30785215D01*
%TO.N,Net-(J8-PadT)*%
X96120648Y-32140000D02*
X97046648Y-31214000D01*
X97046648Y-31214000D02*
X100368342Y-31214000D01*
X100368342Y-31214000D02*
X101404342Y-30178000D01*
X101404342Y-30178000D02*
X103516648Y-30178000D01*
%TO.N,Net-(LED1-A)*%
X85349000Y-92356000D02*
X85739000Y-91966000D01*
X91456000Y-93383000D02*
X91456000Y-94116000D01*
X85349000Y-94116000D02*
X85349000Y-92356000D01*
X85739000Y-91966000D02*
X90039000Y-91966000D01*
X90039000Y-91966000D02*
X91456000Y-93383000D01*
%TO.N,Net-(LED2-A)*%
X95266000Y-90626694D02*
X98755306Y-94116000D01*
X98755306Y-94116000D02*
X100340824Y-94116000D01*
X95266000Y-90052000D02*
X95266000Y-90626694D01*
%TO.N,Net-(LED3-A)*%
X116581648Y-90306000D02*
X116581648Y-90880694D01*
X115581648Y-91880694D02*
X115581648Y-93867000D01*
X115581648Y-93867000D02*
X115332648Y-94116000D01*
X116581648Y-90880694D02*
X115581648Y-91880694D01*
%TO.N,Net-(LED4-A)*%
X90190000Y-112121000D02*
X88363000Y-112121000D01*
X91190000Y-111121000D02*
X90190000Y-112121000D01*
X88138000Y-111896000D02*
X87879000Y-111896000D01*
X93472000Y-111121000D02*
X91190000Y-111121000D01*
X88363000Y-112121000D02*
X88138000Y-111896000D01*
%TO.N,Net-(LED5-A)*%
X108458000Y-106308824D02*
X102870824Y-111896000D01*
X108458000Y-104993000D02*
X108458000Y-106308824D01*
%TO.N,Net-(LED6-A)*%
X115332648Y-111896000D02*
X115332648Y-112150000D01*
X110936000Y-114140000D02*
X109804200Y-115271800D01*
X113342648Y-114140000D02*
X110936000Y-114140000D01*
X115332648Y-112150000D02*
X113342648Y-114140000D01*
D43*
%TO.N,GP26*%
X187198000Y-52760999D02*
X185983999Y-53975000D01*
X187198000Y-47371000D02*
X187198000Y-52760999D01*
X185983999Y-53975000D02*
X185109000Y-53975000D01*
%TO.N,Net-(O1A--)*%
X184234001Y-52705000D02*
X183784000Y-53155001D01*
X194564200Y-109070297D02*
X191427497Y-112207000D01*
X185109000Y-52705000D02*
X185983999Y-52705000D01*
X186434000Y-48607000D02*
X185198000Y-47371000D01*
X191427497Y-112207000D02*
X188374161Y-112207000D01*
X188374161Y-112207000D02*
X187503000Y-113078161D01*
X187503000Y-113078161D02*
X187503000Y-116729000D01*
X183784000Y-53155001D02*
X183784000Y-54498000D01*
X184244143Y-54958143D02*
X184244143Y-79735792D01*
X187503000Y-116729000D02*
X190281000Y-119507000D01*
X185983999Y-52705000D02*
X186434000Y-52254999D01*
X194564200Y-90055849D02*
X194564200Y-109070297D01*
X185109000Y-52705000D02*
X184234001Y-52705000D01*
X184244143Y-79735792D02*
X194564200Y-90055849D01*
X183784000Y-54498000D02*
X184244143Y-54958143D01*
X186434000Y-52254999D02*
X186434000Y-48607000D01*
%TO.N,Net-(O3A--)*%
X168691000Y-119507000D02*
X167945000Y-118761000D01*
X168691000Y-119507000D02*
X170993000Y-119507000D01*
X167945000Y-118761000D02*
X167945000Y-115886000D01*
%TO.N,Net-(O3B--)*%
X176095082Y-114020000D02*
X173720000Y-114020000D01*
X177267000Y-116621684D02*
X177267000Y-115191918D01*
X173025000Y-115886000D02*
X173025000Y-116860999D01*
X177267000Y-115191918D02*
X176095082Y-114020000D01*
X173720000Y-114020000D02*
X173025000Y-114715000D01*
X173025000Y-116860999D02*
X175311000Y-119146999D01*
X177956316Y-117311000D02*
X177267000Y-116621684D01*
X179433000Y-117311000D02*
X177956316Y-117311000D01*
X173025000Y-114715000D02*
X173025000Y-115886000D01*
X181629000Y-119507000D02*
X179433000Y-117311000D01*
%TO.N,Net-(O3C--)*%
X169037000Y-98589600D02*
X169037000Y-95973600D01*
X171903000Y-101455600D02*
X171903000Y-103137235D01*
X170993000Y-100545600D02*
X169037000Y-98589600D01*
X170993000Y-100545600D02*
X171903000Y-101455600D01*
X171903000Y-103137235D02*
X170918057Y-104122178D01*
X170918057Y-104122178D02*
X170918057Y-107240057D01*
X170918057Y-107240057D02*
X173025000Y-109347000D01*
X173025000Y-109347000D02*
X173025000Y-110936000D01*
%TO.N,Net-(O3D--)*%
X165779000Y-107465000D02*
X166929000Y-106315000D01*
X166272316Y-112361000D02*
X165779000Y-111867684D01*
X166929000Y-104251000D02*
X166929000Y-106315000D01*
X167945000Y-110936000D02*
X167945000Y-111493684D01*
X167077684Y-112361000D02*
X166272316Y-112361000D01*
X167945000Y-111493684D02*
X167077684Y-112361000D01*
X165779000Y-111867684D02*
X165779000Y-107465000D01*
%TO.N,Net-(O5-Pad7)*%
X185979000Y-119507000D02*
X185979000Y-115886000D01*
X185979000Y-119507000D02*
X188281000Y-119507000D01*
%TO.N,Net-(O5C--)*%
X184709000Y-110936000D02*
X184709000Y-109961001D01*
X184258999Y-109511000D02*
X181640556Y-109511000D01*
X184709000Y-110936000D02*
X184709000Y-109948152D01*
X176657000Y-94421517D02*
X176657000Y-91849517D01*
X175790101Y-103682253D02*
X175790101Y-103465982D01*
X175790101Y-103660545D02*
X175790101Y-103465982D01*
X176657000Y-91849517D02*
X177657000Y-90849517D01*
X184709000Y-109961001D02*
X184258999Y-109511000D01*
X181640556Y-109511000D02*
X175790101Y-103660545D01*
X175833068Y-103725220D02*
X175790101Y-103682253D01*
%TO.N,Net-(O5D--)*%
X174355000Y-98559318D02*
X174597996Y-98802314D01*
X174355000Y-94421517D02*
X174355000Y-98559318D01*
X174590546Y-104670592D02*
X179629000Y-109709046D01*
X174590546Y-104669885D02*
X174590546Y-104670592D01*
X174355000Y-89849517D02*
X174355000Y-94421517D01*
X179629000Y-109709046D02*
X179629000Y-110936000D01*
D45*
%TO.N,GP22*%
X179959000Y-85598000D02*
X178308000Y-83947000D01*
X178308000Y-83947000D02*
X178308000Y-82931000D01*
X182339000Y-85598000D02*
X179959000Y-85598000D01*
D43*
%TO.N,GP21*%
X182339000Y-90678000D02*
X184413600Y-90678000D01*
%TO.N,GP20*%
X182339000Y-93218000D02*
X184397600Y-93218000D01*
%TO.N,GP16*%
X184547000Y-106022600D02*
X182443600Y-106022600D01*
%TO.N,GP17*%
X182339000Y-103378000D02*
X184270600Y-103378000D01*
%TO.N,GP18*%
X182339000Y-98298000D02*
X184442400Y-98298000D01*
%TO.N,GP19*%
X182339000Y-95758000D02*
X184397600Y-95758000D01*
D44*
%TO.N,Net-(R19-Pad2)*%
X102108000Y-54340000D02*
X102108000Y-56261000D01*
%TO.N,Net-(R20-Pad2)*%
X102235000Y-69986000D02*
X107594400Y-75345400D01*
X102235000Y-63112000D02*
X102235000Y-69986000D01*
D43*
%TO.N,Net-(O3B-+)*%
X174679321Y-113370000D02*
X172369000Y-113370000D01*
X183395000Y-94458600D02*
X183385600Y-94468000D01*
X176029661Y-109383672D02*
X176029661Y-112019660D01*
X171755000Y-113984000D02*
X171755000Y-115886000D01*
X185157000Y-94458600D02*
X183395000Y-94458600D01*
X180439000Y-95890233D02*
X180439000Y-96695761D01*
X172369000Y-113370000D02*
X171755000Y-113984000D01*
X173853000Y-103281761D02*
X173853000Y-103944950D01*
X172868057Y-104929893D02*
X172868057Y-106222068D01*
X186547000Y-93068600D02*
X188595000Y-93068600D01*
X173853000Y-103944950D02*
X172868057Y-104929893D01*
X186547000Y-93068600D02*
X185157000Y-94458600D01*
X180439000Y-96695761D02*
X173853000Y-103281761D01*
X181861233Y-94468000D02*
X180439000Y-95890233D01*
X176029661Y-112019660D02*
X174679321Y-113370000D01*
X172868057Y-106222068D02*
X176029661Y-109383672D01*
X183385600Y-94468000D02*
X181861233Y-94468000D01*
D44*
%TO.N,CJD*%
X83058000Y-60080000D02*
X83058000Y-50058648D01*
D45*
X169138600Y-60247800D02*
X164387800Y-60247800D01*
D44*
X95912296Y-29428000D02*
X99579648Y-29428000D01*
X83058000Y-50058648D02*
X94055648Y-39061000D01*
X94055648Y-31284648D02*
X95912296Y-29428000D01*
X94055648Y-39061000D02*
X94055648Y-31284648D01*
D45*
X164387800Y-60247800D02*
X164211000Y-60071000D01*
D44*
%TO.N,CK1*%
X109848592Y-55381000D02*
X111359400Y-53870192D01*
D43*
X176613473Y-71706005D02*
X176613473Y-72811014D01*
D44*
X95867432Y-64430000D02*
X102286432Y-58011000D01*
X90228271Y-64430000D02*
X95867432Y-64430000D01*
D43*
X164211000Y-65151000D02*
X170058468Y-65151000D01*
D44*
X83058000Y-65160000D02*
X89498271Y-65160000D01*
X102832874Y-58011000D02*
X105462874Y-55381000D01*
X89498271Y-65160000D02*
X90228271Y-64430000D01*
X105462874Y-55381000D02*
X109848592Y-55381000D01*
X111359400Y-53870192D02*
X111359400Y-52597400D01*
X102286432Y-58011000D02*
X102832874Y-58011000D01*
D43*
X170058468Y-65151000D02*
X176613473Y-71706005D01*
%TO.N,CK2*%
X171396386Y-67691000D02*
X175666400Y-71961014D01*
X164211000Y-67691000D02*
X171396386Y-67691000D01*
D44*
%TO.N,CJ1*%
X83058000Y-88020000D02*
X83906000Y-88020000D01*
X83906000Y-88020000D02*
X85852000Y-89966000D01*
D43*
X166675000Y-115886000D02*
X166675000Y-119491000D01*
D44*
X91833000Y-89966000D02*
X94742000Y-92875000D01*
X94742000Y-94116000D02*
X93218000Y-95640000D01*
X85852000Y-89966000D02*
X91833000Y-89966000D01*
D43*
X164211000Y-88011000D02*
X166097000Y-89897000D01*
X166097000Y-89897000D02*
X166097000Y-100003000D01*
D44*
X93218000Y-95640000D02*
X93218000Y-100736000D01*
D43*
X166097000Y-100003000D02*
X166551000Y-100457000D01*
D44*
X94742000Y-94116000D02*
X93456000Y-94116000D01*
X94742000Y-92875000D02*
X94742000Y-94116000D01*
D43*
%TO.N,CJ2*%
X177311000Y-118902000D02*
X174295000Y-115886000D01*
X169103000Y-105545956D02*
X169198522Y-105641478D01*
D44*
X97266000Y-90052000D02*
X97266000Y-88458000D01*
X97266000Y-88458000D02*
X96774000Y-87966000D01*
X86680428Y-87966000D02*
X96774000Y-87966000D01*
X84194428Y-85480000D02*
X86680428Y-87966000D01*
X83058000Y-85480000D02*
X84194428Y-85480000D01*
X105369000Y-87966000D02*
X105918000Y-88515000D01*
D43*
X175112000Y-115069000D02*
X175681383Y-115069000D01*
X164211000Y-85471000D02*
X166947000Y-88207000D01*
X166947000Y-88207000D02*
X166947000Y-97691078D01*
X166947000Y-97691078D02*
X169103000Y-99847078D01*
D44*
X96774000Y-87966000D02*
X105369000Y-87966000D01*
D43*
X177311000Y-119507000D02*
X177311000Y-118902000D01*
X169103000Y-99847078D02*
X169103000Y-105545956D01*
X174295000Y-115886000D02*
X175112000Y-115069000D01*
D44*
%TO.N,CJ3*%
X110501648Y-90306000D02*
X110501648Y-92342352D01*
X87508856Y-85966000D02*
X106150000Y-85966000D01*
X110490000Y-90306000D02*
X110501648Y-90306000D01*
D43*
X185979000Y-109093000D02*
X186487000Y-108585000D01*
D44*
X83058000Y-82940000D02*
X84482856Y-82940000D01*
X106150000Y-85966000D02*
X110490000Y-90306000D01*
X84482856Y-82940000D02*
X87508856Y-85966000D01*
D43*
X178657000Y-94421517D02*
X178657000Y-96356440D01*
D44*
X114581648Y-90306000D02*
X110501648Y-90306000D01*
D43*
X178657000Y-96356440D02*
X178638720Y-96374720D01*
D44*
X110501648Y-92342352D02*
X109982000Y-92862000D01*
D43*
X185979000Y-110936000D02*
X185979000Y-109093000D01*
D44*
%TO.N,CJ4*%
X93472000Y-113121000D02*
X93472000Y-117201000D01*
D43*
X166929000Y-110682000D02*
X166929000Y-108315000D01*
D44*
X88327284Y-83956000D02*
X84771284Y-80400000D01*
D43*
X166675000Y-110936000D02*
X166929000Y-110682000D01*
D44*
X93472000Y-119278000D02*
X93472000Y-117201000D01*
D43*
X164211000Y-80391000D02*
X167797000Y-83977000D01*
X167199000Y-108585000D02*
X166929000Y-108315000D01*
X168453000Y-108585000D02*
X167199000Y-108585000D01*
X167797000Y-83977000D02*
X167797000Y-96898985D01*
D44*
X84771284Y-80400000D02*
X83058000Y-80400000D01*
X93218000Y-83956000D02*
X88327284Y-83956000D01*
D43*
%TO.N,CJ5*%
X170277000Y-98529600D02*
X170277000Y-92379944D01*
X170277000Y-92379944D02*
X168901001Y-91003945D01*
X168901001Y-91003945D02*
X168901001Y-82541001D01*
X168901001Y-82541001D02*
X164211000Y-77851000D01*
X171755000Y-98529600D02*
X172553000Y-99327600D01*
D44*
X108458000Y-102993000D02*
X108458000Y-100063138D01*
X111773000Y-108288026D02*
X110507987Y-107023013D01*
D43*
X170977000Y-98529600D02*
X170277000Y-98529600D01*
X170277000Y-98529600D02*
X171755000Y-98529600D01*
X174295000Y-109487487D02*
X174295000Y-110936000D01*
X171568057Y-104391416D02*
X171568057Y-106760544D01*
X172553000Y-103406473D02*
X171568057Y-104391416D01*
X171568057Y-106760544D02*
X174295000Y-109487487D01*
X170993000Y-98545600D02*
X170977000Y-98529600D01*
D44*
X111773000Y-111896000D02*
X111773000Y-108288026D01*
X108458000Y-100063138D02*
X107968000Y-99573138D01*
D43*
X172553000Y-99327600D02*
X172553000Y-103406473D01*
%TO.N,CJ6*%
X169551002Y-80651002D02*
X169551002Y-89824692D01*
X178359000Y-110936000D02*
X178359000Y-109922917D01*
X173621000Y-95687517D02*
X173621000Y-99187000D01*
X170927000Y-92993517D02*
X172355000Y-94421517D01*
X172355000Y-94421517D02*
X173621000Y-95687517D01*
D44*
X109739648Y-121789000D02*
X109739648Y-117336352D01*
D43*
X170951001Y-91224691D02*
X170951001Y-93111082D01*
X164211000Y-75311000D02*
X169551002Y-80651002D01*
X178359000Y-109922917D02*
X173718057Y-105281975D01*
X169551002Y-89824692D02*
X170951001Y-91224691D01*
D44*
X109739648Y-117336352D02*
X109804200Y-117271800D01*
D43*
%TO.N,CJA*%
X193776800Y-91064038D02*
X183594143Y-80881381D01*
D44*
X103516648Y-32142000D02*
X103516648Y-36222000D01*
D43*
X193776800Y-108735578D02*
X193776800Y-91064038D01*
X184709000Y-115886000D02*
X184709000Y-114952922D01*
D44*
X83275000Y-62837000D02*
X88992843Y-62837000D01*
D43*
X180592888Y-71648000D02*
X180225592Y-72015296D01*
X183594143Y-72385376D02*
X182856767Y-71648000D01*
X188104922Y-111557000D02*
X190955378Y-111557000D01*
D44*
X90896648Y-60933195D02*
X90896648Y-56977560D01*
D43*
X184709000Y-114952922D02*
X188104922Y-111557000D01*
X183979000Y-119507000D02*
X184709000Y-118777000D01*
X182856767Y-71648000D02*
X180592888Y-71648000D01*
D44*
X99942648Y-36222000D02*
X85158000Y-51006648D01*
X88992843Y-62837000D02*
X90896648Y-60933195D01*
X90896648Y-56977560D02*
X85158000Y-51238912D01*
X85158000Y-51238912D02*
X85158000Y-51006648D01*
X83058000Y-62620000D02*
X83275000Y-62837000D01*
D43*
X184709000Y-118777000D02*
X184709000Y-115886000D01*
X190955378Y-111557000D02*
X193776800Y-108735578D01*
D44*
X103516648Y-36222000D02*
X99942648Y-36222000D01*
D43*
X183594143Y-80881381D02*
X183594143Y-72385376D01*
%TO.N,CS2*%
X190373000Y-79613000D02*
X192780500Y-79613000D01*
X164211000Y-72771000D02*
X172190438Y-72771000D01*
X196977000Y-76040000D02*
X200119000Y-72898000D01*
X193399500Y-78994000D02*
X194574500Y-80169000D01*
D44*
X102108000Y-52340000D02*
X101408000Y-52340000D01*
X91885124Y-68430000D02*
X94804634Y-68430000D01*
X100069648Y-53678352D02*
X100069648Y-54764000D01*
X87535125Y-72780000D02*
X91885124Y-68430000D01*
D43*
X196977000Y-80169000D02*
X196977000Y-76040000D01*
D44*
X101408000Y-52340000D02*
X100069648Y-53678352D01*
D43*
X190373000Y-79959016D02*
X191312984Y-80899000D01*
X172190438Y-72771000D02*
X176523000Y-77103562D01*
D44*
X83058000Y-72780000D02*
X87535125Y-72780000D01*
D43*
X192780500Y-79613000D02*
X193399500Y-78994000D01*
X194574500Y-80169000D02*
X196977000Y-80169000D01*
D44*
%TO.N,CS1*%
X83058000Y-70240000D02*
X87246697Y-70240000D01*
X97155000Y-65659000D02*
X97155000Y-65617306D01*
D43*
X190373000Y-73168000D02*
X192875500Y-73168000D01*
D44*
X97155000Y-65617306D02*
X101660306Y-61112000D01*
D43*
X195685500Y-70358000D02*
X200119000Y-70358000D01*
X190073000Y-73468000D02*
X190073000Y-73596770D01*
X164211000Y-70231000D02*
X171136918Y-70231000D01*
D44*
X101660306Y-61112000D02*
X102235000Y-61112000D01*
D43*
X176256932Y-75351014D02*
X176523000Y-75351014D01*
D44*
X91056697Y-66430000D02*
X96384000Y-66430000D01*
D43*
X193399500Y-72644000D02*
X195685500Y-70358000D01*
D44*
X87246697Y-70240000D02*
X91056697Y-66430000D01*
D43*
X171136918Y-70231000D02*
X176256932Y-75351014D01*
D44*
X96384000Y-66430000D02*
X97155000Y-65659000D01*
D43*
X192875500Y-73168000D02*
X193399500Y-72644000D01*
D45*
%TO.N,I2C_VCC*%
X180783938Y-67945000D02*
X180783938Y-54799938D01*
D44*
X89333582Y-50895066D02*
X89918648Y-50310000D01*
D43*
X191024000Y-75168000D02*
X192024000Y-74168000D01*
D45*
X179018326Y-80220674D02*
X179018326Y-69710612D01*
D46*
X189048000Y-74543000D02*
X189673000Y-75168000D01*
D44*
X108440000Y-50310000D02*
X108859400Y-50729400D01*
D45*
X179018326Y-69710612D02*
X180910938Y-67818000D01*
D43*
X191024000Y-75819000D02*
X190373000Y-75168000D01*
D45*
X180783938Y-67945000D02*
X180910938Y-67818000D01*
X178308000Y-80931000D02*
X179018326Y-80220674D01*
D43*
X193399500Y-75819000D02*
X191024000Y-75819000D01*
D46*
X194691000Y-50673000D02*
X194691000Y-62611000D01*
D45*
X193918766Y-50673000D02*
X194691000Y-50673000D01*
D44*
X108204000Y-43824000D02*
X107001919Y-43824000D01*
X106104000Y-50242000D02*
X106172000Y-50310000D01*
X89333582Y-52586066D02*
X89333582Y-50895066D01*
X106104000Y-44721919D02*
X106104000Y-50242000D01*
D43*
X190373000Y-75168000D02*
X191024000Y-75168000D01*
D45*
X180910938Y-67818000D02*
X182339000Y-67818000D01*
D46*
X189673000Y-75168000D02*
X190373000Y-75168000D01*
D44*
X89918648Y-50310000D02*
X106172000Y-50310000D01*
D43*
X190373000Y-75168000D02*
X190373000Y-77613000D01*
D45*
X180783938Y-54799938D02*
X179959000Y-53975000D01*
D46*
X194691000Y-62611000D02*
X189048000Y-68254000D01*
D45*
X192659000Y-31140400D02*
X192659000Y-49413234D01*
X194691000Y-50673000D02*
X195707000Y-50673000D01*
D44*
X108859400Y-50729400D02*
X108859400Y-52597400D01*
D46*
X189048000Y-68254000D02*
X189048000Y-74543000D01*
D44*
X106172000Y-50310000D02*
X108440000Y-50310000D01*
D45*
X192659000Y-49413234D02*
X193918766Y-50673000D01*
D44*
X107001919Y-43824000D02*
X106104000Y-44721919D01*
D45*
X195707000Y-50673000D02*
X199009000Y-47371000D01*
D44*
%TO.N,TPH VCC {slash} CPC SDA*%
X108966000Y-40522000D02*
X117838500Y-40522000D01*
X108204000Y-41284000D02*
X108966000Y-40522000D01*
X117838500Y-40522000D02*
X117869500Y-40553000D01*
D43*
%TO.N,TPH GND {slash} CPC SCL*%
X197739000Y-31140400D02*
X197739000Y-40703500D01*
X197739000Y-40703500D02*
X195389500Y-43053000D01*
D44*
X114211500Y-43062000D02*
X117838500Y-43062000D01*
X117838500Y-43062000D02*
X117869500Y-43093000D01*
D43*
%TO.N,TPH SDA {slash} CPC VCC*%
X193839500Y-39446556D02*
X193839500Y-44043000D01*
D44*
X108204000Y-46364000D02*
X112081919Y-46364000D01*
D43*
X193839500Y-44043000D02*
X195389500Y-45593000D01*
D44*
X112081919Y-46364000D02*
X112812919Y-45633000D01*
X112812919Y-45633000D02*
X117926600Y-45633000D01*
D43*
X195199000Y-38087056D02*
X193839500Y-39446556D01*
X195199000Y-31140400D02*
X195199000Y-38087056D01*
D44*
%TO.N,TPH SCL {slash} CPC GND*%
X114211500Y-48142000D02*
X117838500Y-48142000D01*
X117838500Y-48142000D02*
X117869500Y-48173000D01*
D43*
%TO.N,I2C_GND*%
X180779000Y-120657000D02*
X182289000Y-120657000D01*
X172355000Y-89849517D02*
X171891517Y-89849517D01*
D45*
X186330500Y-35216000D02*
X186330500Y-43053000D01*
X181885500Y-47371000D02*
X182315000Y-47371000D01*
D43*
X101454000Y-142012000D02*
X104648000Y-142012000D01*
X174143000Y-120657000D02*
X178479000Y-120657000D01*
D45*
X177651500Y-42037000D02*
X177905500Y-41783000D01*
X182773000Y-44557000D02*
X182713000Y-44617000D01*
D43*
X182929000Y-117983000D02*
X182929000Y-117288000D01*
X179629000Y-119507000D02*
X180779000Y-120657000D01*
D45*
X185109000Y-50165000D02*
X185109000Y-51435000D01*
X182315000Y-47371000D02*
X184185000Y-49241000D01*
D43*
X169037000Y-93973600D02*
X169037000Y-92837000D01*
D45*
X186330500Y-43053000D02*
X186330500Y-43836500D01*
D43*
X182929000Y-117288000D02*
X183439000Y-116778000D01*
X177114517Y-88849517D02*
X176403000Y-88138000D01*
X172993000Y-119507000D02*
X174143000Y-120657000D01*
X177657000Y-88849517D02*
X177114517Y-88849517D01*
D45*
X164897000Y-91680205D02*
X164897000Y-101321346D01*
D43*
X171891517Y-89849517D02*
X171069000Y-89027000D01*
D45*
X177905500Y-41783000D02*
X177905500Y-35941000D01*
X169138600Y-56947800D02*
X167158400Y-56947800D01*
X177905500Y-43053000D02*
X177905500Y-41783000D01*
D43*
X169037000Y-92837000D02*
X168783000Y-92583000D01*
D45*
X191059000Y-107072000D02*
X191268000Y-106863000D01*
X163951449Y-90734654D02*
X164897000Y-91680205D01*
X195474500Y-73914000D02*
X196977000Y-73914000D01*
D43*
X104807000Y-141853000D02*
X104648000Y-142012000D01*
X182289000Y-120657000D02*
X182929000Y-120017000D01*
D45*
X167158400Y-56947800D02*
X166852600Y-56642000D01*
X165826654Y-102251000D02*
X166929000Y-102251000D01*
D43*
X104648000Y-142012000D02*
X106172000Y-142012000D01*
D45*
X186330500Y-43836500D02*
X185610000Y-44557000D01*
X191268000Y-90062740D02*
X189343260Y-88138000D01*
X191268000Y-106022600D02*
X191268000Y-90528600D01*
X164897000Y-101321346D02*
X165826654Y-102251000D01*
D43*
X100965000Y-142501000D02*
X101454000Y-142012000D01*
D45*
X191268000Y-106022600D02*
X191268000Y-106863000D01*
X191268000Y-90528600D02*
X191268000Y-90062740D01*
X182713000Y-44617000D02*
X182713000Y-45511266D01*
X195474500Y-73914000D02*
X195474500Y-78994000D01*
X169545000Y-42037000D02*
X177651500Y-42037000D01*
D43*
X183439000Y-116778000D02*
X183439000Y-115886000D01*
D45*
X191059000Y-109855000D02*
X191059000Y-107072000D01*
D43*
X178479000Y-120657000D02*
X179629000Y-119507000D01*
D45*
X181885500Y-46338766D02*
X181885500Y-47371000D01*
X182713000Y-45511266D02*
X181885500Y-46338766D01*
X185610000Y-44557000D02*
X182773000Y-44557000D01*
X184185000Y-49241000D02*
X185109000Y-50165000D01*
X189343260Y-88138000D02*
X182339000Y-88138000D01*
D43*
X182929000Y-120017000D02*
X182929000Y-117983000D01*
%TO.N,GP3*%
X200563000Y-51337082D02*
X197569000Y-54331082D01*
X197569000Y-65268000D02*
X200119000Y-67818000D01*
X199263000Y-44831000D02*
X200563000Y-46131000D01*
X197569000Y-54331082D02*
X197569000Y-65268000D01*
X200563000Y-46131000D02*
X200563000Y-51337082D01*
%TO.N,+5V*%
X100584000Y-150664000D02*
X98536000Y-150664000D01*
D45*
X166014274Y-54579200D02*
X175991200Y-54579200D01*
X176653122Y-55241122D02*
X178257200Y-56845200D01*
X178257200Y-56845200D02*
X178257200Y-56871600D01*
D43*
X98536000Y-150664000D02*
X97536000Y-151664000D01*
D45*
X175991200Y-54579200D02*
X176653122Y-55241122D01*
D44*
X167016661Y-36955600D02*
X169556661Y-36955600D01*
D45*
X179810500Y-47371000D02*
X176653122Y-50528378D01*
X165352352Y-53917278D02*
X166014274Y-54579200D01*
X176653122Y-50528378D02*
X176653122Y-55241122D01*
X165352352Y-38453309D02*
X165352352Y-53917278D01*
X167016661Y-36789000D02*
X165352352Y-38453309D01*
%TO.N,~*%
X170485000Y-114173000D02*
X170485000Y-115886000D01*
D43*
X102651000Y-147651000D02*
X105664000Y-150664000D01*
D45*
X188473288Y-44657380D02*
X191135000Y-47319092D01*
X188425821Y-44657380D02*
X188473288Y-44657380D01*
D43*
X100965000Y-147651000D02*
X102651000Y-147651000D01*
D45*
X197053400Y-88773746D02*
X197053400Y-109702600D01*
X186708000Y-78428346D02*
X197053400Y-88773746D01*
D43*
X97155000Y-142501000D02*
X97155000Y-143375999D01*
X182169000Y-115886000D02*
X182169000Y-114506300D01*
X182169000Y-114506300D02*
X181882097Y-114219397D01*
D45*
X191135000Y-47319092D02*
X191135000Y-64576010D01*
X186708000Y-69003010D02*
X186708000Y-78428346D01*
X197053400Y-109702600D02*
X192214162Y-114541838D01*
X170739000Y-113919000D02*
X170485000Y-114173000D01*
X191135000Y-64576010D02*
X186708000Y-69003010D01*
X184255500Y-35941000D02*
X184255500Y-43053000D01*
X192214162Y-114541838D02*
X188633838Y-114541838D01*
D43*
X97155000Y-143375999D02*
X100965000Y-147185999D01*
%TO.N,GP1*%
X201863000Y-51875559D02*
X201863000Y-32724400D01*
X198869000Y-58948000D02*
X198869000Y-54869559D01*
X200119000Y-60198000D02*
X198869000Y-58948000D01*
X198869000Y-54869559D02*
X201863000Y-51875559D01*
X201863000Y-32724400D02*
X200279000Y-31140400D01*
%TO.N,GP0*%
X202707000Y-55070000D02*
X202707000Y-28836368D01*
X200921032Y-27050400D02*
X199289000Y-27050400D01*
X199289000Y-27050400D02*
X197739000Y-28600400D01*
X200119000Y-57658000D02*
X202707000Y-55070000D01*
X202707000Y-28836368D02*
X200921032Y-27050400D01*
%TO.N,GP2*%
X201213000Y-51606321D02*
X201213000Y-44241000D01*
X198219000Y-54600321D02*
X201213000Y-51606321D01*
X198219000Y-63378000D02*
X198219000Y-54600321D01*
X201213000Y-44241000D02*
X199263000Y-42291000D01*
X200119000Y-65278000D02*
X198219000Y-63378000D01*
D44*
%TO.N,Net-(J10-Pin_13)*%
X167016661Y-34415600D02*
X169556661Y-34415600D01*
%TO.N,Net-(J10-Pin_15)*%
X167016661Y-31875600D02*
X169556661Y-31875600D01*
D43*
%TO.N,Net-(U3-THR)*%
X103632000Y-139974500D02*
X101346501Y-139974500D01*
X94996000Y-143378000D02*
X96374001Y-144756001D01*
X98425000Y-146776001D02*
X96405000Y-144756001D01*
X96405000Y-141969000D02*
X94996000Y-143378000D01*
X96405000Y-141523316D02*
X96752316Y-141176000D01*
X96752316Y-141176000D02*
X99244999Y-141176000D01*
X101346501Y-139974500D02*
X99695000Y-141626001D01*
X96405000Y-141523316D02*
X96405000Y-141969000D01*
X96374001Y-144756001D02*
X96405000Y-144756001D01*
X99695000Y-141626001D02*
X99695000Y-142501000D01*
X98425000Y-147651000D02*
X98425000Y-146776001D01*
X99244999Y-141176000D02*
X99695000Y-141626001D01*
%TO.N,Net-(U3-DIS)*%
X99695000Y-148525999D02*
X98556999Y-149664000D01*
X94996000Y-147824000D02*
X94996000Y-145624000D01*
X97536000Y-149664000D02*
X96836000Y-149664000D01*
X96836000Y-149664000D02*
X94996000Y-147824000D01*
X99695000Y-147651000D02*
X99695000Y-148525999D01*
X98556999Y-149664000D02*
X97536000Y-149664000D01*
%TD*%
%TA.AperFunction,Conductor*%
%TO.N,CJ1*%
G36*
X166873919Y-114614427D02*
G01*
X166877059Y-114620125D01*
X166962872Y-115000452D01*
X166962581Y-115006660D01*
X166686122Y-115852953D01*
X166680295Y-115859753D01*
X166671367Y-115860442D01*
X166664567Y-115854615D01*
X166663878Y-115852953D01*
X166604516Y-115671235D01*
X166387417Y-115006657D01*
X166387127Y-115000454D01*
X166472941Y-114620124D01*
X166478105Y-114612809D01*
X166484354Y-114611000D01*
X166865646Y-114611000D01*
X166873919Y-114614427D01*
G37*
%TD.AperFunction*%
%TD*%
%TA.AperFunction,Conductor*%
%TO.N,CJ1*%
G36*
X167008405Y-113413418D02*
G01*
X167008441Y-113413453D01*
X167279255Y-113685225D01*
X167282667Y-113693505D01*
X167279226Y-113701772D01*
X167278896Y-113702088D01*
X166878359Y-114071214D01*
X166870430Y-114074310D01*
X166489216Y-114074310D01*
X166480943Y-114070883D01*
X166477516Y-114062610D01*
X166477734Y-114060360D01*
X166603153Y-113420423D01*
X166608106Y-113412965D01*
X166614601Y-113410975D01*
X167000124Y-113410012D01*
X167008405Y-113413418D01*
G37*
%TD.AperFunction*%
%TD*%
%TA.AperFunction,Conductor*%
%TO.N,CJA*%
G36*
X164547045Y-61830284D02*
G01*
X165903884Y-62407970D01*
X165910153Y-62414363D01*
X165911000Y-62418734D01*
X165911000Y-62803265D01*
X165907573Y-62811538D01*
X165903883Y-62814030D01*
X164547140Y-63391674D01*
X164538186Y-63391762D01*
X164531792Y-63385492D01*
X164531752Y-63385398D01*
X164289883Y-62803265D01*
X164211864Y-62615488D01*
X164211856Y-62606534D01*
X164211865Y-62606511D01*
X164293097Y-62411000D01*
X164531753Y-61836599D01*
X164538091Y-61830276D01*
X164547045Y-61830284D01*
G37*
%TD.AperFunction*%
%TD*%
%TA.AperFunction,Conductor*%
%TO.N,CJA*%
G36*
X176464776Y-68214246D02*
G01*
X176469670Y-68219844D01*
X176617949Y-68575498D01*
X176617970Y-68584452D01*
X176617949Y-68584502D01*
X176469670Y-68940155D01*
X176463323Y-68946473D01*
X176455905Y-68946971D01*
X175827560Y-68782289D01*
X175820426Y-68776876D01*
X175818826Y-68770971D01*
X175818826Y-68389028D01*
X175822253Y-68380755D01*
X175827557Y-68377711D01*
X176455907Y-68213028D01*
X176464776Y-68214246D01*
G37*
%TD.AperFunction*%
%TD*%
%TA.AperFunction,Conductor*%
%TO.N,Net-(O5C--)*%
G36*
X176663277Y-94431258D02*
G01*
X176664186Y-94432671D01*
X177032652Y-95107227D01*
X177033611Y-95116131D01*
X177030035Y-95121688D01*
X176383437Y-95680522D01*
X176374936Y-95683339D01*
X176367513Y-95679943D01*
X176095473Y-95407903D01*
X176092073Y-95400406D01*
X176057419Y-94877842D01*
X176060291Y-94869362D01*
X176062063Y-94867717D01*
X176646896Y-94428920D01*
X176655570Y-94426697D01*
X176663277Y-94431258D01*
G37*
%TD.AperFunction*%
%TD*%
%TA.AperFunction,Conductor*%
%TO.N,Net-(O5C--)*%
G36*
X176198647Y-95311276D02*
G01*
X176468723Y-95581352D01*
X176472150Y-95589625D01*
X176470550Y-95595530D01*
X176142690Y-96156284D01*
X176135556Y-96161697D01*
X176128138Y-96161199D01*
X175771804Y-96014563D01*
X175765457Y-96008245D01*
X175765436Y-96008195D01*
X175618800Y-95651859D01*
X175618821Y-95642907D01*
X175623713Y-95637310D01*
X176184472Y-95309448D01*
X176193340Y-95308231D01*
X176198647Y-95311276D01*
G37*
%TD.AperFunction*%
%TD*%
%TA.AperFunction,Conductor*%
%TO.N,Net-(R19-Pad2)*%
G36*
X89527430Y-73483114D02*
G01*
X89528365Y-73487697D01*
X89528365Y-74965950D01*
X89525862Y-74973183D01*
X88783996Y-75916476D01*
X88776188Y-75920860D01*
X88768243Y-75918933D01*
X87886932Y-75322660D01*
X87882034Y-75315352D01*
X87665433Y-74273250D01*
X87667104Y-74264455D01*
X87672302Y-74260108D01*
X89512083Y-73476931D01*
X89521037Y-73476844D01*
X89527430Y-73483114D01*
G37*
%TD.AperFunction*%
%TD*%
%TA.AperFunction,Conductor*%
%TO.N,Net-(LED7-A)*%
G36*
X104793767Y-143114605D02*
G01*
X106251361Y-143690143D01*
X106257797Y-143696368D01*
X106257946Y-143705322D01*
X106257878Y-143705491D01*
X105920562Y-144522214D01*
X105914236Y-144528553D01*
X105914214Y-144528562D01*
X105097491Y-144865878D01*
X105088537Y-144865869D01*
X105082211Y-144859530D01*
X105082143Y-144859361D01*
X104506606Y-143401769D01*
X104506755Y-143392817D01*
X104509212Y-143389204D01*
X104781202Y-143117214D01*
X104789474Y-143113788D01*
X104793767Y-143114605D01*
G37*
%TD.AperFunction*%
%TD*%
%TA.AperFunction,Conductor*%
%TO.N,Net-(C18-Pad1)*%
G36*
X103848737Y-144275149D02*
G01*
X103852514Y-144279971D01*
X104246616Y-145213082D01*
X104246678Y-145222036D01*
X104244111Y-145225907D01*
X103972778Y-145497240D01*
X103964505Y-145500667D01*
X103959311Y-145499451D01*
X102890436Y-144969849D01*
X102884544Y-144963105D01*
X102884814Y-144954903D01*
X103120751Y-144382954D01*
X103127074Y-144376613D01*
X103129886Y-144375837D01*
X103840059Y-144272944D01*
X103848737Y-144275149D01*
G37*
%TD.AperFunction*%
%TD*%
%TA.AperFunction,Conductor*%
%TO.N,Net-(LED7-A)*%
G36*
X102559871Y-145890547D02*
G01*
X103116105Y-146444638D01*
X103119548Y-146452904D01*
X103116137Y-146461184D01*
X103115826Y-146461485D01*
X102537761Y-147000347D01*
X102529373Y-147003482D01*
X102523850Y-147001873D01*
X101714541Y-146525703D01*
X101709148Y-146518554D01*
X101710390Y-146509686D01*
X101712197Y-146507350D01*
X101983391Y-146236156D01*
X101985510Y-146234480D01*
X102545471Y-145888879D01*
X102554309Y-145887451D01*
X102559871Y-145890547D01*
G37*
%TD.AperFunction*%
%TD*%
%TA.AperFunction,Conductor*%
%TO.N,Net-(C18-Pad1)*%
G36*
X111464923Y-149572190D02*
G01*
X113172706Y-150183225D01*
X113179340Y-150189238D01*
X113179779Y-150198182D01*
X113179576Y-150198708D01*
X112779269Y-151167510D01*
X112772944Y-151173846D01*
X112772929Y-151173852D01*
X112772924Y-151173855D01*
X111804122Y-151574162D01*
X111795167Y-151574155D01*
X111788841Y-151567817D01*
X111788650Y-151567322D01*
X111177605Y-149859512D01*
X111178044Y-149850571D01*
X111180345Y-149847303D01*
X111452715Y-149574933D01*
X111460987Y-149571507D01*
X111464923Y-149572190D01*
G37*
%TD.AperFunction*%
%TD*%
%TA.AperFunction,Conductor*%
%TO.N,Net-(LED7-K)*%
G36*
X106871450Y-139867089D02*
G01*
X106875799Y-139872240D01*
X107301353Y-140854373D01*
X107301497Y-140863327D01*
X107298890Y-140867298D01*
X107027560Y-141138628D01*
X107019287Y-141142055D01*
X107014182Y-141140883D01*
X105933384Y-140616806D01*
X105927435Y-140610112D01*
X105927673Y-140601816D01*
X106168937Y-140017003D01*
X106175260Y-140010662D01*
X106177330Y-140010019D01*
X106862650Y-139865444D01*
X106871450Y-139867089D01*
G37*
%TD.AperFunction*%
%TD*%
%TA.AperFunction,Conductor*%
%TO.N,Net-(LED7-K)*%
G36*
X107513558Y-145478190D02*
G01*
X107516985Y-145486463D01*
X107516278Y-145490468D01*
X106822053Y-147396001D01*
X106816001Y-147402601D01*
X106807055Y-147402989D01*
X106806924Y-147402941D01*
X105922541Y-147068716D01*
X105916013Y-147062585D01*
X105916007Y-147062572D01*
X105517447Y-146176851D01*
X105517179Y-146167902D01*
X105523317Y-146161382D01*
X107119788Y-145475712D01*
X107124405Y-145474763D01*
X107505285Y-145474763D01*
X107513558Y-145478190D01*
G37*
%TD.AperFunction*%
%TD*%
%TA.AperFunction,Conductor*%
%TO.N,~*%
G36*
X183700976Y-42468577D02*
G01*
X183702427Y-42469870D01*
X184248842Y-43044941D01*
X184252056Y-43053299D01*
X184248842Y-43061059D01*
X183702427Y-43636129D01*
X183694244Y-43639766D01*
X183692304Y-43639654D01*
X183090559Y-43554424D01*
X183082848Y-43549871D01*
X183080500Y-43542840D01*
X183080500Y-42563159D01*
X183083927Y-42554886D01*
X183090558Y-42551575D01*
X183692305Y-42466345D01*
X183700976Y-42468577D01*
G37*
%TD.AperFunction*%
%TD*%
%TA.AperFunction,Conductor*%
%TO.N,~*%
G36*
X181292250Y-29144272D02*
G01*
X181297724Y-29148940D01*
X181689349Y-29784574D01*
X181691038Y-29789630D01*
X181692417Y-29804498D01*
X181753430Y-30018939D01*
X181753432Y-30018942D01*
X181852805Y-30218507D01*
X181852807Y-30218511D01*
X181987163Y-30396428D01*
X182144541Y-30539897D01*
X182151923Y-30546626D01*
X182151922Y-30546626D01*
X182151924Y-30546627D01*
X182151925Y-30546628D01*
X182160797Y-30552121D01*
X182164597Y-30555930D01*
X182314721Y-30799593D01*
X182316143Y-30808434D01*
X182313033Y-30814003D01*
X181618948Y-31508088D01*
X181610675Y-31511515D01*
X181604620Y-31509826D01*
X180001057Y-30539897D01*
X179995751Y-30532683D01*
X179996055Y-30526059D01*
X180337571Y-29539268D01*
X180343516Y-29532571D01*
X180344160Y-29532282D01*
X181283295Y-29144264D01*
X181292250Y-29144272D01*
G37*
%TD.AperFunction*%
%TD*%
%TA.AperFunction,Conductor*%
%TO.N,~*%
G36*
X184753231Y-34631927D02*
G01*
X184756595Y-34638984D01*
X184842340Y-35459688D01*
X184839791Y-35468273D01*
X184838068Y-35469995D01*
X184262865Y-35936032D01*
X184254280Y-35938577D01*
X184248135Y-35936032D01*
X183672931Y-35469995D01*
X183668660Y-35462124D01*
X183668659Y-35459688D01*
X183754405Y-34638984D01*
X183758673Y-34631112D01*
X183766042Y-34628500D01*
X184744958Y-34628500D01*
X184753231Y-34631927D01*
G37*
%TD.AperFunction*%
%TD*%
%TA.AperFunction,Conductor*%
%TO.N,~*%
G36*
X178449864Y-28084176D02*
G01*
X180460825Y-28532672D01*
X180468154Y-28537817D01*
X180469880Y-28545602D01*
X180341719Y-29529474D01*
X180337252Y-29537235D01*
X180336257Y-29537923D01*
X179395744Y-30117731D01*
X179386903Y-30119155D01*
X179380966Y-30115663D01*
X178438683Y-29084351D01*
X178435621Y-29076459D01*
X178435621Y-28095596D01*
X178439048Y-28087323D01*
X178447321Y-28083896D01*
X178449864Y-28084176D01*
G37*
%TD.AperFunction*%
%TD*%
%TA.AperFunction,Conductor*%
%TO.N,GP22*%
G36*
X177543437Y-82154426D02*
G01*
X178405171Y-82328731D01*
X178412600Y-82333730D01*
X178414367Y-82342263D01*
X178309696Y-82926184D01*
X178304864Y-82933723D01*
X178303782Y-82934392D01*
X177619641Y-83307479D01*
X177610737Y-83308431D01*
X177608210Y-83307352D01*
X176959143Y-82934392D01*
X176843430Y-82867901D01*
X176837965Y-82860809D01*
X176839115Y-82851929D01*
X176840983Y-82849489D01*
X177532851Y-82157621D01*
X177541123Y-82154195D01*
X177543437Y-82154426D01*
G37*
%TD.AperFunction*%
%TD*%
%TA.AperFunction,Conductor*%
%TO.N,GP22*%
G36*
X174562882Y-60509660D02*
G01*
X174563763Y-60510650D01*
X175362311Y-61517515D01*
X175364767Y-61526126D01*
X175361417Y-61533058D01*
X174669058Y-62225417D01*
X174660785Y-62228844D01*
X174653515Y-62226311D01*
X173646650Y-61427763D01*
X173642297Y-61419937D01*
X173644753Y-61411326D01*
X173645621Y-61410349D01*
X174095293Y-60959293D01*
X174546338Y-60509632D01*
X174554614Y-60506220D01*
X174562882Y-60509660D01*
G37*
%TD.AperFunction*%
%TD*%
%TA.AperFunction,Conductor*%
%TO.N,CJD*%
G36*
X172225901Y-61026399D02*
G01*
X172776604Y-61413023D01*
X173274239Y-61762392D01*
X173279041Y-61769950D01*
X173277092Y-61778690D01*
X173275802Y-61780227D01*
X172826707Y-62230707D01*
X172375150Y-62680875D01*
X172366872Y-62684289D01*
X172358604Y-62680849D01*
X172358149Y-62680366D01*
X171518087Y-61736102D01*
X171515148Y-61727643D01*
X171518554Y-61720053D01*
X172210906Y-61027701D01*
X172219178Y-61024275D01*
X172225901Y-61026399D01*
G37*
%TD.AperFunction*%
%TD*%
%TA.AperFunction,Conductor*%
%TO.N,-12V*%
G36*
X182364638Y-111950312D02*
G01*
X182368065Y-111958585D01*
X182368031Y-111959482D01*
X182315828Y-112638224D01*
X182311776Y-112646210D01*
X182304191Y-112649027D01*
X181919875Y-112649987D01*
X181911594Y-112646581D01*
X181911558Y-112646546D01*
X181639551Y-112373577D01*
X181636139Y-112365297D01*
X181638718Y-112357990D01*
X181965488Y-111951257D01*
X181973341Y-111946954D01*
X181974609Y-111946885D01*
X182356365Y-111946885D01*
X182364638Y-111950312D01*
G37*
%TD.AperFunction*%
%TD*%
%TA.AperFunction,Conductor*%
%TO.N,-12V*%
G36*
X182179433Y-110967384D02*
G01*
X182180122Y-110969046D01*
X182456581Y-111815339D01*
X182456872Y-111821547D01*
X182371059Y-112201875D01*
X182365895Y-112209191D01*
X182359646Y-112211000D01*
X181978354Y-112211000D01*
X181970081Y-112207573D01*
X181966941Y-112201875D01*
X181881127Y-111821547D01*
X181881417Y-111815342D01*
X182157878Y-110969045D01*
X182163705Y-110962246D01*
X182172633Y-110961557D01*
X182179433Y-110967384D01*
G37*
%TD.AperFunction*%
%TD*%
%TA.AperFunction,Conductor*%
%TO.N,-12V*%
G36*
X179987865Y-35945967D02*
G01*
X180563068Y-36412004D01*
X180567339Y-36419875D01*
X180567340Y-36422311D01*
X180481595Y-37243016D01*
X180477327Y-37250888D01*
X180469958Y-37253500D01*
X179491042Y-37253500D01*
X179482769Y-37250073D01*
X179479405Y-37243016D01*
X179393659Y-36422311D01*
X179396208Y-36413726D01*
X179397926Y-36412008D01*
X179973135Y-35945966D01*
X179981720Y-35943422D01*
X179987865Y-35945967D01*
G37*
%TD.AperFunction*%
%TD*%
%TA.AperFunction,Conductor*%
%TO.N,Net-(O3A-+)*%
G36*
X185973183Y-90284273D02*
G01*
X186557996Y-90525537D01*
X186564337Y-90531860D01*
X186564982Y-90533938D01*
X186709555Y-91219248D01*
X186707910Y-91228050D01*
X186702759Y-91232399D01*
X185720626Y-91657953D01*
X185711672Y-91658097D01*
X185707701Y-91655490D01*
X185436371Y-91384160D01*
X185432944Y-91375887D01*
X185434116Y-91370782D01*
X185503060Y-91228600D01*
X185958194Y-90289982D01*
X185964887Y-90284035D01*
X185973183Y-90284273D01*
G37*
%TD.AperFunction*%
%TD*%
%TA.AperFunction,Conductor*%
%TO.N,Net-(O3A-+)*%
G36*
X169413919Y-114614427D02*
G01*
X169417059Y-114620125D01*
X169502872Y-115000452D01*
X169502581Y-115006660D01*
X169226122Y-115852953D01*
X169220295Y-115859753D01*
X169211367Y-115860442D01*
X169204567Y-115854615D01*
X169203878Y-115852953D01*
X169144516Y-115671235D01*
X168927417Y-115006657D01*
X168927127Y-115000454D01*
X169012941Y-114620124D01*
X169018105Y-114612809D01*
X169024354Y-114611000D01*
X169405646Y-114611000D01*
X169413919Y-114614427D01*
G37*
%TD.AperFunction*%
%TD*%
%TA.AperFunction,Conductor*%
%TO.N,Net-(O3A-+)*%
G36*
X187115917Y-89933634D02*
G01*
X187757396Y-90325179D01*
X187762672Y-90332415D01*
X187763000Y-90335166D01*
X187763000Y-90722033D01*
X187759573Y-90730306D01*
X187757396Y-90732020D01*
X187115918Y-91123564D01*
X187107071Y-91124949D01*
X187101166Y-91121449D01*
X186569159Y-90536472D01*
X186566128Y-90528046D01*
X186569159Y-90520728D01*
X186740420Y-90332415D01*
X187101166Y-89935749D01*
X187109268Y-89931935D01*
X187115917Y-89933634D01*
G37*
%TD.AperFunction*%
%TD*%
%TA.AperFunction,Conductor*%
%TO.N,Net-(O5C-+)*%
G36*
X187099917Y-105427634D02*
G01*
X187741396Y-105819179D01*
X187746672Y-105826415D01*
X187747000Y-105829166D01*
X187747000Y-106216033D01*
X187743573Y-106224306D01*
X187741396Y-106226020D01*
X187099918Y-106617564D01*
X187091071Y-106618949D01*
X187085166Y-106615449D01*
X186553159Y-106030472D01*
X186550128Y-106022046D01*
X186553159Y-106014728D01*
X186724420Y-105826415D01*
X187085166Y-105429749D01*
X187093268Y-105425935D01*
X187099917Y-105427634D01*
G37*
%TD.AperFunction*%
%TD*%
%TA.AperFunction,Conductor*%
%TO.N,Net-(O5C-+)*%
G36*
X183735541Y-110916272D02*
G01*
X183739582Y-110924264D01*
X183739600Y-110924560D01*
X183792294Y-111976523D01*
X183789286Y-111984957D01*
X183788882Y-111985381D01*
X183520558Y-112253705D01*
X183512285Y-112257132D01*
X183504012Y-112253705D01*
X183502118Y-112251222D01*
X183350708Y-111985381D01*
X183310295Y-111914425D01*
X183308865Y-111907092D01*
X183437040Y-110944698D01*
X183441529Y-110936951D01*
X183447753Y-110934578D01*
X183727034Y-110913478D01*
X183735541Y-110916272D01*
G37*
%TD.AperFunction*%
%TD*%
%TA.AperFunction,Conductor*%
%TO.N,Net-(O3D-+)*%
G36*
X169413919Y-109664427D02*
G01*
X169417059Y-109670125D01*
X169502872Y-110050452D01*
X169502581Y-110056660D01*
X169226122Y-110902953D01*
X169220295Y-110909753D01*
X169211367Y-110910442D01*
X169204567Y-110904615D01*
X169203878Y-110902953D01*
X169144516Y-110721235D01*
X168927417Y-110056657D01*
X168927127Y-110050454D01*
X169012941Y-109670124D01*
X169018105Y-109662809D01*
X169024354Y-109661000D01*
X169405646Y-109661000D01*
X169413919Y-109664427D01*
G37*
%TD.AperFunction*%
%TD*%
%TA.AperFunction,Conductor*%
%TO.N,Net-(O3D-+)*%
G36*
X186285549Y-101837728D02*
G01*
X186683623Y-102188537D01*
X186926596Y-102402661D01*
X186930537Y-102410702D01*
X186929083Y-102417129D01*
X186554227Y-103090591D01*
X186547209Y-103096153D01*
X186538314Y-103095124D01*
X186536982Y-103094260D01*
X185952204Y-102655504D01*
X185947643Y-102647797D01*
X185947571Y-102645122D01*
X185994093Y-102117544D01*
X185997474Y-102110302D01*
X186269543Y-101838233D01*
X186277815Y-101834807D01*
X186285549Y-101837728D01*
G37*
%TD.AperFunction*%
%TD*%
%TA.AperFunction,Conductor*%
%TO.N,Net-(O3D-+)*%
G36*
X186006092Y-101323821D02*
G01*
X186011690Y-101328715D01*
X186339550Y-101889470D01*
X186340768Y-101898340D01*
X186337723Y-101903647D01*
X186067647Y-102173723D01*
X186059374Y-102177150D01*
X186053470Y-102175550D01*
X185577504Y-101897264D01*
X185492715Y-101847690D01*
X185487302Y-101840556D01*
X185487799Y-101833140D01*
X185634437Y-101476802D01*
X185640753Y-101470457D01*
X185997140Y-101323800D01*
X186006092Y-101323821D01*
G37*
%TD.AperFunction*%
%TD*%
%TA.AperFunction,Conductor*%
%TO.N,Net-(O3D-+)*%
G36*
X187099917Y-102506634D02*
G01*
X187741396Y-102898179D01*
X187746672Y-102905415D01*
X187747000Y-102908166D01*
X187747000Y-103295033D01*
X187743573Y-103303306D01*
X187741396Y-103305020D01*
X187099918Y-103696564D01*
X187091071Y-103697949D01*
X187085166Y-103694449D01*
X186553159Y-103109472D01*
X186550128Y-103101046D01*
X186553159Y-103093728D01*
X186724420Y-102905415D01*
X187085166Y-102508749D01*
X187093268Y-102504935D01*
X187099917Y-102506634D01*
G37*
%TD.AperFunction*%
%TD*%
%TA.AperFunction,Conductor*%
%TO.N,Net-(O3D-+)*%
G36*
X170692859Y-102593799D02*
G01*
X171049195Y-102740436D01*
X171055542Y-102746754D01*
X171055563Y-102746804D01*
X171202199Y-103103138D01*
X171202178Y-103112092D01*
X171197284Y-103117690D01*
X170636530Y-103445550D01*
X170627659Y-103446768D01*
X170622352Y-103443723D01*
X170352276Y-103173647D01*
X170348849Y-103165374D01*
X170350447Y-103159473D01*
X170678310Y-102598713D01*
X170685443Y-102593302D01*
X170692859Y-102593799D01*
G37*
%TD.AperFunction*%
%TD*%
%TA.AperFunction,Conductor*%
%TO.N,Net-(O3C-+)*%
G36*
X187099917Y-97807634D02*
G01*
X187741396Y-98199179D01*
X187746672Y-98206415D01*
X187747000Y-98209166D01*
X187747000Y-98596033D01*
X187743573Y-98604306D01*
X187741396Y-98606020D01*
X187099918Y-98997564D01*
X187091071Y-98998949D01*
X187085166Y-98995449D01*
X186553159Y-98410472D01*
X186550128Y-98402046D01*
X186553159Y-98394728D01*
X186724420Y-98206415D01*
X187085166Y-97809749D01*
X187093268Y-97805935D01*
X187099917Y-97807634D01*
G37*
%TD.AperFunction*%
%TD*%
%TA.AperFunction,Conductor*%
%TO.N,Net-(O3C-+)*%
G36*
X171862359Y-109250765D02*
G01*
X171870624Y-109254213D01*
X171873946Y-109261066D01*
X171953422Y-109920904D01*
X171951009Y-109929527D01*
X171943205Y-109933919D01*
X171941806Y-109934003D01*
X171560165Y-109934003D01*
X171551892Y-109930576D01*
X171551520Y-109930187D01*
X171197382Y-109541875D01*
X171194339Y-109533453D01*
X171197738Y-109525734D01*
X171469268Y-109253243D01*
X171477533Y-109249803D01*
X171862359Y-109250765D01*
G37*
%TD.AperFunction*%
%TD*%
%TA.AperFunction,Conductor*%
%TO.N,Net-(O3C-+)*%
G36*
X171953919Y-109664427D02*
G01*
X171957059Y-109670125D01*
X172042872Y-110050452D01*
X172042581Y-110056660D01*
X171766122Y-110902953D01*
X171760295Y-110909753D01*
X171751367Y-110910442D01*
X171744567Y-110904615D01*
X171743878Y-110902953D01*
X171684516Y-110721235D01*
X171467417Y-110056657D01*
X171467127Y-110050454D01*
X171552941Y-109670124D01*
X171558105Y-109662809D01*
X171564354Y-109661000D01*
X171945646Y-109661000D01*
X171953919Y-109664427D01*
G37*
%TD.AperFunction*%
%TD*%
%TA.AperFunction,Conductor*%
%TO.N,Net-(O3C-+)*%
G36*
X184773538Y-100815804D02*
G01*
X184776583Y-100821111D01*
X184941265Y-101449456D01*
X184940047Y-101458327D01*
X184934449Y-101463221D01*
X184578796Y-101611500D01*
X184569842Y-101611521D01*
X184569792Y-101611500D01*
X184214138Y-101463221D01*
X184207820Y-101456874D01*
X184207322Y-101449459D01*
X184372005Y-100821111D01*
X184377418Y-100813977D01*
X184383323Y-100812377D01*
X184765265Y-100812377D01*
X184773538Y-100815804D01*
G37*
%TD.AperFunction*%
%TD*%
%TA.AperFunction,Conductor*%
%TO.N,Net-(O3C-+)*%
G36*
X185957183Y-98158273D02*
G01*
X186541996Y-98399537D01*
X186548337Y-98405860D01*
X186548982Y-98407938D01*
X186693555Y-99093248D01*
X186691910Y-99102050D01*
X186686759Y-99106399D01*
X185704626Y-99531953D01*
X185695672Y-99532097D01*
X185691701Y-99529490D01*
X185420371Y-99258160D01*
X185416944Y-99249887D01*
X185418116Y-99244782D01*
X185487060Y-99102600D01*
X185942194Y-98163982D01*
X185948887Y-98158035D01*
X185957183Y-98158273D01*
G37*
%TD.AperFunction*%
%TD*%
%TA.AperFunction,Conductor*%
%TO.N,Net-(O5D-+)*%
G36*
X187099917Y-95013634D02*
G01*
X187741396Y-95405179D01*
X187746672Y-95412415D01*
X187747000Y-95415166D01*
X187747000Y-95802033D01*
X187743573Y-95810306D01*
X187741396Y-95812020D01*
X187099918Y-96203564D01*
X187091071Y-96204949D01*
X187085166Y-96201449D01*
X186553159Y-95616472D01*
X186550128Y-95608046D01*
X186553159Y-95600728D01*
X186724420Y-95412415D01*
X187085166Y-95015749D01*
X187093268Y-95011935D01*
X187099917Y-95013634D01*
G37*
%TD.AperFunction*%
%TD*%
%TA.AperFunction,Conductor*%
%TO.N,Net-(O5D-+)*%
G36*
X180962507Y-109566004D02*
G01*
X180965069Y-109569863D01*
X181136082Y-109989663D01*
X181136592Y-109996937D01*
X180909587Y-110897510D01*
X180904242Y-110904694D01*
X180895382Y-110905995D01*
X180888198Y-110900650D01*
X180887123Y-110898292D01*
X180886867Y-110897510D01*
X180611559Y-110057083D01*
X180611472Y-110050083D01*
X180674733Y-109839207D01*
X180677664Y-109834301D01*
X180945962Y-109566003D01*
X180954234Y-109562577D01*
X180962507Y-109566004D01*
G37*
%TD.AperFunction*%
%TD*%
%TA.AperFunction,Conductor*%
%TO.N,Net-(O5D-+)*%
G36*
X185957183Y-95364273D02*
G01*
X186541996Y-95605537D01*
X186548337Y-95611860D01*
X186548982Y-95613938D01*
X186693555Y-96299248D01*
X186691910Y-96308050D01*
X186686759Y-96312399D01*
X185704626Y-96737953D01*
X185695672Y-96738097D01*
X185691701Y-96735490D01*
X185420371Y-96464160D01*
X185416944Y-96455887D01*
X185418116Y-96450782D01*
X185487060Y-96308600D01*
X185942194Y-95369982D01*
X185948887Y-95364035D01*
X185957183Y-95364273D01*
G37*
%TD.AperFunction*%
%TD*%
%TA.AperFunction,Conductor*%
%TO.N,Net-(D2-K)*%
G36*
X178704326Y-60943248D02*
G01*
X179193627Y-61229330D01*
X179265084Y-61271109D01*
X179270497Y-61278243D01*
X179269999Y-61285661D01*
X179123363Y-61641995D01*
X179117045Y-61648342D01*
X179116995Y-61648363D01*
X178760661Y-61794999D01*
X178751707Y-61794978D01*
X178746109Y-61790084D01*
X178659525Y-61641995D01*
X178418248Y-61229327D01*
X178417031Y-61220459D01*
X178420074Y-61215154D01*
X178690153Y-60945075D01*
X178698425Y-60941649D01*
X178704326Y-60943248D01*
G37*
%TD.AperFunction*%
%TD*%
%TA.AperFunction,Conductor*%
%TO.N,Net-(D2-K)*%
G36*
X178265490Y-60176685D02*
G01*
X178800347Y-60520994D01*
X178805449Y-60528354D01*
X178803852Y-60537165D01*
X178803820Y-60537214D01*
X178603925Y-60844389D01*
X178602392Y-60846280D01*
X178329556Y-61119116D01*
X178321283Y-61122543D01*
X178313010Y-61119116D01*
X178312228Y-61118252D01*
X177911799Y-60628825D01*
X177909212Y-60620252D01*
X177911618Y-60614233D01*
X178249923Y-60179338D01*
X178257707Y-60174913D01*
X178265490Y-60176685D01*
G37*
%TD.AperFunction*%
%TD*%
%TA.AperFunction,Conductor*%
%TO.N,Net-(D3-K)*%
G36*
X168694347Y-48904645D02*
G01*
X168702279Y-48908795D01*
X168705000Y-48916297D01*
X168705000Y-50394926D01*
X168701573Y-50403199D01*
X168694371Y-50406577D01*
X167614201Y-50505886D01*
X167605649Y-50503231D01*
X167603592Y-50501011D01*
X167536505Y-50406577D01*
X167008801Y-49663759D01*
X167006804Y-49655031D01*
X167008787Y-49650229D01*
X167601112Y-48812497D01*
X167608685Y-48807723D01*
X167611706Y-48807601D01*
X168694347Y-48904645D01*
G37*
%TD.AperFunction*%
%TD*%
%TA.AperFunction,Conductor*%
%TO.N,Net-(D4-A)*%
G36*
X167017356Y-38647716D02*
G01*
X168693701Y-38744960D01*
X168701760Y-38748860D01*
X168704722Y-38756640D01*
X168704722Y-40234577D01*
X168701295Y-40242850D01*
X168693719Y-40246256D01*
X167017382Y-40346261D01*
X167008919Y-40343333D01*
X167005006Y-40335279D01*
X167004985Y-40334596D01*
X167004880Y-40245600D01*
X167004000Y-39497000D01*
X167004985Y-38659381D01*
X167008422Y-38651114D01*
X167016699Y-38647697D01*
X167017356Y-38647716D01*
G37*
%TD.AperFunction*%
%TD*%
%TA.AperFunction,Conductor*%
%TO.N,Net-(J1-PadT)*%
G36*
X88096409Y-107943312D02*
G01*
X88101216Y-107946214D01*
X89145475Y-108990473D01*
X89148902Y-108998746D01*
X89145475Y-109007019D01*
X89140212Y-109010052D01*
X87040858Y-109568967D01*
X87031982Y-109567784D01*
X87027091Y-109562262D01*
X86788691Y-109004829D01*
X86615229Y-108599236D01*
X86615127Y-108590283D01*
X87017473Y-107619918D01*
X87023806Y-107613590D01*
X87031743Y-107613226D01*
X88096409Y-107943312D01*
G37*
%TD.AperFunction*%
%TD*%
%TA.AperFunction,Conductor*%
%TO.N,Net-(J2-PadT)*%
G36*
X102641562Y-106758754D02*
G01*
X103687890Y-107805082D01*
X103691317Y-107813355D01*
X103688319Y-107821176D01*
X102487071Y-109157807D01*
X102478992Y-109161669D01*
X102471980Y-109159787D01*
X101608316Y-108596792D01*
X101603764Y-108591136D01*
X101309091Y-107813355D01*
X101233153Y-107612917D01*
X101233426Y-107603969D01*
X101238030Y-107598769D01*
X102627226Y-106757020D01*
X102636077Y-106755664D01*
X102641562Y-106758754D01*
G37*
%TD.AperFunction*%
%TD*%
%TA.AperFunction,Conductor*%
%TO.N,Net-(J3-PadT)*%
G36*
X115675917Y-106609568D02*
G01*
X116646878Y-107336350D01*
X117065823Y-107649939D01*
X117070393Y-107657640D01*
X117069250Y-107664591D01*
X116600086Y-108591285D01*
X116594933Y-108596438D01*
X115668239Y-109065602D01*
X115659310Y-109066282D01*
X115653587Y-109062175D01*
X114613217Y-107672270D01*
X114611003Y-107663593D01*
X114614309Y-107656988D01*
X115660635Y-106610662D01*
X115668907Y-106607236D01*
X115675917Y-106609568D01*
G37*
%TD.AperFunction*%
%TD*%
%TA.AperFunction,Conductor*%
%TO.N,Net-(J4-PadT)*%
G36*
X88668967Y-125622557D02*
G01*
X88676667Y-125627126D01*
X88679000Y-125634137D01*
X88679000Y-127113862D01*
X88675573Y-127122135D01*
X88668966Y-127125443D01*
X86950502Y-127372601D01*
X86941825Y-127370387D01*
X86937718Y-127364664D01*
X86859271Y-127125335D01*
X86614194Y-126377642D01*
X86614194Y-126370356D01*
X86858834Y-125624000D01*
X86937718Y-125383334D01*
X86943551Y-125376541D01*
X86950500Y-125375398D01*
X88668967Y-125622557D01*
G37*
%TD.AperFunction*%
%TD*%
%TA.AperFunction,Conductor*%
%TO.N,Net-(J5-PadT)*%
G36*
X102641562Y-124538754D02*
G01*
X103687890Y-125585082D01*
X103691317Y-125593355D01*
X103688319Y-125601176D01*
X102487071Y-126937807D01*
X102478992Y-126941669D01*
X102471980Y-126939787D01*
X101608316Y-126376792D01*
X101603764Y-126371136D01*
X101309091Y-125593355D01*
X101233153Y-125392917D01*
X101233426Y-125383969D01*
X101238030Y-125378769D01*
X102627226Y-124537020D01*
X102636077Y-124535664D01*
X102641562Y-124538754D01*
G37*
%TD.AperFunction*%
%TD*%
%TA.AperFunction,Conductor*%
%TO.N,Net-(J6-PadT)*%
G36*
X116269822Y-125377612D02*
G01*
X116273929Y-125383335D01*
X116597453Y-126370356D01*
X116597453Y-126377644D01*
X116273929Y-127364664D01*
X116268096Y-127371458D01*
X116261145Y-127372601D01*
X114542682Y-127125443D01*
X114534981Y-127120873D01*
X114532648Y-127113862D01*
X114532648Y-125634137D01*
X114536075Y-125625864D01*
X114542679Y-125622557D01*
X116261146Y-125375398D01*
X116269822Y-125377612D01*
G37*
%TD.AperFunction*%
%TD*%
%TA.AperFunction,Conductor*%
%TO.N,Net-(J7-PadT)*%
G36*
X107129578Y-29800629D02*
G01*
X107131987Y-29804130D01*
X107953889Y-31643851D01*
X107954135Y-31652802D01*
X107949229Y-31658654D01*
X107064893Y-32189593D01*
X107057998Y-32191229D01*
X106022777Y-32113784D01*
X106014783Y-32109750D01*
X106011960Y-32101629D01*
X106064203Y-30853824D01*
X106067619Y-30846042D01*
X107113033Y-29800628D01*
X107121305Y-29797202D01*
X107129578Y-29800629D01*
G37*
%TD.AperFunction*%
%TD*%
%TA.AperFunction,Conductor*%
%TO.N,Net-(J8-PadT)*%
G36*
X97795515Y-30469887D02*
G01*
X97801449Y-30476593D01*
X97802087Y-30480403D01*
X97802087Y-31959103D01*
X97798660Y-31967376D01*
X97798598Y-31967437D01*
X96909759Y-32843159D01*
X96901461Y-32846525D01*
X96893679Y-32843483D01*
X96122434Y-32142532D01*
X96118861Y-32136318D01*
X95903709Y-31128711D01*
X95905333Y-31119906D01*
X95911340Y-31115207D01*
X97786579Y-30469341D01*
X97795515Y-30469887D01*
G37*
%TD.AperFunction*%
%TD*%
%TA.AperFunction,Conductor*%
%TO.N,Net-(LED1-A)*%
G36*
X84862935Y-91813366D02*
G01*
X85905521Y-92855952D01*
X85908459Y-92860876D01*
X86177471Y-93761472D01*
X86176555Y-93770380D01*
X86170742Y-93775628D01*
X85350450Y-94115812D01*
X85345959Y-94116705D01*
X84462867Y-94116010D01*
X84454596Y-94112577D01*
X84451176Y-94104301D01*
X84451343Y-94102343D01*
X84843132Y-91819657D01*
X84847908Y-91812086D01*
X84856641Y-91810108D01*
X84862935Y-91813366D01*
G37*
%TD.AperFunction*%
%TD*%
%TA.AperFunction,Conductor*%
%TO.N,Net-(LED2-A)*%
G36*
X100335805Y-93220389D02*
G01*
X100340648Y-93227921D01*
X100340834Y-93229992D01*
X100341529Y-94114368D01*
X100340634Y-94118865D01*
X100000222Y-94938313D01*
X99993883Y-94944639D01*
X99986735Y-94945214D01*
X98093755Y-94499480D01*
X98086488Y-94494248D01*
X98085048Y-94485409D01*
X98088162Y-94479820D01*
X99131385Y-93436597D01*
X99137575Y-93433358D01*
X100327055Y-93218487D01*
X100335805Y-93220389D01*
G37*
%TD.AperFunction*%
%TD*%
%TA.AperFunction,Conductor*%
%TO.N,Net-(LED3-A)*%
G36*
X116327541Y-92368956D02*
G01*
X116330968Y-92377229D01*
X116330949Y-92377890D01*
X116233271Y-94104973D01*
X116229383Y-94113039D01*
X116221603Y-94116012D01*
X115334988Y-94116997D01*
X115330487Y-94116102D01*
X114510331Y-93775396D01*
X114504005Y-93769057D01*
X114503429Y-93761914D01*
X114828743Y-92377890D01*
X114829527Y-92374551D01*
X114834756Y-92367282D01*
X114840917Y-92365529D01*
X116319268Y-92365529D01*
X116327541Y-92368956D01*
G37*
%TD.AperFunction*%
%TD*%
%TA.AperFunction,Conductor*%
%TO.N,Net-(LED4-A)*%
G36*
X88264926Y-111073526D02*
G01*
X89625030Y-111368998D01*
X89632386Y-111374102D01*
X89634245Y-111380430D01*
X89634245Y-112858789D01*
X89630818Y-112867062D01*
X89622545Y-112870489D01*
X89622046Y-112870478D01*
X87890188Y-112796478D01*
X87882068Y-112792701D01*
X87878987Y-112784803D01*
X87878002Y-111898336D01*
X87878896Y-111893842D01*
X88219669Y-111073524D01*
X88226007Y-111067200D01*
X88232957Y-111066581D01*
X88264926Y-111073526D01*
G37*
%TD.AperFunction*%
%TD*%
%TA.AperFunction,Conductor*%
%TO.N,Net-(LED5-A)*%
G36*
X103620898Y-110100490D02*
G01*
X104666333Y-111145925D01*
X104669760Y-111154198D01*
X104666992Y-111161756D01*
X103515424Y-112522700D01*
X103507464Y-112526802D01*
X103498934Y-112524074D01*
X103498228Y-112523424D01*
X102870117Y-111896707D01*
X102243399Y-111268595D01*
X102239981Y-111260318D01*
X102243417Y-111252049D01*
X102244102Y-111251418D01*
X103605069Y-110099830D01*
X103613597Y-110097103D01*
X103620898Y-110100490D01*
G37*
%TD.AperFunction*%
%TD*%
%TA.AperFunction,Conductor*%
%TO.N,Net-(LED6-A)*%
G36*
X114704562Y-111268173D02*
G01*
X114706213Y-111269543D01*
X115333355Y-111895293D01*
X115960926Y-112524260D01*
X115964344Y-112532537D01*
X115961055Y-112540657D01*
X114750718Y-113792306D01*
X114742503Y-113795871D01*
X114734174Y-113792584D01*
X114734034Y-113792446D01*
X113688658Y-112747070D01*
X113685231Y-112738797D01*
X113687277Y-112732187D01*
X114688299Y-111271210D01*
X114695800Y-111266324D01*
X114704562Y-111268173D01*
G37*
%TD.AperFunction*%
%TD*%
%TA.AperFunction,Conductor*%
%TO.N,GP26*%
G36*
X187206016Y-47377543D02*
G01*
X187731873Y-47872354D01*
X187772602Y-47910679D01*
X187776279Y-47918844D01*
X187775028Y-47924474D01*
X187401245Y-48664574D01*
X187394456Y-48670414D01*
X187390801Y-48671000D01*
X187005199Y-48671000D01*
X186996926Y-48667573D01*
X186994755Y-48664575D01*
X186620970Y-47924474D01*
X186620301Y-47915545D01*
X186623395Y-47910681D01*
X187189983Y-47377543D01*
X187198356Y-47374370D01*
X187206016Y-47377543D01*
G37*
%TD.AperFunction*%
%TD*%
%TA.AperFunction,Conductor*%
%TO.N,Net-(O1A--)*%
G36*
X185100601Y-52702896D02*
G01*
X185108258Y-52707537D01*
X185110484Y-52713473D01*
X185134150Y-52992993D01*
X185131434Y-53001526D01*
X185123479Y-53005638D01*
X185123136Y-53005662D01*
X184168510Y-53058266D01*
X184160061Y-53055300D01*
X184159593Y-53054857D01*
X183891189Y-52786453D01*
X183887762Y-52778180D01*
X183891189Y-52769907D01*
X183893570Y-52768073D01*
X184230428Y-52572018D01*
X184238082Y-52570566D01*
X185100601Y-52702896D01*
G37*
%TD.AperFunction*%
%TD*%
%TA.AperFunction,Conductor*%
%TO.N,Net-(O1A--)*%
G36*
X185796771Y-47126686D02*
G01*
X185802806Y-47132384D01*
X186326883Y-48213182D01*
X186327409Y-48222121D01*
X186324628Y-48226560D01*
X186053298Y-48497890D01*
X186045025Y-48501317D01*
X186040373Y-48500353D01*
X185058240Y-48074799D01*
X185052012Y-48068365D01*
X185051444Y-48061651D01*
X185196018Y-47376336D01*
X185201078Y-47368950D01*
X185202999Y-47367938D01*
X185787816Y-47126673D01*
X185796771Y-47126686D01*
G37*
%TD.AperFunction*%
%TD*%
%TA.AperFunction,Conductor*%
%TO.N,Net-(O1A--)*%
G36*
X189438623Y-118377645D02*
G01*
X190420759Y-118803200D01*
X190426987Y-118809634D01*
X190427555Y-118816351D01*
X190282982Y-119501661D01*
X190277921Y-119509049D01*
X190275996Y-119510062D01*
X189691183Y-119751326D01*
X189682228Y-119751313D01*
X189676193Y-119745615D01*
X189152116Y-118664817D01*
X189151590Y-118655878D01*
X189154369Y-118651441D01*
X189425702Y-118380108D01*
X189433974Y-118376682D01*
X189438623Y-118377645D01*
G37*
%TD.AperFunction*%
%TD*%
%TA.AperFunction,Conductor*%
%TO.N,Net-(O1A--)*%
G36*
X186057938Y-52354699D02*
G01*
X186058406Y-52355142D01*
X186326810Y-52623546D01*
X186330237Y-52631819D01*
X186326810Y-52640092D01*
X186324422Y-52641931D01*
X185987573Y-52837980D01*
X185979914Y-52839433D01*
X185117399Y-52707104D01*
X185109741Y-52702462D01*
X185107515Y-52696528D01*
X185083850Y-52417004D01*
X185086566Y-52408473D01*
X185094521Y-52404361D01*
X185094857Y-52404337D01*
X186049490Y-52351733D01*
X186057938Y-52354699D01*
G37*
%TD.AperFunction*%
%TD*%
%TA.AperFunction,Conductor*%
%TO.N,Net-(O3A--)*%
G36*
X168147451Y-118415595D02*
G01*
X168929811Y-118802397D01*
X168935709Y-118809135D01*
X168935655Y-118816789D01*
X168692961Y-119502457D01*
X168686971Y-119509113D01*
X168685382Y-119509733D01*
X168102579Y-119689580D01*
X168093663Y-119688745D01*
X168087949Y-119681850D01*
X168087835Y-119681456D01*
X167748993Y-118429139D01*
X167750140Y-118420258D01*
X167757231Y-118414789D01*
X167760287Y-118414383D01*
X168142266Y-118414383D01*
X168147451Y-118415595D01*
G37*
%TD.AperFunction*%
%TD*%
%TA.AperFunction,Conductor*%
%TO.N,Net-(O3A--)*%
G36*
X170454833Y-118914150D02*
G01*
X170986840Y-119499128D01*
X170989871Y-119507554D01*
X170986840Y-119514872D01*
X170454833Y-120099849D01*
X170446731Y-120103664D01*
X170440081Y-120101964D01*
X169798604Y-119710420D01*
X169793328Y-119703184D01*
X169793000Y-119700433D01*
X169793000Y-119313566D01*
X169796427Y-119305293D01*
X169798601Y-119303580D01*
X170440082Y-118912034D01*
X170448928Y-118910650D01*
X170454833Y-118914150D01*
G37*
%TD.AperFunction*%
%TD*%
%TA.AperFunction,Conductor*%
%TO.N,Net-(O3A--)*%
G36*
X169243917Y-118912034D02*
G01*
X169885396Y-119303579D01*
X169890672Y-119310815D01*
X169891000Y-119313566D01*
X169891000Y-119700433D01*
X169887573Y-119708706D01*
X169885396Y-119710420D01*
X169243918Y-120101964D01*
X169235071Y-120103349D01*
X169229166Y-120099849D01*
X168697159Y-119514872D01*
X168694128Y-119506446D01*
X168697159Y-119499128D01*
X168868420Y-119310815D01*
X169229166Y-118914149D01*
X169237268Y-118910335D01*
X169243917Y-118912034D01*
G37*
%TD.AperFunction*%
%TD*%
%TA.AperFunction,Conductor*%
%TO.N,Net-(O3A--)*%
G36*
X167955433Y-115917384D02*
G01*
X167956122Y-115919046D01*
X168232581Y-116765339D01*
X168232872Y-116771547D01*
X168147059Y-117151875D01*
X168141895Y-117159191D01*
X168135646Y-117161000D01*
X167754354Y-117161000D01*
X167746081Y-117157573D01*
X167742941Y-117151875D01*
X167657127Y-116771547D01*
X167657417Y-116765342D01*
X167933878Y-115919045D01*
X167939705Y-115912246D01*
X167948633Y-115911557D01*
X167955433Y-115917384D01*
G37*
%TD.AperFunction*%
%TD*%
%TA.AperFunction,Conductor*%
%TO.N,Net-(O3B--)*%
G36*
X173321541Y-115866272D02*
G01*
X173325582Y-115874264D01*
X173325600Y-115874560D01*
X173378294Y-116926523D01*
X173375286Y-116934957D01*
X173374882Y-116935381D01*
X173106558Y-117203705D01*
X173098285Y-117207132D01*
X173090012Y-117203705D01*
X173088118Y-117201222D01*
X172936708Y-116935381D01*
X172896295Y-116864425D01*
X172894865Y-116857092D01*
X173023040Y-115894698D01*
X173027529Y-115886951D01*
X173033753Y-115884578D01*
X173313034Y-115863478D01*
X173321541Y-115866272D01*
G37*
%TD.AperFunction*%
%TD*%
%TA.AperFunction,Conductor*%
%TO.N,Net-(O3B--)*%
G36*
X174696099Y-118246462D02*
G01*
X175134498Y-118530649D01*
X175553051Y-118801972D01*
X175558129Y-118809348D01*
X175557711Y-118815709D01*
X175313679Y-119502158D01*
X175307679Y-119508805D01*
X175306075Y-119509428D01*
X174722651Y-119687777D01*
X174713738Y-119686918D01*
X174708042Y-119680008D01*
X174707913Y-119679552D01*
X174407016Y-118530649D01*
X174408235Y-118521778D01*
X174410057Y-118519416D01*
X174681466Y-118248007D01*
X174689738Y-118244581D01*
X174696099Y-118246462D01*
G37*
%TD.AperFunction*%
%TD*%
%TA.AperFunction,Conductor*%
%TO.N,Net-(O3B--)*%
G36*
X172969709Y-114512631D02*
G01*
X173238007Y-114780929D01*
X173240833Y-114785500D01*
X173293753Y-114944152D01*
X173312358Y-114999927D01*
X173312378Y-115007271D01*
X173036694Y-115848849D01*
X173030862Y-115855645D01*
X173021933Y-115856326D01*
X173015137Y-115850494D01*
X173014253Y-115848156D01*
X172780710Y-114951411D01*
X172781155Y-114944152D01*
X172950559Y-114516594D01*
X172956792Y-114510165D01*
X172965746Y-114510027D01*
X172969709Y-114512631D01*
G37*
%TD.AperFunction*%
%TD*%
%TA.AperFunction,Conductor*%
%TO.N,Net-(O3B--)*%
G36*
X180786623Y-118377645D02*
G01*
X181768759Y-118803200D01*
X181774987Y-118809634D01*
X181775555Y-118816351D01*
X181630982Y-119501661D01*
X181625921Y-119509049D01*
X181623996Y-119510062D01*
X181039183Y-119751326D01*
X181030228Y-119751313D01*
X181024193Y-119745615D01*
X180500116Y-118664817D01*
X180499590Y-118655878D01*
X180502369Y-118651441D01*
X180773702Y-118380108D01*
X180781974Y-118376682D01*
X180786623Y-118377645D01*
G37*
%TD.AperFunction*%
%TD*%
%TA.AperFunction,Conductor*%
%TO.N,Net-(O3C--)*%
G36*
X169044872Y-95979759D02*
G01*
X169629849Y-96511765D01*
X169633664Y-96519867D01*
X169631964Y-96526517D01*
X169240421Y-97167996D01*
X169233185Y-97173272D01*
X169230434Y-97173600D01*
X168843566Y-97173600D01*
X168835293Y-97170173D01*
X168833579Y-97167996D01*
X168442035Y-96526517D01*
X168440650Y-96517670D01*
X168444149Y-96511765D01*
X169029128Y-95979758D01*
X169037554Y-95976728D01*
X169044872Y-95979759D01*
G37*
%TD.AperFunction*%
%TD*%
%TA.AperFunction,Conductor*%
%TO.N,Net-(O3C--)*%
G36*
X170150817Y-99416716D02*
G01*
X170533485Y-99602271D01*
X170723217Y-99694272D01*
X171231615Y-99940793D01*
X171237564Y-99947487D01*
X171237326Y-99955783D01*
X170996062Y-100540596D01*
X170989739Y-100546937D01*
X170987661Y-100547582D01*
X170302351Y-100692155D01*
X170293549Y-100690510D01*
X170289200Y-100685359D01*
X170229502Y-100547582D01*
X169863645Y-99703224D01*
X169863502Y-99694272D01*
X169866107Y-99690303D01*
X170137440Y-99418970D01*
X170145712Y-99415544D01*
X170150817Y-99416716D01*
G37*
%TD.AperFunction*%
%TD*%
%TA.AperFunction,Conductor*%
%TO.N,Net-(O3C--)*%
G36*
X171692106Y-100433134D02*
G01*
X171696295Y-100438683D01*
X171946526Y-101134919D01*
X172097373Y-101554629D01*
X172096947Y-101563573D01*
X172090320Y-101569596D01*
X172086363Y-101570286D01*
X171705428Y-101570286D01*
X171700771Y-101569319D01*
X170734964Y-101150309D01*
X170728739Y-101143873D01*
X170728888Y-101134919D01*
X170728899Y-101134891D01*
X170990430Y-100550343D01*
X170996936Y-100544193D01*
X170999202Y-100543580D01*
X171683388Y-100431095D01*
X171692106Y-100433134D01*
G37*
%TD.AperFunction*%
%TD*%
%TA.AperFunction,Conductor*%
%TO.N,Net-(O3C--)*%
G36*
X173223919Y-109664427D02*
G01*
X173227059Y-109670125D01*
X173312872Y-110050452D01*
X173312581Y-110056660D01*
X173036122Y-110902953D01*
X173030295Y-110909753D01*
X173021367Y-110910442D01*
X173014567Y-110904615D01*
X173013878Y-110902953D01*
X172954516Y-110721235D01*
X172737417Y-110056657D01*
X172737127Y-110050454D01*
X172822941Y-109670124D01*
X172828105Y-109662809D01*
X172834354Y-109661000D01*
X173215646Y-109661000D01*
X173223919Y-109664427D01*
G37*
%TD.AperFunction*%
%TD*%
%TA.AperFunction,Conductor*%
%TO.N,Net-(O3D--)*%
G36*
X166923662Y-106313017D02*
G01*
X166931049Y-106318078D01*
X166932062Y-106320003D01*
X167173326Y-106904816D01*
X167173313Y-106913771D01*
X167167615Y-106919806D01*
X166086817Y-107443883D01*
X166077878Y-107444409D01*
X166073439Y-107441628D01*
X165802109Y-107170298D01*
X165798682Y-107162025D01*
X165799645Y-107157377D01*
X166225201Y-106175238D01*
X166231634Y-106169012D01*
X166238348Y-106168444D01*
X166923662Y-106313017D01*
G37*
%TD.AperFunction*%
%TD*%
%TA.AperFunction,Conductor*%
%TO.N,Net-(O3D--)*%
G36*
X166936872Y-104257159D02*
G01*
X167521849Y-104789165D01*
X167525664Y-104797267D01*
X167523964Y-104803917D01*
X167132421Y-105445396D01*
X167125185Y-105450672D01*
X167122434Y-105451000D01*
X166735566Y-105451000D01*
X166727293Y-105447573D01*
X166725579Y-105445396D01*
X166334035Y-104803917D01*
X166332650Y-104795070D01*
X166336149Y-104789165D01*
X166921128Y-104257158D01*
X166929554Y-104254128D01*
X166936872Y-104257159D01*
G37*
%TD.AperFunction*%
%TD*%
%TA.AperFunction,Conductor*%
%TO.N,Net-(O3D--)*%
G36*
X167130707Y-105118427D02*
G01*
X167132421Y-105120604D01*
X167523964Y-105762081D01*
X167525349Y-105770928D01*
X167521849Y-105776833D01*
X166936872Y-106308840D01*
X166928446Y-106311871D01*
X166921128Y-106308840D01*
X166336150Y-105776833D01*
X166332335Y-105768731D01*
X166334034Y-105762082D01*
X166725579Y-105120603D01*
X166732815Y-105115328D01*
X166735566Y-105115000D01*
X167122434Y-105115000D01*
X167130707Y-105118427D01*
G37*
%TD.AperFunction*%
%TD*%
%TA.AperFunction,Conductor*%
%TO.N,Net-(O3D--)*%
G36*
X167935183Y-110932971D02*
G01*
X167942523Y-110938099D01*
X167944256Y-110945971D01*
X167813719Y-111907054D01*
X167810351Y-111913799D01*
X167587986Y-112133635D01*
X167579693Y-112137015D01*
X167571487Y-112133588D01*
X167302076Y-111864177D01*
X167298649Y-111855904D01*
X167299310Y-111852029D01*
X167641563Y-110878741D01*
X167647539Y-110872075D01*
X167655116Y-110871199D01*
X167935183Y-110932971D01*
G37*
%TD.AperFunction*%
%TD*%
%TA.AperFunction,Conductor*%
%TO.N,Net-(O5-Pad7)*%
G36*
X186180074Y-118210427D02*
G01*
X186182245Y-118213425D01*
X186556028Y-118953524D01*
X186556698Y-118962454D01*
X186553602Y-118967320D01*
X185987018Y-119500455D01*
X185978644Y-119503629D01*
X185970982Y-119500455D01*
X185404397Y-118967320D01*
X185400720Y-118959155D01*
X185401970Y-118953527D01*
X185775755Y-118213424D01*
X185782544Y-118207586D01*
X185786199Y-118207000D01*
X186171801Y-118207000D01*
X186180074Y-118210427D01*
G37*
%TD.AperFunction*%
%TD*%
%TA.AperFunction,Conductor*%
%TO.N,Net-(O5-Pad7)*%
G36*
X185989433Y-115917384D02*
G01*
X185990122Y-115919046D01*
X186266581Y-116765339D01*
X186266872Y-116771547D01*
X186181059Y-117151875D01*
X186175895Y-117159191D01*
X186169646Y-117161000D01*
X185788354Y-117161000D01*
X185780081Y-117157573D01*
X185776941Y-117151875D01*
X185691127Y-116771547D01*
X185691417Y-116765342D01*
X185967878Y-115919045D01*
X185973705Y-115912246D01*
X185982633Y-115911557D01*
X185989433Y-115917384D01*
G37*
%TD.AperFunction*%
%TD*%
%TA.AperFunction,Conductor*%
%TO.N,Net-(O5-Pad7)*%
G36*
X186531917Y-118912034D02*
G01*
X187173396Y-119303579D01*
X187178672Y-119310815D01*
X187179000Y-119313566D01*
X187179000Y-119700433D01*
X187175573Y-119708706D01*
X187173396Y-119710420D01*
X186531918Y-120101964D01*
X186523071Y-120103349D01*
X186517166Y-120099849D01*
X185985159Y-119514872D01*
X185982128Y-119506446D01*
X185985159Y-119499128D01*
X186156420Y-119310815D01*
X186517166Y-118914149D01*
X186525268Y-118910335D01*
X186531917Y-118912034D01*
G37*
%TD.AperFunction*%
%TD*%
%TA.AperFunction,Conductor*%
%TO.N,Net-(O5-Pad7)*%
G36*
X187742833Y-118914150D02*
G01*
X188274840Y-119499128D01*
X188277871Y-119507554D01*
X188274840Y-119514872D01*
X187742833Y-120099849D01*
X187734731Y-120103664D01*
X187728081Y-120101964D01*
X187086604Y-119710420D01*
X187081328Y-119703184D01*
X187081000Y-119700433D01*
X187081000Y-119313566D01*
X187084427Y-119305293D01*
X187086601Y-119303580D01*
X187728082Y-118912034D01*
X187736928Y-118910650D01*
X187742833Y-118914150D01*
G37*
%TD.AperFunction*%
%TD*%
%TA.AperFunction,Conductor*%
%TO.N,Net-(O5C--)*%
G36*
X184912383Y-109951578D02*
G01*
X184960319Y-110000126D01*
X184960320Y-110000127D01*
X184963694Y-110008421D01*
X184963276Y-110011446D01*
X184720282Y-110895934D01*
X184714786Y-110903004D01*
X184705901Y-110904117D01*
X184698831Y-110898621D01*
X184697718Y-110895934D01*
X184454723Y-110011446D01*
X184455836Y-110002561D01*
X184457675Y-110000131D01*
X184505565Y-109951630D01*
X184513815Y-109948152D01*
X184904111Y-109948152D01*
X184912383Y-109951578D01*
G37*
%TD.AperFunction*%
%TD*%
%TA.AperFunction,Conductor*%
%TO.N,Net-(O5C--)*%
G36*
X176858074Y-93124944D02*
G01*
X176860245Y-93127942D01*
X177234028Y-93868041D01*
X177234698Y-93876971D01*
X177231602Y-93881837D01*
X176665018Y-94414972D01*
X176656644Y-94418146D01*
X176648982Y-94414972D01*
X176082397Y-93881837D01*
X176078720Y-93873672D01*
X176079970Y-93868044D01*
X176453755Y-93127941D01*
X176460544Y-93122103D01*
X176464199Y-93121517D01*
X176849801Y-93121517D01*
X176858074Y-93124944D01*
G37*
%TD.AperFunction*%
%TD*%
%TA.AperFunction,Conductor*%
%TO.N,Net-(O5C--)*%
G36*
X177651662Y-90847534D02*
G01*
X177659049Y-90852595D01*
X177660062Y-90854520D01*
X177901326Y-91439333D01*
X177901313Y-91448288D01*
X177895615Y-91454323D01*
X176814817Y-91978400D01*
X176805878Y-91978926D01*
X176801439Y-91976145D01*
X176530109Y-91704815D01*
X176526682Y-91696542D01*
X176527645Y-91691894D01*
X176953201Y-90709755D01*
X176959634Y-90703529D01*
X176966348Y-90702961D01*
X177651662Y-90847534D01*
G37*
%TD.AperFunction*%
%TD*%
%TA.AperFunction,Conductor*%
%TO.N,Net-(O5C--)*%
G36*
X184643987Y-109618294D02*
G01*
X184645881Y-109620777D01*
X184837704Y-109957573D01*
X184839135Y-109964908D01*
X184710959Y-110927300D01*
X184706470Y-110935048D01*
X184700242Y-110937422D01*
X184420965Y-110958521D01*
X184412458Y-110955727D01*
X184408417Y-110947735D01*
X184408402Y-110947495D01*
X184355705Y-109895474D01*
X184358713Y-109887042D01*
X184359096Y-109886639D01*
X184627442Y-109618293D01*
X184635714Y-109614867D01*
X184643987Y-109618294D01*
G37*
%TD.AperFunction*%
%TD*%
%TA.AperFunction,Conductor*%
%TO.N,Net-(O5C--)*%
G36*
X176157058Y-103317682D02*
G01*
X176163376Y-103324029D01*
X176163641Y-103324738D01*
X176303824Y-103740528D01*
X176378257Y-103961298D01*
X176377653Y-103970232D01*
X176375443Y-103973309D01*
X176105364Y-104243388D01*
X176097091Y-104246815D01*
X176089512Y-104244028D01*
X175516895Y-103757021D01*
X175512813Y-103749050D01*
X175515562Y-103740528D01*
X175516165Y-103739873D01*
X175787731Y-103466945D01*
X175791571Y-103464378D01*
X176148105Y-103317661D01*
X176157058Y-103317682D01*
G37*
%TD.AperFunction*%
%TD*%
%TA.AperFunction,Conductor*%
%TO.N,Net-(O5D--)*%
G36*
X174557487Y-98096273D02*
G01*
X174558512Y-98097444D01*
X174874635Y-98511348D01*
X174876933Y-98520003D01*
X174873625Y-98526709D01*
X174601437Y-98799860D01*
X174593170Y-98803301D01*
X174593120Y-98803301D01*
X174208981Y-98802341D01*
X174200716Y-98798893D01*
X174197331Y-98791349D01*
X174180362Y-98511348D01*
X174155752Y-98105254D01*
X174158673Y-98096788D01*
X174166723Y-98092867D01*
X174167431Y-98092846D01*
X174549214Y-98092846D01*
X174557487Y-98096273D01*
G37*
%TD.AperFunction*%
%TD*%
%TA.AperFunction,Conductor*%
%TO.N,Net-(O5D--)*%
G36*
X174363016Y-94428060D02*
G01*
X174888873Y-94922871D01*
X174929602Y-94961196D01*
X174933279Y-94969361D01*
X174932028Y-94974991D01*
X174558245Y-95715091D01*
X174551456Y-95720931D01*
X174547801Y-95721517D01*
X174162199Y-95721517D01*
X174153926Y-95718090D01*
X174151755Y-95715092D01*
X173777970Y-94974991D01*
X173777301Y-94966062D01*
X173780395Y-94961198D01*
X174346983Y-94428060D01*
X174355356Y-94424887D01*
X174363016Y-94428060D01*
G37*
%TD.AperFunction*%
%TD*%
%TA.AperFunction,Conductor*%
%TO.N,Net-(O5D--)*%
G36*
X174959630Y-104520710D02*
G01*
X174965233Y-104525611D01*
X175292681Y-105086640D01*
X175293891Y-105095513D01*
X175290849Y-105100811D01*
X175020774Y-105370886D01*
X175012501Y-105374313D01*
X175006589Y-105372709D01*
X174446252Y-105044578D01*
X174440844Y-105037440D01*
X174441344Y-105030030D01*
X174587983Y-104673687D01*
X174594299Y-104667342D01*
X174950676Y-104520689D01*
X174959630Y-104520710D01*
G37*
%TD.AperFunction*%
%TD*%
%TA.AperFunction,Conductor*%
%TO.N,Net-(O5D--)*%
G36*
X174363016Y-89856060D02*
G01*
X174888873Y-90350871D01*
X174929602Y-90389196D01*
X174933279Y-90397361D01*
X174932028Y-90402991D01*
X174558245Y-91143091D01*
X174551456Y-91148931D01*
X174547801Y-91149517D01*
X174162199Y-91149517D01*
X174153926Y-91146090D01*
X174151755Y-91143092D01*
X173777970Y-90402991D01*
X173777301Y-90394062D01*
X173780395Y-90389198D01*
X174346983Y-89856060D01*
X174355356Y-89852887D01*
X174363016Y-89856060D01*
G37*
%TD.AperFunction*%
%TD*%
%TA.AperFunction,Conductor*%
%TO.N,Net-(O5D--)*%
G36*
X174556074Y-93124944D02*
G01*
X174558245Y-93127942D01*
X174932028Y-93868041D01*
X174932698Y-93876971D01*
X174929602Y-93881837D01*
X174363018Y-94414972D01*
X174354644Y-94418146D01*
X174346982Y-94414972D01*
X173780397Y-93881837D01*
X173776720Y-93873672D01*
X173777970Y-93868044D01*
X174151755Y-93127941D01*
X174158544Y-93122103D01*
X174162199Y-93121517D01*
X174547801Y-93121517D01*
X174556074Y-93124944D01*
G37*
%TD.AperFunction*%
%TD*%
%TA.AperFunction,Conductor*%
%TO.N,Net-(O5D--)*%
G36*
X179739648Y-109546995D02*
G01*
X179742464Y-109551538D01*
X179903831Y-110031251D01*
X179903932Y-110038397D01*
X179640503Y-110901338D01*
X179634810Y-110908250D01*
X179625897Y-110909112D01*
X179618985Y-110903419D01*
X179618197Y-110901572D01*
X179341876Y-110058048D01*
X179342435Y-110049369D01*
X179452741Y-109818301D01*
X179455023Y-109815074D01*
X179723103Y-109546994D01*
X179731375Y-109543568D01*
X179739648Y-109546995D01*
G37*
%TD.AperFunction*%
%TD*%
%TA.AperFunction,Conductor*%
%TO.N,GP22*%
G36*
X178315721Y-82936443D02*
G01*
X178957653Y-83404913D01*
X178962315Y-83412557D01*
X178960973Y-83420063D01*
X178792453Y-83722134D01*
X178790508Y-83724707D01*
X178097811Y-84417404D01*
X178089538Y-84420831D01*
X178081265Y-84417404D01*
X178078472Y-84412928D01*
X177772187Y-83520075D01*
X177772744Y-83511139D01*
X177774647Y-83508356D01*
X178300222Y-82937966D01*
X178308347Y-82934205D01*
X178315721Y-82936443D01*
G37*
%TD.AperFunction*%
%TD*%
%TA.AperFunction,Conductor*%
%TO.N,GP22*%
G36*
X182333924Y-84802438D02*
G01*
X182338817Y-84809938D01*
X182339017Y-84812079D01*
X182340000Y-85598000D01*
X182339017Y-86383920D01*
X182335580Y-86392188D01*
X182327302Y-86395605D01*
X182325161Y-86395405D01*
X180748544Y-86099789D01*
X180741044Y-86094896D01*
X180739000Y-86088289D01*
X180739000Y-85107710D01*
X180742427Y-85099437D01*
X180748542Y-85096210D01*
X182325163Y-84800594D01*
X182333924Y-84802438D01*
G37*
%TD.AperFunction*%
%TD*%
%TA.AperFunction,Conductor*%
%TO.N,GP21*%
G36*
X183986585Y-90003349D02*
G01*
X184556317Y-90521611D01*
X184560131Y-90529713D01*
X184557971Y-90537057D01*
X184096593Y-91184355D01*
X184089001Y-91189103D01*
X184082432Y-91188307D01*
X183370066Y-90881047D01*
X183363827Y-90874624D01*
X183363000Y-90870304D01*
X183363000Y-90483707D01*
X183366427Y-90475434D01*
X183367494Y-90474490D01*
X183971513Y-90002782D01*
X183980140Y-90000392D01*
X183986585Y-90003349D01*
G37*
%TD.AperFunction*%
%TD*%
%TA.AperFunction,Conductor*%
%TO.N,GP21*%
G36*
X182655946Y-89943396D02*
G01*
X182655956Y-89943400D01*
X183931800Y-90475000D01*
X183938119Y-90481345D01*
X183939000Y-90485800D01*
X183939000Y-90870199D01*
X183935573Y-90878472D01*
X183931800Y-90880999D01*
X182655956Y-91412599D01*
X182647001Y-91412618D01*
X182640657Y-91406300D01*
X182339864Y-90682487D01*
X182339854Y-90673538D01*
X182640653Y-89949708D01*
X182646991Y-89943385D01*
X182655946Y-89943396D01*
G37*
%TD.AperFunction*%
%TD*%
%TA.AperFunction,Conductor*%
%TO.N,GP20*%
G36*
X183970585Y-92543349D02*
G01*
X184540317Y-93061611D01*
X184544131Y-93069713D01*
X184541971Y-93077057D01*
X184080593Y-93724355D01*
X184073001Y-93729103D01*
X184066432Y-93728307D01*
X183354066Y-93421047D01*
X183347827Y-93414624D01*
X183347000Y-93410304D01*
X183347000Y-93023707D01*
X183350427Y-93015434D01*
X183351494Y-93014490D01*
X183955513Y-92542782D01*
X183964140Y-92540392D01*
X183970585Y-92543349D01*
G37*
%TD.AperFunction*%
%TD*%
%TA.AperFunction,Conductor*%
%TO.N,GP20*%
G36*
X182655946Y-92483396D02*
G01*
X182655956Y-92483400D01*
X183931800Y-93015000D01*
X183938119Y-93021345D01*
X183939000Y-93025800D01*
X183939000Y-93410199D01*
X183935573Y-93418472D01*
X183931800Y-93420999D01*
X182655956Y-93952599D01*
X182647001Y-93952618D01*
X182640657Y-93946300D01*
X182339864Y-93222487D01*
X182339854Y-93213538D01*
X182640653Y-92489708D01*
X182646991Y-92483385D01*
X182655946Y-92483396D01*
G37*
%TD.AperFunction*%
%TD*%
%TA.AperFunction,Conductor*%
%TO.N,GP16*%
G36*
X184008833Y-105429750D02*
G01*
X184540840Y-106014728D01*
X184543871Y-106023154D01*
X184540840Y-106030472D01*
X184008833Y-106615449D01*
X184000731Y-106619264D01*
X183994081Y-106617564D01*
X183352604Y-106226020D01*
X183347328Y-106218784D01*
X183347000Y-106216033D01*
X183347000Y-105829166D01*
X183350427Y-105820893D01*
X183352601Y-105819180D01*
X183994082Y-105427634D01*
X184002928Y-105426250D01*
X184008833Y-105429750D01*
G37*
%TD.AperFunction*%
%TD*%
%TA.AperFunction,Conductor*%
%TO.N,GP16*%
G36*
X182655604Y-105184219D02*
G01*
X182656383Y-105184577D01*
X183911773Y-105819353D01*
X183917610Y-105826144D01*
X183918194Y-105829794D01*
X183918194Y-106214230D01*
X183914767Y-106222503D01*
X183910273Y-106225303D01*
X182655522Y-106653562D01*
X182646586Y-106652991D01*
X182640939Y-106646979D01*
X182339864Y-105922487D01*
X182339854Y-105913538D01*
X182640311Y-105190531D01*
X182646649Y-105184208D01*
X182655604Y-105184219D01*
G37*
%TD.AperFunction*%
%TD*%
%TA.AperFunction,Conductor*%
%TO.N,GP17*%
G36*
X183960534Y-102629213D02*
G01*
X184539724Y-103094945D01*
X184544024Y-103102800D01*
X184542175Y-103110480D01*
X184105983Y-103775473D01*
X184098580Y-103780511D01*
X184093138Y-103780348D01*
X183355638Y-103580342D01*
X183348550Y-103574869D01*
X183347000Y-103569050D01*
X183347000Y-103183148D01*
X183350427Y-103174875D01*
X183350795Y-103174522D01*
X183945298Y-102629704D01*
X183953712Y-102626642D01*
X183960534Y-102629213D01*
G37*
%TD.AperFunction*%
%TD*%
%TA.AperFunction,Conductor*%
%TO.N,GP17*%
G36*
X182655946Y-102643396D02*
G01*
X182655956Y-102643400D01*
X183931800Y-103175000D01*
X183938119Y-103181345D01*
X183939000Y-103185800D01*
X183939000Y-103570199D01*
X183935573Y-103578472D01*
X183931800Y-103580999D01*
X182655956Y-104112599D01*
X182647001Y-104112618D01*
X182640657Y-104106300D01*
X182339864Y-103382487D01*
X182339854Y-103373538D01*
X182640653Y-102649708D01*
X182646991Y-102643385D01*
X182655946Y-102643396D01*
G37*
%TD.AperFunction*%
%TD*%
%TA.AperFunction,Conductor*%
%TO.N,GP18*%
G36*
X184054455Y-97764361D02*
G01*
X184541553Y-98394263D01*
X184543903Y-98402904D01*
X184540379Y-98409880D01*
X183977312Y-98947778D01*
X183968963Y-98951015D01*
X183962316Y-98948756D01*
X183351786Y-98501506D01*
X183347137Y-98493853D01*
X183347000Y-98492068D01*
X183347000Y-98105320D01*
X183350427Y-98097047D01*
X183353581Y-98094799D01*
X184040083Y-97760995D01*
X184049022Y-97760460D01*
X184054455Y-97764361D01*
G37*
%TD.AperFunction*%
%TD*%
%TA.AperFunction,Conductor*%
%TO.N,GP18*%
G36*
X182655946Y-97563396D02*
G01*
X182655956Y-97563400D01*
X183931800Y-98095000D01*
X183938119Y-98101345D01*
X183939000Y-98105800D01*
X183939000Y-98490199D01*
X183935573Y-98498472D01*
X183931800Y-98500999D01*
X182655956Y-99032599D01*
X182647001Y-99032618D01*
X182640657Y-99026300D01*
X182339864Y-98302487D01*
X182339854Y-98293538D01*
X182640653Y-97569708D01*
X182646991Y-97563385D01*
X182655946Y-97563396D01*
G37*
%TD.AperFunction*%
%TD*%
%TA.AperFunction,Conductor*%
%TO.N,GP19*%
G36*
X183970585Y-95083349D02*
G01*
X184540317Y-95601611D01*
X184544131Y-95609713D01*
X184541971Y-95617057D01*
X184080593Y-96264355D01*
X184073001Y-96269103D01*
X184066432Y-96268307D01*
X183354066Y-95961047D01*
X183347827Y-95954624D01*
X183347000Y-95950304D01*
X183347000Y-95563707D01*
X183350427Y-95555434D01*
X183351494Y-95554490D01*
X183955513Y-95082782D01*
X183964140Y-95080392D01*
X183970585Y-95083349D01*
G37*
%TD.AperFunction*%
%TD*%
%TA.AperFunction,Conductor*%
%TO.N,GP19*%
G36*
X182655946Y-95023396D02*
G01*
X182655956Y-95023400D01*
X183931800Y-95555000D01*
X183938119Y-95561345D01*
X183939000Y-95565800D01*
X183939000Y-95950199D01*
X183935573Y-95958472D01*
X183931800Y-95960999D01*
X182655956Y-96492599D01*
X182647001Y-96492618D01*
X182640657Y-96486300D01*
X182339864Y-95762487D01*
X182339854Y-95753538D01*
X182640653Y-95029708D01*
X182646991Y-95023385D01*
X182655946Y-95023396D01*
G37*
%TD.AperFunction*%
%TD*%
%TA.AperFunction,Conductor*%
%TO.N,Net-(R20-Pad2)*%
G36*
X106723920Y-73411608D02*
G01*
X108071560Y-74311526D01*
X108076538Y-74318970D01*
X108076117Y-74325089D01*
X107723806Y-75341206D01*
X107717858Y-75347900D01*
X107717336Y-75348138D01*
X106719943Y-75772876D01*
X106710989Y-75772964D01*
X106706253Y-75769458D01*
X105661881Y-74475121D01*
X105659353Y-74466531D01*
X105662713Y-74459502D01*
X106709151Y-73413064D01*
X106717423Y-73409638D01*
X106723920Y-73411608D01*
G37*
%TD.AperFunction*%
%TD*%
%TA.AperFunction,Conductor*%
%TO.N,Net-(O3B-+)*%
G36*
X171953919Y-114614427D02*
G01*
X171957059Y-114620125D01*
X172042872Y-115000452D01*
X172042581Y-115006660D01*
X171766122Y-115852953D01*
X171760295Y-115859753D01*
X171751367Y-115860442D01*
X171744567Y-115854615D01*
X171743878Y-115852953D01*
X171684516Y-115671235D01*
X171467417Y-115006657D01*
X171467127Y-115000454D01*
X171552941Y-114620124D01*
X171558105Y-114612809D01*
X171564354Y-114611000D01*
X171945646Y-114611000D01*
X171953919Y-114614427D01*
G37*
%TD.AperFunction*%
%TD*%
%TA.AperFunction,Conductor*%
%TO.N,Net-(O3B-+)*%
G36*
X187099917Y-92473634D02*
G01*
X187741396Y-92865179D01*
X187746672Y-92872415D01*
X187747000Y-92875166D01*
X187747000Y-93262033D01*
X187743573Y-93270306D01*
X187741396Y-93272020D01*
X187099918Y-93663564D01*
X187091071Y-93664949D01*
X187085166Y-93661449D01*
X186553159Y-93076472D01*
X186550128Y-93068046D01*
X186553159Y-93060728D01*
X186724420Y-92872415D01*
X187085166Y-92475749D01*
X187093268Y-92471935D01*
X187099917Y-92473634D01*
G37*
%TD.AperFunction*%
%TD*%
%TA.AperFunction,Conductor*%
%TO.N,Net-(O3B-+)*%
G36*
X185957183Y-92824273D02*
G01*
X186541996Y-93065537D01*
X186548337Y-93071860D01*
X186548982Y-93073938D01*
X186693555Y-93759248D01*
X186691910Y-93768050D01*
X186686759Y-93772399D01*
X185704626Y-94197953D01*
X185695672Y-94198097D01*
X185691701Y-94195490D01*
X185420371Y-93924160D01*
X185416944Y-93915887D01*
X185418116Y-93910782D01*
X185487060Y-93768600D01*
X185942194Y-92829982D01*
X185948887Y-92824035D01*
X185957183Y-92824273D01*
G37*
%TD.AperFunction*%
%TD*%
%TA.AperFunction,Conductor*%
%TO.N,CJD*%
G36*
X83805869Y-58383427D02*
G01*
X83809216Y-58390333D01*
X83907338Y-59224373D01*
X83904901Y-59232990D01*
X83903996Y-59234008D01*
X83066278Y-60072712D01*
X83058007Y-60076144D01*
X83049732Y-60072722D01*
X83049722Y-60072712D01*
X82212003Y-59234008D01*
X82208581Y-59225733D01*
X82208660Y-59224390D01*
X82306784Y-58390332D01*
X82311154Y-58382517D01*
X82318404Y-58380000D01*
X83797596Y-58380000D01*
X83805869Y-58383427D01*
G37*
%TD.AperFunction*%
%TD*%
%TA.AperFunction,Conductor*%
%TO.N,CJD*%
G36*
X165068196Y-59308623D02*
G01*
X165904708Y-59744521D01*
X165910460Y-59751382D01*
X165911000Y-59754896D01*
X165911000Y-60738244D01*
X165907573Y-60746517D01*
X165901636Y-60749708D01*
X165067157Y-60919745D01*
X165058366Y-60918039D01*
X165056557Y-60916562D01*
X164218727Y-60079717D01*
X164215296Y-60071447D01*
X164218718Y-60063172D01*
X164219140Y-60062771D01*
X165054967Y-59310304D01*
X165063406Y-59307316D01*
X165068196Y-59308623D01*
G37*
%TD.AperFunction*%
%TD*%
%TA.AperFunction,Conductor*%
%TO.N,CK1*%
G36*
X176812717Y-72014441D02*
G01*
X176815762Y-72019748D01*
X176980444Y-72648093D01*
X176979226Y-72656964D01*
X176973628Y-72661858D01*
X176617975Y-72810137D01*
X176609021Y-72810158D01*
X176608971Y-72810137D01*
X176253317Y-72661858D01*
X176246999Y-72655511D01*
X176246501Y-72648096D01*
X176411184Y-72019748D01*
X176416597Y-72012614D01*
X176422502Y-72011014D01*
X176804444Y-72011014D01*
X176812717Y-72014441D01*
G37*
%TD.AperFunction*%
%TD*%
%TA.AperFunction,Conductor*%
%TO.N,CK1*%
G36*
X164547045Y-64370284D02*
G01*
X165903884Y-64947970D01*
X165910153Y-64954363D01*
X165911000Y-64958734D01*
X165911000Y-65343265D01*
X165907573Y-65351538D01*
X165903883Y-65354030D01*
X164547140Y-65931674D01*
X164538186Y-65931762D01*
X164531792Y-65925492D01*
X164531752Y-65925398D01*
X164289883Y-65343265D01*
X164211864Y-65155488D01*
X164211856Y-65146534D01*
X164211865Y-65146511D01*
X164293097Y-64951000D01*
X164531753Y-64376599D01*
X164538091Y-64370276D01*
X164547045Y-64370284D01*
G37*
%TD.AperFunction*%
%TD*%
%TA.AperFunction,Conductor*%
%TO.N,CK1*%
G36*
X83070345Y-64310726D02*
G01*
X84746987Y-64409352D01*
X84755045Y-64413259D01*
X84758000Y-64421032D01*
X84758000Y-65898967D01*
X84754573Y-65907240D01*
X84746987Y-65910647D01*
X83070372Y-66009272D01*
X83061912Y-66006337D01*
X83058005Y-65998279D01*
X83057985Y-65997606D01*
X83057000Y-65160000D01*
X83057869Y-64421032D01*
X83057985Y-64322391D01*
X83061422Y-64314124D01*
X83069699Y-64310707D01*
X83070345Y-64310726D01*
G37*
%TD.AperFunction*%
%TD*%
%TA.AperFunction,Conductor*%
%TO.N,CK1*%
G36*
X111362262Y-52597588D02*
G01*
X112180522Y-52937507D01*
X112186848Y-52943846D01*
X112187014Y-52952352D01*
X111523254Y-54756145D01*
X111517181Y-54762726D01*
X111508234Y-54763085D01*
X111504001Y-54760378D01*
X110459718Y-53716095D01*
X110456291Y-53707823D01*
X110459367Y-52609056D01*
X110462817Y-52600794D01*
X110471055Y-52597390D01*
X111357772Y-52596694D01*
X111362262Y-52597588D01*
G37*
%TD.AperFunction*%
%TD*%
%TA.AperFunction,Conductor*%
%TO.N,CK2*%
G36*
X175249926Y-71258462D02*
G01*
X175739227Y-71544544D01*
X175810684Y-71586323D01*
X175816097Y-71593457D01*
X175815599Y-71600875D01*
X175668963Y-71957209D01*
X175662645Y-71963556D01*
X175662595Y-71963577D01*
X175306261Y-72110213D01*
X175297307Y-72110192D01*
X175291709Y-72105298D01*
X175205125Y-71957209D01*
X174963848Y-71544541D01*
X174962631Y-71535673D01*
X174965674Y-71530368D01*
X175235753Y-71260289D01*
X175244025Y-71256863D01*
X175249926Y-71258462D01*
G37*
%TD.AperFunction*%
%TD*%
%TA.AperFunction,Conductor*%
%TO.N,CK2*%
G36*
X164547045Y-66910284D02*
G01*
X165903884Y-67487970D01*
X165910153Y-67494363D01*
X165911000Y-67498734D01*
X165911000Y-67883265D01*
X165907573Y-67891538D01*
X165903883Y-67894030D01*
X164547140Y-68471674D01*
X164538186Y-68471762D01*
X164531792Y-68465492D01*
X164531752Y-68465398D01*
X164289883Y-67883265D01*
X164211864Y-67695488D01*
X164211856Y-67686534D01*
X164211865Y-67686511D01*
X164293097Y-67491000D01*
X164531753Y-66916599D01*
X164538091Y-66910276D01*
X164547045Y-66910284D01*
G37*
%TD.AperFunction*%
%TD*%
%TA.AperFunction,Conductor*%
%TO.N,CJ1*%
G36*
X83393691Y-87240140D02*
G01*
X83394575Y-87240552D01*
X85024840Y-88085023D01*
X85030609Y-88091870D01*
X85029847Y-88100792D01*
X85027731Y-88103684D01*
X83983212Y-89148203D01*
X83974939Y-89151630D01*
X83971793Y-89151199D01*
X82745420Y-88808843D01*
X82738373Y-88803318D01*
X82737297Y-88794428D01*
X82737748Y-88793119D01*
X83057293Y-88019293D01*
X83378397Y-87246455D01*
X83384736Y-87240131D01*
X83393691Y-87240140D01*
G37*
%TD.AperFunction*%
%TD*%
%TA.AperFunction,Conductor*%
%TO.N,CJ1*%
G36*
X166685433Y-115917384D02*
G01*
X166686122Y-115919046D01*
X166962581Y-116765339D01*
X166962872Y-116771547D01*
X166877059Y-117151875D01*
X166871895Y-117159191D01*
X166865646Y-117161000D01*
X166484354Y-117161000D01*
X166476081Y-117157573D01*
X166472941Y-117151875D01*
X166387127Y-116771547D01*
X166387417Y-116765342D01*
X166663878Y-115919045D01*
X166669705Y-115912246D01*
X166678633Y-115911557D01*
X166685433Y-115917384D01*
G37*
%TD.AperFunction*%
%TD*%
%TA.AperFunction,Conductor*%
%TO.N,CJ1*%
G36*
X166876209Y-118210427D02*
G01*
X166878288Y-118213249D01*
X167107649Y-118649083D01*
X167267826Y-118953455D01*
X167268646Y-118962372D01*
X167265490Y-118967425D01*
X166699018Y-119500455D01*
X166690644Y-119503629D01*
X166682982Y-119500455D01*
X166116284Y-118967214D01*
X166112607Y-118959049D01*
X166113769Y-118953600D01*
X166471805Y-118213604D01*
X166478493Y-118207649D01*
X166482337Y-118207000D01*
X166867936Y-118207000D01*
X166876209Y-118210427D01*
G37*
%TD.AperFunction*%
%TD*%
%TA.AperFunction,Conductor*%
%TO.N,CJ1*%
G36*
X164994343Y-87690233D02*
G01*
X165000668Y-87696572D01*
X165000707Y-87696667D01*
X165551613Y-89064485D01*
X165551525Y-89073439D01*
X165549033Y-89077129D01*
X165277129Y-89349033D01*
X165268856Y-89352460D01*
X165264485Y-89351613D01*
X163896667Y-88800707D01*
X163890273Y-88794437D01*
X163890185Y-88785483D01*
X163890224Y-88785388D01*
X164208438Y-88014783D01*
X164214759Y-88008448D01*
X164985388Y-87690224D01*
X164994343Y-87690233D01*
G37*
%TD.AperFunction*%
%TD*%
%TA.AperFunction,Conductor*%
%TO.N,CJ1*%
G36*
X166299765Y-99846698D02*
G01*
X166323497Y-99860830D01*
X166695384Y-100082274D01*
X166700739Y-100089451D01*
X166700212Y-100096794D01*
X166552858Y-100453500D01*
X166546532Y-100459838D01*
X166546496Y-100459853D01*
X166192645Y-100605465D01*
X166183691Y-100605444D01*
X166177373Y-100599097D01*
X166177245Y-100598770D01*
X165902867Y-99860830D01*
X165903195Y-99851881D01*
X165909755Y-99845786D01*
X165913833Y-99845052D01*
X166293780Y-99845052D01*
X166299765Y-99846698D01*
G37*
%TD.AperFunction*%
%TD*%
%TA.AperFunction,Conductor*%
%TO.N,CJ2*%
G36*
X174595377Y-115765285D02*
G01*
X174600390Y-115769282D01*
X174942792Y-116248645D01*
X174944812Y-116257368D01*
X174941544Y-116263718D01*
X174665710Y-116539553D01*
X174607374Y-116597888D01*
X174599101Y-116601315D01*
X174590828Y-116597888D01*
X174588295Y-116594100D01*
X174298789Y-115896134D01*
X174298785Y-115887181D01*
X174305112Y-115880847D01*
X174586423Y-115765260D01*
X174595377Y-115765285D01*
G37*
%TD.AperFunction*%
%TD*%
%TA.AperFunction,Conductor*%
%TO.N,CJ2*%
G36*
X176941324Y-118247770D02*
G01*
X177641475Y-118801190D01*
X177645841Y-118809009D01*
X177644763Y-118815441D01*
X177314184Y-119502557D01*
X177307509Y-119508527D01*
X177306123Y-119508919D01*
X176724418Y-119635218D01*
X176715607Y-119633624D01*
X176710502Y-119626266D01*
X176710253Y-119624420D01*
X176650599Y-118529372D01*
X176653571Y-118520925D01*
X176653990Y-118520482D01*
X176925797Y-118248675D01*
X176934069Y-118245249D01*
X176941324Y-118247770D01*
G37*
%TD.AperFunction*%
%TD*%
%TA.AperFunction,Conductor*%
%TO.N,CJ2*%
G36*
X83394233Y-84698815D02*
G01*
X85106262Y-85341791D01*
X85112802Y-85347908D01*
X85113101Y-85356858D01*
X85110421Y-85361017D01*
X84066416Y-86405022D01*
X84058143Y-86408449D01*
X84057228Y-86408413D01*
X83068776Y-86330845D01*
X83060796Y-86326782D01*
X83057991Y-86319191D01*
X83057294Y-85481628D01*
X83058188Y-85477138D01*
X83378944Y-84705139D01*
X83385283Y-84698815D01*
X83393862Y-84698676D01*
X83394233Y-84698815D01*
G37*
%TD.AperFunction*%
%TD*%
%TA.AperFunction,Conductor*%
%TO.N,CJ2*%
G36*
X175532781Y-114710332D02*
G01*
X175533297Y-114711411D01*
X175681184Y-115066121D01*
X175682085Y-115070644D01*
X175681407Y-115455282D01*
X175677966Y-115463549D01*
X175669686Y-115466961D01*
X175667841Y-115466811D01*
X175094084Y-115374095D01*
X175087677Y-115370818D01*
X174818588Y-115101729D01*
X174815161Y-115093456D01*
X174818588Y-115085183D01*
X174821272Y-115083178D01*
X175516920Y-114705629D01*
X175525823Y-114704695D01*
X175532781Y-114710332D01*
G37*
%TD.AperFunction*%
%TD*%
%TA.AperFunction,Conductor*%
%TO.N,CJ2*%
G36*
X164994343Y-85150233D02*
G01*
X165000668Y-85156572D01*
X165000707Y-85156667D01*
X165551613Y-86524485D01*
X165551525Y-86533439D01*
X165549033Y-86537129D01*
X165277129Y-86809033D01*
X165268856Y-86812460D01*
X165264485Y-86811613D01*
X163896667Y-86260707D01*
X163890273Y-86254437D01*
X163890185Y-86245483D01*
X163890224Y-86245388D01*
X164208438Y-85474783D01*
X164214759Y-85468448D01*
X164985388Y-85150224D01*
X164994343Y-85150233D01*
G37*
%TD.AperFunction*%
%TD*%
%TA.AperFunction,Conductor*%
%TO.N,CJ2*%
G36*
X169303512Y-104863905D02*
G01*
X169306018Y-104867628D01*
X169563503Y-105477578D01*
X169563563Y-105486532D01*
X169557274Y-105492907D01*
X169557226Y-105492927D01*
X169200697Y-105641571D01*
X169196166Y-105642472D01*
X168811858Y-105641511D01*
X168803593Y-105638063D01*
X168800187Y-105629782D01*
X168800290Y-105628260D01*
X168819250Y-105486532D01*
X168901642Y-104870626D01*
X168906136Y-104862881D01*
X168913239Y-104860478D01*
X169295239Y-104860478D01*
X169303512Y-104863905D01*
G37*
%TD.AperFunction*%
%TD*%
%TA.AperFunction,Conductor*%
%TO.N,CJ2*%
G36*
X174603584Y-115171577D02*
G01*
X174607374Y-115174111D01*
X174941544Y-115508281D01*
X174944971Y-115516554D01*
X174942792Y-115523354D01*
X174600390Y-116002717D01*
X174592792Y-116007458D01*
X174586422Y-116006739D01*
X174305150Y-115891168D01*
X174298800Y-115884854D01*
X174298775Y-115875901D01*
X174588296Y-115177898D01*
X174594629Y-115171572D01*
X174603584Y-115171577D01*
G37*
%TD.AperFunction*%
%TD*%
%TA.AperFunction,Conductor*%
%TO.N,CJ3*%
G36*
X186127870Y-108436215D02*
G01*
X186482496Y-108582146D01*
X186488843Y-108588464D01*
X186488858Y-108588499D01*
X186635838Y-108944302D01*
X186635829Y-108953257D01*
X186630063Y-108959328D01*
X186181391Y-109173439D01*
X186176352Y-109174580D01*
X185797190Y-109174580D01*
X185788917Y-109171153D01*
X185785490Y-109162880D01*
X185786543Y-109158028D01*
X185883944Y-108944302D01*
X186112774Y-108442183D01*
X186119323Y-108436077D01*
X186127870Y-108436215D01*
G37*
%TD.AperFunction*%
%TD*%
%TA.AperFunction,Conductor*%
%TO.N,CJ3*%
G36*
X85187599Y-82599264D02*
G01*
X85194811Y-82604569D01*
X85196159Y-82613422D01*
X85193072Y-82618896D01*
X84149968Y-83662000D01*
X84143030Y-83665351D01*
X83071024Y-83788503D01*
X83062414Y-83786042D01*
X83058065Y-83778214D01*
X83057989Y-83776889D01*
X83057896Y-83664886D01*
X83057294Y-82941628D01*
X83058188Y-82937138D01*
X83379429Y-82163972D01*
X83385766Y-82157650D01*
X83393030Y-82157104D01*
X85187599Y-82599264D01*
G37*
%TD.AperFunction*%
%TD*%
%TA.AperFunction,Conductor*%
%TO.N,CJ3*%
G36*
X178856006Y-95581783D02*
G01*
X178859122Y-95587378D01*
X179006000Y-96211988D01*
X179004558Y-96220826D01*
X178999113Y-96225465D01*
X178643222Y-96373843D01*
X178634268Y-96373864D01*
X178634218Y-96373843D01*
X178278831Y-96225675D01*
X178272513Y-96219328D01*
X178272102Y-96211597D01*
X178454541Y-95586777D01*
X178460149Y-95579796D01*
X178465772Y-95578356D01*
X178847733Y-95578356D01*
X178856006Y-95581783D01*
G37*
%TD.AperFunction*%
%TD*%
%TA.AperFunction,Conductor*%
%TO.N,CJ3*%
G36*
X178665016Y-94428060D02*
G01*
X179190873Y-94922871D01*
X179231602Y-94961196D01*
X179235279Y-94969361D01*
X179234028Y-94974991D01*
X178860245Y-95715091D01*
X178853456Y-95720931D01*
X178849801Y-95721517D01*
X178464199Y-95721517D01*
X178455926Y-95718090D01*
X178453755Y-95715092D01*
X178079970Y-94974991D01*
X178079301Y-94966062D01*
X178082395Y-94961198D01*
X178648983Y-94428060D01*
X178657356Y-94424887D01*
X178665016Y-94428060D01*
G37*
%TD.AperFunction*%
%TD*%
%TA.AperFunction,Conductor*%
%TO.N,CJ3*%
G36*
X186177919Y-109664427D02*
G01*
X186181059Y-109670125D01*
X186266872Y-110050452D01*
X186266581Y-110056660D01*
X185990122Y-110902953D01*
X185984295Y-110909753D01*
X185975367Y-110910442D01*
X185968567Y-110904615D01*
X185967878Y-110902953D01*
X185908516Y-110721235D01*
X185691417Y-110056657D01*
X185691127Y-110050454D01*
X185776941Y-109670124D01*
X185782105Y-109662809D01*
X185788354Y-109661000D01*
X186169646Y-109661000D01*
X186177919Y-109664427D01*
G37*
%TD.AperFunction*%
%TD*%
%TA.AperFunction,Conductor*%
%TO.N,CJ4*%
G36*
X167124061Y-109706981D02*
G01*
X167127488Y-109715254D01*
X167127402Y-109716669D01*
X166976387Y-110956182D01*
X166971985Y-110963980D01*
X166963587Y-110966407D01*
X166684429Y-110937960D01*
X166676546Y-110933712D01*
X166673983Y-110927575D01*
X166570121Y-109964995D01*
X166571804Y-109957583D01*
X166725570Y-109709097D01*
X166732837Y-109703865D01*
X166735519Y-109703554D01*
X167115788Y-109703554D01*
X167124061Y-109706981D01*
G37*
%TD.AperFunction*%
%TD*%
%TA.AperFunction,Conductor*%
%TO.N,CJ4*%
G36*
X166936872Y-108321159D02*
G01*
X167521849Y-108853165D01*
X167525664Y-108861267D01*
X167523964Y-108867917D01*
X167132421Y-109509396D01*
X167125185Y-109514672D01*
X167122434Y-109515000D01*
X166735566Y-109515000D01*
X166727293Y-109511573D01*
X166725579Y-109509396D01*
X166334035Y-108867917D01*
X166332650Y-108859070D01*
X166336149Y-108853165D01*
X166921128Y-108321158D01*
X166929554Y-108318128D01*
X166936872Y-108321159D01*
G37*
%TD.AperFunction*%
%TD*%
%TA.AperFunction,Conductor*%
%TO.N,CJ4*%
G36*
X164994343Y-80070233D02*
G01*
X165000668Y-80076572D01*
X165000707Y-80076667D01*
X165551613Y-81444485D01*
X165551525Y-81453439D01*
X165549033Y-81457129D01*
X165277129Y-81729033D01*
X165268856Y-81732460D01*
X165264485Y-81731613D01*
X163896667Y-81180707D01*
X163890273Y-81174437D01*
X163890185Y-81165483D01*
X163890224Y-81165388D01*
X164208438Y-80394783D01*
X164214759Y-80388448D01*
X164985388Y-80070224D01*
X164994343Y-80070233D01*
G37*
%TD.AperFunction*%
%TD*%
%TA.AperFunction,Conductor*%
%TO.N,CJ4*%
G36*
X168298950Y-108219246D02*
G01*
X168303844Y-108224844D01*
X168452123Y-108580498D01*
X168452144Y-108589452D01*
X168452123Y-108589502D01*
X168303844Y-108945155D01*
X168297497Y-108951473D01*
X168290079Y-108951971D01*
X167661734Y-108787289D01*
X167654600Y-108781876D01*
X167653000Y-108775971D01*
X167653000Y-108394028D01*
X167656427Y-108385755D01*
X167661731Y-108382711D01*
X168290081Y-108218028D01*
X168298950Y-108219246D01*
G37*
%TD.AperFunction*%
%TD*%
%TA.AperFunction,Conductor*%
%TO.N,CJ4*%
G36*
X167597094Y-107845577D02*
G01*
X168224896Y-108381497D01*
X168228964Y-108389474D01*
X168229000Y-108390395D01*
X168229000Y-108774952D01*
X168225573Y-108783225D01*
X168219069Y-108786518D01*
X167385917Y-108913942D01*
X167377221Y-108911805D01*
X167374795Y-108909406D01*
X167279949Y-108783225D01*
X166935184Y-108324558D01*
X166932954Y-108315887D01*
X166937508Y-108308176D01*
X166937659Y-108308064D01*
X167582678Y-107844972D01*
X167591395Y-107842932D01*
X167597094Y-107845577D01*
G37*
%TD.AperFunction*%
%TD*%
%TA.AperFunction,Conductor*%
%TO.N,CJ4*%
G36*
X167996244Y-96102412D02*
G01*
X167999289Y-96107719D01*
X168163971Y-96736064D01*
X168162753Y-96744935D01*
X168157155Y-96749829D01*
X167801502Y-96898108D01*
X167792548Y-96898129D01*
X167792498Y-96898108D01*
X167436844Y-96749829D01*
X167430526Y-96743482D01*
X167430028Y-96736067D01*
X167594711Y-96107719D01*
X167600124Y-96100585D01*
X167606029Y-96098985D01*
X167987971Y-96098985D01*
X167996244Y-96102412D01*
G37*
%TD.AperFunction*%
%TD*%
%TA.AperFunction,Conductor*%
%TO.N,CJ4*%
G36*
X83070345Y-79550726D02*
G01*
X84746987Y-79649352D01*
X84755045Y-79653259D01*
X84758000Y-79661032D01*
X84758000Y-81138967D01*
X84754573Y-81147240D01*
X84746987Y-81150647D01*
X83070372Y-81249272D01*
X83061912Y-81246337D01*
X83058005Y-81238279D01*
X83057985Y-81237606D01*
X83057000Y-80400000D01*
X83057869Y-79661032D01*
X83057985Y-79562391D01*
X83061422Y-79554124D01*
X83069699Y-79550707D01*
X83070345Y-79550726D01*
G37*
%TD.AperFunction*%
%TD*%
%TA.AperFunction,Conductor*%
%TO.N,CJ5*%
G36*
X164994343Y-77530233D02*
G01*
X165000668Y-77536572D01*
X165000707Y-77536667D01*
X165551613Y-78904485D01*
X165551525Y-78913439D01*
X165549033Y-78917129D01*
X165277129Y-79189033D01*
X165268856Y-79192460D01*
X165264485Y-79191613D01*
X163896667Y-78640707D01*
X163890273Y-78634437D01*
X163890185Y-78625483D01*
X163890224Y-78625388D01*
X164208438Y-77854783D01*
X164214759Y-77848448D01*
X164985388Y-77530224D01*
X164994343Y-77530233D01*
G37*
%TD.AperFunction*%
%TD*%
%TA.AperFunction,Conductor*%
%TO.N,CJ5*%
G36*
X171201851Y-97949027D02*
G01*
X171205278Y-97957300D01*
X171204581Y-97961277D01*
X170995048Y-98540932D01*
X170989013Y-98547548D01*
X170987196Y-98548223D01*
X170304357Y-98739208D01*
X170295467Y-98738136D01*
X170289938Y-98731091D01*
X170289914Y-98731001D01*
X170081002Y-97960361D01*
X170082144Y-97951480D01*
X170089233Y-97946008D01*
X170092294Y-97945600D01*
X171193578Y-97945600D01*
X171201851Y-97949027D01*
G37*
%TD.AperFunction*%
%TD*%
%TA.AperFunction,Conductor*%
%TO.N,CJ5*%
G36*
X174493919Y-109664427D02*
G01*
X174497059Y-109670125D01*
X174582872Y-110050452D01*
X174582581Y-110056660D01*
X174306122Y-110902953D01*
X174300295Y-110909753D01*
X174291367Y-110910442D01*
X174284567Y-110904615D01*
X174283878Y-110902953D01*
X174224516Y-110721235D01*
X174007417Y-110056657D01*
X174007127Y-110050454D01*
X174092941Y-109670124D01*
X174098105Y-109662809D01*
X174104354Y-109661000D01*
X174485646Y-109661000D01*
X174493919Y-109664427D01*
G37*
%TD.AperFunction*%
%TD*%
%TA.AperFunction,Conductor*%
%TO.N,CJ6*%
G36*
X178320649Y-109607408D02*
G01*
X178322676Y-109610130D01*
X178510230Y-109958149D01*
X178511490Y-109965507D01*
X178361159Y-110927415D01*
X178356495Y-110935059D01*
X178350320Y-110937286D01*
X178071116Y-110954522D01*
X178062647Y-110951611D01*
X178058717Y-110943565D01*
X178058700Y-110943175D01*
X178032500Y-109884149D01*
X178035721Y-109875795D01*
X178035882Y-109875629D01*
X178304104Y-109607407D01*
X178312376Y-109603981D01*
X178320649Y-109607408D01*
G37*
%TD.AperFunction*%
%TD*%
%TA.AperFunction,Conductor*%
%TO.N,CJ6*%
G36*
X173820244Y-98390427D02*
G01*
X173823289Y-98395734D01*
X173953723Y-98893411D01*
X173953872Y-98894190D01*
X173959008Y-98936480D01*
X173961759Y-98959132D01*
X173961760Y-98959134D01*
X173986166Y-99023490D01*
X173985895Y-99032441D01*
X173979728Y-99038438D01*
X173625501Y-99186123D01*
X173616548Y-99186143D01*
X173434236Y-99110134D01*
X173260844Y-99037844D01*
X173254526Y-99031497D01*
X173254028Y-99024082D01*
X173418711Y-98395734D01*
X173424124Y-98388600D01*
X173430029Y-98387000D01*
X173811971Y-98387000D01*
X173820244Y-98390427D01*
G37*
%TD.AperFunction*%
%TD*%
%TA.AperFunction,Conductor*%
%TO.N,CJ6*%
G36*
X171512623Y-93292162D02*
G01*
X172494759Y-93717717D01*
X172500987Y-93724151D01*
X172501555Y-93730868D01*
X172356982Y-94416178D01*
X172351921Y-94423566D01*
X172349996Y-94424579D01*
X171765183Y-94665843D01*
X171756228Y-94665830D01*
X171750193Y-94660132D01*
X171226116Y-93579334D01*
X171225590Y-93570395D01*
X171228369Y-93565958D01*
X171499702Y-93294625D01*
X171507974Y-93291199D01*
X171512623Y-93292162D01*
G37*
%TD.AperFunction*%
%TD*%
%TA.AperFunction,Conductor*%
%TO.N,CJ6*%
G36*
X172953771Y-94177203D02*
G01*
X172959806Y-94182901D01*
X173483883Y-95263699D01*
X173484409Y-95272638D01*
X173481628Y-95277077D01*
X173210298Y-95548407D01*
X173202025Y-95551834D01*
X173197373Y-95550870D01*
X172215240Y-95125316D01*
X172209012Y-95118882D01*
X172208444Y-95112168D01*
X172353018Y-94426853D01*
X172358078Y-94419467D01*
X172359999Y-94418455D01*
X172944816Y-94177190D01*
X172953771Y-94177203D01*
G37*
%TD.AperFunction*%
%TD*%
%TA.AperFunction,Conductor*%
%TO.N,CJ6*%
G36*
X164994343Y-74990233D02*
G01*
X165000668Y-74996572D01*
X165000707Y-74996667D01*
X165551613Y-76364485D01*
X165551525Y-76373439D01*
X165549033Y-76377129D01*
X165277129Y-76649033D01*
X165268856Y-76652460D01*
X165264485Y-76651613D01*
X163896667Y-76100707D01*
X163890273Y-76094437D01*
X163890185Y-76085483D01*
X163890224Y-76085388D01*
X164208438Y-75314783D01*
X164214759Y-75308448D01*
X164985388Y-74990224D01*
X164994343Y-74990233D01*
G37*
%TD.AperFunction*%
%TD*%
%TA.AperFunction,Conductor*%
%TO.N,CJ6*%
G36*
X174087149Y-105132796D02*
G01*
X174092747Y-105137690D01*
X174420607Y-105698445D01*
X174421825Y-105707315D01*
X174418780Y-105712622D01*
X174148704Y-105982698D01*
X174140431Y-105986125D01*
X174134527Y-105984525D01*
X173658561Y-105706239D01*
X173573772Y-105656665D01*
X173568359Y-105649531D01*
X173568856Y-105642115D01*
X173715494Y-105285777D01*
X173721810Y-105279432D01*
X174078197Y-105132775D01*
X174087149Y-105132796D01*
G37*
%TD.AperFunction*%
%TD*%
%TA.AperFunction,Conductor*%
%TO.N,CJA*%
G36*
X83071881Y-61772655D02*
G01*
X84705335Y-62085182D01*
X84712816Y-62090103D01*
X84714836Y-62096674D01*
X84714836Y-63574444D01*
X84711409Y-63582717D01*
X84703136Y-63586144D01*
X84702312Y-63586115D01*
X83068863Y-63470767D01*
X83060852Y-63466766D01*
X83057987Y-63459110D01*
X83057000Y-62620000D01*
X83057983Y-61784133D01*
X83061420Y-61775865D01*
X83069697Y-61772448D01*
X83071881Y-61772655D01*
G37*
%TD.AperFunction*%
%TD*%
%TA.AperFunction,Conductor*%
%TO.N,CJA*%
G36*
X180867803Y-71452924D02*
G01*
X180873113Y-71460135D01*
X180873454Y-71462939D01*
X180873454Y-71843852D01*
X180870842Y-71851221D01*
X180516599Y-72288070D01*
X180508726Y-72292338D01*
X180500142Y-72289789D01*
X180499258Y-72288994D01*
X180226257Y-72016955D01*
X180223696Y-72013119D01*
X180157074Y-71851221D01*
X180077685Y-71658297D01*
X180077706Y-71649346D01*
X180084053Y-71643028D01*
X180085695Y-71642490D01*
X180858952Y-71451580D01*
X180867803Y-71452924D01*
G37*
%TD.AperFunction*%
%TD*%
%TA.AperFunction,Conductor*%
%TO.N,CJA*%
G36*
X184829977Y-114566296D02*
G01*
X184832256Y-114568071D01*
X185100610Y-114836425D01*
X185104037Y-114844698D01*
X185103991Y-114845733D01*
X185010041Y-115903497D01*
X185005896Y-115911435D01*
X184997352Y-115914116D01*
X184997283Y-115914110D01*
X184717873Y-115887615D01*
X184709960Y-115883422D01*
X184707335Y-115877132D01*
X184611119Y-114914840D01*
X184612712Y-114907684D01*
X184813935Y-114570349D01*
X184821116Y-114565001D01*
X184829977Y-114566296D01*
G37*
%TD.AperFunction*%
%TD*%
%TA.AperFunction,Conductor*%
%TO.N,CJA*%
G36*
X184902178Y-118411182D02*
G01*
X184905605Y-118419455D01*
X184905235Y-118422371D01*
X184711242Y-119175525D01*
X184582040Y-119677141D01*
X184576658Y-119684298D01*
X184567792Y-119685553D01*
X184567332Y-119685425D01*
X183984612Y-119509692D01*
X183977680Y-119504022D01*
X183976998Y-119502497D01*
X183727590Y-118816730D01*
X183727982Y-118807786D01*
X183733278Y-118802306D01*
X184506501Y-118409025D01*
X184511805Y-118407755D01*
X184893905Y-118407755D01*
X184902178Y-118411182D01*
G37*
%TD.AperFunction*%
%TD*%
%TA.AperFunction,Conductor*%
%TO.N,CJA*%
G36*
X184719433Y-115917384D02*
G01*
X184720122Y-115919046D01*
X184996581Y-116765339D01*
X184996872Y-116771547D01*
X184911059Y-117151875D01*
X184905895Y-117159191D01*
X184899646Y-117161000D01*
X184518354Y-117161000D01*
X184510081Y-117157573D01*
X184506941Y-117151875D01*
X184421127Y-116771547D01*
X184421417Y-116765342D01*
X184697878Y-115919045D01*
X184703705Y-115912246D01*
X184712633Y-115911557D01*
X184719433Y-115917384D01*
G37*
%TD.AperFunction*%
%TD*%
%TA.AperFunction,Conductor*%
%TO.N,CS2*%
G36*
X190926473Y-79035970D02*
G01*
X191666575Y-79409755D01*
X191672414Y-79416544D01*
X191673000Y-79420199D01*
X191673000Y-79805800D01*
X191669573Y-79814073D01*
X191666575Y-79816244D01*
X190926475Y-80190028D01*
X190917545Y-80190698D01*
X190912679Y-80187602D01*
X190561202Y-79814073D01*
X190379543Y-79621016D01*
X190376370Y-79612644D01*
X190379543Y-79604983D01*
X190912680Y-79038396D01*
X190920844Y-79034720D01*
X190926473Y-79035970D01*
G37*
%TD.AperFunction*%
%TD*%
%TA.AperFunction,Conductor*%
%TO.N,CS2*%
G36*
X164547045Y-71990284D02*
G01*
X165903884Y-72567970D01*
X165910153Y-72574363D01*
X165911000Y-72578734D01*
X165911000Y-72963265D01*
X165907573Y-72971538D01*
X165903883Y-72974030D01*
X164547140Y-73551674D01*
X164538186Y-73551762D01*
X164531792Y-73545492D01*
X164531752Y-73545398D01*
X164289883Y-72963265D01*
X164211864Y-72775488D01*
X164211856Y-72766534D01*
X164211865Y-72766511D01*
X164293097Y-72571000D01*
X164531753Y-71996599D01*
X164538091Y-71990276D01*
X164547045Y-71990284D01*
G37*
%TD.AperFunction*%
%TD*%
%TA.AperFunction,Conductor*%
%TO.N,CS2*%
G36*
X199390720Y-72596322D02*
G01*
X200115212Y-72895437D01*
X200121551Y-72901762D01*
X200121562Y-72901787D01*
X200420677Y-73626279D01*
X200420666Y-73635234D01*
X200414327Y-73641559D01*
X200414317Y-73641563D01*
X199136263Y-74167821D01*
X199127308Y-74167802D01*
X199123535Y-74165275D01*
X198851724Y-73893464D01*
X198848297Y-73885191D01*
X198849177Y-73880740D01*
X199375437Y-72602680D01*
X199381755Y-72596337D01*
X199390710Y-72596318D01*
X199390720Y-72596322D01*
G37*
%TD.AperFunction*%
%TD*%
%TA.AperFunction,Conductor*%
%TO.N,CS2*%
G36*
X193985858Y-78754827D02*
G01*
X193991849Y-78760436D01*
X194521451Y-79829311D01*
X194522053Y-79838245D01*
X194519240Y-79842778D01*
X194247907Y-80114111D01*
X194239634Y-80117538D01*
X194235082Y-80116616D01*
X193301971Y-79722514D01*
X193295683Y-79716138D01*
X193294944Y-79710060D01*
X193397837Y-78999888D01*
X193402415Y-78992193D01*
X193404950Y-78990752D01*
X193976903Y-78754814D01*
X193985858Y-78754827D01*
G37*
%TD.AperFunction*%
%TD*%
%TA.AperFunction,Conductor*%
%TO.N,CS2*%
G36*
X190896510Y-80196448D02*
G01*
X191385811Y-80482530D01*
X191457268Y-80524309D01*
X191462681Y-80531443D01*
X191462183Y-80538861D01*
X191315547Y-80895195D01*
X191309229Y-80901542D01*
X191309179Y-80901563D01*
X190952845Y-81048199D01*
X190943891Y-81048178D01*
X190938293Y-81043284D01*
X190851709Y-80895195D01*
X190610432Y-80482527D01*
X190609215Y-80473659D01*
X190612258Y-80468354D01*
X190882337Y-80198275D01*
X190890609Y-80194849D01*
X190896510Y-80196448D01*
G37*
%TD.AperFunction*%
%TD*%
%TA.AperFunction,Conductor*%
%TO.N,CS2*%
G36*
X191070718Y-79587146D02*
G01*
X191074391Y-79594228D01*
X191077534Y-79618184D01*
X191154328Y-80203578D01*
X191191919Y-80490124D01*
X191189597Y-80498773D01*
X191188591Y-80499919D01*
X190916568Y-80771942D01*
X190908295Y-80775369D01*
X190901862Y-80773442D01*
X190059437Y-80218876D01*
X190054411Y-80211464D01*
X190055556Y-80203580D01*
X190369138Y-79618182D01*
X190376063Y-79612510D01*
X190378965Y-79612020D01*
X191062312Y-79584060D01*
X191070718Y-79587146D01*
G37*
%TD.AperFunction*%
%TD*%
%TA.AperFunction,Conductor*%
%TO.N,CS2*%
G36*
X176106526Y-76401010D02*
G01*
X176595827Y-76687092D01*
X176667284Y-76728871D01*
X176672697Y-76736005D01*
X176672199Y-76743423D01*
X176525563Y-77099757D01*
X176519245Y-77106104D01*
X176519195Y-77106125D01*
X176162861Y-77252761D01*
X176153907Y-77252740D01*
X176148309Y-77247846D01*
X176061725Y-77099757D01*
X175820448Y-76687089D01*
X175819231Y-76678221D01*
X175822274Y-76672916D01*
X176092353Y-76402837D01*
X176100625Y-76399411D01*
X176106526Y-76401010D01*
G37*
%TD.AperFunction*%
%TD*%
%TA.AperFunction,Conductor*%
%TO.N,CS2*%
G36*
X83070345Y-71930726D02*
G01*
X84746987Y-72029352D01*
X84755045Y-72033259D01*
X84758000Y-72041032D01*
X84758000Y-73518967D01*
X84754573Y-73527240D01*
X84746987Y-73530647D01*
X83070372Y-73629272D01*
X83061912Y-73626337D01*
X83058005Y-73618279D01*
X83057985Y-73617606D01*
X83057000Y-72780000D01*
X83057869Y-72041032D01*
X83057985Y-71942391D01*
X83061422Y-71934124D01*
X83069699Y-71930707D01*
X83070345Y-71930726D01*
G37*
%TD.AperFunction*%
%TD*%
%TA.AperFunction,Conductor*%
%TO.N,CS2*%
G36*
X192821239Y-78651001D02*
G01*
X193393781Y-78990021D01*
X193399153Y-78997183D01*
X193399403Y-79001730D01*
X193298944Y-79709829D01*
X193294389Y-79717539D01*
X193288420Y-79719838D01*
X192276704Y-79811839D01*
X192268154Y-79809175D01*
X192263992Y-79801247D01*
X192263944Y-79800187D01*
X192263944Y-79416747D01*
X192266123Y-79409948D01*
X192805760Y-78654268D01*
X192813354Y-78649528D01*
X192821239Y-78651001D01*
G37*
%TD.AperFunction*%
%TD*%
%TA.AperFunction,Conductor*%
%TO.N,CS1*%
G36*
X83070345Y-69390726D02*
G01*
X84746987Y-69489352D01*
X84755045Y-69493259D01*
X84758000Y-69501032D01*
X84758000Y-70978967D01*
X84754573Y-70987240D01*
X84746987Y-70990647D01*
X83070372Y-71089272D01*
X83061912Y-71086337D01*
X83058005Y-71078279D01*
X83057985Y-71077606D01*
X83057000Y-70240000D01*
X83057869Y-69501032D01*
X83057985Y-69402391D01*
X83061422Y-69394124D01*
X83069699Y-69390707D01*
X83070345Y-69390726D01*
G37*
%TD.AperFunction*%
%TD*%
%TA.AperFunction,Conductor*%
%TO.N,CS1*%
G36*
X190926473Y-72590970D02*
G01*
X191666575Y-72964755D01*
X191672414Y-72971544D01*
X191673000Y-72975199D01*
X191673000Y-73360800D01*
X191669573Y-73369073D01*
X191666575Y-73371244D01*
X190926475Y-73745028D01*
X190917545Y-73745698D01*
X190912679Y-73742602D01*
X190561202Y-73369073D01*
X190379543Y-73176016D01*
X190376370Y-73167644D01*
X190379543Y-73159983D01*
X190912680Y-72593396D01*
X190920844Y-72589720D01*
X190926473Y-72590970D01*
G37*
%TD.AperFunction*%
%TD*%
%TA.AperFunction,Conductor*%
%TO.N,CS1*%
G36*
X199817343Y-69629700D02*
G01*
X199817347Y-69629710D01*
X200118134Y-70353510D01*
X200118144Y-70362463D01*
X200118135Y-70362485D01*
X200118134Y-70362490D01*
X199817347Y-71086289D01*
X199811008Y-71092614D01*
X199802053Y-71092603D01*
X199802043Y-71092599D01*
X198526200Y-70560999D01*
X198519881Y-70554654D01*
X198519000Y-70550199D01*
X198519000Y-70165800D01*
X198522427Y-70157527D01*
X198526200Y-70155000D01*
X199802043Y-69623400D01*
X199810998Y-69623381D01*
X199817343Y-69629700D01*
G37*
%TD.AperFunction*%
%TD*%
%TA.AperFunction,Conductor*%
%TO.N,CS1*%
G36*
X164547045Y-69450284D02*
G01*
X165903884Y-70027970D01*
X165910153Y-70034363D01*
X165911000Y-70038734D01*
X165911000Y-70423265D01*
X165907573Y-70431538D01*
X165903883Y-70434030D01*
X164547140Y-71011674D01*
X164538186Y-71011762D01*
X164531792Y-71005492D01*
X164531752Y-71005398D01*
X164289883Y-70423265D01*
X164211864Y-70235488D01*
X164211856Y-70226534D01*
X164211865Y-70226511D01*
X164293097Y-70031000D01*
X164531753Y-69456599D01*
X164538091Y-69450276D01*
X164547045Y-69450284D01*
G37*
%TD.AperFunction*%
%TD*%
%TA.AperFunction,Conductor*%
%TO.N,CS1*%
G36*
X194247907Y-71523888D02*
G01*
X194519240Y-71795221D01*
X194522667Y-71803494D01*
X194521451Y-71808688D01*
X193991849Y-72877563D01*
X193985105Y-72883455D01*
X193976903Y-72883185D01*
X193404954Y-72647248D01*
X193398613Y-72640925D01*
X193397837Y-72638110D01*
X193294945Y-71927941D01*
X193297150Y-71919262D01*
X193301972Y-71915485D01*
X194235083Y-71521382D01*
X194244036Y-71521321D01*
X194247907Y-71523888D01*
G37*
%TD.AperFunction*%
%TD*%
%TA.AperFunction,Conductor*%
%TO.N,CS1*%
G36*
X176010208Y-74816625D02*
G01*
X176662901Y-74978201D01*
X176670108Y-74983515D01*
X176671446Y-74992370D01*
X176670909Y-74994010D01*
X176524603Y-75349541D01*
X176522035Y-75353383D01*
X176248562Y-75625493D01*
X176240281Y-75628899D01*
X176232016Y-75625451D01*
X176231931Y-75625365D01*
X175964740Y-75349541D01*
X175728969Y-75106152D01*
X175725674Y-75097825D01*
X175729099Y-75089739D01*
X175999129Y-74819709D01*
X176007401Y-74816283D01*
X176010208Y-74816625D01*
G37*
%TD.AperFunction*%
%TD*%
%TA.AperFunction,Conductor*%
%TO.N,I2C_VCC*%
G36*
X191663859Y-74018799D02*
G01*
X192020195Y-74165436D01*
X192026542Y-74171754D01*
X192026563Y-74171804D01*
X192173199Y-74528138D01*
X192173178Y-74537092D01*
X192168284Y-74542690D01*
X191607530Y-74870550D01*
X191598659Y-74871768D01*
X191593352Y-74868723D01*
X191323276Y-74598647D01*
X191319849Y-74590374D01*
X191321447Y-74584473D01*
X191649310Y-74023713D01*
X191656443Y-74018302D01*
X191663859Y-74018799D01*
G37*
%TD.AperFunction*%
%TD*%
%TA.AperFunction,Conductor*%
%TO.N,I2C_VCC*%
G36*
X191359222Y-74556696D02*
G01*
X191359333Y-74556806D01*
X191631175Y-74828648D01*
X191634602Y-74836921D01*
X191631936Y-74844356D01*
X191077547Y-75517908D01*
X191069643Y-75522118D01*
X191063199Y-75520897D01*
X190377345Y-75171282D01*
X190371532Y-75164473D01*
X190371187Y-75163152D01*
X190255481Y-74581793D01*
X190257227Y-74573012D01*
X190264672Y-74568036D01*
X190266791Y-74567812D01*
X191350905Y-74553380D01*
X191359222Y-74556696D01*
G37*
%TD.AperFunction*%
%TD*%
%TA.AperFunction,Conductor*%
%TO.N,I2C_VCC*%
G36*
X191072528Y-74882698D02*
G01*
X191078140Y-74887604D01*
X191503373Y-75616267D01*
X191504968Y-75622163D01*
X191504968Y-76004810D01*
X191501541Y-76013083D01*
X191493268Y-76016510D01*
X191491039Y-76016296D01*
X190224202Y-75770388D01*
X190216733Y-75765447D01*
X190214945Y-75756673D01*
X190215123Y-75755900D01*
X190370508Y-75173590D01*
X190375951Y-75166482D01*
X190377333Y-75165799D01*
X191063573Y-74882685D01*
X191072528Y-74882698D01*
G37*
%TD.AperFunction*%
%TD*%
%TA.AperFunction,Conductor*%
%TO.N,I2C_VCC*%
G36*
X179508465Y-79827033D02*
G01*
X179511892Y-79835306D01*
X179510852Y-79840128D01*
X179011208Y-80944627D01*
X179004676Y-80950753D01*
X179000219Y-80951500D01*
X178314726Y-80932189D01*
X178306552Y-80928531D01*
X178304781Y-80926092D01*
X177984833Y-80338918D01*
X177983884Y-80330014D01*
X177987075Y-80324814D01*
X178514945Y-79826796D01*
X178522974Y-79823606D01*
X179500192Y-79823606D01*
X179508465Y-79827033D01*
G37*
%TD.AperFunction*%
%TD*%
%TA.AperFunction,Conductor*%
%TO.N,I2C_VCC*%
G36*
X192848865Y-75238436D02*
G01*
X193140690Y-75545565D01*
X193392842Y-75810941D01*
X193396056Y-75819299D01*
X193392842Y-75827059D01*
X192848867Y-76399562D01*
X192840684Y-76403199D01*
X192834168Y-76401415D01*
X192229983Y-76022439D01*
X192224795Y-76015139D01*
X192224500Y-76012527D01*
X192224500Y-75625472D01*
X192227927Y-75617199D01*
X192229978Y-75615563D01*
X192834170Y-75236583D01*
X192842997Y-75235091D01*
X192848865Y-75238436D01*
G37*
%TD.AperFunction*%
%TD*%
%TA.AperFunction,Conductor*%
%TO.N,I2C_VCC*%
G36*
X107877257Y-43042831D02*
G01*
X107882940Y-43048861D01*
X108203810Y-43821134D01*
X108204705Y-43825633D01*
X108204009Y-44662674D01*
X108200575Y-44670944D01*
X108192679Y-44674358D01*
X107185228Y-44706250D01*
X107176851Y-44703087D01*
X107176585Y-44702829D01*
X106132737Y-43658981D01*
X106129310Y-43650708D01*
X106132737Y-43642435D01*
X106137190Y-43639650D01*
X107868320Y-43042290D01*
X107877257Y-43042831D01*
G37*
%TD.AperFunction*%
%TD*%
%TA.AperFunction,Conductor*%
%TO.N,I2C_VCC*%
G36*
X88895093Y-50304012D02*
G01*
X89937904Y-51346823D01*
X89940980Y-51352251D01*
X90161686Y-52232798D01*
X90160373Y-52241656D01*
X90154819Y-52246450D01*
X89334098Y-52586812D01*
X89329607Y-52587705D01*
X88446830Y-52587011D01*
X88438559Y-52583578D01*
X88435139Y-52575302D01*
X88435353Y-52573085D01*
X88875336Y-50310050D01*
X88880278Y-50302585D01*
X88889053Y-50300800D01*
X88895093Y-50304012D01*
G37*
%TD.AperFunction*%
%TD*%
%TA.AperFunction,Conductor*%
%TO.N,I2C_VCC*%
G36*
X182031547Y-67082905D02*
G01*
X182036970Y-67088804D01*
X182337842Y-67812807D01*
X182337853Y-67821762D01*
X182337845Y-67821780D01*
X182036888Y-68547374D01*
X182030553Y-68553703D01*
X182022754Y-68554108D01*
X181145758Y-68293975D01*
X181140812Y-68291031D01*
X180449409Y-67599628D01*
X180445982Y-67591355D01*
X180449409Y-67583082D01*
X180454140Y-67580204D01*
X182022627Y-67082143D01*
X182031547Y-67082905D01*
G37*
%TD.AperFunction*%
%TD*%
%TA.AperFunction,Conductor*%
%TO.N,I2C_VCC*%
G36*
X190380872Y-75174159D02*
G01*
X190965849Y-75706165D01*
X190969664Y-75714267D01*
X190967964Y-75720917D01*
X190576421Y-76362396D01*
X190569185Y-76367672D01*
X190566434Y-76368000D01*
X190179566Y-76368000D01*
X190171293Y-76364573D01*
X190169579Y-76362396D01*
X189778035Y-75720917D01*
X189776650Y-75712070D01*
X189780149Y-75706165D01*
X190365128Y-75174158D01*
X190373554Y-75171128D01*
X190380872Y-75174159D01*
G37*
%TD.AperFunction*%
%TD*%
%TA.AperFunction,Conductor*%
%TO.N,I2C_VCC*%
G36*
X190574707Y-76416427D02*
G01*
X190576421Y-76418604D01*
X190967964Y-77060081D01*
X190969349Y-77068928D01*
X190965849Y-77074833D01*
X190380872Y-77606840D01*
X190372446Y-77609871D01*
X190365128Y-77606840D01*
X189780150Y-77074833D01*
X189776335Y-77066731D01*
X189778034Y-77060082D01*
X190169579Y-76418603D01*
X190176815Y-76413328D01*
X190179566Y-76413000D01*
X190566434Y-76413000D01*
X190574707Y-76416427D01*
G37*
%TD.AperFunction*%
%TD*%
%TA.AperFunction,Conductor*%
%TO.N,I2C_VCC*%
G36*
X192663484Y-31141263D02*
G01*
X193435365Y-31461969D01*
X193441690Y-31468308D01*
X193442332Y-31475151D01*
X193160935Y-32831077D01*
X193155898Y-32838482D01*
X193149479Y-32840400D01*
X192168521Y-32840400D01*
X192160248Y-32836973D01*
X192157065Y-32831077D01*
X191875667Y-31475151D01*
X191877341Y-31466355D01*
X191882631Y-31461970D01*
X192654511Y-31141264D01*
X192663466Y-31141256D01*
X192663484Y-31141263D01*
G37*
%TD.AperFunction*%
%TD*%
%TA.AperFunction,Conductor*%
%TO.N,I2C_VCC*%
G36*
X109606907Y-50800827D02*
G01*
X109610294Y-50808128D01*
X109758345Y-52584742D01*
X109755617Y-52593272D01*
X109747657Y-52597374D01*
X109746698Y-52597414D01*
X108859400Y-52598400D01*
X107972101Y-52597414D01*
X107963832Y-52593978D01*
X107960414Y-52585701D01*
X107960453Y-52584762D01*
X108108506Y-50808128D01*
X108112608Y-50800168D01*
X108120166Y-50797400D01*
X109598634Y-50797400D01*
X109606907Y-50800827D01*
G37*
%TD.AperFunction*%
%TD*%
%TA.AperFunction,Conductor*%
%TO.N,I2C_VCC*%
G36*
X198670245Y-46778310D02*
G01*
X198671121Y-46779100D01*
X199262049Y-47368639D01*
X199264600Y-47372456D01*
X199584073Y-48146109D01*
X199584064Y-48155064D01*
X199578361Y-48161104D01*
X198320223Y-48770743D01*
X198311283Y-48771267D01*
X198306848Y-48768487D01*
X197613096Y-48074735D01*
X197609669Y-48066462D01*
X197612295Y-48059076D01*
X198653787Y-46779994D01*
X198661666Y-46775744D01*
X198670245Y-46778310D01*
G37*
%TD.AperFunction*%
%TD*%
%TA.AperFunction,Conductor*%
%TO.N,TPH VCC {slash} CPC SDA*%
G36*
X117953687Y-39675662D02*
G01*
X117957594Y-39683720D01*
X117957614Y-39684393D01*
X117958600Y-40522000D01*
X117957614Y-41359606D01*
X117954177Y-41367875D01*
X117945900Y-41371292D01*
X117945227Y-41371272D01*
X116268613Y-41272647D01*
X116260555Y-41268740D01*
X116257600Y-41260967D01*
X116257600Y-39783032D01*
X116261027Y-39774759D01*
X116268612Y-39771352D01*
X117945229Y-39672727D01*
X117953687Y-39675662D01*
G37*
%TD.AperFunction*%
%TD*%
%TA.AperFunction,Conductor*%
%TO.N,TPH VCC {slash} CPC SDA*%
G36*
X109897360Y-39777967D02*
G01*
X109903338Y-39784635D01*
X109904000Y-39788516D01*
X109904000Y-41265710D01*
X109900573Y-41273983D01*
X109898754Y-41275469D01*
X109060380Y-41829947D01*
X109051589Y-41831652D01*
X109047575Y-41830013D01*
X108207074Y-41286634D01*
X108201988Y-41279266D01*
X108023463Y-40444067D01*
X108025085Y-40435261D01*
X108031022Y-40430585D01*
X109888420Y-39777478D01*
X109897360Y-39777967D01*
G37*
%TD.AperFunction*%
%TD*%
%TA.AperFunction,Conductor*%
%TO.N,TPH GND {slash} CPC SCL*%
G36*
X197743489Y-31141265D02*
G01*
X198513398Y-31461152D01*
X198519723Y-31467491D01*
X198519714Y-31476446D01*
X198519674Y-31476540D01*
X197942030Y-32833283D01*
X197935636Y-32839553D01*
X197931265Y-32840400D01*
X197546735Y-32840400D01*
X197538462Y-32836973D01*
X197535970Y-32833283D01*
X196958325Y-31476540D01*
X196958237Y-31467586D01*
X196964507Y-31461192D01*
X196964540Y-31461177D01*
X197734511Y-31141264D01*
X197743466Y-31141256D01*
X197743489Y-31141265D01*
G37*
%TD.AperFunction*%
%TD*%
%TA.AperFunction,Conductor*%
%TO.N,TPH GND {slash} CPC SCL*%
G36*
X196451939Y-41712474D02*
G01*
X196455629Y-41714966D01*
X196727533Y-41986870D01*
X196730960Y-41995143D01*
X196730113Y-41999514D01*
X196179207Y-43367332D01*
X196172937Y-43373726D01*
X196163983Y-43373814D01*
X196163888Y-43373775D01*
X195393285Y-43055562D01*
X195386947Y-43049238D01*
X195068724Y-42278611D01*
X195068733Y-42269656D01*
X195075072Y-42263331D01*
X195075095Y-42263321D01*
X196442986Y-41712386D01*
X196451939Y-41712474D01*
G37*
%TD.AperFunction*%
%TD*%
%TA.AperFunction,Conductor*%
%TO.N,TPH GND {slash} CPC SCL*%
G36*
X117953687Y-42215662D02*
G01*
X117957594Y-42223720D01*
X117957614Y-42224393D01*
X117958600Y-43062000D01*
X117957614Y-43899606D01*
X117954177Y-43907875D01*
X117945900Y-43911292D01*
X117945227Y-43911272D01*
X116268613Y-43812647D01*
X116260555Y-43808740D01*
X116257600Y-43800967D01*
X116257600Y-42323032D01*
X116261027Y-42314759D01*
X116268612Y-42311352D01*
X117945229Y-42212727D01*
X117953687Y-42215662D01*
G37*
%TD.AperFunction*%
%TD*%
%TA.AperFunction,Conductor*%
%TO.N,TPH GND {slash} CPC SCL*%
G36*
X114223845Y-42212726D02*
G01*
X115900487Y-42311352D01*
X115908545Y-42315259D01*
X115911500Y-42323032D01*
X115911500Y-43800967D01*
X115908073Y-43809240D01*
X115900487Y-43812647D01*
X114223872Y-43911272D01*
X114215412Y-43908337D01*
X114211505Y-43900279D01*
X114211485Y-43899606D01*
X114210500Y-43062000D01*
X114211369Y-42323032D01*
X114211485Y-42224391D01*
X114214922Y-42216124D01*
X114223199Y-42212707D01*
X114223845Y-42212726D01*
G37*
%TD.AperFunction*%
%TD*%
%TA.AperFunction,Conductor*%
%TO.N,TPH SDA {slash} CPC VCC*%
G36*
X108216345Y-45514726D02*
G01*
X109892987Y-45613352D01*
X109901045Y-45617259D01*
X109904000Y-45625032D01*
X109904000Y-47102967D01*
X109900573Y-47111240D01*
X109892987Y-47114647D01*
X108216372Y-47213272D01*
X108207912Y-47210337D01*
X108204005Y-47202279D01*
X108203985Y-47201606D01*
X108203000Y-46364000D01*
X108203869Y-45625032D01*
X108203985Y-45526391D01*
X108207422Y-45518124D01*
X108215699Y-45514707D01*
X108216345Y-45514726D01*
G37*
%TD.AperFunction*%
%TD*%
%TA.AperFunction,Conductor*%
%TO.N,TPH SDA {slash} CPC VCC*%
G36*
X194336012Y-44252385D02*
G01*
X195031098Y-44532340D01*
X195703832Y-44803292D01*
X195710226Y-44809562D01*
X195710314Y-44818516D01*
X195710275Y-44818611D01*
X195392062Y-45589214D01*
X195385737Y-45595553D01*
X195385714Y-45595562D01*
X194615111Y-45913775D01*
X194606156Y-45913766D01*
X194599831Y-45907427D01*
X194599792Y-45907332D01*
X194161258Y-44818516D01*
X194048886Y-44539512D01*
X194048974Y-44530560D01*
X194051463Y-44526873D01*
X194323371Y-44254965D01*
X194331643Y-44251539D01*
X194336012Y-44252385D01*
G37*
%TD.AperFunction*%
%TD*%
%TA.AperFunction,Conductor*%
%TO.N,TPH SDA {slash} CPC VCC*%
G36*
X117953525Y-44755752D02*
G01*
X117957579Y-44763736D01*
X117957614Y-44764624D01*
X117958600Y-45602000D01*
X117957614Y-46439828D01*
X117954177Y-46448097D01*
X117945900Y-46451514D01*
X117945438Y-46451504D01*
X116274990Y-46383457D01*
X116266863Y-46379697D01*
X116263766Y-46371767D01*
X116263766Y-44893829D01*
X116267193Y-44885556D01*
X116274561Y-44882165D01*
X117945013Y-44752973D01*
X117953525Y-44755752D01*
G37*
%TD.AperFunction*%
%TD*%
%TA.AperFunction,Conductor*%
%TO.N,TPH SDA {slash} CPC VCC*%
G36*
X195203489Y-31141265D02*
G01*
X195973398Y-31461152D01*
X195979723Y-31467491D01*
X195979714Y-31476446D01*
X195979674Y-31476540D01*
X195402030Y-32833283D01*
X195395636Y-32839553D01*
X195391265Y-32840400D01*
X195006735Y-32840400D01*
X194998462Y-32836973D01*
X194995970Y-32833283D01*
X194418325Y-31476540D01*
X194418237Y-31467586D01*
X194424507Y-31461192D01*
X194424540Y-31461177D01*
X195194511Y-31141264D01*
X195203466Y-31141256D01*
X195203489Y-31141265D01*
G37*
%TD.AperFunction*%
%TD*%
%TA.AperFunction,Conductor*%
%TO.N,TPH SCL {slash} CPC GND*%
G36*
X117110590Y-47295098D02*
G01*
X117111608Y-47296003D01*
X117950312Y-48133722D01*
X117953744Y-48141993D01*
X117950322Y-48150268D01*
X117950312Y-48150278D01*
X117111608Y-48987996D01*
X117103333Y-48991418D01*
X117101973Y-48991338D01*
X116267933Y-48893215D01*
X116260117Y-48888845D01*
X116257600Y-48881595D01*
X116257600Y-47402404D01*
X116261027Y-47394131D01*
X116267932Y-47390784D01*
X117101975Y-47292661D01*
X117110590Y-47295098D01*
G37*
%TD.AperFunction*%
%TD*%
%TA.AperFunction,Conductor*%
%TO.N,TPH SCL {slash} CPC GND*%
G36*
X115067111Y-47292660D02*
G01*
X115901167Y-47390784D01*
X115908983Y-47395154D01*
X115911500Y-47402404D01*
X115911500Y-48881595D01*
X115908073Y-48889868D01*
X115901167Y-48893215D01*
X115067126Y-48991338D01*
X115058509Y-48988901D01*
X115057491Y-48987996D01*
X114218786Y-48150276D01*
X114215355Y-48142007D01*
X114218776Y-48133733D01*
X115057493Y-47296002D01*
X115065766Y-47292581D01*
X115067111Y-47292660D01*
G37*
%TD.AperFunction*%
%TD*%
%TA.AperFunction,Conductor*%
%TO.N,I2C_GND*%
G36*
X186828231Y-41743927D02*
G01*
X186831595Y-41750984D01*
X186917340Y-42571688D01*
X186914791Y-42580273D01*
X186913068Y-42581995D01*
X186337865Y-43048032D01*
X186329280Y-43050577D01*
X186323135Y-43048032D01*
X185747931Y-42581995D01*
X185743660Y-42574124D01*
X185743659Y-42571688D01*
X185829405Y-41750984D01*
X185833673Y-41743112D01*
X185841042Y-41740500D01*
X186819958Y-41740500D01*
X186828231Y-41743927D01*
G37*
%TD.AperFunction*%
%TD*%
%TA.AperFunction,Conductor*%
%TO.N,I2C_GND*%
G36*
X182874381Y-117084889D02*
G01*
X183142677Y-117353185D01*
X183145534Y-117357850D01*
X183295222Y-117819655D01*
X183294513Y-117828582D01*
X183288580Y-117834068D01*
X182932789Y-117981839D01*
X182923834Y-117981848D01*
X182923799Y-117981833D01*
X182570083Y-117834361D01*
X182563765Y-117828014D01*
X182563719Y-117819225D01*
X182747867Y-117357850D01*
X182855242Y-117088823D01*
X182861491Y-117082411D01*
X182870445Y-117082296D01*
X182874381Y-117084889D01*
G37*
%TD.AperFunction*%
%TD*%
%TA.AperFunction,Conductor*%
%TO.N,I2C_GND*%
G36*
X180227771Y-119262686D02*
G01*
X180233806Y-119268384D01*
X180757883Y-120349182D01*
X180758409Y-120358121D01*
X180755628Y-120362560D01*
X180484298Y-120633890D01*
X180476025Y-120637317D01*
X180471373Y-120636353D01*
X179489240Y-120210799D01*
X179483012Y-120204365D01*
X179482444Y-120197651D01*
X179627018Y-119512336D01*
X179632078Y-119504950D01*
X179633999Y-119503938D01*
X180218816Y-119262673D01*
X180227771Y-119262686D01*
G37*
%TD.AperFunction*%
%TD*%
%TA.AperFunction,Conductor*%
%TO.N,I2C_GND*%
G36*
X182479158Y-47034435D02*
G01*
X183230932Y-47582813D01*
X183235596Y-47590457D01*
X183233489Y-47599160D01*
X183232310Y-47600538D01*
X182540109Y-48292739D01*
X182531836Y-48296166D01*
X182527895Y-48295482D01*
X181977054Y-48098443D01*
X181970419Y-48092430D01*
X181969376Y-48088799D01*
X181885692Y-47377932D01*
X181888128Y-47369317D01*
X181891448Y-47366441D01*
X182466403Y-47033759D01*
X182475280Y-47032583D01*
X182479158Y-47034435D01*
G37*
%TD.AperFunction*%
%TD*%
%TA.AperFunction,Conductor*%
%TO.N,I2C_GND*%
G36*
X169172193Y-92582972D02*
G01*
X169180456Y-92586420D01*
X169183828Y-92593775D01*
X169236031Y-93272518D01*
X169233248Y-93281029D01*
X169225262Y-93285081D01*
X169224365Y-93285115D01*
X168842609Y-93285115D01*
X168834336Y-93281688D01*
X168833488Y-93280743D01*
X168506718Y-92874009D01*
X168504208Y-92865413D01*
X168507550Y-92858423D01*
X168779559Y-92585452D01*
X168787824Y-92582012D01*
X169172193Y-92582972D01*
G37*
%TD.AperFunction*%
%TD*%
%TA.AperFunction,Conductor*%
%TO.N,I2C_GND*%
G36*
X169139788Y-92661096D02*
G01*
X169141404Y-92663117D01*
X169611531Y-93407261D01*
X169613053Y-93416086D01*
X169609767Y-93421927D01*
X169045362Y-93966914D01*
X169037030Y-93970195D01*
X169029624Y-93967383D01*
X168425640Y-93450039D01*
X168421586Y-93442054D01*
X168424347Y-93433564D01*
X168850620Y-92933740D01*
X168850899Y-92933439D01*
X169123243Y-92661095D01*
X169131515Y-92657669D01*
X169139788Y-92661096D01*
G37*
%TD.AperFunction*%
%TD*%
%TA.AperFunction,Conductor*%
%TO.N,I2C_GND*%
G36*
X186325449Y-43051407D02*
G01*
X186333105Y-43056052D01*
X186333970Y-43057420D01*
X186714127Y-43762835D01*
X186715035Y-43771744D01*
X186714244Y-43773714D01*
X186317314Y-44549797D01*
X186310495Y-44555602D01*
X186301569Y-44554886D01*
X186298624Y-44552742D01*
X185607093Y-43861211D01*
X185603666Y-43852938D01*
X185603806Y-43851139D01*
X185741195Y-42973325D01*
X185745860Y-42965683D01*
X185754532Y-42963572D01*
X186325449Y-43051407D01*
G37*
%TD.AperFunction*%
%TD*%
%TA.AperFunction,Conductor*%
%TO.N,I2C_GND*%
G36*
X176772092Y-87988821D02*
G01*
X176777690Y-87993715D01*
X177105550Y-88554470D01*
X177106768Y-88563340D01*
X177103723Y-88568647D01*
X176833647Y-88838723D01*
X176825374Y-88842150D01*
X176819470Y-88840550D01*
X176343504Y-88562264D01*
X176258715Y-88512690D01*
X176253302Y-88505556D01*
X176253799Y-88498140D01*
X176400437Y-88141802D01*
X176406753Y-88135457D01*
X176763140Y-87988800D01*
X176772092Y-87988821D01*
G37*
%TD.AperFunction*%
%TD*%
%TA.AperFunction,Conductor*%
%TO.N,I2C_GND*%
G36*
X176679718Y-88126922D02*
G01*
X177789245Y-88248073D01*
X177797096Y-88252378D01*
X177799605Y-88260974D01*
X177799348Y-88262445D01*
X177659055Y-88844627D01*
X177653786Y-88851867D01*
X177652451Y-88852570D01*
X176965525Y-89159263D01*
X176956573Y-89159506D01*
X176951396Y-89155601D01*
X176397406Y-88417275D01*
X176395182Y-88408601D01*
X176398491Y-88401981D01*
X176670192Y-88130280D01*
X176678464Y-88126854D01*
X176679718Y-88126922D01*
G37*
%TD.AperFunction*%
%TD*%
%TA.AperFunction,Conductor*%
%TO.N,I2C_GND*%
G36*
X173591771Y-119262686D02*
G01*
X173597806Y-119268384D01*
X174121883Y-120349182D01*
X174122409Y-120358121D01*
X174119628Y-120362560D01*
X173848298Y-120633890D01*
X173840025Y-120637317D01*
X173835373Y-120636353D01*
X172853240Y-120210799D01*
X172847012Y-120204365D01*
X172846444Y-120197651D01*
X172991018Y-119512336D01*
X172996078Y-119504950D01*
X172997999Y-119503938D01*
X173582816Y-119262673D01*
X173591771Y-119262686D01*
G37*
%TD.AperFunction*%
%TD*%
%TA.AperFunction,Conductor*%
%TO.N,I2C_GND*%
G36*
X171438092Y-88877821D02*
G01*
X171443690Y-88882715D01*
X171771550Y-89443470D01*
X171772768Y-89452340D01*
X171769723Y-89457647D01*
X171499647Y-89727723D01*
X171491374Y-89731150D01*
X171485470Y-89729550D01*
X171009504Y-89451264D01*
X170924715Y-89401690D01*
X170919302Y-89394556D01*
X170919799Y-89387140D01*
X171066437Y-89030802D01*
X171072753Y-89024457D01*
X171429140Y-88877800D01*
X171438092Y-88877821D01*
G37*
%TD.AperFunction*%
%TD*%
%TA.AperFunction,Conductor*%
%TO.N,I2C_GND*%
G36*
X172314269Y-89149488D02*
G01*
X172322533Y-89152936D01*
X172325928Y-89160683D01*
X172355404Y-89843216D01*
X172352337Y-89851629D01*
X172349668Y-89853793D01*
X171764142Y-90199876D01*
X171755277Y-90201136D01*
X171748738Y-90196701D01*
X171195218Y-89438246D01*
X171193109Y-89429543D01*
X171196394Y-89423078D01*
X171468719Y-89150753D01*
X171476989Y-89147327D01*
X172314269Y-89149488D01*
G37*
%TD.AperFunction*%
%TD*%
%TA.AperFunction,Conductor*%
%TO.N,I2C_GND*%
G36*
X177912865Y-35945967D02*
G01*
X178488068Y-36412004D01*
X178492339Y-36419875D01*
X178492340Y-36422311D01*
X178406595Y-37243016D01*
X178402327Y-37250888D01*
X178394958Y-37253500D01*
X177416042Y-37253500D01*
X177407769Y-37250073D01*
X177404405Y-37243016D01*
X177318659Y-36422311D01*
X177321208Y-36413726D01*
X177322926Y-36412008D01*
X177898135Y-35945966D01*
X177906720Y-35943422D01*
X177912865Y-35945967D01*
G37*
%TD.AperFunction*%
%TD*%
%TA.AperFunction,Conductor*%
%TO.N,I2C_GND*%
G36*
X178403231Y-41743927D02*
G01*
X178406595Y-41750984D01*
X178492340Y-42571688D01*
X178489791Y-42580273D01*
X178488068Y-42581995D01*
X177912865Y-43048032D01*
X177904280Y-43050577D01*
X177898135Y-43048032D01*
X177322931Y-42581995D01*
X177318660Y-42574124D01*
X177318659Y-42571688D01*
X177404405Y-41750984D01*
X177408673Y-41743112D01*
X177416042Y-41740500D01*
X178394958Y-41740500D01*
X178403231Y-41743927D01*
G37*
%TD.AperFunction*%
%TD*%
%TA.AperFunction,Conductor*%
%TO.N,I2C_GND*%
G36*
X164992377Y-90231044D02*
G01*
X164998702Y-90237383D01*
X164999310Y-90239316D01*
X165068510Y-90551655D01*
X165393847Y-92020093D01*
X165392291Y-92028912D01*
X165384955Y-92034047D01*
X165382424Y-92034324D01*
X164402241Y-92034324D01*
X164393968Y-92030897D01*
X164393510Y-92030412D01*
X163617309Y-91160280D01*
X163614359Y-91151826D01*
X163617759Y-91144227D01*
X164209349Y-90551653D01*
X164213158Y-90549108D01*
X164983424Y-90231035D01*
X164992377Y-90231044D01*
G37*
%TD.AperFunction*%
%TD*%
%TA.AperFunction,Conductor*%
%TO.N,I2C_GND*%
G36*
X166385497Y-101673012D02*
G01*
X166388059Y-101675066D01*
X166921378Y-102242840D01*
X166924544Y-102251216D01*
X166920860Y-102259378D01*
X166920522Y-102259684D01*
X166319531Y-102781647D01*
X166311038Y-102784484D01*
X166308219Y-102783932D01*
X165351438Y-102470715D01*
X165344642Y-102464885D01*
X165343959Y-102455956D01*
X165346803Y-102451325D01*
X166038178Y-101759950D01*
X166043548Y-101756891D01*
X166376634Y-101671741D01*
X166385497Y-101673012D01*
G37*
%TD.AperFunction*%
%TD*%
%TA.AperFunction,Conductor*%
%TO.N,I2C_GND*%
G36*
X105632320Y-141437397D02*
G01*
X106165455Y-142003982D01*
X106168629Y-142012356D01*
X106165455Y-142020018D01*
X105632320Y-142586602D01*
X105624155Y-142590279D01*
X105618524Y-142589028D01*
X104878425Y-142215244D01*
X104872586Y-142208455D01*
X104872000Y-142204800D01*
X104872000Y-141819199D01*
X104875427Y-141810926D01*
X104878425Y-141808755D01*
X105618526Y-141434970D01*
X105627454Y-141434301D01*
X105632320Y-141437397D01*
G37*
%TD.AperFunction*%
%TD*%
%TA.AperFunction,Conductor*%
%TO.N,I2C_GND*%
G36*
X190953981Y-89044175D02*
G01*
X190955076Y-89045439D01*
X191481213Y-89749149D01*
X191518197Y-89798615D01*
X191520406Y-89807293D01*
X191519873Y-89809476D01*
X191270738Y-90523484D01*
X191264777Y-90530166D01*
X191262755Y-90530921D01*
X190690013Y-90686335D01*
X190681131Y-90685194D01*
X190676342Y-90679979D01*
X190271397Y-89809476D01*
X190243334Y-89749149D01*
X190242951Y-89740202D01*
X190245667Y-89735943D01*
X190937436Y-89044174D01*
X190945708Y-89040748D01*
X190953981Y-89044175D01*
G37*
%TD.AperFunction*%
%TD*%
%TA.AperFunction,Conductor*%
%TO.N,I2C_GND*%
G36*
X191765731Y-104713527D02*
G01*
X191769095Y-104720584D01*
X191854840Y-105541288D01*
X191852291Y-105549873D01*
X191850568Y-105551595D01*
X191275365Y-106017632D01*
X191266780Y-106020177D01*
X191260635Y-106017632D01*
X190685431Y-105551595D01*
X190681160Y-105543724D01*
X190681159Y-105541288D01*
X190766905Y-104720584D01*
X190771173Y-104712712D01*
X190778542Y-104710100D01*
X191757458Y-104710100D01*
X191765731Y-104713527D01*
G37*
%TD.AperFunction*%
%TD*%
%TA.AperFunction,Conductor*%
%TO.N,I2C_GND*%
G36*
X191275365Y-90533567D02*
G01*
X191850568Y-90999604D01*
X191854839Y-91007475D01*
X191854840Y-91009911D01*
X191769095Y-91830616D01*
X191764827Y-91838488D01*
X191757458Y-91841100D01*
X190778542Y-91841100D01*
X190770269Y-91837673D01*
X190766905Y-91830616D01*
X190681159Y-91009911D01*
X190683708Y-91001326D01*
X190685426Y-90999608D01*
X191260635Y-90533566D01*
X191269220Y-90531022D01*
X191275365Y-90533567D01*
G37*
%TD.AperFunction*%
%TD*%
%TA.AperFunction,Conductor*%
%TO.N,I2C_GND*%
G36*
X101475194Y-141811823D02*
G01*
X101483413Y-141815377D01*
X101486714Y-141823522D01*
X101486714Y-142209091D01*
X101485351Y-142214571D01*
X101270048Y-142620699D01*
X101263145Y-142626404D01*
X101255095Y-142625970D01*
X100974800Y-142505636D01*
X100968550Y-142499223D01*
X100968665Y-142490269D01*
X100968686Y-142490220D01*
X101088517Y-142214571D01*
X101261890Y-141815756D01*
X101268331Y-141809536D01*
X101272796Y-141808723D01*
X101475194Y-141811823D01*
G37*
%TD.AperFunction*%
%TD*%
%TA.AperFunction,Conductor*%
%TO.N,I2C_GND*%
G36*
X191275224Y-106031668D02*
G01*
X191275836Y-106032497D01*
X191727004Y-106703532D01*
X191728777Y-106712310D01*
X191727989Y-106714806D01*
X191419467Y-107409972D01*
X191412979Y-107416144D01*
X191404027Y-107415920D01*
X191400500Y-107413499D01*
X190708341Y-106721340D01*
X190704988Y-106714381D01*
X190681220Y-106503974D01*
X190683696Y-106495370D01*
X190685489Y-106493565D01*
X191258772Y-106029927D01*
X191267357Y-106027390D01*
X191275224Y-106031668D01*
G37*
%TD.AperFunction*%
%TD*%
%TA.AperFunction,Conductor*%
%TO.N,I2C_GND*%
G36*
X195972231Y-77684927D02*
G01*
X195975595Y-77691984D01*
X196061340Y-78512688D01*
X196058791Y-78521273D01*
X196057068Y-78522995D01*
X195481865Y-78989032D01*
X195473280Y-78991577D01*
X195467135Y-78989032D01*
X194891931Y-78522995D01*
X194887660Y-78515124D01*
X194887659Y-78512688D01*
X194973405Y-77691984D01*
X194977673Y-77684112D01*
X194985042Y-77681500D01*
X195963958Y-77681500D01*
X195972231Y-77684927D01*
G37*
%TD.AperFunction*%
%TD*%
%TA.AperFunction,Conductor*%
%TO.N,I2C_GND*%
G36*
X171235677Y-41535065D02*
G01*
X171243082Y-41540102D01*
X171245000Y-41546521D01*
X171245000Y-42527478D01*
X171241573Y-42535751D01*
X171235677Y-42538934D01*
X169879751Y-42820332D01*
X169870955Y-42818658D01*
X169866569Y-42813365D01*
X169545865Y-42041489D01*
X169545856Y-42032534D01*
X169545865Y-42032511D01*
X169866570Y-41260632D01*
X169872908Y-41254309D01*
X169879749Y-41253667D01*
X171235677Y-41535065D01*
G37*
%TD.AperFunction*%
%TD*%
%TA.AperFunction,Conductor*%
%TO.N,I2C_GND*%
G36*
X179039183Y-119262673D02*
G01*
X179623996Y-119503937D01*
X179630337Y-119510260D01*
X179630982Y-119512338D01*
X179775555Y-120197648D01*
X179773910Y-120206450D01*
X179768759Y-120210799D01*
X178786626Y-120636353D01*
X178777672Y-120636497D01*
X178773701Y-120633890D01*
X178502371Y-120362560D01*
X178498944Y-120354287D01*
X178500116Y-120349182D01*
X178569060Y-120207000D01*
X179024194Y-119268382D01*
X179030887Y-119262435D01*
X179039183Y-119262673D01*
G37*
%TD.AperFunction*%
%TD*%
%TA.AperFunction,Conductor*%
%TO.N,I2C_GND*%
G36*
X181743119Y-45800029D02*
G01*
X182434226Y-46491136D01*
X182437607Y-46498372D01*
X182472447Y-46889788D01*
X182469767Y-46898332D01*
X182468150Y-46899922D01*
X181894375Y-47363957D01*
X181885788Y-47366495D01*
X181877921Y-47362217D01*
X181877551Y-47361735D01*
X181541021Y-46898332D01*
X181401620Y-46706377D01*
X181399532Y-46697670D01*
X181400087Y-46695520D01*
X181723851Y-45804304D01*
X181729895Y-45797701D01*
X181738841Y-45797305D01*
X181743119Y-45800029D01*
G37*
%TD.AperFunction*%
%TD*%
%TA.AperFunction,Conductor*%
%TO.N,I2C_GND*%
G36*
X183289155Y-118132155D02*
G01*
X183295473Y-118138502D01*
X183295971Y-118145920D01*
X183131289Y-118774266D01*
X183125876Y-118781400D01*
X183119971Y-118783000D01*
X182738029Y-118783000D01*
X182729756Y-118779573D01*
X182726711Y-118774266D01*
X182711585Y-118716553D01*
X182562028Y-118145918D01*
X182563246Y-118137049D01*
X182568842Y-118132156D01*
X182924500Y-117983875D01*
X182933449Y-117983855D01*
X183289155Y-118132155D01*
G37*
%TD.AperFunction*%
%TD*%
%TA.AperFunction,Conductor*%
%TO.N,GP3*%
G36*
X199136259Y-66548177D02*
G01*
X200414318Y-67074436D01*
X200420662Y-67080755D01*
X200420681Y-67089710D01*
X200420677Y-67089720D01*
X200121562Y-67814212D01*
X200115237Y-67820551D01*
X200115212Y-67820562D01*
X199390720Y-68119677D01*
X199381765Y-68119666D01*
X199375441Y-68113328D01*
X198849178Y-66835261D01*
X198849197Y-66826308D01*
X198851721Y-66822538D01*
X199123536Y-66550723D01*
X199131808Y-66547297D01*
X199136259Y-66548177D01*
G37*
%TD.AperFunction*%
%TD*%
%TA.AperFunction,Conductor*%
%TO.N,GP3*%
G36*
X200046343Y-44510233D02*
G01*
X200052668Y-44516572D01*
X200052707Y-44516667D01*
X200603613Y-45884485D01*
X200603525Y-45893439D01*
X200601033Y-45897129D01*
X200329129Y-46169033D01*
X200320856Y-46172460D01*
X200316485Y-46171613D01*
X198948667Y-45620707D01*
X198942273Y-45614437D01*
X198942185Y-45605483D01*
X198942224Y-45605388D01*
X199260438Y-44834783D01*
X199266759Y-44828448D01*
X200037388Y-44510224D01*
X200046343Y-44510233D01*
G37*
%TD.AperFunction*%
%TD*%
%TA.AperFunction,Conductor*%
%TO.N,+5V*%
G36*
X100263207Y-149889507D02*
G01*
X100263247Y-149889601D01*
X100583134Y-150659511D01*
X100583143Y-150668466D01*
X100583134Y-150668489D01*
X100263247Y-151438398D01*
X100256908Y-151444723D01*
X100247953Y-151444714D01*
X100247859Y-151444674D01*
X98891117Y-150867030D01*
X98884847Y-150860636D01*
X98884000Y-150856265D01*
X98884000Y-150471734D01*
X98887427Y-150463461D01*
X98891113Y-150460971D01*
X100247860Y-149883324D01*
X100256813Y-149883237D01*
X100263207Y-149889507D01*
G37*
%TD.AperFunction*%
%TD*%
%TA.AperFunction,Conductor*%
%TO.N,+5V*%
G36*
X98382013Y-150547006D02*
G01*
X98653352Y-150818345D01*
X98656779Y-150826618D01*
X98655855Y-150831175D01*
X98239732Y-151815225D01*
X98233354Y-151821510D01*
X98226611Y-151822131D01*
X97541360Y-151681948D01*
X97533942Y-151676932D01*
X97532910Y-151674997D01*
X97288846Y-151090134D01*
X97288823Y-151081179D01*
X97294462Y-151075138D01*
X98368562Y-150544787D01*
X98377495Y-150544198D01*
X98382013Y-150547006D01*
G37*
%TD.AperFunction*%
%TD*%
%TA.AperFunction,Conductor*%
%TO.N,+5V*%
G36*
X169541094Y-36110659D02*
G01*
X169544994Y-36118719D01*
X169545014Y-36119383D01*
X169546000Y-36957000D01*
X169545014Y-37794596D01*
X169541577Y-37802865D01*
X169533300Y-37806282D01*
X169532617Y-37806261D01*
X167856281Y-37706256D01*
X167848227Y-37702343D01*
X167845278Y-37694577D01*
X167845278Y-36216640D01*
X167848705Y-36208367D01*
X167856298Y-36204960D01*
X169532636Y-36107717D01*
X169541094Y-36110659D01*
G37*
%TD.AperFunction*%
%TD*%
%TA.AperFunction,Conductor*%
%TO.N,+5V*%
G36*
X167017356Y-36107716D02*
G01*
X168693701Y-36204960D01*
X168701760Y-36208860D01*
X168704722Y-36216640D01*
X168704722Y-37694577D01*
X168701295Y-37702850D01*
X168693719Y-37706256D01*
X167017382Y-37806261D01*
X167008919Y-37803333D01*
X167005006Y-37795279D01*
X167004985Y-37794596D01*
X167004880Y-37705600D01*
X167004000Y-36957000D01*
X167004985Y-36119381D01*
X167008422Y-36111114D01*
X167016699Y-36107697D01*
X167017356Y-36107716D01*
G37*
%TD.AperFunction*%
%TD*%
%TA.AperFunction,Conductor*%
%TO.N,+5V*%
G36*
X179230824Y-47130877D02*
G01*
X179805045Y-47367751D01*
X179811386Y-47374074D01*
X179812162Y-47376889D01*
X179915411Y-48089517D01*
X179913206Y-48098196D01*
X179911315Y-48100189D01*
X179188000Y-48701984D01*
X179179449Y-48704641D01*
X179172244Y-48701263D01*
X178480354Y-48009373D01*
X178476927Y-48001100D01*
X178479749Y-47993479D01*
X179217486Y-47134072D01*
X179225475Y-47130028D01*
X179230824Y-47130877D01*
G37*
%TD.AperFunction*%
%TD*%
%TA.AperFunction,Conductor*%
%TO.N,+5V*%
G36*
X166412253Y-36364397D02*
G01*
X166413495Y-36365473D01*
X167004049Y-36954639D01*
X167006600Y-36958456D01*
X167326277Y-37732602D01*
X167326268Y-37741557D01*
X167321080Y-37747332D01*
X166101541Y-38414708D01*
X166092638Y-38415673D01*
X166087651Y-38412717D01*
X165393920Y-37718986D01*
X165390493Y-37710713D01*
X165392834Y-37703692D01*
X166395875Y-36366733D01*
X166403579Y-36362173D01*
X166412253Y-36364397D01*
G37*
%TD.AperFunction*%
%TD*%
%TA.AperFunction,Conductor*%
%TO.N,~*%
G36*
X104361728Y-149074821D02*
G01*
X105061123Y-149387316D01*
X105064620Y-149389723D01*
X105339324Y-149664427D01*
X105339761Y-149664916D01*
X105366121Y-149697970D01*
X105415271Y-149731480D01*
X105463118Y-149766793D01*
X105469771Y-149769120D01*
X105472497Y-149770497D01*
X105478326Y-149774472D01*
X105535177Y-149792007D01*
X105591301Y-149811646D01*
X105598349Y-149811909D01*
X105601358Y-149812421D01*
X105608094Y-149814499D01*
X105608098Y-149814500D01*
X105667574Y-149814500D01*
X105727008Y-149816724D01*
X105727008Y-149816723D01*
X105727010Y-149816724D01*
X105733821Y-149814899D01*
X105736849Y-149814500D01*
X105998383Y-149814500D01*
X106006656Y-149817927D01*
X106010083Y-149826200D01*
X106009197Y-149830667D01*
X105666562Y-150660215D01*
X105660236Y-150666553D01*
X105660215Y-150666562D01*
X104824510Y-151011740D01*
X104815555Y-151011731D01*
X104809361Y-151005699D01*
X104673742Y-150702172D01*
X104074821Y-149361730D01*
X104074576Y-149352781D01*
X104077229Y-149348689D01*
X104348688Y-149077230D01*
X104356960Y-149073804D01*
X104361728Y-149074821D01*
G37*
%TD.AperFunction*%
%TD*%
%TA.AperFunction,Conductor*%
%TO.N,~*%
G36*
X101271846Y-147353282D02*
G01*
X101557000Y-147448333D01*
X101563765Y-147454201D01*
X101565000Y-147459433D01*
X101565000Y-147842566D01*
X101561573Y-147850839D01*
X101557000Y-147853666D01*
X101271846Y-147948717D01*
X101262914Y-147948082D01*
X101259887Y-147945904D01*
X100972313Y-147659285D01*
X100968873Y-147651019D01*
X100972285Y-147642741D01*
X101259888Y-147356094D01*
X101268165Y-147352682D01*
X101271846Y-147353282D01*
G37*
%TD.AperFunction*%
%TD*%
%TA.AperFunction,Conductor*%
%TO.N,~*%
G36*
X182367919Y-114614427D02*
G01*
X182371059Y-114620125D01*
X182456872Y-115000452D01*
X182456581Y-115006660D01*
X182180122Y-115852953D01*
X182174295Y-115859753D01*
X182165367Y-115860442D01*
X182158567Y-115854615D01*
X182157878Y-115852953D01*
X182098516Y-115671235D01*
X181881417Y-115006657D01*
X181881127Y-115000454D01*
X181966941Y-114620124D01*
X181972105Y-114612809D01*
X181978354Y-114611000D01*
X182359646Y-114611000D01*
X182367919Y-114614427D01*
G37*
%TD.AperFunction*%
%TD*%
%TA.AperFunction,Conductor*%
%TO.N,~*%
G36*
X182271820Y-114219371D02*
G01*
X182280085Y-114222819D01*
X182283397Y-114229590D01*
X182367318Y-114887378D01*
X182364966Y-114896019D01*
X182357193Y-114900465D01*
X182355712Y-114900559D01*
X181974103Y-114900559D01*
X181965830Y-114897132D01*
X181965528Y-114896819D01*
X181964785Y-114896019D01*
X181848713Y-114770977D01*
X181606910Y-114510487D01*
X181603793Y-114502092D01*
X181607196Y-114494269D01*
X181878656Y-114221849D01*
X181886921Y-114218409D01*
X182271820Y-114219371D01*
G37*
%TD.AperFunction*%
%TD*%
%TA.AperFunction,Conductor*%
%TO.N,~*%
G36*
X184262865Y-35945967D02*
G01*
X184838068Y-36412004D01*
X184842339Y-36419875D01*
X184842340Y-36422311D01*
X184756595Y-37243016D01*
X184752327Y-37250888D01*
X184744958Y-37253500D01*
X183766042Y-37253500D01*
X183757769Y-37250073D01*
X183754405Y-37243016D01*
X183668659Y-36422311D01*
X183671208Y-36413726D01*
X183672926Y-36412008D01*
X184248135Y-35945966D01*
X184256720Y-35943422D01*
X184262865Y-35945967D01*
G37*
%TD.AperFunction*%
%TD*%
%TA.AperFunction,Conductor*%
%TO.N,~*%
G36*
X184753231Y-41743927D02*
G01*
X184756595Y-41750984D01*
X184842340Y-42571688D01*
X184839791Y-42580273D01*
X184838068Y-42581995D01*
X184262865Y-43048032D01*
X184254280Y-43050577D01*
X184248135Y-43048032D01*
X183672931Y-42581995D01*
X183668660Y-42574124D01*
X183668659Y-42571688D01*
X183754405Y-41750984D01*
X183758673Y-41743112D01*
X183766042Y-41740500D01*
X184744958Y-41740500D01*
X184753231Y-41743927D01*
G37*
%TD.AperFunction*%
%TD*%
%TA.AperFunction,Conductor*%
%TO.N,~*%
G36*
X97451526Y-142478565D02*
G01*
X97455638Y-142486520D01*
X97455662Y-142486863D01*
X97508266Y-143441489D01*
X97505300Y-143449938D01*
X97504857Y-143450406D01*
X97236453Y-143718810D01*
X97228180Y-143722237D01*
X97219907Y-143718810D01*
X97218070Y-143716425D01*
X97022018Y-143379571D01*
X97020566Y-143371916D01*
X97152896Y-142509396D01*
X97157537Y-142501741D01*
X97163470Y-142499515D01*
X97442994Y-142475849D01*
X97451526Y-142478565D01*
G37*
%TD.AperFunction*%
%TD*%
%TA.AperFunction,Conductor*%
%TO.N,GP1*%
G36*
X199136259Y-58928177D02*
G01*
X200414318Y-59454436D01*
X200420662Y-59460755D01*
X200420681Y-59469710D01*
X200420677Y-59469720D01*
X200121562Y-60194212D01*
X200115237Y-60200551D01*
X200115212Y-60200562D01*
X199390720Y-60499677D01*
X199381765Y-60499666D01*
X199375441Y-60493328D01*
X198849178Y-59215261D01*
X198849197Y-59206308D01*
X198851721Y-59202538D01*
X199123536Y-58930723D01*
X199131808Y-58927297D01*
X199136259Y-58928177D01*
G37*
%TD.AperFunction*%
%TD*%
%TA.AperFunction,Conductor*%
%TO.N,GP1*%
G36*
X201127444Y-30792668D02*
G01*
X201133638Y-30798700D01*
X201868177Y-32442666D01*
X201868423Y-32451618D01*
X201865768Y-32455712D01*
X201594312Y-32727168D01*
X201586039Y-32730595D01*
X201581267Y-32729577D01*
X200968331Y-32455712D01*
X199937301Y-31995038D01*
X199931146Y-31988535D01*
X199931260Y-31979889D01*
X200276438Y-31144182D01*
X200282761Y-31137847D01*
X201118490Y-30792659D01*
X201127444Y-30792668D01*
G37*
%TD.AperFunction*%
%TD*%
%TA.AperFunction,Conductor*%
%TO.N,GP0*%
G36*
X198801439Y-27259874D02*
G01*
X198805129Y-27262366D01*
X199077033Y-27534270D01*
X199080460Y-27542543D01*
X199079613Y-27546914D01*
X198528707Y-28914732D01*
X198522437Y-28921126D01*
X198513483Y-28921214D01*
X198513388Y-28921175D01*
X197742785Y-28602962D01*
X197736447Y-28596638D01*
X197418224Y-27826011D01*
X197418233Y-27817056D01*
X197424572Y-27810731D01*
X197424595Y-27810721D01*
X198792486Y-27259786D01*
X198801439Y-27259874D01*
G37*
%TD.AperFunction*%
%TD*%
%TA.AperFunction,Conductor*%
%TO.N,GP0*%
G36*
X201290309Y-56215097D02*
G01*
X201561902Y-56486690D01*
X201565329Y-56494963D01*
X201564365Y-56499614D01*
X200923571Y-57978817D01*
X200917138Y-57985046D01*
X200908369Y-57984980D01*
X200122785Y-57660562D01*
X200116447Y-57654238D01*
X199792018Y-56868628D01*
X199792027Y-56859675D01*
X199798179Y-56853429D01*
X201277388Y-56212633D01*
X201286339Y-56212490D01*
X201290309Y-56215097D01*
G37*
%TD.AperFunction*%
%TD*%
%TA.AperFunction,Conductor*%
%TO.N,GP2*%
G36*
X200046343Y-41970233D02*
G01*
X200052668Y-41976572D01*
X200052707Y-41976667D01*
X200603613Y-43344485D01*
X200603525Y-43353439D01*
X200601033Y-43357129D01*
X200329129Y-43629033D01*
X200320856Y-43632460D01*
X200316485Y-43631613D01*
X198948667Y-43080707D01*
X198942273Y-43074437D01*
X198942185Y-43065483D01*
X198942224Y-43065388D01*
X199260438Y-42294783D01*
X199266759Y-42288448D01*
X200037388Y-41970224D01*
X200046343Y-41970233D01*
G37*
%TD.AperFunction*%
%TD*%
%TA.AperFunction,Conductor*%
%TO.N,GP2*%
G36*
X199136259Y-64008177D02*
G01*
X200414318Y-64534436D01*
X200420662Y-64540755D01*
X200420681Y-64549710D01*
X200420677Y-64549720D01*
X200121562Y-65274212D01*
X200115237Y-65280551D01*
X200115212Y-65280562D01*
X199390720Y-65579677D01*
X199381765Y-65579666D01*
X199375441Y-65573328D01*
X198849178Y-64295261D01*
X198849197Y-64286308D01*
X198851721Y-64282538D01*
X199123536Y-64010723D01*
X199131808Y-64007297D01*
X199136259Y-64008177D01*
G37*
%TD.AperFunction*%
%TD*%
%TA.AperFunction,Conductor*%
%TO.N,Net-(J10-Pin_13)*%
G36*
X169541094Y-33570659D02*
G01*
X169544994Y-33578719D01*
X169545014Y-33579383D01*
X169546000Y-34417000D01*
X169545014Y-35254596D01*
X169541577Y-35262865D01*
X169533300Y-35266282D01*
X169532617Y-35266261D01*
X167856281Y-35166256D01*
X167848227Y-35162343D01*
X167845278Y-35154577D01*
X167845278Y-33676640D01*
X167848705Y-33668367D01*
X167856298Y-33664960D01*
X169532636Y-33567717D01*
X169541094Y-33570659D01*
G37*
%TD.AperFunction*%
%TD*%
%TA.AperFunction,Conductor*%
%TO.N,Net-(J10-Pin_13)*%
G36*
X167017356Y-33567716D02*
G01*
X168693701Y-33664960D01*
X168701760Y-33668860D01*
X168704722Y-33676640D01*
X168704722Y-35154577D01*
X168701295Y-35162850D01*
X168693719Y-35166256D01*
X167017382Y-35266261D01*
X167008919Y-35263333D01*
X167005006Y-35255279D01*
X167004985Y-35254596D01*
X167004880Y-35165600D01*
X167004000Y-34417000D01*
X167004985Y-33579381D01*
X167008422Y-33571114D01*
X167016699Y-33567697D01*
X167017356Y-33567716D01*
G37*
%TD.AperFunction*%
%TD*%
%TA.AperFunction,Conductor*%
%TO.N,Net-(J10-Pin_15)*%
G36*
X169541094Y-31030659D02*
G01*
X169544994Y-31038719D01*
X169545014Y-31039383D01*
X169546000Y-31877000D01*
X169545014Y-32714596D01*
X169541577Y-32722865D01*
X169533300Y-32726282D01*
X169532617Y-32726261D01*
X167856281Y-32626256D01*
X167848227Y-32622343D01*
X167845278Y-32614577D01*
X167845278Y-31136640D01*
X167848705Y-31128367D01*
X167856298Y-31124960D01*
X169532636Y-31027717D01*
X169541094Y-31030659D01*
G37*
%TD.AperFunction*%
%TD*%
%TA.AperFunction,Conductor*%
%TO.N,Net-(J10-Pin_15)*%
G36*
X167017356Y-31027716D02*
G01*
X168693701Y-31124960D01*
X168701760Y-31128860D01*
X168704722Y-31136640D01*
X168704722Y-32614577D01*
X168701295Y-32622850D01*
X168693719Y-32626256D01*
X167017382Y-32726261D01*
X167008919Y-32723333D01*
X167005006Y-32715279D01*
X167004985Y-32714596D01*
X167004880Y-32625600D01*
X167004000Y-31877000D01*
X167004985Y-31039381D01*
X167008422Y-31031114D01*
X167016699Y-31027697D01*
X167017356Y-31027716D01*
G37*
%TD.AperFunction*%
%TD*%
%TA.AperFunction,Conductor*%
%TO.N,Net-(U3-THR)*%
G36*
X103067069Y-139441738D02*
G01*
X103624657Y-139996204D01*
X103628107Y-140004467D01*
X103624703Y-140012750D01*
X103624657Y-140012796D01*
X103067477Y-140566856D01*
X103059194Y-140570260D01*
X103053691Y-140568867D01*
X102325664Y-140177810D01*
X102319997Y-140170876D01*
X102319500Y-140167503D01*
X102319500Y-139782021D01*
X102322927Y-139773748D01*
X102326339Y-139771379D01*
X103053965Y-139439389D01*
X103062912Y-139439073D01*
X103067069Y-139441738D01*
G37*
%TD.AperFunction*%
%TD*%
%TA.AperFunction,Conductor*%
%TO.N,Net-(U3-THR)*%
G36*
X95825462Y-143038130D02*
G01*
X95831788Y-143044469D01*
X95831856Y-143044638D01*
X96407393Y-144502228D01*
X96407244Y-144511182D01*
X96404784Y-144514798D01*
X96132798Y-144786784D01*
X96124525Y-144790211D01*
X96120228Y-144789393D01*
X94662638Y-144213856D01*
X94656202Y-144207631D01*
X94656053Y-144198677D01*
X94656101Y-144198556D01*
X94993438Y-143381783D01*
X94999761Y-143375447D01*
X95816509Y-143038121D01*
X95825462Y-143038130D01*
G37*
%TD.AperFunction*%
%TD*%
%TA.AperFunction,Conductor*%
%TO.N,Net-(U3-THR)*%
G36*
X98360092Y-146433189D02*
G01*
X98361931Y-146435577D01*
X98557981Y-146772426D01*
X98559434Y-146780085D01*
X98427104Y-147642600D01*
X98422462Y-147650258D01*
X98416526Y-147652484D01*
X98137006Y-147676149D01*
X98128473Y-147673433D01*
X98124361Y-147665478D01*
X98124337Y-147665135D01*
X98075145Y-146772426D01*
X98071733Y-146710508D01*
X98074699Y-146702061D01*
X98075124Y-146701611D01*
X98343547Y-146433188D01*
X98351819Y-146429762D01*
X98360092Y-146433189D01*
G37*
%TD.AperFunction*%
%TD*%
%TA.AperFunction,Conductor*%
%TO.N,Net-(U3-THR)*%
G36*
X96129182Y-141966755D02*
G01*
X96132798Y-141969215D01*
X96404784Y-142241201D01*
X96408211Y-142249474D01*
X96407393Y-142253771D01*
X95831856Y-143711361D01*
X95825631Y-143717797D01*
X95816677Y-143717946D01*
X95816508Y-143717878D01*
X94999785Y-143380562D01*
X94993446Y-143374236D01*
X94993437Y-143374214D01*
X94656121Y-142557491D01*
X94656130Y-142548537D01*
X94662469Y-142542211D01*
X94662549Y-142542178D01*
X96120230Y-141966606D01*
X96129182Y-141966755D01*
G37*
%TD.AperFunction*%
%TD*%
%TA.AperFunction,Conductor*%
%TO.N,Net-(U3-THR)*%
G36*
X99774063Y-141281352D02*
G01*
X99776451Y-141283191D01*
X100044855Y-141551595D01*
X100048282Y-141559868D01*
X100048264Y-141560512D01*
X99995662Y-142515135D01*
X99991785Y-142523207D01*
X99983336Y-142526173D01*
X99982993Y-142526149D01*
X99703473Y-142502484D01*
X99695518Y-142498372D01*
X99692896Y-142492602D01*
X99560565Y-141630082D01*
X99562017Y-141622428D01*
X99758068Y-141285577D01*
X99765189Y-141280152D01*
X99774063Y-141281352D01*
G37*
%TD.AperFunction*%
%TD*%
%TA.AperFunction,Conductor*%
%TO.N,Net-(U3-DIS)*%
G36*
X99406971Y-147625846D02*
G01*
X99686527Y-147649515D01*
X99694481Y-147653627D01*
X99697104Y-147659399D01*
X99829434Y-148521914D01*
X99827981Y-148529573D01*
X99631931Y-148866422D01*
X99624808Y-148871849D01*
X99615934Y-148870649D01*
X99613546Y-148868810D01*
X99345142Y-148600406D01*
X99341715Y-148592133D01*
X99341732Y-148591514D01*
X99394337Y-147636862D01*
X99398214Y-147628791D01*
X99406663Y-147625825D01*
X99406971Y-147625846D01*
G37*
%TD.AperFunction*%
%TD*%
%TA.AperFunction,Conductor*%
%TO.N,Net-(U3-DIS)*%
G36*
X95196596Y-146581427D02*
G01*
X95199056Y-146585043D01*
X95822761Y-148022682D01*
X95822910Y-148031636D01*
X95816685Y-148038072D01*
X95816516Y-148038144D01*
X95000488Y-148377135D01*
X94991534Y-148377144D01*
X94991512Y-148377135D01*
X94175483Y-148038144D01*
X94169157Y-148031805D01*
X94169166Y-148022851D01*
X94169238Y-148022682D01*
X94792944Y-146585043D01*
X94799380Y-146578818D01*
X94803677Y-146578000D01*
X95188323Y-146578000D01*
X95196596Y-146581427D01*
G37*
%TD.AperFunction*%
%TD*%
%TA.AperFunction,Conductor*%
%TO.N,Net-(U3-DIS)*%
G36*
X95816516Y-146217855D02*
G01*
X95822842Y-146224194D01*
X95822833Y-146233148D01*
X95822761Y-146233317D01*
X95199056Y-147670957D01*
X95192620Y-147677182D01*
X95188323Y-147678000D01*
X94803677Y-147678000D01*
X94795404Y-147674573D01*
X94792944Y-147670957D01*
X94169238Y-146233317D01*
X94169089Y-146224363D01*
X94175314Y-146217927D01*
X94175406Y-146217887D01*
X94991512Y-145878863D01*
X95000465Y-145878855D01*
X95816516Y-146217855D01*
G37*
%TD.AperFunction*%
%TD*%
%TA.AperFunction,Conductor*%
%TO.N,Net-(U3-DIS)*%
G36*
X97088286Y-149083350D02*
G01*
X97089661Y-149084880D01*
X97528514Y-149669787D01*
X97530738Y-149678461D01*
X97526177Y-149686168D01*
X97524663Y-149687132D01*
X96848739Y-150047784D01*
X96839826Y-150048655D01*
X96834314Y-150045036D01*
X96529437Y-149686168D01*
X96277297Y-149389377D01*
X96274554Y-149380854D01*
X96277941Y-149373531D01*
X96549897Y-149101575D01*
X96557765Y-149098156D01*
X97079901Y-149080209D01*
X97088286Y-149083350D01*
G37*
%TD.AperFunction*%
%TD*%
%TA.AperFunction,Conductor*%
%TO.N,Net-(U3-DIS)*%
G36*
X95639033Y-147751508D02*
G01*
X95640368Y-147753108D01*
X96610848Y-149153540D01*
X96612743Y-149162291D01*
X96609504Y-149168476D01*
X96337612Y-149440368D01*
X96329339Y-149443795D01*
X96327894Y-149443705D01*
X95006246Y-149279274D01*
X94998460Y-149274852D01*
X94995991Y-149267675D01*
X94995296Y-148382149D01*
X94998714Y-148373879D01*
X95622488Y-147751489D01*
X95630764Y-147748072D01*
X95639033Y-147751508D01*
G37*
%TD.AperFunction*%
%TD*%
%TA.AperFunction,Conductor*%
%TO.N,Net-(U3-DIS)*%
G36*
X98089187Y-149102231D02*
G01*
X98610776Y-149324408D01*
X98614463Y-149326898D01*
X98886444Y-149598879D01*
X98889871Y-149607152D01*
X98886444Y-149615425D01*
X98885465Y-149616300D01*
X98190394Y-150170438D01*
X98181788Y-150172916D01*
X98175993Y-150170584D01*
X97545579Y-149688572D01*
X97541089Y-149680825D01*
X97543392Y-149672171D01*
X97544146Y-149671281D01*
X98076076Y-149104985D01*
X98084238Y-149101302D01*
X98089187Y-149102231D01*
G37*
%TD.AperFunction*%
%TD*%
M02*
