%TF.GenerationSoftware,KiCad,Pcbnew,7.0.9*%
%TF.CreationDate,2024-01-05T19:18:53+01:00*%
%TF.ProjectId,euroPI-kicad_surfacemount_discretes_and_ics,6575726f-5049-42d6-9b69-6361645f7375,rev?*%
%TF.SameCoordinates,Original*%
%TF.FileFunction,Paste,Top*%
%TF.FilePolarity,Positive*%
%FSLAX46Y46*%
G04 Gerber Fmt 4.6, Leading zero omitted, Abs format (unit mm)*
G04 Created by KiCad (PCBNEW 7.0.9) date 2024-01-05 19:18:53*
%MOMM*%
%LPD*%
G01*
G04 APERTURE LIST*
G04 Aperture macros list*
%AMRoundRect*
0 Rectangle with rounded corners*
0 $1 Rounding radius*
0 $2 $3 $4 $5 $6 $7 $8 $9 X,Y pos of 4 corners*
0 Add a 4 corners polygon primitive as box body*
4,1,4,$2,$3,$4,$5,$6,$7,$8,$9,$2,$3,0*
0 Add four circle primitives for the rounded corners*
1,1,$1+$1,$2,$3*
1,1,$1+$1,$4,$5*
1,1,$1+$1,$6,$7*
1,1,$1+$1,$8,$9*
0 Add four rect primitives between the rounded corners*
20,1,$1+$1,$2,$3,$4,$5,0*
20,1,$1+$1,$4,$5,$6,$7,0*
20,1,$1+$1,$6,$7,$8,$9,0*
20,1,$1+$1,$8,$9,$2,$3,0*%
G04 Aperture macros list end*
%ADD10RoundRect,0.150000X0.150000X-0.825000X0.150000X0.825000X-0.150000X0.825000X-0.150000X-0.825000X0*%
%ADD11RoundRect,0.250000X-0.350000X-0.450000X0.350000X-0.450000X0.350000X0.450000X-0.350000X0.450000X0*%
%ADD12RoundRect,0.250000X-0.450000X0.350000X-0.450000X-0.350000X0.450000X-0.350000X0.450000X0.350000X0*%
%ADD13RoundRect,0.250000X0.350000X0.450000X-0.350000X0.450000X-0.350000X-0.450000X0.350000X-0.450000X0*%
%ADD14RoundRect,0.250000X0.450000X-0.350000X0.450000X0.350000X-0.450000X0.350000X-0.450000X-0.350000X0*%
%ADD15RoundRect,0.250000X-0.337500X-0.475000X0.337500X-0.475000X0.337500X0.475000X-0.337500X0.475000X0*%
%ADD16RoundRect,0.150000X-0.150000X0.725000X-0.150000X-0.725000X0.150000X-0.725000X0.150000X0.725000X0*%
%ADD17RoundRect,0.225000X-0.375000X0.225000X-0.375000X-0.225000X0.375000X-0.225000X0.375000X0.225000X0*%
%ADD18RoundRect,0.150000X0.725000X0.150000X-0.725000X0.150000X-0.725000X-0.150000X0.725000X-0.150000X0*%
%ADD19RoundRect,0.225000X0.375000X-0.225000X0.375000X0.225000X-0.375000X0.225000X-0.375000X-0.225000X0*%
%ADD20RoundRect,0.250000X-0.475000X0.337500X-0.475000X-0.337500X0.475000X-0.337500X0.475000X0.337500X0*%
%ADD21RoundRect,0.250000X0.475000X-0.337500X0.475000X0.337500X-0.475000X0.337500X-0.475000X-0.337500X0*%
G04 APERTURE END LIST*
D10*
%TO.C,O3*%
X166675000Y-110936000D03*
X167945000Y-110936000D03*
X169215000Y-110936000D03*
X170485000Y-110936000D03*
X171755000Y-110936000D03*
X173025000Y-110936000D03*
X174295000Y-110936000D03*
X174295000Y-115886000D03*
X173025000Y-115886000D03*
X171755000Y-115886000D03*
X170485000Y-115886000D03*
X169215000Y-115886000D03*
X167945000Y-115886000D03*
X166675000Y-115886000D03*
%TD*%
D11*
%TO.C,R21*%
X185979000Y-119507000D03*
X183979000Y-119507000D03*
%TD*%
D12*
%TO.C,R16*%
X93472000Y-111121000D03*
X93472000Y-113121000D03*
%TD*%
%TO.C,R24*%
X190373000Y-75168000D03*
X190373000Y-73168000D03*
%TD*%
D13*
%TO.C,R6*%
X184547000Y-95608600D03*
X186547000Y-95608600D03*
%TD*%
D14*
%TO.C,R17*%
X108458000Y-104993000D03*
X108458000Y-102993000D03*
%TD*%
D12*
%TO.C,R20*%
X102235000Y-61112000D03*
X102235000Y-63112000D03*
%TD*%
D15*
%TO.C,C1*%
X195474500Y-75819000D03*
X193399500Y-75819000D03*
%TD*%
D12*
%TO.C,R41*%
X106172000Y-140012000D03*
X106172000Y-142012000D03*
%TD*%
D13*
%TO.C,R30*%
X179629000Y-119507000D03*
X181629000Y-119507000D03*
%TD*%
D12*
%TO.C,R26*%
X178308000Y-82931000D03*
X178308000Y-80931000D03*
%TD*%
D11*
%TO.C,R22*%
X190281000Y-119507000D03*
X188281000Y-119507000D03*
%TD*%
D16*
%TO.C,U3*%
X100965000Y-142501000D03*
X99695000Y-142501000D03*
X98425000Y-142501000D03*
X97155000Y-142501000D03*
X97155000Y-147651000D03*
X98425000Y-147651000D03*
X99695000Y-147651000D03*
X100965000Y-147651000D03*
%TD*%
D11*
%TO.C,R13*%
X91456000Y-94116000D03*
X93456000Y-94116000D03*
%TD*%
D14*
%TO.C,R31*%
X177657000Y-88849517D03*
X177657000Y-90849517D03*
%TD*%
D17*
%TO.C,D2*%
X178257200Y-60171600D03*
X178257200Y-56871600D03*
%TD*%
D15*
%TO.C,C16*%
X179980500Y-43053000D03*
X177905500Y-43053000D03*
%TD*%
D13*
%TO.C,R11*%
X111773000Y-111896000D03*
X109773000Y-111896000D03*
%TD*%
D15*
%TO.C,C3*%
X186330500Y-35941000D03*
X184255500Y-35941000D03*
%TD*%
D12*
%TO.C,Rx1*%
X97536000Y-149680000D03*
X97536000Y-151680000D03*
%TD*%
D11*
%TO.C,R23*%
X187198000Y-47371000D03*
X185198000Y-47371000D03*
%TD*%
D18*
%TO.C,O1*%
X179959000Y-53975000D03*
X179959000Y-52705000D03*
X179959000Y-51435000D03*
X179959000Y-50165000D03*
X185109000Y-50165000D03*
X185109000Y-51435000D03*
X185109000Y-52705000D03*
X185109000Y-53975000D03*
%TD*%
D12*
%TO.C,R18*%
X109804200Y-115271800D03*
X109804200Y-117271800D03*
%TD*%
D11*
%TO.C,R29*%
X172993000Y-119507000D03*
X170993000Y-119507000D03*
%TD*%
D15*
%TO.C,C11*%
X191268000Y-106022600D03*
X189193000Y-106022600D03*
%TD*%
%TO.C,C14*%
X191268000Y-95608600D03*
X189193000Y-95608600D03*
%TD*%
D19*
%TO.C,D3*%
X175158400Y-45644800D03*
X175158400Y-48944800D03*
%TD*%
D13*
%TO.C,R37*%
X176657000Y-94421517D03*
X178657000Y-94421517D03*
%TD*%
D17*
%TO.C,D1*%
X169138600Y-60247800D03*
X169138600Y-56947800D03*
%TD*%
D13*
%TO.C,R1*%
X184563000Y-90528600D03*
X186563000Y-90528600D03*
%TD*%
D12*
%TO.C,R19*%
X102108000Y-52340000D03*
X102108000Y-54340000D03*
%TD*%
D19*
%TO.C,D4*%
X175082200Y-35865800D03*
X175082200Y-39165800D03*
%TD*%
D15*
%TO.C,C2*%
X181885500Y-47371000D03*
X179810500Y-47371000D03*
%TD*%
D20*
%TO.C,C18*%
X103124000Y-144377500D03*
X103124000Y-146452500D03*
%TD*%
D15*
%TO.C,C5*%
X186330500Y-39495600D03*
X184255500Y-39495600D03*
%TD*%
D13*
%TO.C,R5*%
X184547000Y-98402600D03*
X186547000Y-98402600D03*
%TD*%
D15*
%TO.C,C12*%
X191268000Y-103101600D03*
X189193000Y-103101600D03*
%TD*%
D14*
%TO.C,R32*%
X166929000Y-102251000D03*
X166929000Y-104251000D03*
%TD*%
D12*
%TO.C,R8*%
X105918000Y-88515000D03*
X105918000Y-90515000D03*
%TD*%
%TO.C,R28*%
X103516648Y-30142000D03*
X103516648Y-32142000D03*
%TD*%
%TO.C,R10*%
X93472000Y-119278000D03*
X93472000Y-121278000D03*
%TD*%
D10*
%TO.C,O5*%
X178359000Y-110936000D03*
X179629000Y-110936000D03*
X180899000Y-110936000D03*
X182169000Y-110936000D03*
X183439000Y-110936000D03*
X184709000Y-110936000D03*
X185979000Y-110936000D03*
X185979000Y-115886000D03*
X184709000Y-115886000D03*
X183439000Y-115886000D03*
X182169000Y-115886000D03*
X180899000Y-115886000D03*
X179629000Y-115886000D03*
X178359000Y-115886000D03*
%TD*%
D13*
%TO.C,R2*%
X184547000Y-93068600D03*
X186547000Y-93068600D03*
%TD*%
D15*
%TO.C,C4*%
X179980500Y-39497000D03*
X177905500Y-39497000D03*
%TD*%
D12*
%TO.C,R27*%
X99579648Y-27428000D03*
X99579648Y-29428000D03*
%TD*%
D13*
%TO.C,R36*%
X175311000Y-119507000D03*
X177311000Y-119507000D03*
%TD*%
D14*
%TO.C,R25*%
X190373000Y-77613000D03*
X190373000Y-79613000D03*
%TD*%
D15*
%TO.C,C10*%
X191268000Y-93068600D03*
X189193000Y-93068600D03*
%TD*%
D12*
%TO.C,R9*%
X109982000Y-92862000D03*
X109982000Y-94862000D03*
%TD*%
D15*
%TO.C,C13*%
X191268000Y-98402600D03*
X189193000Y-98402600D03*
%TD*%
D12*
%TO.C,R7*%
X93218000Y-100736000D03*
X93218000Y-102736000D03*
%TD*%
D15*
%TO.C,C7*%
X195474500Y-78994000D03*
X193399500Y-78994000D03*
%TD*%
D13*
%TO.C,R34*%
X172355000Y-89849517D03*
X174355000Y-89849517D03*
%TD*%
D15*
%TO.C,C15*%
X186330500Y-43053000D03*
X184255500Y-43053000D03*
%TD*%
D13*
%TO.C,R3*%
X184547000Y-106022600D03*
X186547000Y-106022600D03*
%TD*%
%TO.C,R4*%
X184547000Y-103101600D03*
X186547000Y-103101600D03*
%TD*%
D12*
%TO.C,R39*%
X170993000Y-100545600D03*
X170993000Y-98545600D03*
%TD*%
D15*
%TO.C,C9*%
X191268000Y-90528600D03*
X189193000Y-90528600D03*
%TD*%
D21*
%TO.C,C17*%
X103632000Y-142079500D03*
X103632000Y-140004500D03*
%TD*%
D11*
%TO.C,R40*%
X174355000Y-94421517D03*
X172355000Y-94421517D03*
%TD*%
D12*
%TO.C,R12*%
X109739648Y-121789000D03*
X109739648Y-123789000D03*
%TD*%
D14*
%TO.C,R38*%
X166929000Y-106315000D03*
X166929000Y-108315000D03*
%TD*%
D11*
%TO.C,R35*%
X168691000Y-119507000D03*
X166691000Y-119507000D03*
%TD*%
%TO.C,R14*%
X95266000Y-90052000D03*
X97266000Y-90052000D03*
%TD*%
D15*
%TO.C,C8*%
X195474500Y-72644000D03*
X193399500Y-72644000D03*
%TD*%
D13*
%TO.C,R15*%
X116581648Y-90306000D03*
X114581648Y-90306000D03*
%TD*%
D15*
%TO.C,C6*%
X179980500Y-35941000D03*
X177905500Y-35941000D03*
%TD*%
D14*
%TO.C,R33*%
X169037000Y-93973600D03*
X169037000Y-95973600D03*
%TD*%
M02*
