%TF.GenerationSoftware,KiCad,Pcbnew,7.0.9*%
%TF.CreationDate,2023-11-30T20:30:40+01:00*%
%TF.ProjectId,euroPI-kicad_surfacemount_discretes_and_ics,6575726f-5049-42d6-9b69-6361645f7375,rev?*%
%TF.SameCoordinates,Original*%
%TF.FileFunction,Soldermask,Top*%
%TF.FilePolarity,Negative*%
%FSLAX46Y46*%
G04 Gerber Fmt 4.6, Leading zero omitted, Abs format (unit mm)*
G04 Created by KiCad (PCBNEW 7.0.9) date 2023-11-30 20:30:40*
%MOMM*%
%LPD*%
G01*
G04 APERTURE LIST*
G04 Aperture macros list*
%AMRoundRect*
0 Rectangle with rounded corners*
0 $1 Rounding radius*
0 $2 $3 $4 $5 $6 $7 $8 $9 X,Y pos of 4 corners*
0 Add a 4 corners polygon primitive as box body*
4,1,4,$2,$3,$4,$5,$6,$7,$8,$9,$2,$3,0*
0 Add four circle primitives for the rounded corners*
1,1,$1+$1,$2,$3*
1,1,$1+$1,$4,$5*
1,1,$1+$1,$6,$7*
1,1,$1+$1,$8,$9*
0 Add four rect primitives between the rounded corners*
20,1,$1+$1,$2,$3,$4,$5,0*
20,1,$1+$1,$4,$5,$6,$7,0*
20,1,$1+$1,$6,$7,$8,$9,0*
20,1,$1+$1,$8,$9,$2,$3,0*%
%AMFreePoly0*
4,1,28,0.178017,0.779942,0.347107,0.720775,0.498792,0.625465,0.625465,0.498792,0.720775,0.347107,0.779942,0.178017,0.800000,0.000000,0.779942,-0.178017,0.720775,-0.347107,0.625465,-0.498792,0.498792,-0.625465,0.347107,-0.720775,0.178017,-0.779942,0.000000,-0.800000,-0.600000,-0.800000,-0.605014,-0.794986,-0.644504,-0.794986,-0.724698,-0.756366,-0.780194,-0.686777,-0.800000,-0.600000,
-0.800000,0.600000,-0.780194,0.686777,-0.724698,0.756366,-0.644504,0.794986,-0.605014,0.794986,-0.600000,0.800000,0.000000,0.800000,0.178017,0.779942,0.178017,0.779942,$1*%
%AMFreePoly1*
4,1,28,0.605014,0.794986,0.644504,0.794986,0.724698,0.756366,0.780194,0.686777,0.800000,0.600000,0.800000,-0.600000,0.780194,-0.686777,0.724698,-0.756366,0.644504,-0.794986,0.605014,-0.794986,0.600000,-0.800000,0.000000,-0.800000,-0.178017,-0.779942,-0.347107,-0.720775,-0.498792,-0.625465,-0.625465,-0.498792,-0.720775,-0.347107,-0.779942,-0.178017,-0.800000,0.000000,-0.779942,0.178017,
-0.720775,0.347107,-0.625465,0.498792,-0.498792,0.625465,-0.347107,0.720775,-0.178017,0.779942,0.000000,0.800000,0.600000,0.800000,0.605014,0.794986,0.605014,0.794986,$1*%
G04 Aperture macros list end*
%ADD10R,1.930000X1.830000*%
%ADD11C,2.130000*%
%ADD12R,1.905000X2.000000*%
%ADD13O,1.905000X2.000000*%
%ADD14RoundRect,0.150000X0.150000X-0.825000X0.150000X0.825000X-0.150000X0.825000X-0.150000X-0.825000X0*%
%ADD15RoundRect,0.250000X-0.350000X-0.450000X0.350000X-0.450000X0.350000X0.450000X-0.350000X0.450000X0*%
%ADD16RoundRect,0.250000X-0.450000X0.350000X-0.450000X-0.350000X0.450000X-0.350000X0.450000X0.350000X0*%
%ADD17RoundRect,0.250000X0.350000X0.450000X-0.350000X0.450000X-0.350000X-0.450000X0.350000X-0.450000X0*%
%ADD18RoundRect,0.250000X0.450000X-0.350000X0.450000X0.350000X-0.450000X0.350000X-0.450000X-0.350000X0*%
%ADD19RoundRect,0.250000X-0.337500X-0.475000X0.337500X-0.475000X0.337500X0.475000X-0.337500X0.475000X0*%
%ADD20R,1.830000X1.930000*%
%ADD21R,1.800000X1.800000*%
%ADD22C,1.800000*%
%ADD23RoundRect,0.150000X-0.150000X0.725000X-0.150000X-0.725000X0.150000X-0.725000X0.150000X0.725000X0*%
%ADD24RoundRect,0.225000X-0.375000X0.225000X-0.375000X-0.225000X0.375000X-0.225000X0.375000X0.225000X0*%
%ADD25C,4.000000*%
%ADD26RoundRect,0.150000X0.725000X0.150000X-0.725000X0.150000X-0.725000X-0.150000X0.725000X-0.150000X0*%
%ADD27C,1.700000*%
%ADD28C,2.200000*%
%ADD29RoundRect,0.225000X0.375000X-0.225000X0.375000X0.225000X-0.375000X0.225000X-0.375000X-0.225000X0*%
%ADD30RoundRect,0.250000X-0.475000X0.337500X-0.475000X-0.337500X0.475000X-0.337500X0.475000X0.337500X0*%
%ADD31O,1.700000X1.700000*%
%ADD32R,1.700000X1.700000*%
%ADD33R,1.300000X1.300000*%
%ADD34C,1.300000*%
%ADD35RoundRect,0.250000X0.475000X-0.337500X0.475000X0.337500X-0.475000X0.337500X-0.475000X-0.337500X0*%
%ADD36C,1.600000*%
%ADD37FreePoly0,180.000000*%
%ADD38FreePoly1,180.000000*%
%ADD39RoundRect,0.200000X0.600000X0.600000X-0.600000X0.600000X-0.600000X-0.600000X0.600000X-0.600000X0*%
%ADD40RoundRect,0.250000X-0.600000X-0.600000X0.600000X-0.600000X0.600000X0.600000X-0.600000X0.600000X0*%
G04 APERTURE END LIST*
D10*
%TO.C,J20*%
X112776707Y-139771293D03*
D11*
X112776707Y-151171293D03*
X112776707Y-142871293D03*
%TD*%
D12*
%TO.C,U1*%
X180340000Y-29535000D03*
D13*
X182880000Y-29535000D03*
X185420000Y-29535000D03*
%TD*%
D14*
%TO.C,O3*%
X166675000Y-110936000D03*
X167945000Y-110936000D03*
X169215000Y-110936000D03*
X170485000Y-110936000D03*
X171755000Y-110936000D03*
X173025000Y-110936000D03*
X174295000Y-110936000D03*
X174295000Y-115886000D03*
X173025000Y-115886000D03*
X171755000Y-115886000D03*
X170485000Y-115886000D03*
X169215000Y-115886000D03*
X167945000Y-115886000D03*
X166675000Y-115886000D03*
%TD*%
D15*
%TO.C,R21*%
X185979000Y-119507000D03*
X183979000Y-119507000D03*
%TD*%
D16*
%TO.C,R16*%
X93472000Y-111121000D03*
X93472000Y-113121000D03*
%TD*%
%TO.C,R24*%
X190373000Y-75168000D03*
X190373000Y-73168000D03*
%TD*%
D17*
%TO.C,R6*%
X184547000Y-95608600D03*
X186547000Y-95608600D03*
%TD*%
D18*
%TO.C,R17*%
X108458000Y-104993000D03*
X108458000Y-102993000D03*
%TD*%
D16*
%TO.C,R20*%
X102235000Y-61112000D03*
X102235000Y-63112000D03*
%TD*%
D19*
%TO.C,C1*%
X195474500Y-75819000D03*
X193399500Y-75819000D03*
%TD*%
D20*
%TO.C,J8*%
X84720648Y-32140000D03*
D11*
X96120648Y-32140000D03*
X87820648Y-32140000D03*
%TD*%
D16*
%TO.C,R41*%
X106172000Y-142012000D03*
X106172000Y-140012000D03*
%TD*%
D17*
%TO.C,R30*%
X179629000Y-119507000D03*
X181629000Y-119507000D03*
%TD*%
D10*
%TO.C,J4*%
X86614000Y-114974000D03*
D11*
X86614000Y-126374000D03*
X86614000Y-118074000D03*
%TD*%
D21*
%TO.C,LED6*%
X117872648Y-111896000D03*
D22*
X115332648Y-111896000D03*
%TD*%
D16*
%TO.C,R26*%
X178308000Y-82931000D03*
X178308000Y-80931000D03*
%TD*%
D15*
%TO.C,R22*%
X190281000Y-119507000D03*
X188281000Y-119507000D03*
%TD*%
D23*
%TO.C,U3*%
X100965000Y-147651000D03*
X99695000Y-147651000D03*
X98425000Y-147651000D03*
X97155000Y-147651000D03*
X97155000Y-142501000D03*
X98425000Y-142501000D03*
X99695000Y-142501000D03*
X100965000Y-142501000D03*
%TD*%
D15*
%TO.C,R13*%
X91456000Y-94116000D03*
X93456000Y-94116000D03*
%TD*%
D18*
%TO.C,R31*%
X177657000Y-88849517D03*
X177657000Y-90849517D03*
%TD*%
D24*
%TO.C,D2*%
X178257200Y-60171600D03*
X178257200Y-56871600D03*
%TD*%
D19*
%TO.C,C16*%
X179980500Y-43053000D03*
X177905500Y-43053000D03*
%TD*%
D17*
%TO.C,R11*%
X111773000Y-111896000D03*
X109773000Y-111896000D03*
%TD*%
D19*
%TO.C,C3*%
X186330500Y-35941000D03*
X184255500Y-35941000D03*
%TD*%
D16*
%TO.C,Rx1*%
X97536000Y-151680000D03*
X97536000Y-149680000D03*
%TD*%
D15*
%TO.C,R23*%
X187198000Y-47371000D03*
X185198000Y-47371000D03*
%TD*%
D22*
%TO.C,VR3*%
X94996000Y-148378000D03*
X94996000Y-145878000D03*
X94996000Y-143378000D03*
D25*
X87996000Y-141478000D03*
X87996000Y-150278000D03*
%TD*%
D10*
%TO.C,J2*%
X101605824Y-97194000D03*
D11*
X101605824Y-108594000D03*
X101605824Y-100294000D03*
%TD*%
D26*
%TO.C,O1*%
X179959000Y-53975000D03*
X179959000Y-52705000D03*
X179959000Y-51435000D03*
X179959000Y-50165000D03*
X185109000Y-50165000D03*
X185109000Y-51435000D03*
X185109000Y-52705000D03*
X185109000Y-53975000D03*
%TD*%
D16*
%TO.C,R18*%
X109804200Y-115271800D03*
X109804200Y-117271800D03*
%TD*%
D15*
%TO.C,R29*%
X172993000Y-119507000D03*
X170993000Y-119507000D03*
%TD*%
D19*
%TO.C,C11*%
X191268000Y-106022600D03*
X189193000Y-106022600D03*
%TD*%
D27*
%TO.C,SW2*%
X86614000Y-77860000D03*
D25*
X91694000Y-77860000D03*
D27*
X96774000Y-77860000D03*
D28*
X94234000Y-72780000D03*
X87884000Y-75320000D03*
%TD*%
D19*
%TO.C,C14*%
X191268000Y-95608600D03*
X189193000Y-95608600D03*
%TD*%
D29*
%TO.C,D3*%
X175158400Y-45644800D03*
X175158400Y-48944800D03*
%TD*%
D17*
%TO.C,R37*%
X176657000Y-94421517D03*
X178657000Y-94421517D03*
%TD*%
D24*
%TO.C,D1*%
X169138600Y-60247800D03*
X169138600Y-56947800D03*
%TD*%
D17*
%TO.C,R1*%
X184563000Y-90528600D03*
X186563000Y-90528600D03*
%TD*%
D16*
%TO.C,R19*%
X102108000Y-52340000D03*
X102108000Y-54340000D03*
%TD*%
D20*
%TO.C,J7*%
X118461000Y-32190800D03*
D11*
X107061000Y-32190800D03*
X115361000Y-32190800D03*
%TD*%
D29*
%TO.C,D4*%
X175082200Y-35865800D03*
X175082200Y-39165800D03*
%TD*%
D19*
%TO.C,C2*%
X181885500Y-47371000D03*
X179810500Y-47371000D03*
%TD*%
D30*
%TO.C,C18*%
X103124000Y-146452500D03*
X103124000Y-144377500D03*
%TD*%
D10*
%TO.C,J1*%
X86614000Y-97194000D03*
D11*
X86614000Y-108594000D03*
X86614000Y-100294000D03*
%TD*%
D19*
%TO.C,C5*%
X186330500Y-39495600D03*
X184255500Y-39495600D03*
%TD*%
D17*
%TO.C,R5*%
X184547000Y-98402600D03*
X186547000Y-98402600D03*
%TD*%
D31*
%TO.C,J11*%
X164211000Y-90551000D03*
X164211000Y-88011000D03*
X164211000Y-85471000D03*
X164211000Y-82931000D03*
X164211000Y-80391000D03*
X164211000Y-77851000D03*
X164211000Y-75311000D03*
X164211000Y-72771000D03*
X164211000Y-70231000D03*
X164211000Y-67691000D03*
X164211000Y-65151000D03*
X164211000Y-62611000D03*
D32*
X164211000Y-60071000D03*
%TD*%
D21*
%TO.C,LED5*%
X100330824Y-111896000D03*
D22*
X102870824Y-111896000D03*
%TD*%
D19*
%TO.C,C12*%
X191268000Y-103101600D03*
X189193000Y-103101600D03*
%TD*%
D10*
%TO.C,J3*%
X116597648Y-97194000D03*
D11*
X116597648Y-108594000D03*
X116597648Y-100294000D03*
%TD*%
D18*
%TO.C,R32*%
X166929000Y-102251000D03*
X166929000Y-104251000D03*
%TD*%
D22*
%TO.C,LED7*%
X105918000Y-144526000D03*
D21*
X105918000Y-147066000D03*
%TD*%
D16*
%TO.C,R8*%
X105918000Y-88515000D03*
X105918000Y-90515000D03*
%TD*%
%TO.C,R28*%
X103516648Y-30142000D03*
X103516648Y-32142000D03*
%TD*%
%TO.C,R10*%
X93472000Y-119278000D03*
X93472000Y-121278000D03*
%TD*%
D14*
%TO.C,O5*%
X178359000Y-110936000D03*
X179629000Y-110936000D03*
X180899000Y-110936000D03*
X182169000Y-110936000D03*
X183439000Y-110936000D03*
X184709000Y-110936000D03*
X185979000Y-110936000D03*
X185979000Y-115886000D03*
X184709000Y-115886000D03*
X183439000Y-115886000D03*
X182169000Y-115886000D03*
X180899000Y-115886000D03*
X179629000Y-115886000D03*
X178359000Y-115886000D03*
%TD*%
D17*
%TO.C,R2*%
X184547000Y-93068600D03*
X186547000Y-93068600D03*
%TD*%
D19*
%TO.C,C4*%
X179980500Y-39497000D03*
X177905500Y-39497000D03*
%TD*%
D31*
%TO.C,J18*%
X195389500Y-40513000D03*
X195389500Y-43053000D03*
X195389500Y-45593000D03*
D32*
X195389500Y-48133000D03*
%TD*%
D33*
%TO.C,Q1*%
X174096000Y-63500000D03*
D34*
X172826000Y-62230000D03*
X174096000Y-60960000D03*
%TD*%
D27*
%TO.C,SW1*%
X106451400Y-77885400D03*
D25*
X111531400Y-77885400D03*
D27*
X116611400Y-77885400D03*
D28*
X114071400Y-72805400D03*
X107721400Y-75345400D03*
%TD*%
D16*
%TO.C,R27*%
X99579648Y-27428000D03*
X99579648Y-29428000D03*
%TD*%
D10*
%TO.C,J5*%
X101605824Y-114974000D03*
D11*
X101605824Y-126374000D03*
X101605824Y-118074000D03*
%TD*%
D17*
%TO.C,R36*%
X175311000Y-119507000D03*
X177311000Y-119507000D03*
%TD*%
D18*
%TO.C,R25*%
X190373000Y-77613000D03*
X190373000Y-79613000D03*
%TD*%
D19*
%TO.C,C10*%
X191268000Y-93068600D03*
X189193000Y-93068600D03*
%TD*%
D16*
%TO.C,R9*%
X109982000Y-92862000D03*
X109982000Y-94862000D03*
%TD*%
D19*
%TO.C,C13*%
X191268000Y-98402600D03*
X189193000Y-98402600D03*
%TD*%
D16*
%TO.C,R7*%
X93218000Y-100736000D03*
X93218000Y-102736000D03*
%TD*%
D19*
%TO.C,C7*%
X195474500Y-78994000D03*
X193399500Y-78994000D03*
%TD*%
D17*
%TO.C,R34*%
X172355000Y-89849517D03*
X174355000Y-89849517D03*
%TD*%
D25*
%TO.C,VR1*%
X115759400Y-59597400D03*
X106959400Y-59597400D03*
D22*
X108859400Y-52597400D03*
X111359400Y-52597400D03*
X113859400Y-52597400D03*
%TD*%
D19*
%TO.C,C15*%
X186330500Y-43053000D03*
X184255500Y-43053000D03*
%TD*%
D21*
%TO.C,LED2*%
X102880824Y-94116000D03*
D22*
X100340824Y-94116000D03*
%TD*%
D25*
%TO.C,VR2*%
X96232648Y-59587000D03*
X87432648Y-59587000D03*
D22*
X89332648Y-52587000D03*
X91832648Y-52587000D03*
X94332648Y-52587000D03*
%TD*%
D17*
%TO.C,R3*%
X184547000Y-106022600D03*
X186547000Y-106022600D03*
%TD*%
%TO.C,R4*%
X184547000Y-103101600D03*
X186547000Y-103101600D03*
%TD*%
D16*
%TO.C,R39*%
X170993000Y-100545600D03*
X170993000Y-98545600D03*
%TD*%
D21*
%TO.C,LED4*%
X85339000Y-111896000D03*
D22*
X87879000Y-111896000D03*
%TD*%
D32*
%TO.C,J12*%
X117957600Y-48142000D03*
D31*
X117957600Y-45602000D03*
X117957600Y-43062000D03*
X117957600Y-40522000D03*
%TD*%
D19*
%TO.C,C9*%
X191268000Y-90528600D03*
X189193000Y-90528600D03*
%TD*%
D35*
%TO.C,C17*%
X103632000Y-140004500D03*
X103632000Y-142079500D03*
%TD*%
D15*
%TO.C,R40*%
X174355000Y-94421517D03*
X172355000Y-94421517D03*
%TD*%
D10*
%TO.C,J6*%
X116597648Y-114974000D03*
D11*
X116597648Y-126374000D03*
X116597648Y-118074000D03*
%TD*%
D21*
%TO.C,LED3*%
X117872648Y-94116000D03*
D22*
X115332648Y-94116000D03*
%TD*%
D16*
%TO.C,R12*%
X109739648Y-121789000D03*
X109739648Y-123789000D03*
%TD*%
D18*
%TO.C,R38*%
X166929000Y-106315000D03*
X166929000Y-108315000D03*
%TD*%
D15*
%TO.C,R35*%
X168691000Y-119507000D03*
X166691000Y-119507000D03*
%TD*%
%TO.C,R14*%
X95266000Y-90052000D03*
X97266000Y-90052000D03*
%TD*%
D19*
%TO.C,C8*%
X195474500Y-72644000D03*
X193399500Y-72644000D03*
%TD*%
D21*
%TO.C,LED1*%
X87889000Y-94116000D03*
D22*
X85349000Y-94116000D03*
%TD*%
D17*
%TO.C,R15*%
X116581648Y-90306000D03*
X114581648Y-90306000D03*
%TD*%
D19*
%TO.C,C6*%
X179980500Y-35941000D03*
X177905500Y-35941000D03*
%TD*%
D18*
%TO.C,R33*%
X169037000Y-93973600D03*
X169037000Y-95973600D03*
%TD*%
D32*
%TO.C,J14*%
X108204000Y-41284000D03*
D31*
X108204000Y-43824000D03*
X108204000Y-46364000D03*
%TD*%
%TO.C,J16*%
X192659000Y-28600400D03*
X195199000Y-28600400D03*
X197739000Y-28600400D03*
X200279000Y-28600400D03*
X192659000Y-31140400D03*
X195199000Y-31140400D03*
X197739000Y-31140400D03*
D32*
X200279000Y-31140400D03*
%TD*%
D31*
%TO.C,J15*%
X199263000Y-42291000D03*
X199263000Y-44831000D03*
X199263000Y-47371000D03*
D32*
X199263000Y-49911000D03*
%TD*%
D36*
%TO.C,U2*%
X182339000Y-57658000D03*
X182339000Y-60198000D03*
D37*
X182339000Y-62738000D03*
D36*
X182339000Y-65278000D03*
X182339000Y-67818000D03*
X182339000Y-70358000D03*
X182339000Y-72898000D03*
D37*
X182339000Y-75438000D03*
D36*
X182339000Y-77978000D03*
X182339000Y-80518000D03*
X182339000Y-83058000D03*
X182339000Y-85598000D03*
D37*
X182339000Y-88138000D03*
D36*
X182339000Y-90678000D03*
X182339000Y-93218000D03*
X182339000Y-95758000D03*
X182339000Y-98298000D03*
D37*
X182339000Y-100838000D03*
D36*
X182339000Y-103378000D03*
X182339000Y-105918000D03*
X200119000Y-105918000D03*
X200119000Y-103378000D03*
D38*
X200119000Y-100838000D03*
D36*
X200119000Y-98298000D03*
X200119000Y-95758000D03*
X200119000Y-93218000D03*
X200119000Y-90678000D03*
D38*
X200119000Y-88138000D03*
D36*
X200119000Y-85598000D03*
X200119000Y-83058000D03*
X200119000Y-80518000D03*
X200119000Y-77978000D03*
D38*
X200119000Y-75438000D03*
D36*
X200119000Y-72898000D03*
X200119000Y-70358000D03*
X200119000Y-67818000D03*
X200119000Y-65278000D03*
D38*
X200119000Y-62738000D03*
D36*
X200119000Y-60198000D03*
D39*
X200119000Y-57658000D03*
%TD*%
D31*
%TO.C,J21*%
X100584000Y-150664000D03*
X103124000Y-150664000D03*
D32*
X105664000Y-150664000D03*
%TD*%
%TO.C,J19*%
X114211500Y-48142000D03*
D31*
X114211500Y-45602000D03*
X114211500Y-43062000D03*
X114211500Y-40522000D03*
%TD*%
D32*
%TO.C,J17*%
X83058000Y-60080000D03*
D31*
X83058000Y-62620000D03*
X83058000Y-65160000D03*
X83058000Y-67700000D03*
X83058000Y-70240000D03*
X83058000Y-72780000D03*
X83058000Y-75320000D03*
X83058000Y-77860000D03*
X83058000Y-80400000D03*
X83058000Y-82940000D03*
X83058000Y-85480000D03*
X83058000Y-88020000D03*
X83058000Y-90560000D03*
%TD*%
D27*
%TO.C,J10*%
X169545000Y-31877000D03*
X167005000Y-31877000D03*
X169545000Y-34417000D03*
X167005000Y-34417000D03*
X169545000Y-36957000D03*
X167005000Y-36957000D03*
X169545000Y-39497000D03*
X167005000Y-39497000D03*
X169545000Y-42037000D03*
X167005000Y-42037000D03*
X169545000Y-44577000D03*
X167005000Y-44577000D03*
X169545000Y-47117000D03*
X167005000Y-47117000D03*
X169545000Y-49657000D03*
D40*
X167005000Y-49657000D03*
%TD*%
M02*
